<svg width="205" height="42" viewBox="0 0 205 42" fill="none" xmlns="http://www.w3.org/2000/svg">
<g id="_&#229;&#156;&#150;&#229;&#177;&#164;_1" clip-path="url(#clip0_60_693)">
<path id="Vector" d="M10.3094 0.224207V16.257H9.11502V13.7785C8.46278 15.3317 6.97486 16.5016 5.01815 16.5016C1.88741 16.5016 0 13.913 0 10.3094C0 6.70581 1.98117 4.3863 4.97331 4.3863C6.81995 4.3863 8.25895 5.3565 8.95603 6.75066V0.224207H10.3053H10.3094ZM9.02533 10.3583C9.02533 7.25206 7.40289 5.56032 5.13229 5.56032C2.86169 5.56032 1.34932 7.2969 1.34932 10.3135C1.34932 13.3301 2.76793 15.3357 5.13229 15.3357C7.49665 15.3357 9.02533 13.4198 9.02533 10.3583Z" fill="#662D91"/>
<path id="Vector_2" d="M23.5298 10.6274H14.3903C14.3903 13.6684 15.9435 15.401 18.4424 15.401C20.5377 15.401 21.6628 14.2065 22.1356 12.7431L23.3749 12.9225C22.7675 14.9729 21.0554 16.5261 18.422 16.5261C15.0466 16.5261 13.041 14.0272 13.041 10.4032C13.041 6.77919 15.0222 4.36999 18.3323 4.36999C21.6424 4.36999 23.5339 6.64467 23.5339 10.0445V10.6315L23.5298 10.6274ZM14.4148 9.6368H22.2702C22.0663 7.06862 20.6926 5.4951 18.3527 5.4951C16.0128 5.4951 14.5942 7.0034 14.4148 9.6368Z" fill="#662D91"/>
<path id="Vector_3" d="M35.5635 1.41862H29.9584V16.257H28.5846V1.41862H23.0039V0.224207H35.5635V1.41862Z" fill="#662D91"/>
<path id="Vector_4" d="M35.0576 10.448C35.0576 6.70989 37.2875 4.34553 40.5283 4.34553C43.7691 4.34553 45.9541 6.68543 45.9541 10.4032C45.9541 14.1209 43.7038 16.5505 40.5079 16.5505C37.3119 16.5505 35.0617 14.1169 35.0617 10.448H35.0576ZM44.6047 10.4032C44.6047 7.36213 43.0271 5.4951 40.5079 5.4951C37.9886 5.4951 36.411 7.41105 36.411 10.448C36.411 13.485 38.009 15.401 40.5079 15.401C43.0068 15.401 44.6047 13.4198 44.6047 10.4032Z" fill="#662D91"/>
<path id="Vector_5" d="M57.9838 4.63904V16.257H56.6997V14.0068C55.9782 15.6048 54.5596 16.5505 52.5784 16.5505C50.0551 16.5505 48.5957 15.0422 48.5957 12.474V4.63904H49.945V12.2294C49.945 14.2351 50.9111 15.3602 52.8475 15.3602C54.7838 15.3602 56.6304 14.1658 56.6304 11.0147V4.64311H57.9798L57.9838 4.63904Z" fill="#662D91"/>
<path id="Vector_6" d="M67.2823 4.39037V5.7193C66.9684 5.67446 66.6749 5.65 66.361 5.65C64.4939 5.65 62.7125 6.95448 62.6677 9.81617V16.257H61.3184V4.63904H62.578V7.2276C63.2547 5.40542 64.604 4.32107 66.5607 4.32107C66.8298 4.32107 67.054 4.34553 67.2823 4.39037Z" fill="#662D91"/>
<path id="Vector_7" d="M80.1359 9.95477L82.5003 8.53615C84.3225 7.47627 85.1337 6.35116 85.1337 4.77764C85.1337 2.79647 83.8496 1.28817 81.4404 1.28817C79.235 1.28817 77.7267 2.5478 77.7267 5.42987V5.60924H76.353V5.36057C76.353 1.8711 78.4931 0.0692997 81.4649 0.0692997C84.4366 0.0692997 86.483 2.00563 86.483 4.70834C86.483 6.68951 85.472 8.24265 83.3074 9.50228L81.3711 10.6722C78.6929 12.2498 77.8164 13.485 77.7023 15.0178H86.3933V16.257H76.0391C76.1532 13.5543 77.3435 11.5976 80.1359 9.95069V9.95477Z" fill="#662D91"/>
<path id="Vector_8" d="M89.4668 8.24265C89.4668 2.59264 91.289 0 94.8681 0C98.4473 0 100.225 2.58857 100.225 8.24265C100.225 13.8967 98.4024 16.4853 94.8233 16.4853C91.2441 16.4853 89.4668 13.8519 89.4668 8.24265ZM98.8305 8.24265C98.8305 3.3794 97.5912 1.21887 94.8478 1.21887C92.1043 1.21887 90.865 3.3794 90.865 8.24265C90.865 13.1059 92.1247 15.2664 94.8722 15.2664C97.6198 15.2664 98.8346 13.1263 98.8346 8.24265H98.8305Z" fill="#662D91"/>
<path id="Vector_9" d="M107.248 9.95477L109.613 8.53615C111.435 7.47627 112.246 6.35116 112.246 4.77764C112.246 2.79647 110.962 1.28817 108.553 1.28817C106.347 1.28817 104.839 2.5478 104.839 5.42987V5.60924H103.465V5.36057C103.465 1.8711 105.605 0.0692997 108.577 0.0692997C111.549 0.0692997 113.595 2.00563 113.595 4.70834C113.595 6.68951 112.584 8.24265 110.42 9.50228L108.483 10.6722C105.805 12.2498 104.929 13.485 104.815 15.0178H113.506V16.257H103.151C103.266 13.5543 104.456 11.5976 107.248 9.95069V9.95477Z" fill="#662D91"/>
<path id="Vector_10" d="M126.746 10.9209V12.1357H124.247V16.257H122.873V12.1357H115.107V10.8516L123.211 0.224207H124.247V10.9209H126.746ZM122.873 2.65787H122.828L116.546 10.9209H122.873V2.65787Z" fill="#662D91"/>
<path id="Vector_11" d="M10.3094 21.2181V37.2509H9.11502V34.7724C8.46278 36.3255 6.97486 37.4955 5.01815 37.4955C1.88741 37.4955 0 34.9069 0 31.3033C0 27.6997 1.98117 25.3802 4.97331 25.3802C6.81995 25.3802 8.25895 26.3504 8.95603 27.7445V21.214H10.3053L10.3094 21.2181ZM9.02533 31.3482C9.02533 28.2419 7.40289 26.5542 5.13229 26.5542C2.86169 26.5542 1.34932 28.2867 1.34932 31.3033C1.34932 34.3199 2.76793 36.3255 5.13229 36.3255C7.49665 36.3255 9.02533 34.4096 9.02533 31.3482Z" fill="#662D91"/>
<path id="Vector_12" d="M23.5298 31.6213H14.3903C14.3903 34.6623 15.9435 36.3948 18.4424 36.3948C20.5377 36.3948 21.6628 35.2004 22.1356 33.737L23.3749 33.9163C22.7675 35.9668 21.0554 37.5199 18.422 37.5199C15.0466 37.5199 13.041 35.0211 13.041 31.3971C13.041 27.7731 15.0222 25.3639 18.3323 25.3639C21.6424 25.3639 23.5339 27.6386 23.5339 31.0383V31.6254L23.5298 31.6213ZM14.4148 30.6266H22.2702C22.0663 28.0584 20.6926 26.4849 18.3527 26.4849C16.0128 26.4849 14.5942 27.9932 14.4148 30.6266Z" fill="#662D91"/>
<path id="Vector_13" d="M25.4865 33.6677H26.7706C26.95 35.5143 28.1444 36.4152 30.2804 36.4152C32.4165 36.4152 33.5661 35.5592 33.5661 34.1405C33.5661 32.9706 32.7997 32.2939 31.2466 32.0248L29.1309 31.6417C26.9703 31.2381 25.8004 30.3576 25.8004 28.6251C25.8004 26.6194 27.3535 25.4046 30.0114 25.4046C32.6693 25.4046 34.3325 26.6194 34.5811 28.9186H33.2522C33.028 27.3654 31.9233 26.4849 29.9869 26.4849C28.2096 26.4849 27.06 27.182 27.06 28.5109C27.06 29.6605 27.8916 30.1782 29.4448 30.4472L31.5156 30.8508C33.8351 31.2992 34.8706 32.3591 34.8706 34.0264C34.8706 36.2114 33.1381 37.5403 30.2315 37.5403C27.325 37.5403 25.6862 36.2114 25.4824 33.6677H25.4865Z" fill="#662D91"/>
<path id="Vector_14" d="M37.4424 21.2181H38.8814V23.0403H37.4424V21.2181ZM37.4872 25.6288H38.8365V37.2468H37.4872V25.6288Z" fill="#662D91"/>
<path id="Vector_15" d="M51.9062 25.6288V37.1123C51.9062 40.5365 49.8598 42 46.7046 42C43.8022 42 42.2491 40.6507 41.9759 38.8489H43.2804C43.5739 40.0188 44.5645 40.9197 46.7454 40.9197C49.2891 40.9197 50.5936 39.7946 50.5936 37.2264V34.8621C49.9169 36.3704 48.4535 37.4955 46.5416 37.4955C43.4108 37.4955 41.5234 34.9069 41.5234 31.3033C41.5234 27.6997 43.5046 25.3802 46.4967 25.3802C48.4983 25.3802 50.0066 26.5297 50.6385 28.0829V25.6288H51.8981H51.9062ZM50.5569 31.3482C50.5569 28.2419 48.9345 26.5542 46.6639 26.5542C44.3933 26.5542 42.8809 28.2867 42.8809 31.3033C42.8809 34.3199 44.2995 36.3255 46.6639 36.3255C49.0282 36.3255 50.5569 34.4096 50.5569 31.3482Z" fill="#662D91"/>
<path id="Vector_16" d="M64.6282 29.4118V37.2468H63.2789V29.6564C63.2789 27.6508 62.3087 26.5257 60.352 26.5257C58.3953 26.5257 56.5935 27.7201 56.5935 30.8712V37.2427H55.2441V25.6248H56.5038V27.875C57.2253 26.277 58.6643 25.3313 60.6251 25.3313C63.1484 25.3313 64.6323 26.8396 64.6323 29.4077L64.6282 29.4118Z" fill="#662D91"/>
<path id="Vector_17" d="M77.0091 24.3448V25.6737L80.0502 25.6288V26.6887L77.0091 26.6439V37.2509H75.6598V26.6439L73.6338 26.6887V25.6288L75.6598 25.6737V24.5241C75.6598 22.1801 76.6952 21.214 78.8558 21.214H80.0502V22.3636H78.8802C77.6206 22.3636 77.0132 22.8365 77.0132 24.3448H77.0091Z" fill="#662D91"/>
<path id="Vector_18" d="M91.5005 31.6213H82.361C82.361 34.6623 83.9142 36.3948 86.4131 36.3948C88.5084 36.3948 89.6335 35.2004 90.1064 33.737L91.3456 33.9163C90.7382 35.9668 89.0261 37.5199 86.3927 37.5199C83.0173 37.5199 81.0117 35.0211 81.0117 31.3971C81.0117 27.7731 82.9929 25.3639 86.303 25.3639C89.6131 25.3639 91.5046 27.6386 91.5046 31.0383V31.6254L91.5005 31.6213ZM82.3855 30.6266H90.2409C90.0371 28.0584 88.6633 26.4849 86.3234 26.4849C83.9835 26.4849 82.5649 27.9932 82.3855 30.6266Z" fill="#662D91"/>
<path id="Vector_19" d="M93.4572 33.6677H94.7413C94.9207 35.5143 96.1151 36.4152 98.2511 36.4152C100.387 36.4152 101.537 35.5592 101.537 34.1405C101.537 32.9706 100.77 32.2939 99.2173 32.0248L97.1016 31.6417C94.941 31.2381 93.7711 30.3576 93.7711 28.6251C93.7711 26.6194 95.3242 25.4046 97.9821 25.4046C100.64 25.4046 102.303 26.6194 102.552 28.9186H101.223C100.999 27.3654 99.894 26.4849 97.9576 26.4849C96.1803 26.4849 95.0307 27.182 95.0307 28.5109C95.0307 29.6605 95.8623 30.1782 97.4155 30.4472L99.4863 30.8508C101.806 31.2992 102.841 32.3591 102.841 34.0264C102.841 36.2114 101.109 37.5403 98.2022 37.5403C95.2957 37.5403 93.6569 36.2114 93.4531 33.6677H93.4572Z" fill="#662D91"/>
<path id="Vector_20" d="M107.432 34.593C107.432 35.6733 107.836 36.1013 108.896 36.1013H110.335V37.2509H108.533C106.865 37.2509 106.079 36.4641 106.079 34.752V26.648L104.077 26.6928V25.6329L106.079 25.6778V22.1883H107.428V25.6778L110.355 25.6329V26.6928L107.428 26.648V34.5971L107.432 34.593Z" fill="#662D91"/>
<path id="Vector_21" d="M112.466 21.2181H113.905V23.0403H112.466V21.2181ZM112.511 25.6288H113.86V37.2468H112.511V25.6288Z" fill="#662D91"/>
<path id="Vector_22" d="M126.477 25.6288L121.997 37.2468H120.648L116.033 25.6288H117.497L120.627 33.8715L121.349 36.0769L122.046 33.8715L125.107 25.6288H126.481H126.477Z" fill="#662D91"/>
<path id="Vector_23" d="M138.927 36.2114V37.2468H138.185C136.677 37.2468 136.025 36.5701 135.98 35.0618C135.258 36.5946 133.64 37.5403 131.544 37.5403C129.001 37.5403 127.627 36.1666 127.627 34.2098C127.627 32.3877 128.752 31.1036 131.41 30.7408L134.337 30.3576C135.552 30.1782 135.8 29.6809 135.8 28.9389V28.6454C135.8 27.3165 134.879 26.4401 132.67 26.4401C130.46 26.4401 129.653 27.2064 129.474 28.9186H128.124C128.328 26.5746 129.767 25.315 132.763 25.315C135.76 25.315 137.174 26.5746 137.174 28.7596V34.6134C137.174 35.7834 137.512 36.2114 138.568 36.2114H138.927ZM135.796 33.1296V30.9894C135.572 31.1484 135.254 31.2381 134.85 31.3033L131.63 31.7762C129.739 32.0452 128.952 32.9013 128.952 34.165C128.952 35.5143 129.918 36.4601 131.765 36.4601C133.905 36.4601 135.592 35.2004 135.792 33.1296H135.796Z" fill="#662D91"/>
<path id="Vector_24" d="M140.944 21.2181H142.294V37.2509H140.944V21.2181Z" fill="#662D91"/>
<path id="Vector_25" d="M151.078 25.0418V24.0472H157.613V25.0418H151.078ZM151.645 27.5285V26.5338H157.042V27.5285H151.645ZM151.645 29.9458V29.0246H157.042V29.9458H151.645ZM157.682 37.8298C157.633 37.6871 157.49 37.4506 157.254 37.1204C157.16 36.9778 157.087 36.8596 157.042 36.7658V37.3324H155.978V36.2685H152.782V37.2631H151.718V31.5112H157.046V36.6965C159.08 36.0809 160.67 35.4165 161.803 34.7072C160.572 33.5698 159.578 32.033 158.819 30.0885H158.179V29.0246H166.846V30.1619C165.896 32.1023 164.832 33.6187 163.65 34.7072C164.69 35.3716 166.23 35.9872 168.269 36.5538C168.22 36.5987 168.175 36.672 168.126 36.7658C167.89 37.1897 167.722 37.4996 167.629 37.6871C165.733 37.0715 164.098 36.3378 162.729 35.4858C161.498 36.2888 159.818 37.0715 157.686 37.8298H157.682ZM152.142 22.5552V21.6339H156.545V22.5552H152.142ZM152.782 32.5018V35.4124H155.978V32.5018H152.782ZM158.607 28.3112C158.558 28.2174 158.416 28.0503 158.179 27.8138C158.037 27.6263 157.918 27.4836 157.825 27.3899C159.292 26.6806 159.977 25.3557 159.883 23.4112V21.7073H165.211V25.3313C165.162 26.1384 165.448 26.5175 166.063 26.4686H166.206C166.634 26.5175 166.891 26.2566 166.989 25.6859C167.082 25.262 167.131 24.8584 167.131 24.4793C167.368 24.573 167.698 24.6913 168.126 24.8339C168.126 25.0255 168.077 25.3802 167.983 25.8979C167.934 25.9917 167.914 26.065 167.914 26.1099C167.722 27.1045 167.156 27.5774 166.21 27.5285H165.713C164.624 27.5285 164.078 26.8681 164.078 25.5392V22.7672H160.951C161.139 25.5147 160.36 27.3614 158.607 28.3071V28.3112ZM165.566 30.0844H160.026C160.735 31.6947 161.612 32.995 162.655 33.9897C163.65 33.2315 164.62 31.9311 165.566 30.0844Z" fill="#662D91"/>
<path id="Vector_26" d="M169.264 25.1152V24.1205H176.793V25.1152H169.264ZM169.83 27.6712V26.7499H176.153V27.6712H169.83ZM169.83 30.2271V29.3018H176.153V30.2271H169.83ZM170.042 37.6137V31.8618H176.01V37.5444H174.873V36.6924H171.106V37.6178H170.042V37.6137ZM170.258 22.5552V21.5605H175.729V22.5552H170.258ZM171.11 32.8565V35.7671H174.877V32.8565H171.11ZM177.005 28.0951V27.0312H181.126V20.8512H182.333V27.0312H186.454V28.0951H182.333V37.8257H181.126V28.0951H177.005Z" fill="#662D91"/>
<path id="Vector_27" d="M188.44 26.1099C188.248 25.8245 187.967 25.5677 187.588 25.3272C189.055 24.0023 190.144 22.4859 190.857 20.7819L191.995 20.9939C191.946 21.1366 191.827 21.373 191.64 21.7032C191.497 22.0334 191.379 22.2943 191.285 22.4859H196.185V23.4072H190.645C190.079 24.3081 189.341 25.209 188.444 26.1058L188.44 26.1099ZM188.656 37.2591L188.159 36.1217L189.011 35.9097V26.3218H195.757V32.4325H190.144V35.6285L193.768 34.3484L192.916 33.2111L193.768 32.7138C194.762 33.9449 195.663 35.0822 196.466 36.1217L195.541 36.7617C195.211 36.1951 194.832 35.6978 194.404 35.2697C192.7 35.7426 190.78 36.4071 188.652 37.2591H188.656ZM190.148 27.2431V28.8778H194.624V27.2431H190.148ZM190.148 31.5071H194.624V29.8032H190.148V31.5071ZM193.201 25.9672C193.059 25.7797 192.798 25.4699 192.419 25.0418C192.088 24.6627 191.827 24.3814 191.636 24.1898L192.419 23.5498C192.985 24.1654 193.531 24.7361 194.053 25.2538L193.201 25.9631V25.9672ZM196.54 25.9672C196.303 25.7308 195.994 25.5188 195.614 25.3272C196.894 23.9534 197.84 22.4614 198.456 20.8512L199.662 21.0632C199.614 21.2059 199.495 21.4423 199.308 21.7725C199.165 22.0578 199.047 22.2943 198.953 22.4818H204.424V23.4031H198.456C197.889 24.304 197.249 25.156 196.54 25.959V25.9672ZM197.461 37.8298V26.7499H203.286V33.4272C203.331 34.8947 202.622 35.6285 201.154 35.6285H199.377C199.377 35.5347 199.353 35.4165 199.308 35.2738C199.259 34.9436 199.214 34.7072 199.165 34.5645H200.942C201.794 34.6134 202.198 34.1609 202.149 33.2152V27.7445H198.598V37.8298H197.461ZM201.016 26.1099C200.873 25.9672 200.612 25.6818 200.233 25.2579C199.805 24.785 199.499 24.4548 199.308 24.2632L200.09 23.6966C200.755 24.2632 201.346 24.8584 201.868 25.4739L201.016 26.1139V26.1099Z" fill="#662D91"/>
</g>
<defs>
<clipPath id="clip0_60_693">
<rect width="204.423" height="42" fill="white"/>
</clipPath>
</defs>
</svg>
