<svg width="80" height="80" viewBox="0 0 80 80" fill="none" xmlns="http://www.w3.org/2000/svg">
<path d="M35.6277 46.5231C33.7953 44.0538 30.1307 42.78 25.9907 42.78C16.7507 42.78 11.9692 50.9862 11.9692 59.9862C11.9692 68.3492 16.7507 77.2708 26.7846 77.2708C30.5277 77.2708 33.4769 75.8354 35.6277 73.3662V76.4723H45.9846V25.4908H53.6323C56.9784 25.4908 60.3246 25.3292 63.6707 25.0938C61.52 27.0831 58.4923 29.3954 56.263 31.4677L52.52 35.0538L59.0507 41.6677L80 20.7969L59.0507 0L52.52 6.45231L56.263 10.0385C58.4138 12.0277 61.52 14.5015 63.6707 16.4908C60.2461 16.2508 56.9784 16.0938 53.5538 16.0938H6.15381V25.4954H35.6277V46.5277V46.5231ZM35.9461 61.1815C35.9461 65.9631 32.9969 68.9862 29.3323 68.9862C24.2323 68.9862 22.243 64.9246 22.243 59.9862C22.243 55.0477 24.2323 51.0646 29.3323 51.0646C32.9969 51.0646 35.9461 53.6954 35.9461 58.7908V61.1815Z" fill="#662D91"/>
</svg>
