<svg width="25" height="24" viewBox="0 0 25 24" fill="none" xmlns="http://www.w3.org/2000/svg">
<g id="icon_IG">
<g id="IG">
<g id="sns3-IG">
<g id="Shape">
<path id="Vector" d="M15.846 2.93005C16.366 2.93005 16.856 2.93005 17.306 2.99005H17.356H17.406C18.046 3.03005 18.666 3.19005 19.256 3.45005C20.196 3.87005 20.926 4.67005 21.286 5.66005C21.436 6.05005 21.536 6.46005 21.576 6.88005C21.576 7.19005 21.606 7.48005 21.626 7.77005C21.646 8.03005 21.666 8.27005 21.666 8.48005V16.2701C21.646 16.8801 21.556 17.4901 21.376 18.0701C21.166 18.7601 20.776 19.3701 20.236 19.8501C19.856 20.1901 19.416 20.4501 18.916 20.6201C18.496 20.7701 18.066 20.8701 17.626 20.9101C17.316 20.9101 17.026 20.9301 16.746 20.9601C16.536 20.9801 16.336 20.9901 16.136 21.0001L12.986 21.0601H9.59602C9.01602 21.0601 8.50602 21.0601 7.96602 20.9901H7.91602H7.86602C7.16602 20.9501 6.46602 20.7501 5.85602 20.4201C5.08602 19.9901 4.48602 19.3101 4.15602 18.4701C3.97602 18.0301 3.85602 17.5701 3.79602 17.0801C3.71602 16.5401 3.67602 16.0001 3.66602 15.4801V7.70005C3.69602 7.11005 3.80602 6.53005 4.00602 5.92005C4.28602 4.97005 4.91602 4.17005 5.76602 3.67005C6.21602 3.41005 6.71602 3.23005 7.25602 3.13005C7.60602 3.06005 7.95602 3.02005 8.28602 3.00005C10.066 2.93005 11.886 2.93005 13.646 2.93005H15.856M15.846 1.43005H13.636C11.836 1.43005 10.026 1.43005 8.21602 1.50005C7.79602 1.52005 7.37602 1.57005 6.96602 1.65005C6.27602 1.77005 5.61602 2.01005 5.01602 2.36005C3.83602 3.05005 2.95602 4.17005 2.56602 5.48005C2.33602 6.18005 2.20602 6.91005 2.16602 7.64005V15.4601C2.17602 16.0701 2.22602 16.6701 2.30602 17.2701C2.38602 17.8701 2.53602 18.4601 2.76602 19.0201C3.21602 20.1701 4.05602 21.1201 5.12602 21.7201C5.93602 22.1601 6.83602 22.4201 7.76602 22.4801C8.40602 22.5601 8.98602 22.5601 9.58602 22.5601H12.976L16.156 22.5001C16.666 22.4901 17.186 22.4201 17.696 22.4201C18.286 22.3701 18.866 22.2401 19.426 22.0401C20.096 21.8101 20.706 21.4501 21.236 20.9801C21.976 20.3201 22.516 19.4701 22.806 18.5201C23.026 17.8101 23.136 17.0701 23.156 16.3201V8.49005C23.156 7.93005 23.066 7.37005 23.066 6.81005C23.016 6.24005 22.886 5.67005 22.676 5.13005C22.186 3.78005 21.176 2.68005 19.866 2.09005C19.116 1.75005 18.316 1.55005 17.506 1.50005C16.966 1.43005 16.406 1.43005 15.846 1.43005Z" fill="black"/>
</g>
<g id="Shape_2">
<path id="Vector_2" d="M12.7266 6.5V8C13.8066 8 14.8066 8.42 15.5566 9.18C16.3066 9.94 16.7266 10.94 16.7166 12.01C16.7166 14.21 14.9166 16 12.7166 16C10.5166 16 8.72656 14.2 8.72656 12C8.72656 9.8 10.5266 8.01 12.7266 8.01V6.51M12.7266 6.5C9.69656 6.5 7.23656 8.95 7.22656 11.98C7.22656 15.02 9.67656 17.48 12.7066 17.49C12.7066 17.49 12.7066 17.49 12.7166 17.49C15.7466 17.49 18.2066 15.04 18.2166 12.01C18.2166 10.55 17.6466 9.15 16.6166 8.12C15.5866 7.09 14.1866 6.5 12.7366 6.5C12.7366 6.5 12.7366 6.5 12.7266 6.5Z" fill="black"/>
</g>
</g>
</g>
<path id="Path" d="M19.6868 6.28003C19.6868 6.79003 19.3768 7.24003 18.9168 7.44003C18.4468 7.63003 17.9068 7.52003 17.5568 7.16003C17.1968 6.80003 17.0968 6.26003 17.2968 5.79003C17.4968 5.32003 17.9568 5.02003 18.4568 5.03003C19.1468 5.03003 19.6968 5.59003 19.6968 6.28003H19.6868Z" fill="black"/>
</g>
</svg>
