<svg width="24" height="24" viewBox="0 0 24 24" fill="none" xmlns="http://www.w3.org/2000/svg">
<g id="linkedin">
<path id="Vector" d="M19.48 19.4714H16.3347V14.5494C16.3347 13.3704 16.3151 11.8673 14.7031 11.8673C13.0911 11.8673 12.816 13.1444 12.816 14.4707V19.4812H9.67067V9.35225H12.6882V10.7375H12.7275C13.3467 9.68622 14.4869 9.0575 15.7058 9.0968C18.8904 9.0968 19.48 11.1894 19.48 13.9206V19.4812V19.4714ZM6.11254 7.95716C5.10015 7.95716 4.28434 7.14174 4.28434 6.12982C4.28434 5.11791 5.10015 4.30248 6.11254 4.30248C7.12494 4.30248 7.94074 5.11791 7.94074 6.12982C7.94074 7.14174 7.12494 7.95716 6.11254 7.95716ZM7.68519 19.4714H4.5399V9.34237H7.68519V19.4714ZM21.0429 1.38463H2.94759C2.09246 1.38463 1.3946 2.06251 1.38477 2.91724V21.0826C1.3946 21.9373 2.09246 22.625 2.94759 22.6152H21.0429C21.898 22.625 22.6058 21.9373 22.6155 21.0826V2.91724C22.6058 2.06251 21.898 1.3748 21.0429 1.38463Z" fill="white"/>
</g>
</svg>
