<svg width="25" height="24" viewBox="0 0 25 24" fill="none" xmlns="http://www.w3.org/2000/svg">
<g id="icon_web">
<g id="icon">
<path id="Vector" d="M12.3317 22.1848C17.9567 22.1848 22.5169 17.6254 22.5169 12.0001C22.5169 6.37487 17.9567 1.81482 12.3317 1.81482C6.70654 1.81482 2.14648 6.37487 2.14648 12.0001C2.14648 17.6254 6.70654 22.1848 12.3317 22.1848Z" stroke="black" stroke-width="1.4"/>
<path id="Vector_2" d="M16.4187 12.0001C16.4187 14.9469 15.8861 17.5774 15.0578 19.4407C14.6434 20.3737 14.1702 21.0795 13.685 21.5412C13.2037 21.9989 12.748 22.1848 12.3324 22.1848C11.9167 22.1848 11.4609 21.9989 10.9798 21.5412C10.4945 21.0795 10.0214 20.3737 9.60682 19.4407C8.77859 17.5774 8.24609 14.9469 8.24609 12.0001C8.24609 9.05241 8.77859 6.42282 9.60682 4.55933C10.0214 3.62658 10.4945 2.92078 10.9798 2.45895C11.4609 2.00107 11.9167 1.81482 12.3324 1.81482C12.748 1.81482 13.2037 2.00107 13.685 2.45895C14.1702 2.92078 14.6434 3.62658 15.0578 4.55933C15.8861 6.42282 16.4187 9.05241 16.4187 12.0001Z" stroke="black" stroke-width="1.4"/>
<path id="Vector_3" d="M22.5169 12C22.5169 12.4156 22.3305 12.8716 21.8727 13.3527C21.4108 13.8381 20.7051 14.3108 19.7723 14.7256C17.9087 15.5534 15.2788 16.0858 12.3317 16.0858C9.38453 16.0858 6.75455 15.5534 4.89103 14.7256C3.95827 14.3108 3.25251 13.8381 2.79067 13.3527C2.33273 12.8716 2.14648 12.4156 2.14648 12C2.14648 11.5845 2.33273 11.1285 2.79067 10.6474C3.25251 10.162 3.95827 9.68913 4.89103 9.27447C6.75455 8.44582 9.38453 7.91333 12.3317 7.91333C15.2788 7.91333 17.9087 8.44582 19.7723 9.27447C20.7051 9.68913 21.4108 10.162 21.8727 10.6474C22.3305 11.1285 22.5169 11.5845 22.5169 12Z" stroke="black" stroke-width="1.4"/>
</g>
</g>
</svg>
