<svg width="24" height="24" viewBox="0 0 24 24" fill="none" xmlns="http://www.w3.org/2000/svg">
<path d="M22.9834 12C22.9834 14.3562 22.9816 16.0437 22.8073 17.2921C22.6349 18.5257 22.313 19.1715 21.7998 19.5797C21.2502 20.0169 20.3437 20.2967 18.7174 20.4404C17.1083 20.5826 14.948 20.5833 12.0001 20.5833C9.0521 20.5833 6.8918 20.5826 5.28275 20.4404C3.65645 20.2967 2.74996 20.0169 2.20028 19.5797C1.68714 19.1715 1.36517 18.5257 1.19285 17.2921C1.01847 16.0437 1.01672 14.3562 1.01672 12C1.01672 9.64374 1.01847 7.95628 1.19285 6.70791C1.36517 5.47424 1.68714 4.82846 2.20028 4.42027C2.74996 3.98303 3.65645 3.70332 5.28275 3.55958C6.8918 3.41736 9.0521 3.41666 12.0001 3.41666C14.948 3.41666 17.1083 3.41736 18.7174 3.55958C20.3437 3.70332 21.2502 3.98303 21.7998 4.42027C22.313 4.82846 22.6349 5.47424 22.8073 6.70791C22.9816 7.95629 22.9834 9.64374 22.9834 12Z" stroke="black" stroke-width="1.5"/>
<path d="M10.5 14.4312V9.56878L14.3899 12L10.5 14.4312Z" fill="black" stroke="black"/>
<path fill-rule="evenodd" clip-rule="evenodd" d="M15.9622 12L9.66663 15.9347V8.06525L15.9622 12Z" fill="black" stroke="black" stroke-width="0.5" stroke-linejoin="round"/>
</svg>
