<?xml version="1.0" standalone="no"?>
<!DOCTYPE svg PUBLIC "-//W3C//DTD SVG 1.1//EN" "http://www.w3.org/Graphics/SVG/1.1/DTD/svg11.dtd" >
<svg xmlns="http://www.w3.org/2000/svg" xmlns:xlink="http://www.w3.org/1999/xlink" version="1.1">
<metadata>
Created by FontForge 20170731 at Mon Jun  7 23:43:45 2021
 By Aleksey,,,
Copyright (c) 2021 by Pangram Pangram. All rights reserved.
</metadata>
<defs>
<font id="PPEiko-Regular" horiz-adv-x="1000" vert-adv-y="1000" >
  <font-face 
    font-family="PP Eiko"
    font-weight="400"
    font-stretch="normal"
    units-per-em="1000"
    panose-1="0 0 5 0 0 0 0 0 0 0"
    ascent="880"
    descent="-120"
    x-height="505"
    cap-height="735"
    bbox="-947 -341 1756 1047"
    underline-thickness="50"
    underline-position="-150"
    unicode-range="U+000D-FF64"
  />
<missing-glyph 
d="M483.5 487.5q-31.5 18.5 -50 50t-18.5 68.5t18.5 68.5t50 49.5t68.5 18t68.5 -18t49.5 -49.5t18 -68.5t-18 -68.5t-49.5 -50t-68.5 -18.5t-68.5 18.5zM140 536h238v-238h-238v238zM623 432h238v-238h-238v238zM379.5 6q-31.5 18 -49.5 49.5t-18 68.5t18 68.5t49.5 50
t68.5 18.5t68.5 -18.5t50 -50t18.5 -68.5t-18.5 -68.5t-50 -49.5t-68.5 -18t-68.5 18z" />
    <glyph glyph-name="T_h" unicode="Th" horiz-adv-x="1165" 
d="M1148 0h-242l82 40v320q0 48 -31 81t-77 33q-51 0 -145 -58v-376l82 -40h-242l82 40v675h-240v-672l91 -43h-266l91 43v672h-178l-126 -192l34 194v18h542l130 63v-369q63 39 109.5 62t82.5 23q60 0 99.5 -41.5t39.5 -107.5v-325z" />
    <glyph glyph-name="f_b" unicode="fb" horiz-adv-x="956" 
d="M824 484q49 -32 76 -90t27 -132q0 -79 -31 -141t-87 -97.5t-130 -35.5q-46 0 -91.5 16t-79.5 44l-60 -63v752q-21 32 -50 50t-62 18q-70 0 -110 -53.5t-40 -151.5v-105h155v-37h-155v-418l86 -40h-238l73 40v403l-83 20l83 65v82q0 62 31.5 111t89.5 76.5t134 27.5
q38 0 71.5 -8.5t55.5 -21.5l38 17v-379q55 37 101.5 60t83.5 23q63 0 112 -32zM764 33.5q37 30.5 57.5 84.5t20.5 123t-22.5 122t-62.5 82.5t-91 29.5q-26 0 -60 -15t-79 -43v-289q13 -56 56.5 -90.5t97.5 -34.5q46 0 83 30.5z" />
    <glyph glyph-name="f_f" unicode="ff" horiz-adv-x="645" 
d="M770.5 802q44.5 -23 44.5 -57q0 -17 -10.5 -28.5t-25.5 -11.5q-18 0 -30.5 11.5t-28.5 33.5q-20 28 -36.5 42t-43.5 14q-67 0 -107 -53t-40 -153v-105h155v-37h-155v-418l86 -40h-238l73 40v418h-228v-418l86 -40h-238l73 40v403l-83 20l83 65v52q0 62 31.5 110.5
t88.5 76.5t130 28q34 0 68.5 -8t59.5 -21q70 59 175 59q66 0 110.5 -23zM414 605q0 56 25 103q-23 32 -50 49.5t-54 17.5q-70 0 -109.5 -53t-39.5 -152v-75h190l38 32v78z" />
    <glyph glyph-name="f_i" unicode="fi" horiz-adv-x="582" 
d="M565 0h-227l76 40v418h-228v-418l86 -40h-238l73 40v403l-83 20l83 65v77q0 64 31 114t87 78t128 28q66 0 110.5 -23t44.5 -57q0 -17 -10.5 -28.5t-25.5 -11.5q-18 0 -30.5 11.5t-28.5 33.5q-20 28 -36.5 42t-43.5 14q-67 0 -107 -53t-40 -153v-105h216l90 47v-502z" />
    <glyph glyph-name="f_f_i" unicode="ffi" horiz-adv-x="894" 
d="M877 0h-227l76 40v418h-228v-418l86 -40h-237l72 40v418h-233v-418l86 -40h-238l73 40v403l-83 20l83 65v52q0 61 31 110t86.5 77t124.5 28q37 0 73.5 -9.5t62.5 -25.5q33 31 79 48t101 17q67 0 111.5 -23t44.5 -57q0 -17 -10.5 -28.5t-26.5 -11.5q-18 0 -30 10.5
t-29 34.5q-18 27 -35.5 41.5t-44.5 14.5q-67 0 -107 -53.5t-40 -152.5v-105h216l90 47v-502zM381 495l38 32v78q0 50 20 92q-26 39 -53 58.5t-61 19.5q-63 0 -101 -53t-38 -152v-75h195z" />
    <glyph glyph-name="f_j" unicode="fj" horiz-adv-x="571" 
d="M226 753q-40 -53 -40 -153v-105h223l86 42v-592q0 -87 -55 -140.5t-161 -68.5q138 38 138 230v492h-231v-418l86 -40h-238l73 40v403l-83 20l83 65v77q0 64 31 114t87 78t128 28q66 0 110.5 -23t44.5 -57q0 -17 -10.5 -28.5t-25.5 -11.5q-18 0 -30.5 11.5t-28.5 33.5
q-20 28 -36.5 42t-43.5 14q-67 0 -107 -53z" />
    <glyph glyph-name="f_k" unicode="fk" horiz-adv-x="946" 
d="M528 279v-239l75 -40h-237l82 40v697q-21 33 -50 51t-62 18q-70 0 -110 -53.5t-40 -152.5v-105h157v-37h-157v-418l86 -40h-238l73 40v402l-83 21l83 64v83q0 62 31.5 111t89.5 76.5t134 27.5q38 0 71.5 -8.5t56.5 -21.5l38 17v-525h49l222 218h102l-289 -205l332 -300
h-117z" />
    <glyph glyph-name="f_l" unicode="fl" horiz-adv-x="627" 
d="M611 0h-245l82 40v697q-17 30 -49 49t-64 19q-69 0 -109 -53.5t-40 -151.5v-105h157v-37h-157v-418l86 -40h-238l73 40v403l-83 20l83 65v82q0 62 31.5 111t89 76.5t132.5 27.5q39 0 73 -8.5t56 -22.5l39 18v-772z" />
    <glyph glyph-name=".notdef" 
d="M483.5 487.5q-31.5 18.5 -50 50t-18.5 68.5t18.5 68.5t50 49.5t68.5 18t68.5 -18t49.5 -49.5t18 -68.5t-18 -68.5t-49.5 -50t-68.5 -18.5t-68.5 18.5zM140 536h238v-238h-238v238zM623 432h238v-238h-238v238zM379.5 6q-31.5 18 -49.5 49.5t-18 68.5t18 68.5t49.5 50
t68.5 18.5t68.5 -18.5t50 -50t18.5 -68.5t-18.5 -68.5t-50 -49.5t-68.5 -18t-68.5 18z" />
    <glyph glyph-name=".null" horiz-adv-x="600" 
 />
    <glyph glyph-name="nonmarkingreturn" unicode="&#xd;" horiz-adv-x="600" 
 />
    <glyph glyph-name="space" unicode=" " horiz-adv-x="218" 
 />
    <glyph glyph-name="exclam" unicode="!" horiz-adv-x="229" 
d="M128 338q-10 -130 -17 -200q-7 70 -17 200l-29 410h93zM168 -8h-107v115h107v-115z" />
    <glyph glyph-name="quotedbl" unicode="&#x22;" horiz-adv-x="293" 
d="M83 452l40 328h-81zM212 452l40 328h-81z" />
    <glyph glyph-name="numbersign" unicode="#" horiz-adv-x="634" 
d="M610 465h-161l-51 -161h141v-69h-162l-74 -235h-23l74 235h-172l-74 -235h-23l74 235h-135v69h157l50 161h-136v67h158l67 214h22l-67 -214h173l67 214h22l-67 -214h140v-67zM376 304l50 161h-172l-51 -161h173z" />
    <glyph glyph-name="dollar" unicode="$" horiz-adv-x="584" 
d="M480.5 53.5q-54.5 -55.5 -146.5 -64.5v-139h-22v138h-9q-13 0 -41 2v-140h-22v141q-48 5 -94 16t-77 24v16l-27 201q34 -94 84.5 -151.5t113.5 -77.5v332q-56 23 -94.5 47.5t-62.5 62t-24 92.5q0 72 50 124.5t131 66.5v54h22v-51l31 1h19v50h22v-52q43 -4 85 -15.5
t73 -28.5v-16l28 -174q-72 175 -186 209v-313q62 -25 104 -50t69.5 -66t27.5 -100q0 -83 -54.5 -138.5zM262 729v-293l29 -12q7 -2 21 -8v310q-18 3 -37 3h-13zM152 503q31 -32 88 -58v281q-54 -11 -86.5 -49t-32.5 -92q0 -50 31 -82zM312 7v316l-29 12q-7 2 -21 8v-330
q24 -6 50 -6zM434.5 54.5q38.5 40.5 38.5 102.5q0 58 -36 93t-103 64v-306q62 6 100.5 46.5z" />
    <glyph glyph-name="percent" unicode="%" horiz-adv-x="765" 
d="M154.5 457q-26.5 21 -41.5 57.5t-15 78.5t15 78t41.5 56.5t57.5 20.5q32 0 58.5 -20.5t41.5 -56.5t15 -78q0 -43 -15 -79t-41.5 -57t-58.5 -21q-31 0 -57.5 21zM611 735h28l-497 -735h-28zM263 490q20 40 20 103t-20 102.5t-51 39.5t-51 -39.5t-20 -102.5t20 -103t51 -40
t51 40zM495 9.5q-27 21.5 -42.5 57.5t-15.5 78t15.5 77.5t42 56.5t58.5 21q31 0 57.5 -20.5t41.5 -56.5t15 -78t-15 -78.5t-41.5 -57.5t-57.5 -21t-58 21.5zM603.5 42.5q20.5 40.5 20.5 102.5t-20.5 102t-50.5 40q-31 0 -51 -39.5t-20 -102.5t20 -103t51 -40q30 0 50.5 40.5
z" />
    <glyph glyph-name="ampersand" unicode="&#x26;" horiz-adv-x="786" 
d="M561 201l185 -201h-113l-123 136q-63 -70 -134.5 -109t-134.5 -39q-58 0 -102.5 20.5t-69.5 58t-25 85.5q0 63 56.5 128t157.5 135q-51 59 -74 101t-23 86q0 41 22.5 74.5t62 52.5t88.5 19q68 0 114 -33t47 -82q0 -45 -37 -85t-124 -99l26 -29l188 -205q22 41 33 96
t12 110l-78 36h247l-83 -43q-44 -117 -118 -213zM267 704q-27 -30 -27 -74q0 -40 20 -78.5t65 -91.5q55 45 76 85.5t21 85.5q0 44 -25 73.5t-63 29.5q-40 0 -67 -30zM398 65q53 29 101 83l-214 237l-17 19q-67 -52 -104.5 -107.5t-37.5 -111.5q0 -66 45.5 -107.5
t118.5 -41.5q55 0 108 29z" />
    <glyph glyph-name="quotesingle" unicode="'" horiz-adv-x="165" 
d="M83 452l40 328h-81z" />
    <glyph glyph-name="parenleft" unicode="(" horiz-adv-x="269" 
d="M104 -20.5q-55 147.5 -55 301.5q0 128 58.5 273t159.5 269q-62 -98 -100.5 -249t-38.5 -293q0 -171 35.5 -324.5t92.5 -227.5q-97 103 -152 250.5z" />
    <glyph glyph-name="parenright" unicode=")" horiz-adv-x="269" 
d="M105.5 -43.5q35.5 153.5 35.5 324.5q0 142 -38.5 293t-100.5 249q101 -124 159.5 -269t58.5 -273q0 -154 -55 -301.5t-152 -250.5q57 74 92.5 227.5z" />
    <glyph glyph-name="asterisk" unicode="*" horiz-adv-x="374" 
d="M229 574l82 -108l-107 83l-18 -135l-17 135l-108 -83l83 107l-134 18l134 18l-83 107l108 -83l17 135l18 -135l107 83l-83 -108l136 -17z" />
    <glyph glyph-name="plus" unicode="+" horiz-adv-x="487" 
d="M452 324v-22h-198v-178h-22v178h-198v22h198v177h22v-177h198z" />
    <glyph glyph-name="comma" unicode="," horiz-adv-x="202" 
d="M46 107h107v-110l-99 -179h-73l162 179h-97v110z" />
    <glyph glyph-name="hyphen" unicode="-" horiz-adv-x="376" 
d="M305 304v-46h-234v46h234z" />
    <glyph glyph-name="period" unicode="." horiz-adv-x="204" 
d="M156 107v-115h-107v115h107z" />
    <glyph glyph-name="slash" unicode="/" horiz-adv-x="336" 
d="M311 763h23l-307 -883h-25z" />
    <glyph glyph-name="zero" unicode="0" horiz-adv-x="611" 
d="M79 559q35 87 95 138t132 51q71 0 131 -51t95 -138t35 -190t-35 -190.5t-95 -139t-131 -51.5q-72 0 -132 51.5t-95 139t-35 190.5t35 190zM155.5 180q21.5 -82 60.5 -127t90 -45t89.5 45t60 127t21.5 189t-21.5 188.5t-60 126.5t-89.5 45t-90 -45t-60.5 -127t-21.5 -188
q0 -107 21.5 -189z" />
    <glyph glyph-name="one" unicode="1" horiz-adv-x="376" 
d="M246 49l106 -49h-302l112 49v594l-133 27l217 78v-699z" />
    <glyph glyph-name="two" unicode="2" horiz-adv-x="514" 
d="M489 77v-77h-463q155 166 242 289q50 69 75 133.5t25 130.5q0 73 -37.5 117.5t-101.5 44.5q-40 0 -74 -22q-18 -11 -27 -31t-16 -50q-9 -34 -18.5 -50.5t-31.5 -16.5q-18 0 -28.5 12t-10.5 32q0 33 47.5 70t111 63t101.5 26q79 0 125 -45.5t46 -120.5q0 -63 -41 -135.5
t-124 -176.5q-78 -96 -169 -193h369z" />
    <glyph glyph-name="three" unicode="3" horiz-adv-x="582" 
d="M434.5 375.5q48.5 -25.5 76 -70.5t27.5 -102q0 -62 -30 -111t-84.5 -76.5t-124.5 -27.5q-47 0 -110.5 26t-109 63.5t-45.5 70.5q0 20 11 31.5t29 11.5q23 0 32.5 -16.5t19.5 -52.5q8 -32 17 -51.5t27 -30.5q17 -10 43.5 -15.5t54.5 -5.5q53 0 94.5 23t65 65t23.5 97
q0 49 -23 87.5t-63.5 60.5t-91.5 22q-36 0 -88 -12q78 46 123.5 83t66 73.5t20.5 80.5q0 49 -32.5 82.5t-81.5 33.5q-44 0 -74 -24q-18 -14 -27 -34t-16 -49q-8 -31 -16.5 -45.5t-29.5 -14.5q-17 0 -27.5 11t-10.5 29q0 35 45.5 72.5t106 62.5t97.5 25q44 0 78 -18
t53.5 -49.5t19.5 -68.5q0 -44 -29 -81t-74 -67.5t-120 -71.5q34 9 67 9q62 0 110.5 -25.5z" />
    <glyph glyph-name="four" unicode="4" horiz-adv-x="620" 
d="M584 215h-126v-166l100 -49h-295l112 49l1 166h-344l427 537l-1 -469h126v-68zM110 283h266v333z" />
    <glyph glyph-name="five" unicode="5" horiz-adv-x="589" 
d="M431 437q53 -29 82.5 -81t29.5 -118q0 -73 -31.5 -130t-89 -88.5t-131.5 -31.5q-41 0 -102.5 26t-106.5 64t-45 71q0 19 10.5 31t28.5 12q23 0 32.5 -17t18.5 -52q8 -33 16.5 -52.5t26.5 -30.5q16 -10 39.5 -15.5t46.5 -5.5q59 0 104.5 27.5t71 77t25.5 113.5
q0 55 -22 98.5t-63 68t-93 24.5q-89 0 -183 -66l40 373h371v-78h-356l-32 -263q45 34 95 53t96 19q68 0 121 -29z" />
    <glyph glyph-name="six" unicode="6" horiz-adv-x="609" 
d="M183.5 24q-60.5 36 -95 101t-34.5 149q0 113 66 214t190.5 176.5t293.5 110.5q-144 -46 -247.5 -121.5t-158 -173.5t-54.5 -210q0 -76 23.5 -135.5t65 -93t93.5 -33.5q45 0 79.5 26.5t53.5 73.5t19 107q0 58 -21.5 102.5t-60 69.5t-87.5 25q-27 0 -59 -9.5t-60 -26.5
q38 32 80.5 50.5t79.5 18.5q63 0 111.5 -28t75.5 -78.5t27 -114.5q0 -69 -31.5 -123t-87 -83.5t-125.5 -29.5q-76 0 -136.5 36z" />
    <glyph glyph-name="seven" unicode="7" horiz-adv-x="527" 
d="M17 735h493l-338 -735h-105l389 657h-439v78z" />
    <glyph glyph-name="eight" unicode="8" horiz-adv-x="579" vert-adv-y="992" 
d="M442.5 330.5q38.5 -26.5 65.5 -64t27 -87.5q0 -54 -31.5 -97.5t-86 -68.5t-121.5 -25q-71 0 -128.5 23.5t-90.5 65t-33 91.5q0 61 51 112t138 88q-74 45 -115.5 91t-41.5 109q0 50 28.5 91.5t79 65t112.5 23.5t112.5 -22t79.5 -60.5t29 -84.5q0 -62 -49.5 -108
t-133.5 -77q70 -39 108.5 -65.5zM199.5 490.5q41.5 -42.5 123.5 -88.5h1q48 29 79 79t31 104q0 63 -39 103.5t-100 40.5q-60 0 -98.5 -38.5t-38.5 -96.5q0 -61 41.5 -103.5zM408.5 48q42.5 40 42.5 104q0 43 -24 76.5t-60 58t-99 61.5l-22 13q-54 -33 -86 -80t-32 -110
q0 -47 22 -84t61 -58t88 -21q67 0 109.5 40z" />
    <glyph glyph-name="nine" unicode="9" horiz-adv-x="588" 
d="M337.5 149.5q107.5 132.5 107.5 306.5q0 79 -24 141.5t-64.5 97t-88.5 34.5q-74 0 -116.5 -57.5t-42.5 -147.5q0 -58 22 -104t62 -71.5t90 -25.5q27 0 58.5 9t57.5 24q-38 -31 -79 -49t-79 -18q-62 0 -111.5 28.5t-77.5 80t-28 116.5q0 68 30.5 121.5t86 83t127.5 29.5
q75 0 136 -36.5t96 -103t35 -151.5q0 -113 -57 -215t-172.5 -177.5t-283.5 -108.5q208 61 315.5 193.5z" />
    <glyph glyph-name="colon" unicode=":" horiz-adv-x="208" 
d="M158 107v-115h-107v115h107zM158 489v-115h-107v115h107z" />
    <glyph glyph-name="semicolon" unicode=";" horiz-adv-x="206" 
d="M48 107h107v-110l-99 -179h-73l162 179h-97v110zM156 489v-115h-107v115h107z" />
    <glyph glyph-name="less" unicode="&#x3c;" horiz-adv-x="478" 
d="M71 256l358 -198h-46l-359 198l355 194h46z" />
    <glyph glyph-name="equal" unicode="=" horiz-adv-x="496" 
d="M456 409v-22h-418v22h418zM456 235v-22h-418v22h418z" />
    <glyph glyph-name="greater" unicode="&#x3e;" horiz-adv-x="478" 
d="M99 450l355 -194l-359 -198h-46l358 198l-354 194h46z" />
    <glyph glyph-name="question" unicode="?" horiz-adv-x="408" 
d="M130 265.5q-15 42.5 -15 62.5q0 50 64 77l105 45q39 17 64.5 40t25.5 63q0 42 -29.5 77t-77.5 55t-102 20q-34 0 -54.5 -10.5t-41.5 -29.5q-17 -14 -26.5 -19.5t-23.5 -5.5q-15 0 -25.5 11.5t-10.5 27.5q0 31 38 50t100 19q76 0 139.5 -29t100.5 -78t37 -107
q0 -59 -30 -102t-70 -59l-106 -47q-16 -8 -22 -17.5t-6 -27.5v-96q-19 38 -34 80.5zM220 -8h-107v115h107v-115z" />
    <glyph glyph-name="at" unicode="@" horiz-adv-x="829" 
d="M645.5 -17.5q79.5 35.5 125.5 98.5q-47 -84 -131.5 -131t-186.5 -47q-118 0 -209 48.5t-142 136.5t-51 202q0 116 52 209.5t144.5 147t209.5 53.5q92 0 167.5 -38t118.5 -104t43 -147q0 -87 -45.5 -156.5t-122.5 -99.5l-107 -39v92q-39 -43 -75 -67.5t-75 -24.5
q-38 0 -64 20.5t-26 57.5q0 33 35.5 62.5t81 50.5t123.5 53v37q0 38 -24.5 64.5t-60.5 26.5q-29 0 -55 -18q-9 -5 -13.5 -15.5t-11.5 -32.5q-7 -27 -16 -41t-28 -14q-12 0 -19.5 7.5t-7.5 19.5q0 24 34.5 52t79.5 47.5t70 18.5q49 0 80.5 -30.5t31.5 -80.5v-231l32 -7
q61 33 98 100.5t34 152.5q-2 75 -39 135t-99.5 94.5t-139.5 34.5q-99 0 -180 -48.5t-127.5 -135t-46.5 -194.5q0 -105 46 -185.5t129 -125t190 -44.5q98 0 177.5 35.5zM453 171.5q27 18.5 58 52.5v124q-85 -35 -130 -66.5t-45 -72.5q0 -25 18 -40.5t44 -15.5q28 0 55 18.5z
" />
    <glyph glyph-name="A" unicode="A" horiz-adv-x="836" 
d="M733 49l91 -49h-294l110 46l-92 217h-325l-90 -216l114 -47h-235l95 48l265 620l-44 65l107 13zM231 283h308l-149 350h-12z" />
    <glyph glyph-name="B" unicode="B" horiz-adv-x="692" 
d="M618 94q-37 -45 -102.5 -69.5t-147.5 -24.5h-344l87 53v629l-87 53h356q69 0 126.5 -23t90.5 -62.5t33 -87.5q0 -63 -50.5 -108.5t-134.5 -59.5v-11q94 -18 151.5 -68t58.5 -118q0 -58 -37 -103zM195 715v-319h178q75 0 122 46t47 120q0 68 -46 110.5t-122 42.5h-179z
M473 44.5q46 24.5 69.5 65t23.5 88.5t-23.5 89t-69 65.5t-109.5 24.5h-169v-357h168q64 0 110 24.5z" />
    <glyph glyph-name="C" unicode="C" horiz-adv-x="715" 
d="M90 561q51 86 137 136.5t186 50.5q66 1 128.5 -11.5t107.5 -35.5v-16l27 -166q-46 105 -110.5 157.5t-152.5 51.5q-83 0 -146.5 -45.5t-99 -126t-35.5 -183.5q0 -107 35.5 -189.5t100.5 -128.5t151 -46q88 -1 153.5 55.5t115.5 175.5l-33 -188v-16q-46 -23 -108.5 -36
t-127.5 -12q-102 0 -189.5 52t-139 140.5t-51.5 192.5q0 102 51 188z" />
    <glyph glyph-name="D" unicode="D" horiz-adv-x="761" 
d="M521 686.5q94 -48.5 148 -131.5t54 -182q0 -102 -54 -187.5t-148 -135.5t-208 -50h-289l87 53v629l-87 53h289q114 0 208 -48.5zM473.5 65q73.5 45 114.5 125.5t41 182.5q0 99 -41 177t-114 121.5t-166 43.5h-113v-695h112q93 0 166.5 45z" />
    <glyph glyph-name="E" unicode="E" horiz-adv-x="672" 
d="M518 20l122 203l-30 -205v-18h-586l87 53v629l-87 53h550v-18l29 -179l-120 177h-288v-320l182 1l67 118v-257l-67 119h-182v-356h323z" />
    <glyph glyph-name="F" unicode="F" horiz-adv-x="655" 
d="M505 715h-310v-320l193 1l68 118v-257l-68 119h-193v-327l104 -49h-275l87 50v632l-87 53h578v-18l29 -184z" />
    <glyph glyph-name="G" unicode="G" horiz-adv-x="809" 
d="M712 319v-337l-58 89q-47 -39 -111.5 -61t-129.5 -22q-100 0 -186 52t-137 140.5t-51 192.5q0 102 51.5 188t139 136.5t190.5 50.5q65 1 126.5 -11.5t105.5 -34.5v-16l27 -167q-50 107 -112.5 158.5t-150.5 50.5q-84 0 -148.5 -45.5t-100 -126t-35.5 -183.5
q0 -107 35 -189.5t99 -128.5t148 -46q71 0 130.5 37.5t86.5 103.5v202h-176v20h345z" />
    <glyph glyph-name="H" unicode="H" horiz-adv-x="775" 
d="M664 686v-637l88 -49h-276l104 49v340h-385v-340l104 -49h-275l87 49v637l-87 49h275l-104 -49v-277h385v277l-104 49h276z" />
    <glyph glyph-name="I" unicode="I" horiz-adv-x="307" 
d="M111 686l-87 49h259l-88 -49v-637l88 -49h-259l87 49v637z" />
    <glyph glyph-name="J" unicode="J" horiz-adv-x="300" 
d="M-124.5 -184q-42.5 23 -42.5 56q0 17 11 28.5t29 11.5q15 0 27.5 -11t28.5 -33q22 -28 38.5 -42t40.5 -14q56 0 79 49t23 155v670l-89 49h261l-88 -49v-683q0 -63 -26.5 -110.5t-74.5 -73.5t-111 -26q-64 0 -106.5 23z" />
    <glyph glyph-name="K" unicode="K" horiz-adv-x="761" 
d="M637 0l-442 396v-347l88 -49h-259l87 49v638l-87 48h272l-101 -48v-278h40l363 326h111l-432 -308l487 -427h-127z" />
    <glyph glyph-name="L" unicode="L" horiz-adv-x="658" 
d="M502 22l127 222l-30 -226v-18h-575l87 52v634l-87 49h275l-104 -49v-664h307z" />
    <glyph glyph-name="M" unicode="M" horiz-adv-x="980" 
d="M869 686v-637l87 -49h-259l88 49v596h-12l-296 -671l-318 671h-9v-595l104 -50h-233l104 50v635l-87 50h170l296 -621h13l271 621h168z" />
    <glyph glyph-name="N" unicode="N" horiz-adv-x="825" 
d="M806 735l-104 -53v-708l-542 647h-10v-568l104 -53h-233l104 53v610l-74 71l116 12l498 -594h12v530l-104 53h233z" />
    <glyph glyph-name="O" unicode="O" horiz-adv-x="802" 
d="M222.5 40q-83.5 52 -133.5 140.5t-50 192.5q0 101 49.5 187.5t133 137t179.5 50.5t179.5 -50.5t133 -137t49.5 -187.5q0 -104 -50 -192.5t-133.5 -140.5t-178.5 -52t-178.5 52zM542 54.5q61 45.5 95 128t34 190.5q0 104 -34 185t-95 125.5t-141 44.5t-141 -44.5
t-95 -125.5t-34 -185q0 -108 34 -190.5t95 -128t141 -45.5t141 45.5z" />
    <glyph glyph-name="P" unicode="P" horiz-adv-x="664" 
d="M496.5 708.5q61.5 -26.5 97 -72t35.5 -100.5q0 -57 -35.5 -104t-97 -74.5t-135.5 -27.5h-166v-281l104 -49h-275l87 49v633l-87 53h337q74 0 135.5 -26.5zM449 373q43 24 67 66.5t24 96.5q0 52 -24 93t-67 63.5t-98 22.5h-156v-366h156q55 0 98 24z" />
    <glyph glyph-name="Q" unicode="Q" horiz-adv-x="798" 
d="M88.5 560.5q49.5 86.5 133 137t179.5 50.5t179.5 -50.5t133 -137t49.5 -187.5q0 -104 -50 -192.5t-133.5 -140.5t-178.5 -52q-19 0 -28 1v-12l411 -129l-91 -63l-434 235q-103 55 -161.5 149.5t-58.5 203.5q0 101 49.5 187.5zM165 182.5q34 -82.5 95 -128t141 -45.5
t141 45.5t95 128t34 190.5q0 104 -34 185t-95 125.5t-141 44.5t-141 -44.5t-95 -125.5t-34 -185q0 -108 34 -190.5z" />
    <glyph glyph-name="R" unicode="R" horiz-adv-x="720" 
d="M195 364v-315l88 -49h-259l87 49v633l-87 53h305q76 0 136 -24t94 -65t34 -91q0 -66 -56 -117.5t-147 -67.5v-15l330 -355h-113l-325 364h-87zM195 715v-333h119q89 0 140 47.5t51 123.5q0 74 -50.5 118t-140.5 44h-119z" />
    <glyph glyph-name="S" unicode="S" horiz-adv-x="584" 
d="M155.5 67q70.5 -60 158.5 -60q70 0 114.5 41t44.5 109q0 49 -26 81.5t-65 52.5t-104 45q-72 28 -115.5 51.5t-73.5 64t-30 101.5q0 55 30 99.5t83.5 70t120.5 25.5q51 0 105.5 -12.5t93.5 -33.5v-16l28 -174q-90 217 -245 217q-67 0 -110.5 -41t-43.5 -103
q0 -44 25 -74.5t61.5 -49.5t101.5 -44q74 -28 118.5 -52.5t76 -66.5t31.5 -106q0 -59 -28.5 -105.5t-81 -72.5t-122.5 -26q-59 0 -125 12.5t-109 30.5v16l-27 201q43 -121 113.5 -181z" />
    <glyph glyph-name="T" unicode="T" horiz-adv-x="738" 
d="M574 715h-163v-666l104 -49h-292l104 49v666h-163l-135 -192l33 194v18h614v-18l33 -194z" />
    <glyph glyph-name="U" unicode="U" horiz-adv-x="752" 
d="M12 735h258l-88 -53l2 -442q0 -56 28.5 -101t79 -71t112.5 -26q59 0 106 25.5t74 69.5t27 99v446l-104 53h234l-104 -53v-452q0 -69 -33.5 -124t-93 -86.5t-132.5 -31.5q-79 0 -142.5 30t-100 82.5t-36.5 118.5v463z" />
    <glyph glyph-name="V" unicode="V" horiz-adv-x="779" 
d="M670 682l-267 -709l-298 708l-92 54h296l-109 -52l228 -552h13l203 551l-113 53h236z" />
    <glyph glyph-name="W" unicode="W" horiz-adv-x="1153" 
d="M1045 683l-265 -710l-198 473l-176 -473l-298 706l-95 56h303l-114 -55l228 -549h13l126 347l-85 203l-101 54h312l-116 -55l226 -549h13l201 551l-114 53h235z" />
    <glyph glyph-name="X" unicode="X" horiz-adv-x="765" 
d="M659 54l98 -54h-318l118 55l-195 277h-15l-208 -277l121 -55h-250l102 56l231 303l-227 323l-98 53h320l-118 -55l179 -255h15l185 255l-122 55h250l-100 -55l-208 -283z" />
    <glyph glyph-name="Y" unicode="Y" horiz-adv-x="735" 
d="M418 311v-262l101 -49h-285l100 49v253l-227 379l-93 54h304l-115 -55l198 -334h14l188 336l-113 53h233l-94 -53z" />
    <glyph glyph-name="Z" unicode="Z" horiz-adv-x="622" 
d="M471 20l126 208l-28 -210v-18h-540l442 715h-304l-126 -182l30 184v18h507l-442 -715h335z" />
    <glyph glyph-name="bracketleft" unicode="[" horiz-adv-x="339" 
d="M337 765h-169v-980h169v-17h-242v1014h242v-17z" />
    <glyph glyph-name="backslash" unicode="\" horiz-adv-x="336" 
d="M334 -120h-25l-307 883h23z" />
    <glyph glyph-name="bracketright" unicode="]" horiz-adv-x="339" 
d="M244 782v-1014h-242v17h169v980h-169v17h242z" />
    <glyph glyph-name="asciicircum" unicode="^" horiz-adv-x="408" 
d="M359 405h-25l-130 236l-130 -236h-25l155 282z" />
    <glyph glyph-name="underscore" unicode="_" horiz-adv-x="610" 
d="M539 -12v-24h-468v24h468z" />
    <glyph glyph-name="grave" unicode="`" horiz-adv-x="408" 
d="M272 568l-168 231h92z" />
    <glyph glyph-name="a" unicode="a" horiz-adv-x="525" 
d="M361 -12v126q-52 -58 -102 -92t-102 -34t-84.5 29t-32.5 76q0 44 43 81t102.5 65t152.5 65l23 9v48q0 53 -33.5 88.5t-85.5 35.5q-37 0 -71 -20q-18 -11 -27 -30.5t-17 -50.5q-7 -34 -17.5 -51t-32.5 -17q-18 0 -28.5 12t-10.5 31q0 34 46 70.5t107 61.5t98 25
q66 0 107.5 -42t41.5 -109v-303l74 -11zM281 61q37 26 80 73v164q-119 -48 -180.5 -89t-61.5 -95q0 -35 24.5 -57t61.5 -22q39 0 76 26z" />
    <glyph glyph-name="b" unicode="b" horiz-adv-x="583" 
d="M450.5 484q48.5 -32 75.5 -90t27 -132q0 -79 -30.5 -141t-87 -97.5t-130.5 -35.5q-45 0 -91 14.5t-81 40.5l-58 -55v728l-77 20l156 76v-378q57 37 102.5 59.5t81.5 22.5q64 0 112.5 -32zM390 33.5q37 30.5 57.5 84.5t20.5 123t-22.5 122t-62.5 82.5t-91 29.5
q-26 0 -59 -14.5t-79 -42.5v-290q12 -56 55.5 -90.5t97.5 -34.5q46 0 83 30.5z" />
    <glyph glyph-name="c" unicode="c" horiz-adv-x="490" 
d="M65 385.5q31 61.5 85.5 96t122.5 34.5q48 0 88 -14.5t63.5 -38.5t23.5 -50q0 -18 -10 -29.5t-26 -11.5q-20 0 -31.5 14t-25.5 43q-17 36 -33.5 54t-48.5 18q-46 0 -82 -29.5t-56 -81t-20 -116.5q0 -66 22.5 -117t64 -80t96.5 -29q63 0 106.5 35t65.5 105
q-19 -95 -71.5 -147.5t-129.5 -52.5q-69 0 -122 31.5t-83 90t-30 135.5q0 79 31 140.5z" />
    <glyph glyph-name="d" unicode="d" horiz-adv-x="596" 
d="M428 -15v84q-55 -36 -101.5 -58.5t-84.5 -22.5q-63 0 -111.5 32.5t-75 90.5t-26.5 133q0 80 30.5 142t86 96t126.5 34q42 0 83 -13.5t73 -37.5v251l-78 20l156 76v-750l73 -11zM428 84v255q-7 72 -49 117t-101 45q-49 0 -86.5 -29.5t-58 -83.5t-20.5 -123q0 -70 22 -124
t61.5 -83.5t91.5 -29.5q47 0 140 56z" />
    <glyph glyph-name="e" unicode="e" horiz-adv-x="495" 
d="M404 81.5q44 36.5 66 106.5q-19 -95 -71.5 -147.5t-129.5 -52.5q-69 0 -122 31.5t-83 90t-30 134.5q0 79 30.5 141t84 96.5t119.5 34.5q56 0 99 -24t67 -67.5t24 -99.5v-7h-340q-3 -22 -3 -46q0 -66 22.5 -117.5t64 -80.5t96.5 -29q62 0 106 36.5zM173 455.5
q-40 -45.5 -53 -121.5h223q32 0 32 35q0 32 -14.5 63t-39 50t-53.5 19q-55 0 -95 -45.5z" />
    <glyph glyph-name="f" unicode="f" horiz-adv-x="338" 
d="M463.5 802q44.5 -23 44.5 -57q0 -17 -10.5 -28.5t-25.5 -11.5q-18 0 -30.5 11.5t-28.5 33.5q-20 28 -36.5 42t-43.5 14q-67 0 -107 -53t-40 -153v-105h155v-37h-155v-418l86 -40h-238l73 40v403l-83 20l83 65v77q0 64 31 114t87 78t128 28q66 0 110.5 -23z" />
    <glyph glyph-name="g" unicode="g" horiz-adv-x="527" 
d="M485 18q35 -27 35 -72q0 -59 -48 -113t-118.5 -86.5t-133.5 -32.5t-114 19t-80.5 52.5t-29.5 74.5q0 38 32.5 68.5t82.5 44.5v9q-32 10 -50 31.5t-18 50.5q0 28 22.5 59.5t63.5 62.5q-34 25 -53 62t-19 79q0 51 27 94.5t72.5 69t99.5 25.5q19 0 32.5 -2.5t31.5 -7.5
q36 -12 74 -12h118v-37h-113q26 -25 40 -58.5t14 -71.5q0 -50 -26.5 -92t-72 -66.5t-98.5 -24.5q-63 0 -116 34q-21 -17 -33 -37t-12 -39q0 -26 18.5 -41.5t48.5 -15.5h230q58 0 93 -27zM168 453.5q-33 -47.5 -33 -126.5q0 -77 33 -122.5t88 -45.5q53 0 85 46t32 122
q0 79 -32 126.5t-85 47.5q-55 0 -88 -47.5zM372 -221.5q49 19.5 77.5 53t28.5 73.5q0 32 -21.5 50.5t-61.5 18.5h-217q-51 0 -80.5 -25t-29.5 -64q0 -35 25.5 -63.5t70.5 -45.5t100 -17q59 0 108 19.5z" />
    <glyph glyph-name="h" unicode="h" horiz-adv-x="595" 
d="M579 0h-229l78 40v323q0 47 -30 80t-73 33q-31 0 -68 -16t-82 -43v-377l82 -40h-233l73 40v676l-78 20l156 76v-381q58 37 106.5 61t84.5 24q61 0 100.5 -41t39.5 -108v-327z" />
    <glyph glyph-name="i" unicode="i" horiz-adv-x="273" 
d="M185 748v-112h-104v112h104zM180 40l76 -40h-226l72 40v381l-78 20l156 75v-476z" />
    <glyph glyph-name="j" unicode="j" horiz-adv-x="236" 
d="M69 748h104v-112h-104v112zM8 441l156 75v-571q0 -87 -55 -140.5t-161 -68.5q69 19 103.5 75.5t34.5 154.5v454z" />
    <glyph glyph-name="k" unicode="k" horiz-adv-x="593" 
d="M474 0l-299 279v-239l73 -40h-224l72 40v676l-77 20l156 76v-525h49l222 218h102l-289 -205l332 -300h-117z" />
    <glyph glyph-name="l" unicode="l" horiz-adv-x="264" 
d="M175 40l73 -40h-224l72 40v676l-77 20l156 76v-772z" />
    <glyph glyph-name="m" unicode="m" horiz-adv-x="893" 
d="M877 0h-229l78 40v323q0 47 -30.5 80t-73.5 33q-54 0 -138 -51q9 -27 9 -58v-327l77 -40h-233l77 40v323q0 47 -29.5 80t-71.5 33q-52 0 -133 -47v-389l78 -40h-229l73 40v381l-78 20l156 75v-72q54 32 97 52t76 20q41 0 75 -21.5t51 -58.5q57 35 103.5 57.5t81.5 22.5
q60 0 100 -41t40 -108v-327z" />
    <glyph glyph-name="n" unicode="n" horiz-adv-x="600" 
d="M584 0h-229l78 40v323q0 47 -30 80t-73 33q-31 0 -68 -16t-82 -43v-377l78 -40h-229l73 40v381l-78 20l156 75v-86q59 38 107 62t84 24q61 0 100.5 -41t39.5 -108v-327z" />
    <glyph glyph-name="o" unicode="o" horiz-adv-x="573" 
d="M161 24.5q-58 36.5 -92.5 98t-34.5 133.5q0 71 34.5 130.5t92.5 94.5t126 35t126 -35t92 -94.5t34 -130.5q0 -72 -34 -133.5t-92 -98t-126 -36.5t-126 36.5zM407.5 71.5q44.5 67.5 44.5 184.5q0 113 -44 178.5t-121 65.5t-121.5 -65t-44.5 -179q0 -117 44.5 -184.5
t121.5 -67.5q76 0 120.5 67.5z" />
    <glyph glyph-name="p" unicode="p" horiz-adv-x="596" 
d="M464 484q49 -32 76 -90t27 -132q0 -79 -31 -141t-87 -97.5t-129 -35.5q-40 0 -80 12t-72 34v-238l82 -40h-233l73 40v624l-78 20l156 76v-83q58 38 103 60.5t81 22.5q63 0 112 -32zM404.5 33.5q36.5 30.5 57.5 84.5t21 123q0 68 -22.5 121.5t-62.5 83.5t-91 30
q-26 0 -60 -15t-79 -42v-291q13 -56 56.5 -90.5t97.5 -34.5q46 0 82.5 30.5z" />
    <glyph glyph-name="q" unicode="q" horiz-adv-x="574" 
d="M579 -244h-233l82 40v275q-58 -38 -103 -60.5t-83 -22.5q-63 0 -111.5 32.5t-75 90.5t-26.5 133q0 80 30.5 142t86 96t126.5 34q47 0 92.5 -17t78.5 -46l63 66v-723zM428 85v254q-7 72 -49 117t-101 45q-49 0 -86.5 -29.5t-58 -83.5t-20.5 -123q0 -70 22 -124t62 -84
t91 -30q46 0 140 58z" />
    <glyph glyph-name="r" unicode="r" horiz-adv-x="419" 
d="M386 500q21 -16 21 -41q0 -20 -12 -33t-31 -13q-16 0 -26.5 7t-23.5 21q-10 12 -19.5 18.5t-22.5 6.5q-39 0 -92 -67v-359l86 -40h-237l73 40v381l-78 20l156 75v-95q78 95 152 95q33 0 54 -16z" />
    <glyph glyph-name="s" unicode="s" horiz-adv-x="444" 
d="M118.5 61.5q54.5 -56.5 127.5 -56.5q47 0 77 28.5t30 73.5q0 30 -18 50.5t-44.5 33t-71.5 28.5q-54 19 -85.5 35t-54 44.5t-22.5 73.5q0 41 22 73.5t62 51.5t91 19q37 0 77 -8.5t67 -22.5v-18l20 -132q-39 78 -82 121.5t-101 43.5q-45 0 -74.5 -26t-29.5 -66
q0 -30 17.5 -50.5t43.5 -32.5t70 -27q54 -19 87 -35.5t56 -47t23 -78.5q0 -66 -48 -107.5t-129 -41.5q-40 0 -86 7.5t-80 20.5v17l-27 160q28 -75 82.5 -131.5z" />
    <glyph glyph-name="t" unicode="t" horiz-adv-x="382" 
d="M338.5 54q33.5 17 53.5 45q-29 -51 -73.5 -81t-91.5 -30q-61 0 -96.5 33t-33.5 92l12 326l-97 24l85 65v69l80 41v-143h179v-37h-179v-338q0 -38 25.5 -60.5t67.5 -22.5q35 0 68.5 17z" />
    <glyph glyph-name="u" unicode="u" horiz-adv-x="599" 
d="M428 -15v88q-62 -40 -107 -62.5t-82 -22.5q-61 0 -101 41t-40 108v284l-76 20l155 75v-375q0 -44 30.5 -76t76.5 -32q55 0 144 54v334l-76 20l155 75v-457l73 -11z" />
    <glyph glyph-name="v" unicode="v" horiz-adv-x="587" 
d="M499 461l-191 -488l-224 488l-78 44h259l-94 -43l158 -355h13l135 355l-96 43h201z" />
    <glyph glyph-name="w" unicode="w" horiz-adv-x="839" 
d="M750 460l-175 -487l-149 352l-131 -352l-212 489l-77 43h246l-84 -43l150 -355h10l88 242l-48 112l-80 44h258l-92 -45l143 -353h9l123 354l-94 44h199z" />
    <glyph glyph-name="x" unicode="x" horiz-adv-x="581" 
d="M492 43l85 -43h-268l90 43l-127 174h-16l-136 -175l90 -42h-206l94 46l157 194l-162 223l-77 42h262l-92 -43l122 -167h14l123 167l-93 43h200l-85 -45l-143 -186z" />
    <glyph glyph-name="y" unicode="y" horiz-adv-x="587" 
d="M499 461l-191 -488v1l-81 -218h-104l175 238l-214 467l-78 44h259l-94 -43l158 -355h13l135 355l-96 43h201z" />
    <glyph glyph-name="z" unicode="z" horiz-adv-x="481" 
d="M356 16l94 165l-20 -163v-18h-398l313 489h-204l-90 -153l16 151v18h376l-313 -489h226z" />
    <glyph glyph-name="braceleft" unicode="{" horiz-adv-x="406" 
d="M219.5 -224.5q-33.5 19.5 -53 52t-19.5 71.5q0 30 18 148q13 89 13 104q0 53 -33.5 83.5t-102.5 46.5q71 17 104.5 47t33.5 83q0 16 -13 101q-17 117 -17 139q0 39 19.5 72.5t52.5 53t72 19.5q25 0 50.5 -10.5t59.5 -32.5q-37 13 -63 13q-31 0 -57.5 -16t-42.5 -43.5
t-16 -58.5q0 -25 17 -140q13 -82 13 -97q0 -66 -42 -92.5t-106 -33.5v-7q63 -7 105 -34t42 -92q0 -18 -13 -103q-17 -121 -17 -146q0 -32 16 -59t42.5 -42.5t56.5 -15.5q27 0 63 13q-32 -21 -58 -32t-52 -11q-39 0 -72.5 19.5z" />
    <glyph glyph-name="bar" unicode="|" horiz-adv-x="257" 
d="M142 775v-895h-27v895h27z" />
    <glyph glyph-name="braceright" unicode="}" horiz-adv-x="407" 
d="M62 -233q-26 11 -57 32q34 -13 63 -13q30 0 56.5 15.5t42.5 42.5t16 59q0 25 -17 146q-13 85 -13 103q0 65 41.5 92t104.5 34v7q-64 7 -106 33.5t-42 92.5q0 15 13 97q17 115 17 140q0 31 -16 58.5t-42.5 43.5t-57.5 16q-24 0 -63 -13q35 22 60 32.5t51 10.5
q39 0 72 -19.5t52.5 -53t19.5 -72.5q0 -29 -18 -139q-13 -85 -13 -101q0 -53 34 -83t105 -47q-70 -16 -103 -46.5t-33 -83.5q0 -15 13 -104q17 -125 17 -148q0 -39 -19.5 -72t-53 -52t-72.5 -19q-26 0 -52 11z" />
    <glyph glyph-name="asciitilde" unicode="~" horiz-adv-x="702" 
d="M160 311q42 36 92 36q24 0 52.5 -8t67.5 -23q41 -15 67 -22.5t49 -7.5q42 0 75.5 19t79.5 75q-63 -89 -104 -124.5t-90 -35.5q-23 0 -49.5 7.5t-70.5 22.5q-40 15 -67 22.5t-49 7.5q-29 0 -51 -6.5t-47 -27t-56 -62.5q59 91 101 127z" />
    <glyph glyph-name="exclamdown" unicode="&#xa1;" horiz-adv-x="229" 
d="M168 408h-107v115h107v-115zM94 177q10 131 17 200q7 -70 17 -200l30 -410h-93z" />
    <glyph glyph-name="cent" unicode="&#xa2;" horiz-adv-x="543" 
d="M419.5 140q-51.5 -52 -126.5 -54v-138h-23v139q-64 4 -113 36.5t-76 89t-27 130.5t27.5 133.5t76.5 95.5t112 41v50h23v-49q48 0 88 -14.5t63 -38.5t23 -50q0 -18 -10 -29.5t-26 -11.5q-20 0 -32 14.5t-24 42.5q-16 35 -32.5 53t-49.5 19v-451q16 -2 24 -2q63 0 107 35
t66 105q-19 -94 -70.5 -146zM170.5 228.5q36.5 -59.5 99.5 -76.5v445q-61 -10 -98.5 -72.5t-37.5 -152.5q0 -84 36.5 -143.5z" />
    <glyph glyph-name="sterling" unicode="&#xa3;" horiz-adv-x="570" 
d="M541 77v-77h-494v77q63 0 104 36.5t41 94.5q0 31 -12.5 62.5t-40.5 85.5h-86v36h69q-17 39 -27 74.5t-10 71.5q0 59 32 107t87.5 75.5t124.5 27.5q55 0 98.5 -14t67.5 -36.5t24 -48.5q0 -16 -9 -26.5t-23 -10.5q-17 0 -28.5 11.5t-27.5 35.5q-22 34 -43.5 52.5
t-61.5 18.5q-72 0 -116 -48t-44 -121q0 -45 11.5 -84.5t31.5 -84.5h243v-36h-227q18 -38 27.5 -66.5t9.5 -56.5q0 -50 -32 -89.5t-87 -58.5v-8h398z" />
    <glyph glyph-name="currency" unicode="&#xa4;" horiz-adv-x="564" 
d="M438 202q32 -19 47 -31.5t15 -28.5q0 -11 -7.5 -18.5t-18.5 -7.5q-18 0 -31 14.5t-30 43.5q-22 36 -32 47q-41 -36 -100 -36t-100 36q-13 -16 -30 -45q-18 -31 -31.5 -45.5t-30.5 -14.5q-10 0 -18 8t-8 18q0 16 15.5 29t46.5 30q8 6 22.5 14.5t23.5 15.5
q-20 20 -30.5 47.5t-10.5 58.5q0 62 42 106q-18 14 -48 30q-32 18 -46.5 30t-14.5 28q0 11 7.5 18.5t18.5 7.5q17 0 30 -14.5t31 -44.5q4 -6 13.5 -20.5t18.5 -25.5q41 36 99 36q59 0 100 -36q10 11 32 47q17 29 30 43.5t31 14.5q11 0 18.5 -7.5t7.5 -18.5q0 -16 -14.5 -28
t-45.5 -30q-30 -16 -49 -31q19 -20 29.5 -47t10.5 -58q0 -63 -40 -106q11 -9 47 -29zM366.5 249.5q34.5 35.5 34.5 87.5t-34.5 87t-85.5 35q-52 0 -86 -35t-34 -87q0 -53 34 -88t86 -35q51 0 85.5 35.5z" />
    <glyph glyph-name="yen" unicode="&#xa5;" horiz-adv-x="732" 
d="M624 688l-203 -333h192v-19h-195v-50h195v-19h-195v-218l100 -49h-285l101 49v218h-196v19h196v50h-196v19h186l-218 335l-92 45h302l-114 -45l197 -301h19l183 300l-123 46h242z" />
    <glyph glyph-name="brokenbar" unicode="&#xa6;" horiz-adv-x="257" 
d="M142 775v-392h-27v392h27zM142 283v-403h-27v403h27z" />
    <glyph glyph-name="section" unicode="&#xa7;" 
d="M686.5 182q30.5 -30 30.5 -76q0 -43 -27 -77.5t-76.5 -53.5t-114.5 -19q-50 0 -105.5 8.5t-91.5 22.5v18l-27 159q30 -87 86.5 -139t155.5 -52q66 0 103.5 27t37.5 76q0 32 -23.5 53.5t-58.5 34.5t-94 30q-68 19 -108 35t-68.5 44t-28.5 71q0 45 37.5 79t99.5 49v7
q-57 22 -88.5 52t-31.5 78q0 38 27.5 70t76.5 50.5t112 18.5q52 0 103 -10t80 -26v-17l20 -131q-34 77 -85 122t-136 45q-63 0 -104.5 -25.5t-41.5 -63.5q0 -32 23 -53.5t57 -35t94 -30.5q67 -19 107.5 -35t69 -45t28.5 -74q0 -43 -34 -78t-88 -52v-7q53 -20 83.5 -50z
M348.5 325q23.5 -21 59 -33.5t95.5 -28.5l63 -18q48 5 79.5 30t31.5 60q0 31 -22.5 52t-56.5 34t-92 29l-49 15q-58 -3 -95 -27t-37 -60q0 -32 23.5 -53z" />
    <glyph glyph-name="dieresis" unicode="&#xa8;" horiz-adv-x="408" 
d="M156 741v-100h-95v100h95zM346 741v-100h-94v100h94z" />
    <glyph glyph-name="copyright" unicode="&#xa9;" horiz-adv-x="829" 
d="M223.5 36q-87.5 51 -138.5 138t-51 190q0 104 51 191.5t138.5 138.5t191.5 51q103 0 190.5 -51t138.5 -138.5t51 -191.5q0 -103 -51 -190t-138.5 -138t-190.5 -51q-104 0 -191.5 51zM587 64q78 46 124 125.5t46 174.5q0 96 -45.5 175.5t-124 126t-172.5 46.5
t-172.5 -46.5t-124.5 -126t-46 -175.5q0 -95 46 -174.5t124.5 -125.5t172.5 -46t172 46zM252 476.5q29 52.5 78.5 82.5t108.5 30q62 0 120 -28v-13l16 -116q-58 140 -141 140q-42 0 -77.5 -25.5t-56 -70t-20.5 -98.5t21 -96.5t58 -67t85 -24.5q55 0 95.5 31.5t56.5 86.5
q-14 -79 -59 -122.5t-110 -43.5q-58 0 -104.5 28t-73 77t-26.5 112q0 65 29 117.5z" />
    <glyph glyph-name="ordfeminine" unicode="&#xaa;" horiz-adv-x="337" 
d="M162 471q-27 -19 -58 -19q-30 0 -51 17t-21 43q0 32 39 55.5t115 54.5q10 4 18.5 7t15.5 6v24q0 30 -18.5 48.5t-47.5 18.5q-23 0 -42 -13q-7 -5 -10.5 -14t-9.5 -28q-6 -24 -13 -36.5t-22 -12.5q-10 0 -16 6.5t-6 17.5q0 22 26.5 46t61.5 40t55 16q43 0 68 -23t25 -62
v-157l42 -8l-93 -46v73q-31 -35 -58 -54zM102.5 498q12.5 -12 31.5 -12q39 0 86 54v83q-8 -3 -50.5 -19.5t-61 -34.5t-18.5 -40q0 -19 12.5 -31zM125 275v115h107v-115h-107z" />
    <glyph glyph-name="guillemotleft" unicode="&#xab;" horiz-adv-x="388" 
d="M211 453l-93 -186l93 -186l-189 186zM366 454l-93 -186l93 -186l-189 186z" />
    <glyph glyph-name="logicalnot" unicode="&#xac;" horiz-adv-x="536" 
d="M452 371v-255h-24v233h-394v22h418z" />
    <glyph glyph-name="registered" unicode="&#xae;" horiz-adv-x="605" 
d="M434.5 709.5q60.5 -35.5 96 -96t35.5 -131.5q0 -72 -35.5 -132.5t-96 -96t-131.5 -35.5q-72 0 -132.5 35.5t-96 96t-35.5 132.5q0 71 35.5 131.5t96 96t132.5 35.5q71 0 131.5 -35.5zM416.5 279.5q52.5 31.5 83 85.5t30.5 117t-30.5 116.5t-83 85t-113.5 31.5
q-62 0 -114.5 -31.5t-83.5 -85t-31 -116.5t31 -117t83.5 -85.5t114.5 -31.5q61 0 113.5 31.5zM381 513q-25 -20 -63 -23l136 -143h-56l-128 142h-14v-114l42 -28h-123l39 28v229l-36 28h121q47 0 77 -20t30 -51q0 -28 -25 -48zM256 498h40q30 0 47.5 17t17.5 46
q0 28 -17.5 44t-47.5 16h-40v-123z" />
    <glyph glyph-name="macron" unicode="&#xaf;" horiz-adv-x="408" 
d="M342 704v-46h-277v46h277z" />
    <glyph glyph-name="degree" unicode="&#xb0;" horiz-adv-x="400" 
d="M118.5 447q-38.5 22 -61.5 59.5t-23 81.5q0 43 23 80t61.5 58.5t83.5 21.5q44 0 82 -21.5t60 -58.5t22 -80q0 -44 -22 -81.5t-60 -59.5t-82 -22q-45 0 -83.5 22zM267 472q30 18 47.5 49t17.5 67q0 35 -17.5 65t-47.5 47.5t-65 17.5q-36 0 -66.5 -17.5t-48.5 -47.5
t-18 -65q0 -36 18 -67t48.5 -49t66.5 -18q35 0 65 18z" />
    <glyph glyph-name="plusminus" unicode="&#xb1;" horiz-adv-x="516" 
d="M466 103v-22h-418v22h418zM466 378v-22h-198v-178h-22v178h-198v22h198v177h22v-177h198z" />
    <glyph glyph-name="uni00B2" unicode="&#xb2;" horiz-adv-x="243" 
d="M228 499v-42h-212q83 75 115 120t32 90q0 26 -13.5 43t-35.5 17q-19 0 -34 -12q-9 -7 -13 -16t-8 -25q-5 -18 -10 -26.5t-17 -8.5q-8 0 -14 6t-6 15q0 17 22.5 37.5t53 35t50.5 14.5q32 0 53.5 -21t21.5 -52q0 -36 -29.5 -71t-106.5 -104h151z" />
    <glyph glyph-name="uni00B3" unicode="&#xb3;" horiz-adv-x="295" 
d="M101.5 463q-27.5 11 -47.5 28t-20 33q0 9 6.5 16t15.5 7q14 0 19.5 -9t10.5 -28q3 -13 6 -21t9 -12q13 -7 33 -7q31 0 49 18t18 48q0 26 -18 42t-48 16q-23 0 -46 -9q4 2 32 18.5t45 38.5t17 44q0 19 -11.5 30.5t-29.5 11.5t-30 -9q-13 -10 -19 -39q-5 -18 -10 -26
t-17 -8q-9 0 -14.5 6t-5.5 15q0 17 20.5 35.5t49 31.5t48.5 13q30 0 48 -14.5t18 -37.5q0 -27 -23.5 -46.5t-67.5 -41.5q12 2 25 2q39 0 63 -20t24 -53q0 -38 -28.5 -61t-72.5 -23q-21 0 -48.5 11z" />
    <glyph glyph-name="acute" unicode="&#xb4;" horiz-adv-x="408" 
d="M301 799l-169 -231l77 231h92z" />
    <glyph glyph-name="uni00B5" unicode="&#xb5;" horiz-adv-x="589" 
d="M418 -15v88q-62 -40 -107 -62.5t-82 -22.5q-31 0 -62 13v-197l74 -17l-153 -63l1 395q-1 6 -1 18v284l-76 20l155 75v-375q0 -44 30.5 -76t76.5 -32q55 0 144 54v334l-76 20l155 75v-457l73 -11z" />
    <glyph glyph-name="paragraph" unicode="&#xb6;" 
d="M714 683v-687q0 -59 -26 -104.5t-73.5 -70.5t-110.5 -25q-65 0 -109.5 23t-44.5 57q0 17 10.5 27.5t27.5 10.5t29 -10t30 -33q21 -27 39.5 -41.5t46.5 -14.5q60 0 86.5 47.5t26.5 148.5v705h-74v-807h-67v364h-74q-66 0 -122.5 31.5t-89.5 85.5t-33 117q0 61 33 113.5
t89.5 83.5t122.5 31h371z" />
    <glyph glyph-name="periodcentered" unicode="&#xb7;" horiz-adv-x="204" 
d="M156 339v-115h-107v115h107z" />
    <glyph glyph-name="cedilla" unicode="&#xb8;" horiz-adv-x="408" 
d="M277 -155q0 -40 -40.5 -71.5t-104.5 -38.5q41 12 64 32t23 45q0 14 -6.5 22t-21.5 18l-65 41l71 107h15l-27 -62l55 -34q37 -23 37 -59z" />
    <glyph glyph-name="uni00B9" unicode="&#xb9;" horiz-adv-x="210" 
d="M133 487l58 -30h-163l58 30v208l-61 15l108 37v-260z" />
    <glyph glyph-name="ordmasculine" unicode="&#xba;" horiz-adv-x="340" 
d="M46.5 675.5q19.5 33.5 52.5 53t72 19.5q38 0 71 -19.5t52.5 -53t19.5 -72.5q0 -41 -19.5 -75.5t-52.5 -55t-71 -20.5q-39 0 -72 20.5t-52.5 55t-19.5 75.5q0 39 19.5 72.5zM108 501q23 -37 63 -37q39 0 61.5 37t22.5 102q0 62 -22.5 98t-61.5 36q-40 0 -63 -36t-23 -98
q0 -65 23 -102zM224 390v-115h-107v115h107z" />
    <glyph glyph-name="guillemotright" unicode="&#xbb;" horiz-adv-x="388" 
d="M22 82l93 186l-93 186l189 -186zM177 81l93 186l-93 186l189 -186z" />
    <glyph glyph-name="onequarter" unicode="&#xbc;" horiz-adv-x="459" 
d="M211 487v208l-61 15l108 37v-260l58 -30h-163zM73 382h313v-23h-313v23zM295 306v-195h45v-32h-45v-54l38 -25h-133l50 25v54h-149zM143 111h107v122z" />
    <glyph glyph-name="onehalf" unicode="&#xbd;" horiz-adv-x="459" 
d="M213 487v208l-61 15l108 37v-260l57 -30h-162zM73 382h313v-23h-313v23zM303.5 146q-29.5 -35 -106.5 -104h152v-42h-213q83 75 115.5 120t32.5 90q0 26 -14 43t-36 17q-17 0 -34 -12q-8 -6 -12 -15.5t-8 -25.5q-5 -18 -10.5 -26.5t-17.5 -8.5q-8 0 -13.5 6t-5.5 15
q0 17 22.5 37.5t52.5 35t50 14.5q33 0 54 -20.5t21 -52.5q0 -36 -29.5 -71z" />
    <glyph glyph-name="threequarters" unicode="&#xbe;" horiz-adv-x="459" 
d="M191.5 463q-27.5 11 -47 28t-19.5 33q0 9 6 16t15 7q14 0 20 -9.5t10 -27.5q3 -13 6 -21t10 -12q11 -7 32 -7q31 0 49.5 18.5t18.5 47.5q0 26 -18.5 42t-48.5 16q-24 0 -45 -9l32.5 19.5t44.5 38t17 43.5q0 19 -11.5 30.5t-29.5 11.5q-19 0 -31 -9q-7 -5 -10.5 -12.5
t-5.5 -15t-3 -10.5q-5 -18 -10 -26.5t-17 -8.5q-9 0 -14.5 6t-5.5 15q0 17 20.5 35.5t49.5 31.5t49 13q29 0 47.5 -14.5t18.5 -37.5q0 -27 -23.5 -46t-67.5 -42q10 2 25 2q39 0 63 -20t24 -53q0 -38 -29 -61t-73 -23q-21 0 -48.5 11zM73 382h313v-23h-313v23zM297 306v-195
h45v-32h-45v-54l38 -25h-133l50 25v54h-149zM145 111h107v122z" />
    <glyph glyph-name="questiondown" unicode="&#xbf;" horiz-adv-x="408" 
d="M295 514v-116h-107v116h107zM278 240.5q15 -42.5 15 -62.5q0 -49 -64 -77l-105 -45q-39 -17 -64.5 -40.5t-25.5 -63.5q0 -42 29 -76.5t77.5 -54.5t102.5 -20q34 0 54.5 10.5t41.5 29.5q17 14 26.5 19.5t22.5 5.5q16 0 26.5 -11t10.5 -28q0 -32 -38 -51t-101 -19
q-75 0 -138.5 29t-100.5 78.5t-37 107.5q0 59 30.5 102t69.5 59l105 46q16 8 22.5 18t6.5 27v96q19 -37 34 -79.5z" />
    <glyph glyph-name="Agrave" unicode="&#xc0;" horiz-adv-x="836" 
d="M733 49l91 -49h-294l110 46l-92 217h-325l-90 -216l114 -47h-235l95 48l265 620l-44 65l107 13zM231 283h308l-149 350h-12zM435 793l-196 187h99z" />
    <glyph glyph-name="Aacute" unicode="&#xc1;" horiz-adv-x="836" 
d="M733 49l91 -49h-294l110 46l-92 217h-325l-90 -216l114 -47h-235l95 48l265 620l-44 65l107 13zM231 283h308l-149 350h-12zM543 980l-196 -187l97 187h99z" />
    <glyph glyph-name="Acircumflex" unicode="&#xc2;" horiz-adv-x="836" 
d="M733 49l91 -49h-294l110 46l-92 217h-325l-90 -216l114 -47h-235l95 48l265 620l-44 65l107 13zM231 283h308l-149 350h-12zM393 975l135 -183l-135 100l-136 -100z" />
    <glyph glyph-name="Atilde" unicode="&#xc3;" horiz-adv-x="836" 
d="M733 49l91 -49h-294l110 46l-92 217h-325l-90 -216l114 -47h-235l95 48l265 620l-44 65l107 13zM231 283h308l-149 350h-12zM286.5 908q27.5 32 54.5 32q16 0 60 -16q18 -7 36.5 -12.5t31.5 -5.5q24 0 46.5 19t35.5 51q-12 -60 -37.5 -96t-60.5 -36q-20 0 -63 17
q-19 7 -37.5 12.5t-31.5 5.5q-22 0 -44.5 -16t-42.5 -45q25 58 52.5 90z" />
    <glyph glyph-name="Adieresis" unicode="&#xc4;" horiz-adv-x="836" 
d="M733 49l91 -49h-294l110 46l-92 217h-325l-90 -216l114 -47h-235l95 48l265 620l-44 65l107 13zM231 283h308l-149 350h-12zM535 939v-100h-94v100h94zM345 938v-99h-95v99h95z" />
    <glyph glyph-name="Aring" unicode="&#xc5;" horiz-adv-x="836" 
d="M733 49l91 -49h-294l110 46l-92 217h-325l-90 -216l114 -47h-235l95 48l265 620l-44 65l107 13zM231 283h308l-149 350h-12zM333 827q-25 25 -25 60t25 59t61 24q35 0 59.5 -24t24.5 -59t-24.5 -60t-59.5 -25q-36 0 -61 25zM432 846q16 16 16 40q0 23 -16 39t-40 16
q-23 0 -38.5 -16t-15.5 -39q0 -24 15.5 -40t38.5 -16q24 0 40 16z" />
    <glyph glyph-name="AE" unicode="&#xc6;" horiz-adv-x="1059" 
d="M906 20l122 203l-30 -205v-18h-582l88 53v210h-249l-121 -216l113 -47h-235l96 48l374 662v25h480v-18l29 -179l-121 177h-282v-320l177 1l67 118v-257l-67 119h-177v-356h318zM267 283h237v405h-10z" />
    <glyph glyph-name="Ccedilla" unicode="&#xc7;" horiz-adv-x="715" 
d="M572.5 64.5q65.5 56.5 115.5 175.5l-33 -188v-16q-46 -23 -108.5 -36t-127.5 -12h-7l-22 -50l55 -34q37 -23 37 -59q0 -40 -40.5 -71.5t-104.5 -38.5q41 12 64 32t23 45q0 14 -6.5 22t-21.5 18l-65 41l64 96q-97 6 -178.5 59t-129.5 139t-48 186q0 102 51 188t137 136.5
t186 50.5q66 1 128.5 -11.5t107.5 -35.5v-16l27 -166q-46 105 -110.5 157.5t-152.5 51.5q-83 0 -146.5 -45.5t-99 -126t-35.5 -183.5q0 -107 35.5 -189.5t100.5 -128.5t151 -46q88 -1 153.5 55.5z" />
    <glyph glyph-name="Egrave" unicode="&#xc8;" horiz-adv-x="672" 
d="M518 20l122 203l-30 -205v-18h-586l87 53v629l-87 53h550v-18l29 -179l-120 177h-288v-320l182 1l67 118v-257l-67 119h-182v-356h323zM363 793l-196 187h99z" />
    <glyph glyph-name="Eacute" unicode="&#xc9;" horiz-adv-x="672" 
d="M518 20l122 203l-30 -205v-18h-586l87 53v629l-87 53h550v-18l29 -179l-120 177h-288v-320l182 1l67 118v-257l-67 119h-182v-356h323zM470 980l-196 -187l97 187h99z" />
    <glyph glyph-name="Ecircumflex" unicode="&#xca;" horiz-adv-x="672" 
d="M518 20l122 203l-30 -205v-18h-586l87 53v629l-87 53h550v-18l29 -179l-120 177h-288v-320l182 1l67 118v-257l-67 119h-182v-356h323zM320 975l135 -183l-135 100l-136 -100z" />
    <glyph glyph-name="Edieresis" unicode="&#xcb;" horiz-adv-x="672" 
d="M518 20l122 203l-30 -205v-18h-586l87 53v629l-87 53h550v-18l29 -179l-120 177h-288v-320l182 1l67 118v-257l-67 119h-182v-356h323zM462 939v-100h-94v100h94zM272 938v-99h-95v99h95z" />
    <glyph glyph-name="Igrave" unicode="&#xcc;" horiz-adv-x="307" 
d="M111 686l-87 49h259l-88 -49v-637l88 -49h-259l87 49v637zM196 793l-196 187h99z" />
    <glyph glyph-name="Iacute" unicode="&#xcd;" horiz-adv-x="307" 
d="M111 686l-87 49h259l-88 -49v-637l88 -49h-259l87 49v637zM304 980l-196 -187l97 187h99z" />
    <glyph glyph-name="Icircumflex" unicode="&#xce;" horiz-adv-x="307" 
d="M111 686l-87 49h259l-88 -49v-637l88 -49h-259l87 49v637zM154 975l135 -183l-135 100l-136 -100z" />
    <glyph glyph-name="Idieresis" unicode="&#xcf;" horiz-adv-x="307" 
d="M111 686l-87 49h259l-88 -49v-637l88 -49h-259l87 49v637zM296 939v-100h-94v100h94zM106 938v-99h-95v99h95z" />
    <glyph glyph-name="Eth" unicode="&#xd0;" horiz-adv-x="761" 
d="M521 686.5q94 -48.5 148 -131.5t54 -182q0 -102 -54 -187.5t-148 -135.5t-208 -50h-289l87 53v312h-77v19h77v298l-87 53h289q114 0 208 -48.5zM473.5 65q73.5 45 114.5 125.5t41 182.5q0 99 -41 177t-114 121.5t-166 43.5h-113v-331h191v-19h-191v-345h112
q93 0 166.5 45z" />
    <glyph glyph-name="Ntilde" unicode="&#xd1;" horiz-adv-x="825" 
d="M806 735l-104 -53v-708l-542 647h-10v-568l104 -53h-233l104 53v610l-74 71l116 12l498 -594h12v530l-104 53h233zM308.5 908q27.5 32 54.5 32q16 0 60 -16q18 -7 36.5 -12.5t31.5 -5.5q24 0 46.5 19t35.5 51q-12 -60 -37.5 -96t-60.5 -36q-20 0 -63 17q-19 7 -37.5 12.5
t-31.5 5.5q-22 0 -44.5 -16t-42.5 -45q25 58 52.5 90z" />
    <glyph glyph-name="Ograve" unicode="&#xd2;" horiz-adv-x="802" 
d="M222.5 40q-83.5 52 -133.5 140.5t-50 192.5q0 101 49.5 187.5t133 137t179.5 50.5t179.5 -50.5t133 -137t49.5 -187.5q0 -104 -50 -192.5t-133.5 -140.5t-178.5 -52t-178.5 52zM542 54.5q61 45.5 95 128t34 190.5q0 104 -34 185t-95 125.5t-141 44.5t-141 -44.5
t-95 -125.5t-34 -185q0 -108 34 -190.5t95 -128t141 -45.5t141 45.5zM443 793l-196 187h99z" />
    <glyph glyph-name="Oacute" unicode="&#xd3;" horiz-adv-x="802" 
d="M222.5 40q-83.5 52 -133.5 140.5t-50 192.5q0 101 49.5 187.5t133 137t179.5 50.5t179.5 -50.5t133 -137t49.5 -187.5q0 -104 -50 -192.5t-133.5 -140.5t-178.5 -52t-178.5 52zM542 54.5q61 45.5 95 128t34 190.5q0 104 -34 185t-95 125.5t-141 44.5t-141 -44.5
t-95 -125.5t-34 -185q0 -108 34 -190.5t95 -128t141 -45.5t141 45.5zM550 980l-196 -187l97 187h99z" />
    <glyph glyph-name="Ocircumflex" unicode="&#xd4;" horiz-adv-x="802" 
d="M222.5 40q-83.5 52 -133.5 140.5t-50 192.5q0 101 49.5 187.5t133 137t179.5 50.5t179.5 -50.5t133 -137t49.5 -187.5q0 -104 -50 -192.5t-133.5 -140.5t-178.5 -52t-178.5 52zM542 54.5q61 45.5 95 128t34 190.5q0 104 -34 185t-95 125.5t-141 44.5t-141 -44.5
t-95 -125.5t-34 -185q0 -108 34 -190.5t95 -128t141 -45.5t141 45.5zM401 975l135 -183l-135 100l-136 -100z" />
    <glyph glyph-name="Otilde" unicode="&#xd5;" horiz-adv-x="802" 
d="M222.5 40q-83.5 52 -133.5 140.5t-50 192.5q0 101 49.5 187.5t133 137t179.5 50.5t179.5 -50.5t133 -137t49.5 -187.5q0 -104 -50 -192.5t-133.5 -140.5t-178.5 -52t-178.5 52zM542 54.5q61 45.5 95 128t34 190.5q0 104 -34 185t-95 125.5t-141 44.5t-141 -44.5
t-95 -125.5t-34 -185q0 -108 34 -190.5t95 -128t141 -45.5t141 45.5zM294.5 908q27.5 32 54.5 32q16 0 60 -16q18 -7 36.5 -12.5t31.5 -5.5q24 0 46.5 19t35.5 51q-12 -60 -37.5 -96t-60.5 -36q-20 0 -63 17q-19 7 -37.5 12.5t-31.5 5.5q-22 0 -44.5 -16t-42.5 -45
q25 58 52.5 90z" />
    <glyph glyph-name="Odieresis" unicode="&#xd6;" horiz-adv-x="802" 
d="M222.5 40q-83.5 52 -133.5 140.5t-50 192.5q0 101 49.5 187.5t133 137t179.5 50.5t179.5 -50.5t133 -137t49.5 -187.5q0 -104 -50 -192.5t-133.5 -140.5t-178.5 -52t-178.5 52zM542 54.5q61 45.5 95 128t34 190.5q0 104 -34 185t-95 125.5t-141 44.5t-141 -44.5
t-95 -125.5t-34 -185q0 -108 34 -190.5t95 -128t141 -45.5t141 45.5zM543 939v-100h-94v100h94zM353 938v-99h-95v99h95z" />
    <glyph glyph-name="multiply" unicode="&#xd7;" horiz-adv-x="506" 
d="M458 500l-188 -187l188 -188h-32l-172 172l-173 -172h-32l189 188l-189 187h32l173 -172l172 172h32z" />
    <glyph glyph-name="Oslash" unicode="&#xd8;" horiz-adv-x="802" 
d="M733 520.5q30 -69.5 30 -147.5q0 -104 -50 -192.5t-133.5 -140.5t-178.5 -52q-64 0 -123.5 24t-108.5 68l-69 -80h-27l81 94q-54 55 -84.5 127t-30.5 152q0 101 49.5 187.5t133 137t179.5 50.5q65 0 125.5 -24t109.5 -67l67 78h27l-79 -92q52 -53 82 -122.5zM189 135
l415 484q-37 52 -88.5 80.5t-114.5 28.5q-80 0 -141 -44.5t-95 -125.5t-34 -185q0 -142 58 -238zM542 54.5q61 45.5 95 128t34 190.5q0 67 -14.5 125t-41.5 103l-415 -484q36 -52 87.5 -80t113.5 -28q80 0 141 45.5z" />
    <glyph glyph-name="Ugrave" unicode="&#xd9;" horiz-adv-x="752" 
d="M12 735h258l-88 -53l2 -442q0 -56 28.5 -101t79 -71t112.5 -26q59 0 106 25.5t74 69.5t27 99v446l-104 53h234l-104 -53v-452q0 -69 -33.5 -124t-93 -86.5t-132.5 -31.5q-79 0 -142.5 30t-100 82.5t-36.5 118.5v463zM430 793l-196 187h99z" />
    <glyph glyph-name="Uacute" unicode="&#xda;" horiz-adv-x="752" 
d="M12 735h258l-88 -53l2 -442q0 -56 28.5 -101t79 -71t112.5 -26q59 0 106 25.5t74 69.5t27 99v446l-104 53h234l-104 -53v-452q0 -69 -33.5 -124t-93 -86.5t-132.5 -31.5q-79 0 -142.5 30t-100 82.5t-36.5 118.5v463zM537 980l-196 -187l97 187h99z" />
    <glyph glyph-name="Ucircumflex" unicode="&#xdb;" horiz-adv-x="752" 
d="M12 735h258l-88 -53l2 -442q0 -56 28.5 -101t79 -71t112.5 -26q59 0 106 25.5t74 69.5t27 99v446l-104 53h234l-104 -53v-452q0 -69 -33.5 -124t-93 -86.5t-132.5 -31.5q-79 0 -142.5 30t-100 82.5t-36.5 118.5v463zM387 975l135 -183l-135 100l-136 -100z" />
    <glyph glyph-name="Udieresis" unicode="&#xdc;" horiz-adv-x="752" 
d="M12 735h258l-88 -53l2 -442q0 -56 28.5 -101t79 -71t112.5 -26q59 0 106 25.5t74 69.5t27 99v446l-104 53h234l-104 -53v-452q0 -69 -33.5 -124t-93 -86.5t-132.5 -31.5q-79 0 -142.5 30t-100 82.5t-36.5 118.5v463zM529 939v-100h-94v100h94zM339 938v-99h-95v99h95z
" />
    <glyph glyph-name="Yacute" unicode="&#xdd;" horiz-adv-x="735" 
d="M418 311v-262l101 -49h-285l100 49v253l-227 379l-93 54h304l-115 -55l198 -334h14l188 336l-113 53h233l-94 -53zM535 980l-196 -187l97 187h99z" />
    <glyph glyph-name="Thorn" unicode="&#xde;" horiz-adv-x="667" 
d="M510.5 559.5q60.5 -26.5 96 -72t35.5 -100.5q0 -54 -35 -101.5t-95.5 -75.5t-133.5 -28h-183v-139l88 -43h-259l87 43v649l-87 43h259l-88 -43v-106h183q72 0 132.5 -26.5zM464.5 224.5q42.5 24.5 66 67t23.5 95.5q0 81 -51.5 131t-135.5 50h-172v-368h172
q55 0 97.5 24.5z" />
    <glyph glyph-name="germandbls" unicode="&#xdf;" horiz-adv-x="669" 
d="M484 314q49 -27 78 -47t49.5 -51t20.5 -74q0 -68 -50 -111t-131 -43q-41 0 -87 7.5t-76 19.5v17l-28 159q64 -187 208 -187q47 0 77 28.5t30 74.5q0 30 -16.5 53t-40.5 39t-64 38l-42 24q-50 29 -77.5 58.5t-27.5 77.5q0 33 17.5 60.5t52.5 65.5q42 45 63 79.5t21 81.5
q0 50 -32.5 82.5t-87.5 32.5q-73 0 -114.5 -52t-41.5 -154v-553l73 -40h-224l73 40v402l-83 21l83 64v77q0 61 32.5 109t90 75.5t130.5 27.5q79 0 129 -33t50 -87q0 -38 -24 -67.5t-71 -67.5q-44 -36 -66.5 -63t-22.5 -60t23.5 -56t68.5 -48z" />
    <glyph glyph-name="agrave" unicode="&#xe0;" horiz-adv-x="525" 
d="M361 -12v126q-52 -58 -102 -92t-102 -34t-84.5 29t-32.5 76q0 44 43 81t102.5 65t152.5 65l23 9v48q0 53 -33.5 88.5t-85.5 35.5q-37 0 -71 -20q-18 -11 -27 -30.5t-17 -50.5q-7 -34 -17.5 -51t-32.5 -17q-18 0 -28.5 12t-10.5 31q0 34 46 70.5t107 61.5t98 25
q66 0 107.5 -42t41.5 -109v-303l74 -11zM281 61q37 26 80 73v164q-119 -48 -180.5 -89t-61.5 -95q0 -35 24.5 -57t61.5 -22q39 0 76 26zM277 568l-168 231h92z" />
    <glyph glyph-name="aacute" unicode="&#xe1;" horiz-adv-x="525" 
d="M361 -12v126q-52 -58 -102 -92t-102 -34t-84.5 29t-32.5 76q0 44 43 81t102.5 65t152.5 65l23 9v48q0 53 -33.5 88.5t-85.5 35.5q-37 0 -71 -20q-18 -11 -27 -30.5t-17 -50.5q-7 -34 -17.5 -51t-32.5 -17q-18 0 -28.5 12t-10.5 31q0 34 46 70.5t107 61.5t98 25
q66 0 107.5 -42t41.5 -109v-303l74 -11zM281 61q37 26 80 73v164q-119 -48 -180.5 -89t-61.5 -95q0 -35 24.5 -57t61.5 -22q39 0 76 26zM368 799l-169 -231l77 231h92z" />
    <glyph glyph-name="acircumflex" unicode="&#xe2;" horiz-adv-x="525" 
d="M361 -12v126q-52 -58 -102 -92t-102 -34t-84.5 29t-32.5 76q0 44 43 81t102.5 65t152.5 65l23 9v48q0 53 -33.5 88.5t-85.5 35.5q-37 0 -71 -20q-18 -11 -27 -30.5t-17 -50.5q-7 -34 -17.5 -51t-32.5 -17q-18 0 -28.5 12t-10.5 31q0 34 46 70.5t107 61.5t98 25
q66 0 107.5 -42t41.5 -109v-303l74 -11zM281 61q37 26 80 73v164q-119 -48 -180.5 -89t-61.5 -95q0 -35 24.5 -57t61.5 -22q39 0 76 26zM239 786l135 -219l-135 130l-136 -130z" />
    <glyph glyph-name="atilde" unicode="&#xe3;" horiz-adv-x="525" 
d="M361 -12v126q-52 -58 -102 -92t-102 -34t-84.5 29t-32.5 76q0 44 43 81t102.5 65t152.5 65l23 9v48q0 53 -33.5 88.5t-85.5 35.5q-37 0 -71 -20q-18 -11 -27 -30.5t-17 -50.5q-7 -34 -17.5 -51t-32.5 -17q-18 0 -28.5 12t-10.5 31q0 34 46 70.5t107 61.5t98 25
q66 0 107.5 -42t41.5 -109v-303l74 -11zM281 61q37 26 80 73v164q-119 -48 -180.5 -89t-61.5 -95q0 -35 24.5 -57t61.5 -22q39 0 76 26zM132.5 706.5q27.5 31.5 54.5 31.5q16 0 60 -16q18 -7 36.5 -12.5t31.5 -5.5q24 0 46.5 19.5t35.5 50.5q-12 -60 -37.5 -95.5
t-60.5 -35.5q-20 0 -63 17q-19 7 -37.5 12.5t-31.5 5.5q-22 0 -44.5 -16.5t-42.5 -45.5q25 59 52.5 90.5z" />
    <glyph glyph-name="adieresis" unicode="&#xe4;" horiz-adv-x="525" 
d="M361 -12v126q-52 -58 -102 -92t-102 -34t-84.5 29t-32.5 76q0 44 43 81t102.5 65t152.5 65l23 9v48q0 53 -33.5 88.5t-85.5 35.5q-37 0 -71 -20q-18 -11 -27 -30.5t-17 -50.5q-7 -34 -17.5 -51t-32.5 -17q-18 0 -28.5 12t-10.5 31q0 34 46 70.5t107 61.5t98 25
q66 0 107.5 -42t41.5 -109v-303l74 -11zM281 61q37 26 80 73v164q-119 -48 -180.5 -89t-61.5 -95q0 -35 24.5 -57t61.5 -22q39 0 76 26zM191 741v-100h-95v100h95zM381 741v-100h-94v100h94z" />
    <glyph glyph-name="aring" unicode="&#xe5;" horiz-adv-x="525" 
d="M361 -12v126q-52 -58 -102 -92t-102 -34t-84.5 29t-32.5 76q0 44 43 81t102.5 65t152.5 65l23 9v48q0 53 -33.5 88.5t-85.5 35.5q-37 0 -71 -20q-18 -11 -27 -30.5t-17 -50.5q-7 -34 -17.5 -51t-32.5 -17q-18 0 -28.5 12t-10.5 31q0 34 46 70.5t107 61.5t98 25
q66 0 107.5 -42t41.5 -109v-303l74 -11zM281 61q37 26 80 73v164q-119 -48 -180.5 -89t-61.5 -95q0 -35 24.5 -57t61.5 -22q39 0 76 26zM178 630q-25 25 -25 60t25 59t61 24q35 0 59.5 -24t24.5 -59t-24.5 -60t-59.5 -25q-36 0 -61 25zM278 649q16 16 16 40t-16 40t-40 16
q-23 0 -39 -16t-16 -40t16 -40t39 -16q24 0 40 16z" />
    <glyph glyph-name="ae" unicode="&#xe6;" horiz-adv-x="846" 
d="M755.5 81.5q44.5 36.5 66.5 106.5q-19 -95 -72 -147.5t-130 -52.5q-82 0 -141 45t-81 123l-18 -15q-44 -49 -75.5 -79.5t-70 -52t-79.5 -21.5q-48 0 -82 28t-34 77q0 43 43 80.5t103 66t154 65.5q4 2 9.5 3.5t10.5 4.5v48q0 54 -33.5 90t-84.5 36q-35 0 -72 -21
q-18 -11 -26.5 -30t-18.5 -52t-19.5 -49t-30.5 -16q-16 0 -26 11.5t-10 28.5q0 34 45.5 70.5t105.5 61.5t96 25q52 0 92 -28.5t53 -77.5q32 50 81 78t108 28q56 0 99 -24t67 -67.5t24 -99.5v-7h-340q-3 -22 -3 -46q0 -66 22.5 -117.5t64 -80.5t96.5 -29q62 0 106.5 36.5z
M524 455q-40 -46 -53 -121h223q33 0 33 35q0 32 -14.5 63t-39.5 50t-54 19q-55 0 -95 -46zM279.5 60q36.5 26 79.5 74v166q-116 -47 -177.5 -89.5t-61.5 -98.5q0 -36 24.5 -57t60.5 -21q38 0 74.5 26z" />
    <glyph glyph-name="ccedilla" unicode="&#xe7;" horiz-adv-x="490" 
d="M267 -12l-22 -50l55 -34q37 -23 37 -59q0 -40 -40.5 -71.5t-104.5 -38.5q41 12 64 32t23 45q0 14 -6.5 22t-21.5 18l-65 41l63 96q-63 4 -112 37t-76 89.5t-27 129.5q0 79 31 140.5t85.5 96t122.5 34.5q48 0 88 -14.5t63.5 -38.5t23.5 -50q0 -18 -10 -29.5t-26 -11.5
q-20 0 -31.5 14t-25.5 43q-17 36 -33.5 54t-48.5 18q-46 0 -82 -29.5t-56 -81t-20 -116.5q0 -66 22.5 -117t64 -80t96.5 -29q63 0 106.5 35t65.5 105q-19 -95 -71.5 -147.5t-129.5 -52.5h-2z" />
    <glyph glyph-name="egrave" unicode="&#xe8;" horiz-adv-x="495" 
d="M404 81.5q44 36.5 66 106.5q-19 -95 -71.5 -147.5t-129.5 -52.5q-69 0 -122 31.5t-83 90t-30 134.5q0 79 30.5 141t84 96.5t119.5 34.5q56 0 99 -24t67 -67.5t24 -99.5v-7h-340q-3 -22 -3 -46q0 -66 22.5 -117.5t64 -80.5t96.5 -29q62 0 106 36.5zM173 455.5
q-40 -45.5 -53 -121.5h223q32 0 32 35q0 32 -14.5 63t-39 50t-53.5 19q-55 0 -95 -45.5zM296 568l-168 231h92z" />
    <glyph glyph-name="eacute" unicode="&#xe9;" horiz-adv-x="495" 
d="M404 81.5q44 36.5 66 106.5q-19 -95 -71.5 -147.5t-129.5 -52.5q-69 0 -122 31.5t-83 90t-30 134.5q0 79 30.5 141t84 96.5t119.5 34.5q56 0 99 -24t67 -67.5t24 -99.5v-7h-340q-3 -22 -3 -46q0 -66 22.5 -117.5t64 -80.5t96.5 -29q62 0 106 36.5zM173 455.5
q-40 -45.5 -53 -121.5h223q32 0 32 35q0 32 -14.5 63t-39 50t-53.5 19q-55 0 -95 -45.5zM387 799l-169 -231l77 231h92z" />
    <glyph glyph-name="ecircumflex" unicode="&#xea;" horiz-adv-x="495" 
d="M404 81.5q44 36.5 66 106.5q-19 -95 -71.5 -147.5t-129.5 -52.5q-69 0 -122 31.5t-83 90t-30 134.5q0 79 30.5 141t84 96.5t119.5 34.5q56 0 99 -24t67 -67.5t24 -99.5v-7h-340q-3 -22 -3 -46q0 -66 22.5 -117.5t64 -80.5t96.5 -29q62 0 106 36.5zM173 455.5
q-40 -45.5 -53 -121.5h223q32 0 32 35q0 32 -14.5 63t-39 50t-53.5 19q-55 0 -95 -45.5zM258 786l135 -219l-135 130l-136 -130z" />
    <glyph glyph-name="edieresis" unicode="&#xeb;" horiz-adv-x="495" 
d="M404 81.5q44 36.5 66 106.5q-19 -95 -71.5 -147.5t-129.5 -52.5q-69 0 -122 31.5t-83 90t-30 134.5q0 79 30.5 141t84 96.5t119.5 34.5q56 0 99 -24t67 -67.5t24 -99.5v-7h-340q-3 -22 -3 -46q0 -66 22.5 -117.5t64 -80.5t96.5 -29q62 0 106 36.5zM173 455.5
q-40 -45.5 -53 -121.5h223q32 0 32 35q0 32 -14.5 63t-39 50t-53.5 19q-55 0 -95 -45.5zM210 741v-100h-95v100h95zM400 741v-100h-94v100h94z" />
    <glyph glyph-name="igrave" unicode="&#xec;" horiz-adv-x="274" 
d="M181 40l76 -40h-227l73 40v389l-79 12l157 75v-476zM172 568l-168 231h92z" />
    <glyph glyph-name="iacute" unicode="&#xed;" horiz-adv-x="274" 
d="M181 40l76 -40h-227l73 40v389l-79 12l157 75v-476zM263 799l-169 -231l77 231h92z" />
    <glyph glyph-name="icircumflex" unicode="&#xee;" horiz-adv-x="274" 
d="M181 40l76 -40h-227l73 40v389l-79 12l157 75v-476zM134 786l135 -219l-135 130l-136 -130z" />
    <glyph glyph-name="idieresis" unicode="&#xef;" horiz-adv-x="274" 
d="M181 40l76 -40h-227l73 40v389l-79 12l157 75v-476zM86 741v-100h-95v100h95zM276 741v-100h-94v100h94z" />
    <glyph glyph-name="eth" unicode="&#xf0;" horiz-adv-x="573" 
d="M492.5 505.5q46.5 -97.5 46.5 -201.5q0 -91 -32.5 -163t-92 -112.5t-135.5 -40.5q-72 0 -128.5 33t-89 92.5t-32.5 137.5q-1 77 28.5 137t84 94t127.5 34q42 0 81.5 -14t67.5 -38q-36 101 -111 194l-183 -92v20l171 86q-92 107 -227 188q162 -62 277 -163l148 74v-20
l-134 -67q87 -81 133.5 -178.5zM366.5 41q38.5 37 60.5 103.5t22 150.5q0 76 -24 148q-21 21 -53 33t-71 12q-86 0 -135.5 -63t-52.5 -173q0 -73 20.5 -129.5t58 -87.5t87.5 -31q49 0 87.5 37z" />
    <glyph glyph-name="ntilde" unicode="&#xf1;" horiz-adv-x="600" 
d="M584 0h-229l78 40v323q0 47 -30 80t-73 33q-31 0 -68 -16t-82 -43v-377l78 -40h-229l73 40v381l-78 20l156 75v-86q59 38 107 62t84 24q61 0 100.5 -41t39.5 -108v-327zM206.5 706.5q27.5 31.5 54.5 31.5q16 0 60 -16q18 -7 36.5 -12.5t31.5 -5.5q24 0 46.5 19.5
t35.5 50.5q-12 -60 -37.5 -95.5t-60.5 -35.5q-20 0 -63 17q-19 7 -37.5 12.5t-31.5 5.5q-22 0 -44.5 -16.5t-42.5 -45.5q25 59 52.5 90.5z" />
    <glyph glyph-name="ograve" unicode="&#xf2;" horiz-adv-x="573" 
d="M161 24.5q-58 36.5 -92.5 98t-34.5 133.5q0 71 34.5 130.5t92.5 94.5t126 35t126 -35t92 -94.5t34 -130.5q0 -72 -34 -133.5t-92 -98t-126 -36.5t-126 36.5zM407.5 71.5q44.5 67.5 44.5 184.5q0 113 -44 178.5t-121 65.5t-121.5 -65t-44.5 -179q0 -117 44.5 -184.5
t121.5 -67.5q76 0 120.5 67.5zM325 568l-168 231h92z" />
    <glyph glyph-name="oacute" unicode="&#xf3;" horiz-adv-x="573" 
d="M161 24.5q-58 36.5 -92.5 98t-34.5 133.5q0 71 34.5 130.5t92.5 94.5t126 35t126 -35t92 -94.5t34 -130.5q0 -72 -34 -133.5t-92 -98t-126 -36.5t-126 36.5zM407.5 71.5q44.5 67.5 44.5 184.5q0 113 -44 178.5t-121 65.5t-121.5 -65t-44.5 -179q0 -117 44.5 -184.5
t121.5 -67.5q76 0 120.5 67.5zM416 799l-169 -231l77 231h92z" />
    <glyph glyph-name="ocircumflex" unicode="&#xf4;" horiz-adv-x="573" 
d="M161 24.5q-58 36.5 -92.5 98t-34.5 133.5q0 71 34.5 130.5t92.5 94.5t126 35t126 -35t92 -94.5t34 -130.5q0 -72 -34 -133.5t-92 -98t-126 -36.5t-126 36.5zM407.5 71.5q44.5 67.5 44.5 184.5q0 113 -44 178.5t-121 65.5t-121.5 -65t-44.5 -179q0 -117 44.5 -184.5
t121.5 -67.5q76 0 120.5 67.5zM287 786l135 -219l-135 130l-136 -130z" />
    <glyph glyph-name="otilde" unicode="&#xf5;" horiz-adv-x="573" 
d="M161 24.5q-58 36.5 -92.5 98t-34.5 133.5q0 71 34.5 130.5t92.5 94.5t126 35t126 -35t92 -94.5t34 -130.5q0 -72 -34 -133.5t-92 -98t-126 -36.5t-126 36.5zM407.5 71.5q44.5 67.5 44.5 184.5q0 113 -44 178.5t-121 65.5t-121.5 -65t-44.5 -179q0 -117 44.5 -184.5
t121.5 -67.5q76 0 120.5 67.5zM180.5 706.5q27.5 31.5 54.5 31.5q16 0 60 -16q18 -7 36.5 -12.5t31.5 -5.5q24 0 46.5 19.5t35.5 50.5q-12 -60 -37.5 -95.5t-60.5 -35.5q-20 0 -63 17q-19 7 -37.5 12.5t-31.5 5.5q-22 0 -44.5 -16.5t-42.5 -45.5q25 59 52.5 90.5z" />
    <glyph glyph-name="odieresis" unicode="&#xf6;" horiz-adv-x="573" 
d="M161 24.5q-58 36.5 -92.5 98t-34.5 133.5q0 71 34.5 130.5t92.5 94.5t126 35t126 -35t92 -94.5t34 -130.5q0 -72 -34 -133.5t-92 -98t-126 -36.5t-126 36.5zM407.5 71.5q44.5 67.5 44.5 184.5q0 113 -44 178.5t-121 65.5t-121.5 -65t-44.5 -179q0 -117 44.5 -184.5
t121.5 -67.5q76 0 120.5 67.5zM239 741v-100h-95v100h95zM429 741v-100h-94v100h94z" />
    <glyph glyph-name="divide" unicode="&#xf7;" horiz-adv-x="487" 
d="M201 521h85v-97h-85v97zM452 302h-418v22h418v-22zM202 202h83v-95h-83v95z" />
    <glyph glyph-name="oslash" unicode="&#xf8;" horiz-adv-x="573" 
d="M518.5 358.5q20.5 -48.5 20.5 -102.5q0 -72 -34 -133.5t-92 -98t-126 -36.5q-47 0 -90 17.5t-76 49.5l-49 -55h-23l59 67q-35 38 -54.5 87t-19.5 102q0 71 34.5 130.5t92.5 94.5t126 35q45 0 86.5 -16t74.5 -45l44 50h24l-54 -62q36 -36 56.5 -84.5zM145 110l272 309
q-21 39 -54.5 60t-75.5 21q-77 0 -121.5 -65t-44.5 -179q0 -84 24 -146zM407.5 71.5q44.5 67.5 44.5 184.5q0 86 -26 146l-273 -310q22 -43 56 -65.5t78 -22.5q76 0 120.5 67.5z" />
    <glyph glyph-name="ugrave" unicode="&#xf9;" horiz-adv-x="599" 
d="M428 -15v88q-62 -40 -107 -62.5t-82 -22.5q-61 0 -101 41t-40 108v284l-76 20l155 75v-375q0 -44 30.5 -76t76.5 -32q55 0 144 54v334l-76 20l155 75v-457l73 -11zM341 568l-168 231h92z" />
    <glyph glyph-name="uacute" unicode="&#xfa;" horiz-adv-x="599" 
d="M428 -15v88q-62 -40 -107 -62.5t-82 -22.5q-61 0 -101 41t-40 108v284l-76 20l155 75v-375q0 -44 30.5 -76t76.5 -32q55 0 144 54v334l-76 20l155 75v-457l73 -11zM432 799l-169 -231l77 231h92z" />
    <glyph glyph-name="ucircumflex" unicode="&#xfb;" horiz-adv-x="599" 
d="M428 -15v88q-62 -40 -107 -62.5t-82 -22.5q-61 0 -101 41t-40 108v284l-76 20l155 75v-375q0 -44 30.5 -76t76.5 -32q55 0 144 54v334l-76 20l155 75v-457l73 -11zM303 786l135 -219l-135 130l-136 -130z" />
    <glyph glyph-name="udieresis" unicode="&#xfc;" horiz-adv-x="599" 
d="M428 -15v88q-62 -40 -107 -62.5t-82 -22.5q-61 0 -101 41t-40 108v284l-76 20l155 75v-375q0 -44 30.5 -76t76.5 -32q55 0 144 54v334l-76 20l155 75v-457l73 -11zM255 741v-100h-95v100h95zM445 741v-100h-94v100h94z" />
    <glyph glyph-name="yacute" unicode="&#xfd;" horiz-adv-x="587" 
d="M499 461l-191 -488v1l-81 -218h-104l175 238l-214 467l-78 44h259l-94 -43l158 -355h13l135 355l-96 43h201zM436 799l-169 -231l77 231h92z" />
    <glyph glyph-name="thorn" unicode="&#xfe;" horiz-adv-x="601" 
d="M469.5 482q48.5 -32 75.5 -90t27 -132q0 -77 -30.5 -139t-85.5 -97.5t-126 -35.5q-41 0 -82.5 14.5t-74.5 40.5v-247l82 -40h-233l73 40v927l-78 12l156 77v-382q61 39 104.5 61.5t80.5 22.5q63 0 111.5 -32zM410.5 33.5q36.5 30.5 57 84.5t20.5 123q0 67 -22.5 120
t-63 83t-90.5 30q-26 0 -58.5 -15t-80.5 -44v-285q19 -59 60.5 -93t94.5 -34q46 0 82.5 30.5z" />
    <glyph glyph-name="ydieresis" unicode="&#xff;" horiz-adv-x="587" 
d="M499 461l-191 -488v1l-81 -218h-104l175 238l-214 467l-78 44h259l-94 -43l158 -355h13l135 355l-96 43h201zM259 741v-100h-95v100h95zM449 741v-100h-94v100h94z" />
    <glyph glyph-name="Amacron" unicode="&#x100;" horiz-adv-x="836" 
d="M733 49l91 -49h-294l110 46l-92 217h-325l-90 -216l114 -47h-235l95 48l265 620l-44 65l107 13zM231 283h308l-149 350h-12zM539 906v-46h-291v46h291z" />
    <glyph glyph-name="amacron" unicode="&#x101;" horiz-adv-x="525" 
d="M361 -12v126q-52 -58 -102 -92t-102 -34t-84.5 29t-32.5 76q0 44 43 81t102.5 65t152.5 65l23 9v48q0 53 -33.5 88.5t-85.5 35.5q-37 0 -71 -20q-18 -11 -27 -30.5t-17 -50.5q-7 -34 -17.5 -51t-32.5 -17q-18 0 -28.5 12t-10.5 31q0 34 46 70.5t107 61.5t98 25
q66 0 107.5 -42t41.5 -109v-303l74 -11zM281 61q37 26 80 73v164q-119 -48 -180.5 -89t-61.5 -95q0 -35 24.5 -57t61.5 -22q39 0 76 26zM377 704v-46h-277v46h277z" />
    <glyph glyph-name="Abreve" unicode="&#x102;" horiz-adv-x="836" 
d="M733 49l91 -49h-294l110 46l-92 217h-325l-90 -216l114 -47h-235l95 48l265 620l-44 65l107 13zM231 283h308l-149 350h-12zM311.5 900.5q32.5 -23.5 81.5 -23.5q47 0 80 23t45 65q0 -65 -34.5 -106t-90.5 -41q-55 0 -89 40.5t-34 106.5q9 -41 41.5 -64.5z" />
    <glyph glyph-name="abreve" unicode="&#x103;" horiz-adv-x="525" 
d="M361 -12v126q-52 -58 -102 -92t-102 -34t-84.5 29t-32.5 76q0 44 43 81t102.5 65t152.5 65l23 9v48q0 53 -33.5 88.5t-85.5 35.5q-37 0 -71 -20q-18 -11 -27 -30.5t-17 -50.5q-7 -34 -17.5 -51t-32.5 -17q-18 0 -28.5 12t-10.5 31q0 34 46 70.5t107 61.5t98 25
q66 0 107.5 -42t41.5 -109v-303l74 -11zM281 61q37 26 80 73v164q-119 -48 -180.5 -89t-61.5 -95q0 -35 24.5 -57t61.5 -22q39 0 76 26zM150.5 697.5q36.5 -30.5 86.5 -30.5q49 0 85 30.5t44 83.5q0 -78 -36 -125.5t-93 -47.5t-93.5 47t-36.5 126q7 -53 43.5 -83.5z" />
    <glyph glyph-name="Aogonek" unicode="&#x104;" horiz-adv-x="836" 
d="M635.5 -71q-24.5 -39 -24.5 -73t18.5 -54t50.5 -20q43 0 74 34q-14 -36 -43 -57.5t-67 -21.5q-40 0 -66 24.5t-26 62.5q0 43 33 86.5t90 83.5l-5 6h-140l110 46l-92 217h-325l-90 -216l114 -47h-235l95 48l265 620l-44 65l107 13l298 -697l91 -49h-123q-41 -32 -65.5 -71
zM231 283h308l-149 350h-12z" />
    <glyph glyph-name="aogonek" unicode="&#x105;" horiz-adv-x="525" 
d="M440 -184q-13 -36 -42 -57.5t-67 -21.5q-40 0 -66 24.5t-26 62.5q0 43 32.5 86t89.5 83v121q-52 -58 -102 -92t-102 -34t-84.5 29t-32.5 76q0 44 43 81t102.5 65t152.5 65l23 9v48q0 53 -33.5 88.5t-85.5 35.5q-37 0 -71 -20q-18 -11 -27 -30.5t-17 -50.5
q-7 -34 -17.5 -51t-32.5 -17q-18 0 -28.5 12t-10.5 31q0 34 46 70.5t107 61.5t98 25q66 0 107.5 -42t41.5 -109v-303l74 -11l-126 -53q-41 -32 -65 -70t-24 -72t18.5 -54t51.5 -20q43 0 73 34zM281 61q37 26 80 73v164q-119 -48 -180.5 -89t-61.5 -95q0 -35 24.5 -57
t61.5 -22q39 0 76 26z" />
    <glyph glyph-name="Cacute" unicode="&#x106;" horiz-adv-x="715" 
d="M90 561q51 86 137 136.5t186 50.5q66 1 128.5 -11.5t107.5 -35.5v-16l27 -166q-46 105 -110.5 157.5t-152.5 51.5q-83 0 -146.5 -45.5t-99 -126t-35.5 -183.5q0 -107 35.5 -189.5t100.5 -128.5t151 -46q88 -1 153.5 55.5t115.5 175.5l-33 -188v-16q-46 -23 -108.5 -36
t-127.5 -12q-102 0 -189.5 52t-139 140.5t-51.5 192.5q0 102 51 188zM555 980l-196 -187l97 187h99z" />
    <glyph glyph-name="cacute" unicode="&#x107;" horiz-adv-x="490" 
d="M65 385.5q31 61.5 85.5 96t122.5 34.5q48 0 88 -14.5t63.5 -38.5t23.5 -50q0 -18 -10 -29.5t-26 -11.5q-20 0 -31.5 14t-25.5 43q-17 36 -33.5 54t-48.5 18q-46 0 -82 -29.5t-56 -81t-20 -116.5q0 -66 22.5 -117t64 -80t96.5 -29q63 0 106.5 35t65.5 105
q-19 -95 -71.5 -147.5t-129.5 -52.5q-69 0 -122 31.5t-83 90t-30 135.5q0 79 31 140.5zM392 799l-169 -231l77 231h92z" />
    <glyph glyph-name="Cdotaccent" unicode="&#x10a;" horiz-adv-x="715" 
d="M90 561q51 86 137 136.5t186 50.5q66 1 128.5 -11.5t107.5 -35.5v-16l27 -166q-46 105 -110.5 157.5t-152.5 51.5q-83 0 -146.5 -45.5t-99 -126t-35.5 -183.5q0 -107 35.5 -189.5t100.5 -128.5t151 -46q88 -1 153.5 55.5t115.5 175.5l-33 -188v-16q-46 -23 -108.5 -36
t-127.5 -12q-102 0 -189.5 52t-139 140.5t-51.5 192.5q0 102 51 188zM456 948v-115h-107v115h107z" />
    <glyph glyph-name="cdotaccent" unicode="&#x10b;" horiz-adv-x="490" 
d="M65 385.5q31 61.5 85.5 96t122.5 34.5q48 0 88 -14.5t63.5 -38.5t23.5 -50q0 -18 -10 -29.5t-26 -11.5q-20 0 -31.5 14t-25.5 43q-17 36 -33.5 54t-48.5 18q-46 0 -82 -29.5t-56 -81t-20 -116.5q0 -66 22.5 -117t64 -80t96.5 -29q63 0 106.5 35t65.5 105
q-19 -95 -71.5 -147.5t-129.5 -52.5q-69 0 -122 31.5t-83 90t-30 135.5q0 79 31 140.5zM317 753v-115h-107v115h107z" />
    <glyph glyph-name="Ccaron" unicode="&#x10c;" horiz-adv-x="715" 
d="M90 561q51 86 137 136.5t186 50.5q66 1 128.5 -11.5t107.5 -35.5v-16l27 -166q-46 105 -110.5 157.5t-152.5 51.5q-83 0 -146.5 -45.5t-99 -126t-35.5 -183.5q0 -107 35.5 -189.5t100.5 -128.5t151 -46q88 -1 153.5 55.5t115.5 175.5l-33 -188v-16q-46 -23 -108.5 -36
t-127.5 -12q-102 0 -189.5 52t-139 140.5t-51.5 192.5q0 102 51 188zM405 883l133 88l-133 -165l-133 165z" />
    <glyph glyph-name="ccaron" unicode="&#x10d;" horiz-adv-x="490" 
d="M65 385.5q31 61.5 85.5 96t122.5 34.5q48 0 88 -14.5t63.5 -38.5t23.5 -50q0 -18 -10 -29.5t-26 -11.5q-20 0 -31.5 14t-25.5 43q-17 36 -33.5 54t-48.5 18q-46 0 -82 -29.5t-56 -81t-20 -116.5q0 -66 22.5 -117t64 -80t96.5 -29q63 0 106.5 35t65.5 105
q-19 -95 -71.5 -147.5t-129.5 -52.5q-69 0 -122 31.5t-83 90t-30 135.5q0 79 31 140.5zM263 672l135 114l-135 -200l-136 200z" />
    <glyph glyph-name="Dcaron" unicode="&#x10e;" horiz-adv-x="761" 
d="M521 686.5q94 -48.5 148 -131.5t54 -182q0 -102 -54 -187.5t-148 -135.5t-208 -50h-289l87 53v629l-87 53h289q114 0 208 -48.5zM473.5 65q73.5 45 114.5 125.5t41 182.5q0 99 -41 177t-114 121.5t-166 43.5h-113v-695h112q93 0 166.5 45zM343 883l133 88l-133 -165
l-133 165z" />
    <glyph glyph-name="dcaron" unicode="&#x10f;" horiz-adv-x="607" 
d="M506 62l73 -11l-151 -66v84q-55 -36 -101.5 -58.5t-84.5 -22.5q-63 0 -111.5 32.5t-75 90.5t-26.5 133q0 80 30.5 142t86 96t126.5 34q42 0 83 -13.5t73 -37.5v251l-78 20l156 76v-750zM589 812h83l-125 -281zM428 84v255q-7 72 -49 117t-101 45q-49 0 -86.5 -29.5
t-58 -83.5t-20.5 -123q0 -70 22 -124t61.5 -83.5t91.5 -29.5q47 0 140 56z" />
    <glyph glyph-name="Dcroat" unicode="&#x110;" horiz-adv-x="761" 
d="M521 686.5q94 -48.5 148 -131.5t54 -182q0 -102 -54 -187.5t-148 -135.5t-208 -50h-289l87 53v312h-77v19h77v298l-87 53h289q114 0 208 -48.5zM473.5 65q73.5 45 114.5 125.5t41 182.5q0 99 -41 177t-114 121.5t-166 43.5h-113v-331h191v-19h-191v-345h112
q93 0 166.5 45z" />
    <glyph glyph-name="dcroat" unicode="&#x111;" horiz-adv-x="600" 
d="M506 602v-540l73 -11l-151 -66v84q-55 -36 -101.5 -58.5t-84.5 -22.5q-63 0 -111.5 32.5t-75 90.5t-26.5 133q0 80 30.5 142t86 96t126.5 34q42 0 83 -13.5t73 -37.5v137h-147v19h147v95l-78 20l156 76v-191h77v-19h-77zM428 84v255q-7 72 -49 117t-101 45
q-49 0 -86.5 -29.5t-58 -83.5t-20.5 -123q0 -70 22 -124t61.5 -83.5t91.5 -29.5q47 0 140 56z" />
    <glyph glyph-name="Emacron" unicode="&#x112;" horiz-adv-x="672" 
d="M518 20l122 203l-30 -205v-18h-586l87 53v629l-87 53h550v-18l29 -179l-120 177h-288v-320l182 1l67 118v-257l-67 119h-182v-356h323zM466 906v-46h-291v46h291z" />
    <glyph glyph-name="emacron" unicode="&#x113;" horiz-adv-x="495" 
d="M404 81.5q44 36.5 66 106.5q-19 -95 -71.5 -147.5t-129.5 -52.5q-69 0 -122 31.5t-83 90t-30 134.5q0 79 30.5 141t84 96.5t119.5 34.5q56 0 99 -24t67 -67.5t24 -99.5v-7h-340q-3 -22 -3 -46q0 -66 22.5 -117.5t64 -80.5t96.5 -29q62 0 106 36.5zM173 455.5
q-40 -45.5 -53 -121.5h223q32 0 32 35q0 32 -14.5 63t-39 50t-53.5 19q-55 0 -95 -45.5zM396 704v-46h-277v46h277z" />
    <glyph glyph-name="Edotaccent" unicode="&#x116;" horiz-adv-x="672" 
d="M518 20l122 203l-30 -205v-18h-586l87 53v629l-87 53h550v-18l29 -179l-120 177h-288v-320l182 1l67 118v-257l-67 119h-182v-356h323zM372 948v-115h-107v115h107z" />
    <glyph glyph-name="edotaccent" unicode="&#x117;" horiz-adv-x="495" 
d="M404 81.5q44 36.5 66 106.5q-19 -95 -71.5 -147.5t-129.5 -52.5q-69 0 -122 31.5t-83 90t-30 134.5q0 79 30.5 141t84 96.5t119.5 34.5q56 0 99 -24t67 -67.5t24 -99.5v-7h-340q-3 -22 -3 -46q0 -66 22.5 -117.5t64 -80.5t96.5 -29q62 0 106 36.5zM173 455.5
q-40 -45.5 -53 -121.5h223q32 0 32 35q0 32 -14.5 63t-39 50t-53.5 19q-55 0 -95 -45.5zM312 753v-115h-107v115h107z" />
    <glyph glyph-name="Eogonek" unicode="&#x118;" horiz-adv-x="672" 
d="M640 223l-30 -205v-18h-90q-42 -32 -66.5 -71t-24.5 -73t18.5 -54t50.5 -20q44 0 74 34q-14 -37 -43 -58t-67 -21q-40 0 -65.5 24.5t-25.5 62.5q0 42 32.5 85.5t87.5 82.5l-6 8h-461l87 53v629l-87 53h550v-18l29 -179l-120 177h-288v-320l182 1l67 118v-257l-67 119
h-182v-356h323z" />
    <glyph glyph-name="eogonek" unicode="&#x119;" horiz-adv-x="495" 
d="M279 -67q-27 -41 -27 -77q0 -34 18.5 -54t50.5 -20q44 0 74 34q-14 -37 -42.5 -58t-66.5 -21q-40 0 -66 24.5t-26 62.5q0 77 104 156l-7 9q-7 -1 -22 -1q-69 0 -122 31.5t-83 90t-30 134.5q0 79 30.5 141t84 96.5t119.5 34.5q56 0 99 -24t67 -67.5t24 -99.5v-7h-340
q-3 -22 -3 -46q0 -66 22.5 -117.5t64 -80.5t96.5 -29q62 0 106 36.5t66 106.5q-14 -67 -44 -113t-74 -68q-46 -33 -73 -74zM173 455.5q-40 -45.5 -53 -121.5h223q32 0 32 35q0 32 -14.5 63t-39 50t-53.5 19q-55 0 -95 -45.5z" />
    <glyph glyph-name="Ecaron" unicode="&#x11a;" horiz-adv-x="672" 
d="M518 20l122 203l-30 -205v-18h-586l87 53v629l-87 53h550v-18l29 -179l-120 177h-288v-320l182 1l67 118v-257l-67 119h-182v-356h323zM320 883l133 88l-133 -165l-133 165z" />
    <glyph glyph-name="ecaron" unicode="&#x11b;" horiz-adv-x="495" 
d="M404 81.5q44 36.5 66 106.5q-19 -95 -71.5 -147.5t-129.5 -52.5q-69 0 -122 31.5t-83 90t-30 134.5q0 79 30.5 141t84 96.5t119.5 34.5q56 0 99 -24t67 -67.5t24 -99.5v-7h-340q-3 -22 -3 -46q0 -66 22.5 -117.5t64 -80.5t96.5 -29q62 0 106 36.5zM173 455.5
q-40 -45.5 -53 -121.5h223q32 0 32 35q0 32 -14.5 63t-39 50t-53.5 19q-55 0 -95 -45.5zM258 672l135 114l-135 -200l-136 200z" />
    <glyph glyph-name="Gbreve" unicode="&#x11e;" horiz-adv-x="809" 
d="M712 319v-337l-58 89q-47 -39 -111.5 -61t-129.5 -22q-100 0 -186 52t-137 140.5t-51 192.5q0 102 51.5 188t139 136.5t190.5 50.5q65 1 126.5 -11.5t105.5 -34.5v-16l27 -167q-50 107 -112.5 158.5t-150.5 50.5q-84 0 -148.5 -45.5t-100 -126t-35.5 -183.5
q0 -107 35 -189.5t99 -128.5t148 -46q71 0 130.5 37.5t86.5 103.5v202h-176v20h345zM334.5 900.5q32.5 -23.5 81.5 -23.5q47 0 80 23t45 65q0 -65 -34.5 -106t-90.5 -41q-55 0 -89 40.5t-34 106.5q9 -41 41.5 -64.5z" />
    <glyph glyph-name="gbreve" unicode="&#x11f;" horiz-adv-x="527" 
d="M485 18q35 -27 35 -72q0 -59 -48 -113t-118.5 -86.5t-133.5 -32.5t-114 19t-80.5 52.5t-29.5 74.5q0 38 32.5 68.5t82.5 44.5v9q-32 10 -50 31.5t-18 50.5q0 28 22.5 59.5t63.5 62.5q-34 25 -53 62t-19 79q0 51 27 94.5t72.5 69t99.5 25.5q19 0 32.5 -2.5t31.5 -7.5
q36 -12 74 -12h118v-37h-113q26 -25 40 -58.5t14 -71.5q0 -50 -26.5 -92t-72 -66.5t-98.5 -24.5q-63 0 -116 34q-21 -17 -33 -37t-12 -39q0 -26 18.5 -41.5t48.5 -15.5h230q58 0 93 -27zM168 453.5q-33 -47.5 -33 -126.5q0 -77 33 -122.5t88 -45.5q53 0 85 46t32 122
q0 79 -32 126.5t-85 47.5q-55 0 -88 -47.5zM372 -221.5q49 19.5 77.5 53t28.5 73.5q0 32 -21.5 50.5t-61.5 18.5h-217q-51 0 -80.5 -25t-29.5 -64q0 -35 25.5 -63.5t70.5 -45.5t100 -17q59 0 108 19.5zM165.5 697.5q36.5 -30.5 86.5 -30.5q49 0 85 30.5t44 83.5
q0 -78 -36 -125.5t-93 -47.5t-93.5 47t-36.5 126q7 -53 43.5 -83.5z" />
    <glyph glyph-name="Gdotaccent" unicode="&#x120;" horiz-adv-x="809" 
d="M712 319v-337l-58 89q-47 -39 -111.5 -61t-129.5 -22q-100 0 -186 52t-137 140.5t-51 192.5q0 102 51.5 188t139 136.5t190.5 50.5q65 1 126.5 -11.5t105.5 -34.5v-16l27 -167q-50 107 -112.5 158.5t-150.5 50.5q-84 0 -148.5 -45.5t-100 -126t-35.5 -183.5
q0 -107 35 -189.5t99 -128.5t148 -46q71 0 130.5 37.5t86.5 103.5v202h-176v20h345zM468 948v-115h-107v115h107z" />
    <glyph glyph-name="gdotaccent" unicode="&#x121;" horiz-adv-x="527" 
d="M485 18q35 -27 35 -72q0 -59 -48 -113t-118.5 -86.5t-133.5 -32.5t-114 19t-80.5 52.5t-29.5 74.5q0 38 32.5 68.5t82.5 44.5v9q-32 10 -50 31.5t-18 50.5q0 28 22.5 59.5t63.5 62.5q-34 25 -53 62t-19 79q0 51 27 94.5t72.5 69t99.5 25.5q19 0 32.5 -2.5t31.5 -7.5
q36 -12 74 -12h118v-37h-113q26 -25 40 -58.5t14 -71.5q0 -50 -26.5 -92t-72 -66.5t-98.5 -24.5q-63 0 -116 34q-21 -17 -33 -37t-12 -39q0 -26 18.5 -41.5t48.5 -15.5h230q58 0 93 -27zM168 453.5q-33 -47.5 -33 -126.5q0 -77 33 -122.5t88 -45.5q53 0 85 46t32 122
q0 79 -32 126.5t-85 47.5q-55 0 -88 -47.5zM372 -221.5q49 19.5 77.5 53t28.5 73.5q0 32 -21.5 50.5t-61.5 18.5h-217q-51 0 -80.5 -25t-29.5 -64q0 -35 25.5 -63.5t70.5 -45.5t100 -17q59 0 108 19.5zM307 753v-115h-107v115h107z" />
    <glyph glyph-name="uni0122" unicode="&#x122;" horiz-adv-x="809" 
d="M712 319v-337l-58 89q-47 -39 -111.5 -61t-129.5 -22q-100 0 -186 52t-137 140.5t-51 192.5q0 102 51.5 188t139 136.5t190.5 50.5q65 1 126.5 -11.5t105.5 -34.5v-16l27 -167q-50 107 -112.5 158.5t-150.5 50.5q-84 0 -148.5 -45.5t-100 -126t-35.5 -183.5
q0 -107 35 -189.5t99 -128.5t148 -46q71 0 130.5 37.5t86.5 103.5v202h-176v20h345zM374 -51h101v-111l-94 -179h-78l162 179h-91v111z" />
    <glyph glyph-name="uni0123" unicode="&#x123;" horiz-adv-x="527" 
d="M303 709v-114h-104v109l95 180h77l-160 -175h92zM485 18q35 -27 35 -72q0 -59 -48 -113t-118.5 -86.5t-133.5 -32.5t-114 19t-80.5 52.5t-29.5 74.5q0 38 32.5 68.5t82.5 44.5v9q-32 10 -50 31.5t-18 50.5q0 28 22.5 59.5t63.5 62.5q-34 25 -53 62t-19 79q0 51 27 94.5
t72.5 69t99.5 25.5q19 0 32.5 -2.5t31.5 -7.5q36 -12 74 -12h118v-37h-113q26 -25 40 -58.5t14 -71.5q0 -50 -26.5 -92t-72 -66.5t-98.5 -24.5q-63 0 -116 34q-21 -17 -33 -37t-12 -39q0 -26 18.5 -41.5t48.5 -15.5h230q58 0 93 -27zM168 453.5q-33 -47.5 -33 -126.5
q0 -77 33 -122.5t88 -45.5q53 0 85 46t32 122q0 79 -32 126.5t-85 47.5q-55 0 -88 -47.5zM372 -221.5q49 19.5 77.5 53t28.5 73.5q0 32 -21.5 50.5t-61.5 18.5h-217q-51 0 -80.5 -25t-29.5 -64q0 -35 25.5 -63.5t70.5 -45.5t100 -17q59 0 108 19.5z" />
    <glyph glyph-name="Hbar" unicode="&#x126;" horiz-adv-x="775" 
d="M664 511v-462l88 -49h-276l104 49v340h-385v-340l104 -49h-275l87 49v462h-69v18h69v157l-87 49h275l-104 -49v-157h385v157l-104 49h276l-88 -49v-157h71v-18h-71zM195 409h385v102h-385v-102z" />
    <glyph glyph-name="hbar" unicode="&#x127;" horiz-adv-x="596" 
d="M580 0h-229l78 40v323q0 47 -30.5 80t-73.5 33q-31 0 -67 -15.5t-82 -43.5v-377l82 -40h-233l73 40v562h-79v19h79v95l-78 20l156 76v-191h148v-19h-148v-171q58 37 106.5 61t84.5 24q61 0 100.5 -41t39.5 -108v-327z" />
    <glyph glyph-name="Imacron" unicode="&#x12a;" horiz-adv-x="307" 
d="M111 686l-87 49h259l-88 -49v-637l88 -49h-259l87 49v637zM300 906v-46h-291v46h291z" />
    <glyph glyph-name="imacron" unicode="&#x12b;" horiz-adv-x="274" 
d="M181 40l76 -40h-227l73 40v389l-79 12l157 75v-476zM272 704v-46h-277v46h277z" />
    <glyph glyph-name="Iogonek" unicode="&#x12e;" horiz-adv-x="307" 
d="M116.5 -71q-24.5 -39 -24.5 -73t18.5 -54t50.5 -20q44 0 74 34q-14 -37 -43 -58t-67 -21q-40 0 -65.5 24.5t-25.5 62.5q0 43 32.5 86t88.5 83l-5 7h-126l87 49v637l-87 49h259l-88 -49v-637l88 -49h-100q-42 -32 -66.5 -71z" />
    <glyph glyph-name="iogonek" unicode="&#x12f;" horiz-adv-x="280" 
d="M192 748v-112h-104v112h104zM226 -184q-14 -36 -43 -57.5t-67 -21.5q-40 0 -66 24.5t-26 62.5q0 42 32 85t88 83l-6 8h-101l72 40v381l-78 20l156 75v-476l76 -40h-90q-41 -32 -65.5 -71t-24.5 -73t18.5 -54t50.5 -20q43 0 74 34z" />
    <glyph glyph-name="dotlessi" unicode="&#x131;" horiz-adv-x="274" 
d="M181 40l76 -40h-227l73 40v389l-79 12l157 75v-476z" />
    <glyph glyph-name="uni0136" unicode="&#x136;" horiz-adv-x="761" 
d="M637 0l-442 396v-347l88 -49h-259l87 49v638l-87 48h272l-101 -48v-278h40l363 326h111l-432 -308l487 -427h-127zM358 -51h101v-111l-94 -179h-78l162 179h-91v111z" />
    <glyph glyph-name="uni0137" unicode="&#x137;" horiz-adv-x="593" 
d="M474 0l-299 279v-239l73 -40h-224l72 40v676l-77 20l156 76v-525h49l222 218h102l-289 -205l332 -300h-117zM275 -51h101v-111l-94 -179h-78l162 179h-91v111z" />
    <glyph glyph-name="Lacute" unicode="&#x139;" horiz-adv-x="658" 
d="M502 22l127 222l-30 -226v-18h-575l87 52v634l-87 49h275l-104 -49v-664h307zM304 980l-196 -187l97 187h99z" />
    <glyph glyph-name="lacute" unicode="&#x13a;" horiz-adv-x="264" 
d="M175 40l73 -40h-224l72 40v676l-77 20l156 76v-772zM279 1018l-196 -187l97 187h99z" />
    <glyph glyph-name="uni013B" unicode="&#x13b;" horiz-adv-x="658" 
d="M502 22l127 222l-30 -226v-18h-575l87 52v634l-87 49h275l-104 -49v-664h307zM306 -51h101v-111l-94 -179h-78l162 179h-91v111z" />
    <glyph glyph-name="uni013C" unicode="&#x13c;" horiz-adv-x="264" 
d="M175 40l73 -40h-224l72 40v676l-77 20l156 76v-772zM82 -51h101v-111l-94 -179h-78l162 179h-91v111z" />
    <glyph glyph-name="Lcaron" unicode="&#x13d;" horiz-adv-x="658" 
d="M502 22l127 222l-30 -226v-18h-575l87 52v634l-87 49h275l-104 -49v-664h307zM426 735h83l-135 -286z" />
    <glyph glyph-name="lcaron" unicode="&#x13e;" horiz-adv-x="269" 
d="M175 812v-772l73 -40h-224l72 40v676l-77 20zM266 812h83l-125 -281z" />
    <glyph glyph-name="Lslash" unicode="&#x141;" horiz-adv-x="662" 
d="M506 22l127 222l-30 -226v-18h-575l87 52v272l-65 -62h-26l91 86v338l-87 49h275l-104 -49v-258l93 88h25l-118 -112v-382h307z" />
    <glyph glyph-name="lslash" unicode="&#x142;" horiz-adv-x="323" 
d="M204 419v-379l72 -40h-224l72 40v299l-80 -79h-25l105 105v351l-76 20l156 76v-368l77 77h26z" />
    <glyph glyph-name="Nacute" unicode="&#x143;" horiz-adv-x="825" 
d="M806 735l-104 -53v-708l-542 647h-10v-568l104 -53h-233l104 53v610l-74 71l116 12l498 -594h12v530l-104 53h233zM565 980l-196 -187l97 187h99z" />
    <glyph glyph-name="nacute" unicode="&#x144;" horiz-adv-x="600" 
d="M584 0h-229l78 40v323q0 47 -30 80t-73 33q-31 0 -68 -16t-82 -43v-377l78 -40h-229l73 40v381l-78 20l156 75v-86q59 38 107 62t84 24q61 0 100.5 -41t39.5 -108v-327zM442 799l-169 -231l77 231h92z" />
    <glyph glyph-name="uni0145" unicode="&#x145;" horiz-adv-x="825" 
d="M806 735l-104 -53v-708l-542 647h-10v-568l104 -53h-233l104 53v610l-74 71l116 12l498 -594h12v530l-104 53h233zM361 -51h101v-111l-94 -179h-78l162 179h-91v111z" />
    <glyph glyph-name="uni0146" unicode="&#x146;" horiz-adv-x="600" 
d="M584 0h-229l78 40v323q0 47 -30 80t-73 33q-31 0 -68 -16t-82 -43v-377l78 -40h-229l73 40v381l-78 20l156 75v-86q59 38 107 62t84 24q61 0 100.5 -41t39.5 -108v-327zM257 -51h101v-111l-94 -179h-78l162 179h-91v111z" />
    <glyph glyph-name="Ncaron" unicode="&#x147;" horiz-adv-x="825" 
d="M806 735l-104 -53v-708l-542 647h-10v-568l104 -53h-233l104 53v610l-74 71l116 12l498 -594h12v530l-104 53h233zM415 883l133 88l-133 -165l-133 165z" />
    <glyph glyph-name="ncaron" unicode="&#x148;" horiz-adv-x="600" 
d="M584 0h-229l78 40v323q0 47 -30 80t-73 33q-31 0 -68 -16t-82 -43v-377l78 -40h-229l73 40v381l-78 20l156 75v-86q59 38 107 62t84 24q61 0 100.5 -41t39.5 -108v-327zM313 672l135 114l-135 -200l-136 200z" />
    <glyph glyph-name="Eng" unicode="&#x14a;" horiz-adv-x="825" 
d="M702 682v-722q0 -76 -45 -120t-122 -44q-61 0 -102.5 22.5t-41.5 54.5q0 17 11 28.5t27 11.5q15 0 27 -10t32 -33q23 -26 40.5 -39.5t40.5 -13.5q50 0 79 41t29 114v32l-517 617h-10v-568l104 -53h-233l104 53v610l-74 71l116 12l498 -594h12v530l-104 53h233z" />
    <glyph glyph-name="eng" unicode="&#x14b;" horiz-adv-x="574" 
d="M471.5 473q39.5 -41 39.5 -108v-436q0 -87 -55.5 -140.5t-160.5 -68.5q68 17 103 74.5t35 155.5v410q0 48 -31 81t-77 33q-51 0 -145 -58v-376l76 -40h-227l73 40v381l-78 20l156 75v-86q61 37 108 60.5t83 23.5q61 0 100.5 -41z" />
    <glyph glyph-name="Omacron" unicode="&#x14c;" horiz-adv-x="802" 
d="M222.5 40q-83.5 52 -133.5 140.5t-50 192.5q0 101 49.5 187.5t133 137t179.5 50.5t179.5 -50.5t133 -137t49.5 -187.5q0 -104 -50 -192.5t-133.5 -140.5t-178.5 -52t-178.5 52zM542 54.5q61 45.5 95 128t34 190.5q0 104 -34 185t-95 125.5t-141 44.5t-141 -44.5
t-95 -125.5t-34 -185q0 -108 34 -190.5t95 -128t141 -45.5t141 45.5zM547 906v-46h-291v46h291z" />
    <glyph glyph-name="omacron" unicode="&#x14d;" horiz-adv-x="573" 
d="M161 24.5q-58 36.5 -92.5 98t-34.5 133.5q0 71 34.5 130.5t92.5 94.5t126 35t126 -35t92 -94.5t34 -130.5q0 -72 -34 -133.5t-92 -98t-126 -36.5t-126 36.5zM407.5 71.5q44.5 67.5 44.5 184.5q0 113 -44 178.5t-121 65.5t-121.5 -65t-44.5 -179q0 -117 44.5 -184.5
t121.5 -67.5q76 0 120.5 67.5zM425 704v-46h-277v46h277z" />
    <glyph glyph-name="Ohungarumlaut" unicode="&#x150;" horiz-adv-x="802" 
d="M222.5 40q-83.5 52 -133.5 140.5t-50 192.5q0 101 49.5 187.5t133 137t179.5 50.5t179.5 -50.5t133 -137t49.5 -187.5q0 -104 -50 -192.5t-133.5 -140.5t-178.5 -52t-178.5 52zM542 54.5q61 45.5 95 128t34 190.5q0 104 -34 185t-95 125.5t-141 44.5t-141 -44.5
t-95 -125.5t-34 -185q0 -108 34 -190.5t95 -128t141 -45.5t141 45.5zM475 980l-183 -187l96 187h87zM596 980l-193 -187l97 187h96z" />
    <glyph glyph-name="ohungarumlaut" unicode="&#x151;" horiz-adv-x="573" 
d="M161 24.5q-58 36.5 -92.5 98t-34.5 133.5q0 71 34.5 130.5t92.5 94.5t126 35t126 -35t92 -94.5t34 -130.5q0 -72 -34 -133.5t-92 -98t-126 -36.5t-126 36.5zM407.5 71.5q44.5 67.5 44.5 184.5q0 113 -44 178.5t-121 65.5t-121.5 -65t-44.5 -179q0 -117 44.5 -184.5
t121.5 -67.5q76 0 120.5 67.5zM351 799l-160 -231l76 231h84zM470 799l-164 -231l76 231h88z" />
    <glyph glyph-name="OE" unicode="&#x152;" horiz-adv-x="1021" 
d="M989 222l-30 -204v-18h-507q-112 0 -207 50t-150.5 135.5t-55.5 187.5q0 99 55.5 182t150.5 131.5t207 48.5h471v-18l29 -179l-120 177h-283v-320l177 1l67 118v-257l-67 119h-177v-356h318zM465 685l-31 30q-88 -5 -156.5 -50t-107 -121t-38.5 -171q0 -99 38.5 -177.5
t107 -124.5t157.5 -51l30 29v636z" />
    <glyph glyph-name="oe" unicode="&#x153;" horiz-adv-x="937" 
d="M847 81.5q44 36.5 66 106.5q-19 -95 -72 -147.5t-130 -52.5q-71 0 -125.5 34.5t-82.5 95.5q-34 -60 -91.5 -95t-124.5 -35q-68 0 -126 36.5t-92.5 98t-34.5 133.5q0 71 34.5 130.5t92.5 94.5t126 35q69 0 127.5 -36t92.5 -97q30 62 83.5 97.5t120.5 35.5q56 0 99 -24
t67 -67.5t24 -99.5v-7h-340q-3 -22 -3 -46q0 -66 22.5 -117.5t63.5 -80.5t96 -29q63 0 107 36.5zM616 455.5q-40 -45.5 -53 -121.5h223q32 0 32 35q0 32 -14.5 63t-39 50t-53.5 19q-55 0 -95 -45.5zM407.5 71.5q44.5 67.5 44.5 184.5q0 113 -44 178.5t-121 65.5t-121.5 -65
t-44.5 -179q0 -117 44.5 -184.5t121.5 -67.5q76 0 120.5 67.5z" />
    <glyph glyph-name="Racute" unicode="&#x154;" horiz-adv-x="720" 
d="M195 364v-315l88 -49h-259l87 49v633l-87 53h305q76 0 136 -24t94 -65t34 -91q0 -66 -56 -117.5t-147 -67.5v-15l330 -355h-113l-325 364h-87zM195 715v-333h119q89 0 140 47.5t51 123.5q0 74 -50.5 118t-140.5 44h-119zM454 980l-196 -187l97 187h99z" />
    <glyph glyph-name="racute" unicode="&#x155;" horiz-adv-x="419" 
d="M386 500q21 -16 21 -41q0 -20 -12 -33t-31 -13q-16 0 -26.5 7t-23.5 21q-10 12 -19.5 18.5t-22.5 6.5q-39 0 -92 -67v-359l86 -40h-237l73 40v381l-78 20l156 75v-95q78 95 152 95q33 0 54 -16zM368 799l-169 -231l77 231h92z" />
    <glyph glyph-name="uni0156" unicode="&#x156;" horiz-adv-x="720" 
d="M195 364v-315l88 -49h-259l87 49v633l-87 53h305q76 0 136 -24t94 -65t34 -91q0 -66 -56 -117.5t-147 -67.5v-15l330 -355h-113l-325 364h-87zM195 715v-333h119q89 0 140 47.5t51 123.5q0 74 -50.5 118t-140.5 44h-119zM356 -51h101v-111l-94 -179h-78l162 179h-91v111z
" />
    <glyph glyph-name="uni0157" unicode="&#x157;" horiz-adv-x="419" 
d="M386 500q21 -16 21 -41q0 -20 -12 -33t-31 -13q-16 0 -26.5 7t-23.5 21q-10 12 -19.5 18.5t-22.5 6.5q-39 0 -92 -67v-359l86 -40h-237l73 40v381l-78 20l156 75v-95q78 95 152 95q33 0 54 -16zM94 -51h101v-111l-94 -179h-78l162 179h-91v111z" />
    <glyph glyph-name="Rcaron" unicode="&#x158;" horiz-adv-x="720" 
d="M195 364v-315l88 -49h-259l87 49v633l-87 53h305q76 0 136 -24t94 -65t34 -91q0 -66 -56 -117.5t-147 -67.5v-15l330 -355h-113l-325 364h-87zM195 715v-333h119q89 0 140 47.5t51 123.5q0 74 -50.5 118t-140.5 44h-119zM305 883l133 88l-133 -165l-133 165z" />
    <glyph glyph-name="rcaron" unicode="&#x159;" horiz-adv-x="419" 
d="M386 500q21 -16 21 -41q0 -20 -12 -33t-31 -13q-16 0 -26.5 7t-23.5 21q-10 12 -19.5 18.5t-22.5 6.5q-39 0 -92 -67v-359l86 -40h-237l73 40v381l-78 20l156 75v-95q78 95 152 95q33 0 54 -16zM239 672l135 114l-135 -200l-136 200z" />
    <glyph glyph-name="Sacute" unicode="&#x15a;" horiz-adv-x="584" 
d="M155.5 67q70.5 -60 158.5 -60q70 0 114.5 41t44.5 109q0 49 -26 81.5t-65 52.5t-104 45q-72 28 -115.5 51.5t-73.5 64t-30 101.5q0 55 30 99.5t83.5 70t120.5 25.5q51 0 105.5 -12.5t93.5 -33.5v-16l28 -174q-90 217 -245 217q-67 0 -110.5 -41t-43.5 -103
q0 -44 25 -74.5t61.5 -49.5t101.5 -44q74 -28 118.5 -52.5t76 -66.5t31.5 -106q0 -59 -28.5 -105.5t-81 -72.5t-122.5 -26q-59 0 -125 12.5t-109 30.5v16l-27 201q43 -121 113.5 -181zM441 980l-196 -187l97 187h99z" />
    <glyph glyph-name="sacute" unicode="&#x15b;" horiz-adv-x="444" 
d="M118.5 61.5q54.5 -56.5 127.5 -56.5q47 0 77 28.5t30 73.5q0 30 -18 50.5t-44.5 33t-71.5 28.5q-54 19 -85.5 35t-54 44.5t-22.5 73.5q0 41 22 73.5t62 51.5t91 19q37 0 77 -8.5t67 -22.5v-18l20 -132q-39 78 -82 121.5t-101 43.5q-45 0 -74.5 -26t-29.5 -66
q0 -30 17.5 -50.5t43.5 -32.5t70 -27q54 -19 87 -35.5t56 -47t23 -78.5q0 -66 -48 -107.5t-129 -41.5q-40 0 -86 7.5t-80 20.5v17l-27 160q28 -75 82.5 -131.5zM348 799l-169 -231l77 231h92z" />
    <glyph glyph-name="Scedilla" unicode="&#x15e;" horiz-adv-x="584" 
d="M508 88.5q-27 -45.5 -77 -72t-117 -28.5l-22 -50l55 -34q37 -23 37 -59q0 -40 -40.5 -71.5t-104.5 -38.5q41 12 64 32t23 45q0 14 -6.5 22t-21.5 18l-65 41l63 95q-58 1 -122 13t-105 30v16l-27 201q43 -121 113.5 -181t158.5 -60q70 0 114.5 41t44.5 109q0 49 -26 81.5
t-65 52.5t-104 45q-72 28 -115.5 51.5t-73.5 64t-30 101.5q0 55 30 99.5t83.5 70t120.5 25.5q51 0 105.5 -12.5t93.5 -33.5v-16l28 -174q-90 217 -245 217q-67 0 -110.5 -41t-43.5 -103q0 -44 25 -74.5t61.5 -49.5t101.5 -44q74 -28 118.5 -52.5t76 -66.5t31.5 -106
q0 -58 -27 -103.5z" />
    <glyph glyph-name="scedilla" unicode="&#x15f;" horiz-adv-x="444" 
d="M363 34q-43 -41 -117 -45l-22 -51l55 -34q37 -23 37 -59q0 -40 -40.5 -71.5t-104.5 -38.5q41 12 64 32t23 45q0 14 -6.5 22t-21.5 18l-65 41l63 95q-40 0 -85.5 7.5t-79.5 20.5v17l-27 160q28 -75 82.5 -131.5t127.5 -56.5q47 0 77 28.5t30 73.5q0 30 -18 50.5t-44.5 33
t-71.5 28.5q-54 19 -85.5 35t-54 44.5t-22.5 73.5q0 41 22 73.5t62 51.5t91 19q37 0 77 -8.5t67 -22.5v-18l20 -132q-39 78 -82 121.5t-101 43.5q-45 0 -74.5 -26t-29.5 -66q0 -30 17.5 -50.5t43.5 -32.5t70 -27q54 -19 87 -35.5t56 -47t23 -78.5q0 -62 -43 -103z" />
    <glyph glyph-name="Scaron" unicode="&#x160;" horiz-adv-x="584" 
d="M155.5 67q70.5 -60 158.5 -60q70 0 114.5 41t44.5 109q0 49 -26 81.5t-65 52.5t-104 45q-72 28 -115.5 51.5t-73.5 64t-30 101.5q0 55 30 99.5t83.5 70t120.5 25.5q51 0 105.5 -12.5t93.5 -33.5v-16l28 -174q-90 217 -245 217q-67 0 -110.5 -41t-43.5 -103
q0 -44 25 -74.5t61.5 -49.5t101.5 -44q74 -28 118.5 -52.5t76 -66.5t31.5 -106q0 -59 -28.5 -105.5t-81 -72.5t-122.5 -26q-59 0 -125 12.5t-109 30.5v16l-27 201q43 -121 113.5 -181zM291 883l133 88l-133 -165l-133 165z" />
    <glyph glyph-name="scaron" unicode="&#x161;" horiz-adv-x="444" 
d="M118.5 61.5q54.5 -56.5 127.5 -56.5q47 0 77 28.5t30 73.5q0 30 -18 50.5t-44.5 33t-71.5 28.5q-54 19 -85.5 35t-54 44.5t-22.5 73.5q0 41 22 73.5t62 51.5t91 19q37 0 77 -8.5t67 -22.5v-18l20 -132q-39 78 -82 121.5t-101 43.5q-45 0 -74.5 -26t-29.5 -66
q0 -30 17.5 -50.5t43.5 -32.5t70 -27q54 -19 87 -35.5t56 -47t23 -78.5q0 -66 -48 -107.5t-129 -41.5q-40 0 -86 7.5t-80 20.5v17l-27 160q28 -75 82.5 -131.5zM219 672l135 114l-135 -200l-136 200z" />
    <glyph glyph-name="uni0162" unicode="&#x162;" horiz-adv-x="738" 
d="M574 715h-163v-666l104 -49h-292l104 49v666h-163l-135 -192l33 194v18h614v-18l33 -194zM443 -155q0 -40 -40.5 -71.5t-104.5 -38.5q41 12 64 32t23 45q0 14 -6.5 22t-21.5 18l-65 41l71 107h15l-27 -62l55 -34q37 -23 37 -59z" />
    <glyph glyph-name="uni0163" unicode="&#x163;" horiz-adv-x="382" 
d="M321 19.5q-43 -29.5 -90 -31.5l-22 -50l55 -34q37 -23 37 -59q0 -40 -40.5 -71.5t-104.5 -38.5q41 12 64 32t23 45q0 14 -6.5 22t-21.5 18l-65 41l63 95q-55 4 -86.5 37t-29.5 88l12 326l-97 24l85 65v69l80 41v-143h179v-37h-179v-338q0 -38 25.5 -60.5t67.5 -22.5
q35 0 68.5 17t53.5 45q-28 -50 -71 -79.5z" />
    <glyph glyph-name="Tcaron" unicode="&#x164;" horiz-adv-x="738" 
d="M574 715h-163v-666l104 -49h-292l104 49v666h-163l-135 -192l33 194v18h614v-18l33 -194zM369 883l133 88l-133 -165l-133 165z" />
    <glyph glyph-name="tcaron" unicode="&#x165;" horiz-adv-x="380" 
d="M281 812h83l-125 -281zM338.5 54q33.5 17 53.5 45q-29 -51 -73.5 -81t-91.5 -30q-61 0 -96.5 33t-33.5 92l12 326l-97 24l85 65v69l80 41v-143h179v-37h-179v-338q0 -38 25.5 -60.5t67.5 -22.5q35 0 68.5 17z" />
    <glyph glyph-name="Tbar" unicode="&#x166;" horiz-adv-x="738" 
d="M411 715v-316h165v-19h-165v-331l104 -49h-292l104 49v331h-165v19h165v316h-163l-135 -192l33 194v18h614v-18l33 -194l-135 192h-163z" />
    <glyph glyph-name="tbar" unicode="&#x167;" horiz-adv-x="382" 
d="M338.5 54q33.5 17 53.5 45q-29 -51 -73.5 -81t-91.5 -30q-61 0 -96.5 33t-33.5 92l9 237h-83v18h83l3 71l-97 24l85 65v69l80 41v-143h179v-37h-179v-90h179v-18h-179v-230q0 -38 25.5 -60.5t67.5 -22.5q35 0 68.5 17z" />
    <glyph glyph-name="Umacron" unicode="&#x16a;" horiz-adv-x="752" 
d="M12 735h258l-88 -53l2 -442q0 -56 28.5 -101t79 -71t112.5 -26q59 0 106 25.5t74 69.5t27 99v446l-104 53h234l-104 -53v-452q0 -69 -33.5 -124t-93 -86.5t-132.5 -31.5q-79 0 -142.5 30t-100 82.5t-36.5 118.5v463zM533 906v-46h-291v46h291z" />
    <glyph glyph-name="umacron" unicode="&#x16b;" horiz-adv-x="599" 
d="M428 -15v88q-62 -40 -107 -62.5t-82 -22.5q-61 0 -101 41t-40 108v284l-76 20l155 75v-375q0 -44 30.5 -76t76.5 -32q55 0 144 54v334l-76 20l155 75v-457l73 -11zM441 704v-46h-277v46h277z" />
    <glyph glyph-name="Uring" unicode="&#x16e;" horiz-adv-x="752" 
d="M12 735h258l-88 -53l2 -442q0 -56 28.5 -101t79 -71t112.5 -26q59 0 106 25.5t74 69.5t27 99v446l-104 53h234l-104 -53v-452q0 -69 -33.5 -124t-93 -86.5t-132.5 -31.5q-79 0 -142.5 30t-100 82.5t-36.5 118.5v463zM327 827q-25 25 -25 60t25 59t61 24q35 0 59.5 -24
t24.5 -59t-24.5 -60t-59.5 -25q-36 0 -61 25zM426 846q16 16 16 40q0 23 -16 39t-40 16q-23 0 -38.5 -16t-15.5 -39q0 -24 15.5 -40t38.5 -16q24 0 40 16z" />
    <glyph glyph-name="uring" unicode="&#x16f;" horiz-adv-x="599" 
d="M428 -15v88q-62 -40 -107 -62.5t-82 -22.5q-61 0 -101 41t-40 108v284l-76 20l155 75v-375q0 -44 30.5 -76t76.5 -32q55 0 144 54v334l-76 20l155 75v-457l73 -11zM242 630q-25 25 -25 60t25 59t61 24q35 0 59.5 -24t24.5 -59t-24.5 -60t-59.5 -25q-36 0 -61 25zM342 649
q16 16 16 40t-16 40t-40 16q-23 0 -39 -16t-16 -40t16 -40t39 -16q24 0 40 16z" />
    <glyph glyph-name="Uhungarumlaut" unicode="&#x170;" horiz-adv-x="752" 
d="M12 735h258l-88 -53l2 -442q0 -56 28.5 -101t79 -71t112.5 -26q59 0 106 25.5t74 69.5t27 99v446l-104 53h234l-104 -53v-452q0 -69 -33.5 -124t-93 -86.5t-132.5 -31.5q-79 0 -142.5 30t-100 82.5t-36.5 118.5v463zM462 980l-183 -187l96 187h87zM583 980l-193 -187
l97 187h96z" />
    <glyph glyph-name="uhungarumlaut" unicode="&#x171;" horiz-adv-x="599" 
d="M428 -15v88q-62 -40 -107 -62.5t-82 -22.5q-61 0 -101 41t-40 108v284l-76 20l155 75v-375q0 -44 30.5 -76t76.5 -32q55 0 144 54v334l-76 20l155 75v-457l73 -11zM366 799l-160 -231l76 231h84zM485 799l-164 -231l76 231h88z" />
    <glyph glyph-name="Uogonek" unicode="&#x172;" horiz-adv-x="752" 
d="M637 682v-452q0 -70 -35 -126.5t-96 -86.5q-52 -34 -83.5 -78t-31.5 -83q0 -34 18.5 -54t50.5 -20q44 0 74 34q-14 -37 -42.5 -58t-66.5 -21q-40 0 -66 24.5t-26 62.5q0 42 30.5 83.5t83.5 80.5l-4 7q-29 -7 -65 -7q-79 0 -142.5 30t-100 82.5t-36.5 118.5v463l-87 53
h258l-88 -53l2 -442q0 -56 28.5 -101t79 -71t112.5 -26q59 0 106 25.5t74 69.5t27 99v446l-104 53h234z" />
    <glyph glyph-name="uogonek" unicode="&#x173;" horiz-adv-x="599" 
d="M513 -184q-13 -36 -42 -57.5t-67 -21.5q-40 0 -66 24.5t-26 62.5q0 42 31 84t85 81v84q-62 -40 -107 -62.5t-82 -22.5q-61 0 -101 41t-40 108v284l-76 20l155 75v-375q0 -44 30.5 -76t76.5 -32q55 0 144 54v334l-76 20l155 75v-457l73 -11l-123 -51q-40 -33 -63.5 -70.5
t-23.5 -70.5q0 -34 18.5 -54t51.5 -20q43 0 73 34z" />
    <glyph glyph-name="Wcircumflex" unicode="&#x174;" horiz-adv-x="1153" 
d="M1045 683l-265 -710l-198 473l-176 -473l-298 706l-95 56h303l-114 -55l228 -549h13l126 347l-85 203l-101 54h312l-116 -55l226 -549h13l201 551l-114 53h235zM577 975l135 -183l-135 100l-136 -100z" />
    <glyph glyph-name="wcircumflex" unicode="&#x175;" horiz-adv-x="839" 
d="M750 460l-175 -487l-149 352l-131 -352l-212 489l-77 43h246l-84 -43l150 -355h10l88 242l-48 112l-80 44h258l-92 -45l143 -353h9l123 354l-94 44h199zM420 786l135 -219l-135 130l-136 -130z" />
    <glyph glyph-name="Ycircumflex" unicode="&#x176;" horiz-adv-x="735" 
d="M418 311v-262l101 -49h-285l100 49v253l-227 379l-93 54h304l-115 -55l198 -334h14l188 336l-113 53h233l-94 -53zM385 975l135 -183l-135 100l-136 -100z" />
    <glyph glyph-name="ycircumflex" unicode="&#x177;" horiz-adv-x="587" 
d="M499 461l-191 -488v1l-81 -218h-104l175 238l-214 467l-78 44h259l-94 -43l158 -355h13l135 355l-96 43h201zM307 786l135 -219l-135 130l-136 -130z" />
    <glyph glyph-name="Ydieresis" unicode="&#x178;" horiz-adv-x="735" 
d="M418 311v-262l101 -49h-285l100 49v253l-227 379l-93 54h304l-115 -55l198 -334h14l188 336l-113 53h233l-94 -53zM527 939v-100h-94v100h94zM337 938v-99h-95v99h95z" />
    <glyph glyph-name="Zacute" unicode="&#x179;" horiz-adv-x="622" 
d="M471 20l126 208l-28 -210v-18h-540l442 715h-304l-126 -182l30 184v18h507l-442 -715h335zM461 980l-196 -187l97 187h99z" />
    <glyph glyph-name="zacute" unicode="&#x17a;" horiz-adv-x="481" 
d="M356 16l94 165l-20 -163v-18h-398l313 489h-204l-90 -153l16 151v18h376l-313 -489h226zM373 799l-169 -231l77 231h92z" />
    <glyph glyph-name="Zdotaccent" unicode="&#x17b;" horiz-adv-x="622" 
d="M471 20l126 208l-28 -210v-18h-540l442 715h-304l-126 -182l30 184v18h507l-442 -715h335zM363 948v-115h-107v115h107z" />
    <glyph glyph-name="zdotaccent" unicode="&#x17c;" horiz-adv-x="481" 
d="M356 16l94 165l-20 -163v-18h-398l313 489h-204l-90 -153l16 151v18h376l-313 -489h226zM298 753v-115h-107v115h107z" />
    <glyph glyph-name="Zcaron" unicode="&#x17d;" horiz-adv-x="622" 
d="M471 20l126 208l-28 -210v-18h-540l442 715h-304l-126 -182l30 184v18h507l-442 -715h335zM312 883l133 88l-133 -165l-133 165z" />
    <glyph glyph-name="zcaron" unicode="&#x17e;" horiz-adv-x="481" 
d="M356 16l94 165l-20 -163v-18h-398l313 489h-204l-90 -153l16 151v18h376l-313 -489h226zM244 672l135 114l-135 -200l-136 200z" />
    <glyph glyph-name="AEacute" unicode="&#x1fc;" horiz-adv-x="1059" 
d="M906 20l122 203l-30 -205v-18h-582l88 53v210h-249l-121 -216l113 -47h-235l96 48l374 662v25h480v-18l29 -179l-121 177h-282v-320l177 1l67 118v-257l-67 119h-177v-356h318zM267 283h237v405h-10zM863 980l-196 -187l97 187h99z" />
    <glyph glyph-name="aeacute" unicode="&#x1fd;" horiz-adv-x="846" 
d="M755.5 81.5q44.5 36.5 66.5 106.5q-19 -95 -72 -147.5t-130 -52.5q-82 0 -141 45t-81 123l-18 -15q-44 -49 -75.5 -79.5t-70 -52t-79.5 -21.5q-48 0 -82 28t-34 77q0 43 43 80.5t103 66t154 65.5q4 2 9.5 3.5t10.5 4.5v48q0 54 -33.5 90t-84.5 36q-35 0 -72 -21
q-18 -11 -26.5 -30t-18.5 -52t-19.5 -49t-30.5 -16q-16 0 -26 11.5t-10 28.5q0 34 45.5 70.5t105.5 61.5t96 25q52 0 92 -28.5t53 -77.5q32 50 81 78t108 28q56 0 99 -24t67 -67.5t24 -99.5v-7h-340q-3 -22 -3 -46q0 -66 22.5 -117.5t64 -80.5t96.5 -29q62 0 106.5 36.5z
M524 455q-40 -46 -53 -121h223q33 0 33 35q0 32 -14.5 63t-39.5 50t-54 19q-55 0 -95 -46zM279.5 60q36.5 26 79.5 74v166q-116 -47 -177.5 -89.5t-61.5 -98.5q0 -36 24.5 -57t60.5 -21q38 0 74.5 26zM575 799l-169 -231l77 231h92z" />
    <glyph glyph-name="uni0218" unicode="&#x218;" horiz-adv-x="584" 
d="M155.5 67q70.5 -60 158.5 -60q70 0 114.5 41t44.5 109q0 49 -26 81.5t-65 52.5t-104 45q-72 28 -115.5 51.5t-73.5 64t-30 101.5q0 55 30 99.5t83.5 70t120.5 25.5q51 0 105.5 -12.5t93.5 -33.5v-16l28 -174q-90 217 -245 217q-67 0 -110.5 -41t-43.5 -103
q0 -44 25 -74.5t61.5 -49.5t101.5 -44q74 -28 118.5 -52.5t76 -66.5t31.5 -106q0 -59 -28.5 -105.5t-81 -72.5t-122.5 -26q-59 0 -125 12.5t-109 30.5v16l-27 201q43 -121 113.5 -181zM257 -51h101v-111l-94 -179h-78l162 179h-91v111z" />
    <glyph glyph-name="uni0219" unicode="&#x219;" horiz-adv-x="444" 
d="M118.5 61.5q54.5 -56.5 127.5 -56.5q47 0 77 28.5t30 73.5q0 30 -18 50.5t-44.5 33t-71.5 28.5q-54 19 -85.5 35t-54 44.5t-22.5 73.5q0 41 22 73.5t62 51.5t91 19q37 0 77 -8.5t67 -22.5v-18l20 -132q-39 78 -82 121.5t-101 43.5q-45 0 -74.5 -26t-29.5 -66
q0 -30 17.5 -50.5t43.5 -32.5t70 -27q54 -19 87 -35.5t56 -47t23 -78.5q0 -66 -48 -107.5t-129 -41.5q-40 0 -86 7.5t-80 20.5v17l-27 160q28 -75 82.5 -131.5zM189 -51h101v-111l-94 -179h-78l162 179h-91v111z" />
    <glyph glyph-name="uni021A" unicode="&#x21a;" horiz-adv-x="738" 
d="M574 715h-163v-666l104 -49h-292l104 49v666h-163l-135 -192l33 194v18h614v-18l33 -194zM316 -51h101v-111l-94 -179h-78l162 179h-91v111z" />
    <glyph glyph-name="uni021B" unicode="&#x21b;" horiz-adv-x="382" 
d="M338.5 54q33.5 17 53.5 45q-29 -51 -73.5 -81t-91.5 -30q-61 0 -96.5 33t-33.5 92l12 326l-97 24l85 65v69l80 41v-143h179v-37h-179v-338q0 -38 25.5 -60.5t67.5 -22.5q35 0 68.5 17zM174 -51h101v-111l-94 -179h-78l162 179h-91v111z" />
    <glyph glyph-name="circumflex" unicode="&#x2c6;" horiz-adv-x="408" 
d="M204 786l135 -219l-135 130l-136 -130z" />
    <glyph glyph-name="caron" unicode="&#x2c7;" horiz-adv-x="408" 
d="M204 672l135 114l-135 -200l-136 200z" />
    <glyph glyph-name="breve" unicode="&#x2d8;" horiz-adv-x="408" 
d="M118.5 697.5q36.5 -30.5 86.5 -30.5q49 0 85 30.5t44 83.5q0 -78 -36 -125.5t-93 -47.5t-93.5 47t-36.5 126q7 -53 43.5 -83.5z" />
    <glyph glyph-name="dotaccent" unicode="&#x2d9;" horiz-adv-x="408" 
d="M257 753v-115h-107v115h107z" />
    <glyph glyph-name="ring" unicode="&#x2da;" horiz-adv-x="408" 
d="M144 630q-25 25 -25 60t25 59t61 24q35 0 59.5 -24t24.5 -59t-24.5 -60t-59.5 -25q-36 0 -61 25zM244 649q16 16 16 40t-16 40t-40 16q-23 0 -39 -16t-16 -40t16 -40t39 -16q24 0 40 16z" />
    <glyph glyph-name="ogonek" unicode="&#x2db;" horiz-adv-x="408" 
d="M274 -241.5q-29 -21.5 -67 -21.5q-40 0 -66 24.5t-26 62.5q0 50 44 100.5t117 93.5l15 1q-53 -34 -85.5 -78.5t-32.5 -84.5q0 -34 18.5 -54t51.5 -20q43 0 73 34q-13 -36 -42 -57.5z" />
    <glyph glyph-name="tilde" unicode="&#x2dc;" horiz-adv-x="408" 
d="M97.5 706.5q27.5 31.5 54.5 31.5q16 0 60 -16q18 -7 36.5 -12.5t31.5 -5.5q24 0 46.5 19.5t35.5 50.5q-12 -60 -37.5 -95.5t-60.5 -35.5q-20 0 -63 17q-19 7 -37.5 12.5t-31.5 5.5q-22 0 -44.5 -16.5t-42.5 -45.5q25 59 52.5 90.5z" />
    <glyph glyph-name="hungarumlaut" unicode="&#x2dd;" horiz-adv-x="408" 
d="M237 799l-160 -231l76 231h84zM356 799l-164 -231l76 231h88z" />
    <glyph glyph-name="gravecomb" unicode="&#x300;" horiz-adv-x="0" 
d="M-136 568l-168 231h92z" />
    <glyph glyph-name="acutecomb" unicode="&#x301;" horiz-adv-x="0" 
d="M-107 799l-169 -231l77 231h92z" />
    <glyph glyph-name="uni0302" unicode="&#x302;" horiz-adv-x="0" 
d="M-204 786l135 -219l-135 130l-136 -130z" />
    <glyph glyph-name="tildecomb" unicode="&#x303;" horiz-adv-x="0" 
d="M-310.5 706.5q27.5 31.5 54.5 31.5q16 0 60 -16q18 -7 36.5 -12.5t31.5 -5.5q24 0 46.5 19.5t35.5 50.5q-12 -60 -37.5 -95.5t-60.5 -35.5q-20 0 -63 17q-19 7 -37.5 12.5t-31.5 5.5q-22 0 -44.5 -16.5t-42.5 -45.5q25 59 52.5 90.5z" />
    <glyph glyph-name="uni0304" unicode="&#x304;" horiz-adv-x="0" 
d="M-66 704v-46h-277v46h277z" />
    <glyph glyph-name="uni0306" unicode="&#x306;" horiz-adv-x="0" 
d="M-289.5 697.5q36.5 -30.5 86.5 -30.5q49 0 85 30.5t44 83.5q0 -78 -36 -125.5t-93 -47.5t-93.5 47t-36.5 126q7 -53 43.5 -83.5z" />
    <glyph glyph-name="uni0307" unicode="&#x307;" horiz-adv-x="0" 
d="M-151 753v-115h-107v115h107z" />
    <glyph glyph-name="uni0308" unicode="&#x308;" horiz-adv-x="0" 
d="M-252 741v-100h-95v100h95zM-62 741v-100h-94v100h94z" />
    <glyph glyph-name="uni030A" unicode="&#x30a;" horiz-adv-x="0" 
d="M-264 630q-25 25 -25 60t25 59t61 24q35 0 59.5 -24t24.5 -59t-24.5 -60t-59.5 -25q-36 0 -61 25zM-164 649q16 16 16 40t-16 40t-40 16q-23 0 -39 -16t-16 -40t16 -40t39 -16q24 0 40 16z" />
    <glyph glyph-name="uni030B" unicode="&#x30b;" horiz-adv-x="0" 
d="M-171 799l-160 -231l76 231h84zM-52 799l-164 -231l76 231h88z" />
    <glyph glyph-name="uni030C" unicode="&#x30c;" horiz-adv-x="0" 
d="M-204 672l135 114l-135 -200l-136 200z" />
    <glyph glyph-name="uni0312" unicode="&#x312;" horiz-adv-x="0" 
d="M-96 866l-162 -179h97v-110h-108v110l99 179h74z" />
    <glyph glyph-name="uni0326" unicode="&#x326;" horiz-adv-x="0" 
d="M-252 -51h101v-111l-94 -179h-78l162 179h-91v111z" />
    <glyph glyph-name="uni0327" unicode="&#x327;" horiz-adv-x="0" 
d="M-131 -155q0 -40 -40.5 -71.5t-104.5 -38.5q41 12 64 32t23 45q0 14 -6.5 22t-21.5 18l-65 41l71 107h15l-27 -62l55 -34q37 -23 37 -59z" />
    <glyph glyph-name="uni0328" unicode="&#x328;" horiz-adv-x="0" 
d="M-134 -241.5q-29 -21.5 -67 -21.5q-40 0 -66 24.5t-26 62.5q0 50 44 100.5t117 93.5l15 1q-53 -34 -85.5 -78.5t-32.5 -84.5q0 -34 18.5 -54t51.5 -20q43 0 73 34q-13 -36 -42 -57.5z" />
    <glyph glyph-name="Wgrave" unicode="&#x1e80;" horiz-adv-x="1153" 
d="M1045 683l-265 -710l-198 473l-176 -473l-298 706l-95 56h303l-114 -55l228 -549h13l126 347l-85 203l-101 54h312l-116 -55l226 -549h13l201 551l-114 53h235zM620 793l-196 187h99z" />
    <glyph glyph-name="wgrave" unicode="&#x1e81;" horiz-adv-x="839" 
d="M750 460l-175 -487l-149 352l-131 -352l-212 489l-77 43h246l-84 -43l150 -355h10l88 242l-48 112l-80 44h258l-92 -45l143 -353h9l123 354l-94 44h199zM457 568l-168 231h92z" />
    <glyph glyph-name="Wacute" unicode="&#x1e82;" horiz-adv-x="1153" 
d="M1045 683l-265 -710l-198 473l-176 -473l-298 706l-95 56h303l-114 -55l228 -549h13l126 347l-85 203l-101 54h312l-116 -55l226 -549h13l201 551l-114 53h235zM727 980l-196 -187l97 187h99z" />
    <glyph glyph-name="wacute" unicode="&#x1e83;" horiz-adv-x="839" 
d="M750 460l-175 -487l-149 352l-131 -352l-212 489l-77 43h246l-84 -43l150 -355h10l88 242l-48 112l-80 44h258l-92 -45l143 -353h9l123 354l-94 44h199zM549 799l-169 -231l77 231h92z" />
    <glyph glyph-name="Wdieresis" unicode="&#x1e84;" horiz-adv-x="1153" 
d="M1045 683l-265 -710l-198 473l-176 -473l-298 706l-95 56h303l-114 -55l228 -549h13l126 347l-85 203l-101 54h312l-116 -55l226 -549h13l201 551l-114 53h235zM719 939v-100h-94v100h94zM529 938v-99h-95v99h95z" />
    <glyph glyph-name="wdieresis" unicode="&#x1e85;" horiz-adv-x="839" 
d="M750 460l-175 -487l-149 352l-131 -352l-212 489l-77 43h246l-84 -43l150 -355h10l88 242l-48 112l-80 44h258l-92 -45l143 -353h9l123 354l-94 44h199zM372 741v-100h-95v100h95zM562 741v-100h-94v100h94z" />
    <glyph glyph-name="uni1E9E" unicode="&#x1e9e;" horiz-adv-x="785" 
d="M623 354.5q60 -26.5 92.5 -71.5t32.5 -103q0 -55 -31.5 -99t-89 -68.5t-132.5 -24.5q-47 0 -99 9.5t-89 22.5v18l-27 172q29 -95 83.5 -150.5t137.5 -55.5q44 0 80 22.5t56.5 63t20.5 90.5q0 59 -29 103.5t-82 69t-124 24.5h-38l208 249q-36 46 -90 75t-107 29
q-92 0 -147 -57t-55 -167v-506h-170l87 49v468q0 69 37.5 121.5t105 81t153.5 28.5q69 0 135.5 -22.5t109.5 -60.5l60 -16l-39 -38l-190 -227q80 -3 140 -29.5z" />
    <glyph glyph-name="Ygrave" unicode="&#x1ef2;" horiz-adv-x="735" 
d="M418 311v-262l101 -49h-285l100 49v253l-227 379l-93 54h304l-115 -55l198 -334h14l188 336l-113 53h233l-94 -53zM428 793l-196 187h99z" />
    <glyph glyph-name="ygrave" unicode="&#x1ef3;" horiz-adv-x="587" 
d="M499 461l-191 -488v1l-81 -218h-104l175 238l-214 467l-78 44h259l-94 -43l158 -355h13l135 355l-96 43h201zM345 568l-168 231h92z" />
    <glyph glyph-name="uni2002" unicode="&#x2002;" horiz-adv-x="500" 
 />
    <glyph glyph-name="uni2003" unicode="&#x2003;" 
 />
    <glyph glyph-name="uni2003" unicode="&#x3000;" 
 />
    <glyph glyph-name="endash" unicode="&#x2013;" horiz-adv-x="564" 
d="M493 320v-23h-422v23h422z" />
    <glyph glyph-name="emdash" unicode="&#x2014;" horiz-adv-x="1813" 
d="M1742 320v-23h-1671v23h1671z" />
    <glyph glyph-name="uni2015" unicode="&#x2015;" horiz-adv-x="1813" 
d="M1742 320v-23h-1671v23h1671z" />
    <glyph glyph-name="quoteleft" unicode="&#x2018;" horiz-adv-x="212" 
d="M202 768l-162 -179h97v-111h-108v111l100 179h73z" />
    <glyph glyph-name="quoteright" unicode="&#x2019;" horiz-adv-x="226" 
d="M90 764h107v-110l-99 -179h-73l162 179h-97v110z" />
    <glyph glyph-name="quotesinglbase" unicode="&#x201a;" horiz-adv-x="202" 
d="M46 107h107v-110l-99 -179h-73l162 179h-97v110z" />
    <glyph glyph-name="quotedblleft" unicode="&#x201c;" horiz-adv-x="362" 
d="M202 768l-162 -179h97v-111h-108v111l100 179h73zM352 768l-162 -179h98v-111h-108v111l99 179h73z" />
    <glyph glyph-name="quotedblright" unicode="&#x201d;" horiz-adv-x="377" 
d="M197 763v-110l-99 -179h-74l162 179h-97v110h108zM240 763h107v-110l-99 -179h-73l162 179h-97v110z" />
    <glyph glyph-name="quotedblbase" unicode="&#x201e;" horiz-adv-x="353" 
d="M46 107h107v-110l-99 -179h-73l162 179h-97v110zM196 107h107v-110l-99 -179h-73l162 179h-97v110z" />
    <glyph glyph-name="dagger" unicode="&#x2020;" horiz-adv-x="586" 
d="M456 601v-22h-150v-374h-25v374h-151v22h151v134h25v-134h150z" />
    <glyph glyph-name="daggerdbl" unicode="&#x2021;" horiz-adv-x="586" 
d="M456 579h-150v-208h150v-22h-150v-144h-25v144h-151v22h151v208h-151v22h151v134h25v-134h150v-22z" />
    <glyph glyph-name="bullet" unicode="&#x2022;" horiz-adv-x="236" 
d="M188 221h-139v150h139v-150z" />
    <glyph glyph-name="ellipsis" unicode="&#x2026;" horiz-adv-x="582" 
d="M344 107v-115h-107v115h107zM533 107v-115h-107v115h107zM156 107v-115h-107v115h107z" />
    <glyph glyph-name="perthousand" unicode="&#x2030;" horiz-adv-x="1034" 
d="M154.5 457q-26.5 21 -41.5 57.5t-15 78.5t15 78t41.5 56.5t57.5 20.5q32 0 58.5 -20.5t41.5 -56.5t15 -78q0 -43 -15 -79t-41.5 -57t-58.5 -21q-31 0 -57.5 21zM639 735l-497 -735h-28l497 735h28zM263 490q20 40 20 103t-20 102.5t-51 39.5t-51 -39.5t-20 -102.5
t20 -103t51 -40t51 40zM495 9.5q-27 21.5 -42.5 57.5t-15.5 78t15.5 77.5t42 56.5t58.5 21q31 0 57.5 -20.5t41.5 -56.5t15 -78t-15 -78.5t-41.5 -57.5t-57.5 -21t-58 21.5zM763.5 9q-26.5 21 -42 57.5t-15.5 78.5t15.5 77.5t42 56.5t57.5 21q32 0 58.5 -20.5t41.5 -56.5
t15 -78q0 -43 -15 -79t-41.5 -57t-58.5 -21q-31 0 -57.5 21zM603.5 42.5q20.5 40.5 20.5 102.5t-20.5 102t-50.5 40q-31 0 -51 -39.5t-20 -102.5t20 -103t51 -40q30 0 50.5 40.5zM872 42q20 40 20 103t-20 102.5t-51 39.5t-51.5 -40t-20.5 -102q0 -63 20.5 -103t51.5 -40
t51 40z" />
    <glyph glyph-name="guilsinglleft" unicode="&#x2039;" horiz-adv-x="233" 
d="M211 453l-93 -186l93 -186l-189 186z" />
    <glyph glyph-name="guilsinglright" unicode="&#x203a;" horiz-adv-x="233" 
d="M211 267l-189 -186l93 186l-93 186z" />
    <glyph glyph-name="uni203B" unicode="&#x203b;" 
d="M798 664l-282 -297l281 -296h-31l-266 280l-266 -280h-31l282 296l-283 297h31l267 -281l267 281h31zM543 649v-95h-84v95h84zM223 417h84v-95h-84v95zM776 320h-84v95h84v-95zM457 85v95h84v-95h-84z" />
    <glyph glyph-name="fraction" unicode="&#x2044;" horiz-adv-x="351" 
d="M337 735l-297 -735h-26l301 735h22z" />
    <glyph glyph-name="uni2070" unicode="&#x2070;" horiz-adv-x="296" 
d="M43.5 673.5q16.5 33.5 44 53.5t60.5 20t60.5 -20t44 -53.5t16.5 -72.5q0 -40 -16.5 -74t-44 -54.5t-60.5 -20.5t-60.5 20.5t-44 54.5t-16.5 74q0 39 16.5 72.5zM98 501.5q19 -37.5 50 -37.5q30 0 49 37.5t19 99.5q0 60 -19 97t-49 37q-31 0 -50 -36.5t-19 -97.5
q0 -62 19 -99.5z" />
    <glyph glyph-name="uni2074" unicode="&#x2074;" horiz-adv-x="275" 
d="M249 536h-44v-54l37 -25h-133l51 25v54h-150l195 227v-195h44v-32zM53 568h107v122z" />
    <glyph glyph-name="uni2075" unicode="&#x2075;" horiz-adv-x="282" 
d="M225 612.5q27 -24.5 27 -64.5q0 -42 -29.5 -69t-75.5 -27q-21 0 -48.5 11t-47 28t-19.5 33q0 9 6 16t15 7q13 0 19 -9.5t10 -27.5q6 -26 16 -33q13 -7 34 -7q32 0 51 22t19 55q0 31 -18.5 50.5t-49.5 19.5q-39 0 -75 -28l15 154h158v-42h-148l-10 -91q16 12 37.5 19.5
t42.5 7.5q44 0 71 -24.5z" />
    <glyph glyph-name="uni2076" unicode="&#x2076;" horiz-adv-x="268" 
d="M67 484.5q-33 31.5 -33 81.5q0 43 26.5 83t77.5 70t122 44q-81 -28 -127.5 -81t-46.5 -117q0 -43 19.5 -70.5t48.5 -27.5q25 0 40.5 21.5t15.5 53.5q0 34 -17 54.5t-47 20.5q-18 0 -43 -10q35 26 66 26q40 0 65.5 -24t25.5 -62q0 -42 -29.5 -68t-78.5 -26q-52 0 -85 31.5
z" />
    <glyph glyph-name="uni2077" unicode="&#x2077;" horiz-adv-x="236" 
d="M24 743h210l-127 -286h-58l154 244h-179v42z" />
    <glyph glyph-name="uni2078" unicode="&#x2078;" horiz-adv-x="281" 
d="M228.5 572.5q21.5 -17.5 21.5 -45.5q0 -32 -30 -53.5t-76 -21.5q-50 0 -81 19t-31 50q0 22 20 41.5t58 35.5q-32 18 -49.5 36.5t-17.5 44.5q0 29 29 48.5t72 19.5q42 0 69 -17t27 -44q0 -22 -20 -39.5t-56 -33.5q43 -23 64.5 -40.5zM105.5 650.5q17.5 -16.5 50.5 -33.5
q18 11 29 29t11 37q0 22 -14.5 36.5t-38.5 14.5q-23 0 -39 -13t-16 -31q0 -23 17.5 -39.5zM187.5 478.5q16.5 13.5 16.5 36.5q0 24 -20 39.5t-65 38.5q-20 -13 -31 -30.5t-11 -37.5q0 -26 18.5 -43t48.5 -17q27 0 43.5 13.5z" />
    <glyph glyph-name="uni2079" unicode="&#x2079;" horiz-adv-x="271" 
d="M143 513.5q43 53.5 43 123.5q0 42 -18.5 69t-44.5 27t-41.5 -21.5t-15.5 -54.5t18 -53.5t49 -20.5q19 0 36 7q-12 -12 -28 -19t-32 -7q-41 1 -66 25.5t-25 64.5q0 41 29 67t77 26q50 0 81.5 -31.5t31.5 -81.5q0 -68 -54.5 -121t-164.5 -77q82 24 125 77.5z" />
    <glyph glyph-name="uni2080" unicode="&#x2080;" horiz-adv-x="296" 
d="M43.5 116.5q16.5 33.5 44 53.5t60.5 20t60.5 -20t44 -53.5t16.5 -72.5q0 -40 -16.5 -74t-44 -54.5t-60.5 -20.5t-60.5 20.5t-44 54.5t-16.5 74q0 39 16.5 72.5zM98 -55.5q19 -37.5 50 -37.5q30 0 49 37.5t19 99.5q0 60 -19 97t-49 37q-31 0 -50 -36.5t-19 -97.5
q0 -62 19 -99.5z" />
    <glyph glyph-name="uni2081" unicode="&#x2081;" horiz-adv-x="210" 
d="M133 -70l58 -30h-163l58 30v208l-61 15l108 37v-260z" />
    <glyph glyph-name="uni2082" unicode="&#x2082;" horiz-adv-x="243" 
d="M228 -58v-42h-212q83 75 115 120t32 90q0 26 -13.5 43t-35.5 17q-19 0 -34 -12q-9 -7 -13 -16t-8 -25q-5 -18 -10 -26.5t-17 -8.5q-8 0 -14 6t-6 15q0 17 22.5 37.5t53 35t50.5 14.5q32 0 53.5 -21t21.5 -52q0 -36 -29.5 -71t-106.5 -104h151z" />
    <glyph glyph-name="uni2083" unicode="&#x2083;" horiz-adv-x="281" 
d="M101.5 -94q-27.5 11 -47.5 28t-20 33q0 9 6.5 16t15.5 7q14 0 19.5 -9t10.5 -28q3 -13 6 -21t9 -12q13 -7 33 -7q31 0 49 18t18 48q0 26 -18 42t-48 16q-23 0 -46 -9q4 2 32 18.5t45 38.5t17 44q0 19 -11.5 30.5t-29.5 11.5t-30 -9q-13 -10 -19 -39q-5 -18 -10 -26
t-17 -8q-9 0 -14.5 6t-5.5 15q0 17 20.5 35.5t49 31.5t48.5 13q30 0 48 -14.5t18 -37.5q0 -27 -23.5 -46.5t-67.5 -41.5q12 2 25 2q39 0 63 -20t24 -53q0 -38 -28.5 -61t-72.5 -23q-21 0 -48.5 11z" />
    <glyph glyph-name="uni2084" unicode="&#x2084;" horiz-adv-x="275" 
d="M249 -21h-44v-54l37 -25h-133l51 25v54h-150l195 227v-195h44v-32zM53 11h107v122z" />
    <glyph glyph-name="uni2085" unicode="&#x2085;" horiz-adv-x="282" 
d="M225 55.5q27 -24.5 27 -64.5q0 -42 -29.5 -69t-75.5 -27q-21 0 -48.5 11t-47 28t-19.5 33q0 9 6 16t15 7q13 0 19 -9.5t10 -27.5q6 -26 16 -33q13 -7 34 -7q32 0 51 22t19 55q0 31 -18.5 50.5t-49.5 19.5q-39 0 -75 -28l15 154h158v-42h-148l-10 -91q16 12 37.5 19.5
t42.5 7.5q44 0 71 -24.5z" />
    <glyph glyph-name="uni2086" unicode="&#x2086;" horiz-adv-x="268" 
d="M67 -73.5q-33 31.5 -33 81.5q0 43 26.5 83t77.5 70t122 44q-81 -28 -127.5 -81t-46.5 -117q0 -43 19.5 -70.5t48.5 -27.5q25 0 40.5 21.5t15.5 53.5q0 34 -17 54.5t-47 20.5q-18 0 -43 -10q35 26 66 26q40 0 65.5 -24t25.5 -62q0 -42 -29.5 -68t-78.5 -26q-52 0 -85 31.5
z" />
    <glyph glyph-name="uni2087" unicode="&#x2087;" horiz-adv-x="236" 
d="M24 186h210l-127 -286h-58l154 244h-179v42z" />
    <glyph glyph-name="uni2088" unicode="&#x2088;" horiz-adv-x="281" 
d="M228.5 15.5q21.5 -17.5 21.5 -45.5q0 -32 -30 -53.5t-76 -21.5q-50 0 -81 19t-31 50q0 22 20 41.5t58 35.5q-32 18 -49.5 36.5t-17.5 44.5q0 29 29 48.5t72 19.5q42 0 69 -17t27 -44q0 -22 -20 -39.5t-56 -33.5q43 -23 64.5 -40.5zM105.5 93.5q17.5 -16.5 50.5 -33.5
q18 11 29 29t11 37q0 22 -14.5 36.5t-38.5 14.5q-23 0 -39 -13t-16 -31q0 -23 17.5 -39.5zM187.5 -78.5q16.5 13.5 16.5 36.5q0 24 -20 39.5t-65 38.5q-20 -13 -31 -30.5t-11 -37.5q0 -26 18.5 -43t48.5 -17q27 0 43.5 13.5z" />
    <glyph glyph-name="uni2089" unicode="&#x2089;" horiz-adv-x="271" 
d="M143 -43.5q43 53.5 43 123.5q0 42 -18.5 69t-44.5 27t-41.5 -21.5t-15.5 -54.5t18 -53.5t49 -20.5q19 0 36 7q-12 -12 -28 -19t-32 -7q-41 1 -66 25.5t-25 64.5q0 41 29 67t77 26q50 0 81.5 -31.5t31.5 -81.5q0 -68 -54.5 -121t-164.5 -77q82 24 125 77.5z" />
    <glyph glyph-name="Euro" unicode="&#x20ac;" horiz-adv-x="767" 
d="M625.5 64q65.5 56 115.5 176l-33 -188v-16q-46 -23 -109 -36t-128 -12q-96 0 -180.5 47t-137.5 128.5t-61 178.5h-63v18h62v13q0 14 2 38h-64v18h66q14 89 67 162t133 115t171 42q65 1 127.5 -11.5t108.5 -35.5v-16l27 -166q-46 105 -110.5 157.5t-152.5 51.5
q-75 0 -135.5 -37.5t-97.5 -105.5t-46 -156h498v-18h-500q-1 -12 -1 -38v-13h501v-18h-500q5 -99 41.5 -174.5t99.5 -117t145 -41.5q89 -1 154.5 55z" />
    <glyph glyph-name="uni20BF" unicode="&#x20bf;" horiz-adv-x="692" 
d="M621 98.5q-34 -43.5 -95 -69.5t-137 -29v-150h-22v150h-50v-150h-23v150h-270l87 53v629l-87 53h270v63h23v-63h50v63h22v-63q67 -1 122 -24.5t87 -62.5t32 -86q0 -63 -50.5 -108.5t-134.5 -59.5v-11q94 -18 151.5 -68t58.5 -118q0 -55 -34 -98.5zM294 715h-99v-319h99
v319zM367 715h-50v-319h50v319zM500.5 669q-41.5 42 -111.5 46v-318q68 5 110.5 50t42.5 115q0 65 -41.5 107zM195 20h99v357h-99v-357zM363 20h4v357h-3h-47v-357h46zM519.5 78.5q46.5 50.5 46.5 119.5t-46.5 120t-130.5 58v-355q84 7 130.5 57.5z" />
    <glyph glyph-name="uni2116" unicode="&#x2116;" horiz-adv-x="1119" 
d="M806 735l-104 -53v-708l-542 647h-10v-568l104 -53h-233l104 53v610l-74 71l116 12l498 -594h12v530l-104 53h233zM825.5 675.5q19.5 33.5 52.5 53t72 19.5q38 0 71 -19.5t52.5 -53t19.5 -72.5q0 -41 -19.5 -75.5t-52.5 -55t-71 -20.5q-39 0 -72 20.5t-52.5 55
t-19.5 75.5q0 39 19.5 72.5zM887 501q23 -37 63 -37q39 0 61.5 37t22.5 102q0 62 -22.5 98t-61.5 36q-40 0 -63 -36t-23 -98q0 -65 23 -102zM1003 390v-115h-107v115h107z" />
    <glyph glyph-name="trademark" unicode="&#x2122;" horiz-adv-x="685" 
d="M262 730v-10l11 -80l-56 79h-53v-213l41 -28h-125l41 28v213h-53l-56 -79l11 80v10h239zM615 506l41 -28h-125l41 28v188h-4l-101 -224l-115 224h-7v-188l41 -28h-96l41 28v201l-37 23h85l99 -192h5l85 192h84l-37 -28v-196z" />
    <glyph glyph-name="arrowleft" unicode="&#x2190;" horiz-adv-x="848" 
d="M814 359v-23h-646l69 -183l-188 194l188 194l-68 -182h645z" />
    <glyph glyph-name="arrowup" unicode="&#x2191;" horiz-adv-x="510" 
d="M449 560l-182 69v-629h-23v630l-183 -70l194 188z" />
    <glyph glyph-name="arrowright" unicode="&#x2192;" horiz-adv-x="848" 
d="M799 347l-188 -194l70 183h-647v23h646l-69 182z" />
    <glyph glyph-name="arrowdown" unicode="&#x2193;" horiz-adv-x="510" 
d="M266 100l183 70l-194 -188l-194 188l182 -69v629h23v-630z" />
    <glyph glyph-name="arrowboth" unicode="&#x2194;" horiz-adv-x="868" 
d="M819 347l-189 -194l70 183h-532l69 -183l-188 194l188 194l-68 -182h530l-69 182z" />
    <glyph glyph-name="arrowupdn" unicode="&#x2195;" horiz-adv-x="510" 
d="M267 629v-521l182 68l-194 -188l-194 188l183 -69v523l-183 -70l194 188l194 -188z" />
    <glyph glyph-name="uni2196" unicode="&#x2196;" horiz-adv-x="703" 
d="M669 112l-16 -17l-509 443l-68 -183l-14 270l269 23l-172 -93z" />
    <glyph glyph-name="uni2197" unicode="&#x2197;" horiz-adv-x="703" 
d="M642 625l-15 -270l-68 183l-509 -443l-16 17l510 443l-172 93z" />
    <glyph glyph-name="uni2198" unicode="&#x2198;" horiz-adv-x="703" 
d="M642 105l-270 -23l172 93l-510 443l16 17l509 -443l68 183z" />
    <glyph glyph-name="uni2199" unicode="&#x2199;" horiz-adv-x="703" 
d="M669 618l-510 -443l172 -93l-269 23l14 270l68 -183l509 443z" />
    <glyph glyph-name="partialdiff" unicode="&#x2202;" 
d="M355.5 17.5q-55.5 29.5 -87 82.5t-31.5 121q0 64 28 115t77.5 80t110.5 29q37 0 78.5 -18.5t79.5 -50.5q-27 16 -59.5 26t-58.5 10q-49 0 -88.5 -26t-62 -71.5t-22.5 -103.5t19.5 -104.5t55 -72.5t81.5 -26q51 0 92.5 40.5t65 113t23.5 164.5q0 102 -33 195t-96 160.5
t-150 95.5q114 -28 197.5 -93t128 -157.5t44.5 -200.5q0 -97 -34.5 -174t-95 -120.5t-136.5 -43.5q-71 0 -126.5 29.5z" />
    <glyph glyph-name="emptyset" unicode="&#x2205;" horiz-adv-x="742" 
d="M637.5 455.5q21.5 -52.5 21.5 -112.5q0 -83 -38 -151t-103.5 -107t-144.5 -39q-56 0 -105.5 19t-87.5 54l-54 -58h-31l68 73q-38 40 -59 94t-21 115q0 81 38.5 147.5t105 105t146.5 38.5q54 0 102.5 -18.5t86.5 -52.5l55 60h31l-70 -75q38 -40 59.5 -92.5zM138 243.5
q18 -46.5 50 -82.5l349 376q-33 30 -75 46t-89 16q-70 0 -128 -34t-91.5 -92.5t-33.5 -129.5q0 -53 18 -99.5zM499.5 115.5q56.5 34.5 89.5 94.5t33 133q0 52 -18 98t-50 80l-350 -376q34 -31 77 -47.5t92 -16.5q70 0 126.5 34.5z" />
    <glyph glyph-name="product" unicode="&#x220f;" 
d="M850 713h-173v-784l88 -49h-259l87 49v784h-185v-784l88 -49h-258l87 49v784h-174v22h699v-22z" />
    <glyph glyph-name="summation" unicode="&#x2211;" 
d="M688 -44l97 149l-35 -207v-18h-527l228 407l-226 448h514v-18l25 -177l-111 176h-326l186 -363l-229 -397h404z" />
    <glyph glyph-name="minus" unicode="&#x2212;" horiz-adv-x="487" 
d="M452 324v-22h-418v22h418z" />
    <glyph glyph-name="radical" unicode="&#x221a;" 
d="M784 808h67l-347 -934l-245 574l-109 57h180l203 -499h9z" />
    <glyph glyph-name="infinity" unicode="&#x221e;" horiz-adv-x="893" 
d="M727 526q39 -26 61 -74t22 -111q0 -61 -22 -109.5t-60 -75.5t-84 -27q-56 0 -103 44.5t-79 118.5q-47 -78 -93.5 -120.5t-112.5 -42.5q-46 0 -86 26.5t-63.5 75t-23.5 110.5q0 63 22 111t60.5 74t85.5 26q111 0 184 -176q37 59 62.5 93t60.5 58.5t79 24.5q51 0 90 -26z
M337.5 244.5q41.5 38.5 84.5 110.5l5 8q-26 48 -72 80t-103 32q-66 0 -108 -37t-42 -97t38 -97.5t97 -37.5t100.5 38.5zM750.5 244.5q40.5 38.5 40.5 96.5q0 60 -37.5 97t-96.5 37q-41 0 -73 -22t-54.5 -53.5t-53.5 -83.5l-7 -12q31 -40 76.5 -69t101.5 -29q63 0 103.5 38.5
z" />
    <glyph glyph-name="integral" unicode="&#x222b;" 
d="M174.5 -106q-43.5 21 -43.5 52q0 14 9.5 24t24.5 10q14 0 24.5 -9t26.5 -29q19 -24 36.5 -37.5t42.5 -13.5q117 0 139 209l52 515q6 60 42.5 108t90 75t107.5 27q59 0 102 -21t43 -52q0 -14 -9.5 -24t-24.5 -10q-14 0 -24.5 9t-26.5 29q-19 24 -36.5 37.5t-42.5 13.5
q-59 0 -94 -53t-45 -152l-54 -516q-6 -61 -42 -110t-89 -76t-107 -27q-58 0 -101.5 21z" />
    <glyph glyph-name="approxequal" unicode="&#x2248;" horiz-adv-x="702" 
d="M160 422q42 36 92 36q24 0 52.5 -8t67.5 -23q41 -15 67 -22.5t49 -7.5q42 0 75.5 19t79.5 75q-63 -89 -104 -124.5t-90 -35.5q-23 0 -49.5 7.5t-70.5 22.5q-40 15 -67 22.5t-49 7.5q-29 0 -51 -6.5t-47 -27t-56 -62.5q59 91 101 127zM160 243q42 36 92 36q24 0 52.5 -8
t67.5 -23q41 -15 67 -22.5t49 -7.5q42 0 75.5 19t79.5 75q-63 -89 -104 -124.5t-90 -35.5q-23 0 -49.5 7.5t-70.5 22.5q-40 15 -67 22.5t-49 7.5q-29 0 -51 -6.5t-47 -27t-56 -62.5q59 91 101 127z" />
    <glyph glyph-name="notequal" unicode="&#x2260;" horiz-adv-x="496" 
d="M457 384h-168l-55 -152h223v-22h-232l-37 -102h-23l37 102h-163v22h172l55 152h-227v22h235l35 94h23l-35 -94h160v-22z" />
    <glyph glyph-name="lessequal" unicode="&#x2264;" horiz-adv-x="516" 
d="M440 185h-47l-321 169l321 169h47l-323 -169zM49 103h418v-22h-418v22z" />
    <glyph glyph-name="greaterequal" unicode="&#x2265;" horiz-adv-x="516" 
d="M122 185h-46l323 169l-323 169h46l321 -169zM49 103h418v-22h-418v22z" />
    <glyph glyph-name="angleleft" unicode="&#x2329;" 
d="M951 843l-234 -463l233 -461h-25l-234 461l235 463h25z" />
    <glyph glyph-name="angleright" unicode="&#x232a;" 
d="M74 843l235 -463l-234 -461h-25l233 461l-234 463h25z" />
    <glyph glyph-name="uni2460" unicode="&#x2460;" horiz-adv-x="995" 
d="M269.5 -30.5q-105.5 61.5 -167 167t-61.5 229.5t61.5 228.5t167 166t229.5 61.5t228.5 -61.5t166 -166t61.5 -228.5t-61.5 -229.5t-166 -167t-228.5 -61.5t-229.5 61.5zM705 2.5q95 56.5 151.5 153t56.5 210.5q0 113 -56.5 209.5t-151.5 153t-206 56.5
q-112 0 -208.5 -56.5t-153.5 -153t-57 -209.5q0 -114 57 -210.5t153.5 -153t208.5 -56.5q111 0 206 56.5zM540 127l88 -43h-243l89 43v459l-103 7l169 62v-528z" />
    <glyph glyph-name="uni2461" unicode="&#x2461;" horiz-adv-x="995" 
d="M727.5 760.5q104.5 -61.5 166 -166t61.5 -228.5t-61.5 -229.5t-166 -167t-228.5 -61.5t-229.5 61.5t-167 167t-61.5 229.5t61.5 228.5t167 166t229.5 61.5t228.5 -61.5zM705 2.5q95 56.5 151.5 153t56.5 210.5q0 113 -56.5 209.5t-151.5 153t-206 56.5
q-112 0 -208.5 -56.5t-153.5 -153t-57 -209.5q0 -114 57 -210.5t153.5 -153t208.5 -56.5q111 0 206 56.5zM411 175l-18 -21h282v-60h-352l14 16q65 75 104.5 122t79.5 105q32 47 48.5 91t16.5 90q0 55 -31 88t-78 33q-28 0 -56 -16q-18 -11 -26.5 -28t-17.5 -47
q-9 -29 -16.5 -41.5t-24.5 -12.5q-13 0 -21.5 9.5t-8.5 24.5q0 28 37.5 59.5t87 53.5t79.5 22q63 0 104.5 -36.5t41.5 -91.5q0 -49 -28.5 -95t-97.5 -124q-56 -73 -119 -141z" />
    <glyph glyph-name="uni2462" unicode="&#x2462;" horiz-adv-x="995" 
d="M269.5 -30.5q-105.5 61.5 -167 167t-61.5 229.5t61.5 228.5t167 166t229.5 61.5t228.5 -61.5t166 -166t61.5 -228.5t-61.5 -229.5t-166 -167t-228.5 -61.5t-229.5 61.5zM705 2.5q95 56.5 151.5 153t56.5 210.5q0 113 -56.5 209.5t-151.5 153t-206 56.5
q-112 0 -208.5 -56.5t-153.5 -153t-57 -209.5q0 -114 57 -210.5t153.5 -153t208.5 -56.5q111 0 206 56.5zM419 94.5q-49 19.5 -84.5 48t-35.5 52.5q0 14 9 23t23 9q17 0 25.5 -13.5t16.5 -41.5q8 -25 13.5 -37.5t17.5 -19.5q16 -9 32 -12.5t42 -3.5q61 0 100 38.5t39 100.5
q0 58 -37 95t-97 37q-29 0 -70 -10q90 51 126.5 91t36.5 90q0 38 -24.5 64.5t-61.5 26.5q-26 0 -55 -17q-19 -11 -28 -29t-17 -47q-8 -27 -15.5 -40t-24.5 -13q-13 0 -21.5 9t-8.5 23q0 28 37 60t86.5 54.5t78.5 22.5q54 0 89 -31t35 -76q0 -34 -22 -61t-53 -46.5t-93 -54.5
q15 4 37 4q78 0 126 -42t48 -110q0 -46 -23.5 -83.5t-66 -58.5t-96.5 -21q-35 0 -84 19.5z" />
    <glyph glyph-name="uni2463" unicode="&#x2463;" horiz-adv-x="995" 
d="M727.5 760.5q104.5 -61.5 166 -166t61.5 -228.5t-61.5 -229.5t-166 -167t-228.5 -61.5t-229.5 61.5t-167 167t-61.5 229.5t61.5 228.5t167 166t229.5 61.5t228.5 -61.5zM705 2.5q95 56.5 151.5 153t56.5 210.5q0 113 -56.5 209.5t-151.5 153t-206 56.5
q-112 0 -208.5 -56.5t-153.5 -153t-57 -209.5q0 -114 57 -210.5t153.5 -153t208.5 -56.5q111 0 206 56.5zM583 688v-367h99v-58h-99v-130l87 -43h-239l87 43v130h-277zM306 321h212v259z" />
    <glyph glyph-name="uni2464" unicode="&#x2464;" horiz-adv-x="995" 
d="M727.5 760.5q104.5 -61.5 166 -166t61.5 -228.5t-61.5 -229.5t-166 -167t-228.5 -61.5t-229.5 61.5t-167 167t-61.5 229.5t61.5 228.5t167 166t229.5 61.5t228.5 -61.5zM705 2.5q95 56.5 151.5 153t56.5 210.5q0 113 -56.5 209.5t-151.5 153t-206 56.5
q-112 0 -208.5 -56.5t-153.5 -153t-57 -209.5q0 -114 57 -210.5t153.5 -153t208.5 -56.5q111 0 206 56.5zM597 416.5q41 -22.5 64 -62t23 -88.5q0 -56 -24.5 -99.5t-68.5 -67.5t-102 -24q-35 0 -84 19.5t-85 48t-36 52.5q0 15 8.5 24t23.5 9q18 0 26.5 -14.5t15.5 -41.5
q8 -25 13.5 -37.5t17.5 -19.5q15 -8 32 -12t42 -4q66 0 108 46.5t42 119.5q1 62 -37 103.5t-95 41.5q-69 0 -141 -50l30 286h282v-61h-271l-25 -200q35 27 73 40.5t75 13.5q52 0 93 -22.5z" />
    <glyph glyph-name="uni2465" unicode="&#x2465;" horiz-adv-x="995" 
d="M269.5 -30.5q-105.5 61.5 -167 167t-61.5 229.5t61.5 228.5t167 166t229.5 61.5t228.5 -61.5t166 -166t61.5 -228.5t-61.5 -229.5t-166 -167t-228.5 -61.5t-229.5 61.5zM705 2.5q95 56.5 151.5 153t56.5 210.5q0 113 -56.5 209.5t-151.5 153t-206 56.5
q-112 0 -208.5 -56.5t-153.5 -153t-57 -209.5q0 -114 57 -210.5t153.5 -153t208.5 -56.5q111 0 206 56.5zM378.5 103q-47.5 28 -74.5 78t-27 115q0 85 50 162.5t144.5 136.5t224.5 90q-106 -35 -184 -93.5t-119.5 -134.5t-41.5 -162q0 -59 18 -105.5t50 -72.5t72 -26
q51 0 83.5 44.5t32.5 113.5q0 67 -36.5 109.5t-92.5 42.5q-20 0 -45 -7t-47 -19q29 25 61 39t61 14q50 0 88.5 -22t60 -61t21.5 -88q0 -82 -53 -132t-139 -50q-60 0 -107.5 28z" />
    <glyph glyph-name="uni2466" unicode="&#x2466;" horiz-adv-x="995" 
d="M727.5 760.5q104.5 -61.5 166 -166t61.5 -228.5t-61.5 -229.5t-166 -167t-228.5 -61.5t-229.5 61.5t-167 167t-61.5 229.5t61.5 228.5t167 166t229.5 61.5t228.5 -61.5zM705 2.5q95 56.5 151.5 153t56.5 210.5q0 113 -56.5 209.5t-151.5 153t-206 56.5
q-112 0 -208.5 -56.5t-153.5 -153t-57 -209.5q0 -114 57 -210.5t153.5 -153t208.5 -56.5q111 0 206 56.5zM324 586v58h371l-266 -560h-76l297 502h-326z" />
    <glyph glyph-name="uni2467" unicode="&#x2467;" horiz-adv-x="995" 
d="M269.5 -30.5q-105.5 61.5 -167 167t-61.5 229.5t61.5 228.5t167 166t229.5 61.5t228.5 -61.5t166 -166t61.5 -228.5t-61.5 -229.5t-166 -167t-228.5 -61.5t-229.5 61.5zM705 2.5q95 56.5 151.5 153t56.5 210.5q0 113 -56.5 209.5t-151.5 153t-206 56.5
q-112 0 -208.5 -56.5t-153.5 -153t-57 -209.5q0 -114 57 -210.5t153.5 -153t208.5 -56.5q111 0 206 56.5zM345 297q38 40 104 70q-55 34 -86 69.5t-31 82.5q0 37 22 68t60 49.5t85 18.5q46 0 84 -17t60 -46.5t22 -65.5q0 -85 -130 -140q49 -28 79 -50t49 -50.5t19 -65.5
q0 -41 -24 -74t-66 -52t-93 -19q-55 0 -99 18t-68.5 49t-24.5 69q0 46 38 86zM428 459.5q31 -31.5 93 -66.5q35 23 57.5 56.5t22.5 75.5q0 49 -29.5 81.5t-73.5 32.5t-72.5 -29t-28.5 -72q0 -47 31 -78.5zM409 127q36 -35 92 -35q50 0 82.5 31.5t32.5 77.5q0 33 -19.5 59
t-46.5 44t-86 53q-91 -54 -91 -141q0 -54 36 -89z" />
    <glyph glyph-name="uni2468" unicode="&#x2468;" horiz-adv-x="995" 
d="M269.5 -30.5q-105.5 61.5 -167 167t-61.5 229.5t61.5 228.5t167 166t229.5 61.5t228.5 -61.5t166 -166t61.5 -228.5t-61.5 -229.5t-166 -167t-228.5 -61.5t-229.5 61.5zM705 2.5q95 56.5 151.5 153t56.5 210.5q0 113 -56.5 209.5t-151.5 153t-206 56.5
q-112 0 -208.5 -56.5t-153.5 -153t-57 -209.5q0 -114 57 -210.5t153.5 -153t208.5 -56.5q111 0 206 56.5zM552.5 198.5q81.5 101.5 81.5 233.5q0 59 -18.5 106t-49 73t-66.5 26q-55 0 -87 -43.5t-32 -112.5q0 -67 36.5 -109t91.5 -42q49 0 92 26q-29 -24 -60 -37.5
t-60 -13.5q-76 0 -123.5 47.5t-47.5 122.5q0 52 24 92.5t68 63t101 22.5t104 -28t74.5 -78.5t27.5 -114.5q0 -86 -44 -162.5t-132.5 -133t-217.5 -83.5q156 44 237.5 145.5z" />
    <glyph glyph-name="uni24EA" unicode="&#x24ea;" horiz-adv-x="995" 
d="M269.5 -30.5q-105.5 61.5 -167 167t-61.5 229.5t61.5 228.5t167 166t229.5 61.5t228.5 -61.5t166 -166t61.5 -228.5t-61.5 -229.5t-166 -167t-228.5 -61.5t-229.5 61.5zM705 2.5q95 56.5 151.5 153t56.5 210.5q0 113 -56.5 209.5t-151.5 153t-206 56.5
q-112 0 -208.5 -56.5t-153.5 -153t-57 -209.5q0 -114 57 -210.5t153.5 -153t208.5 -56.5q111 0 206 56.5zM320 511q27 66 74 105t103 39t102.5 -39t73.5 -105.5t27 -144.5q0 -79 -27 -146t-74 -106t-102 -39q-56 0 -103 39t-74 106t-27 146t27 145zM381.5 223
q16.5 -62 46 -96.5t68.5 -34.5t68.5 34.5t45.5 96.5t16 143q0 80 -16 142t-45.5 96t-68.5 34t-68.5 -34t-46 -96t-16.5 -142q0 -81 16.5 -143z" />
    <glyph glyph-name="uni24F5" unicode="&#x24f5;" horiz-adv-x="995" 
d="M269.5 -30.5q-105.5 61.5 -167 167t-61.5 229.5t61.5 228.5t167 166t229.5 61.5t228.5 -61.5t166 -166t61.5 -228.5t-61.5 -229.5t-166 -167t-228.5 -61.5t-229.5 61.5zM705 2.5q95 56.5 151.5 153t56.5 210.5q0 113 -56.5 209.5t-151.5 153t-206 56.5
q-112 0 -208.5 -56.5t-153.5 -153t-57 -209.5q0 -114 57 -210.5t153.5 -153t208.5 -56.5q111 0 206 56.5zM305 31q-89 52 -141 141t-52 194t52 193.5t141 140.5t194 52q104 0 192.5 -52t140 -140.5t51.5 -193.5t-51.5 -194t-140 -141t-192.5 -52q-105 0 -194 52zM672 59
q80 48 127.5 129.5t47.5 177.5t-47.5 177.5t-127.5 129.5t-173 48q-95 0 -175.5 -48t-128.5 -129.5t-48 -177.5t48 -177.5t128.5 -129.5t175.5 -48q93 0 173 48zM542 124l89 -40h-243l89 40v462l-103 7l168 62v-531z" />
    <glyph glyph-name="uni24F6" unicode="&#x24f6;" horiz-adv-x="995" 
d="M727.5 760.5q104.5 -61.5 166 -166t61.5 -228.5t-61.5 -229.5t-166 -167t-228.5 -61.5t-229.5 61.5t-167 167t-61.5 229.5t61.5 228.5t167 166t229.5 61.5t228.5 -61.5zM705 2.5q95 56.5 151.5 153t56.5 210.5q0 113 -56.5 209.5t-151.5 153t-206 56.5
q-112 0 -208.5 -56.5t-153.5 -153t-57 -209.5q0 -114 57 -210.5t153.5 -153t208.5 -56.5q111 0 206 56.5zM691.5 700q88.5 -52 140 -140.5t51.5 -193.5t-51.5 -194t-140 -141t-192.5 -52q-105 0 -194 52t-141 141t-52 194t52 193.5t141 140.5t194 52q104 0 192.5 -52z
M672 59q80 48 127.5 129.5t47.5 177.5t-47.5 177.5t-127.5 129.5t-173 48q-95 0 -175.5 -48t-128.5 -129.5t-48 -177.5t48 -177.5t128.5 -129.5t175.5 -48q93 0 173 48zM415 179q1 1 -22 -25h283v-60h-353l21 23q58 67 98.5 115.5t79.5 104.5q64 94 64 181q0 55 -30.5 88
t-78.5 33q-28 0 -55 -16q-18 -11 -26.5 -28t-17.5 -47q-9 -29 -16.5 -41.5t-24.5 -12.5q-13 0 -21.5 9.5t-8.5 24.5q0 28 37 59.5t86.5 53.5t79.5 22q64 0 105.5 -36.5t41.5 -91.5q0 -50 -29 -95.5t-98 -123.5q-38 -51 -115 -137z" />
    <glyph glyph-name="uni24F7" unicode="&#x24f7;" horiz-adv-x="995" 
d="M269.5 -30.5q-105.5 61.5 -167 167t-61.5 229.5t61.5 228.5t167 166t229.5 61.5t228.5 -61.5t166 -166t61.5 -228.5t-61.5 -229.5t-166 -167t-228.5 -61.5t-229.5 61.5zM705 2.5q95 56.5 151.5 153t56.5 210.5q0 113 -56.5 209.5t-151.5 153t-206 56.5
q-112 0 -208.5 -56.5t-153.5 -153t-57 -209.5q0 -114 57 -210.5t153.5 -153t208.5 -56.5q111 0 206 56.5zM305 31q-89 52 -141 141t-52 194t52 193.5t141 140.5t194 52q104 0 192.5 -52t140 -140.5t51.5 -193.5t-51.5 -194t-140 -141t-192.5 -52q-105 0 -194 52zM672 59
q80 48 127.5 129.5t47.5 177.5t-47.5 177.5t-127.5 129.5t-173 48q-95 0 -175.5 -48t-128.5 -129.5t-48 -177.5t48 -177.5t128.5 -129.5t175.5 -48q93 0 173 48zM420 94.5q-49 19.5 -84.5 48t-35.5 52.5q0 14 8.5 23t22.5 9q17 0 25.5 -13.5t17.5 -41.5q6 -22 12.5 -36
t18.5 -21q16 -9 32 -12.5t41 -3.5q61 0 100.5 38.5t39.5 100.5q0 58 -37.5 95t-97.5 37q-27 0 -70 -10q91 51 127 90.5t36 90.5q0 38 -24.5 64.5t-60.5 26.5q-25 0 -56 -17q-19 -11 -28 -29t-17 -47q-8 -27 -15.5 -40t-24.5 -13q-12 0 -20.5 9t-8.5 23q0 28 37 60t86 54.5
t78 22.5q55 0 89.5 -31t34.5 -76q0 -34 -22 -61t-53.5 -47t-92.5 -54q16 4 38 4q77 0 125.5 -42.5t48.5 -109.5q0 -46 -23.5 -83.5t-66 -58.5t-97.5 -21q-34 0 -83 19.5z" />
    <glyph glyph-name="uni24F8" unicode="&#x24f8;" horiz-adv-x="995" 
d="M727.5 760.5q104.5 -61.5 166 -166t61.5 -228.5t-61.5 -229.5t-166 -167t-228.5 -61.5t-229.5 61.5t-167 167t-61.5 229.5t61.5 228.5t167 166t229.5 61.5t228.5 -61.5zM705 2.5q95 56.5 151.5 153t56.5 210.5q0 113 -56.5 209.5t-151.5 153t-206 56.5
q-112 0 -208.5 -56.5t-153.5 -153t-57 -209.5q0 -114 57 -210.5t153.5 -153t208.5 -56.5q111 0 206 56.5zM691.5 700q88.5 -52 140 -140.5t51.5 -193.5t-51.5 -194t-140 -141t-192.5 -52q-105 0 -194 52t-141 141t-52 194t52 193.5t141 140.5t194 52q104 0 192.5 -52z
M672 59q80 48 127.5 129.5t47.5 177.5t-47.5 177.5t-127.5 129.5t-173 48q-95 0 -175.5 -48t-128.5 -129.5t-48 -177.5t48 -177.5t128.5 -129.5t175.5 -48q93 0 173 48zM586 688v-367h99v-58h-99v-130l87 -43h-239l87 43v130h-277zM309 321h212v259z" />
    <glyph glyph-name="uni24F9" unicode="&#x24f9;" horiz-adv-x="995" 
d="M727.5 760.5q104.5 -61.5 166 -166t61.5 -228.5t-61.5 -229.5t-166 -167t-228.5 -61.5t-229.5 61.5t-167 167t-61.5 229.5t61.5 228.5t167 166t229.5 61.5t228.5 -61.5zM705 2.5q95 56.5 151.5 153t56.5 210.5q0 113 -56.5 209.5t-151.5 153t-206 56.5
q-112 0 -208.5 -56.5t-153.5 -153t-57 -209.5q0 -114 57 -210.5t153.5 -153t208.5 -56.5q111 0 206 56.5zM691.5 700q88.5 -52 140 -140.5t51.5 -193.5t-51.5 -194t-140 -141t-192.5 -52q-105 0 -194 52t-141 141t-52 194t52 193.5t141 140.5t194 52q104 0 192.5 -52z
M672 59q80 48 127.5 129.5t47.5 177.5t-47.5 177.5t-127.5 129.5t-173 48q-95 0 -175.5 -48t-128.5 -129.5t-48 -177.5t48 -177.5t128.5 -129.5t175.5 -48q93 0 173 48zM597.5 416.5q41.5 -22.5 64.5 -62t23 -88.5q0 -56 -24.5 -99.5t-69 -67.5t-102.5 -24q-34 0 -83.5 19.5
t-85.5 48t-36 52.5q0 15 8.5 24t23.5 9q18 0 26 -13.5t16 -41.5q7 -24 13.5 -37.5t18.5 -20.5q15 -8 31.5 -12t41.5 -4q66 0 108 46.5t42 119.5q1 62 -37 103.5t-95 41.5q-70 0 -140 -50l30 286h282v-61h-272l-25 -200q72 54 148 54q52 0 93.5 -22.5z" />
    <glyph glyph-name="uni24FA" unicode="&#x24fa;" horiz-adv-x="995" 
d="M727.5 760.5q104.5 -61.5 166 -166t61.5 -228.5t-61.5 -229.5t-166 -167t-228.5 -61.5t-229.5 61.5t-167 167t-61.5 229.5t61.5 228.5t167 166t229.5 61.5t228.5 -61.5zM705 2.5q95 56.5 151.5 153t56.5 210.5q0 113 -56.5 209.5t-151.5 153t-206 56.5
q-112 0 -208.5 -56.5t-153.5 -153t-57 -209.5q0 -114 57 -210.5t153.5 -153t208.5 -56.5q111 0 206 56.5zM691.5 700q88.5 -52 140 -140.5t51.5 -193.5t-51.5 -194t-140 -141t-192.5 -52q-105 0 -194 52t-141 141t-52 194t52 193.5t141 140.5t194 52q104 0 192.5 -52z
M672 59q80 48 127.5 129.5t47.5 177.5q0 98 -48.5 180t-129.5 129q-148 -55 -232.5 -156t-84.5 -224q0 -59 18 -105.5t50 -72.5t72 -26q51 0 84 44.5t33 113.5q0 67 -37 109.5t-93 42.5q-20 0 -45 -7t-47 -19q29 25 61 39t61 14q50 0 88.5 -22t60 -61t21.5 -88
q0 -82 -53 -132t-139 -50q-60 0 -107.5 28t-74.5 78.5t-27 114.5q0 81 46 155.5t133.5 133.5t208.5 92q-79 44 -167 44q-95 0 -175.5 -48t-128.5 -129.5t-48 -177.5t48 -177.5t128.5 -129.5t175.5 -48q93 0 173 48z" />
    <glyph glyph-name="uni24FB" unicode="&#x24fb;" horiz-adv-x="995" 
d="M727.5 760.5q104.5 -61.5 166 -166t61.5 -228.5t-61.5 -229.5t-166 -167t-228.5 -61.5t-229.5 61.5t-167 167t-61.5 229.5t61.5 228.5t167 166t229.5 61.5t228.5 -61.5zM705 2.5q95 56.5 151.5 153t56.5 210.5q0 113 -56.5 209.5t-151.5 153t-206 56.5
q-112 0 -208.5 -56.5t-153.5 -153t-57 -209.5q0 -114 57 -210.5t153.5 -153t208.5 -56.5q111 0 206 56.5zM691.5 700q88.5 -52 140 -140.5t51.5 -193.5t-51.5 -194t-140 -141t-192.5 -52q-105 0 -194 52t-141 141t-52 194t52 193.5t141 140.5t194 52q104 0 192.5 -52z
M672 59q80 48 127.5 129.5t47.5 177.5t-47.5 177.5t-127.5 129.5t-173 48q-95 0 -175.5 -48t-128.5 -129.5t-48 -177.5t48 -177.5t128.5 -129.5t175.5 -48q93 0 173 48zM322 586v58h370l-265 -560h-76l297 502h-326z" />
    <glyph glyph-name="uni24FC" unicode="&#x24fc;" horiz-adv-x="995" 
d="M269.5 -30.5q-105.5 61.5 -167 167t-61.5 229.5t61.5 228.5t167 166t229.5 61.5t228.5 -61.5t166 -166t61.5 -228.5t-61.5 -229.5t-166 -167t-228.5 -61.5t-229.5 61.5zM705 2.5q95 56.5 151.5 153t56.5 210.5q0 113 -56.5 209.5t-151.5 153t-206 56.5
q-112 0 -208.5 -56.5t-153.5 -153t-57 -209.5q0 -114 57 -210.5t153.5 -153t208.5 -56.5q111 0 206 56.5zM305 31q-89 52 -141 141t-52 194t52 193.5t141 140.5t194 52q104 0 192.5 -52t140 -140.5t51.5 -193.5t-51.5 -194t-140 -141t-192.5 -52q-105 0 -194 52zM672 59
q80 48 127.5 129.5t47.5 177.5t-47.5 177.5t-127.5 129.5t-173 48q-95 0 -175.5 -48t-128.5 -129.5t-48 -177.5t48 -177.5t128.5 -129.5t175.5 -48q93 0 173 48zM344 297q38 40 103 70q-55 34 -86 69.5t-31 82.5q0 37 22 68t60 49.5t85 18.5t85 -17t60 -46.5t22 -65.5
q0 -84 -130 -140q50 -29 79.5 -50.5t48.5 -50t19 -65.5q0 -41 -24 -74t-66 -52t-94 -19q-55 0 -98.5 18t-68 49t-24.5 69q0 46 38 86zM426.5 459.5q31.5 -31.5 93.5 -66.5q35 23 57.5 56.5t22.5 75.5q0 48 -30 81t-73 33q-45 0 -73.5 -29t-28.5 -72q0 -47 31.5 -78.5z
M407.5 127q36.5 -35 91.5 -35q50 0 82.5 31.5t33.5 77.5q0 33 -20 59t-46.5 44t-86.5 53q-91 -55 -91 -141q0 -54 36.5 -89z" />
    <glyph glyph-name="uni24FD" unicode="&#x24fd;" horiz-adv-x="995" 
d="M727.5 760.5q104.5 -61.5 166 -166t61.5 -228.5t-61.5 -229.5t-166 -167t-228.5 -61.5t-229.5 61.5t-167 167t-61.5 229.5t61.5 228.5t167 166t229.5 61.5t228.5 -61.5zM705 2.5q95 56.5 151.5 153t56.5 210.5q0 113 -56.5 209.5t-151.5 153t-206 56.5
q-112 0 -208.5 -56.5t-153.5 -153t-57 -209.5q0 -114 57 -210.5t153.5 -153t208.5 -56.5q111 0 206 56.5zM691.5 700q88.5 -52 140 -140.5t51.5 -193.5t-51.5 -194t-140 -141t-192.5 -52q-105 0 -194 52t-141 141t-52 194t52 193.5t141 140.5t194 52q104 0 192.5 -52z
M672 59q80 48 127.5 129.5t47.5 177.5t-47.5 177.5t-127.5 129.5t-173 48q-95 0 -175.5 -48t-128.5 -129.5t-48 -177.5q0 -98 49.5 -180.5t131.5 -129.5q151 46 229.5 146t78.5 230q0 59 -18.5 106t-49.5 73t-67 26q-54 0 -86.5 -43.5t-32.5 -112.5q0 -67 36.5 -109
t92.5 -42q22 0 46 6.5t45 19.5q-61 -51 -120 -51q-76 0 -123 47.5t-47 122.5q0 79 52.5 128.5t139.5 49.5q57 0 104 -28t74.5 -78.5t27.5 -114.5q0 -84 -42.5 -159.5t-128 -132t-210.5 -84.5q79 -45 170 -45q93 0 173 48z" />
    <glyph glyph-name="uni24FF" unicode="&#x24ff;" horiz-adv-x="995" 
d="M727.5 -30.5q104.5 61.5 166 167t61.5 229.5t-61.5 228.5t-166 166t-228.5 61.5t-229.5 -61.5t-167 -166t-61.5 -228.5t61.5 -229.5t167 -167t229.5 -61.5t228.5 61.5zM319 510.5q27 66.5 73.5 105.5t102.5 39t103 -39t74 -105t27 -145t-27 -146t-74 -106t-103 -39
t-102.5 39t-73.5 106t-27 146q0 78 27 144.5zM380.5 223q16.5 -62 46 -96.5t68.5 -34.5t68.5 34.5t45.5 96.5t16 143q0 80 -16 142t-45.5 96t-68.5 34t-68.5 -34t-46 -96t-16.5 -142q0 -81 16.5 -143z" />
    <glyph glyph-name="filledbox" unicode="&#x25a0;" horiz-adv-x="749" 
d="M627 632v-518h-505v518h505z" />
    <glyph glyph-name="triagup" unicode="&#x25b2;" horiz-adv-x="794" 
d="M80 114l317 547l316 -547h-633z" />
    <glyph glyph-name="uni25CF" unicode="&#x25cf;" horiz-adv-x="766" 
d="M247.5 135q-62.5 37 -99 100.5t-36.5 137.5t36.5 137.5t99 100.5t135.5 37t135.5 -37t99 -100.5t36.5 -137.5t-36.5 -137.5t-99 -100.5t-135.5 -37t-135.5 37z" />
    <glyph glyph-name="uni2600" unicode="&#x2600;" horiz-adv-x="958" 
d="M363 637q-11 24 -31 84q-7 11 -22 28q-22 28 -28 37l41 10q3 -4 14 -16.5t19.5 -26t14.5 -28.5q3 -8 18 -46.5t34 -71.5l-36 -14q-13 20 -24 44zM718 741.5q-2 -15.5 -1 -28.5q-3 -3 -20 -29q-23 -40 -47 -66q-21 -22 -58 -56l-23 29q7 6 32 28.5t39 39.5q3 7 11 19
t18 47q2 6 5 20.5t8 26.5l40 -7q-2 -8 -4 -23.5zM893.5 540.5q-7.5 -8.5 -17.5 -14.5q-8 -6 -22 -14t-17 -11l-28 -26q-22 -22 -38.5 -35.5t-38.5 -24.5l-31 32q27 11 69 42q13 9 31 31q10 13 21 23l34 17q6 4 14.5 13t15.5 19l30 -21q-15 -22 -22.5 -30.5zM101 560
q7 -2 9 -3q25 -12 64 -28q21 -9 57 -40q22 -19 32 -24l-12 -42q-7 5 -13 11t-10 9q-8 8 -18.5 17.5t-28.5 19.5q-27 16 -70 30q-10 4 -20 7.5t-19 7.5l12 43q10 -6 17 -8zM481 556q42 0 91.5 -31.5t70.5 -67.5l7 -14q16 -45 16 -69q0 -15 -4 -29t-10 -31.5t-9 -24.5
q-2 -6 -4 -20q-4 -20 -5 -21l-38 -24q-34 -23 -54 -31.5t-50 -8.5q-38 0 -76.5 13.5t-58.5 34.5q-11 12 -17.5 26t-15.5 41l-7 20l-12 19q-8 11 -12.5 20t-4.5 20q0 40 35 80t84 68l38 21q17 9 36 9zM834 288q-18 0 -58 2l-49 1v40l65 -1q26 -2 42 -2q52 0 68 3l10 -39
q-21 -4 -78 -4zM50 215q20 12 47 21l33 11q15 5 45 13q20 5 39 11t29 13l13 -37q-15 -13 -31 -17.5t-47 -6.5q-22 -5 -59 -19.5t-51 -23.5l-26 29zM809.5 61.5q-17.5 13.5 -43.5 41.5q-16 14 -76 41l-45 21l20 33q23 -5 72 -32.5t56 -34.5l17.5 -17.5t26.5 -22.5t28 -14
l-9 -37q-29 8 -46.5 21.5zM550 -20l-27 67q-2 5 -12 25t-14 41l39 12q4 -22 20 -58t24 -48q8 -30 26 -64l-41 -14zM300 60q19 21 29 35.5t15 27.5l37 -13l-11 -28q-4 -8 -11.5 -14.5t-12.5 -11.5q-32 -32 -69 -93l-35 16q16 33 58 81z" />
    <glyph glyph-name="uni2601" unicode="&#x2601;" horiz-adv-x="1022" 
d="M30.5 213q4.5 8 16.5 19l15 14q19 22 43.5 43l31.5 27q-19 12 -34.5 37t-15.5 50q0 11 2 17q9 44 55 87.5t101 64.5q39 15 81 21q14 2 22 4q-2 6 -2 12q0 18 13 34.5t37 21.5q18 2 28 2q31 0 52 -6.5t45 -18.5q19 -9 25 -10l12 7q62 36 90.5 50.5t67 24.5t90.5 10
q33 0 63 -6q38 -6 70.5 -34t49.5 -64q7 -16 7 -34q0 -38 -23.5 -73t-62.5 -76q-20 -22 -27 -31l-16 -25q44 -10 74 -21q23 -10 23 -38q0 -18 -9.5 -38t-22.5 -35q-17 -18 -55.5 -40t-74.5 -35q-1 -16 -7 -40q-5 -27 -23 -57.5t-39 -52.5t-33 -25q-6 -1 -16 -1
q-35 0 -79.5 21.5t-74.5 49.5l-22 21v-11q0 -37 -26 -51q-14 -6 -29 -6q-8 0 -34 4q-58 12 -89.5 34t-62.5 76q-39 -32 -49 -41q-19 -18 -53 -18q-31 0 -64.5 12t-47.5 30q-14 14 -24 52l-3 18q0 16 4.5 24zM70.5 160q4.5 -10 11.5 -18q8 -10 33.5 -18.5t49.5 -8.5q9 0 28 8
q16 8 31.5 25.5t33.5 41.5q16 22 23 22q1 0 18.5 -37.5t50.5 -72t77 -39.5q3 0 11 -2t15 -2t13 3l3 32v15q0 21 6.5 33.5t24.5 12.5q13 0 16.5 -4.5t3.5 -22.5q5 -3 18.5 -16t16.5 -15q23 -20 59 -37.5t65 -17.5q18 0 31 9q45 64 49 95q1 2 1 7q0 7 -1 14t-1 13q0 11 -4 15
q-5 5 -3 5q15 3 39 11q37 12 72.5 29.5t47.5 33.5q8 10 15.5 30t3.5 22q-18 8 -64.5 18t-60.5 10l-27 -2q-11 0 -15 1l12 9q12 8 31 18.5t21 9.5q4 6 22 28q25 32 26 34q40 45 58.5 71.5t18.5 57.5q0 5 2 18t0 16q-18 27 -38 38.5t-52 17.5q-27 4 -57 4q-41 0 -71.5 -7.5
t-96.5 -38.5q-9 -4 -18.5 -8t-17.5 -9t-20 -15l-19 -15q-14 -1 -29.5 5t-35.5 17q-29 16 -47 20q-9 2 -27 2q-8 0 -14 -1q-12 -7 -19 -12.5t-10 -15.5q-2 -8 -3 -20.5t-3 -22.5l-30 -3l-58 -7q-15 -2 -28 -6q-40 -16 -79.5 -51.5t-47.5 -73.5q-1 -4 -1 -10q0 -13 5 -27
t13 -22l15 -7q16 0 19 -2l28 -34q-11 -6 -20 -12.5t-13 -10.5l-81 -68q-7 -6 -17.5 -14.5t-12 -12.5t-1.5 -14q0 -9 4.5 -19z" />
    <glyph glyph-name="uni2602" unicode="&#x2602;" 
d="M920 433.5q22 -65.5 22 -102.5q0 -12 -3 -16h-3h-9q-8 0 -12 -1q-2 -1 -9 -2.5t-13 -7.5l-44 -31l-46 63q-12 16 -19 22.5t-20 7.5l-65 -37l-27 -16l-16 -17l-22 41q-3 5 -14 27q-14 28 -26 44l2 -26q1 -10 0.5 -18t-0.5 -13q0 -14 -4 -36q-4 -24 -4 -51q0 -21 1 -34
q-5 -23 -22.5 -67.5t-38.5 -85.5t-39 -55q-41 -34 -120 -34q-18 0 -41 7q-49 19 -64.5 53t-15.5 79q0 78 3 91l41 3q-2 -19 -2 -49q0 -23 2.5 -54.5t3.5 -33.5q13 -21 46.5 -35.5t65.5 -14.5q54 0 71 29q45 76 59 162.5t14 203.5v16l-17 9h-2q-5 0 -10 -5q-38 -32 -51 -41
t-54 -36q-10 -7 -18.5 -13.5t-13.5 -6.5q-6 0 -7.5 2t-2.5 3q-11 17 -17.5 36.5t-15.5 52.5l-12 40q-12 28 -29 36q-19 7 -44 7h-13.5t-23.5 -2t-35 -7q-9 -3 -25 -9t-28.5 -9t-25.5 -3q-28 0 -33 1l16 75l37 45q24 29 52.5 54t56.5 35q126 47 243 47q138 0 251 -68
q28 -20 87 -80t63 -72q18 -37 40 -102.5zM890 349q-22 107 -53 171q-2 4 -10.5 11.5t-16.5 16.5q-11 12 -20 29q-7 12 -14 17l-26 21q-26 22 -40 30q-96 58 -231 58q-110 0 -228 -43q-16 -7 -31.5 -18.5t-42.5 -34.5q-22 -20 -34 -29q-3 -4 -8 -15.5t-10 -18.5q6 1 26 7
t44.5 9t52.5 3q21 0 57 -9.5t43 -17.5q4 -4 14.5 -24.5t13.5 -27.5l7 -21l18 -47q26 15 69 56q10 10 26 24q16 9 35 14.5t23 3.5q44 -22 65.5 -49t42.5 -69q10 -20 16 -30q33 24 52 35.5t37 11.5q5 0 13 -2q19 -8 32.5 -19t24.5 -31l18 -30z" />
    <glyph glyph-name="uni2614" unicode="&#x2614;" 
d="M594 804l-42 3l1 8l5 25q13 69 23 87l38 -14q-2 -5 -7.5 -17t-8.5 -25zM324 832q-5 -18 -9 -35l-40 7q0 2 4 11.5t4 22.5q9 23 14 53l4 27l42 1q-8 -52 -19 -87zM836 813l-42 15q25 49 47 82l38 -21q-20 -30 -43 -76zM470.5 839q-9.5 -31 -10.5 -52l-45 3q5 32 15.5 67
t25.5 46l28 -30q-4 -3 -13.5 -34zM194 855q-2 -29 -7 -43h-45q5 19 7 43q1 6 2.5 17.5t3.5 19.5l41 -15q-2 -14 -2 -22zM655 740l3 7q3 7 19 49t28 57l37 -21q-11 -17 -44 -103zM87 698l-43 8q0 2 5 21q1 7 5 19q5 21 11 36l42 -11q-4 -9 -11 -33q-5 -28 -9 -40zM983 743
q-1 -9 -1 -30h-45q0 23 2 37t11 32l41 -15q-7 -15 -8 -24zM821 738.5q16 22.5 28 37.5l35 -24q-29 -35 -47 -67l-41 16q9 15 25 37.5zM817 608q59 -60 63 -72q18 -37 40 -102.5t22 -102.5q0 -12 -3 -16h-3h-9q-8 0 -12 -1q-2 -1 -9 -2.5t-13 -7.5l-44 -31l-46 63
q-12 16 -19 22.5t-20 7.5l-65 -37l-27 -16l-16 -17l-22 41q-3 5 -14 27q-14 28 -26 44l2 -26q1 -10 0.5 -18t-0.5 -13q0 -14 -4 -36q-4 -24 -4 -51q0 -21 1 -34q-5 -23 -22.5 -67.5t-38.5 -85.5t-39 -55q-41 -34 -120 -34q-18 0 -41 7q-49 19 -64.5 53t-15.5 79q0 78 3 91
l41 3q-2 -19 -2 -49q0 -23 2.5 -54.5t3.5 -33.5q13 -21 46.5 -35.5t65.5 -14.5q54 0 71 29q45 76 59 162.5t14 203.5v16l-17 9h-2q-5 0 -10 -5q-38 -32 -51 -41t-54 -36q-10 -7 -18.5 -13.5t-13.5 -6.5q-6 0 -7.5 2t-2.5 3q-11 17 -17.5 36.5t-15.5 52.5l-12 40
q-12 28 -29 36q-19 7 -44 7h-13.5t-23.5 -2t-35 -7q-9 -3 -25 -9t-28.5 -9t-25.5 -3q-28 0 -33 1l16 75l37 45q24 29 52.5 54t56.5 35q126 47 243 47q138 0 251 -68q28 -20 87 -80zM890 349q-22 107 -53 171q-2 4 -10.5 11.5t-16.5 16.5q-11 12 -20 29q-7 12 -14 17l-26 21
q-26 22 -40 30q-96 58 -231 58q-110 0 -228 -43q-16 -7 -31.5 -18.5t-42.5 -34.5q-22 -20 -34 -29q-3 -4 -8 -15.5t-10 -18.5q6 1 26 7t44.5 9t52.5 3q21 0 57 -9.5t43 -17.5q4 -4 14.5 -24.5t13.5 -27.5l7 -21l18 -47q26 15 69 56q10 10 26 24q16 9 35 14.5t23 3.5
q44 -22 65.5 -49t42.5 -69q10 -20 16 -30q33 24 52 35.5t37 11.5q5 0 13 -2q19 -8 32.5 -19t24.5 -31l18 -30zM958 617q-7 -15 -8 -24t-1 -30h-45q0 23 2 37t11 32z" />
    <glyph glyph-name="sun" unicode="&#x263c;" horiz-adv-x="931" 
d="M446 577h-41q0 69 13 169l7 56l46 2l-18 -101q-7 -59 -7 -126zM654 542l-41 13q5 8 10.5 19.5t11.5 23.5q15 32 39 76l53 69l39 -11q-22 -27 -38 -48t-23 -34q-22 -39 -51 -108zM188.5 492.5q-34.5 10.5 -85.5 34.5l-52 56l24 35l31 -31q52 -36 81.5 -49t91.5 -25l-8 -40
q-48 9 -82.5 19.5zM633.5 477q31.5 -47 31.5 -93q0 -30 -19 -72.5t-47.5 -80.5t-53.5 -53q-16 -10 -48 -10l-40 1q-51 0 -77 5.5t-45.5 23t-40.5 57.5l-13 19q-33 9 -73 9q-29 0 -51 -7q-19 -13 -43 -26q-38 -22 -62 -39l-10 45l22 13q6 4 45 26q16 9 36.5 17.5t28.5 10.5
q7 2 38.5 -1.5t58.5 -8.5q-1 6 -1 18q0 48 9 84.5t36 57.5q30 23 86 47t110 22l49 -2q42 -16 73.5 -63zM592 287q32 49 36 83q-7 18 -11 33q-14 44 -28.5 67.5t-41.5 24.5l-36 2q-29 1 -59.5 -7.5t-66.5 -23.5q-23 -9 -39 -14q-16 -4 -27.5 -44.5t-11.5 -76.5
q0 -5 -0.5 -12.5t0.5 -19.5l28 -23q18 -34 29 -46t28.5 -15t64.5 -3q45 0 74 13t61 62zM735 455q37 15 50 18q6 2 45 11q30 5 45 11l14 -35q-15 -6 -65 -19q-54 -15 -66 -20q-3 -2 -21 -12t-39 -13l-12 38q12 6 49 21zM731.5 267.5q24.5 -7.5 65.5 -26.5l76 -11l-25 -37
q-29 3 -85 21q-6 2 -26 7.5t-36 8.5t-29 3l11 42q24 0 48.5 -7.5zM296 61q46 68 58 87l36 -9q-6 -13 -19 -33q-31 -56 -59 -94q-9 -12 -13 -16q-15 -18 -21 -27l-36 11q15 25 54 81zM611.5 35q4.5 -16 7.5 -23q3 -5 8 -12t10 -13l14 -19l-43 -27l-5 7q-17 29 -31 75
q-3 11 -10 44q-5 23 -9 37t-11 23l35 13q17 -24 20.5 -33.5t5.5 -39.5q4 -16 8.5 -32z" />
    <glyph glyph-name="uni26C5" unicode="&#x26c5;" horiz-adv-x="1101" 
d="M523.5 741.5q-2.5 -23.5 -2.5 -55.5v-48h-40q0 52 2 84.5t8 83.5h44l-1 -19q-8 -22 -10.5 -45.5zM770 607l-43 7q0 2 33 66t38 70l40 -15q-29 -41 -68 -128zM239.5 542.5q-34.5 10.5 -85.5 34.5l-52 56l24 35l31 -31q52 -36 81.5 -49t91.5 -25l-8 -40q-48 9 -82.5 19.5z
M1055 275q0 -32 -9.5 -55t-33.5 -45q-28 -24 -46 -35q-36 -20 -85 -20q-22 0 -49 3q-25 2 -49 7t-36 9q-14 -60 -59 -121q-11 -14 -40 -26t-50 -12q-20 0 -64 16t-64 34q-1 -13 -9.5 -26t-18.5 -19q-20 -11 -40 -11q-16 0 -34 8q-38 17 -54 27t-27 28q-3 8 -3 15q0 10 3 20
q-79 -7 -109 -7q-41 0 -70 9t-43 33q-14 28 -14 58q0 15 3 30q5 29 38 67.5t70 59.5q25 13 36 15q12 2 18 2q7 0 21 -2q5 15 17 32q8 12 14 18q-63 -2 -113 -15q-22 -5 -54 -15.5t-53 -21.5l5 43q11 8 19.5 11.5t27.5 8.5q18 4 36 10q75 22 146 22q33 0 58 -4q3 17 11 32.5
t26 40.5q68 92 164 92q24 0 61 -5l56 -8q30 -19 41.5 -32.5t20.5 -30t13 -23.5q7 1 18 1q39 -3 86 -24.5t71 -47.5q10 -9 16 -25.5t5 -31.5q6 -2 31 -10q14 -5 25 -6q29 -8 40.5 -14t22.5 -25q7 -14 7 -34zM807 517q27 17 66.5 30t62.5 12q48 20 49 21l16 -40
q-13 -3 -24.5 -6.5t-21.5 -6.5q-92 -24 -129 -44zM1018 265q0 19 -5 29l-52 19l-13 3q-11 4 -19 8l-14 7q-16 -21 -44 -36q-16 -9 -36 -17q-14 -2 -25 -2q-34 0 -44 15q-1 1 -7 13q-1 3 -1 8q0 29 41 44t77 15h13q0 5 -4 15q-4 7 -10 12t-14 11q-24 15 -49 36q-21 8 -40 8
h-24q-8 1 -21.5 -2.5t-21.5 -7.5q-6 -5 -29.5 -24.5t-46.5 -29t-48 -9.5q-21 0 -58 13q-24 9 -43 13t-40 3q-40 -5 -75 -15t-52 -20q-19 -13 -27 -29l-5 -44l-63 -1q-3 0 -11 -2q-9 -2 -25 -11q-27 -16 -54 -41.5t-36 -47.5q-6 -18 -6 -34q0 -21 9 -37q19 -35 75 -35
q32 0 68 11.5t63 27.5q4 3 7.5 6t7.5 3q6 0 14.5 -9.5t9.5 -18.5q1 -15 -5 -21t-23 -12q2 -11 6 -16t6 -9q7 -12 29 -23q-2 2 27 -17q10 -6 21 -6q6 0 15 4.5t16 15.5l20 34l18 32q-1 -7 3.5 -12.5t12.5 -12t9 -9.5q6 -10 50 -28t57 -18q30 0 58.5 29.5t45.5 72.5q4 12 4 27
q0 21 -10 65q16 -15 30.5 -21.5t27 -10t17.5 -4.5q36 -10 69.5 -16t47.5 -6q34 0 53 12.5t44 42.5q14 16 21 27t8 26v7zM843.5 324q3.5 3 8.5 6l14 9q-26 -3 -50 -8.5t-24 -11.5q0 -10 25 -14q10 5 18 14q5 2 8.5 5z" />
    <glyph glyph-name="uni26C6" unicode="&#x26c6;" 
d="M560 743q-8 -30 -33 -99l-7 -20l-45 11q1 2 4.5 8.5t8.5 20.5l11 33q7 18 19 56zM981 707q-3 -5 -16.5 -26.5t-22.5 -41.5l-51 14q4 10 18 30.5t22 25.5q-1 -1 23 36l39 -20zM154 682.5q-9 -24.5 -12 -33.5q-8 -22 -14 -40l-45 11l12 29q15 38 30 89l43 -10
q-5 -21 -14 -45.5zM268 586l2 7l19 47.5t28 58.5l37 -21q-11 -17 -44 -103zM692 569l-42 16q29 56 46 81l38 -21q-27 -43 -42 -76zM123.5 479.5q5.5 11.5 19.5 28.5q8 22 14 35t16 24l33 -27q-5 -5 -12 -26q-13 -40 -37 -70l-40 23q1 1 6.5 12.5zM574 493q-1 -9 -1 -30h-45
q0 23 2 37t11 32l41 -15q-7 -15 -8 -24zM943 504q1 13 1 23h45q0 -23 -3 -44q-2 -24 -2 -36h-44l1 37q1 7 2 20zM281.5 404.5q8.5 7.5 23.5 22.5q7 7 30 27.5t40 40.5l36 -24q-19 -22 -61 -60l-33 -31l-45 16q1 1 9.5 8.5zM754.5 400.5q18.5 52.5 31.5 77.5l40 -17
q-11 -22 -28.5 -70t-18.5 -65l-45 2q2 20 20.5 72.5zM601 343q-15 -33 -19 -50l-43 9q1 5 6 17.5t9 25.5l10 26q5 10 13 32l43 -11q-3 -9 -19 -49zM105 355q-23 -19 -35.5 -33t-15.5 -26l-43 7l49 69l32 27l31 -28zM416 284q-12 -25 -17 -45l-43 9q8 19 15 43q3 6 10.5 24.5
t12.5 33.5l43 -11q-9 -29 -21 -54zM200 256q-8 -7 -27 -23t-29.5 -28.5t-13.5 -23.5l-43 7l50 69l31 27zM894 176l-42 15q2 4 4 8.5t5 11.5q2 5 4 9t4 9q10 22 17 33l40 -18q-4 -6 -16 -30zM600 166q16 42 28 57l37 -21q-11 -17 -44 -103l-43 11q2 3 2.5 5l0.5 2q3 7 19 49z
M227 99q14 16 27.5 33t23.5 34l40 -17q-11 -21 -23.5 -36.5t-35.5 -42.5q-30 -35 -38 -47l-33 20q1 1 9.5 12t13.5 26zM908 124l38 -21q-27 -43 -42 -76l-42 16q29 56 46 81zM710 62q16 42 28 57l37 -21q-11 -17 -44 -103l-43 11l3 7q3 7 19 49zM43.5 71.5
q13.5 23.5 32.5 45.5l35 -24q-17 -20 -30.5 -43.5t-31.5 -59.5l-40 16q21 42 34.5 65.5zM407 65q17 34 33 42l23 -35q-5 -3 -19.5 -31.5t-19.5 -48.5l-44 10q10 29 27 63z" />
    <glyph glyph-name="uni26C8" unicode="&#x26c8;" horiz-adv-x="1069" 
d="M1039 576l-62 -45q29 -11 45 -37t16 -58q0 -25 -10.5 -43t-34.5 -39q-5 -5 -15 -17q-20 -22 -31 -30q-33 -26 -81 -51l-11 -18q-21 -36 -27 -50l-39 13q1 3 6.5 11t9.5 16q-66 -24 -126 -24q-32 0 -57 9l-32 -33q-42 -44 -49 -53l20 7q7 2 17.5 5.5t15.5 3.5
q9 0 14.5 -10.5t5.5 -25.5t-5 -34q-12 -7 -56 -63l-45 -40l46 96l-17 6q-26 9 -30 11q-5 3 -8.5 8.5t-4.5 6.5q-4 7 -14 22q0 18 27 72l-7 -4q-33 -17 -67 -23t-73 -6l-31 1q-7 -15 -8.5 -27t-1.5 -32h-45q0 21 1.5 33.5t7.5 27.5h-24q-12 0 -34 2q-32 5 -51 24t-19 50
q0 16 6 34q-60 7 -95.5 29.5t-35.5 61.5q0 25 29 57t72.5 61.5t82.5 46.5q-11 20 -16 32.5t-5 25.5q0 37 26 68t80 67q24 18 56 18q30 0 56.5 -12.5t63.5 -36.5l22 -14q28 19 66 38t63 19q7 0 21 -2q19 -2 38.5 -12t34.5 -24q31 16 54 24.5t43 8.5q69 0 140 -15
q37 -8 67 -31.5t30 -64.5q0 -21 -15 -41zM1012 614q0 45 -56.5 62t-118.5 17q-43 0 -75 -12.5t-59 -38.5v9q0 13 -28 27.5t-49 14.5q-7 0 -13 -1.5t-14 -4.5l-31 -11q-13 -5 -22 -11.5t-24 -23.5v-32q-11 1 -21.5 7t-30.5 21q-28 21 -49.5 34.5t-53.5 23.5q-8 2 -12 2
q-17 0 -34 -12q-6 -4 -29 -17q-33 -19 -49 -32t-16 -30q0 -19 13.5 -43.5t16.5 -31.5q2 -5 4 -12.5t2 -11.5q-22 -7 -70.5 -34t-86.5 -57.5t-38 -51.5q0 -12 35 -28.5t77 -23.5q13 24 32 43.5t37 28.5q20 10 53 10l16 1q4 0 14 -2q14 -2 27.5 -13.5t13.5 -21.5
q0 -18 -24 -49q-11 -14 -23 -20q-16 -8 -45.5 -14t-61.5 -6h-17q-7 -19 -7 -31q0 -30 36 -36q18 -2 28 -2l63 -1q57 0 95.5 5t64.5 18q27 14 57 39.5t43 55.5q1 -26 12 -52q10 -19 69 -19q62 0 141.5 29t135.5 75t56 93q0 5 -2.5 15t-9.5 32q-17 19 -34 30t-53 15
q23 8 61 29.5t49 36.5q5 8 5 13zM303 319q10 4 22 16t12 18q0 4 -15 4q-13 0 -31 -3t-25 -6q-18 -9 -40 -39q54 2 77 10zM947.5 236.5q10.5 14.5 13.5 18.5q16 23 22 29l41 -5q-5 -5 -19 -30q-13 -23 -22 -36.5t-21 -22.5l-38 22q13 10 23.5 24.5zM14.5 160.5
q5.5 8.5 9.5 23.5l41 -15q-5 -19 -12.5 -31.5t-21.5 -29.5l-35 29q13 15 18.5 23.5zM708 144l36 -21q-45 -50 -65 -66l-30 30q3 2 5 3.5t1 1.5q14 11 53 52zM126.5 78.5q13.5 23.5 32.5 45.5l35 -24q-17 -20 -30.5 -43.5t-31.5 -59.5l-40 16q21 42 34.5 65.5zM979 114
l38 -21q-27 -43 -42 -76l-42 16q29 56 46 81zM386 91l40 -13q-6 -10 -11 -17.5t-8 -13.5q-20 -33 -26 -48l-34 13q1 3 7.5 15.5t8.5 26.5zM831 64q-7 -15 -8 -24t-1 -30h-45q0 23 2 37t11 32z" />
    <glyph glyph-name="uni273A" unicode="&#x273a;" horiz-adv-x="941" 
d="M597 347l271 -150l-284 98l190 -233l-229 197l89 -288l-137 268l-26 -301l-26 301l-138 -268l89 288l-227 -198l189 234l-285 -98l272 150l-310 27l308 27l-270 150l286 -99l-190 235l227 -198l-88 287l137 -268l26 300l26 -300l136 268l-87 -287l226 197l-190 -234
l286 99l-270 -150l308 -27z" />
    <glyph glyph-name="uni2744" unicode="&#x2744;" horiz-adv-x="925" 
d="M592 397q-68 -18 -111 -35q51 -33 85 -60q28 -22 67 -45l39 -24q9 -5 27 -13h3q23 41 41 62q11 14 26.5 25.5t18.5 13.5q25 17 31 23l25 -30q2 2 -35 -29q-58 -47 -79 -75l39 -12l34 -3q15 -6 29 -9q7 -2 37 -12l-26 -44q-26 6 -88 27l-48 18q-1 -44 -9 -134l-39 5l3 42
q5 61 6 106l-20 10q-43 19 -76 42t-81 62l-30 24q-14 -157 -14 -206q52 -40 73 -67q7 -9 21 -18.5t23 -11.5l-20 -34q-21 10 -34 21.5t-27 27.5q-10 12 -24 24l-16 14q-12 -78 -13 -120l-41 7q-1 18 5 58q2 7 4 21q2 16 4 46q-11 -7 -43 -33l-19 -16q-6 -4 -26 -21t-40 -27
l-21 35q26 13 83 57q12 8 35 25t36 24l9 76q10 81 13 124q-34 -20 -73 -49q-5 -3 -40 -29t-44 -43q-33 -15 -62 -27q8 -45 24 -84l-37 -23q-9 15 -13 31t-7 34.5t-4 27.5q-15 -6 -45 -16q-9 -3 -27.5 -9.5t-33 -9t-25.5 -1.5l5 44l12 -1q41 0 106 30q-63 85 -98 119l25 31
q23 -23 51 -44q19 -43 55 -89q28 15 47 27q57 37 86 59q24 18 49 34q21 6 38 15l-34 26q-104 84 -167 116l-4 2q-36 -24 -82 -50.5t-60 -30.5l-9 37q10 3 48 23.5t69 39.5q-13 8 -37 20q-18 5 -44 16l-23 9l15 40q44 -16 98 -43l-4 24l-3 43q-1 12 -1 35v32h42
q-3 -42 -3 -67q0 -20 6 -50q1 -10 4 -38q3 -1 5 -2l4 -2q6 -3 17.5 -7t15.5 -7q19 -13 75 -63q58 -51 87 -73q5 115 13 196q-8 7 -24 19q-7 6 -15.5 13t-17.5 15q-7 7 -16 19l-16 22q-9 9 -23 19l-21 15l33 34q23 -17 39 -35.5t56 -71.5l8 -10l3 21q3 21 14 64q11 36 12 57
h43q0 -12 -7 -65q-5 -8 -11.5 -27t-8.5 -35l-3 -27q32 17 85 57q32 23 41 29l15 -37q-26 -16 -39 -25q-37 -24 -60 -37.5t-47 -22.5l-20 -195l41 21q79 41 83 43l19 9q36 19 59.5 32.5t45.5 31.5q-12 25 -30 71q-3 8 -10.5 25.5t-13.5 30.5l38 18q7 -14 23 -51l7 -19
q4 -9 8 -25q1 -11 6 -22q4 5 7.5 9.5t6.5 8.5q40 27 69 56l26 -35l-27 -21l-55 -44l29 -9q11 -3 21 -10q10 -6 21 -9q15 -5 43 -11l-8 -37q-21 3 -47 12q-23 7 -57 21l-38 15q-89 -71 -141 -101z" />
    <glyph glyph-name="uni2776" unicode="&#x2776;" horiz-adv-x="995" 
d="M727.5 -30.5q104.5 61.5 166 167t61.5 229.5t-61.5 228.5t-166 166t-228.5 61.5t-229.5 -61.5t-167 -166t-61.5 -228.5t61.5 -229.5t167 -167t229.5 -61.5t228.5 61.5zM540 124l85 -40h-237l87 40v462l-103 7l168 62v-531z" />
    <glyph glyph-name="uni2777" unicode="&#x2777;" horiz-adv-x="995" 
d="M727.5 -30.5q104.5 61.5 166 167t61.5 229.5t-61.5 228.5t-166 166t-228.5 61.5t-229.5 -61.5t-167 -166t-61.5 -228.5t61.5 -229.5t167 -167t229.5 -61.5t228.5 61.5zM433 220q45 54 88 117q64 92 64 181q0 55 -30.5 88t-77.5 33q-28 0 -55 -16q-19 -11 -28 -29t-17 -47
q-8 -27 -15.5 -40t-24.5 -13q-13 0 -22 9.5t-9 24.5q0 28 37.5 59.5t87 53.5t79.5 22q63 0 104.5 -36.5t41.5 -91.5q0 -49 -27 -94.5t-89 -115.5q-35 -45 -70 -85.5t-44 -50.5l-31 -35h281v-60h-353q65 72 110 126z" />
    <glyph glyph-name="uni2778" unicode="&#x2778;" horiz-adv-x="995" 
d="M727.5 -30.5q104.5 61.5 166 167t61.5 229.5t-61.5 228.5t-166 166t-228.5 61.5t-229.5 -61.5t-167 -166t-61.5 -228.5t61.5 -229.5t167 -167t229.5 -61.5t228.5 61.5zM419 94.5q-49 19.5 -84.5 48t-35.5 52.5q0 14 8.5 23t22.5 9q17 0 25.5 -13.5t17.5 -41.5
q6 -22 12.5 -36t18.5 -21q16 -9 32 -12.5t41 -3.5q61 0 100.5 38.5t39.5 100.5q0 58 -37.5 95t-97.5 37q-29 0 -70 -10q91 51 127 90.5t36 90.5q0 38 -24.5 64.5t-61.5 26.5q-24 0 -55 -17q-19 -11 -28 -29t-17 -47q-8 -27 -15.5 -40t-24.5 -13q-12 0 -20.5 9t-8.5 23
q0 28 37 60t86 54.5t78 22.5q55 0 89.5 -31t34.5 -76q0 -34 -22 -61t-53.5 -47t-92.5 -54q16 4 38 4q77 0 125.5 -42.5t48.5 -109.5q0 -46 -23.5 -83.5t-66 -58.5t-97.5 -21q-34 0 -83 19.5z" />
    <glyph glyph-name="uni2779" unicode="&#x2779;" horiz-adv-x="995" 
d="M727.5 -30.5q104.5 61.5 166 167t61.5 229.5t-61.5 228.5t-166 166t-228.5 61.5t-229.5 -61.5t-167 -166t-61.5 -228.5t61.5 -229.5t167 -167t229.5 -61.5t228.5 61.5zM584 688v-367h99v-58h-99v-130l87 -43h-239l87 43v130h-277zM519 321v259l-209 -259h209z" />
    <glyph glyph-name="uni277A" unicode="&#x277a;" horiz-adv-x="995" 
d="M727.5 -30.5q104.5 61.5 166 167t61.5 229.5t-61.5 228.5t-166 166t-228.5 61.5t-229.5 -61.5t-167 -166t-61.5 -228.5t61.5 -229.5t167 -167t229.5 -61.5t228.5 61.5zM292 218.5q9 9.5 23 9.5q18 0 26 -13.5t16 -41.5q7 -24 13.5 -37.5t18.5 -20.5q15 -8 31.5 -12
t42.5 -4q65 0 107 46.5t42 119.5q1 62 -37 103.5t-95 41.5q-69 0 -141 -50l30 286h283v-61h-271l-26 -201q35 27 73 41t75 14q52 0 93 -22.5t64 -62t23 -88.5q0 -56 -24 -99.5t-68.5 -67.5t-102.5 -24q-35 0 -84 19.5t-85 48t-36 52.5q0 14 9 23.5z" />
    <glyph glyph-name="uni277B" unicode="&#x277b;" horiz-adv-x="995" 
d="M727.5 -30.5q104.5 61.5 166 167t61.5 229.5t-61.5 228.5t-166 166t-228.5 61.5t-229.5 -61.5t-167 -166t-61.5 -228.5t61.5 -229.5t167 -167t229.5 -61.5t228.5 61.5zM378.5 103q-47.5 28 -74.5 78.5t-27 114.5q0 85 49.5 162.5t144 136.5t224.5 90q-106 -35 -184 -93.5
t-119.5 -134.5t-41.5 -162q0 -59 18 -105.5t50 -72.5t72 -26q51 0 83.5 44.5t32.5 113.5q0 67 -36.5 109.5t-92.5 42.5q-21 0 -45.5 -7t-45.5 -19q28 24 60.5 38.5t60.5 14.5q76 0 123 -48t47 -123q0 -82 -53 -132t-139 -50q-59 0 -106.5 28z" />
    <glyph glyph-name="uni277C" unicode="&#x277c;" horiz-adv-x="995" 
d="M727.5 -30.5q104.5 61.5 166 167t61.5 229.5t-61.5 228.5t-166 166t-228.5 61.5t-229.5 -61.5t-167 -166t-61.5 -228.5t61.5 -229.5t167 -167t229.5 -61.5t228.5 61.5zM321 644h371l-266 -560h-77l299 502h-327v58z" />
    <glyph glyph-name="uni277D" unicode="&#x277d;" horiz-adv-x="995" 
d="M727.5 -30.5q104.5 61.5 166 167t61.5 229.5t-61.5 228.5t-166 166t-228.5 61.5t-229.5 -61.5t-167 -166t-61.5 -228.5t61.5 -229.5t167 -167t229.5 -61.5t228.5 61.5zM398 93q-44 18 -68.5 49t-24.5 69q0 46 38 86t104 70q-55 34 -86.5 69.5t-31.5 82.5q0 37 22 68
t60.5 49.5t85.5 18.5q46 0 84 -17t60 -46.5t22 -65.5q0 -84 -130 -140q50 -29 79.5 -50.5t48.5 -50t19 -65.5q0 -41 -24 -74t-66 -52t-93 -19q-55 0 -99 18zM576.5 449.5q22.5 33.5 22.5 75.5q0 50 -29.5 82.5t-73.5 32.5q-45 0 -73.5 -29.5t-28.5 -73.5q0 -47 31.5 -78
t93.5 -66q35 23 57.5 56.5zM581.5 122.5q32.5 31.5 32.5 78.5q0 33 -19.5 59t-47 44.5t-86.5 52.5q-90 -55 -90 -141q0 -55 36 -90t91 -35q51 0 83.5 31.5z" />
    <glyph glyph-name="uni277E" unicode="&#x277e;" horiz-adv-x="995" 
d="M727.5 -30.5q104.5 61.5 166 167t61.5 229.5t-61.5 228.5t-166 166t-228.5 61.5t-229.5 -61.5t-167 -166t-61.5 -228.5t61.5 -229.5t167 -167t229.5 -61.5t228.5 61.5zM553 198.5q82 101.5 82 233.5q0 59 -18.5 106t-49.5 73t-67 26q-54 0 -86 -43.5t-32 -112.5
q0 -67 36 -109t92 -42q21 0 45 6.5t45 19.5q-61 -51 -120 -51q-75 0 -122 47.5t-47 122.5q0 79 52.5 128.5t140.5 49.5q57 0 104 -28t74 -78.5t27 -114.5q0 -86 -44 -162.5t-132.5 -133t-217.5 -83.5q156 44 238 145.5z" />
    <glyph glyph-name="uni3001" unicode="&#x3001;" 
d="M209 -52q-11 12 -23 34q-35 63 -70 109.5t-72 68.5q51 -12 104.5 -41.5t88.5 -68t35 -73.5q0 -19 -10 -30t-26 -11t-27 12z" />
    <glyph glyph-name="uni3002" unicode="&#x3002;" 
d="M99.5 -22.5q-33.5 33.5 -33.5 82.5q0 47 33.5 80.5t81.5 33.5t81.5 -33.5t33.5 -80.5q0 -49 -33.5 -82.5t-81.5 -33.5t-81.5 33.5zM240 0.5q24 24.5 24 59.5q0 34 -24.5 58t-58.5 24t-58.5 -24t-24.5 -58q0 -35 24 -59.5t59 -24.5t59 24.5z" />
    <glyph glyph-name="uni300A" unicode="&#x300a;" 
d="M826 843l-234 -463l233 -461h-23l-234 461l235 463h23zM951 843l-234 -463l233 -461h-23l-234 461l235 463h23z" />
    <glyph glyph-name="uni300B" unicode="&#x300b;" 
d="M72 843l235 -463l-234 -461h-23l233 461l-234 463h23zM197 843l235 -463l-234 -461h-23l233 461l-234 463h23z" />
    <glyph glyph-name="uni300C" unicode="&#x300c;" 
d="M689 0v843h281v-20h-258v-823h-23z" />
    <glyph glyph-name="uni300D" unicode="&#x300d;" 
d="M311 -81h-281v20h258v823h23v-843z" />
    <glyph glyph-name="uni300E" unicode="&#x300e;" 
d="M616 843h338v-123h-211v-720h-127v843zM721 17v719h215v91h-298v-810h83z" />
    <glyph glyph-name="uni300F" unicode="&#x300f;" 
d="M46 -81v123h211v720h127v-843h-338zM279 26h-215v-91h298v810h-83v-719z" />
    <glyph glyph-name="uni3010" unicode="&#x3010;" 
d="M953 848q-111 -77 -172.5 -196t-61.5 -254q0 -146 61 -273t173 -211h-251v934h251z" />
    <glyph glyph-name="uni3011" unicode="&#x3011;" 
d="M47 -86q112 84 173 211t61 273q0 135 -61.5 254t-172.5 196h251v-934h-251z" />
    <glyph glyph-name="uni3014" unicode="&#x3014;" 
d="M769 714v-666l173 -129h-31l-166 123v678l166 123h31z" />
    <glyph glyph-name="uni3015" unicode="&#x3015;" 
d="M89 843l166 -123v-678l-166 -123h-31l173 129v666l-173 129h31z" />
    <glyph glyph-name="uni3016" unicode="&#x3016;" 
d="M775.5 122.5q61.5 -122.5 176.5 -203.5h-300v924h300q-115 -79 -176.5 -196t-61.5 -258q0 -144 61.5 -266.5zM674 -64h227q-59 42 -106.5 112.5t-75 159t-27.5 181.5q0 90 27.5 174.5t75 152.5t106.5 110h-227v-890z" />
    <glyph glyph-name="uni3017" unicode="&#x3017;" 
d="M348 843v-924h-300q115 81 176.5 203.5t61.5 266.5q0 141 -61.5 258t-176.5 196h300zM326 826h-227q59 -42 106.5 -110t75 -152.5t27.5 -174.5q0 -93 -27.5 -181.5t-75 -159t-106.5 -112.5h227v890z" />
    <glyph glyph-name="uni3018" unicode="&#x3018;" 
d="M715 720l227 151v-143l-103 -66v-562l103 -66v-143l-227 151v678zM924 737v100l-187 -124v-664l187 -124v100l-107 69v574z" />
    <glyph glyph-name="uni3019" unicode="&#x3019;" 
d="M58 871l227 -151v-678l-227 -151v143l103 66v562l-103 66v143zM76 -75l187 124v664l-187 124v-100l107 -69v-574l-107 -69v-100z" />
    <glyph glyph-name="uni301A" unicode="&#x301a;" 
d="M960 826h-109v-890h109v-17h-232v924h232v-17zM829 -64v890h-79v-890h79z" />
    <glyph glyph-name="uni301B" unicode="&#x301b;" 
d="M272 843v-924h-232v17h109v890h-109v17h232zM171 -64h79v890h-79v-890z" />
    <glyph glyph-name="uni301C" unicode="&#x301c;" 
d="M177 413q56 60 120 60q47 0 92.5 -16t116.5 -48q74 -34 124.5 -51.5t103.5 -17.5q118 0 190 142q-33 -102 -89 -158.5t-128 -56.5q-55 0 -104.5 16.5t-127.5 51.5q-68 31 -114 47t-93 16q-51 0 -99.5 -36.5t-92.5 -105.5q45 97 101 157z" />
    <glyph glyph-name="uni3020" unicode="&#x3020;" 
d="M858 678q-13 -2 -28.5 -1.5t-23.5 0.5q-18 1 -66 5q-18 2 -25 4q-4 1 -17.5 3t-24.5 1q-13 -2 -31 -3.5t-27 -2.5q-10 0 -34 -2t-35 -4q-25 -2 -75 -8q-19 -3 -41 -8q-39 -13 -91 -13q-22 0 -66 4l-40 3q-49 3 -97 3l-2 -1v-67h11q18 2 26 2q14 0 27 -1t23 -2l29 -3
q51 -7 87 -7t78 11q59 14 144 19q30 6 74 8l21 1q7 1 21 1l82 -5q42 -5 75 -5q6 0 12.5 1t13.5 1q6 5 6 8v21v39q-4 0 -6 -2zM886 551q-28 -8 -52 -5q-25 0 -69 4h-19q-19 0 -29 -2l-34 -4q-23 -2 -59 -8q-55 -8 -89.5 -11.5t-71.5 -2.5q-28 2 -88 2q-36 2 -56 4l-28 2
l-66 4q-15 2 -45 4h-31v-4q0 -18 -1 -28l-1 -29q0 -4 1.5 -4.5t5.5 -0.5l114 -6l129 -6l28 -1q36 -2 55 -2q4 0 4 -4v-11q0 -7 0.5 -18.5t-0.5 -20.5q-2 -10 -4 -19.5t-4 -19.5q-1 -5 -3 -14.5t-2 -14.5q7 -61 18 -73q2 -2 6 -2l63 13q-2 8 -8 28t-6 34q0 13 4 24
q12 36 12 55q-2 13 -2 41v5v2q46 7 129 16q6 1 21 4t27 4l18 1q22 0 66 -6q20 -2 29 -2q26 0 48 7q11 3 12 4.5t-3 8.5v2l-5 23l-6 29q-4 -2 -8 -2zM749 403q2 0 4 3v38v2h-30v-43h26zM801 438.5q-7 2.5 -12 4.5q-16 -26 -32 -46q10 -8 26 -13q16 25 34 47q-9 5 -16 7.5z
M229 413q8 -10 13 -16q0 -2 2 -2q7 3 13.5 6t10.5 5q-7 9 -13.5 18.5t-12.5 16.5q-11 -6 -26 -10q5 -8 13 -18zM282 401q0 -3 2 -4h24q5 0 5 4v16v22h-31v-38zM682 398q0 -1 0.5 -1h1.5q6 -1 14.5 -0.5t12.5 0.5v42h-29v-41zM332 391q19 -8 25 -13l26 35q-16 8 -26 14
q-6 -11 -25 -36zM638.5 398q-0.5 -5 0.5 -9v-2q4 -2 8.5 -5.5t8.5 -4.5l15 -6q4 18 4 22q-12 10 -17 13q-6 6 -13 2q-2 -2 -3.5 -2.5t-2.5 -0.5q0 -2 -0.5 -7zM194 375q2 -2 5 -2l19 -6q8 -4 20 -8q2 -1 4 0q6 9 10 19q-11 8 -30 12t-28 7v-22zM523 77q-64 0 -168 13
q-84 11 -141 66q-12 10 -16 22.5t-4 30.5q0 21 -6 43l-2 37q0 8 -10.5 12t-17.5 4q-6 0 -9 2q-6 2 -15 2h-17q-5 0 -9 -1t-11 -1q-2 0 -14 3q-8 3 -10.5 11t-0.5 15q5 18 12.5 25.5t21.5 7.5h5h56q4 0 4 4v15q0 5 -7 5h-59h-18q-26 -3 -41 -18q-11 -17 -11 -18
q-3 -15 -3 -29q0 -13 3 -19q8 -15 30 -21q16 -5 42 -5q12 1 40 1q6 0 6 -3q0 -2 -1 -4t-2 -5l-1 -7q0 -4 3 -10q6 -31 6 -51q4 -30 17 -48q31 -51 95 -77q76 -31 129 -34l87 -6l33 -1q29 0 57 3q62 6 139 54q4 2 18.5 12.5t26.5 20.5t19 21q4 6 12.5 15t12.5 16q13 26 13 44
q3 12 13 27q19 16 46 12h38q20 0 36 14q16 12 16 29q0 3 -2 15q-1 12 -4.5 19.5t-9.5 15.5q-12 12 -28 13l-21 5l-32 -1q-24 -2 -37 -2h-4v-2q-2 -7 -2 -20h8q42 0 62 1q16 0 24 -29q2 -6 2 -11q0 -7 -2.5 -13t-7.5 -8q-4 -1 -15 -1q-29 0 -47 1q-12 0 -24 -6
q-17 -10 -25 -23t-14 -33q-7 -43 -46.5 -79.5t-99.5 -56.5q-44 -14 -118 -14zM772 320q12 5 19 12q5 2 6.5 6.5t-1.5 8.5q-2 2 -6.5 7t-8.5 7q-25 16 -52 17q-4 1 -12 1q-18 0 -26 -12q-14 -18 -22 -34q-5 -9 2 -18.5t20 -12.5q8 0 10 -2q35 3 71 20zM253 308q0 -3 6 -6
q8 -3 10 -4q17 -8 37 -8q10 0 15 1q33 9 51 34l5 8q3 5 -1 9q-10 10 -16 14q-13 14 -34 11q-10 -1 -17 -0.5t-12 0.5h-18q-4 0 -6 -1q-20 -25 -20 -51v-7zM701.5 330.5q-0.5 2.5 -2.5 4.5q-4 8 -4 12q-6 7 4 7q6 1 17 1q13 0 21 -4q12 -2 28 -8q-4 -4 -30.5 -11t-31.5 -6
q-1 2 -1.5 4.5zM284 318h-1v6q0 12 4 19q1 4 3.5 4.5t6.5 -0.5q2 0 5 -1t4 0h21q10 -4 15 -9v-1q0 -3 -11 -13q-6 -6 -12 -8t-16 -2q-12 0 -19 5zM291 240q1 -19 19 -39t39 -28q36 -12 84 -21q45 -8 85 -8q22 0 44 3q41 5 68 22q48 27 61 92q2 0 0 2q-5 3 -13 5t-13 5
q0 -2 -1 -4.5t-1 -5.5q-17 -58 -82 -75q-30 -9 -87 -9q-46 0 -95 11q-30 7 -54 16q-7 2 -17 15q-9 13 -9 41l-28 -1v-21z" />
    <glyph glyph-name="uni3041" unicode="&#x3041;" 
d="M675.5 315q48.5 -22 76 -59.5t27.5 -82.5q0 -93 -90.5 -148.5t-242.5 -63.5q121 24 194 81.5t73 143.5q0 39 -21 70t-56.5 48.5t-78.5 17.5h-7v-2q21 -3 32 -8q9 -7 21.5 -19.5t12.5 -15.5q0 -2 -3.5 -8t-6.5 -14q-16 -42 -44.5 -81.5t-65.5 -71.5q8 -14 8 -24
q0 -13 -7.5 -20.5t-21.5 -7.5q-17 0 -31 14q-74 -45 -142 -45q-34 0 -52 16t-18 45q0 33 21.5 73.5t61 78.5t89.5 64q1 23 7 97q-12 -1 -35 -1q-93 0 -138 93q20 -30 51 -41.5t78 -11.5q15 0 49 2q2 21 8 63q1 19 -3.5 28t-16.5 12t-31 3t-29 -2q61 26 91 26
q11 0 34.5 -12.5t23.5 -17.5q0 -2 -5 -13.5t-11 -34.5l-13 -48q62 8 100 22q28 13 24 32l55 -21q11 -5 11 -11q0 -14 -53 -32q-60 -22 -147 -32q-10 -38 -13 -83q61 24 125 24q61 0 109.5 -22zM559 281q0 13 -10.5 21.5t-33.5 16.5q-39 -7 -75 -24v-13q0 -73 33 -141
q57 52 82 121q4 9 4 19zM320 72q50 0 104 32q-21 65 -21 165v5q-53 -34 -87 -82t-34 -84t38 -36z" />
    <glyph glyph-name="uni3042" unicode="&#x3042;" 
d="M741 443q66 -30 103.5 -82t37.5 -114q0 -85 -56.5 -147.5t-158 -98.5t-235.5 -43q170 31 270.5 109.5t100.5 196.5q0 56 -29 99.5t-79 68t-112 24.5q-15 0 -23 -1v-5q38 -3 57 -13q9 -4 27.5 -23.5t18.5 -24.5q0 -2 -4.5 -9.5t-8.5 -19.5q-22 -60 -63.5 -116t-95.5 -100
q12 -21 12 -31q0 -14 -10 -23t-26 -9q-24 0 -40 18q-102 -60 -193 -60q-44 0 -67.5 22t-23.5 60q0 45 29 100t81.5 107.5t120.5 88.5q2 25 10 112l2 21q-36 -2 -52 -2q-59 0 -107.5 30.5t-80.5 95.5q28 -42 69 -59.5t101 -17.5q37 0 76 3l9 90q3 35 -17 53q-13 10 -41 10
q-24 0 -48 -4q32 15 65.5 24t54.5 9q14 0 42 -16t28 -22q-1 -4 -8 -19.5t-14 -44.5l-18 -75q92 10 149 31q28 11 31 26v3q0 5 -3 11l77 -21q13 -4 13 -15q0 -19 -70 -44q-85 -30 -207 -42q-11 -65 -14 -115q84 34 172 34q82 0 148 -30zM591 393q0 20 -17.5 32.5t-57.5 24.5
q-53 -11 -97 -33v-22q0 -57 12.5 -109.5t31.5 -94.5q42 36 74 81.5t49 95.5q5 15 5 25zM254 101q72 0 148 46q-29 86 -29 233v11q-50 -32 -88 -75t-59 -86t-21 -77q0 -52 49 -52z" />
    <glyph glyph-name="uni3043" unicode="&#x3043;" 
d="M335.5 64.5q-34.5 26.5 -55 75t-20.5 112.5q0 21 1 48.5t2 42.5q3 45 3 90q0 36 -15 56t-46 30q68 -3 97 -19q8 -3 29 -22t21 -25q-1 -5 -26 -67t-25 -138q0 -40 13.5 -68t34 -42t38.5 -14q15 0 37 26l96 135l-83 -193q-5 -16 -5 -27.5v-14.5q0 -5 -6 -8.5t-15 -3.5
q-41 0 -75.5 26.5zM738.5 192q-10.5 13 -16.5 41q-15 81 -56.5 133t-108.5 57q8 1 24 1q57 0 108 -28t81.5 -73t30.5 -95q0 -24 -9 -36.5t-25 -12.5q-18 0 -28.5 13z" />
    <glyph glyph-name="uni3044" unicode="&#x3044;" 
d="M269 73.5q-46 35.5 -72.5 101t-26.5 153.5q0 42 4 122q5 67 5 123q0 47 -20.5 73.5t-63.5 41.5q83 -6 120 -26q12 -7 36.5 -30.5t24.5 -30.5q0 -4 -9 -25q-24 -61 -41.5 -123.5t-17.5 -128.5q0 -53 17.5 -96t47 -67t62.5 -24q29 0 50 31l135 202l-116 -259
q-8 -20 -7.5 -36.5t0.5 -20.5q0 -16 -25 -16q-57 0 -103 35.5zM831 252q-13 18 -22 57q-20 95 -81.5 166t-152.5 83q83 5 158.5 -31.5t121.5 -101t46 -137.5q0 -26 -10 -40t-28 -14q-19 0 -32 18z" />
    <glyph glyph-name="uni3045" unicode="&#x3045;" 
d="M346 436q67 42 134 66q-36 5 -61.5 22t-46.5 51q22 -22 61 -32.5t77 -10.5q20 0 46 7q14 4 20 4q21 0 38.5 -15.5t17.5 -34.5q0 -16 -15 -16q-7 0 -21.5 3t-26.5 3q-81 0 -223 -47zM661.5 372q43.5 -22 67 -60.5t23.5 -86.5q0 -73 -49 -130.5t-140.5 -92.5t-217.5 -42
q159 32 245 103t86 181q0 56 -33.5 94.5t-83.5 38.5q-40 0 -71 -19t-82 -63l-37 -32q-6 -5 -17.5 -15.5t-14.5 -10.5q-7 0 -32 12t-31 20q-9 12 -14.5 31.5t-13.5 55.5q13 -24 28 -34.5t36 -10.5q17 0 36 8l46 23q52 26 88.5 39t79.5 13q58 0 101.5 -22z" />
    <glyph glyph-name="uni3046" unicode="&#x3046;" 
d="M472.5 657q-70.5 -19 -153.5 -61q96 76 186 104q-63 3 -102 27.5t-65 77.5q28 -43 82 -57.5t114 -10.5q15 1 41 8q24 6 35 6q28 0 48.5 -19.5t20.5 -42.5q0 -19 -18 -19q-7 0 -23 2q-22 4 -43 4q-52 0 -122.5 -19zM683 520.5q50 -29.5 77.5 -82t27.5 -118.5
q-1 -105 -61 -184.5t-174.5 -125.5t-275.5 -53q208 39 317 136.5t109 246.5q0 56 -18 99.5t-50 68t-72 24.5q-37 0 -65 -19.5t-73 -65.5q-39 -41 -66 -65q-8 -7 -13.5 -12t-9.5 -8q-16 -14 -18 -14q-12 0 -40.5 13.5t-35.5 21.5q-15 17 -27.5 48.5t-9.5 64.5q9 -33 30 -48.5
t47 -15.5q19 0 42.5 11.5t61.5 35.5q56 34 97 52.5t84 18.5q66 0 116 -29.5z" />
    <glyph glyph-name="uni3047" unicode="&#x3047;" 
d="M346 447q73 41 132 59q-36 6 -61.5 23t-43.5 47q20 -20 55 -31t73 -11q26 0 47.5 5.5t25.5 5.5q21 0 38.5 -15.5t17.5 -32.5q0 -8 -4.5 -13t-11.5 -5q-6 0 -20.5 3.5t-30.5 3.5q-90 0 -217 -39zM790.5 91q8.5 -10 8.5 -24q0 -24 -24 -45t-61 -33t-75 -12q-94 -3 -106 64
l-20 103q-3 16 -7 21t-13 5q-42 0 -80.5 -25t-76.5 -69q-24 -26 -56 -72q-15 -20 -21 -26.5t-16 -6.5q-15 0 -25.5 10.5t-11.5 25.5q0 15 9.5 27t36.5 37l15 14q209 184 315 285q6 6 6 9q0 6 -13 3q-30 -6 -78.5 -21.5t-80.5 -29.5q-15 -6 -26.5 -13t-14.5 -8q-7 0 -26 11.5
t-25 18.5q-6 8 -12.5 29t-11.5 45q15 -43 65 -43q24 0 87.5 7.5t89.5 13.5q28 5 41.5 17t14.5 12q11 0 36.5 -31.5t25.5 -43.5q0 -2 -17.5 -9.5t-27.5 -14.5q-36 -25 -88.5 -68t-99.5 -86l2 -4q63 33 104 33q19 0 30.5 -9t14.5 -25l22 -112q4 -23 14 -36.5t36 -13.5
q32 0 48.5 16t33.5 47q9 19 17 28t19 9q14 0 22.5 -10z" />
    <glyph glyph-name="uni3048" unicode="&#x3048;" 
d="M309 623q83 59 175 81q-60 5 -97 29t-58 72q23 -39 70 -54t103 -15q42 0 77 10q16 4 22 4q31 0 49 -17.5t18 -39.5q0 -10 -5.5 -15.5t-14.5 -5.5q-6 0 -27 3.5t-49 3.5q-134 0 -263 -56zM891 125.5q10 -10.5 10 -27.5q0 -30 -31.5 -57.5t-81 -44t-99.5 -16.5
q-64 0 -99 21.5t-44 65.5l-27 142q-5 22 -11 30t-21 8q-57 0 -110 -36.5t-110 -99.5q-41 -46 -74 -95q-17 -26 -26 -34.5t-24 -8.5q-18 0 -31 13t-13 31q0 17 14 33.5t55 54.5l15 14q259 231 431 396q7 7 7 13t-9 6q-6 0 -9 -1q-137 -31 -210 -56q-18 -7 -36 -17.5
t-20 -10.5q-10 0 -35 13t-32 23q-10 13 -19.5 36.5t-15.5 54.5q24 -59 95 -59q33 0 112 9.5t114 17.5q40 7 57.5 23.5t19.5 16.5q8 0 26 -20t33 -44t15 -34q0 -2 -18.5 -10t-33.5 -17q-47 -33 -115 -90.5t-135 -119.5l6 -9q36 17 69 27t58 10t38.5 -10.5t17.5 -31.5l30 -155
q7 -34 23 -54.5t52 -20.5q43 0 66 21t45 60q16 26 26.5 38t27.5 12t27 -10.5z" />
    <glyph glyph-name="uni3049" unicode="&#x3049;" 
d="M742.5 227q44.5 -39 44.5 -102q0 -60 -37.5 -99t-96.5 -39q-51 0 -82 31t-31 80q0 18 4 33q-4 -44 21.5 -68t63.5 -24q41 0 68.5 28t27.5 72q0 46 -34 74t-88 28q-80 0 -164 -45q6 -71 10 -103q5 -48 5 -63q0 -37 -21 -55t-51 -18q-7 0 -9 2.5t-2 6.5v9q0 7 -3 11.5
t-11 12.5l-81 76l-5 -4q-22 -20 -26 -20q-6 0 -25 10.5t-25 16.5q-9 13 -18.5 37t-14.5 53q11 -25 24.5 -37.5t31.5 -12.5q9 0 29 6q39 15 112 53l31 15v147q-10 -1 -29 -1q-39 0 -74.5 23t-64.5 68q46 -47 127 -47q11 0 41 4q-1 38 -1 95q0 36 -15 49q-8 7 -25 7
q-13 0 -38 -5q57 26 89 26q11 0 35.5 -12.5t24.5 -17.5q0 -2 -4.5 -16t-9.5 -58l-3 -33l-2 -23q36 11 60 25q13 7 13 16l-2 9l55 -19q8 -3 8 -10q0 -16 -51 -40q-47 -22 -86 -31q-2 -60 -2 -94q0 -14 2 -40q121 52 192 52q68 0 112.5 -39zM664 457q46 0 81 -14.5t54 -37.5
t19 -47q0 -14 -7 -23t-16 -9q-3 0 -13 7t-23 7q-7 0 -11 -1l-90 -21l67 37q11 6 14.5 11t3.5 12q0 15 -14.5 32t-41 29.5t-59.5 15.5q12 2 36 2zM390 166q-51 -35 -109 -86l73 -49q15 -6 23 -6q14 0 14 34z" />
    <glyph glyph-name="uni304A" unicode="&#x304a;" 
d="M784.5 349q49.5 -24 77 -67.5t27.5 -100.5t-24.5 -99t-65 -64.5t-87.5 -22.5q-69 0 -110.5 42t-41.5 108q0 18 5 45l-1 -15q0 -56 35 -88t85 -32q34 0 63.5 16.5t48 49.5t18.5 78q0 66 -44.5 107t-118.5 41q-109 0 -243 -68q2 -31 10 -140q6 -72 6 -81q0 -49 -27 -72.5
t-62 -23.5q-8 0 -11 3t-3 9v12q0 9 -4.5 15.5t-14.5 16.5l-118 108q-29 -27 -32 -27q-8 0 -33 11.5t-32 18.5q-12 16 -25 45t-18 63q28 -62 75 -62q15 0 37 8q38 15 120 56l73 35v207q-28 -2 -42 -2q-52 0 -100.5 30.5t-87.5 91.5q32 -35 78.5 -54t97.5 -19q21 0 54 5
l-1 141q0 49 -20 64q-14 9 -37 9q-16 0 -51 -5q74 34 119 34q14 0 44 -16.5t30 -22.5q0 -3 -6 -22t-11 -78q-3 -30 -6 -89q53 14 89 37q15 8 15 21v4q0 7 -4 11l78 -21q10 -4 10 -13q0 -18 -71 -51q-59 -29 -119 -44q-2 -41 -2 -130q0 -41 1 -61q166 72 264 72
q64 0 113.5 -24zM720 639q63 0 110.5 -20.5t73 -52t25.5 -64.5q0 -19 -7.5 -29.5t-19.5 -10.5q-1 0 -11.5 9t-30.5 9q-9 0 -14 -1l-121 -25l97 50q16 8 20.5 14t4.5 15q0 22 -23 44.5t-62.5 39t-85.5 19.5q23 3 44 3zM349 246q-78 -48 -159 -115l109 -70q24 -9 31 -9
q11 0 15 11.5t4 34.5v148z" />
    <glyph glyph-name="uni304B" unicode="&#x304b;" 
d="M612.5 467q34.5 -60 35.5 -185q0 -87 -19.5 -156t-55 -108t-82.5 -39q-5 0 -7 3t-4.5 12t-6.5 15q-10 12 -33 27l-123 83q29 -11 76 -30q37 -16 57 -23t33 -7q26 0 46.5 29t32.5 82.5t12 124.5q0 104 -26 157.5t-76 53.5q-35 0 -68 -4q-52 -118 -75 -178
q-40 -104 -94 -265q-17 -51 -28 -68.5t-33 -17.5q-16 0 -28 12t-12 30q0 14 5 27.5t22 48.5q15 31 34 72q73 157 139 325q-52 -11 -93 -27q-19 -7 -39.5 -18.5t-22.5 -11.5q-9 0 -33 13.5t-32 23.5q-9 12 -18.5 37.5t-15.5 57.5q13 -31 35 -45.5t57 -15.5q69 -1 171 11
q37 96 45 135q4 24 4 34q0 28 -15 46.5t-51 32.5q46 -6 71 -13t40 -18q9 -6 27.5 -32t18.5 -33q0 -2 -7.5 -15.5l-17.5 -31.5q-14 -24 -46 -97q64 6 87 6q79 0 113.5 -60zM780 529q61 -40 95.5 -96.5t34.5 -119.5q0 -48 -17.5 -70.5t-39.5 -22.5q-6 0 -8 6t-5.5 13t-14.5 14
l-119 75l23 -7q30 -9 54.5 -15.5t34.5 -6.5q11 0 16.5 11t5.5 31q0 48 -25.5 96.5t-70.5 87t-101 58.5q76 -14 137 -54z" />
    <glyph glyph-name="uni304C" unicode="&#x304c;" 
d="M951 676q0 -24 -23 -24q-9 0 -16.5 5.5t-18.5 17.5q-33 38 -71.5 63.5t-62.5 28.5q45 2 88 -9t71.5 -31.5t32.5 -45.5v-5zM609.5 467q34.5 -60 35.5 -185q0 -87 -19.5 -156t-55 -108t-82.5 -39q-5 0 -7 3t-4.5 12t-6.5 15q-10 12 -33 27l-123 83q29 -11 76 -30
q37 -16 57 -23t33 -7q26 0 46.5 29t32.5 82.5t12 124.5q0 104 -26 157.5t-76 53.5q-35 0 -68 -4q-52 -118 -75 -178q-40 -104 -94 -265q-17 -51 -28 -68.5t-33 -17.5q-16 0 -28 12t-12 30q0 14 5 27.5t22 48.5q15 31 34 72q73 157 139 325q-52 -11 -93 -27
q-19 -7 -39.5 -18.5t-22.5 -11.5q-9 0 -33 13.5t-32 23.5q-9 12 -18.5 37.5t-15.5 57.5q13 -31 35 -45.5t57 -15.5q69 -1 171 11q37 96 45 135q4 24 4 34q0 28 -15 46.5t-51 32.5q46 -6 71 -13t40 -18q9 -6 27.5 -32t18.5 -33q0 -2 -7.5 -15.5l-17.5 -31.5q-14 -24 -46 -97
q64 6 87 6q79 0 113.5 -60zM846 572.5q-6 4.5 -16 15.5q-36 44 -75 77.5t-62 39.5q46 -1 90 -17.5t72 -42.5t28 -53q0 -11 -6.5 -17.5t-16.5 -6.5q-8 0 -14 4.5zM777 529q61 -40 95.5 -96.5t34.5 -119.5q0 -48 -17.5 -70.5t-39.5 -22.5q-6 0 -8 6t-5.5 13t-14.5 14l-119 75
l23 -7q30 -9 54.5 -15.5t34.5 -6.5q11 0 16.5 11t5.5 31q0 48 -25.5 96.5t-70.5 87t-101 58.5q76 -14 137 -54z" />
    <glyph glyph-name="uni304D" unicode="&#x304d;" 
d="M754 462q-45 -18 -114 -37q65 -116 119 -172l22 -22q16 -14 23 -24.5t7 -26.5q0 -18 -10.5 -30.5t-27.5 -12.5q-11 0 -19 6t-21 20q-25 25 -40 35q-55 38 -117 56.5t-116 18.5q-75 0 -127 -30.5t-52 -87.5q0 -58 56 -88t140 -30q44 0 74 9t63 24q13 6 25.5 10.5t22.5 4.5
q16 0 26 -9t10 -24q0 -36 -62.5 -58t-148.5 -22q-73 0 -134.5 18.5t-98.5 55.5t-37 89q0 46 32.5 81t89 54.5t126.5 19.5q104 0 190 -29l6 5q-21 35 -79 145q-110 -24 -189 -24q-64 0 -112.5 29.5t-68.5 95.5q44 -77 170 -77q73 0 176 23q-24 44 -52 100q-60 -12 -96 -12
q-55 0 -94.5 22.5t-73.5 79.5q24 -31 61 -44.5t92 -13.5q36 0 89 11l-17 33q-18 37 -22 43q-15 30 -37 44t-69 14q-11 0 -39 -2q89 33 119 33q14 0 41.5 -7t32.5 -10q3 -2 16 -38l9 -25q9 -25 29 -71q35 9 84 27q25 11 25 23q0 9 -5 15l77 -16q10 -4 10 -11q0 -10 -18 -23.5
t-49 -24.5q-56 -20 -105 -33q27 -60 49 -101q49 13 102 33q20 8 21 20q0 7 -6 16l77 -19q11 -3 11 -11q0 -20 -66 -48z" />
    <glyph glyph-name="uni304E" unicode="&#x304e;" 
d="M875.5 772q40.5 -18 65.5 -43t25 -50q0 -11 -6 -18t-16 -7q-12 0 -19 6.5t-17 22.5q-27 42 -61 73.5t-57 37.5q45 -4 85.5 -22zM797 510q0 -20 -66 -48q-47 -19 -115 -37q65 -116 119 -172l22 -21q17 -15 24 -25.5t7 -26.5q0 -18 -11 -30.5t-28 -12.5q-11 0 -19 6t-20 19
q-22 24 -40 36q-56 38 -118 56.5t-116 18.5q-74 0 -126 -30.5t-52 -87.5q0 -58 55.5 -88t139.5 -30q44 0 74 9t63 24q13 6 25.5 10.5t22.5 4.5q16 0 26 -9t10 -24q0 -36 -62.5 -58t-148.5 -22q-73 0 -134.5 18.5t-98 55.5t-36.5 89q0 46 32.5 81t89 54.5t125.5 19.5
q106 0 190 -29l7 6q-26 42 -80 144q-110 -24 -189 -24q-64 0 -112 29.5t-68 95.5q44 -77 170 -77q70 0 175 22l-52 101q-59 -12 -96 -12q-55 0 -94.5 22.5t-72.5 79.5q24 -31 61 -44.5t92 -13.5q34 0 89 11l-39 76q-16 30 -37.5 44t-68.5 14q-11 0 -39 -2q88 33 119 33
q13 0 40.5 -7t32.5 -10q3 -2 16 -38l9 -25q9 -25 29 -71q35 9 84 27q25 10 26 23q0 9 -6 15l77 -16q10 -4 10 -11q0 -11 -17.5 -24t-49.5 -24q-56 -19 -105 -33q15 -33 49 -101q49 13 102 33q20 8 21 20v2q0 7 -6 14l77 -19q12 -3 12 -11zM798.5 713q39.5 -22 63.5 -50.5
t24 -54.5q0 -12 -6 -19t-16 -7q-11 0 -17.5 6t-14.5 19q-28 48 -61.5 87.5t-55.5 48.5q44 -8 83.5 -30z" />
    <glyph glyph-name="uni304F" unicode="&#x304f;" 
d="M630 -23q-10 9 -29 37l-19 27q-44 63 -91.5 111t-130.5 121l-16 14q-34 30 -50 55t-16 49q0 29 17.5 54.5t57.5 60.5l42 38q99 86 147 138q28 32 28 67q0 33 -28 58q22 -6 45 -23t37 -36q8 -9 16.5 -43.5t5.5 -39.5q-1 -1 -37 -28l-17 -12q-62 -46 -126 -87l-60 -41
q-4 -3 -9 -6t-11 -8q-49 -32 -66.5 -49.5t-17.5 -39.5q0 -24 22.5 -44t89.5 -65l26 -17q82 -53 135.5 -94t92.5 -89q32 -37 32 -69q0 -21 -12 -34.5t-30 -13.5t-28 9z" />
    <glyph glyph-name="uni3050" unicode="&#x3050;" 
d="M616 -23q-10 9 -29 37l-19 27q-44 63 -91.5 111t-130.5 121l-16 14q-34 30 -50 55t-16 49q0 29 17.5 54.5t57.5 60.5l42 38q99 86 147 138q28 32 28 67q0 33 -28 58q22 -6 45 -23t37 -36q8 -9 16.5 -43.5t5.5 -39.5q-1 -1 -37 -28l-17 -12q-62 -46 -126 -87l-60 -41
q-4 -3 -9 -6t-11 -8q-49 -32 -66.5 -49.5t-17.5 -39.5q0 -24 22.5 -44t89.5 -65l26 -17q82 -53 135.5 -94t92.5 -89q32 -37 32 -69q0 -21 -12 -34.5t-30 -13.5t-28 9zM802 491.5q-7 6.5 -17 22.5q-26 42 -60.5 73.5t-58.5 38.5q45 -5 86 -22.5t66 -42.5t25 -50
q0 -11 -6 -18.5t-16 -7.5q-12 0 -19 6.5zM723.5 419q-6.5 6 -14.5 19q-28 49 -61.5 88t-55.5 48q44 -8 83.5 -30t63.5 -50.5t24 -54.5q0 -12 -6 -19t-16 -7q-11 0 -17.5 6z" />
    <glyph glyph-name="uni3051" unicode="&#x3051;" 
d="M270.5 115.5q5.5 5.5 12.5 17.5l117 235l-93 -298q-4 -16 -4.5 -31.5t-0.5 -19.5q0 -9 -24 -9q-37 0 -68 30.5t-49 88t-18 134.5q0 58 8 114t23 129q2 10 11 57t11 83q1 41 -15 67.5t-53 48.5q38 -9 60.5 -17t41.5 -20q14 -9 36 -36.5t22 -35.5q0 -2 -11 -26
q-36 -79 -63.5 -163.5t-27.5 -172.5q0 -54 10.5 -95t27 -63.5t33.5 -22.5q8 0 13.5 5.5zM925 572q0 -26 -81 -55q-35 -14 -92 -28l1 -45q1 -63 6 -112q1 -13 3 -44.5t1 -56.5q-1 -74 -43.5 -132.5t-111 -91.5t-145.5 -35q103 23 164 93.5t65 172.5q2 70 2 108q0 47 -2 129
q-60 -11 -93 -11q-63 1 -120 34t-96 90q32 -34 86 -53t119 -19q38 0 103 14l-5 121q-1 42 -13.5 58.5t-42.5 16.5q-21 0 -51 -6q33 16 64.5 25.5t54.5 9.5q14 0 44.5 -17t30.5 -23q0 -3 -5 -19.5t-9 -66.5q-4 -48 -5 -82q39 12 61 21q21 9 23 25v4q0 7 -1 10l77 -22
q11 -3 11 -13z" />
    <glyph glyph-name="uni3052" unicode="&#x3052;" 
d="M906 819.5q40 -17.5 64.5 -42.5t24.5 -49q0 -11 -6 -18t-16 -7q-12 0 -18.5 6t-16.5 22q-26 41 -59.5 72t-56.5 38q44 -4 84 -21.5zM830 761.5q39 -21.5 62.5 -49.5t23.5 -55q0 -11 -6 -18t-15 -7q-10 0 -17 6t-14 19q-28 48 -61.5 86.5t-54.5 46.5q43 -7 82 -28.5z
M234.5 115.5q5.5 5.5 12.5 17.5l117 235l-93 -298q-4 -16 -4.5 -31.5t-0.5 -19.5q0 -9 -24 -9q-37 0 -68 30.5t-49 88t-18 134.5q0 58 8 114t23 129q2 10 11 57t11 83q1 41 -15 67.5t-53 48.5q38 -9 60.5 -17t41.5 -20q14 -9 36 -36.5t22 -35.5q0 -2 -11 -26
q-36 -79 -63.5 -163.5t-27.5 -172.5q0 -54 10.5 -95t27 -63.5t33.5 -22.5q8 0 13.5 5.5zM889 572q0 -26 -81 -55q-35 -14 -92 -28l1 -45q1 -63 6 -112q1 -13 3 -44.5t1 -56.5q-1 -74 -43.5 -132.5t-111 -91.5t-145.5 -35q103 23 164 93.5t65 172.5q2 70 2 108q0 47 -2 129
q-60 -11 -93 -11q-63 1 -120 34t-96 90q32 -34 86 -53t119 -19q38 0 103 14l-5 121q-1 42 -13.5 58.5t-42.5 16.5q-21 0 -51 -6q33 16 64.5 25.5t54.5 9.5q14 0 44.5 -17t30.5 -23q0 -3 -5 -19.5t-9 -66.5q-4 -48 -5 -82q39 12 61 21q21 9 23 25v4q0 7 -1 10l77 -22
q11 -3 11 -13z" />
    <glyph glyph-name="uni3053" unicode="&#x3053;" 
d="M577 607q8 0 8 -2q0 -3 -15 -11q-57 -31 -107 -65t-98 -82q72 46 146.5 79t127.5 47q50 12 93 14q27 2 27 29q0 24 -25 39.5t-63 15.5q-17 0 -81 -10q-7 -1 -49.5 -7.5t-79.5 -6.5q-56 0 -108 16t-100 68q41 -65 101.5 -96.5t119.5 -31.5q48 0 95 4h8zM225.5 280
q-21.5 -44 -21.5 -82q0 -93 90.5 -140t236.5 -47q71 0 141.5 10t122.5 29q61 23 61 61q0 17 -10 26t-29 9t-43 -9q-141 -52 -270 -52q-117 0 -189.5 38t-72.5 113q0 58 48 131q-43 -43 -64.5 -87z" />
    <glyph glyph-name="uni3054" unicode="&#x3054;" 
d="M910 682.5q-7 6.5 -17 22.5q-27 42 -61 73.5t-57 37.5q45 -4 85.5 -22t65.5 -43t25 -50q0 -11 -6 -18t-16 -7q-12 0 -19 6.5zM831.5 610q-6.5 6 -14.5 19q-28 48 -61.5 87.5t-55.5 48.5q44 -8 83.5 -30t63.5 -50.5t24 -54.5q0 -12 -6 -19t-16 -7q-11 0 -17.5 6zM566 605
q0 -3 -14 -11q-58 -32 -108.5 -65.5t-97.5 -81.5q73 46 147.5 79t127.5 47q50 12 93 14q27 2 27 29q0 24 -25 39.5t-63 15.5q-17 0 -81 -10q-7 -1 -49.5 -7.5t-79.5 -6.5q-56 0 -108 16t-100 68q41 -65 101.5 -96.5t119.5 -31.5q47 0 95 4q15 1 15 -2zM207.5 280.5
q-21.5 -43.5 -21.5 -82.5q0 -93 90.5 -140t236.5 -47q71 0 141.5 10t122.5 29q61 23 61 61q0 17 -10 26t-29 9t-43 -9q-141 -52 -270 -52q-117 0 -189.5 38t-72.5 113q0 58 47 131q-42 -43 -63.5 -86.5z" />
    <glyph glyph-name="uni3055" unicode="&#x3055;" 
d="M776 275q17 -17 24 -27.5t7 -25.5q0 -18 -11 -31t-29 -13q-10 0 -17.5 5.5t-19.5 18.5q-22 25 -43 38q-105 67 -226 67q-80 0 -130.5 -37.5t-50.5 -97.5t55 -97.5t142 -37.5q44 0 73.5 8.5t61.5 23.5q13 6 25 10.5t23 4.5q17 0 27.5 -8.5t10.5 -22.5q0 -37 -62.5 -59
t-148.5 -22q-79 0 -141 22.5t-96.5 63.5t-34.5 93q0 51 31.5 90.5t88 61t130.5 21.5q103 0 185 -24l6 6q-36 53 -117 194q-94 -24 -151 -24t-105 29t-90 92q75 -67 185 -67q56 0 134 20q-35 61 -67 123q-15 31 -36.5 44.5t-69.5 13.5q-9 0 -37 -2q88 33 120 33q13 0 41.5 -7
t33.5 -10q2 -2 10 -23q5 -16 14 -39q25 -59 54 -115q59 20 112 42q10 4 16.5 10.5t6.5 12.5v3q0 7 -5 12l80 -20q11 -3 11 -14q0 -12 -17.5 -23.5t-54.5 -26.5q-58 -25 -123 -46q82 -149 154 -222q10 -12 21 -21z" />
    <glyph glyph-name="uni3056" unicode="&#x3056;" 
d="M864 778q41 -18 66 -43t25 -50q0 -11 -6 -18t-16 -7q-12 0 -19 6.5t-17 22.5q-27 42 -61 73.5t-58 37.5q45 -4 86 -22zM740 275q17 -17 24 -27.5t7 -25.5q0 -18 -11 -31t-29 -13q-10 0 -18 6t-20 19q-22 25 -42 37q-106 67 -227 67q-80 0 -130 -37.5t-50 -97.5t55 -97.5
t142 -37.5q44 0 73 8.5t61 23.5q13 6 25 10.5t23 4.5q17 0 27.5 -8.5t10.5 -22.5q0 -37 -62.5 -59t-147.5 -22q-80 0 -141.5 22.5t-96 63.5t-34.5 93q0 51 31.5 90.5t88 61t129.5 21.5q103 0 185 -24l6 6q-41 62 -116 194q-88 -24 -151 -24q-58 0 -106 29t-89 92
q75 -67 184 -67q57 0 134 20q-52 93 -66 123q-16 31 -37.5 44.5t-69.5 13.5q-9 0 -37 -2q88 33 120 33q13 0 41.5 -7t33.5 -10q2 -2 12 -27q2 -5 13 -35q23 -54 53 -115q53 17 112 42q10 4 16.5 10.5t7.5 12.5v3q0 7 -5 12l79 -20q12 -3 12 -14t-17.5 -23t-54.5 -27
q-58 -25 -123 -46q82 -149 154 -222q11 -12 21 -21zM787.5 719q39.5 -22 63.5 -50.5t24 -54.5q0 -12 -6 -19t-16 -7q-11 0 -17.5 6t-14.5 19q-28 48 -61.5 87.5t-55.5 48.5q44 -8 83.5 -30z" />
    <glyph glyph-name="uni3057" unicode="&#x3057;" 
d="M330.5 382.5q-13.5 -98.5 -15.5 -184.5q-1 -72 44.5 -108t133.5 -36q113 0 210.5 58t151.5 157q-54 -143 -148.5 -220.5t-215.5 -77.5q-111 0 -169 53.5t-58 155.5q0 69 11 258q2 43 6 120t5 122q0 23 -3.5 32t-16.5 13q-16 6 -47 6q-26 0 -39 -2q33 15 68.5 24.5
t58.5 9.5q14 0 49 -18.5t35 -24.5q0 -2 -7.5 -19t-17.5 -92q-22 -128 -35.5 -226.5z" />
    <glyph glyph-name="uni3058" unicode="&#x3058;" 
d="M330.5 382.5q-13.5 -98.5 -15.5 -184.5q-1 -72 44.5 -108t133.5 -36q113 0 210.5 58t151.5 157q-54 -143 -148.5 -220.5t-215.5 -77.5q-111 0 -169 53.5t-58 155.5q0 69 11 258q2 43 6 120t5 122q0 23 -3.5 32t-16.5 13q-16 6 -47 6q-26 0 -39 -2q33 15 68.5 24.5
t58.5 9.5q14 0 49 -18.5t35 -24.5q0 -2 -7.5 -19t-17.5 -92q-22 -128 -35.5 -226.5zM645 540.5q-7 6.5 -17 23.5q-26 42 -60.5 73t-58.5 38q45 -4 86 -22t66 -43t25 -50q0 -11 -6 -18.5t-16 -7.5q-12 0 -19 6.5zM566.5 469q-6.5 6 -14.5 19q-28 48 -61.5 87.5t-55.5 48.5
q44 -8 83.5 -30t63.5 -50.5t24 -55.5q0 -11 -6 -18t-16 -7q-11 0 -17.5 6z" />
    <glyph glyph-name="uni3059" unicode="&#x3059;" 
d="M934 574q0 -8 -5.5 -13t-15.5 -5l-31 2q-11 2 -37 4q-126 9 -225 9h-36q-2 -108 7 -179q25 -37 25 -104q0 -80 -41 -149t-122.5 -116t-198.5 -64q103 32 172 89.5t94 123.5q-21 -9 -47 -9q-50 0 -82.5 34t-32.5 86q0 43 19.5 78t53 55t73.5 20q14 0 27 -3l-4 136
q-57 -4 -144.5 -17.5t-130.5 -22.5q-21 -5 -39 -12t-23 -8q-8 0 -34 14.5t-34 23.5q-15 17 -26 45.5t-12 50.5q14 -30 36.5 -44.5t57.5 -14.5q46 0 273 10l75 3l-3 73q-3 39 -16.5 54.5t-45.5 15.5q-17 0 -47 -5q78 34 120 34q10 0 26.5 -8.5t30 -18.5t13.5 -13
q0 -2 -6 -18.5t-11 -67.5l-3 -42q71 5 137 11.5t85 10.5q18 4 28.5 11.5t12.5 16.5l77 -60q10 -9 10 -17zM521.5 256.5q22.5 28.5 22.5 76.5q0 42 -15 62.5t-42 20.5q-38 0 -63.5 -33t-25.5 -77q0 -35 19 -56.5t49 -21.5q33 0 55.5 28.5z" />
    <glyph glyph-name="uni305A" unicode="&#x305a;" 
d="M808 842.5q-33 30.5 -56 36.5q44 -4 83.5 -21.5t63.5 -42t24 -48.5q0 -11 -5.5 -18t-15.5 -7q-11 0 -17.5 6.5t-17.5 22.5q-26 41 -59 71.5zM733 783q-33 38 -54 46q43 -7 81 -28.5t61.5 -49t23.5 -53.5q0 -12 -5.5 -18.5t-15.5 -6.5t-16.5 5.5t-14.5 18.5q-27 48 -60 86
zM926 574q0 -8 -5.5 -13t-14.5 -5t-33 3l-36 3q-126 9 -225 9h-36q0 -115 8 -179q25 -37 25 -104q0 -80 -41 -149t-122.5 -116t-198.5 -64q104 32 172 89.5t92 123.5q-19 -9 -45 -9q-50 0 -82.5 34t-32.5 86q0 43 19.5 78t53 55t73.5 20q14 0 27 -3l-4 136
q-57 -4 -144.5 -17.5t-130.5 -22.5q-21 -5 -39 -12t-23 -8q-8 0 -34 14.5t-34 23.5q-15 17 -26 45.5t-12 50.5q14 -30 36.5 -44.5t57.5 -14.5q50 0 277 10l71 3l-3 73q-3 39 -16.5 54.5t-45.5 15.5q-17 0 -47 -5q35 15 67 24.5t53 9.5q9 0 25.5 -8.5t30.5 -18.5t14 -13
q0 -2 -6.5 -18.5t-11.5 -67.5q-2 -22 -2 -42q71 5 137 11.5t85 10.5q18 4 28.5 11.5t12.5 16.5l77 -60q9 -8 9 -17zM514.5 256.5q22.5 28.5 22.5 76.5q0 42 -15.5 62.5t-42.5 20.5q-37 0 -62.5 -33t-25.5 -77q0 -35 19 -56.5t49 -21.5q33 0 55.5 28.5z" />
    <glyph glyph-name="uni305B" unicode="&#x305b;" 
d="M930 460q0 -7 -4.5 -11.5t-11.5 -4.5q-5 -1 -32 1l-26 1h-39q-38 0 -122 -2q-1 -35 -1 -101q0 -50 -1 -93t-5 -60q-5 -24 -23 -38.5t-44 -14.5q-6 0 -10.5 8t-9.5 16t-17 14l-163 84l156 -47q18 -5 28 -5q15 0 21 17t9 58q4 62 6 160q-111 -5 -142 -8q-60 -6 -127 -17
q-12 -192 -12 -241q0 -81 47.5 -113.5t136.5 -32.5q67 0 139 15q37 7 62.5 16t54.5 21q15 7 28 11.5t23 4.5q16 0 26.5 -9.5t10.5 -23.5q0 -29 -49 -50.5t-123.5 -33t-147.5 -11.5q-117 0 -181 41t-67 137q-2 78 -2 169l-1 90q-35 -6 -65 -14q-29 -7 -50.5 -16t-24.5 -9
q-8 0 -34 11.5t-34 19.5q-15 16 -27 45t-13 51q15 -31 41 -44t69 -13q41 0 137 7q0 53 -2 141q-1 45 -15.5 62.5t-49.5 17.5q-11 0 -45 -4q34 15 66 23.5t54 8.5q13 0 43.5 -16.5t30.5 -22.5q0 -2 -5 -19t-9 -69l-9 -118l133 12q87 10 133 16v43q0 39 -2 127q-1 46 -15.5 63
t-50.5 17q-10 0 -46 -4q76 34 118 34q13 0 41.5 -16t28.5 -22q0 -3 -4.5 -21.5t-8.5 -69.5q-6 -58 -6 -143q93 13 107 17q35 11 40 31l77 -56q10 -7 10 -17z" />
    <glyph glyph-name="uni305C" unicode="&#x305c;" 
d="M900 778.5q40 -17.5 64.5 -42t24.5 -48.5q0 -12 -6 -19t-16 -7q-11 0 -17.5 6.5t-17.5 22.5q-26 42 -59.5 72.5t-56.5 36.5q44 -4 84 -21.5zM915 460q0 -7 -4.5 -11.5t-11.5 -4.5q-5 -1 -32 1l-26 1h-39q-38 0 -122 -2q-1 -35 -1 -101q0 -50 -1 -93t-5 -60
q-5 -24 -23 -38.5t-44 -14.5q-6 0 -10.5 8t-9.5 16t-17 14l-163 84l156 -47q18 -5 28 -5q15 0 21 17t9 58q4 62 6 160q-111 -5 -142 -8q-60 -6 -127 -17q-12 -192 -12 -241q0 -81 47.5 -113.5t136.5 -32.5q67 0 139 15q37 7 62.5 16t54.5 21q15 7 28 11.5t23 4.5
q16 0 26.5 -9.5t10.5 -23.5q0 -29 -49 -50.5t-123.5 -33t-147.5 -11.5q-117 0 -181 41t-67 137q-2 78 -2 169l-1 90q-35 -6 -65 -14q-29 -7 -50.5 -16t-24.5 -9q-8 0 -34 11.5t-34 19.5q-15 16 -27 45t-13 51q15 -31 41 -44t69 -13q41 0 137 7q0 53 -2 141q-1 45 -15.5 62.5
t-49.5 17.5q-11 0 -45 -4q34 15 66 23.5t54 8.5q13 0 43.5 -16.5t30.5 -22.5q0 -2 -5 -19t-9 -69l-9 -118l133 12q87 10 133 16v43q0 39 -2 127q-1 46 -15.5 63t-50.5 17q-10 0 -46 -4q76 34 118 34q13 0 41.5 -16t28.5 -22q0 -3 -4.5 -21.5t-8.5 -69.5q-6 -58 -6 -143
q93 13 107 17q35 11 40 31l77 -56q10 -7 10 -17zM872.5 597.5q-6.5 5.5 -14.5 18.5q-28 48 -60.5 86.5t-54.5 47.5q43 -8 81.5 -29.5t62 -49.5t23.5 -54q0 -11 -5.5 -18t-15.5 -7t-16.5 5.5z" />
    <glyph glyph-name="uni305D" unicode="&#x305d;" 
d="M907 451q0 -10 -7 -16t-20 -5q-11 1 -33 1q-55 0 -100 -6q-81 -10 -141.5 -44t-92.5 -82.5t-32 -99.5q0 -66 56.5 -109t163.5 -43q36 0 76 8q24 4 31 4q15 0 24.5 -9t9.5 -26q0 -31 -39 -44.5t-100 -13.5q-86 0 -147.5 26.5t-93.5 72t-32 100.5q0 70 48.5 132t140.5 105
l-4 9q-105 -18 -194.5 -43.5t-199.5 -66.5q-17 -6 -39 -19q-13 -7 -24.5 -12t-18.5 -5q-20 0 -34 14t-14 32q0 19 11.5 27t32.5 11q71 12 110 20.5t58 23.5q43 30 169 137t185 170q9 9 9 15q0 5 -7 5q-5 0 -8 -1q-69 -16 -179 -57q-22 -9 -35 -16q-16 -8 -22 -8
q-12 1 -35.5 13t-31.5 21q-15 18 -25.5 45t-10.5 49q13 -31 35 -45.5t57 -16.5q27 0 99 9.5t104 16.5q41 7 56.5 21.5t17.5 15.5q9 0 26.5 -19t31.5 -41.5t14 -31.5q0 -1 -17.5 -9t-38.5 -22q-235 -156 -348 -244l5 -9q107 26 288 64l127 28q36 8 48.5 18t10.5 27l68 -55
q11 -10 11 -22z" />
    <glyph glyph-name="uni305E" unicode="&#x305e;" 
d="M903.5 749q39.5 -17 63.5 -41.5t24 -48.5q0 -11 -5.5 -18t-15.5 -7q-12 0 -18.5 6t-16.5 22q-26 41 -59 71.5t-56 36.5q44 -4 83.5 -21zM882 451q0 -10 -7 -16t-20 -5q-11 1 -33 1q-55 0 -100 -6q-82 -10 -142 -44t-92 -82.5t-32 -99.5q0 -66 56.5 -109t163.5 -43
q36 0 76 8q24 4 31 4q15 0 24.5 -9t9.5 -26q0 -31 -39 -44.5t-100 -13.5q-86 0 -148 26.5t-94 72t-32 100.5q0 70 49 132t141 105l-4 10q-106 -19 -195.5 -44.5t-199.5 -66.5q-6 -2 -37 -18q-4 -2 -19.5 -10t-25.5 -8q-20 0 -33.5 14t-13.5 32q0 19 11.5 27t31.5 11
q70 11 109.5 20t59.5 24q44 32 169.5 138.5t184.5 168.5q9 9 9 15q0 4 -4 5t-11 -1q-71 -16 -180 -57l-34 -15q-15 -9 -22 -9q-12 1 -36 13t-32 21q-15 18 -25 45t-10 49q13 -31 35 -45.5t57 -16.5q26 0 97.5 9.5t105.5 16.5q41 7 56 21.5t17 15.5q9 0 26.5 -19t32 -41.5
t14.5 -31.5q0 -1 -17.5 -9t-38.5 -22q-111 -74 -194.5 -131t-154.5 -113l5 -10q77 19 301 68l115 25q35 8 47.5 18t10.5 27l68 -55q12 -11 12 -22zM829 691.5q38 -21.5 61.5 -49t23.5 -53.5q0 -11 -6 -18t-15 -7q-11 0 -17.5 6t-13.5 18q-27 48 -59.5 86t-54.5 47
q43 -8 81 -29.5z" />
    <glyph glyph-name="uni305F" unicode="&#x305f;" 
d="M416 493q-37 -94 -154 -382l-27 -65q-17 -43 -30.5 -60.5t-34.5 -17.5q-19 0 -32.5 13t-13.5 31q0 10 5.5 22t21.5 40l25 44q87 156 135 274q16 39 36 92q-38 -2 -53 -2q-69 0 -111.5 36t-68.5 96q31 -39 69.5 -60t97.5 -21q42 0 85 6q21 65 35 122q7 28 7 47
q0 25 -18 36q-23 11 -83 10q89 27 122 22q13 -1 44.5 -20.5t31.5 -25.5q-1 -4 -8.5 -23t-16.5 -44q-18 -51 -42 -112q84 18 145 41q23 9 25 23v3q0 5 -4 11l76 -20q11 -4 11 -13q0 -23 -74 -51q-97 -34 -201 -52zM684 421q-116 0 -234 -36q64 38 148.5 60t155.5 22
q55 0 89 -15t34 -43q0 -13 -8 -22t-20 -9q-7 0 -26.5 3.5t-36.5 3.5q-32 0 -92.5 -18.5t-110.5 -39.5q69 52 150 83q13 6 13 7q0 2 -7 2.5t-11 0.5q-14 1 -44 1zM886 99q9 -9 9 -24q0 -38 -65.5 -60.5t-159.5 -22.5q-110 0 -172.5 36.5t-62.5 99.5q0 67 93 141
q-52 -67 -52 -111q0 -47 46 -72.5t120 -25.5q62 0 100.5 9.5t77.5 25.5q12 5 23 9t20 4q14 0 23 -9z" />
    <glyph glyph-name="uni3060" unicode="&#x3060;" 
d="M829.5 765.5q40.5 -17.5 65.5 -42.5t25 -50q0 -12 -6 -19t-16 -7q-12 0 -19 7t-16 22q-27 43 -61 74t-58 38q45 -5 85.5 -22.5zM416 493q-37 -94 -154 -382l-27 -65q-17 -43 -30.5 -60.5t-34.5 -17.5q-19 0 -32.5 13t-13.5 31q0 10 5.5 22t21.5 40l25 44q87 156 135 274
q16 39 36 92q-38 -2 -53 -2q-69 0 -111.5 36t-68.5 96q31 -39 69.5 -60t97.5 -21q42 0 85 6q21 65 35 122q7 28 7 47q0 25 -18 36q-23 11 -83 10q89 27 122 22q13 -1 44.5 -20.5t31.5 -25.5q-1 -4 -8.5 -23t-16.5 -44q-18 -51 -42 -112q84 18 145 41q23 9 25 23v3q0 5 -4 11
l76 -20q11 -4 11 -13q0 -23 -74 -51q-97 -34 -201 -52zM752.5 707q39.5 -22 63.5 -50.5t24 -55.5q0 -12 -6 -19t-16 -7t-17 6t-15 19q-28 50 -61.5 89t-55.5 48q44 -8 83.5 -30zM746 417q0 2 -7 2.5t-11 0.5q-14 1 -44 1q-116 0 -234 -36q64 38 148.5 60t155.5 22
q55 0 89 -15t34 -43q0 -13 -8 -22t-20 -9q-7 0 -26.5 3.5t-36.5 3.5q-32 0 -92.5 -18.5t-110.5 -39.5q69 52 150 83q13 6 13 7zM886 99q9 -9 9 -24q0 -38 -65.5 -60.5t-159.5 -22.5q-110 0 -172.5 36.5t-62.5 99.5q0 67 93 141q-52 -67 -52 -111q0 -47 46 -72.5t120 -25.5
q62 0 100.5 9.5t77.5 25.5q12 5 23 9t20 4q14 0 23 -9z" />
    <glyph glyph-name="uni3061" unicode="&#x3061;" 
d="M747.5 371q50.5 -22 78 -62.5t27.5 -93.5q-1 -75 -53 -133t-148.5 -90t-225.5 -32q-17 0 -57 2q119 7 211 44t143.5 96t51.5 129q0 65 -41 104.5t-107 39.5q-148 0 -297 -174q-18 -22 -37 -56q-11 -21 -19.5 -30t-22.5 -9q-19 0 -32.5 13t-13.5 32q0 13 5.5 24.5
t18.5 32.5l12 20q25 48 55 125.5t56 159.5h-14q-63 1 -114.5 34.5t-97.5 115.5q44 -54 91 -75t111 -21q27 0 41 1q19 64 30 117q2 12 2 17q0 30 -26.5 40t-75.5 7q36 13 70 19.5t51 5.5q13 -1 44 -21.5t31 -26.5q0 -2 -7 -16.5t-21 -56.5l-28 -77q82 11 144 34q31 12 32 25
q0 5 -5 15l79 -19q14 -5 14 -15q0 -14 -18.5 -26.5t-55.5 -25.5q-99 -34 -211 -47l-23 -66l-62 -171l6 -6q74 57 148 88t145 31q65 0 115.5 -22z" />
    <glyph glyph-name="uni3062" unicode="&#x3062;" 
d="M832.5 772q40.5 -18 65.5 -43t25 -50q0 -11 -6 -18t-16 -7q-12 0 -19 7t-16 22q-28 43 -62 74t-57 37q45 -4 85.5 -22zM738.5 371q50.5 -22 78 -62.5t27.5 -93.5q-1 -75 -53 -133t-148.5 -90t-225.5 -32q-17 0 -57 2q119 7 211.5 44t144 96t51.5 129q0 65 -41.5 104.5
t-107.5 39.5q-148 0 -297 -174q-20 -24 -37 -57q-12 -21 -20 -29.5t-21 -8.5q-20 0 -33 13t-13 32q0 13 6 25.5t19 34.5l10 17q26 49 56 127.5t55 157.5h-14q-63 1 -114.5 34.5t-96.5 115.5q44 -54 91 -75t111 -21q27 0 40 1q23 78 30 117q2 12 2 17q0 30 -26.5 40t-75.5 7
q37 13 70.5 19.5t50.5 5.5q13 -1 44 -21.5t31 -26.5q0 -2 -7 -16.5t-21 -56.5l-28 -77q83 11 144 34q31 12 32 25q0 8 -5 15l80 -19q13 -5 13 -15q0 -14 -18.5 -26.5t-54.5 -25.5q-99 -34 -212 -47l-23 -66l-62 -171l6 -5q73 57 147.5 87.5t145.5 30.5q65 0 115.5 -22z
M727.5 695q-33.5 39 -55.5 48q44 -8 83.5 -30t63.5 -50t24 -55q0 -12 -6 -19t-16 -7t-17 6t-15 19q-28 49 -61.5 88z" />
    <glyph glyph-name="uni3063" unicode="&#x3063;" 
d="M631 127.5q90 70.5 90 165.5q0 58 -32 93.5t-83 35.5q-45 0 -94.5 -22t-135.5 -70q-41 -24 -67 -37q-14 -8 -24 -15t-13 -7q-7 0 -29 13t-29 21q-19 25 -28 94q11 -28 26 -40t35 -12q14 0 37.5 7.5t63.5 22.5q81 29 139.5 45t114.5 16q57 0 102 -21.5t70 -59t25 -84.5
q-1 -67 -49.5 -120.5t-142.5 -85.5t-225 -38q159 28 249 98.5z" />
    <glyph glyph-name="uni3064" unicode="&#x3064;" 
d="M592.5 123q110.5 49 170 121t59.5 154q0 73 -47 120t-127 47q-76 0 -162.5 -37.5t-226.5 -116.5l-23 -13l-26 -16q-22 -14 -25 -14q-10 0 -37 14t-37 24q-10 13 -21.5 45.5t-16.5 67.5q14 -31 33.5 -45.5t47.5 -14.5q18 0 48.5 9.5t87.5 30.5q105 39 189.5 62t163.5 23
q77 0 138 -28t95.5 -77t33.5 -108q-2 -88 -71 -159t-198.5 -113t-305.5 -42q147 17 257.5 66z" />
    <glyph glyph-name="uni3065" unicode="&#x3065;" 
d="M898 699q-37 34 -77.5 55t-65.5 22q22 3 46 3q58 0 102 -19t52 -50q1 -3 1 -9q0 -9 -6 -15.5t-18 -6.5q-14 0 -34 20zM845 606q-41 40 -83.5 69t-65.5 32q8 1 23 1q63 0 115 -26t62 -62q1 -3 1 -9q0 -10 -6.5 -16t-16.5 -6q-14 0 -29 17zM592.5 123q110.5 49 170 121
t59.5 154q0 73 -47 120t-127 47q-76 0 -162.5 -37.5t-226.5 -116.5l-23 -13l-26 -16q-22 -14 -25 -14q-10 0 -37 14t-37 24q-10 13 -21.5 45.5t-16.5 67.5q14 -31 33.5 -45.5t47.5 -14.5q18 0 48.5 9.5t87.5 30.5q105 39 189.5 62t163.5 23q77 0 138 -28t95.5 -77t33.5 -108
q-2 -88 -71 -159t-198.5 -113t-305.5 -42q147 17 257.5 66z" />
    <glyph glyph-name="uni3066" unicode="&#x3066;" 
d="M917.5 695.5q17.5 -15.5 17.5 -40.5q0 -15 -7 -25.5t-17 -10.5q-5 0 -31 4.5t-54 4.5q-39 0 -79 -10q-86 -23 -150 -71.5t-98 -111t-34 -127.5q0 -72 40.5 -125t115 -81.5t175.5 -29.5q34 0 51 -9t17 -29q0 -23 -21 -36t-61 -13q-111 0 -195.5 35.5t-131.5 100t-47 149.5
q0 97 65 186t190 150l-5 9q-144 -36 -359 -112l-55 -19q-24 -9 -52 -23q-18 -8 -21 -8q-9 0 -37.5 17.5t-36.5 27.5q-15 18 -26 44t-12 51q14 -29 35 -43t52 -14q37 0 130 21q91 21 208.5 50t213.5 53q16 4 77 24q31 10 59 18.5t41 8.5q25 0 42.5 -15.5z" />
    <glyph glyph-name="uni3067" unicode="&#x3067;" 
d="M847 63q17 -9 17 -29q0 -23 -21 -36t-61 -13q-111 0 -195.5 35.5t-131.5 100t-47 149.5q0 97 65 186t190 150l-5 9q-144 -36 -359 -112l-55 -19q-24 -9 -52 -23q-18 -8 -21 -8q-9 0 -37.5 17.5t-36.5 27.5q-15 18 -26 44t-12 51q14 -29 35 -43t52 -14q37 0 130 21
q91 21 208.5 50t213.5 53q16 4 77 24q31 10 59 18.5t41 8.5q25 0 42.5 -15.5t17.5 -40.5q0 -15 -7 -25.5t-17 -10.5q-5 0 -31 4.5t-54 4.5q-39 0 -79 -10q-86 -23 -150 -71.5t-98 -111t-34 -127.5q0 -72 40.5 -125t115 -81.5t175.5 -29.5q34 0 51 -9zM844.5 561.5
q40.5 -17.5 65.5 -42.5t25 -50q0 -12 -6 -19t-16 -7q-12 0 -19 7t-16 22q-27 43 -61 74t-58 38q45 -5 85.5 -22.5zM739.5 484q-33.5 39 -55.5 48q44 -8 83.5 -30t63.5 -50t24 -55q0 -12 -6 -19t-16 -7t-17 6t-15 19q-28 49 -61.5 88z" />
    <glyph glyph-name="uni3068" unicode="&#x3068;" horiz-adv-x="999" 
d="M781.5 92.5q11.5 -10.5 11.5 -26.5q0 -40 -73.5 -60.5t-179.5 -20.5q-149 0 -231.5 51t-82.5 141q0 60 45 114t129 113q-54 36 -60 87q-7 47 -14 138q-2 13 -4 39q-5 46 -35.5 62t-78.5 15q30 10 63 14t55 3q16 -1 48 -19.5t32 -24.5q0 -2 -5 -16t-5 -68q1 -102 6.5 -142
t26.5 -68q33 22 103 66q72 45 82 52q30 19 30 39q0 16 -17 30t-48 23q38 -2 69 -12.5t46 -23.5q5 -4 17 -41t12 -45q0 -4 -19 -13t-58 -26l-61 -26q-99 -41 -165 -74.5t-114.5 -79.5t-48.5 -101q0 -63 65 -96t180 -33q67 0 112.5 8.5t90.5 21.5q33 10 48 10q17 0 28.5 -10.5
z" />
    <glyph glyph-name="uni3069" unicode="&#x3069;" 
d="M826.5 765.5q40.5 -17.5 65.5 -42.5t25 -50q0 -12 -6 -19t-16 -7q-12 0 -19 7t-16 22q-26 42 -60.5 73.5t-58.5 38.5q45 -5 85.5 -22.5zM774.5 92.5q11.5 -10.5 11.5 -26.5q0 -40 -73.5 -60.5t-179.5 -20.5q-150 0 -232 51t-82 141q0 60 45 114t129 113q-54 36 -61 87
l-12 118q-1 18 -5 59q-5 46 -35.5 62t-78.5 15q30 10 63 14t55 3q16 -1 48 -19.5t32 -24.5q0 -2 -5 -16t-6 -68q2 -102 7.5 -142t26.5 -68q59 40 133 86q17 10 51 32q30 19 30 39q0 16 -17 30t-47 23q38 -2 69 -12.5t46 -23.5q5 -4 16.5 -41t11.5 -45q0 -4 -18.5 -13
t-57.5 -26l-62 -26q-102 -43 -167 -75.5t-113 -78.5t-48 -101q0 -63 65.5 -96t180.5 -33q66 0 108.5 7.5t93.5 21.5q37 11 49 11q17 0 28.5 -10.5zM749.5 707q39.5 -22 63.5 -50.5t24 -55.5q0 -12 -6 -19t-15 -7q-11 0 -17.5 6t-14.5 19q-28 49 -62 88.5t-56 48.5
q44 -8 83.5 -30z" />
    <glyph glyph-name="uni306A" unicode="&#x306a;" 
d="M379 509q-28 -58 -48 -98t-32 -65l-28 -57q-39 -79 -62 -131l-10 -22q-16 -37 -27.5 -52t-30.5 -15q-18 0 -31 13t-13 34q0 15 12 36t48 72q68 98 129 217q14 27 30 64h-6q-55 0 -93 37.5t-66 98.5q30 -42 66 -63t83 -21q25 0 38 1q23 59 35 105q5 18 5 36q0 28 -22 37
t-79 10q79 25 120 23q11 0 44 -21.5t33 -27.5q0 -4 -11 -25l-18 -41q-23 -54 -39 -88q55 10 94 26q9 3 14 9t6 12q1 2 1 5q0 5 -3 9l79 -18q10 -3 10 -11q0 -10 -16.5 -23t-50.5 -26q-70 -29 -161 -40zM818.5 106q46.5 -36 46.5 -74q0 -16 -9 -27t-23 -11q-7 0 -13.5 6
t-20.5 22q-23 26 -43 43.5t-49 33.5q1 -10 1 -25q0 -53 -34 -80.5t-100 -27.5q-70 0 -114.5 29.5t-44.5 74.5q0 48 48.5 74t137.5 26q18 0 28 -1l-7 49q-15 98 -15 133q0 38 29.5 57t80.5 19q26 0 43.5 -4t21.5 -4q10 0 10 12q0 29 -24.5 55t-61.5 43t-73 21q22 2 32 2
q52 0 99.5 -16t76.5 -45t29 -65q0 -19 -12 -31.5t-34 -12.5q-3 0 -13 8t-24 14t-36 6q-74 0 -74 -57q0 -28 5.5 -72.5t11.5 -86.5l5 -35q73 -17 119.5 -53zM634 124q-42 6 -71 6q-54 0 -89.5 -14.5t-35.5 -41.5q0 -24 31 -39.5t81 -15.5q85 0 85 74z" />
    <glyph glyph-name="uni306B" unicode="&#x306b;" 
d="M204 21.5q-31 31.5 -48.5 90t-17.5 136.5q0 58 8 115t23 131q19 97 21 136q2 41 -14.5 67.5t-53.5 49.5q36 -9 59.5 -17.5t42.5 -20.5q14 -9 36.5 -36.5t22.5 -35.5q0 -2 -11 -26q-35 -77 -62.5 -162t-27.5 -174q0 -54 10.5 -95.5t27 -64.5t32.5 -23q8 0 13 4.5t12 16.5
l117 239l-93 -297q-5 -20 -4.5 -37t0.5 -19q-1 -4 -8 -6.5t-16 -2.5q-38 0 -69 31.5zM738 563q8 4 8 8q0 5 -10 6t-32 1q-63 0 -131.5 -13.5t-123.5 -35.5q62 43 142.5 70t153.5 27q55 0 92.5 -17t36.5 -43q0 -13 -7.5 -21.5t-19.5 -8.5q-3 0 -24 0.5t-44 -2.5
q-80 -13 -208 -84q81 72 167 113zM505.5 62.5q-68.5 46.5 -68.5 125.5q0 41 22.5 86.5t67.5 90.5q-51 -80 -51 -142q0 -64 52.5 -98.5t148.5 -34.5q53 0 87.5 9.5t67.5 24.5q4 2 17.5 7.5t24.5 5.5q15 0 25 -10t10 -26q0 -39 -62 -62t-154 -23q-119 0 -187.5 46.5z" />
    <glyph glyph-name="uni306C" unicode="&#x306c;" 
d="M905 102.5q17 -24.5 17 -48.5q0 -19 -9 -30.5t-24 -11.5q-8 0 -16.5 8.5t-21.5 26.5q-28 33 -34 40q-34 -39 -77.5 -60t-95.5 -21q-58 0 -94 26.5t-36 68.5q0 46 40.5 75t108.5 29q66 0 128 -23q27 64 27 139q0 77 -29.5 135t-84.5 89.5t-128 31.5h-7q-68 -225 -143 -359
q7 -5 14 -8q14 -7 21.5 -18.5t7.5 -24.5q0 -15 -9 -25t-23 -10q-24 0 -51 22q-84 -122 -169 -123q-43 -1 -70 36.5t-27 97.5q0 65 35 136t95 133l-10 32l-18 54q-17 51 -43.5 82t-70.5 56q43 -8 83 -22t57 -26q10 -6 16 -22.5t12 -46.5l15 -69q47 41 100.5 69t108.5 41
l11 45q9 41 9 62q0 23 -10 34q-10 13 -31.5 18.5t-59.5 5.5q45 13 96 13q16 0 32 -2q12 -1 38.5 -20.5t26.5 -24.5q0 -2 -6.5 -14t-18.5 -57q-5 -21 -14 -49h10q93 0 163.5 -35t109.5 -98.5t39 -147.5q0 -88 -37 -164q30 -21 47 -45.5zM390 519.5q-51 -31.5 -93 -75.5
q14 -57 29 -97.5t36 -70.5q8 -13 16 -21q69 132 117 310q-54 -14 -105 -45.5zM286.5 125.5q29.5 26.5 59.5 74.5q-39 62 -86 202q-40 -50 -62 -105t-22 -106q0 -42 14 -67t40 -25q27 0 56.5 26.5zM700 76.5q35 19.5 61 54.5q-53 31 -125 32q-48 0 -76 -14.5t-28 -38.5
q0 -26 25 -39.5t67 -13.5q41 0 76 19.5z" />
    <glyph glyph-name="uni306D" unicode="&#x306d;" 
d="M903 106.5q17 -23.5 17 -48.5q0 -18 -10 -29t-25 -11q-7 0 -14.5 7t-20.5 24q-11 16 -32 39q-69 -82 -173 -82q-57 0 -95.5 27t-38.5 70q0 44 41.5 71.5t112.5 27.5q61 0 121 -20q29 66 29 155q0 69 -20 122t-57 83t-86 30q-79 0 -153 -54t-152 -152v-4q1 -65 11 -220
q5 -63 5 -84q0 -49 -24.5 -72.5t-56.5 -23.5q-15 0 -15 13v11q0 9 -4 15.5t-14 16.5l-88 84q-6 -13 -9.5 -21.5t-5.5 -13.5q-8 -19 -12.5 -24.5t-14.5 -5.5q-18 0 -30 15t-12 36q0 14 6.5 25.5t25.5 33.5q4 5 9.5 12t12.5 16q77 102 165 197l-1 147l-64 -41
q-19 -13 -38.5 -24.5t-23.5 -11.5q-9 0 -34 11t-33 20q-22 32 -36 94q14 -31 36 -45t57 -14q51 1 136 35l-1 129q0 26 -4 41.5t-14 23.5q-11 10 -38 10q-26 0 -51 -5q74 34 119 34q13 0 41.5 -16.5t28.5 -22.5q0 -3 -6.5 -22t-11.5 -78q-5 -65 -4 -52q9 -7 23.5 -31
t14.5 -30q0 -1 -24 -27l-19 -19q-2 -38 -2 -60q99 94 181 135.5t147 41.5q66 0 115.5 -33.5t76.5 -93.5t27 -138q0 -100 -38 -181q30 -19 47 -42.5zM292 63.5q4 11.5 4 34.5v210q-45 -58 -99 -141q-19 -29 -32 -56l81 -50q20 -9 31 -9t15 11.5zM697 76.5q36 19.5 62 56.5
q-55 29 -127 29q-48 0 -74.5 -15.5t-26.5 -39.5t23.5 -37t66.5 -13q40 0 76 19.5z" />
    <glyph glyph-name="uni306E" unicode="&#x306e;" 
d="M714 652.5q87 -42.5 137 -117.5t50 -168q0 -99 -53.5 -178.5t-156 -131t-245.5 -66.5q110 22 193.5 76.5t130 136t46.5 181.5q0 83 -38.5 150t-107 105.5t-154.5 38.5q-27 0 -59 -5v-7q39 -4 58 -12q9 -4 33 -25t24 -25q-1 -2 -7 -15.5t-8 -25.5q-19 -109 -67.5 -223
t-112 -188.5t-124.5 -74.5q-39 0 -73.5 31t-55 85.5t-20.5 121.5q0 99 56 186.5t151.5 140t209.5 52.5q106 0 193 -42.5zM490 594q0 27 -18 43t-62 26q-70 -22 -125.5 -71.5t-86 -117t-30.5 -141.5q0 -51 14 -92.5t35.5 -65t44.5 -23.5q43 0 91 69t85.5 169t49.5 185
q2 14 2 19z" />
    </font>
</defs>
</svg>
