<svg width="24" height="24" viewBox="0 0 24 24" fill="none" xmlns="http://www.w3.org/2000/svg">
<g id="email">
<path id="Vector" d="M2.9536 21.129C2.39065 21.129 1.91145 20.9313 1.51601 20.5359C1.12057 20.1405 0.922852 19.6612 0.922852 19.0981V5.72334C0.922852 5.16022 1.12057 4.68094 1.51601 4.28551C1.91145 3.89009 2.39065 3.69238 2.9536 3.69238H21.0459C21.6089 3.69238 22.0881 3.89009 22.4835 4.28551C22.879 4.68094 23.0767 5.16022 23.0767 5.72334V19.0981C23.0767 19.6612 22.879 20.1405 22.4835 20.5359C22.0881 20.9313 21.6089 21.129 21.0459 21.129H2.9536ZM11.9998 12.988L21.4101 6.95695L21.2268 5.35904L11.9998 11.2434L2.77282 5.35904L2.5895 6.95695L11.9998 12.988Z" fill="white"/>
</g>
</svg>
