<svg width="24" height="24" viewBox="0 0 24 24" fill="none" xmlns="http://www.w3.org/2000/svg">
<g id="facebook">
<path id="Vector" d="M23 12.0666C22.9997 9.95151 22.3972 7.8808 21.2635 6.09959C20.1301 4.31837 18.5129 2.90125 16.6039 2.01602C14.6948 1.13079 12.5735 0.814502 10.4912 1.10461C8.40899 1.39472 6.45298 2.27906 4.85473 3.65295C3.2565 5.02686 2.08299 6.83276 1.47312 8.85688C0.863249 10.881 0.842567 13.0386 1.41353 15.0742C1.98447 17.1097 3.12315 18.9381 4.69476 20.3427C6.26637 21.7474 8.20507 22.6696 10.2813 22.9999V15.2657H7.48823V12.0666H10.2813V9.62811C10.2813 6.85405 11.9235 5.32226 14.4359 5.32226C15.2613 5.33367 16.0848 5.40588 16.8998 5.5383V8.25924H15.5111C15.2748 8.22775 15.0345 8.25014 14.8079 8.32474C14.5815 8.39932 14.3744 8.52423 14.2023 8.69018C14.0302 8.85614 13.8974 9.0589 13.8136 9.28347C13.7299 9.50804 13.6974 9.74869 13.7187 9.98764V12.0666H16.7695L16.2821 15.2657H13.7187V22.9999C16.3063 22.5882 18.6627 21.2606 20.3642 19.2564C22.0656 17.252 23.0003 14.7025 23 12.0666Z" fill="white"/>
</g>
</svg>
