<svg width="24" height="24" viewBox="0 0 24 24" fill="none" xmlns="http://www.w3.org/2000/svg">
<g id="weibo" clip-path="url(#clip0_140_1891)">
<path id="Vector" fill-rule="evenodd" clip-rule="evenodd" d="M23.6922 10.162C23.6922 10.1633 23.6922 10.1646 23.6922 10.1659C23.5353 10.6483 23.0173 10.9128 22.5349 10.7565C22.0512 10.6003 21.7867 10.0822 21.9429 9.59853C22.4227 8.11317 22.118 6.41901 20.9983 5.17676C19.8779 3.93451 18.226 3.46057 16.699 3.78474C16.2024 3.89043 15.7142 3.57338 15.6085 3.07674C15.5022 2.58139 15.8186 2.09253 16.3152 1.98556C18.4613 1.52911 20.787 2.19562 22.3631 3.94489C23.9399 5.69156 24.3653 8.07297 23.6922 10.162ZM17.3267 6.72569C16.9007 6.8184 16.4799 6.54414 16.3885 6.11753C16.2971 5.68961 16.5694 5.26883 16.9966 5.17806C18.0425 4.95503 19.1752 5.27856 19.9428 6.13049C20.7111 6.98178 20.9173 8.14169 20.5886 9.15962C20.4544 9.57582 20.0082 9.80281 19.5927 9.66988C19.1765 9.53502 18.9495 9.0883 19.0837 8.6727H19.0824C19.2438 8.17476 19.1427 7.60745 18.7674 7.19121C18.3926 6.77561 17.8382 6.61806 17.3267 6.72569ZM17.6437 8.20653C18.0594 8.80043 18.0191 9.63296 17.6359 10.5977C17.4589 11.0418 17.691 11.1105 18.0288 11.2123C19.4053 11.6389 20.938 12.6724 20.938 14.4923C20.938 17.5052 16.596 21.3001 10.0683 21.3001C5.0896 21.3001 0 18.8856 0 14.9138C0 12.8377 1.31487 10.4369 3.57828 8.17152C6.60156 5.14759 10.1267 3.76984 11.4525 5.09702C12.0374 5.68183 12.0938 6.69457 11.7177 7.90375C11.5219 8.51256 12.2889 8.17541 12.2889 8.17671C14.7326 7.15296 16.8644 7.09265 17.6437 8.20653ZM16.8093 14.4379C16.5519 11.8289 13.1221 10.0316 9.1483 10.4246C5.17583 10.8181 2.16292 13.2521 2.42096 15.8617C2.67901 18.472 6.10881 20.2686 10.0819 19.8763C14.0557 19.4834 17.0667 17.0488 16.8093 14.4379ZM7.5125 18.7553C5.60245 18.138 4.79395 16.2513 5.63033 14.5513C6.45179 12.8844 8.58812 11.9417 10.4788 12.4339C12.4355 12.9395 13.4339 14.7867 12.6345 16.58C11.8234 18.4156 9.49126 19.3939 7.5125 18.7553ZM8.59136 15.1822C7.97608 14.9241 7.1812 15.1893 6.80126 15.7852C6.41678 16.3836 6.59767 17.0961 7.20842 17.3743C7.82826 17.6576 8.65101 17.3886 9.03549 16.7752C9.4128 16.1554 9.21379 15.4473 8.59136 15.1822ZM10.1079 14.5533C9.87185 14.4593 9.57683 14.5727 9.43809 14.8055C9.30388 15.0389 9.37782 15.3047 9.61449 15.402C9.85505 15.5011 10.1623 15.3871 10.3011 15.1491C10.434 14.9099 10.3478 14.6408 10.1079 14.5533Z" fill="white"/>
</g>
<defs>
<clipPath id="clip0_140_1891">
<rect width="24" height="24" fill="white"/>
</clipPath>
</defs>
</svg>
