<svg width="24" height="24" viewBox="0 0 24 24" fill="none" xmlns="http://www.w3.org/2000/svg">
<g id="whatsapp">
<path id="Vector" fill-rule="evenodd" clip-rule="evenodd" d="M19.7945 4.19693C17.7267 2.13639 14.9765 1.00105 12.0462 1C6.00812 1 1.09402 5.89001 1.09192 11.9007C1.09087 13.8222 1.59562 15.6977 2.55417 17.3505L1 23L6.807 21.4842C8.40685 22.3529 10.2084 22.8102 12.0415 22.8108H12.0462C18.0833 22.8108 22.9979 17.9203 23 11.9095C23.001 8.99652 21.8629 6.25748 19.7945 4.19693ZM12.0462 20.9698H12.0425C10.409 20.9693 8.80658 20.5323 7.40842 19.7069L7.07592 19.5104L3.62985 20.41L4.54954 17.0661L4.33314 16.7232C3.42186 15.2806 2.94022 13.6131 2.94127 11.9012C2.94337 6.90564 7.0276 2.841 12.05 2.841C14.4817 2.84204 16.7676 3.78555 18.4866 5.49849C20.2057 7.21091 21.1517 9.48787 21.1506 11.9085C21.1485 16.9047 17.0643 20.9698 12.0462 20.9698ZM17.0401 14.1839C16.7665 14.0475 15.4209 13.3889 15.1697 13.2979C14.9188 13.207 14.7365 13.1615 14.5542 13.4343C14.372 13.7073 13.8473 14.3209 13.6876 14.5022C13.5279 14.6841 13.3682 14.7067 13.0946 14.5702C12.821 14.4338 11.939 14.1462 10.8933 13.2185C10.0798 12.496 9.53032 11.6043 9.3707 11.3314C9.21101 11.0586 9.35389 10.9112 9.49041 10.7758C9.6133 10.6535 9.76407 10.4575 9.90114 10.2986C10.0383 10.1397 10.0834 10.0257 10.1748 9.84433C10.2662 9.66242 10.2205 9.50356 10.1522 9.36708C10.0839 9.23067 9.53667 7.88988 9.30818 7.34471C9.08598 6.81364 8.86017 6.88578 8.6926 6.87689C8.53292 6.86904 8.35069 6.86748 8.1679 6.86748C7.98512 6.86748 7.68885 6.93543 7.43781 7.20829C7.18677 7.48112 6.47978 8.14026 6.47978 9.48051C6.47978 10.8208 7.46042 12.1166 7.5975 12.2985C7.73457 12.4804 9.52769 15.2315 12.2731 16.4118C12.926 16.6924 13.436 16.8602 13.8336 16.9857C14.4891 17.1932 15.0858 17.1639 15.5574 17.0939C16.0832 17.0155 17.1767 16.4348 17.4047 15.7986C17.6326 15.1624 17.6326 14.6167 17.5644 14.5033C17.4961 14.3898 17.3133 14.3214 17.0397 14.1849L17.0401 14.1839Z" fill="white"/>
</g>
</svg>
