<?xml version="1.0" encoding="UTF-8" standalone="no"?>
<!DOCTYPE svg PUBLIC "-//W3C//DTD SVG 1.1//EN" "http://www.w3.org/Graphics/SVG/1.1/DTD/svg11.dtd">
<svg width="100%" height="100%" viewBox="0 0 480 172" version="1.1" xmlns="http://www.w3.org/2000/svg" xmlns:xlink="http://www.w3.org/1999/xlink" xml:space="preserve" xmlns:serif="http://www.serif.com/" style="fill-rule:evenodd;clip-rule:evenodd;stroke-linejoin:round;stroke-miterlimit:2;">
    <g transform="matrix(1,0,0,1,-91.2344,-1.96899)">
        <g>
            <clipPath id="_clip1">
                <path d="M328.927,179.83C459.07,177.057 566.82,69.306 569.594,-60.836C572.368,-190.979 469.114,-294.232 338.972,-291.458C208.829,-288.685 101.079,-180.934 98.305,-50.792C95.531,79.351 198.785,182.604 328.927,179.83Z" clip-rule="nonzero"/>
            </clipPath>
            <g clip-path="url(#_clip1)">
                <path d="M91.234,9.326C91.234,5.249 94.377,1.969 98.284,1.969C102.192,1.969 105.335,5.249 105.335,9.326C105.335,13.404 102.192,16.684 98.284,16.684C94.377,16.684 91.234,13.404 91.234,9.326Z" style="fill:rgb(88,250,255);fill-rule:nonzero;"/>
                <path d="M119.434,9.326C119.434,5.249 122.576,1.969 126.484,1.969C130.391,1.969 133.534,5.249 133.534,9.326C133.534,13.404 130.391,16.684 126.484,16.684C122.576,16.684 119.434,13.404 119.434,9.326Z" style="fill:rgb(88,250,255);fill-rule:nonzero;"/>
                <path d="M147.641,9.326C147.641,5.249 150.784,1.969 154.691,1.969C158.598,1.969 161.742,5.249 161.742,9.326C161.742,13.404 158.598,16.684 154.691,16.684C150.784,16.684 147.641,13.404 147.641,9.326Z" style="fill:rgb(88,250,255);fill-rule:nonzero;"/>
                <path d="M175.836,9.326C175.836,5.249 178.979,1.969 182.886,1.969C186.794,1.969 189.937,5.249 189.937,9.326C189.937,13.404 186.794,16.684 182.886,16.684C178.979,16.684 175.836,13.404 175.836,9.326Z" style="fill:rgb(88,250,255);fill-rule:nonzero;"/>
                <path d="M204.041,9.326C204.041,5.249 207.184,1.969 211.091,1.969C214.999,1.969 218.142,5.249 218.142,9.326C218.142,13.404 214.999,16.684 211.091,16.684C207.184,16.684 204.041,13.404 204.041,9.326Z" style="fill:rgb(88,250,255);fill-rule:nonzero;"/>
                <path d="M232.248,9.326C232.248,5.249 235.391,1.969 239.299,1.969C243.206,1.969 246.348,5.249 246.348,9.326C246.348,13.404 243.206,16.684 239.299,16.684C235.391,16.684 232.248,13.404 232.248,9.326Z" style="fill:rgb(88,250,255);fill-rule:nonzero;"/>
                <path d="M260.441,9.326C260.441,5.249 263.584,1.969 267.492,1.969C271.399,1.969 274.542,5.249 274.542,9.326C274.542,13.404 271.399,16.684 267.492,16.684C263.584,16.684 260.441,13.404 260.441,9.326Z" style="fill:rgb(88,250,255);fill-rule:nonzero;"/>
                <path d="M288.73,9.326C288.73,5.249 291.873,1.969 295.78,1.969C299.688,1.969 302.831,5.249 302.831,9.326C302.831,13.404 299.688,16.684 295.78,16.684C291.873,16.684 288.73,13.404 288.73,9.326Z" style="fill:rgb(88,250,255);fill-rule:nonzero;"/>
                <path d="M316.93,9.326C316.93,5.249 320.072,1.969 323.98,1.969C327.887,1.969 331.03,5.249 331.03,9.326C331.03,13.404 327.887,16.684 323.98,16.684C320.072,16.684 316.93,13.404 316.93,9.326Z" style="fill:rgb(88,250,255);fill-rule:nonzero;"/>
                <path d="M345.137,9.326C345.137,5.249 348.28,1.969 352.187,1.969C356.095,1.969 359.238,5.249 359.238,9.326C359.238,13.404 356.095,16.684 352.187,16.684C348.28,16.684 345.137,13.404 345.137,9.326Z" style="fill:rgb(88,250,255);fill-rule:nonzero;"/>
                <path d="M373.328,9.326C373.328,5.249 376.471,1.969 380.379,1.969C384.286,1.969 387.429,5.249 387.429,9.326C387.429,13.404 384.286,16.684 380.379,16.684C376.471,16.684 373.328,13.404 373.328,9.326Z" style="fill:rgb(88,250,255);fill-rule:nonzero;"/>
                <path d="M401.535,9.326C401.535,5.249 404.678,1.969 408.586,1.969C412.493,1.969 415.636,5.249 415.636,9.326C415.636,13.404 412.493,16.684 408.586,16.684C404.678,16.684 401.535,13.404 401.535,9.326Z" style="fill:rgb(88,250,255);fill-rule:nonzero;"/>
                <path d="M429.736,9.326C429.736,5.249 432.879,1.969 436.787,1.969C440.694,1.969 443.837,5.249 443.837,9.326C443.837,13.404 440.694,16.684 436.787,16.684C432.879,16.684 429.736,13.404 429.736,9.326Z" style="fill:rgb(88,250,255);fill-rule:nonzero;"/>
                <path d="M458.023,9.326C458.023,5.249 461.166,1.969 465.073,1.969C468.981,1.969 472.124,5.249 472.124,9.326C472.124,13.404 468.981,16.684 465.073,16.684C461.166,16.684 458.023,13.404 458.023,9.326Z" style="fill:rgb(88,250,255);fill-rule:nonzero;"/>
                <path d="M486.225,9.326C486.225,5.249 489.367,1.969 493.275,1.969C497.182,1.969 500.325,5.249 500.325,9.326C500.325,13.404 497.182,16.684 493.275,16.684C489.367,16.684 486.225,13.404 486.225,9.326Z" style="fill:rgb(88,250,255);fill-rule:nonzero;"/>
                <path d="M514.424,9.326C514.424,5.249 517.566,1.969 521.474,1.969C525.381,1.969 528.524,5.249 528.524,9.326C528.524,13.404 525.381,16.684 521.474,16.684C517.566,16.684 514.424,13.404 514.424,9.326Z" style="fill:rgb(88,250,255);fill-rule:nonzero;"/>
                <path d="M542.629,9.326C542.629,5.249 545.772,1.969 549.679,1.969C553.587,1.969 556.73,5.249 556.73,9.326C556.73,13.404 553.587,16.684 549.679,16.684C545.772,16.684 542.629,13.404 542.629,9.326Z" style="fill:rgb(88,250,255);fill-rule:nonzero;"/>
                <path d="M105.166,29.626C105.166,25.548 108.309,22.269 112.216,22.269C116.124,22.269 119.267,25.548 119.267,29.626C119.267,33.704 116.124,36.983 112.216,36.983C108.309,36.983 105.166,33.704 105.166,29.626Z" style="fill:rgb(88,250,255);fill-rule:nonzero;"/>
                <path d="M133.359,29.626C133.359,25.548 136.502,22.269 140.41,22.269C144.317,22.269 147.46,25.548 147.46,29.626C147.46,33.704 144.317,36.983 140.41,36.983C136.502,36.983 133.359,33.704 133.359,29.626Z" style="fill:rgb(88,250,255);fill-rule:nonzero;"/>
                <path d="M161.648,29.626C161.648,25.548 164.791,22.269 168.699,22.269C172.606,22.269 175.749,25.548 175.749,29.626C175.749,33.704 172.606,36.983 168.699,36.983C164.791,36.983 161.648,33.704 161.648,29.626Z" style="fill:rgb(88,250,255);fill-rule:nonzero;"/>
                <path d="M189.855,29.626C189.855,25.548 192.999,22.269 196.906,22.269C200.813,22.269 203.956,25.548 203.956,29.626C203.956,33.704 200.813,36.983 196.906,36.983C192.999,36.983 189.855,33.704 189.855,29.626Z" style="fill:rgb(88,250,255);fill-rule:nonzero;"/>
                <path d="M218.061,29.626C218.061,25.548 221.203,22.269 225.11,22.269C229.018,22.269 232.161,25.548 232.161,29.626C232.161,33.704 229.018,36.983 225.11,36.983C221.203,36.983 218.061,33.704 218.061,29.626Z" style="fill:rgb(88,250,255);fill-rule:nonzero;"/>
                <path d="M246.254,29.626C246.254,25.548 249.396,22.269 253.304,22.269C257.211,22.269 260.354,25.548 260.354,29.626C260.354,33.704 257.211,36.983 253.304,36.983C249.396,36.983 246.254,33.704 246.254,29.626Z" style="fill:rgb(88,250,255);fill-rule:nonzero;"/>
                <path d="M274.461,29.626C274.461,25.548 277.603,22.269 281.511,22.269C285.418,22.269 288.561,25.548 288.561,29.626C288.561,33.704 285.418,36.983 281.511,36.983C277.603,36.983 274.461,33.704 274.461,29.626Z" style="fill:rgb(88,250,255);fill-rule:nonzero;"/>
                <path d="M302.66,29.626C302.66,25.548 305.803,22.269 309.711,22.269C313.618,22.269 316.761,25.548 316.761,29.626C316.761,33.704 313.618,36.983 309.711,36.983C305.803,36.983 302.66,33.704 302.66,29.626Z" style="fill:rgb(88,250,255);fill-rule:nonzero;"/>
                <path d="M330.949,29.626C330.949,25.548 334.092,22.269 338,22.269C341.907,22.269 345.05,25.548 345.05,29.626C345.05,33.704 341.907,36.983 338,36.983C334.092,36.983 330.949,33.704 330.949,29.626Z" style="fill:rgb(88,250,255);fill-rule:nonzero;"/>
                <path d="M359.143,29.626C359.143,25.548 362.286,22.269 366.193,22.269C370.1,22.269 373.243,25.548 373.243,29.626C373.243,33.704 370.1,36.983 366.193,36.983C362.286,36.983 359.143,33.704 359.143,29.626Z" style="fill:rgb(88,250,255);fill-rule:nonzero;"/>
                <path d="M387.35,29.626C387.35,25.548 390.493,22.269 394.4,22.269C398.307,22.269 401.45,25.548 401.45,29.626C401.45,33.704 398.307,36.983 394.4,36.983C390.493,36.983 387.35,33.704 387.35,29.626Z" style="fill:rgb(88,250,255);fill-rule:nonzero;"/>
                <path d="M415.549,29.626C415.549,25.548 418.691,22.269 422.599,22.269C426.506,22.269 429.649,25.548 429.649,29.626C429.649,33.704 426.506,36.983 422.599,36.983C418.691,36.983 415.549,33.704 415.549,29.626Z" style="fill:rgb(88,250,255);fill-rule:nonzero;"/>
                <path d="M443.748,29.626C443.748,25.548 446.891,22.269 450.798,22.269C454.705,22.269 457.848,25.548 457.848,29.626C457.848,33.704 454.705,36.983 450.798,36.983C446.891,36.983 443.748,33.704 443.748,29.626Z" style="fill:rgb(88,250,255);fill-rule:nonzero;"/>
                <path d="M471.949,29.626C471.949,25.548 475.092,22.269 478.999,22.269C482.907,22.269 486.05,25.548 486.05,29.626C486.05,33.704 482.907,36.983 478.999,36.983C475.092,36.983 471.949,33.704 471.949,29.626Z" style="fill:rgb(88,250,255);fill-rule:nonzero;"/>
                <path d="M500.236,29.626C500.236,25.548 503.379,22.269 507.287,22.269C511.194,22.269 514.337,25.548 514.337,29.626C514.337,33.704 511.194,36.983 507.287,36.983C503.379,36.983 500.236,33.704 500.236,29.626Z" style="fill:rgb(88,250,255);fill-rule:nonzero;"/>
                <path d="M528.443,29.626C528.443,25.548 531.586,22.269 535.494,22.269C539.401,22.269 542.544,25.548 542.544,29.626C542.544,33.704 539.401,36.983 535.494,36.983C531.586,36.983 528.443,33.704 528.443,29.626Z" style="fill:rgb(88,250,255);fill-rule:nonzero;"/>
                <path d="M556.637,29.626C556.637,25.548 559.78,22.269 563.687,22.269C567.595,22.269 570.737,25.548 570.737,29.626C570.737,33.704 567.595,36.983 563.687,36.983C559.78,36.983 556.637,33.704 556.637,29.626Z" style="fill:rgb(88,250,255);fill-rule:nonzero;"/>
                <path d="M91.234,48.507C91.234,44.429 94.377,41.149 98.284,41.149C102.192,41.149 105.335,44.429 105.335,48.507C105.335,52.584 102.192,55.864 98.284,55.864C94.377,55.864 91.234,52.584 91.234,48.507Z" style="fill:rgb(88,250,255);fill-rule:nonzero;"/>
                <path d="M119.434,48.507C119.434,44.429 122.576,41.149 126.484,41.149C130.391,41.149 133.534,44.429 133.534,48.507C133.534,52.584 130.391,55.864 126.484,55.864C122.576,55.864 119.434,52.584 119.434,48.507Z" style="fill:rgb(88,250,255);fill-rule:nonzero;"/>
                <path d="M147.641,48.507C147.641,44.429 150.784,41.149 154.691,41.149C158.598,41.149 161.742,44.429 161.742,48.507C161.742,52.584 158.598,55.864 154.691,55.864C150.784,55.864 147.641,52.584 147.641,48.507Z" style="fill:rgb(88,250,255);fill-rule:nonzero;"/>
                <path d="M175.836,48.507C175.836,44.429 178.979,41.149 182.886,41.149C186.794,41.149 189.937,44.429 189.937,48.507C189.937,52.584 186.794,55.864 182.886,55.864C178.979,55.864 175.836,52.584 175.836,48.507Z" style="fill:rgb(88,250,255);fill-rule:nonzero;"/>
                <path d="M204.041,48.507C204.041,44.429 207.184,41.149 211.091,41.149C214.999,41.149 218.142,44.429 218.142,48.507C218.142,52.584 214.999,55.864 211.091,55.864C207.184,55.864 204.041,52.584 204.041,48.507Z" style="fill:rgb(88,250,255);fill-rule:nonzero;"/>
                <path d="M232.248,48.507C232.248,44.429 235.391,41.149 239.299,41.149C243.206,41.149 246.348,44.429 246.348,48.507C246.348,52.584 243.206,55.864 239.299,55.864C235.391,55.864 232.248,52.584 232.248,48.507Z" style="fill:rgb(88,250,255);fill-rule:nonzero;"/>
                <path d="M260.441,48.507C260.441,44.429 263.584,41.149 267.492,41.149C271.399,41.149 274.542,44.429 274.542,48.507C274.542,52.584 271.399,55.864 267.492,55.864C263.584,55.864 260.441,52.584 260.441,48.507Z" style="fill:rgb(88,250,255);fill-rule:nonzero;"/>
                <path d="M288.73,48.507C288.73,44.429 291.873,41.149 295.78,41.149C299.688,41.149 302.831,44.429 302.831,48.507C302.831,52.584 299.688,55.864 295.78,55.864C291.873,55.864 288.73,52.584 288.73,48.507Z" style="fill:rgb(88,250,255);fill-rule:nonzero;"/>
                <path d="M316.93,48.507C316.93,44.429 320.072,41.149 323.98,41.149C327.887,41.149 331.03,44.429 331.03,48.507C331.03,52.584 327.887,55.864 323.98,55.864C320.072,55.864 316.93,52.584 316.93,48.507Z" style="fill:rgb(88,250,255);fill-rule:nonzero;"/>
                <path d="M345.137,48.507C345.137,44.429 348.28,41.149 352.187,41.149C356.095,41.149 359.238,44.429 359.238,48.507C359.238,52.584 356.095,55.864 352.187,55.864C348.28,55.864 345.137,52.584 345.137,48.507Z" style="fill:rgb(88,250,255);fill-rule:nonzero;"/>
                <path d="M373.328,48.507C373.328,44.429 376.471,41.149 380.379,41.149C384.286,41.149 387.429,44.429 387.429,48.507C387.429,52.584 384.286,55.864 380.379,55.864C376.471,55.864 373.328,52.584 373.328,48.507Z" style="fill:rgb(88,250,255);fill-rule:nonzero;"/>
                <path d="M401.535,48.507C401.535,44.429 404.678,41.149 408.586,41.149C412.493,41.149 415.636,44.429 415.636,48.507C415.636,52.584 412.493,55.864 408.586,55.864C404.678,55.864 401.535,52.584 401.535,48.507Z" style="fill:rgb(88,250,255);fill-rule:nonzero;"/>
                <path d="M429.736,48.507C429.736,44.429 432.879,41.149 436.787,41.149C440.694,41.149 443.837,44.429 443.837,48.507C443.837,52.584 440.694,55.864 436.787,55.864C432.879,55.864 429.736,52.584 429.736,48.507Z" style="fill:rgb(88,250,255);fill-rule:nonzero;"/>
                <path d="M458.023,48.507C458.023,44.429 461.166,41.149 465.073,41.149C468.981,41.149 472.124,44.429 472.124,48.507C472.124,52.584 468.981,55.864 465.073,55.864C461.166,55.864 458.023,52.584 458.023,48.507Z" style="fill:rgb(88,250,255);fill-rule:nonzero;"/>
                <path d="M486.225,48.507C486.225,44.429 489.367,41.149 493.275,41.149C497.182,41.149 500.325,44.429 500.325,48.507C500.325,52.584 497.182,55.864 493.275,55.864C489.367,55.864 486.225,52.584 486.225,48.507Z" style="fill:rgb(88,250,255);fill-rule:nonzero;"/>
                <path d="M514.424,48.507C514.424,44.429 517.566,41.149 521.474,41.149C525.381,41.149 528.524,44.429 528.524,48.507C528.524,52.584 525.381,55.864 521.474,55.864C517.566,55.864 514.424,52.584 514.424,48.507Z" style="fill:rgb(88,250,255);fill-rule:nonzero;"/>
                <path d="M542.629,48.507C542.629,44.429 545.772,41.149 549.679,41.149C553.587,41.149 556.73,44.429 556.73,48.507C556.73,52.584 553.587,55.864 549.679,55.864C545.772,55.864 542.629,52.584 542.629,48.507Z" style="fill:rgb(88,250,255);fill-rule:nonzero;"/>
                <path d="M105.166,68.806C105.166,64.728 108.309,61.449 112.216,61.449C116.124,61.449 119.267,64.728 119.267,68.806C119.267,72.884 116.124,76.163 112.216,76.163C108.309,76.163 105.166,72.884 105.166,68.806Z" style="fill:rgb(88,250,255);fill-rule:nonzero;"/>
                <path d="M133.359,68.806C133.359,64.728 136.502,61.449 140.41,61.449C144.317,61.449 147.46,64.728 147.46,68.806C147.46,72.884 144.317,76.163 140.41,76.163C136.502,76.163 133.359,72.884 133.359,68.806Z" style="fill:rgb(88,250,255);fill-rule:nonzero;"/>
                <path d="M161.648,68.806C161.648,64.728 164.791,61.449 168.699,61.449C172.606,61.449 175.749,64.728 175.749,68.806C175.749,72.884 172.606,76.163 168.699,76.163C164.791,76.163 161.648,72.884 161.648,68.806Z" style="fill:rgb(88,250,255);fill-rule:nonzero;"/>
                <path d="M189.855,68.806C189.855,64.728 192.999,61.449 196.906,61.449C200.813,61.449 203.956,64.728 203.956,68.806C203.956,72.884 200.813,76.163 196.906,76.163C192.999,76.163 189.855,72.884 189.855,68.806Z" style="fill:rgb(88,250,255);fill-rule:nonzero;"/>
                <path d="M218.061,68.806C218.061,64.728 221.203,61.449 225.11,61.449C229.018,61.449 232.161,64.728 232.161,68.806C232.161,72.884 229.018,76.163 225.11,76.163C221.203,76.163 218.061,72.884 218.061,68.806Z" style="fill:rgb(88,250,255);fill-rule:nonzero;"/>
                <path d="M246.254,68.806C246.254,64.728 249.396,61.449 253.304,61.449C257.211,61.449 260.354,64.728 260.354,68.806C260.354,72.884 257.211,76.163 253.304,76.163C249.396,76.163 246.254,72.884 246.254,68.806Z" style="fill:rgb(88,250,255);fill-rule:nonzero;"/>
                <path d="M274.461,68.806C274.461,64.728 277.603,61.449 281.511,61.449C285.418,61.449 288.561,64.728 288.561,68.806C288.561,72.884 285.418,76.163 281.511,76.163C277.603,76.163 274.461,72.884 274.461,68.806Z" style="fill:rgb(88,250,255);fill-rule:nonzero;"/>
                <path d="M302.66,68.806C302.66,64.728 305.803,61.449 309.711,61.449C313.618,61.449 316.761,64.728 316.761,68.806C316.761,72.884 313.618,76.163 309.711,76.163C305.803,76.163 302.66,72.884 302.66,68.806Z" style="fill:rgb(88,250,255);fill-rule:nonzero;"/>
                <path d="M330.949,68.806C330.949,64.728 334.092,61.449 338,61.449C341.907,61.449 345.05,64.728 345.05,68.806C345.05,72.884 341.907,76.163 338,76.163C334.092,76.163 330.949,72.884 330.949,68.806Z" style="fill:rgb(88,250,255);fill-rule:nonzero;"/>
                <path d="M359.143,68.806C359.143,64.728 362.286,61.449 366.193,61.449C370.1,61.449 373.243,64.728 373.243,68.806C373.243,72.884 370.1,76.163 366.193,76.163C362.286,76.163 359.143,72.884 359.143,68.806Z" style="fill:rgb(88,250,255);fill-rule:nonzero;"/>
                <path d="M387.35,68.806C387.35,64.728 390.493,61.449 394.4,61.449C398.307,61.449 401.45,64.728 401.45,68.806C401.45,72.884 398.307,76.163 394.4,76.163C390.493,76.163 387.35,72.884 387.35,68.806Z" style="fill:rgb(88,250,255);fill-rule:nonzero;"/>
                <path d="M415.549,68.806C415.549,64.728 418.691,61.449 422.599,61.449C426.506,61.449 429.649,64.728 429.649,68.806C429.649,72.884 426.506,76.163 422.599,76.163C418.691,76.163 415.549,72.884 415.549,68.806Z" style="fill:rgb(88,250,255);fill-rule:nonzero;"/>
                <path d="M443.748,68.806C443.748,64.728 446.891,61.449 450.798,61.449C454.705,61.449 457.848,64.728 457.848,68.806C457.848,72.884 454.705,76.163 450.798,76.163C446.891,76.163 443.748,72.884 443.748,68.806Z" style="fill:rgb(88,250,255);fill-rule:nonzero;"/>
                <path d="M471.949,68.806C471.949,64.728 475.092,61.449 478.999,61.449C482.907,61.449 486.05,64.728 486.05,68.806C486.05,72.884 482.907,76.163 478.999,76.163C475.092,76.163 471.949,72.884 471.949,68.806Z" style="fill:rgb(88,250,255);fill-rule:nonzero;"/>
                <path d="M500.236,68.806C500.236,64.728 503.379,61.449 507.287,61.449C511.194,61.449 514.337,64.728 514.337,68.806C514.337,72.884 511.194,76.163 507.287,76.163C503.379,76.163 500.236,72.884 500.236,68.806Z" style="fill:rgb(88,250,255);fill-rule:nonzero;"/>
                <path d="M528.443,68.806C528.443,64.728 531.586,61.449 535.494,61.449C539.401,61.449 542.544,64.728 542.544,68.806C542.544,72.884 539.401,76.163 535.494,76.163C531.586,76.163 528.443,72.884 528.443,68.806Z" style="fill:rgb(88,250,255);fill-rule:nonzero;"/>
                <path d="M556.637,68.806C556.637,64.728 559.78,61.449 563.687,61.449C567.595,61.449 570.737,64.728 570.737,68.806C570.737,72.884 567.595,76.163 563.687,76.163C559.78,76.163 556.637,72.884 556.637,68.806Z" style="fill:rgb(88,250,255);fill-rule:nonzero;"/>
                <path d="M91.234,87.775C91.234,83.697 94.377,80.417 98.284,80.417C102.192,80.417 105.335,83.697 105.335,87.775C105.335,91.852 102.192,95.132 98.284,95.132C94.377,95.132 91.234,91.852 91.234,87.775Z" style="fill:rgb(88,250,255);fill-rule:nonzero;"/>
                <path d="M119.434,87.775C119.434,83.697 122.576,80.417 126.484,80.417C130.391,80.417 133.534,83.697 133.534,87.775C133.534,91.852 130.391,95.132 126.484,95.132C122.576,95.132 119.434,91.852 119.434,87.775Z" style="fill:rgb(88,250,255);fill-rule:nonzero;"/>
                <path d="M147.641,87.775C147.641,83.697 150.784,80.417 154.691,80.417C158.598,80.417 161.742,83.697 161.742,87.775C161.742,91.852 158.598,95.132 154.691,95.132C150.784,95.132 147.641,91.852 147.641,87.775Z" style="fill:rgb(88,250,255);fill-rule:nonzero;"/>
                <path d="M175.836,87.775C175.836,83.697 178.979,80.417 182.886,80.417C186.794,80.417 189.937,83.697 189.937,87.775C189.937,91.852 186.794,95.132 182.886,95.132C178.979,95.132 175.836,91.852 175.836,87.775Z" style="fill:rgb(88,250,255);fill-rule:nonzero;"/>
                <path d="M204.041,87.775C204.041,83.697 207.184,80.417 211.091,80.417C214.999,80.417 218.142,83.697 218.142,87.775C218.142,91.852 214.999,95.132 211.091,95.132C207.184,95.132 204.041,91.852 204.041,87.775Z" style="fill:rgb(88,250,255);fill-rule:nonzero;"/>
                <path d="M232.248,87.775C232.248,83.697 235.391,80.417 239.299,80.417C243.206,80.417 246.348,83.697 246.348,87.775C246.348,91.852 243.206,95.132 239.299,95.132C235.391,95.132 232.248,91.852 232.248,87.775Z" style="fill:rgb(88,250,255);fill-rule:nonzero;"/>
                <path d="M260.441,87.775C260.441,83.697 263.584,80.417 267.492,80.417C271.399,80.417 274.542,83.697 274.542,87.775C274.542,91.852 271.399,95.132 267.492,95.132C263.584,95.132 260.441,91.852 260.441,87.775Z" style="fill:rgb(88,250,255);fill-rule:nonzero;"/>
                <path d="M288.73,87.775C288.73,83.697 291.873,80.417 295.78,80.417C299.688,80.417 302.831,83.697 302.831,87.775C302.831,91.852 299.688,95.132 295.78,95.132C291.873,95.132 288.73,91.852 288.73,87.775Z" style="fill:rgb(88,250,255);fill-rule:nonzero;"/>
                <path d="M316.93,87.775C316.93,83.697 320.072,80.417 323.98,80.417C327.887,80.417 331.03,83.697 331.03,87.775C331.03,91.852 327.887,95.132 323.98,95.132C320.072,95.132 316.93,91.852 316.93,87.775Z" style="fill:rgb(88,250,255);fill-rule:nonzero;"/>
                <path d="M345.137,87.775C345.137,83.697 348.28,80.417 352.187,80.417C356.095,80.417 359.238,83.697 359.238,87.775C359.238,91.852 356.095,95.132 352.187,95.132C348.28,95.132 345.137,91.852 345.137,87.775Z" style="fill:rgb(88,250,255);fill-rule:nonzero;"/>
                <path d="M373.328,87.775C373.328,83.697 376.471,80.417 380.379,80.417C384.286,80.417 387.429,83.697 387.429,87.775C387.429,91.852 384.286,95.132 380.379,95.132C376.471,95.132 373.328,91.852 373.328,87.775Z" style="fill:rgb(88,250,255);fill-rule:nonzero;"/>
                <path d="M401.535,87.775C401.535,83.697 404.678,80.417 408.586,80.417C412.493,80.417 415.636,83.697 415.636,87.775C415.636,91.852 412.493,95.132 408.586,95.132C404.678,95.132 401.535,91.852 401.535,87.775Z" style="fill:rgb(88,250,255);fill-rule:nonzero;"/>
                <path d="M429.736,87.775C429.736,83.697 432.879,80.417 436.787,80.417C440.694,80.417 443.837,83.697 443.837,87.775C443.837,91.852 440.694,95.132 436.787,95.132C432.879,95.132 429.736,91.852 429.736,87.775Z" style="fill:rgb(88,250,255);fill-rule:nonzero;"/>
                <path d="M458.023,87.775C458.023,83.697 461.166,80.417 465.073,80.417C468.981,80.417 472.124,83.697 472.124,87.775C472.124,91.852 468.981,95.132 465.073,95.132C461.166,95.132 458.023,91.852 458.023,87.775Z" style="fill:rgb(88,250,255);fill-rule:nonzero;"/>
                <path d="M486.225,87.775C486.225,83.697 489.367,80.417 493.275,80.417C497.182,80.417 500.325,83.697 500.325,87.775C500.325,91.852 497.182,95.132 493.275,95.132C489.367,95.132 486.225,91.852 486.225,87.775Z" style="fill:rgb(88,250,255);fill-rule:nonzero;"/>
                <path d="M514.424,87.775C514.424,83.697 517.566,80.417 521.474,80.417C525.381,80.417 528.524,83.697 528.524,87.775C528.524,91.852 525.381,95.132 521.474,95.132C517.566,95.132 514.424,91.852 514.424,87.775Z" style="fill:rgb(88,250,255);fill-rule:nonzero;"/>
                <path d="M542.629,87.775C542.629,83.697 545.772,80.417 549.679,80.417C553.587,80.417 556.73,83.697 556.73,87.775C556.73,91.852 553.587,95.132 549.679,95.132C545.772,95.132 542.629,91.852 542.629,87.775Z" style="fill:rgb(88,250,255);fill-rule:nonzero;"/>
                <path d="M105.166,107.986C105.166,103.908 108.309,100.629 112.216,100.629C116.124,100.629 119.267,103.908 119.267,107.986C119.267,112.064 116.124,115.343 112.216,115.343C108.309,115.343 105.166,112.064 105.166,107.986Z" style="fill:rgb(88,250,255);fill-rule:nonzero;"/>
                <path d="M133.359,107.986C133.359,103.908 136.502,100.629 140.41,100.629C144.317,100.629 147.46,103.908 147.46,107.986C147.46,112.064 144.317,115.343 140.41,115.343C136.502,115.343 133.359,112.064 133.359,107.986Z" style="fill:rgb(88,250,255);fill-rule:nonzero;"/>
                <path d="M161.648,107.986C161.648,103.908 164.791,100.629 168.699,100.629C172.606,100.629 175.749,103.908 175.749,107.986C175.749,112.064 172.606,115.343 168.699,115.343C164.791,115.343 161.648,112.064 161.648,107.986Z" style="fill:rgb(88,250,255);fill-rule:nonzero;"/>
                <path d="M189.855,107.986C189.855,103.908 192.999,100.629 196.906,100.629C200.813,100.629 203.956,103.908 203.956,107.986C203.956,112.064 200.813,115.343 196.906,115.343C192.999,115.343 189.855,112.064 189.855,107.986Z" style="fill:rgb(88,250,255);fill-rule:nonzero;"/>
                <path d="M218.061,107.986C218.061,103.908 221.203,100.629 225.11,100.629C229.018,100.629 232.161,103.908 232.161,107.986C232.161,112.064 229.018,115.343 225.11,115.343C221.203,115.343 218.061,112.064 218.061,107.986Z" style="fill:rgb(88,250,255);fill-rule:nonzero;"/>
                <path d="M246.254,107.986C246.254,103.908 249.396,100.629 253.304,100.629C257.211,100.629 260.354,103.908 260.354,107.986C260.354,112.064 257.211,115.343 253.304,115.343C249.396,115.343 246.254,112.064 246.254,107.986Z" style="fill:rgb(88,250,255);fill-rule:nonzero;"/>
                <path d="M274.461,107.986C274.461,103.908 277.603,100.629 281.511,100.629C285.418,100.629 288.561,103.908 288.561,107.986C288.561,112.064 285.418,115.343 281.511,115.343C277.603,115.343 274.461,112.064 274.461,107.986Z" style="fill:rgb(88,250,255);fill-rule:nonzero;"/>
                <path d="M302.66,107.986C302.66,103.908 305.803,100.629 309.711,100.629C313.618,100.629 316.761,103.908 316.761,107.986C316.761,112.064 313.618,115.343 309.711,115.343C305.803,115.343 302.66,112.064 302.66,107.986Z" style="fill:rgb(88,250,255);fill-rule:nonzero;"/>
                <path d="M330.949,107.986C330.949,103.908 334.092,100.629 338,100.629C341.907,100.629 345.05,103.908 345.05,107.986C345.05,112.064 341.907,115.343 338,115.343C334.092,115.343 330.949,112.064 330.949,107.986Z" style="fill:rgb(88,250,255);fill-rule:nonzero;"/>
                <path d="M359.143,107.986C359.143,103.908 362.286,100.629 366.193,100.629C370.1,100.629 373.243,103.908 373.243,107.986C373.243,112.064 370.1,115.343 366.193,115.343C362.286,115.343 359.143,112.064 359.143,107.986Z" style="fill:rgb(88,250,255);fill-rule:nonzero;"/>
                <path d="M387.35,107.986C387.35,103.908 390.493,100.629 394.4,100.629C398.307,100.629 401.45,103.908 401.45,107.986C401.45,112.064 398.307,115.343 394.4,115.343C390.493,115.343 387.35,112.064 387.35,107.986Z" style="fill:rgb(88,250,255);fill-rule:nonzero;"/>
                <path d="M415.549,107.986C415.549,103.908 418.691,100.629 422.599,100.629C426.506,100.629 429.649,103.908 429.649,107.986C429.649,112.064 426.506,115.343 422.599,115.343C418.691,115.343 415.549,112.064 415.549,107.986Z" style="fill:rgb(88,250,255);fill-rule:nonzero;"/>
                <path d="M443.748,107.986C443.748,103.908 446.891,100.629 450.798,100.629C454.705,100.629 457.848,103.908 457.848,107.986C457.848,112.064 454.705,115.343 450.798,115.343C446.891,115.343 443.748,112.064 443.748,107.986Z" style="fill:rgb(88,250,255);fill-rule:nonzero;"/>
                <path d="M471.949,107.986C471.949,103.908 475.092,100.629 478.999,100.629C482.907,100.629 486.05,103.908 486.05,107.986C486.05,112.064 482.907,115.343 478.999,115.343C475.092,115.343 471.949,112.064 471.949,107.986Z" style="fill:rgb(88,250,255);fill-rule:nonzero;"/>
                <path d="M500.236,107.986C500.236,103.908 503.379,100.629 507.287,100.629C511.194,100.629 514.337,103.908 514.337,107.986C514.337,112.064 511.194,115.343 507.287,115.343C503.379,115.343 500.236,112.064 500.236,107.986Z" style="fill:rgb(88,250,255);fill-rule:nonzero;"/>
                <path d="M528.443,107.986C528.443,103.908 531.586,100.629 535.494,100.629C539.401,100.629 542.544,103.908 542.544,107.986C542.544,112.064 539.401,115.343 535.494,115.343C531.586,115.343 528.443,112.064 528.443,107.986Z" style="fill:rgb(88,250,255);fill-rule:nonzero;"/>
                <path d="M556.637,107.986C556.637,103.908 559.78,100.629 563.687,100.629C567.595,100.629 570.737,103.908 570.737,107.986C570.737,112.064 567.595,115.343 563.687,115.343C559.78,115.343 556.637,112.064 556.637,107.986Z" style="fill:rgb(88,250,255);fill-rule:nonzero;"/>
                <path d="M91.234,126.955C91.234,122.877 94.377,119.598 98.284,119.598C102.192,119.598 105.335,122.877 105.335,126.955C105.335,131.033 102.192,134.312 98.284,134.312C94.377,134.312 91.234,131.033 91.234,126.955Z" style="fill:rgb(88,250,255);fill-rule:nonzero;"/>
                <path d="M119.434,126.955C119.434,122.877 122.576,119.598 126.484,119.598C130.391,119.598 133.534,122.877 133.534,126.955C133.534,131.033 130.391,134.312 126.484,134.312C122.576,134.312 119.434,131.033 119.434,126.955Z" style="fill:rgb(88,250,255);fill-rule:nonzero;"/>
                <path d="M147.641,126.955C147.641,122.877 150.784,119.598 154.691,119.598C158.598,119.598 161.742,122.877 161.742,126.955C161.742,131.033 158.598,134.312 154.691,134.312C150.784,134.312 147.641,131.033 147.641,126.955Z" style="fill:rgb(88,250,255);fill-rule:nonzero;"/>
                <path d="M175.836,126.955C175.836,122.877 178.979,119.598 182.886,119.598C186.794,119.598 189.937,122.877 189.937,126.955C189.937,131.033 186.794,134.312 182.886,134.312C178.979,134.312 175.836,131.033 175.836,126.955Z" style="fill:rgb(88,250,255);fill-rule:nonzero;"/>
                <path d="M204.041,126.955C204.041,122.877 207.184,119.598 211.091,119.598C214.999,119.598 218.142,122.877 218.142,126.955C218.142,131.033 214.999,134.312 211.091,134.312C207.184,134.312 204.041,131.033 204.041,126.955Z" style="fill:rgb(88,250,255);fill-rule:nonzero;"/>
                <path d="M232.248,126.955C232.248,122.877 235.391,119.598 239.299,119.598C243.206,119.598 246.348,122.877 246.348,126.955C246.348,131.033 243.206,134.312 239.299,134.312C235.391,134.312 232.248,131.033 232.248,126.955Z" style="fill:rgb(88,250,255);fill-rule:nonzero;"/>
                <path d="M260.441,126.955C260.441,122.877 263.584,119.598 267.492,119.598C271.399,119.598 274.542,122.877 274.542,126.955C274.542,131.033 271.399,134.312 267.492,134.312C263.584,134.312 260.441,131.033 260.441,126.955Z" style="fill:rgb(88,250,255);fill-rule:nonzero;"/>
                <path d="M288.73,126.955C288.73,122.877 291.873,119.598 295.78,119.598C299.688,119.598 302.831,122.877 302.831,126.955C302.831,131.033 299.688,134.312 295.78,134.312C291.873,134.312 288.73,131.033 288.73,126.955Z" style="fill:rgb(88,250,255);fill-rule:nonzero;"/>
                <path d="M316.93,126.955C316.93,122.877 320.072,119.598 323.98,119.598C327.887,119.598 331.03,122.877 331.03,126.955C331.03,131.033 327.887,134.312 323.98,134.312C320.072,134.312 316.93,131.033 316.93,126.955Z" style="fill:rgb(88,250,255);fill-rule:nonzero;"/>
                <path d="M345.137,126.955C345.137,122.877 348.28,119.598 352.187,119.598C356.095,119.598 359.238,122.877 359.238,126.955C359.238,131.033 356.095,134.312 352.187,134.312C348.28,134.312 345.137,131.033 345.137,126.955Z" style="fill:rgb(88,250,255);fill-rule:nonzero;"/>
                <path d="M373.328,126.955C373.328,122.877 376.471,119.598 380.379,119.598C384.286,119.598 387.429,122.877 387.429,126.955C387.429,131.033 384.286,134.312 380.379,134.312C376.471,134.312 373.328,131.033 373.328,126.955Z" style="fill:rgb(88,250,255);fill-rule:nonzero;"/>
                <path d="M401.535,126.955C401.535,122.877 404.678,119.598 408.586,119.598C412.493,119.598 415.636,122.877 415.636,126.955C415.636,131.033 412.493,134.312 408.586,134.312C404.678,134.312 401.535,131.033 401.535,126.955Z" style="fill:rgb(88,250,255);fill-rule:nonzero;"/>
                <path d="M429.736,126.955C429.736,122.877 432.879,119.598 436.787,119.598C440.694,119.598 443.837,122.877 443.837,126.955C443.837,131.033 440.694,134.312 436.787,134.312C432.879,134.312 429.736,131.033 429.736,126.955Z" style="fill:rgb(88,250,255);fill-rule:nonzero;"/>
                <path d="M458.023,126.955C458.023,122.877 461.166,119.598 465.073,119.598C468.981,119.598 472.124,122.877 472.124,126.955C472.124,131.033 468.981,134.312 465.073,134.312C461.166,134.312 458.023,131.033 458.023,126.955Z" style="fill:rgb(88,250,255);fill-rule:nonzero;"/>
                <path d="M486.225,126.955C486.225,122.877 489.367,119.598 493.275,119.598C497.182,119.598 500.325,122.877 500.325,126.955C500.325,131.033 497.182,134.312 493.275,134.312C489.367,134.312 486.225,131.033 486.225,126.955Z" style="fill:rgb(88,250,255);fill-rule:nonzero;"/>
                <path d="M514.424,126.955C514.424,122.877 517.566,119.598 521.474,119.598C525.381,119.598 528.524,122.877 528.524,126.955C528.524,131.033 525.381,134.312 521.474,134.312C517.566,134.312 514.424,131.033 514.424,126.955Z" style="fill:rgb(88,250,255);fill-rule:nonzero;"/>
                <path d="M542.629,126.955C542.629,122.877 545.772,119.598 549.679,119.598C553.587,119.598 556.73,122.877 556.73,126.955C556.73,131.033 553.587,134.312 549.679,134.312C545.772,134.312 542.629,131.033 542.629,126.955Z" style="fill:rgb(88,250,255);fill-rule:nonzero;"/>
                <path d="M112.216,154.524C116.11,154.524 119.267,151.23 119.267,147.167C119.267,143.103 116.11,139.809 112.216,139.809C108.323,139.809 105.166,143.103 105.166,147.167C105.166,151.23 108.323,154.524 112.216,154.524Z" style="fill:rgb(88,250,255);fill-rule:nonzero;"/>
                <path d="M133.359,147.167C133.359,143.089 136.502,139.809 140.41,139.809C144.317,139.809 147.46,143.089 147.46,147.167C147.46,151.244 144.317,154.524 140.41,154.524C136.502,154.524 133.359,151.244 133.359,147.167Z" style="fill:rgb(88,250,255);fill-rule:nonzero;"/>
                <path d="M161.648,147.167C161.648,143.089 164.791,139.809 168.699,139.809C172.606,139.809 175.749,143.089 175.749,147.167C175.749,151.244 172.606,154.524 168.699,154.524C164.791,154.524 161.648,151.244 161.648,147.167Z" style="fill:rgb(88,250,255);fill-rule:nonzero;"/>
                <path d="M189.855,147.167C189.855,143.089 192.999,139.809 196.906,139.809C200.813,139.809 203.956,143.089 203.956,147.167C203.956,151.244 200.813,154.524 196.906,154.524C192.999,154.524 189.855,151.244 189.855,147.167Z" style="fill:rgb(88,250,255);fill-rule:nonzero;"/>
                <path d="M218.061,147.167C218.061,143.089 221.203,139.809 225.11,139.809C229.018,139.809 232.161,143.089 232.161,147.167C232.161,151.244 229.018,154.524 225.11,154.524C221.203,154.524 218.061,151.244 218.061,147.167Z" style="fill:rgb(88,250,255);fill-rule:nonzero;"/>
                <path d="M246.254,147.167C246.254,143.089 249.396,139.809 253.304,139.809C257.211,139.809 260.354,143.089 260.354,147.167C260.354,151.244 257.211,154.524 253.304,154.524C249.396,154.524 246.254,151.244 246.254,147.167Z" style="fill:rgb(88,250,255);fill-rule:nonzero;"/>
                <path d="M274.461,147.167C274.461,143.089 277.603,139.809 281.511,139.809C285.418,139.809 288.561,143.089 288.561,147.167C288.561,151.244 285.418,154.524 281.511,154.524C277.603,154.524 274.461,151.244 274.461,147.167Z" style="fill:rgb(88,250,255);fill-rule:nonzero;"/>
                <path d="M302.66,147.167C302.66,143.089 305.803,139.809 309.711,139.809C313.618,139.809 316.761,143.089 316.761,147.167C316.761,151.244 313.618,154.524 309.711,154.524C305.803,154.524 302.66,151.244 302.66,147.167Z" style="fill:rgb(88,250,255);fill-rule:nonzero;"/>
                <path d="M330.949,147.167C330.949,143.089 334.092,139.809 338,139.809C341.907,139.809 345.05,143.089 345.05,147.167C345.05,151.244 341.907,154.524 338,154.524C334.092,154.524 330.949,151.244 330.949,147.167Z" style="fill:rgb(88,250,255);fill-rule:nonzero;"/>
                <path d="M359.143,147.167C359.143,143.089 362.286,139.809 366.193,139.809C370.1,139.809 373.243,143.089 373.243,147.167C373.243,151.244 370.1,154.524 366.193,154.524C362.286,154.524 359.143,151.244 359.143,147.167Z" style="fill:rgb(88,250,255);fill-rule:nonzero;"/>
                <path d="M387.35,147.167C387.35,143.089 390.493,139.809 394.4,139.809C398.307,139.809 401.45,143.089 401.45,147.167C401.45,151.244 398.307,154.524 394.4,154.524C390.493,154.524 387.35,151.244 387.35,147.167Z" style="fill:rgb(88,250,255);fill-rule:nonzero;"/>
                <path d="M415.549,147.167C415.549,143.089 418.691,139.809 422.599,139.809C426.506,139.809 429.649,143.089 429.649,147.167C429.649,151.244 426.506,154.524 422.599,154.524C418.691,154.524 415.549,151.244 415.549,147.167Z" style="fill:rgb(88,250,255);fill-rule:nonzero;"/>
                <path d="M443.748,147.167C443.748,143.089 446.891,139.809 450.798,139.809C454.705,139.809 457.848,143.089 457.848,147.167C457.848,151.244 454.705,154.524 450.798,154.524C446.891,154.524 443.748,151.244 443.748,147.167Z" style="fill:rgb(88,250,255);fill-rule:nonzero;"/>
                <path d="M471.949,147.167C471.949,143.089 475.092,139.809 478.999,139.809C482.907,139.809 486.05,143.089 486.05,147.167C486.05,151.244 482.907,154.524 478.999,154.524C475.092,154.524 471.949,151.244 471.949,147.167Z" style="fill:rgb(88,250,255);fill-rule:nonzero;"/>
                <path d="M500.236,147.167C500.236,143.089 503.379,139.809 507.287,139.809C511.194,139.809 514.337,143.089 514.337,147.167C514.337,151.244 511.194,154.524 507.287,154.524C503.379,154.524 500.236,151.244 500.236,147.167Z" style="fill:rgb(88,250,255);fill-rule:nonzero;"/>
                <path d="M528.443,147.167C528.443,143.089 531.586,139.809 535.494,139.809C539.401,139.809 542.544,143.089 542.544,147.167C542.544,151.244 539.401,154.524 535.494,154.524C531.586,154.524 528.443,151.244 528.443,147.167Z" style="fill:rgb(88,250,255);fill-rule:nonzero;"/>
                <path d="M563.605,154.524C567.499,154.524 570.656,151.23 570.656,147.167C570.656,143.103 567.499,139.809 563.605,139.809C559.711,139.809 556.555,143.103 556.555,147.167C556.555,151.23 559.711,154.524 563.605,154.524Z" style="fill:rgb(88,250,255);fill-rule:nonzero;"/>
                <path d="M91.234,166.136C91.234,162.058 94.377,158.778 98.284,158.778C102.192,158.778 105.335,162.058 105.335,166.136C105.335,170.213 102.192,173.493 98.284,173.493C94.377,173.493 91.234,170.213 91.234,166.136Z" style="fill:rgb(88,250,255);fill-rule:nonzero;"/>
                <path d="M119.434,166.136C119.434,162.058 122.576,158.778 126.484,158.778C130.391,158.778 133.534,162.058 133.534,166.136C133.534,170.213 130.391,173.493 126.484,173.493C122.576,173.493 119.434,170.213 119.434,166.136Z" style="fill:rgb(88,250,255);fill-rule:nonzero;"/>
                <path d="M147.641,166.136C147.641,162.058 150.784,158.778 154.691,158.778C158.598,158.778 161.742,162.058 161.742,166.136C161.742,170.213 158.598,173.493 154.691,173.493C150.784,173.493 147.641,170.213 147.641,166.136Z" style="fill:rgb(88,250,255);fill-rule:nonzero;"/>
                <path d="M175.836,166.136C175.836,162.058 178.979,158.778 182.886,158.778C186.794,158.778 189.937,162.058 189.937,166.136C189.937,170.213 186.794,173.493 182.886,173.493C178.979,173.493 175.836,170.213 175.836,166.136Z" style="fill:rgb(88,250,255);fill-rule:nonzero;"/>
                <path d="M204.041,166.136C204.041,162.058 207.184,158.778 211.091,158.778C214.999,158.778 218.142,162.058 218.142,166.136C218.142,170.213 214.999,173.493 211.091,173.493C207.184,173.493 204.041,170.213 204.041,166.136Z" style="fill:rgb(88,250,255);fill-rule:nonzero;"/>
                <path d="M232.248,166.136C232.248,162.058 235.391,158.778 239.299,158.778C243.206,158.778 246.348,162.058 246.348,166.136C246.348,170.213 243.206,173.493 239.299,173.493C235.391,173.493 232.248,170.213 232.248,166.136Z" style="fill:rgb(88,250,255);fill-rule:nonzero;"/>
                <path d="M260.441,166.136C260.441,162.058 263.584,158.778 267.492,158.778C271.399,158.778 274.542,162.058 274.542,166.136C274.542,170.213 271.399,173.493 267.492,173.493C263.584,173.493 260.441,170.213 260.441,166.136Z" style="fill:rgb(88,250,255);fill-rule:nonzero;"/>
                <path d="M288.73,166.136C288.73,162.058 291.873,158.778 295.78,158.778C299.688,158.778 302.831,162.058 302.831,166.136C302.831,170.213 299.688,173.493 295.78,173.493C291.873,173.493 288.73,170.213 288.73,166.136Z" style="fill:rgb(88,250,255);fill-rule:nonzero;"/>
                <path d="M316.93,166.136C316.93,162.058 320.072,158.778 323.98,158.778C327.887,158.778 331.03,162.058 331.03,166.136C331.03,170.213 327.887,173.493 323.98,173.493C320.072,173.493 316.93,170.213 316.93,166.136Z" style="fill:rgb(88,250,255);fill-rule:nonzero;"/>
                <path d="M345.137,166.136C345.137,162.058 348.28,158.778 352.187,158.778C356.095,158.778 359.238,162.058 359.238,166.136C359.238,170.213 356.095,173.493 352.187,173.493C348.28,173.493 345.137,170.213 345.137,166.136Z" style="fill:rgb(88,250,255);fill-rule:nonzero;"/>
                <path d="M373.328,166.136C373.328,162.058 376.471,158.778 380.379,158.778C384.286,158.778 387.429,162.058 387.429,166.136C387.429,170.213 384.286,173.493 380.379,173.493C376.471,173.493 373.328,170.213 373.328,166.136Z" style="fill:rgb(88,250,255);fill-rule:nonzero;"/>
                <path d="M401.535,166.136C401.535,162.058 404.678,158.778 408.586,158.778C412.493,158.778 415.636,162.058 415.636,166.136C415.636,170.213 412.493,173.493 408.586,173.493C404.678,173.493 401.535,170.213 401.535,166.136Z" style="fill:rgb(88,250,255);fill-rule:nonzero;"/>
                <path d="M429.736,166.136C429.736,162.058 432.879,158.778 436.787,158.778C440.694,158.778 443.837,162.058 443.837,166.136C443.837,170.213 440.694,173.493 436.787,173.493C432.879,173.493 429.736,170.213 429.736,166.136Z" style="fill:rgb(88,250,255);fill-rule:nonzero;"/>
                <path d="M458.023,166.136C458.023,162.058 461.166,158.778 465.073,158.778C468.981,158.778 472.124,162.058 472.124,166.136C472.124,170.213 468.981,173.493 465.073,173.493C461.166,173.493 458.023,170.213 458.023,166.136Z" style="fill:rgb(88,250,255);fill-rule:nonzero;"/>
                <path d="M486.225,166.136C486.225,162.058 489.367,158.778 493.275,158.778C497.182,158.778 500.325,162.058 500.325,166.136C500.325,170.213 497.182,173.493 493.275,173.493C489.367,173.493 486.225,170.213 486.225,166.136Z" style="fill:rgb(88,250,255);fill-rule:nonzero;"/>
                <path d="M514.424,166.136C514.424,162.058 517.566,158.778 521.474,158.778C525.381,158.778 528.524,162.058 528.524,166.136C528.524,170.213 525.381,173.493 521.474,173.493C517.566,173.493 514.424,170.213 514.424,166.136Z" style="fill:rgb(88,250,255);fill-rule:nonzero;"/>
                <path d="M542.629,166.136C542.629,162.058 545.772,158.778 549.679,158.778C553.587,158.778 556.73,162.058 556.73,166.136C556.73,170.213 553.587,173.493 549.679,173.493C545.772,173.493 542.629,170.213 542.629,166.136Z" style="fill:rgb(88,250,255);fill-rule:nonzero;"/>
            </g>
        </g>
    </g>
</svg>
