<svg width="1440" height="112" viewBox="0 0 1440 112" fill="none" xmlns="http://www.w3.org/2000/svg">
<path d="M-778.011 492.83C-702.452 527.074 -575.998 549.138 -398.648 559.019C-221.298 568.901 -98.943 588.04 -31.584 616.436C35.7751 644.831 157.487 650.564 333.553 633.635C509.618 616.705 660.309 621.161 785.625 647.004C910.94 672.846 1063.22 682.936 1242.47 677.273C1421.71 671.611 1561.85 648.612 1662.87 608.276C1763.9 567.94 1878.46 534.596 2006.55 508.243C2134.65 481.889 2230.87 451.536 2295.23 417.181C2359.58 382.827 2393.58 348.679 2397.24 314.738C2400.89 280.797 2366.47 251.197 2293.98 225.938C2221.5 200.678 2196.16 167.729 2217.97 127.09C2239.78 86.4503 2162.27 66.609 1985.44 67.5659C1808.61 68.5227 1670.75 56.2257 1571.84 30.6749C1472.94 5.12416 1343.14 -4.17607 1182.43 2.77426C1021.73 9.72459 874.698 26.5184 741.336 53.1556C607.975 79.7928 426.315 90.161 196.357 84.2599C-33.6014 78.3589 -187.149 96.9339 -264.285 139.985C-341.421 183.036 -409.45 223.308 -468.373 260.801C-527.296 298.294 -612.522 337.778 -724.053 379.252C-835.584 420.726 -853.57 458.585 -778.011 492.83Z" fill="#DADADC"/>
<path d="M-778.011 492.83C-702.452 527.074 -575.998 549.138 -398.648 559.019C-221.298 568.901 -98.943 588.04 -31.584 616.436C35.7751 644.831 157.487 650.564 333.553 633.635C509.618 616.705 660.309 621.161 785.625 647.004C910.94 672.846 1063.22 682.936 1242.47 677.273C1421.71 671.611 1561.85 648.612 1662.87 608.276C1763.9 567.94 1878.46 534.596 2006.55 508.243C2134.65 481.889 2230.87 451.536 2295.23 417.181C2359.58 382.827 2393.58 348.679 2397.24 314.738C2400.89 280.797 2366.47 251.197 2293.98 225.938C2221.5 200.678 2196.16 167.729 2217.97 127.09C2239.78 86.4503 2162.27 66.609 1985.44 67.5659C1808.61 68.5227 1670.75 56.2257 1571.84 30.6749C1472.94 5.12416 1343.14 -4.17607 1182.43 2.77426C1021.73 9.72459 874.698 26.5184 741.336 53.1556C607.975 79.7928 426.315 90.161 196.357 84.2599C-33.6014 78.3589 -187.149 96.9339 -264.285 139.985C-341.421 183.036 -409.45 223.308 -468.373 260.801C-527.296 298.294 -612.522 337.778 -724.053 379.252C-835.584 420.726 -853.57 458.585 -778.011 492.83Z" fill="url(#paint0_linear_5599_87975)"/>
<path d="M-778.011 492.83C-702.452 527.074 -575.998 549.138 -398.648 559.019C-221.298 568.901 -98.943 588.04 -31.584 616.436C35.7751 644.831 157.487 650.564 333.553 633.635C509.618 616.705 660.309 621.161 785.625 647.004C910.94 672.846 1063.22 682.936 1242.47 677.273C1421.71 671.611 1561.85 648.612 1662.87 608.276C1763.9 567.94 1878.46 534.596 2006.55 508.243C2134.65 481.889 2230.87 451.536 2295.23 417.181C2359.58 382.827 2393.58 348.679 2397.24 314.738C2400.89 280.797 2366.47 251.197 2293.98 225.938C2221.5 200.678 2196.16 167.729 2217.97 127.09C2239.78 86.4503 2162.27 66.609 1985.44 67.5659C1808.61 68.5227 1670.75 56.2257 1571.84 30.6749C1472.94 5.12416 1343.14 -4.17607 1182.43 2.77426C1021.73 9.72459 874.698 26.5184 741.336 53.1556C607.975 79.7928 426.315 90.161 196.357 84.2599C-33.6014 78.3589 -187.149 96.9339 -264.285 139.985C-341.421 183.036 -409.45 223.308 -468.373 260.801C-527.296 298.294 -612.522 337.778 -724.053 379.252C-835.584 420.726 -853.57 458.585 -778.011 492.83Z" fill="#F6F6F6"/>
<defs>
<linearGradient id="paint0_linear_5599_87975" x1="2361.51" y1="289.964" x2="2212.93" y2="-234.06" gradientUnits="userSpaceOnUse">
<stop offset="0.09" stop-color="#FF98E1"/>
<stop offset="1" stop-color="#FFE8F8"/>
</linearGradient>
</defs>
</svg>
