<?xml version="1.0" encoding="utf-8"?>
<!-- Generator: Adobe Illustrator 23.0.3, SVG Export Plug-In . SVG Version: 6.00 Build 0)  -->
<svg version="1.1" id="圖層_1" xmlns="http://www.w3.org/2000/svg" xmlns:xlink="http://www.w3.org/1999/xlink" x="0px" y="0px"
	 viewBox="0 0 595.6 71" style="enable-background:new 0 0 595.6 71;" xml:space="preserve">
<style type="text/css">
	.st0{clip-path:url(#SVGID_2_);}
	.st1{fill:#58FAFF;}
	.st2{fill:url(#SVGID_3_);}
</style>
<g>
	<defs>
		<rect id="SVGID_1_" x="-416" width="1440" height="71"/>
	</defs>
	<clipPath id="SVGID_2_">
		<use xlink:href="#SVGID_1_"  style="overflow:visible;"/>
	</clipPath>
	<g class="st0">
		<path class="st1" d="M913.7,733.8c-82.3,96.7-188.1,168.2-317.4,214.5c-129.3,46.3-263.4,50.1-402.3,11.4S-60.8,854.2-153.8,759
			c-93-95.2-176.6-209.3-250.8-342.4c-74.2-133.1-27.1-222.5,141.3-268.1C-95,102.9,36.9,64.3,132.5,32.7
			C228,1.2,325.5,0.1,425,29.3c99.5,29.3,233.4,61.8,401.6,97.8c168.3,35.9,245.4,121.8,231.4,257.8
			C1044.1,520.8,995.9,637.1,913.7,733.8z"/>
		
			<linearGradient id="SVGID_3_" gradientUnits="userSpaceOnUse" x1="-440.8179" y1="-227.0723" x2="993.8805" y2="-595.3826" gradientTransform="matrix(1 0 0 -1 0 72)">
			<stop  offset="0" style="stop-color:#8AA5DF"/>
			<stop  offset="0.82" style="stop-color:#FF98E1"/>
		</linearGradient>
		<path class="st2" d="M913.7,733.8c-82.3,96.7-188.1,168.2-317.4,214.5c-129.3,46.3-263.4,50.1-402.3,11.4S-60.8,854.2-153.8,759
			c-93-95.2-176.6-209.3-250.8-342.4c-74.2-133.1-27.1-222.5,141.3-268.1C-95,102.9,36.9,64.3,132.5,32.7
			C228,1.2,325.5,0.1,425,29.3c99.5,29.3,233.4,61.8,401.6,97.8c168.3,35.9,245.4,121.8,231.4,257.8
			C1044.1,520.8,995.9,637.1,913.7,733.8z"/>
	</g>
</g>
</svg>
