<svg width="1440" height="86" viewBox="0 0 1440 86" fill="none" xmlns="http://www.w3.org/2000/svg">
<path d="M2222.97 372.71C2149.6 411.429 2024.7 441.043 1848.26 461.552C1671.83 482.062 1550.84 508.511 1485.31 540.898C1419.78 573.286 1298.63 586.314 1121.86 579.984C945.099 573.653 794.947 587.147 671.409 620.465C547.87 653.782 396.47 672.995 217.208 678.102C37.9463 683.209 -103.317 668.663 -206.582 634.464C-309.847 600.265 -426.202 573.858 -555.648 555.241C-685.094 536.624 -782.966 512.101 -849.265 481.671C-915.564 451.242 -951.556 419.197 -957.241 385.536C-962.926 351.876 -930.347 320.263 -859.505 290.698C-788.664 261.133 -765.349 226.722 -789.562 187.466C-813.775 148.209 -737.596 123.751 -561.027 114.092C-384.458 104.432 -247.578 83.882 -150.388 52.4406C-53.1976 20.9992 75.8132 3.92424 236.645 1.21568C397.476 -1.49288 545.252 6.44489 679.971 25.029C814.691 43.6131 996.646 43.0583 1225.84 23.3645C1455.02 3.67075 1609.41 12.9954 1688.99 51.3385C1768.57 89.6815 1838.9 125.797 1899.96 159.686C1961.03 193.575 2048.47 227.872 2162.29 262.576C2276.11 297.281 2296.34 333.992 2222.97 372.71Z" fill="#DADADC"/>
<path d="M2222.97 372.71C2149.6 411.429 2024.7 441.043 1848.26 461.552C1671.83 482.062 1550.84 508.511 1485.31 540.898C1419.78 573.286 1298.63 586.314 1121.86 579.984C945.099 573.653 794.947 587.147 671.409 620.465C547.87 653.782 396.47 672.995 217.208 678.102C37.9463 683.209 -103.317 668.663 -206.582 634.464C-309.847 600.265 -426.202 573.858 -555.648 555.241C-685.094 536.624 -782.966 512.101 -849.265 481.671C-915.564 451.242 -951.556 419.197 -957.241 385.536C-962.926 351.876 -930.347 320.263 -859.505 290.698C-788.664 261.133 -765.349 226.722 -789.562 187.466C-813.775 148.209 -737.596 123.751 -561.027 114.092C-384.458 104.432 -247.578 83.882 -150.388 52.4406C-53.1976 20.9992 75.8132 3.92424 236.645 1.21568C397.476 -1.49288 545.252 6.44489 679.971 25.029C814.691 43.6131 996.646 43.0583 1225.84 23.3645C1455.02 3.67075 1609.41 12.9954 1688.99 51.3385C1768.57 89.6815 1838.9 125.797 1899.96 159.686C1961.03 193.575 2048.47 227.872 2162.29 262.576C2276.11 297.281 2296.34 333.992 2222.97 372.71Z" fill="url(#paint0_linear_5599_88226)"/>
<path d="M2222.97 372.71C2149.6 411.429 2024.7 441.043 1848.26 461.552C1671.83 482.062 1550.84 508.511 1485.31 540.898C1419.78 573.286 1298.63 586.314 1121.86 579.984C945.099 573.653 794.947 587.147 671.409 620.465C547.87 653.782 396.47 672.995 217.208 678.102C37.9463 683.209 -103.317 668.663 -206.582 634.464C-309.847 600.265 -426.202 573.858 -555.648 555.241C-685.094 536.624 -782.966 512.101 -849.265 481.671C-915.564 451.242 -951.556 419.197 -957.241 385.536C-962.926 351.876 -930.347 320.263 -859.505 290.698C-788.664 261.133 -765.349 226.722 -789.562 187.466C-813.775 148.209 -737.596 123.751 -561.027 114.092C-384.458 104.432 -247.578 83.882 -150.388 52.4406C-53.1976 20.9992 75.8132 3.92424 236.645 1.21568C397.476 -1.49288 545.252 6.44489 679.971 25.029C814.691 43.6131 996.646 43.0583 1225.84 23.3645C1455.02 3.67075 1609.41 12.9954 1688.99 51.3385C1768.57 89.6815 1838.9 125.797 1899.96 159.686C1961.03 193.575 2048.47 227.872 2162.29 262.576C2276.11 297.281 2296.34 333.992 2222.97 372.71Z" fill="white"/>
<defs>
<linearGradient id="paint0_linear_5599_88226" x1="-923.064" y1="358.662" x2="-806.209" y2="-173.335" gradientUnits="userSpaceOnUse">
<stop offset="0.09" stop-color="#FF98E1"/>
<stop offset="1" stop-color="#FFE8F8"/>
</linearGradient>
</defs>
</svg>
