<svg width="938" height="1007" viewBox="0 0 938 1007" fill="none" xmlns="http://www.w3.org/2000/svg">
<path d="M560.014 927.509C567.185 923.205 776.926 745.523 745.34 606.305C713.73 467.075 616.43 450.181 685.189 326.745C753.949 203.308 638.925 97.9065 502.957 112.104" stroke="#5CB1DF" stroke-width="1.5" stroke-miterlimit="10"/>
<path d="M545.116 925.264C552.287 920.96 761.477 743.9 729.879 604.646C698.269 465.417 600.969 448.522 669.728 325.086C738.488 201.65 623.464 96.248 487.496 110.445" stroke="#5CB1DF" stroke-width="1.5" stroke-miterlimit="10"/>
<path d="M530.21 923.043C537.38 918.739 746.008 742.266 714.421 603.047C682.811 463.817 585.511 446.923 654.271 323.487C723.03 200.051 608.006 94.6488 472.038 108.846" stroke="#5CB1DF" stroke-width="1.5" stroke-miterlimit="10"/>
<path d="M515.323 920.834C522.493 916.53 730.581 740.654 698.971 601.425C667.362 462.195 570.062 445.301 638.821 321.865C707.581 198.428 592.557 93.0265 456.589 107.224" stroke="#5CB1DF" stroke-width="1.5" stroke-miterlimit="10"/>
<path d="M500.426 918.589C507.596 914.284 715.11 739.02 683.535 599.777C651.925 460.547 554.625 443.653 623.384 320.217C692.144 196.78 577.12 91.3785 441.152 105.576" stroke="#5CB1DF" stroke-width="1.5" stroke-miterlimit="10"/>
<path d="M485.515 916.368C492.686 912.063 699.66 737.396 668.05 598.167C636.44 458.937 539.14 442.043 607.9 318.606C676.659 195.17 561.635 89.7684 425.668 103.965" stroke="#5CB1DF" stroke-width="1.5" stroke-miterlimit="10"/>
<path d="M470.608 914.148C477.779 909.843 684.19 735.763 652.603 596.544C620.994 457.315 523.694 440.42 592.453 316.984C661.212 193.548 546.188 88.146 410.221 102.343" stroke="#5CB1DF" stroke-width="1.5" stroke-miterlimit="10"/>
<path d="M455.735 911.914C462.905 907.609 668.777 734.127 637.167 594.897C605.557 455.667 508.257 438.773 577.017 315.337C645.776 191.901 530.752 86.4988 394.785 100.696" stroke="#5CB1DF" stroke-width="1.5" stroke-miterlimit="10"/>
<path d="M440.825 909.693C447.996 905.388 653.293 732.516 621.707 593.298C590.097 454.068 492.797 437.174 561.556 313.737C630.316 190.301 515.292 84.8993 379.324 99.0964" stroke="#5CB1DF" stroke-width="1.5" stroke-miterlimit="10"/>
<path d="M425.916 907.471C433.087 903.167 637.845 730.893 606.235 591.663C574.625 452.433 477.325 435.539 546.085 312.103C614.844 188.667 499.82 83.2647 363.852 97.4617" stroke="#5CB1DF" stroke-width="1.5" stroke-miterlimit="10"/>
<path d="M411.042 905.238C418.213 900.934 622.408 729.246 590.821 590.028C559.211 450.798 461.911 433.904 530.671 310.468C599.43 187.031 484.406 81.6294 348.438 95.8265" stroke="#5CB1DF" stroke-width="1.5" stroke-miterlimit="10"/>
<path d="M396.133 903.017C403.303 898.713 606.947 727.647 575.337 588.417C543.728 449.188 446.428 432.293 515.187 308.857C583.947 185.421 468.923 80.0189 332.955 94.2159" stroke="#5CB1DF" stroke-width="1.5" stroke-miterlimit="10"/>
<path d="M381.226 900.798C388.396 896.493 591.477 726.014 559.868 586.784C528.258 447.555 430.958 430.66 499.717 307.224C568.477 183.788 453.453 78.3861 317.485 92.5832" stroke="#5CB1DF" stroke-width="1.5" stroke-miterlimit="10"/>
<path d="M366.329 898.553C373.5 894.248 576.041 724.367 544.432 585.137C512.822 445.908 415.522 429.013 484.281 305.577C553.041 182.141 438.017 76.7388 302.049 90.9359" stroke="#5CB1DF" stroke-width="1.5" stroke-miterlimit="10"/>
</svg>
