<?xml version="1.0" encoding="UTF-8" standalone="no"?>
<!DOCTYPE svg PUBLIC "-//W3C//DTD SVG 1.1//EN" "http://www.w3.org/Graphics/SVG/1.1/DTD/svg11.dtd">
<svg width="100%" height="100%" viewBox="0 0 355 673" version="1.1" xmlns="http://www.w3.org/2000/svg" xmlns:xlink="http://www.w3.org/1999/xlink" xml:space="preserve" xmlns:serif="http://www.serif.com/" style="fill-rule:evenodd;clip-rule:evenodd;stroke-linejoin:round;stroke-miterlimit:2;">
    <g>
        <clipPath id="_clip1">
            <path d="M206.62,497.979C296.684,403.993 296.684,251.611 206.621,157.625C116.557,63.639 -29.465,63.639 -119.528,157.625C-209.592,251.611 -209.592,403.993 -119.529,497.979C-29.465,591.965 116.557,591.965 206.62,497.979Z" clip-rule="nonzero"/>
        </clipPath>
        <g clip-path="url(#_clip1)">
            <path d="M-9.27,93.706C-9.27,89.629 -6.127,86.349 -2.22,86.349C1.688,86.349 4.831,89.629 4.831,93.706C4.831,97.784 1.688,101.064 -2.22,101.064C-6.127,101.064 -9.27,97.784 -9.27,93.706Z" style="fill:rgb(254,252,0);fill-rule:nonzero;"/>
            <path d="M18.93,93.706C18.93,89.629 22.072,86.349 25.98,86.349C29.887,86.349 33.03,89.629 33.03,93.706C33.03,97.784 29.887,101.064 25.98,101.064C22.072,101.064 18.93,97.784 18.93,93.706Z" style="fill:rgb(254,252,0);fill-rule:nonzero;"/>
            <path d="M47.137,93.706C47.137,89.629 50.28,86.349 54.187,86.349C58.095,86.349 61.238,89.629 61.238,93.706C61.238,97.784 58.095,101.064 54.187,101.064C50.28,101.064 47.137,97.784 47.137,93.706Z" style="fill:rgb(254,252,0);fill-rule:nonzero;"/>
            <path d="M75.328,93.706C75.328,89.629 78.471,86.349 82.379,86.349C86.286,86.349 89.429,89.629 89.429,93.706C89.429,97.784 86.286,101.064 82.379,101.064C78.471,101.064 75.328,97.784 75.328,93.706Z" style="fill:rgb(254,252,0);fill-rule:nonzero;"/>
            <path d="M103.535,93.706C103.535,89.629 106.678,86.349 110.586,86.349C114.493,86.349 117.636,89.629 117.636,93.706C117.636,97.784 114.493,101.064 110.586,101.064C106.678,101.064 103.535,97.784 103.535,93.706Z" style="fill:rgb(254,252,0);fill-rule:nonzero;"/>
            <path d="M131.736,93.706C131.736,89.629 134.879,86.349 138.787,86.349C142.694,86.349 145.837,89.629 145.837,93.706C145.837,97.784 142.694,101.064 138.787,101.064C134.879,101.064 131.736,97.784 131.736,93.706Z" style="fill:rgb(254,252,0);fill-rule:nonzero;"/>
            <path d="M160.023,93.706C160.023,89.629 163.166,86.349 167.073,86.349C170.981,86.349 174.124,89.629 174.124,93.706C174.124,97.784 170.981,101.064 167.073,101.064C163.166,101.064 160.023,97.784 160.023,93.706Z" style="fill:rgb(254,252,0);fill-rule:nonzero;"/>
            <path d="M188.225,93.706C188.225,89.629 191.367,86.349 195.275,86.349C199.182,86.349 202.325,89.629 202.325,93.706C202.325,97.784 199.182,101.064 195.275,101.064C191.367,101.064 188.225,97.784 188.225,93.706Z" style="fill:rgb(254,252,0);fill-rule:nonzero;"/>
            <path d="M216.424,93.706C216.424,89.629 219.566,86.349 223.474,86.349C227.381,86.349 230.524,89.629 230.524,93.706C230.524,97.784 227.381,101.064 223.474,101.064C219.566,101.064 216.424,97.784 216.424,93.706Z" style="fill:rgb(254,252,0);fill-rule:nonzero;"/>
            <path d="M244.629,93.706C244.629,89.629 247.772,86.349 251.679,86.349C255.587,86.349 258.73,89.629 258.73,93.706C258.73,97.784 255.587,101.064 251.679,101.064C247.772,101.064 244.629,97.784 244.629,93.706Z" style="fill:rgb(254,252,0);fill-rule:nonzero;"/>
            <path d="M4.66,114.006C4.66,109.928 7.803,106.648 11.711,106.648C15.618,106.648 18.761,109.928 18.761,114.006C18.761,118.083 15.618,121.363 11.711,121.363C7.803,121.363 4.66,118.083 4.66,114.006Z" style="fill:rgb(254,252,0);fill-rule:nonzero;"/>
            <path d="M32.949,114.006C32.949,109.928 36.092,106.648 40,106.648C43.907,106.648 47.05,109.928 47.05,114.006C47.05,118.083 43.907,121.363 40,121.363C36.092,121.363 32.949,118.083 32.949,114.006Z" style="fill:rgb(254,252,0);fill-rule:nonzero;"/>
            <path d="M61.143,114.006C61.143,109.928 64.286,106.648 68.193,106.648C72.101,106.648 75.243,109.928 75.243,114.006C75.243,118.083 72.101,121.363 68.193,121.363C64.286,121.363 61.143,118.083 61.143,114.006Z" style="fill:rgb(254,252,0);fill-rule:nonzero;"/>
            <path d="M89.35,114.006C89.35,109.928 92.493,106.648 96.4,106.648C100.307,106.648 103.45,109.928 103.45,114.006C103.45,118.083 100.307,121.363 96.4,121.363C92.493,121.363 89.35,118.083 89.35,114.006Z" style="fill:rgb(254,252,0);fill-rule:nonzero;"/>
            <path d="M117.549,114.006C117.549,109.928 120.691,106.648 124.599,106.648C128.506,106.648 131.649,109.928 131.649,114.006C131.649,118.083 128.506,121.363 124.599,121.363C120.691,121.363 117.549,118.083 117.549,114.006Z" style="fill:rgb(254,252,0);fill-rule:nonzero;"/>
            <path d="M145.748,114.006C145.748,109.928 148.891,106.648 152.798,106.648C156.705,106.648 159.848,109.928 159.848,114.006C159.848,118.083 156.705,121.363 152.798,121.363C148.891,121.363 145.748,118.083 145.748,114.006Z" style="fill:rgb(254,252,0);fill-rule:nonzero;"/>
            <path d="M173.949,114.006C173.949,109.928 177.092,106.648 180.999,106.648C184.907,106.648 188.05,109.928 188.05,114.006C188.05,118.083 184.907,121.363 180.999,121.363C177.092,121.363 173.949,118.083 173.949,114.006Z" style="fill:rgb(254,252,0);fill-rule:nonzero;"/>
            <path d="M202.236,114.006C202.236,109.928 205.379,106.648 209.287,106.648C213.194,106.648 216.337,109.928 216.337,114.006C216.337,118.083 213.194,121.363 209.287,121.363C205.379,121.363 202.236,118.083 202.236,114.006Z" style="fill:rgb(254,252,0);fill-rule:nonzero;"/>
            <path d="M230.443,114.006C230.443,109.928 233.586,106.648 237.494,106.648C241.401,106.648 244.544,109.928 244.544,114.006C244.544,118.083 241.401,121.363 237.494,121.363C233.586,121.363 230.443,118.083 230.443,114.006Z" style="fill:rgb(254,252,0);fill-rule:nonzero;"/>
            <path d="M265.605,121.363C269.499,121.363 272.656,118.069 272.656,114.006C272.656,109.942 269.499,106.648 265.605,106.648C261.711,106.648 258.555,109.942 258.555,114.006C258.555,118.069 261.711,121.363 265.605,121.363Z" style="fill:rgb(254,252,0);fill-rule:nonzero;"/>
            <path d="M-9.27,132.886C-9.27,128.809 -6.127,125.529 -2.22,125.529C1.688,125.529 4.831,128.809 4.831,132.886C4.831,136.964 1.688,140.244 -2.22,140.244C-6.127,140.244 -9.27,136.964 -9.27,132.886Z" style="fill:rgb(254,252,0);fill-rule:nonzero;"/>
            <path d="M18.93,132.886C18.93,128.809 22.072,125.529 25.98,125.529C29.887,125.529 33.03,128.809 33.03,132.886C33.03,136.964 29.887,140.244 25.98,140.244C22.072,140.244 18.93,136.964 18.93,132.886Z" style="fill:rgb(254,252,0);fill-rule:nonzero;"/>
            <path d="M47.137,132.886C47.137,128.809 50.28,125.529 54.187,125.529C58.095,125.529 61.238,128.809 61.238,132.886C61.238,136.964 58.095,140.244 54.187,140.244C50.28,140.244 47.137,136.964 47.137,132.886Z" style="fill:rgb(254,252,0);fill-rule:nonzero;"/>
            <path d="M75.328,132.886C75.328,128.809 78.471,125.529 82.379,125.529C86.286,125.529 89.429,128.809 89.429,132.886C89.429,136.964 86.286,140.244 82.379,140.244C78.471,140.244 75.328,136.964 75.328,132.886Z" style="fill:rgb(254,252,0);fill-rule:nonzero;"/>
            <path d="M103.535,132.886C103.535,128.809 106.678,125.529 110.586,125.529C114.493,125.529 117.636,128.809 117.636,132.886C117.636,136.964 114.493,140.244 110.586,140.244C106.678,140.244 103.535,136.964 103.535,132.886Z" style="fill:rgb(254,252,0);fill-rule:nonzero;"/>
            <path d="M131.736,132.886C131.736,128.809 134.879,125.529 138.787,125.529C142.694,125.529 145.837,128.809 145.837,132.886C145.837,136.964 142.694,140.244 138.787,140.244C134.879,140.244 131.736,136.964 131.736,132.886Z" style="fill:rgb(254,252,0);fill-rule:nonzero;"/>
            <path d="M160.023,132.886C160.023,128.809 163.166,125.529 167.073,125.529C170.981,125.529 174.124,128.809 174.124,132.886C174.124,136.964 170.981,140.244 167.073,140.244C163.166,140.244 160.023,136.964 160.023,132.886Z" style="fill:rgb(254,252,0);fill-rule:nonzero;"/>
            <path d="M188.225,132.886C188.225,128.809 191.367,125.529 195.275,125.529C199.182,125.529 202.325,128.809 202.325,132.886C202.325,136.964 199.182,140.244 195.275,140.244C191.367,140.244 188.225,136.964 188.225,132.886Z" style="fill:rgb(254,252,0);fill-rule:nonzero;"/>
            <path d="M216.424,132.886C216.424,128.809 219.566,125.529 223.474,125.529C227.381,125.529 230.524,128.809 230.524,132.886C230.524,136.964 227.381,140.244 223.474,140.244C219.566,140.244 216.424,136.964 216.424,132.886Z" style="fill:rgb(254,252,0);fill-rule:nonzero;"/>
            <path d="M244.629,132.886C244.629,128.809 247.772,125.529 251.679,125.529C255.587,125.529 258.73,128.809 258.73,132.886C258.73,136.964 255.587,140.244 251.679,140.244C247.772,140.244 244.629,136.964 244.629,132.886Z" style="fill:rgb(254,252,0);fill-rule:nonzero;"/>
            <path d="M4.66,153.186C4.66,149.109 7.803,145.829 11.711,145.829C15.618,145.829 18.761,149.109 18.761,153.186C18.761,157.264 15.618,160.544 11.711,160.544C7.803,160.544 4.66,157.264 4.66,153.186Z" style="fill:rgb(254,252,0);fill-rule:nonzero;"/>
            <path d="M32.949,153.186C32.949,149.109 36.092,145.829 40,145.829C43.907,145.829 47.05,149.109 47.05,153.186C47.05,157.264 43.907,160.544 40,160.544C36.092,160.544 32.949,157.264 32.949,153.186Z" style="fill:rgb(254,252,0);fill-rule:nonzero;"/>
            <path d="M61.143,153.186C61.143,149.109 64.286,145.829 68.193,145.829C72.101,145.829 75.243,149.109 75.243,153.186C75.243,157.264 72.101,160.544 68.193,160.544C64.286,160.544 61.143,157.264 61.143,153.186Z" style="fill:rgb(254,252,0);fill-rule:nonzero;"/>
            <path d="M89.35,153.186C89.35,149.109 92.493,145.829 96.4,145.829C100.307,145.829 103.45,149.109 103.45,153.186C103.45,157.264 100.307,160.544 96.4,160.544C92.493,160.544 89.35,157.264 89.35,153.186Z" style="fill:rgb(254,252,0);fill-rule:nonzero;"/>
            <path d="M117.549,153.186C117.549,149.109 120.691,145.829 124.599,145.829C128.506,145.829 131.649,149.109 131.649,153.186C131.649,157.264 128.506,160.544 124.599,160.544C120.691,160.544 117.549,157.264 117.549,153.186Z" style="fill:rgb(254,252,0);fill-rule:nonzero;"/>
            <path d="M145.748,153.186C145.748,149.109 148.891,145.829 152.798,145.829C156.705,145.829 159.848,149.109 159.848,153.186C159.848,157.264 156.705,160.544 152.798,160.544C148.891,160.544 145.748,157.264 145.748,153.186Z" style="fill:rgb(254,252,0);fill-rule:nonzero;"/>
            <path d="M173.949,153.186C173.949,149.109 177.092,145.829 180.999,145.829C184.907,145.829 188.05,149.109 188.05,153.186C188.05,157.264 184.907,160.544 180.999,160.544C177.092,160.544 173.949,157.264 173.949,153.186Z" style="fill:rgb(254,252,0);fill-rule:nonzero;"/>
            <path d="M202.236,153.186C202.236,149.109 205.379,145.829 209.287,145.829C213.194,145.829 216.337,149.109 216.337,153.186C216.337,157.264 213.194,160.544 209.287,160.544C205.379,160.544 202.236,157.264 202.236,153.186Z" style="fill:rgb(254,252,0);fill-rule:nonzero;"/>
            <path d="M230.443,153.186C230.443,149.109 233.586,145.829 237.494,145.829C241.401,145.829 244.544,149.109 244.544,153.186C244.544,157.264 241.401,160.544 237.494,160.544C233.586,160.544 230.443,157.264 230.443,153.186Z" style="fill:rgb(254,252,0);fill-rule:nonzero;"/>
            <path d="M258.637,153.186C258.637,149.109 261.78,145.829 265.687,145.829C269.595,145.829 272.737,149.109 272.737,153.186C272.737,157.264 269.595,160.544 265.687,160.544C261.78,160.544 258.637,157.264 258.637,153.186Z" style="fill:rgb(254,252,0);fill-rule:nonzero;"/>
            <path d="M-9.27,172.155C-9.27,168.078 -6.127,164.798 -2.22,164.798C1.688,164.798 4.831,168.078 4.831,172.155C4.831,176.233 1.688,179.513 -2.22,179.513C-6.127,179.513 -9.27,176.233 -9.27,172.155Z" style="fill:rgb(254,252,0);fill-rule:nonzero;"/>
            <path d="M18.93,172.155C18.93,168.078 22.072,164.798 25.98,164.798C29.887,164.798 33.03,168.078 33.03,172.155C33.03,176.233 29.887,179.513 25.98,179.513C22.072,179.513 18.93,176.233 18.93,172.155Z" style="fill:rgb(254,252,0);fill-rule:nonzero;"/>
            <path d="M47.137,172.155C47.137,168.078 50.28,164.798 54.187,164.798C58.095,164.798 61.238,168.078 61.238,172.155C61.238,176.233 58.095,179.513 54.187,179.513C50.28,179.513 47.137,176.233 47.137,172.155Z" style="fill:rgb(254,252,0);fill-rule:nonzero;"/>
            <path d="M75.328,172.155C75.328,168.078 78.471,164.798 82.379,164.798C86.286,164.798 89.429,168.078 89.429,172.155C89.429,176.233 86.286,179.513 82.379,179.513C78.471,179.513 75.328,176.233 75.328,172.155Z" style="fill:rgb(254,252,0);fill-rule:nonzero;"/>
            <path d="M103.535,172.155C103.535,168.078 106.678,164.798 110.586,164.798C114.493,164.798 117.636,168.078 117.636,172.155C117.636,176.233 114.493,179.513 110.586,179.513C106.678,179.513 103.535,176.233 103.535,172.155Z" style="fill:rgb(254,252,0);fill-rule:nonzero;"/>
            <path d="M131.736,172.155C131.736,168.078 134.879,164.798 138.787,164.798C142.694,164.798 145.837,168.078 145.837,172.155C145.837,176.233 142.694,179.513 138.787,179.513C134.879,179.513 131.736,176.233 131.736,172.155Z" style="fill:rgb(254,252,0);fill-rule:nonzero;"/>
            <path d="M160.023,172.155C160.023,168.078 163.166,164.798 167.073,164.798C170.981,164.798 174.124,168.078 174.124,172.155C174.124,176.233 170.981,179.513 167.073,179.513C163.166,179.513 160.023,176.233 160.023,172.155Z" style="fill:rgb(254,252,0);fill-rule:nonzero;"/>
            <path d="M188.225,172.155C188.225,168.078 191.367,164.798 195.275,164.798C199.182,164.798 202.325,168.078 202.325,172.155C202.325,176.233 199.182,179.513 195.275,179.513C191.367,179.513 188.225,176.233 188.225,172.155Z" style="fill:rgb(254,252,0);fill-rule:nonzero;"/>
            <path d="M216.424,172.155C216.424,168.078 219.566,164.798 223.474,164.798C227.381,164.798 230.524,168.078 230.524,172.155C230.524,176.233 227.381,179.513 223.474,179.513C219.566,179.513 216.424,176.233 216.424,172.155Z" style="fill:rgb(254,252,0);fill-rule:nonzero;"/>
            <path d="M244.629,172.155C244.629,168.078 247.772,164.798 251.679,164.798C255.587,164.798 258.73,168.078 258.73,172.155C258.73,176.233 255.587,179.513 251.679,179.513C247.772,179.513 244.629,176.233 244.629,172.155Z" style="fill:rgb(254,252,0);fill-rule:nonzero;"/>
            <path d="M4.66,192.366C4.66,188.288 7.803,185.009 11.711,185.009C15.618,185.009 18.761,188.288 18.761,192.366C18.761,196.444 15.618,199.723 11.711,199.723C7.803,199.723 4.66,196.444 4.66,192.366Z" style="fill:rgb(254,252,0);fill-rule:nonzero;"/>
            <path d="M32.949,192.366C32.949,188.288 36.092,185.009 40,185.009C43.907,185.009 47.05,188.288 47.05,192.366C47.05,196.444 43.907,199.723 40,199.723C36.092,199.723 32.949,196.444 32.949,192.366Z" style="fill:rgb(254,252,0);fill-rule:nonzero;"/>
            <path d="M61.143,192.366C61.143,188.288 64.286,185.009 68.193,185.009C72.101,185.009 75.243,188.288 75.243,192.366C75.243,196.444 72.101,199.723 68.193,199.723C64.286,199.723 61.143,196.444 61.143,192.366Z" style="fill:rgb(254,252,0);fill-rule:nonzero;"/>
            <path d="M89.35,192.366C89.35,188.288 92.493,185.009 96.4,185.009C100.307,185.009 103.45,188.288 103.45,192.366C103.45,196.444 100.307,199.723 96.4,199.723C92.493,199.723 89.35,196.444 89.35,192.366Z" style="fill:rgb(254,252,0);fill-rule:nonzero;"/>
            <path d="M117.549,192.366C117.549,188.288 120.691,185.009 124.599,185.009C128.506,185.009 131.649,188.288 131.649,192.366C131.649,196.444 128.506,199.723 124.599,199.723C120.691,199.723 117.549,196.444 117.549,192.366Z" style="fill:rgb(254,252,0);fill-rule:nonzero;"/>
            <path d="M145.748,192.366C145.748,188.288 148.891,185.009 152.798,185.009C156.705,185.009 159.848,188.288 159.848,192.366C159.848,196.444 156.705,199.723 152.798,199.723C148.891,199.723 145.748,196.444 145.748,192.366Z" style="fill:rgb(254,252,0);fill-rule:nonzero;"/>
            <path d="M173.949,192.366C173.949,188.288 177.092,185.009 180.999,185.009C184.907,185.009 188.05,188.288 188.05,192.366C188.05,196.444 184.907,199.723 180.999,199.723C177.092,199.723 173.949,196.444 173.949,192.366Z" style="fill:rgb(254,252,0);fill-rule:nonzero;"/>
            <path d="M202.236,192.366C202.236,188.288 205.379,185.009 209.287,185.009C213.194,185.009 216.337,188.288 216.337,192.366C216.337,196.444 213.194,199.723 209.287,199.723C205.379,199.723 202.236,196.444 202.236,192.366Z" style="fill:rgb(254,252,0);fill-rule:nonzero;"/>
            <path d="M230.443,192.366C230.443,188.288 233.586,185.009 237.494,185.009C241.401,185.009 244.544,188.288 244.544,192.366C244.544,196.444 241.401,199.723 237.494,199.723C233.586,199.723 230.443,196.444 230.443,192.366Z" style="fill:rgb(254,252,0);fill-rule:nonzero;"/>
            <path d="M258.637,192.366C258.637,188.288 261.78,185.009 265.687,185.009C269.595,185.009 272.737,188.288 272.737,192.366C272.737,196.444 269.595,199.723 265.687,199.723C261.78,199.723 258.637,196.444 258.637,192.366Z" style="fill:rgb(254,252,0);fill-rule:nonzero;"/>
            <path d="M-9.27,211.335C-9.27,207.257 -6.127,203.978 -2.22,203.978C1.688,203.978 4.831,207.257 4.831,211.335C4.831,215.413 1.688,218.692 -2.22,218.692C-6.127,218.692 -9.27,215.413 -9.27,211.335Z" style="fill:rgb(254,252,0);fill-rule:nonzero;"/>
            <path d="M18.93,211.335C18.93,207.257 22.072,203.978 25.98,203.978C29.887,203.978 33.03,207.257 33.03,211.335C33.03,215.413 29.887,218.692 25.98,218.692C22.072,218.692 18.93,215.413 18.93,211.335Z" style="fill:rgb(254,252,0);fill-rule:nonzero;"/>
            <path d="M47.137,211.335C47.137,207.257 50.28,203.978 54.187,203.978C58.095,203.978 61.238,207.257 61.238,211.335C61.238,215.413 58.095,218.692 54.187,218.692C50.28,218.692 47.137,215.413 47.137,211.335Z" style="fill:rgb(254,252,0);fill-rule:nonzero;"/>
            <path d="M75.328,211.335C75.328,207.257 78.471,203.978 82.379,203.978C86.286,203.978 89.429,207.257 89.429,211.335C89.429,215.413 86.286,218.692 82.379,218.692C78.471,218.692 75.328,215.413 75.328,211.335Z" style="fill:rgb(254,252,0);fill-rule:nonzero;"/>
            <path d="M103.535,211.335C103.535,207.257 106.678,203.978 110.586,203.978C114.493,203.978 117.636,207.257 117.636,211.335C117.636,215.413 114.493,218.692 110.586,218.692C106.678,218.692 103.535,215.413 103.535,211.335Z" style="fill:rgb(254,252,0);fill-rule:nonzero;"/>
            <path d="M131.736,211.335C131.736,207.257 134.879,203.978 138.787,203.978C142.694,203.978 145.837,207.257 145.837,211.335C145.837,215.413 142.694,218.692 138.787,218.692C134.879,218.692 131.736,215.413 131.736,211.335Z" style="fill:rgb(254,252,0);fill-rule:nonzero;"/>
            <path d="M160.023,211.335C160.023,207.257 163.166,203.978 167.073,203.978C170.981,203.978 174.124,207.257 174.124,211.335C174.124,215.413 170.981,218.692 167.073,218.692C163.166,218.692 160.023,215.413 160.023,211.335Z" style="fill:rgb(254,252,0);fill-rule:nonzero;"/>
            <path d="M188.225,211.335C188.225,207.257 191.367,203.978 195.275,203.978C199.182,203.978 202.325,207.257 202.325,211.335C202.325,215.413 199.182,218.692 195.275,218.692C191.367,218.692 188.225,215.413 188.225,211.335Z" style="fill:rgb(254,252,0);fill-rule:nonzero;"/>
            <path d="M216.424,211.335C216.424,207.257 219.566,203.978 223.474,203.978C227.381,203.978 230.524,207.257 230.524,211.335C230.524,215.413 227.381,218.692 223.474,218.692C219.566,218.692 216.424,215.413 216.424,211.335Z" style="fill:rgb(254,252,0);fill-rule:nonzero;"/>
            <path d="M244.629,211.335C244.629,207.257 247.772,203.978 251.679,203.978C255.587,203.978 258.73,207.257 258.73,211.335C258.73,215.413 255.587,218.692 251.679,218.692C247.772,218.692 244.629,215.413 244.629,211.335Z" style="fill:rgb(254,252,0);fill-rule:nonzero;"/>
            <path d="M4.66,231.635C4.66,227.558 7.803,224.278 11.711,224.278C15.618,224.278 18.761,227.558 18.761,231.635C18.761,235.713 15.618,238.993 11.711,238.993C7.803,238.993 4.66,235.713 4.66,231.635Z" style="fill:rgb(254,252,0);fill-rule:nonzero;"/>
            <path d="M32.949,231.635C32.949,227.558 36.092,224.278 40,224.278C43.907,224.278 47.05,227.558 47.05,231.635C47.05,235.713 43.907,238.993 40,238.993C36.092,238.993 32.949,235.713 32.949,231.635Z" style="fill:rgb(254,252,0);fill-rule:nonzero;"/>
            <path d="M61.143,231.635C61.143,227.558 64.286,224.278 68.193,224.278C72.101,224.278 75.243,227.558 75.243,231.635C75.243,235.713 72.101,238.993 68.193,238.993C64.286,238.993 61.143,235.713 61.143,231.635Z" style="fill:rgb(254,252,0);fill-rule:nonzero;"/>
            <path d="M89.35,231.635C89.35,227.558 92.493,224.278 96.4,224.278C100.307,224.278 103.45,227.558 103.45,231.635C103.45,235.713 100.307,238.993 96.4,238.993C92.493,238.993 89.35,235.713 89.35,231.635Z" style="fill:rgb(254,252,0);fill-rule:nonzero;"/>
            <path d="M117.549,231.635C117.549,227.558 120.691,224.278 124.599,224.278C128.506,224.278 131.649,227.558 131.649,231.635C131.649,235.713 128.506,238.993 124.599,238.993C120.691,238.993 117.549,235.713 117.549,231.635Z" style="fill:rgb(254,252,0);fill-rule:nonzero;"/>
            <path d="M145.748,231.635C145.748,227.558 148.891,224.278 152.798,224.278C156.705,224.278 159.848,227.558 159.848,231.635C159.848,235.713 156.705,238.993 152.798,238.993C148.891,238.993 145.748,235.713 145.748,231.635Z" style="fill:rgb(254,252,0);fill-rule:nonzero;"/>
            <path d="M173.949,231.635C173.949,227.558 177.092,224.278 180.999,224.278C184.907,224.278 188.05,227.558 188.05,231.635C188.05,235.713 184.907,238.993 180.999,238.993C177.092,238.993 173.949,235.713 173.949,231.635Z" style="fill:rgb(254,252,0);fill-rule:nonzero;"/>
            <path d="M202.236,231.635C202.236,227.558 205.379,224.278 209.287,224.278C213.194,224.278 216.337,227.558 216.337,231.635C216.337,235.713 213.194,238.993 209.287,238.993C205.379,238.993 202.236,235.713 202.236,231.635Z" style="fill:rgb(254,252,0);fill-rule:nonzero;"/>
            <path d="M230.443,231.635C230.443,227.558 233.586,224.278 237.494,224.278C241.401,224.278 244.544,227.558 244.544,231.635C244.544,235.713 241.401,238.993 237.494,238.993C233.586,238.993 230.443,235.713 230.443,231.635Z" style="fill:rgb(254,252,0);fill-rule:nonzero;"/>
            <path d="M258.637,231.635C258.637,227.558 261.78,224.278 265.687,224.278C269.595,224.278 272.737,227.558 272.737,231.635C272.737,235.713 269.595,238.993 265.687,238.993C261.78,238.993 258.637,235.713 258.637,231.635Z" style="fill:rgb(254,252,0);fill-rule:nonzero;"/>
            <path d="M-9.27,250.516C-9.27,246.439 -6.127,243.159 -2.22,243.159C1.688,243.159 4.831,246.439 4.831,250.516C4.831,254.594 1.688,257.874 -2.22,257.874C-6.127,257.874 -9.27,254.594 -9.27,250.516Z" style="fill:rgb(254,252,0);fill-rule:nonzero;"/>
            <path d="M18.93,250.516C18.93,246.439 22.072,243.159 25.98,243.159C29.887,243.159 33.03,246.439 33.03,250.516C33.03,254.594 29.887,257.874 25.98,257.874C22.072,257.874 18.93,254.594 18.93,250.516Z" style="fill:rgb(254,252,0);fill-rule:nonzero;"/>
            <path d="M47.137,250.516C47.137,246.439 50.28,243.159 54.187,243.159C58.095,243.159 61.238,246.439 61.238,250.516C61.238,254.594 58.095,257.874 54.187,257.874C50.28,257.874 47.137,254.594 47.137,250.516Z" style="fill:rgb(254,252,0);fill-rule:nonzero;"/>
            <path d="M75.328,250.516C75.328,246.439 78.471,243.159 82.379,243.159C86.286,243.159 89.429,246.439 89.429,250.516C89.429,254.594 86.286,257.874 82.379,257.874C78.471,257.874 75.328,254.594 75.328,250.516Z" style="fill:rgb(254,252,0);fill-rule:nonzero;"/>
            <path d="M103.535,250.516C103.535,246.439 106.678,243.159 110.586,243.159C114.493,243.159 117.636,246.439 117.636,250.516C117.636,254.594 114.493,257.874 110.586,257.874C106.678,257.874 103.535,254.594 103.535,250.516Z" style="fill:rgb(254,252,0);fill-rule:nonzero;"/>
            <path d="M131.736,250.516C131.736,246.439 134.879,243.159 138.787,243.159C142.694,243.159 145.837,246.439 145.837,250.516C145.837,254.594 142.694,257.874 138.787,257.874C134.879,257.874 131.736,254.594 131.736,250.516Z" style="fill:rgb(254,252,0);fill-rule:nonzero;"/>
            <path d="M160.023,250.516C160.023,246.439 163.166,243.159 167.073,243.159C170.981,243.159 174.124,246.439 174.124,250.516C174.124,254.594 170.981,257.874 167.073,257.874C163.166,257.874 160.023,254.594 160.023,250.516Z" style="fill:rgb(254,252,0);fill-rule:nonzero;"/>
            <path d="M188.225,250.516C188.225,246.439 191.367,243.159 195.275,243.159C199.182,243.159 202.325,246.439 202.325,250.516C202.325,254.594 199.182,257.874 195.275,257.874C191.367,257.874 188.225,254.594 188.225,250.516Z" style="fill:rgb(254,252,0);fill-rule:nonzero;"/>
            <path d="M216.424,250.516C216.424,246.439 219.566,243.159 223.474,243.159C227.381,243.159 230.524,246.439 230.524,250.516C230.524,254.594 227.381,257.874 223.474,257.874C219.566,257.874 216.424,254.594 216.424,250.516Z" style="fill:rgb(254,252,0);fill-rule:nonzero;"/>
            <path d="M244.629,250.516C244.629,246.439 247.772,243.159 251.679,243.159C255.587,243.159 258.73,246.439 258.73,250.516C258.73,254.594 255.587,257.874 251.679,257.874C247.772,257.874 244.629,254.594 244.629,250.516Z" style="fill:rgb(254,252,0);fill-rule:nonzero;"/>
            <path d="M4.66,270.816C4.66,266.738 7.803,263.458 11.711,263.458C15.618,263.458 18.761,266.738 18.761,270.816C18.761,274.893 15.618,278.173 11.711,278.173C7.803,278.173 4.66,274.893 4.66,270.816Z" style="fill:rgb(254,252,0);fill-rule:nonzero;"/>
            <path d="M32.949,270.816C32.949,266.738 36.092,263.458 40,263.458C43.907,263.458 47.05,266.738 47.05,270.816C47.05,274.893 43.907,278.173 40,278.173C36.092,278.173 32.949,274.893 32.949,270.816Z" style="fill:rgb(254,252,0);fill-rule:nonzero;"/>
            <path d="M61.143,270.816C61.143,266.738 64.286,263.458 68.193,263.458C72.101,263.458 75.243,266.738 75.243,270.816C75.243,274.893 72.101,278.173 68.193,278.173C64.286,278.173 61.143,274.893 61.143,270.816Z" style="fill:rgb(254,252,0);fill-rule:nonzero;"/>
            <path d="M89.35,270.816C89.35,266.738 92.493,263.458 96.4,263.458C100.307,263.458 103.45,266.738 103.45,270.816C103.45,274.893 100.307,278.173 96.4,278.173C92.493,278.173 89.35,274.893 89.35,270.816Z" style="fill:rgb(254,252,0);fill-rule:nonzero;"/>
            <path d="M117.549,270.816C117.549,266.738 120.691,263.458 124.599,263.458C128.506,263.458 131.649,266.738 131.649,270.816C131.649,274.893 128.506,278.173 124.599,278.173C120.691,278.173 117.549,274.893 117.549,270.816Z" style="fill:rgb(254,252,0);fill-rule:nonzero;"/>
            <path d="M145.748,270.816C145.748,266.738 148.891,263.458 152.798,263.458C156.705,263.458 159.848,266.738 159.848,270.816C159.848,274.893 156.705,278.173 152.798,278.173C148.891,278.173 145.748,274.893 145.748,270.816Z" style="fill:rgb(254,252,0);fill-rule:nonzero;"/>
            <path d="M173.949,270.816C173.949,266.738 177.092,263.458 180.999,263.458C184.907,263.458 188.05,266.738 188.05,270.816C188.05,274.893 184.907,278.173 180.999,278.173C177.092,278.173 173.949,274.893 173.949,270.816Z" style="fill:rgb(254,252,0);fill-rule:nonzero;"/>
            <path d="M202.236,270.816C202.236,266.738 205.379,263.458 209.287,263.458C213.194,263.458 216.337,266.738 216.337,270.816C216.337,274.893 213.194,278.173 209.287,278.173C205.379,278.173 202.236,274.893 202.236,270.816Z" style="fill:rgb(254,252,0);fill-rule:nonzero;"/>
            <path d="M230.443,270.816C230.443,266.738 233.586,263.458 237.494,263.458C241.401,263.458 244.544,266.738 244.544,270.816C244.544,274.893 241.401,278.173 237.494,278.173C233.586,278.173 230.443,274.893 230.443,270.816Z" style="fill:rgb(254,252,0);fill-rule:nonzero;"/>
            <path d="M258.637,270.816C258.637,266.738 261.78,263.458 265.687,263.458C269.595,263.458 272.737,266.738 272.737,270.816C272.737,274.893 269.595,278.173 265.687,278.173C261.78,278.173 258.637,274.893 258.637,270.816Z" style="fill:rgb(254,252,0);fill-rule:nonzero;"/>
            <path d="M-9.27,289.697C-9.27,285.619 -6.127,282.339 -2.22,282.339C1.688,282.339 4.831,285.619 4.831,289.697C4.831,293.774 1.688,297.054 -2.22,297.054C-6.127,297.054 -9.27,293.774 -9.27,289.697Z" style="fill:rgb(254,252,0);fill-rule:nonzero;"/>
            <path d="M18.93,289.697C18.93,285.619 22.072,282.339 25.98,282.339C29.887,282.339 33.03,285.619 33.03,289.697C33.03,293.774 29.887,297.054 25.98,297.054C22.072,297.054 18.93,293.774 18.93,289.697Z" style="fill:rgb(254,252,0);fill-rule:nonzero;"/>
            <path d="M47.137,289.697C47.137,285.619 50.28,282.339 54.187,282.339C58.095,282.339 61.238,285.619 61.238,289.697C61.238,293.774 58.095,297.054 54.187,297.054C50.28,297.054 47.137,293.774 47.137,289.697Z" style="fill:rgb(254,252,0);fill-rule:nonzero;"/>
            <path d="M75.328,289.697C75.328,285.619 78.471,282.339 82.379,282.339C86.286,282.339 89.429,285.619 89.429,289.697C89.429,293.774 86.286,297.054 82.379,297.054C78.471,297.054 75.328,293.774 75.328,289.697Z" style="fill:rgb(254,252,0);fill-rule:nonzero;"/>
            <path d="M103.535,289.697C103.535,285.619 106.678,282.339 110.586,282.339C114.493,282.339 117.636,285.619 117.636,289.697C117.636,293.774 114.493,297.054 110.586,297.054C106.678,297.054 103.535,293.774 103.535,289.697Z" style="fill:rgb(254,252,0);fill-rule:nonzero;"/>
            <path d="M131.736,289.697C131.736,285.619 134.879,282.339 138.787,282.339C142.694,282.339 145.837,285.619 145.837,289.697C145.837,293.774 142.694,297.054 138.787,297.054C134.879,297.054 131.736,293.774 131.736,289.697Z" style="fill:rgb(254,252,0);fill-rule:nonzero;"/>
            <path d="M160.023,289.697C160.023,285.619 163.166,282.339 167.073,282.339C170.981,282.339 174.124,285.619 174.124,289.697C174.124,293.774 170.981,297.054 167.073,297.054C163.166,297.054 160.023,293.774 160.023,289.697Z" style="fill:rgb(254,252,0);fill-rule:nonzero;"/>
            <path d="M188.225,289.697C188.225,285.619 191.367,282.339 195.275,282.339C199.182,282.339 202.325,285.619 202.325,289.697C202.325,293.774 199.182,297.054 195.275,297.054C191.367,297.054 188.225,293.774 188.225,289.697Z" style="fill:rgb(254,252,0);fill-rule:nonzero;"/>
            <path d="M216.424,289.697C216.424,285.619 219.566,282.339 223.474,282.339C227.381,282.339 230.524,285.619 230.524,289.697C230.524,293.774 227.381,297.054 223.474,297.054C219.566,297.054 216.424,293.774 216.424,289.697Z" style="fill:rgb(254,252,0);fill-rule:nonzero;"/>
            <path d="M251.679,297.054C255.573,297.054 258.73,293.76 258.73,289.697C258.73,285.633 255.573,282.339 251.679,282.339C247.786,282.339 244.629,285.633 244.629,289.697C244.629,293.76 247.786,297.054 251.679,297.054Z" style="fill:rgb(254,252,0);fill-rule:nonzero;"/>
            <path d="M4.66,309.996C4.66,305.918 7.803,302.638 11.711,302.638C15.618,302.638 18.761,305.918 18.761,309.996C18.761,314.073 15.618,317.353 11.711,317.353C7.803,317.353 4.66,314.073 4.66,309.996Z" style="fill:rgb(254,252,0);fill-rule:nonzero;"/>
            <path d="M32.949,309.996C32.949,305.918 36.092,302.638 40,302.638C43.907,302.638 47.05,305.918 47.05,309.996C47.05,314.073 43.907,317.353 40,317.353C36.092,317.353 32.949,314.073 32.949,309.996Z" style="fill:rgb(254,252,0);fill-rule:nonzero;"/>
            <path d="M61.143,309.996C61.143,305.918 64.286,302.638 68.193,302.638C72.101,302.638 75.243,305.918 75.243,309.996C75.243,314.073 72.101,317.353 68.193,317.353C64.286,317.353 61.143,314.073 61.143,309.996Z" style="fill:rgb(254,252,0);fill-rule:nonzero;"/>
            <path d="M89.35,309.996C89.35,305.918 92.493,302.638 96.4,302.638C100.307,302.638 103.45,305.918 103.45,309.996C103.45,314.073 100.307,317.353 96.4,317.353C92.493,317.353 89.35,314.073 89.35,309.996Z" style="fill:rgb(254,252,0);fill-rule:nonzero;"/>
            <path d="M117.549,309.996C117.549,305.918 120.691,302.638 124.599,302.638C128.506,302.638 131.649,305.918 131.649,309.996C131.649,314.073 128.506,317.353 124.599,317.353C120.691,317.353 117.549,314.073 117.549,309.996Z" style="fill:rgb(254,252,0);fill-rule:nonzero;"/>
            <path d="M145.748,309.996C145.748,305.918 148.891,302.638 152.798,302.638C156.705,302.638 159.848,305.918 159.848,309.996C159.848,314.073 156.705,317.353 152.798,317.353C148.891,317.353 145.748,314.073 145.748,309.996Z" style="fill:rgb(254,252,0);fill-rule:nonzero;"/>
            <path d="M173.949,309.996C173.949,305.918 177.092,302.638 180.999,302.638C184.907,302.638 188.05,305.918 188.05,309.996C188.05,314.073 184.907,317.353 180.999,317.353C177.092,317.353 173.949,314.073 173.949,309.996Z" style="fill:rgb(254,252,0);fill-rule:nonzero;"/>
            <path d="M202.236,309.996C202.236,305.918 205.379,302.638 209.287,302.638C213.194,302.638 216.337,305.918 216.337,309.996C216.337,314.073 213.194,317.353 209.287,317.353C205.379,317.353 202.236,314.073 202.236,309.996Z" style="fill:rgb(254,252,0);fill-rule:nonzero;"/>
            <path d="M230.443,309.996C230.443,305.918 233.586,302.638 237.494,302.638C241.401,302.638 244.544,305.918 244.544,309.996C244.544,314.073 241.401,317.353 237.494,317.353C233.586,317.353 230.443,314.073 230.443,309.996Z" style="fill:rgb(254,252,0);fill-rule:nonzero;"/>
            <path d="M258.637,309.996C258.637,305.918 261.78,302.638 265.687,302.638C269.595,302.638 272.737,305.918 272.737,309.996C272.737,314.073 269.595,317.353 265.687,317.353C261.78,317.353 258.637,314.073 258.637,309.996Z" style="fill:rgb(254,252,0);fill-rule:nonzero;"/>
            <path d="M-9.27,328.965C-9.27,324.887 -6.127,321.607 -2.22,321.607C1.688,321.607 4.831,324.887 4.831,328.965C4.831,333.042 1.688,336.322 -2.22,336.322C-6.127,336.322 -9.27,333.042 -9.27,328.965Z" style="fill:rgb(254,252,0);fill-rule:nonzero;"/>
            <path d="M18.93,328.965C18.93,324.887 22.072,321.607 25.98,321.607C29.887,321.607 33.03,324.887 33.03,328.965C33.03,333.042 29.887,336.322 25.98,336.322C22.072,336.322 18.93,333.042 18.93,328.965Z" style="fill:rgb(254,252,0);fill-rule:nonzero;"/>
            <path d="M47.137,328.965C47.137,324.887 50.28,321.607 54.187,321.607C58.095,321.607 61.238,324.887 61.238,328.965C61.238,333.042 58.095,336.322 54.187,336.322C50.28,336.322 47.137,333.042 47.137,328.965Z" style="fill:rgb(254,252,0);fill-rule:nonzero;"/>
            <path d="M75.328,328.965C75.328,324.887 78.471,321.607 82.379,321.607C86.286,321.607 89.429,324.887 89.429,328.965C89.429,333.042 86.286,336.322 82.379,336.322C78.471,336.322 75.328,333.042 75.328,328.965Z" style="fill:rgb(254,252,0);fill-rule:nonzero;"/>
            <path d="M103.535,328.965C103.535,324.887 106.678,321.607 110.586,321.607C114.493,321.607 117.636,324.887 117.636,328.965C117.636,333.042 114.493,336.322 110.586,336.322C106.678,336.322 103.535,333.042 103.535,328.965Z" style="fill:rgb(254,252,0);fill-rule:nonzero;"/>
            <path d="M131.736,328.965C131.736,324.887 134.879,321.607 138.787,321.607C142.694,321.607 145.837,324.887 145.837,328.965C145.837,333.042 142.694,336.322 138.787,336.322C134.879,336.322 131.736,333.042 131.736,328.965Z" style="fill:rgb(254,252,0);fill-rule:nonzero;"/>
            <path d="M160.023,328.965C160.023,324.887 163.166,321.607 167.073,321.607C170.981,321.607 174.124,324.887 174.124,328.965C174.124,333.042 170.981,336.322 167.073,336.322C163.166,336.322 160.023,333.042 160.023,328.965Z" style="fill:rgb(254,252,0);fill-rule:nonzero;"/>
            <path d="M188.225,328.965C188.225,324.887 191.367,321.607 195.275,321.607C199.182,321.607 202.325,324.887 202.325,328.965C202.325,333.042 199.182,336.322 195.275,336.322C191.367,336.322 188.225,333.042 188.225,328.965Z" style="fill:rgb(254,252,0);fill-rule:nonzero;"/>
            <path d="M216.424,328.965C216.424,324.887 219.566,321.607 223.474,321.607C227.381,321.607 230.524,324.887 230.524,328.965C230.524,333.042 227.381,336.322 223.474,336.322C219.566,336.322 216.424,333.042 216.424,328.965Z" style="fill:rgb(254,252,0);fill-rule:nonzero;"/>
            <path d="M244.629,328.965C244.629,324.887 247.772,321.607 251.679,321.607C255.587,321.607 258.73,324.887 258.73,328.965C258.73,333.042 255.587,336.322 251.679,336.322C247.772,336.322 244.629,333.042 244.629,328.965Z" style="fill:rgb(254,252,0);fill-rule:nonzero;"/>
            <path d="M4.66,349.176C4.66,345.098 7.803,341.819 11.711,341.819C15.618,341.819 18.761,345.098 18.761,349.176C18.761,353.254 15.618,356.533 11.711,356.533C7.803,356.533 4.66,353.254 4.66,349.176Z" style="fill:rgb(254,252,0);fill-rule:nonzero;"/>
            <path d="M32.949,349.176C32.949,345.098 36.092,341.819 40,341.819C43.907,341.819 47.05,345.098 47.05,349.176C47.05,353.254 43.907,356.533 40,356.533C36.092,356.533 32.949,353.254 32.949,349.176Z" style="fill:rgb(254,252,0);fill-rule:nonzero;"/>
            <path d="M61.143,349.176C61.143,345.098 64.286,341.819 68.193,341.819C72.101,341.819 75.243,345.098 75.243,349.176C75.243,353.254 72.101,356.533 68.193,356.533C64.286,356.533 61.143,353.254 61.143,349.176Z" style="fill:rgb(254,252,0);fill-rule:nonzero;"/>
            <path d="M89.35,349.176C89.35,345.098 92.493,341.819 96.4,341.819C100.307,341.819 103.45,345.098 103.45,349.176C103.45,353.254 100.307,356.533 96.4,356.533C92.493,356.533 89.35,353.254 89.35,349.176Z" style="fill:rgb(254,252,0);fill-rule:nonzero;"/>
            <path d="M117.549,349.176C117.549,345.098 120.691,341.819 124.599,341.819C128.506,341.819 131.649,345.098 131.649,349.176C131.649,353.254 128.506,356.533 124.599,356.533C120.691,356.533 117.549,353.254 117.549,349.176Z" style="fill:rgb(254,252,0);fill-rule:nonzero;"/>
            <path d="M145.748,349.176C145.748,345.098 148.891,341.819 152.798,341.819C156.705,341.819 159.848,345.098 159.848,349.176C159.848,353.254 156.705,356.533 152.798,356.533C148.891,356.533 145.748,353.254 145.748,349.176Z" style="fill:rgb(254,252,0);fill-rule:nonzero;"/>
            <path d="M173.949,349.176C173.949,345.098 177.092,341.819 180.999,341.819C184.907,341.819 188.05,345.098 188.05,349.176C188.05,353.254 184.907,356.533 180.999,356.533C177.092,356.533 173.949,353.254 173.949,349.176Z" style="fill:rgb(254,252,0);fill-rule:nonzero;"/>
            <path d="M202.236,349.176C202.236,345.098 205.379,341.819 209.287,341.819C213.194,341.819 216.337,345.098 216.337,349.176C216.337,353.254 213.194,356.533 209.287,356.533C205.379,356.533 202.236,353.254 202.236,349.176Z" style="fill:rgb(254,252,0);fill-rule:nonzero;"/>
            <path d="M230.443,349.176C230.443,345.098 233.586,341.819 237.494,341.819C241.401,341.819 244.544,345.098 244.544,349.176C244.544,353.254 241.401,356.533 237.494,356.533C233.586,356.533 230.443,353.254 230.443,349.176Z" style="fill:rgb(254,252,0);fill-rule:nonzero;"/>
            <path d="M258.637,349.176C258.637,345.098 261.78,341.819 265.687,341.819C269.595,341.819 272.737,345.098 272.737,349.176C272.737,353.254 269.595,356.533 265.687,356.533C261.78,356.533 258.637,353.254 258.637,349.176Z" style="fill:rgb(254,252,0);fill-rule:nonzero;"/>
            <path d="M-9.27,368.145C-9.27,364.067 -6.127,360.787 -2.22,360.787C1.688,360.787 4.831,364.067 4.831,368.145C4.831,372.222 1.688,375.502 -2.22,375.502C-6.127,375.502 -9.27,372.222 -9.27,368.145Z" style="fill:rgb(254,252,0);fill-rule:nonzero;"/>
            <path d="M18.93,368.145C18.93,364.067 22.072,360.787 25.98,360.787C29.887,360.787 33.03,364.067 33.03,368.145C33.03,372.222 29.887,375.502 25.98,375.502C22.072,375.502 18.93,372.222 18.93,368.145Z" style="fill:rgb(254,252,0);fill-rule:nonzero;"/>
            <path d="M47.137,368.145C47.137,364.067 50.28,360.787 54.187,360.787C58.095,360.787 61.238,364.067 61.238,368.145C61.238,372.222 58.095,375.502 54.187,375.502C50.28,375.502 47.137,372.222 47.137,368.145Z" style="fill:rgb(254,252,0);fill-rule:nonzero;"/>
            <path d="M75.328,368.145C75.328,364.067 78.471,360.787 82.379,360.787C86.286,360.787 89.429,364.067 89.429,368.145C89.429,372.222 86.286,375.502 82.379,375.502C78.471,375.502 75.328,372.222 75.328,368.145Z" style="fill:rgb(254,252,0);fill-rule:nonzero;"/>
            <path d="M103.535,368.145C103.535,364.067 106.678,360.787 110.586,360.787C114.493,360.787 117.636,364.067 117.636,368.145C117.636,372.222 114.493,375.502 110.586,375.502C106.678,375.502 103.535,372.222 103.535,368.145Z" style="fill:rgb(254,252,0);fill-rule:nonzero;"/>
            <path d="M131.736,368.145C131.736,364.067 134.879,360.787 138.787,360.787C142.694,360.787 145.837,364.067 145.837,368.145C145.837,372.222 142.694,375.502 138.787,375.502C134.879,375.502 131.736,372.222 131.736,368.145Z" style="fill:rgb(254,252,0);fill-rule:nonzero;"/>
            <path d="M160.023,368.145C160.023,364.067 163.166,360.787 167.073,360.787C170.981,360.787 174.124,364.067 174.124,368.145C174.124,372.222 170.981,375.502 167.073,375.502C163.166,375.502 160.023,372.222 160.023,368.145Z" style="fill:rgb(254,252,0);fill-rule:nonzero;"/>
            <path d="M188.225,368.145C188.225,364.067 191.367,360.787 195.275,360.787C199.182,360.787 202.325,364.067 202.325,368.145C202.325,372.222 199.182,375.502 195.275,375.502C191.367,375.502 188.225,372.222 188.225,368.145Z" style="fill:rgb(254,252,0);fill-rule:nonzero;"/>
            <path d="M216.424,368.145C216.424,364.067 219.566,360.787 223.474,360.787C227.381,360.787 230.524,364.067 230.524,368.145C230.524,372.222 227.381,375.502 223.474,375.502C219.566,375.502 216.424,372.222 216.424,368.145Z" style="fill:rgb(254,252,0);fill-rule:nonzero;"/>
            <path d="M244.629,368.145C244.629,364.067 247.772,360.787 251.679,360.787C255.587,360.787 258.73,364.067 258.73,368.145C258.73,372.222 255.587,375.502 251.679,375.502C247.772,375.502 244.629,372.222 244.629,368.145Z" style="fill:rgb(254,252,0);fill-rule:nonzero;"/>
            <path d="M4.66,388.446C4.66,384.368 7.803,381.088 11.711,381.088C15.618,381.088 18.761,384.368 18.761,388.446C18.761,392.523 15.618,395.803 11.711,395.803C7.803,395.803 4.66,392.523 4.66,388.446Z" style="fill:rgb(254,252,0);fill-rule:nonzero;"/>
            <path d="M32.949,388.446C32.949,384.368 36.092,381.088 40,381.088C43.907,381.088 47.05,384.368 47.05,388.446C47.05,392.523 43.907,395.803 40,395.803C36.092,395.803 32.949,392.523 32.949,388.446Z" style="fill:rgb(254,252,0);fill-rule:nonzero;"/>
            <path d="M61.143,388.446C61.143,384.368 64.286,381.088 68.193,381.088C72.101,381.088 75.243,384.368 75.243,388.446C75.243,392.523 72.101,395.803 68.193,395.803C64.286,395.803 61.143,392.523 61.143,388.446Z" style="fill:rgb(254,252,0);fill-rule:nonzero;"/>
            <path d="M89.35,388.446C89.35,384.368 92.493,381.088 96.4,381.088C100.307,381.088 103.45,384.368 103.45,388.446C103.45,392.523 100.307,395.803 96.4,395.803C92.493,395.803 89.35,392.523 89.35,388.446Z" style="fill:rgb(254,252,0);fill-rule:nonzero;"/>
            <path d="M117.549,388.446C117.549,384.368 120.691,381.088 124.599,381.088C128.506,381.088 131.649,384.368 131.649,388.446C131.649,392.523 128.506,395.803 124.599,395.803C120.691,395.803 117.549,392.523 117.549,388.446Z" style="fill:rgb(254,252,0);fill-rule:nonzero;"/>
            <path d="M145.748,388.446C145.748,384.368 148.891,381.088 152.798,381.088C156.705,381.088 159.848,384.368 159.848,388.446C159.848,392.523 156.705,395.803 152.798,395.803C148.891,395.803 145.748,392.523 145.748,388.446Z" style="fill:rgb(254,252,0);fill-rule:nonzero;"/>
            <path d="M173.949,388.446C173.949,384.368 177.092,381.088 180.999,381.088C184.907,381.088 188.05,384.368 188.05,388.446C188.05,392.523 184.907,395.803 180.999,395.803C177.092,395.803 173.949,392.523 173.949,388.446Z" style="fill:rgb(254,252,0);fill-rule:nonzero;"/>
            <path d="M202.236,388.446C202.236,384.368 205.379,381.088 209.287,381.088C213.194,381.088 216.337,384.368 216.337,388.446C216.337,392.523 213.194,395.803 209.287,395.803C205.379,395.803 202.236,392.523 202.236,388.446Z" style="fill:rgb(254,252,0);fill-rule:nonzero;"/>
            <path d="M230.443,388.446C230.443,384.368 233.586,381.088 237.494,381.088C241.401,381.088 244.544,384.368 244.544,388.446C244.544,392.523 241.401,395.803 237.494,395.803C233.586,395.803 230.443,392.523 230.443,388.446Z" style="fill:rgb(254,252,0);fill-rule:nonzero;"/>
            <path d="M258.637,388.446C258.637,384.368 261.78,381.088 265.687,381.088C269.595,381.088 272.737,384.368 272.737,388.446C272.737,392.523 269.595,395.803 265.687,395.803C261.78,395.803 258.637,392.523 258.637,388.446Z" style="fill:rgb(254,252,0);fill-rule:nonzero;"/>
            <path d="M-9.27,407.326C-9.27,403.249 -6.127,399.969 -2.22,399.969C1.688,399.969 4.831,403.249 4.831,407.326C4.831,411.404 1.688,414.684 -2.22,414.684C-6.127,414.684 -9.27,411.404 -9.27,407.326Z" style="fill:rgb(254,252,0);fill-rule:nonzero;"/>
            <path d="M18.93,407.326C18.93,403.249 22.072,399.969 25.98,399.969C29.887,399.969 33.03,403.249 33.03,407.326C33.03,411.404 29.887,414.684 25.98,414.684C22.072,414.684 18.93,411.404 18.93,407.326Z" style="fill:rgb(254,252,0);fill-rule:nonzero;"/>
            <path d="M47.137,407.326C47.137,403.249 50.28,399.969 54.187,399.969C58.095,399.969 61.238,403.249 61.238,407.326C61.238,411.404 58.095,414.684 54.187,414.684C50.28,414.684 47.137,411.404 47.137,407.326Z" style="fill:rgb(254,252,0);fill-rule:nonzero;"/>
            <path d="M75.328,407.326C75.328,403.249 78.471,399.969 82.379,399.969C86.286,399.969 89.429,403.249 89.429,407.326C89.429,411.404 86.286,414.684 82.379,414.684C78.471,414.684 75.328,411.404 75.328,407.326Z" style="fill:rgb(254,252,0);fill-rule:nonzero;"/>
            <path d="M103.535,407.326C103.535,403.249 106.678,399.969 110.586,399.969C114.493,399.969 117.636,403.249 117.636,407.326C117.636,411.404 114.493,414.684 110.586,414.684C106.678,414.684 103.535,411.404 103.535,407.326Z" style="fill:rgb(254,252,0);fill-rule:nonzero;"/>
            <path d="M131.736,407.326C131.736,403.249 134.879,399.969 138.787,399.969C142.694,399.969 145.837,403.249 145.837,407.326C145.837,411.404 142.694,414.684 138.787,414.684C134.879,414.684 131.736,411.404 131.736,407.326Z" style="fill:rgb(254,252,0);fill-rule:nonzero;"/>
            <path d="M160.023,407.326C160.023,403.249 163.166,399.969 167.073,399.969C170.981,399.969 174.124,403.249 174.124,407.326C174.124,411.404 170.981,414.684 167.073,414.684C163.166,414.684 160.023,411.404 160.023,407.326Z" style="fill:rgb(254,252,0);fill-rule:nonzero;"/>
            <path d="M188.225,407.326C188.225,403.249 191.367,399.969 195.275,399.969C199.182,399.969 202.325,403.249 202.325,407.326C202.325,411.404 199.182,414.684 195.275,414.684C191.367,414.684 188.225,411.404 188.225,407.326Z" style="fill:rgb(254,252,0);fill-rule:nonzero;"/>
            <path d="M216.424,407.326C216.424,403.249 219.566,399.969 223.474,399.969C227.381,399.969 230.524,403.249 230.524,407.326C230.524,411.404 227.381,414.684 223.474,414.684C219.566,414.684 216.424,411.404 216.424,407.326Z" style="fill:rgb(254,252,0);fill-rule:nonzero;"/>
            <path d="M244.629,407.326C244.629,403.249 247.772,399.969 251.679,399.969C255.587,399.969 258.73,403.249 258.73,407.326C258.73,411.404 255.587,414.684 251.679,414.684C247.772,414.684 244.629,411.404 244.629,407.326Z" style="fill:rgb(254,252,0);fill-rule:nonzero;"/>
            <path d="M4.66,427.626C4.66,423.548 7.803,420.269 11.711,420.269C15.618,420.269 18.761,423.548 18.761,427.626C18.761,431.704 15.618,434.983 11.711,434.983C7.803,434.983 4.66,431.704 4.66,427.626Z" style="fill:rgb(254,252,0);fill-rule:nonzero;"/>
            <path d="M32.949,427.626C32.949,423.548 36.092,420.269 40,420.269C43.907,420.269 47.05,423.548 47.05,427.626C47.05,431.704 43.907,434.983 40,434.983C36.092,434.983 32.949,431.704 32.949,427.626Z" style="fill:rgb(254,252,0);fill-rule:nonzero;"/>
            <path d="M61.143,427.626C61.143,423.548 64.286,420.269 68.193,420.269C72.101,420.269 75.243,423.548 75.243,427.626C75.243,431.704 72.101,434.983 68.193,434.983C64.286,434.983 61.143,431.704 61.143,427.626Z" style="fill:rgb(254,252,0);fill-rule:nonzero;"/>
            <path d="M89.35,427.626C89.35,423.548 92.493,420.269 96.4,420.269C100.307,420.269 103.45,423.548 103.45,427.626C103.45,431.704 100.307,434.983 96.4,434.983C92.493,434.983 89.35,431.704 89.35,427.626Z" style="fill:rgb(254,252,0);fill-rule:nonzero;"/>
            <path d="M117.549,427.626C117.549,423.548 120.691,420.269 124.599,420.269C128.506,420.269 131.649,423.548 131.649,427.626C131.649,431.704 128.506,434.983 124.599,434.983C120.691,434.983 117.549,431.704 117.549,427.626Z" style="fill:rgb(254,252,0);fill-rule:nonzero;"/>
            <path d="M145.748,427.626C145.748,423.548 148.891,420.269 152.798,420.269C156.705,420.269 159.848,423.548 159.848,427.626C159.848,431.704 156.705,434.983 152.798,434.983C148.891,434.983 145.748,431.704 145.748,427.626Z" style="fill:rgb(254,252,0);fill-rule:nonzero;"/>
            <path d="M173.949,427.626C173.949,423.548 177.092,420.269 180.999,420.269C184.907,420.269 188.05,423.548 188.05,427.626C188.05,431.704 184.907,434.983 180.999,434.983C177.092,434.983 173.949,431.704 173.949,427.626Z" style="fill:rgb(254,252,0);fill-rule:nonzero;"/>
            <path d="M202.236,427.626C202.236,423.548 205.379,420.269 209.287,420.269C213.194,420.269 216.337,423.548 216.337,427.626C216.337,431.704 213.194,434.983 209.287,434.983C205.379,434.983 202.236,431.704 202.236,427.626Z" style="fill:rgb(254,252,0);fill-rule:nonzero;"/>
            <path d="M230.443,427.626C230.443,423.548 233.586,420.269 237.494,420.269C241.401,420.269 244.544,423.548 244.544,427.626C244.544,431.704 241.401,434.983 237.494,434.983C233.586,434.983 230.443,431.704 230.443,427.626Z" style="fill:rgb(254,252,0);fill-rule:nonzero;"/>
            <path d="M258.637,427.626C258.637,423.548 261.78,420.269 265.687,420.269C269.595,420.269 272.737,423.548 272.737,427.626C272.737,431.704 269.595,434.983 265.687,434.983C261.78,434.983 258.637,431.704 258.637,427.626Z" style="fill:rgb(254,252,0);fill-rule:nonzero;"/>
            <path d="M-9.27,446.507C-9.27,442.429 -6.127,439.149 -2.22,439.149C1.688,439.149 4.831,442.429 4.831,446.507C4.831,450.584 1.688,453.864 -2.22,453.864C-6.127,453.864 -9.27,450.584 -9.27,446.507Z" style="fill:rgb(254,252,0);fill-rule:nonzero;"/>
            <path d="M18.93,446.507C18.93,442.429 22.072,439.149 25.98,439.149C29.887,439.149 33.03,442.429 33.03,446.507C33.03,450.584 29.887,453.864 25.98,453.864C22.072,453.864 18.93,450.584 18.93,446.507Z" style="fill:rgb(254,252,0);fill-rule:nonzero;"/>
            <path d="M47.137,446.507C47.137,442.429 50.28,439.149 54.187,439.149C58.095,439.149 61.238,442.429 61.238,446.507C61.238,450.584 58.095,453.864 54.187,453.864C50.28,453.864 47.137,450.584 47.137,446.507Z" style="fill:rgb(254,252,0);fill-rule:nonzero;"/>
            <path d="M75.328,446.507C75.328,442.429 78.471,439.149 82.379,439.149C86.286,439.149 89.429,442.429 89.429,446.507C89.429,450.584 86.286,453.864 82.379,453.864C78.471,453.864 75.328,450.584 75.328,446.507Z" style="fill:rgb(254,252,0);fill-rule:nonzero;"/>
            <path d="M103.535,446.507C103.535,442.429 106.678,439.149 110.586,439.149C114.493,439.149 117.636,442.429 117.636,446.507C117.636,450.584 114.493,453.864 110.586,453.864C106.678,453.864 103.535,450.584 103.535,446.507Z" style="fill:rgb(254,252,0);fill-rule:nonzero;"/>
            <path d="M131.736,446.507C131.736,442.429 134.879,439.149 138.787,439.149C142.694,439.149 145.837,442.429 145.837,446.507C145.837,450.584 142.694,453.864 138.787,453.864C134.879,453.864 131.736,450.584 131.736,446.507Z" style="fill:rgb(254,252,0);fill-rule:nonzero;"/>
            <path d="M160.023,446.507C160.023,442.429 163.166,439.149 167.073,439.149C170.981,439.149 174.124,442.429 174.124,446.507C174.124,450.584 170.981,453.864 167.073,453.864C163.166,453.864 160.023,450.584 160.023,446.507Z" style="fill:rgb(254,252,0);fill-rule:nonzero;"/>
            <path d="M188.225,446.507C188.225,442.429 191.367,439.149 195.275,439.149C199.182,439.149 202.325,442.429 202.325,446.507C202.325,450.584 199.182,453.864 195.275,453.864C191.367,453.864 188.225,450.584 188.225,446.507Z" style="fill:rgb(254,252,0);fill-rule:nonzero;"/>
            <path d="M216.424,446.507C216.424,442.429 219.566,439.149 223.474,439.149C227.381,439.149 230.524,442.429 230.524,446.507C230.524,450.584 227.381,453.864 223.474,453.864C219.566,453.864 216.424,450.584 216.424,446.507Z" style="fill:rgb(254,252,0);fill-rule:nonzero;"/>
            <path d="M244.629,446.507C244.629,442.429 247.772,439.149 251.679,439.149C255.587,439.149 258.73,442.429 258.73,446.507C258.73,450.584 255.587,453.864 251.679,453.864C247.772,453.864 244.629,450.584 244.629,446.507Z" style="fill:rgb(254,252,0);fill-rule:nonzero;"/>
            <path d="M4.66,466.806C4.66,462.728 7.803,459.448 11.711,459.448C15.618,459.448 18.761,462.728 18.761,466.806C18.761,470.883 15.618,474.163 11.711,474.163C7.803,474.163 4.66,470.883 4.66,466.806Z" style="fill:rgb(254,252,0);fill-rule:nonzero;"/>
            <path d="M32.949,466.806C32.949,462.728 36.092,459.448 40,459.448C43.907,459.448 47.05,462.728 47.05,466.806C47.05,470.883 43.907,474.163 40,474.163C36.092,474.163 32.949,470.883 32.949,466.806Z" style="fill:rgb(254,252,0);fill-rule:nonzero;"/>
            <path d="M61.143,466.806C61.143,462.728 64.286,459.448 68.193,459.448C72.101,459.448 75.243,462.728 75.243,466.806C75.243,470.883 72.101,474.163 68.193,474.163C64.286,474.163 61.143,470.883 61.143,466.806Z" style="fill:rgb(254,252,0);fill-rule:nonzero;"/>
            <path d="M89.35,466.806C89.35,462.728 92.493,459.448 96.4,459.448C100.307,459.448 103.45,462.728 103.45,466.806C103.45,470.883 100.307,474.163 96.4,474.163C92.493,474.163 89.35,470.883 89.35,466.806Z" style="fill:rgb(254,252,0);fill-rule:nonzero;"/>
            <path d="M117.549,466.806C117.549,462.728 120.691,459.448 124.599,459.448C128.506,459.448 131.649,462.728 131.649,466.806C131.649,470.883 128.506,474.163 124.599,474.163C120.691,474.163 117.549,470.883 117.549,466.806Z" style="fill:rgb(254,252,0);fill-rule:nonzero;"/>
            <path d="M145.748,466.806C145.748,462.728 148.891,459.448 152.798,459.448C156.705,459.448 159.848,462.728 159.848,466.806C159.848,470.883 156.705,474.163 152.798,474.163C148.891,474.163 145.748,470.883 145.748,466.806Z" style="fill:rgb(254,252,0);fill-rule:nonzero;"/>
            <path d="M173.949,466.806C173.949,462.728 177.092,459.448 180.999,459.448C184.907,459.448 188.05,462.728 188.05,466.806C188.05,470.883 184.907,474.163 180.999,474.163C177.092,474.163 173.949,470.883 173.949,466.806Z" style="fill:rgb(254,252,0);fill-rule:nonzero;"/>
            <path d="M202.236,466.806C202.236,462.728 205.379,459.448 209.287,459.448C213.194,459.448 216.337,462.728 216.337,466.806C216.337,470.883 213.194,474.163 209.287,474.163C205.379,474.163 202.236,470.883 202.236,466.806Z" style="fill:rgb(254,252,0);fill-rule:nonzero;"/>
            <path d="M230.443,466.806C230.443,462.728 233.586,459.448 237.494,459.448C241.401,459.448 244.544,462.728 244.544,466.806C244.544,470.883 241.401,474.163 237.494,474.163C233.586,474.163 230.443,470.883 230.443,466.806Z" style="fill:rgb(254,252,0);fill-rule:nonzero;"/>
            <path d="M258.637,466.806C258.637,462.728 261.78,459.448 265.687,459.448C269.595,459.448 272.737,462.728 272.737,466.806C272.737,470.883 269.595,474.163 265.687,474.163C261.78,474.163 258.637,470.883 258.637,466.806Z" style="fill:rgb(254,252,0);fill-rule:nonzero;"/>
            <path d="M-9.27,485.775C-9.27,481.697 -6.127,478.417 -2.22,478.417C1.688,478.417 4.831,481.697 4.831,485.775C4.831,489.852 1.688,493.132 -2.22,493.132C-6.127,493.132 -9.27,489.852 -9.27,485.775Z" style="fill:rgb(254,252,0);fill-rule:nonzero;"/>
            <path d="M18.93,485.775C18.93,481.697 22.072,478.417 25.98,478.417C29.887,478.417 33.03,481.697 33.03,485.775C33.03,489.852 29.887,493.132 25.98,493.132C22.072,493.132 18.93,489.852 18.93,485.775Z" style="fill:rgb(254,252,0);fill-rule:nonzero;"/>
            <path d="M47.137,485.775C47.137,481.697 50.28,478.417 54.187,478.417C58.095,478.417 61.238,481.697 61.238,485.775C61.238,489.852 58.095,493.132 54.187,493.132C50.28,493.132 47.137,489.852 47.137,485.775Z" style="fill:rgb(254,252,0);fill-rule:nonzero;"/>
            <path d="M75.328,485.775C75.328,481.697 78.471,478.417 82.379,478.417C86.286,478.417 89.429,481.697 89.429,485.775C89.429,489.852 86.286,493.132 82.379,493.132C78.471,493.132 75.328,489.852 75.328,485.775Z" style="fill:rgb(254,252,0);fill-rule:nonzero;"/>
            <path d="M103.535,485.775C103.535,481.697 106.678,478.417 110.586,478.417C114.493,478.417 117.636,481.697 117.636,485.775C117.636,489.852 114.493,493.132 110.586,493.132C106.678,493.132 103.535,489.852 103.535,485.775Z" style="fill:rgb(254,252,0);fill-rule:nonzero;"/>
            <path d="M131.736,485.775C131.736,481.697 134.879,478.417 138.787,478.417C142.694,478.417 145.837,481.697 145.837,485.775C145.837,489.852 142.694,493.132 138.787,493.132C134.879,493.132 131.736,489.852 131.736,485.775Z" style="fill:rgb(254,252,0);fill-rule:nonzero;"/>
            <path d="M160.023,485.775C160.023,481.697 163.166,478.417 167.073,478.417C170.981,478.417 174.124,481.697 174.124,485.775C174.124,489.852 170.981,493.132 167.073,493.132C163.166,493.132 160.023,489.852 160.023,485.775Z" style="fill:rgb(254,252,0);fill-rule:nonzero;"/>
            <path d="M188.225,485.775C188.225,481.697 191.367,478.417 195.275,478.417C199.182,478.417 202.325,481.697 202.325,485.775C202.325,489.852 199.182,493.132 195.275,493.132C191.367,493.132 188.225,489.852 188.225,485.775Z" style="fill:rgb(254,252,0);fill-rule:nonzero;"/>
            <path d="M216.424,485.775C216.424,481.697 219.566,478.417 223.474,478.417C227.381,478.417 230.524,481.697 230.524,485.775C230.524,489.852 227.381,493.132 223.474,493.132C219.566,493.132 216.424,489.852 216.424,485.775Z" style="fill:rgb(254,252,0);fill-rule:nonzero;"/>
            <path d="M244.629,485.775C244.629,481.697 247.772,478.417 251.679,478.417C255.587,478.417 258.73,481.697 258.73,485.775C258.73,489.852 255.587,493.132 251.679,493.132C247.772,493.132 244.629,489.852 244.629,485.775Z" style="fill:rgb(254,252,0);fill-rule:nonzero;"/>
            <path d="M4.66,505.986C4.66,501.908 7.803,498.629 11.711,498.629C15.618,498.629 18.761,501.908 18.761,505.986C18.761,510.064 15.618,513.343 11.711,513.343C7.803,513.343 4.66,510.064 4.66,505.986Z" style="fill:rgb(254,252,0);fill-rule:nonzero;"/>
            <path d="M32.949,505.986C32.949,501.908 36.092,498.629 40,498.629C43.907,498.629 47.05,501.908 47.05,505.986C47.05,510.064 43.907,513.343 40,513.343C36.092,513.343 32.949,510.064 32.949,505.986Z" style="fill:rgb(254,252,0);fill-rule:nonzero;"/>
            <path d="M61.143,505.986C61.143,501.908 64.286,498.629 68.193,498.629C72.101,498.629 75.243,501.908 75.243,505.986C75.243,510.064 72.101,513.343 68.193,513.343C64.286,513.343 61.143,510.064 61.143,505.986Z" style="fill:rgb(254,252,0);fill-rule:nonzero;"/>
            <path d="M89.35,505.986C89.35,501.908 92.493,498.629 96.4,498.629C100.307,498.629 103.45,501.908 103.45,505.986C103.45,510.064 100.307,513.343 96.4,513.343C92.493,513.343 89.35,510.064 89.35,505.986Z" style="fill:rgb(254,252,0);fill-rule:nonzero;"/>
            <path d="M117.549,505.986C117.549,501.908 120.691,498.629 124.599,498.629C128.506,498.629 131.649,501.908 131.649,505.986C131.649,510.064 128.506,513.343 124.599,513.343C120.691,513.343 117.549,510.064 117.549,505.986Z" style="fill:rgb(254,252,0);fill-rule:nonzero;"/>
            <path d="M145.748,505.986C145.748,501.908 148.891,498.629 152.798,498.629C156.705,498.629 159.848,501.908 159.848,505.986C159.848,510.064 156.705,513.343 152.798,513.343C148.891,513.343 145.748,510.064 145.748,505.986Z" style="fill:rgb(254,252,0);fill-rule:nonzero;"/>
            <path d="M173.949,505.986C173.949,501.908 177.092,498.629 180.999,498.629C184.907,498.629 188.05,501.908 188.05,505.986C188.05,510.064 184.907,513.343 180.999,513.343C177.092,513.343 173.949,510.064 173.949,505.986Z" style="fill:rgb(254,252,0);fill-rule:nonzero;"/>
            <path d="M202.236,505.986C202.236,501.908 205.379,498.629 209.287,498.629C213.194,498.629 216.337,501.908 216.337,505.986C216.337,510.064 213.194,513.343 209.287,513.343C205.379,513.343 202.236,510.064 202.236,505.986Z" style="fill:rgb(254,252,0);fill-rule:nonzero;"/>
            <path d="M230.443,505.986C230.443,501.908 233.586,498.629 237.494,498.629C241.401,498.629 244.544,501.908 244.544,505.986C244.544,510.064 241.401,513.343 237.494,513.343C233.586,513.343 230.443,510.064 230.443,505.986Z" style="fill:rgb(254,252,0);fill-rule:nonzero;"/>
            <path d="M258.637,505.986C258.637,501.908 261.78,498.629 265.687,498.629C269.595,498.629 272.737,501.908 272.737,505.986C272.737,510.064 269.595,513.343 265.687,513.343C261.78,513.343 258.637,510.064 258.637,505.986Z" style="fill:rgb(254,252,0);fill-rule:nonzero;"/>
            <path d="M-9.27,524.955C-9.27,520.877 -6.127,517.598 -2.22,517.598C1.688,517.598 4.831,520.877 4.831,524.955C4.831,529.033 1.688,532.312 -2.22,532.312C-6.127,532.312 -9.27,529.033 -9.27,524.955Z" style="fill:rgb(254,252,0);fill-rule:nonzero;"/>
            <path d="M18.93,524.955C18.93,520.877 22.072,517.598 25.98,517.598C29.887,517.598 33.03,520.877 33.03,524.955C33.03,529.033 29.887,532.312 25.98,532.312C22.072,532.312 18.93,529.033 18.93,524.955Z" style="fill:rgb(254,252,0);fill-rule:nonzero;"/>
            <path d="M47.137,524.955C47.137,520.877 50.28,517.598 54.187,517.598C58.095,517.598 61.238,520.877 61.238,524.955C61.238,529.033 58.095,532.312 54.187,532.312C50.28,532.312 47.137,529.033 47.137,524.955Z" style="fill:rgb(254,252,0);fill-rule:nonzero;"/>
            <path d="M75.328,524.955C75.328,520.877 78.471,517.598 82.379,517.598C86.286,517.598 89.429,520.877 89.429,524.955C89.429,529.033 86.286,532.312 82.379,532.312C78.471,532.312 75.328,529.033 75.328,524.955Z" style="fill:rgb(254,252,0);fill-rule:nonzero;"/>
            <path d="M103.535,524.955C103.535,520.877 106.678,517.598 110.586,517.598C114.493,517.598 117.636,520.877 117.636,524.955C117.636,529.033 114.493,532.312 110.586,532.312C106.678,532.312 103.535,529.033 103.535,524.955Z" style="fill:rgb(254,252,0);fill-rule:nonzero;"/>
            <path d="M131.736,524.955C131.736,520.877 134.879,517.598 138.787,517.598C142.694,517.598 145.837,520.877 145.837,524.955C145.837,529.033 142.694,532.312 138.787,532.312C134.879,532.312 131.736,529.033 131.736,524.955Z" style="fill:rgb(254,252,0);fill-rule:nonzero;"/>
            <path d="M160.023,524.955C160.023,520.877 163.166,517.598 167.073,517.598C170.981,517.598 174.124,520.877 174.124,524.955C174.124,529.033 170.981,532.312 167.073,532.312C163.166,532.312 160.023,529.033 160.023,524.955Z" style="fill:rgb(254,252,0);fill-rule:nonzero;"/>
            <path d="M188.225,524.955C188.225,520.877 191.367,517.598 195.275,517.598C199.182,517.598 202.325,520.877 202.325,524.955C202.325,529.033 199.182,532.312 195.275,532.312C191.367,532.312 188.225,529.033 188.225,524.955Z" style="fill:rgb(254,252,0);fill-rule:nonzero;"/>
            <path d="M216.424,524.955C216.424,520.877 219.566,517.598 223.474,517.598C227.381,517.598 230.524,520.877 230.524,524.955C230.524,529.033 227.381,532.312 223.474,532.312C219.566,532.312 216.424,529.033 216.424,524.955Z" style="fill:rgb(254,252,0);fill-rule:nonzero;"/>
            <path d="M244.629,524.955C244.629,520.877 247.772,517.598 251.679,517.598C255.587,517.598 258.73,520.877 258.73,524.955C258.73,529.033 255.587,532.312 251.679,532.312C247.772,532.312 244.629,529.033 244.629,524.955Z" style="fill:rgb(254,252,0);fill-rule:nonzero;"/>
            <path d="M4.66,545.167C4.66,541.089 7.803,537.809 11.711,537.809C15.618,537.809 18.761,541.089 18.761,545.167C18.761,549.244 15.618,552.524 11.711,552.524C7.803,552.524 4.66,549.244 4.66,545.167Z" style="fill:rgb(254,252,0);fill-rule:nonzero;"/>
            <path d="M32.949,545.167C32.949,541.089 36.092,537.809 40,537.809C43.907,537.809 47.05,541.089 47.05,545.167C47.05,549.244 43.907,552.524 40,552.524C36.092,552.524 32.949,549.244 32.949,545.167Z" style="fill:rgb(254,252,0);fill-rule:nonzero;"/>
            <path d="M61.143,545.167C61.143,541.089 64.286,537.809 68.193,537.809C72.101,537.809 75.243,541.089 75.243,545.167C75.243,549.244 72.101,552.524 68.193,552.524C64.286,552.524 61.143,549.244 61.143,545.167Z" style="fill:rgb(254,252,0);fill-rule:nonzero;"/>
            <path d="M89.35,545.167C89.35,541.089 92.493,537.809 96.4,537.809C100.307,537.809 103.45,541.089 103.45,545.167C103.45,549.244 100.307,552.524 96.4,552.524C92.493,552.524 89.35,549.244 89.35,545.167Z" style="fill:rgb(254,252,0);fill-rule:nonzero;"/>
            <path d="M117.549,545.167C117.549,541.089 120.691,537.809 124.599,537.809C128.506,537.809 131.649,541.089 131.649,545.167C131.649,549.244 128.506,552.524 124.599,552.524C120.691,552.524 117.549,549.244 117.549,545.167Z" style="fill:rgb(254,252,0);fill-rule:nonzero;"/>
            <path d="M145.748,545.167C145.748,541.089 148.891,537.809 152.798,537.809C156.705,537.809 159.848,541.089 159.848,545.167C159.848,549.244 156.705,552.524 152.798,552.524C148.891,552.524 145.748,549.244 145.748,545.167Z" style="fill:rgb(254,252,0);fill-rule:nonzero;"/>
            <path d="M173.949,545.167C173.949,541.089 177.092,537.809 180.999,537.809C184.907,537.809 188.05,541.089 188.05,545.167C188.05,549.244 184.907,552.524 180.999,552.524C177.092,552.524 173.949,549.244 173.949,545.167Z" style="fill:rgb(254,252,0);fill-rule:nonzero;"/>
            <path d="M202.236,545.167C202.236,541.089 205.379,537.809 209.287,537.809C213.194,537.809 216.337,541.089 216.337,545.167C216.337,549.244 213.194,552.524 209.287,552.524C205.379,552.524 202.236,549.244 202.236,545.167Z" style="fill:rgb(254,252,0);fill-rule:nonzero;"/>
            <path d="M230.443,545.167C230.443,541.089 233.586,537.809 237.494,537.809C241.401,537.809 244.544,541.089 244.544,545.167C244.544,549.244 241.401,552.524 237.494,552.524C233.586,552.524 230.443,549.244 230.443,545.167Z" style="fill:rgb(254,252,0);fill-rule:nonzero;"/>
            <path d="M265.605,552.524C269.499,552.524 272.656,549.23 272.656,545.167C272.656,541.103 269.499,537.809 265.605,537.809C261.711,537.809 258.555,541.103 258.555,545.167C258.555,549.23 261.711,552.524 265.605,552.524Z" style="fill:rgb(254,252,0);fill-rule:nonzero;"/>
            <path d="M-9.27,564.136C-9.27,560.058 -6.127,556.778 -2.22,556.778C1.688,556.778 4.831,560.058 4.831,564.136C4.831,568.213 1.688,571.493 -2.22,571.493C-6.127,571.493 -9.27,568.213 -9.27,564.136Z" style="fill:rgb(254,252,0);fill-rule:nonzero;"/>
            <path d="M18.93,564.136C18.93,560.058 22.072,556.778 25.98,556.778C29.887,556.778 33.03,560.058 33.03,564.136C33.03,568.213 29.887,571.493 25.98,571.493C22.072,571.493 18.93,568.213 18.93,564.136Z" style="fill:rgb(254,252,0);fill-rule:nonzero;"/>
            <path d="M47.137,564.136C47.137,560.058 50.28,556.778 54.187,556.778C58.095,556.778 61.238,560.058 61.238,564.136C61.238,568.213 58.095,571.493 54.187,571.493C50.28,571.493 47.137,568.213 47.137,564.136Z" style="fill:rgb(254,252,0);fill-rule:nonzero;"/>
            <path d="M75.328,564.136C75.328,560.058 78.471,556.778 82.379,556.778C86.286,556.778 89.429,560.058 89.429,564.136C89.429,568.213 86.286,571.493 82.379,571.493C78.471,571.493 75.328,568.213 75.328,564.136Z" style="fill:rgb(254,252,0);fill-rule:nonzero;"/>
            <path d="M103.535,564.136C103.535,560.058 106.678,556.778 110.586,556.778C114.493,556.778 117.636,560.058 117.636,564.136C117.636,568.213 114.493,571.493 110.586,571.493C106.678,571.493 103.535,568.213 103.535,564.136Z" style="fill:rgb(254,252,0);fill-rule:nonzero;"/>
            <path d="M131.736,564.136C131.736,560.058 134.879,556.778 138.787,556.778C142.694,556.778 145.837,560.058 145.837,564.136C145.837,568.213 142.694,571.493 138.787,571.493C134.879,571.493 131.736,568.213 131.736,564.136Z" style="fill:rgb(254,252,0);fill-rule:nonzero;"/>
            <path d="M160.023,564.136C160.023,560.058 163.166,556.778 167.073,556.778C170.981,556.778 174.124,560.058 174.124,564.136C174.124,568.213 170.981,571.493 167.073,571.493C163.166,571.493 160.023,568.213 160.023,564.136Z" style="fill:rgb(254,252,0);fill-rule:nonzero;"/>
            <path d="M188.225,564.136C188.225,560.058 191.367,556.778 195.275,556.778C199.182,556.778 202.325,560.058 202.325,564.136C202.325,568.213 199.182,571.493 195.275,571.493C191.367,571.493 188.225,568.213 188.225,564.136Z" style="fill:rgb(254,252,0);fill-rule:nonzero;"/>
            <path d="M216.424,564.136C216.424,560.058 219.566,556.778 223.474,556.778C227.381,556.778 230.524,560.058 230.524,564.136C230.524,568.213 227.381,571.493 223.474,571.493C219.566,571.493 216.424,568.213 216.424,564.136Z" style="fill:rgb(254,252,0);fill-rule:nonzero;"/>
            <path d="M244.629,564.136C244.629,560.058 247.772,556.778 251.679,556.778C255.587,556.778 258.73,560.058 258.73,564.136C258.73,568.213 255.587,571.493 251.679,571.493C247.772,571.493 244.629,568.213 244.629,564.136Z" style="fill:rgb(254,252,0);fill-rule:nonzero;"/>
        </g>
    </g>
</svg>
