<svg width="20" height="20" viewBox="0 0 20 20" fill="none" xmlns="http://www.w3.org/2000/svg">
<rect width="20" height="20" rx="10" fill="black"/>
<g clip-path="url(#clip0_5028_38882)">
<path d="M16 10C16 6.68632 13.3137 4 10 4C6.68632 4 4 6.68632 4 10C4 12.8138 5.93728 15.1749 8.55064 15.8234V11.8336H7.31344V10H8.55064V9.20992C8.55064 7.16776 9.47488 6.2212 11.4798 6.2212C11.86 6.2212 12.5159 6.29584 12.7842 6.37024V8.03224C12.6426 8.01736 12.3966 8.00992 12.0911 8.00992C11.1074 8.00992 10.7272 8.38264 10.7272 9.35152V10H12.687L12.3503 11.8336H10.7272V15.9561C13.6982 15.5973 16.0002 13.0677 16.0002 10H16Z" fill="white"/>
<path d="M12.3504 11.8336L12.6871 9.99999H10.7272V9.35151C10.7272 8.38263 11.1074 8.00991 12.0912 8.00991C12.3967 8.00991 12.6427 8.01735 12.7843 8.03223V6.37023C12.516 6.29559 11.86 6.22119 11.4799 6.22119C9.47492 6.22119 8.55068 7.16775 8.55068 9.20991V9.99999H7.31348V11.8336H8.55068V15.8234C9.01484 15.9386 9.50036 16 10 16C10.246 16 10.4887 15.9849 10.727 15.9561V11.8336H12.3501H12.3504Z" fill="black"/>
</g>
<defs>
<clipPath id="clip0_5028_38882">
<rect width="12" height="12" fill="white" transform="translate(4 4)"/>
</clipPath>
</defs>
</svg>
