<svg width="20" height="20" viewBox="0 0 20 20" fill="none" xmlns="http://www.w3.org/2000/svg">
<rect width="20" height="20" rx="10" fill="black"/>
<g clip-path="url(#clip0_5028_38884)">
<g clip-path="url(#clip1_5028_38884)">
<path d="M16.2282 6.90546C16.0784 6.35195 15.6386 5.91698 15.0789 5.76881C14.0655 5.5 10 5.5 10 5.5C10 5.5 5.93456 5.5 4.92114 5.76881C4.36146 5.91698 3.92163 6.35195 3.77182 6.90546C3.5 7.90769 3.5 10 3.5 10C3.5 10 3.5 12.0923 3.77182 13.0946C3.92163 13.6481 4.36146 14.083 4.92114 14.2312C5.93456 14.5 10 14.5 10 14.5C10 14.5 14.0655 14.5 15.0789 14.2312C15.6386 14.083 16.0784 13.6481 16.2282 13.0946C16.5 12.0923 16.5 10 16.5 10C16.5 10 16.499 7.90769 16.2282 6.90546Z" fill="white"/>
<path d="M8.69922 11.9283L12.0766 10.0001L8.69922 8.07178V11.9283Z" fill="black"/>
</g>
</g>
<defs>
<clipPath id="clip0_5028_38884">
<rect width="13" height="9" fill="white" transform="translate(3.5 5.5)"/>
</clipPath>
<clipPath id="clip1_5028_38884">
<rect width="13" height="9" fill="white" transform="translate(3.5 5.5)"/>
</clipPath>
</defs>
</svg>
