<svg width="20" height="20" viewBox="0 0 20 20" fill="none" xmlns="http://www.w3.org/2000/svg">
<rect width="20" height="20" rx="10" fill="black"/>
<g clip-path="url(#clip0_5028_38883)">
<path d="M10 5.49043C11.4695 5.49043 11.6436 5.49687 12.2215 5.52266C12.7586 5.54629 13.0486 5.63652 13.242 5.71172C13.4977 5.81055 13.6824 5.93086 13.8736 6.12207C14.067 6.31543 14.1852 6.49805 14.284 6.75371C14.3592 6.94707 14.4494 7.23926 14.473 7.77422C14.4988 8.3543 14.5053 8.52832 14.5053 9.9957C14.5053 11.4652 14.4988 11.6393 14.473 12.2172C14.4494 12.7543 14.3592 13.0443 14.284 13.2377C14.1852 13.4934 14.0648 13.6781 13.8736 13.8693C13.6803 14.0627 13.4977 14.1809 13.242 14.2797C13.0486 14.3549 12.7564 14.4451 12.2215 14.4688C11.6414 14.4945 11.4674 14.501 10 14.501C8.53047 14.501 8.35645 14.4945 7.77852 14.4688C7.24141 14.4451 6.95137 14.3549 6.75801 14.2797C6.50234 14.1809 6.31758 14.0605 6.12637 13.8693C5.93301 13.676 5.81484 13.4934 5.71602 13.2377C5.64082 13.0443 5.55059 12.7521 5.52695 12.2172C5.50117 11.6371 5.49473 11.4631 5.49473 9.9957C5.49473 8.52617 5.50117 8.35215 5.52695 7.77422C5.55059 7.23711 5.64082 6.94707 5.71602 6.75371C5.81484 6.49805 5.93516 6.31328 6.12637 6.12207C6.31973 5.92871 6.50234 5.81055 6.75801 5.71172C6.95137 5.63652 7.24356 5.54629 7.77852 5.52266C8.35645 5.49687 8.53047 5.49043 10 5.49043ZM10 4.5C8.50684 4.5 8.31992 4.50645 7.7334 4.53223C7.14902 4.55801 6.74727 4.65254 6.39922 4.78789C6.03613 4.92969 5.72891 5.1166 5.42383 5.42383C5.1166 5.72891 4.92969 6.03613 4.78789 6.39707C4.65254 6.74727 4.55801 7.14688 4.53223 7.73125C4.50645 8.31992 4.5 8.50684 4.5 10C4.5 11.4932 4.50645 11.6801 4.53223 12.2666C4.55801 12.851 4.65254 13.2527 4.78789 13.6008C4.92969 13.9639 5.1166 14.2711 5.42383 14.5762C5.72891 14.8813 6.03613 15.0703 6.39707 15.21C6.74727 15.3453 7.14688 15.4398 7.73125 15.4656C8.31777 15.4914 8.50469 15.4979 9.99785 15.4979C11.491 15.4979 11.6779 15.4914 12.2645 15.4656C12.8488 15.4398 13.2506 15.3453 13.5986 15.21C13.9596 15.0703 14.2668 14.8813 14.5719 14.5762C14.877 14.2711 15.066 13.9639 15.2057 13.6029C15.341 13.2527 15.4355 12.8531 15.4613 12.2688C15.4871 11.6822 15.4936 11.4953 15.4936 10.0021C15.4936 8.50899 15.4871 8.32207 15.4613 7.73555C15.4355 7.15117 15.341 6.74941 15.2057 6.40137C15.0703 6.03613 14.8834 5.72891 14.5762 5.42383C14.2711 5.11875 13.9639 4.92969 13.6029 4.79004C13.2527 4.65469 12.8531 4.56016 12.2688 4.53438C11.6801 4.50645 11.4932 4.5 10 4.5Z" fill="white"/>
<path d="M10 7.1748C8.44023 7.1748 7.1748 8.44023 7.1748 10C7.1748 11.5598 8.44023 12.8252 10 12.8252C11.5598 12.8252 12.8252 11.5598 12.8252 10C12.8252 8.44023 11.5598 7.1748 10 7.1748ZM10 11.8326C8.98809 11.8326 8.16738 11.0119 8.16738 10C8.16738 8.98809 8.98809 8.16738 10 8.16738C11.0119 8.16738 11.8326 8.98809 11.8326 10C11.8326 11.0119 11.0119 11.8326 10 11.8326Z" fill="white"/>
<path d="M13.5965 7.06289C13.5965 7.42813 13.3 7.72246 12.9369 7.72246C12.5717 7.72246 12.2773 7.42598 12.2773 7.06289C12.2773 6.69766 12.5738 6.40332 12.9369 6.40332C13.3 6.40332 13.5965 6.69981 13.5965 7.06289Z" fill="white"/>
</g>
<defs>
<clipPath id="clip0_5028_38883">
<rect width="11" height="11" fill="white" transform="translate(4.5 4.5)"/>
</clipPath>
</defs>
</svg>
