<svg xmlns="http://www.w3.org/2000/svg" width="112" height="23" viewBox="0 0 112 23" fill="none">
  <path d="M11.4605 13.1404L3.50055 0.850349H0.0605469V19.5303H3.63055V7.28035L11.5706 19.5303H15.0305V0.850349H11.4605V13.1404ZM25.9905 12.4703C25.9905 13.7203 25.9006 14.5703 25.7306 15.0103C25.5606 15.4503 25.2406 15.8204 24.7906 16.1104C24.3406 16.4004 23.8006 16.5403 23.1706 16.5403C22.5806 16.5403 22.0705 16.4103 21.6505 16.1503C21.2305 15.8903 20.9305 15.5503 20.7505 15.1203C20.5705 14.6903 20.4806 13.9503 20.4806 12.9103V0.840347H16.9106V11.9803C16.9106 14.2103 17.1305 15.7903 17.5605 16.7303C17.9905 17.6703 18.7105 18.4404 19.7105 19.0704C20.7105 19.6904 21.8905 20.0004 23.2505 20.0004C24.2806 20.0004 25.1905 19.8403 25.9706 19.5103C26.7506 19.1803 27.4405 18.6804 28.0305 18.0004C28.6305 17.3204 29.0305 16.6203 29.2405 15.8904C29.4505 15.1604 29.5605 13.8603 29.5605 11.9803V0.840347H26.0005V12.4703H25.9905ZM50.5005 1.42035C49.5005 0.800349 48.3205 0.490349 46.9605 0.490349C45.9305 0.490349 45.0205 0.650347 44.2405 0.980347C43.5505 1.27035 42.9306 1.71035 42.3806 2.27035C42.0706 1.96035 41.7205 1.68035 41.3105 1.42035C40.3105 0.800349 39.1305 0.490349 37.7705 0.490349C36.7305 0.490349 35.8305 0.650347 35.0505 0.980347C34.2705 1.31035 33.5805 1.81035 32.9905 2.49035C32.4005 3.17035 31.9905 3.87035 31.7805 4.60035C31.5705 5.33035 31.4605 6.63035 31.4605 8.51035V19.6503H35.0305V8.02035C35.0305 6.77035 35.1206 5.92035 35.2906 5.48035C35.4606 5.04035 35.7806 4.67035 36.2306 4.38035C36.6806 4.09035 37.2306 3.95035 37.8506 3.95035C38.4406 3.95035 38.9505 4.08035 39.3705 4.34035C39.7905 4.60035 40.0905 4.94035 40.2705 5.37035C40.4505 5.80035 40.5406 6.54035 40.5406 7.58035V19.6603H44.2105V8.03035C44.2105 6.78035 44.2906 5.93035 44.4706 5.49035C44.6405 5.05035 44.9606 4.68035 45.4106 4.39035C45.8606 4.10035 46.4005 3.96035 47.0305 3.96035C47.6205 3.96035 48.1305 4.09035 48.5505 4.35035C48.9705 4.61035 49.2706 4.95035 49.4506 5.38035C49.6306 5.81035 49.7206 6.55035 49.7206 7.59035V19.6703H53.2906V8.53035C53.2906 6.30035 53.0706 4.72034 52.6406 3.79034C52.2106 2.85034 51.4905 2.08035 50.4905 1.45035L50.5005 1.42035ZM63.8906 9.23035C64.5706 8.72035 65.0606 8.18035 65.3606 7.60035C65.6606 7.02035 65.8105 6.38035 65.8105 5.67035C65.8105 4.58035 65.4806 3.63035 64.8206 2.83035C64.1606 2.03035 63.2606 1.48035 62.1406 1.18035C61.3506 0.960351 60.1005 0.850349 58.4005 0.850349H55.4605V19.5303H60.7006C62.2106 19.5303 63.3905 19.3204 64.2505 18.8904C65.1005 18.4604 65.8106 17.8203 66.3506 16.9503C66.8906 16.0903 67.1606 15.1303 67.1606 14.0803C67.1606 13.0303 66.9006 12.0403 66.3806 11.2403C65.8606 10.4403 65.0306 9.77035 63.8906 9.24035V9.23035ZM59.0205 4.24035H59.9406C60.7606 4.24035 61.3606 4.41035 61.7606 4.75035C62.1606 5.09035 62.3606 5.56035 62.3606 6.14035C62.3606 6.76035 62.1506 7.26035 61.7306 7.62035C61.3106 7.98035 60.6605 8.16035 59.8005 8.16035H59.0205V4.23035V4.24035ZM62.9005 15.5704C62.3905 15.9404 61.3906 16.1303 59.9106 16.1303H59.0205V11.3303H59.7606C61.1606 11.3303 62.1606 11.5603 62.7606 12.0303C63.3606 12.5003 63.6606 13.1303 63.6606 13.9403C63.6606 14.6503 63.4006 15.2004 62.8906 15.5704H62.9005ZM68.6406 19.5203H78.8405V16.0303H72.1606V11.1203H78.8405V7.67035H72.1606V4.33035H78.8405V0.840347H68.6406V19.5203ZM91.3206 9.35035C91.9106 8.52035 92.2105 7.50035 92.2105 6.27035C92.2105 5.04035 91.9406 4.09035 91.4106 3.23035C90.8806 2.38035 90.1706 1.76034 89.2906 1.40034C88.4106 1.03034 86.9405 0.850349 84.8705 0.850349H81.0905V19.5303H84.6606V11.6203H84.9706L89.2006 19.5303H93.0905L88.6606 11.2303C89.8506 10.8103 90.7405 10.1804 91.3305 9.36035L91.3206 9.35035ZM88.1106 7.70035C87.6806 8.00035 86.9005 8.15034 85.7705 8.15034H84.6505V4.32035H85.6205C86.5705 4.32035 87.2206 4.39035 87.5706 4.52035C87.9206 4.65035 88.2106 4.87035 88.4206 5.17035C88.6306 5.47035 88.7405 5.83035 88.7405 6.23035C88.7405 6.92035 88.5306 7.41035 88.1006 7.71035L88.1106 7.70035ZM105.331 16.2203L107.431 14.0103C109.111 12.2703 110.271 10.7603 110.901 9.48035C111.531 8.20035 111.851 7.01034 111.851 5.90034C111.851 4.97035 111.591 4.05034 111.071 3.15034C110.551 2.25034 109.851 1.56035 108.991 1.08035C108.121 0.600345 107.121 0.360352 105.981 0.360352C104.141 0.360352 102.641 0.940349 101.461 2.10035C100.291 3.26035 99.6505 4.85035 99.5605 6.87035H103.031C103.061 5.89035 103.331 5.12035 103.841 4.56035C104.351 3.99035 104.981 3.71035 105.751 3.71035C106.521 3.71035 107.121 3.94035 107.601 4.41035C108.081 4.88035 108.321 5.48035 108.321 6.19035C108.321 6.90035 108.091 7.66035 107.631 8.52035C107.171 9.38035 106.241 10.5104 104.841 11.9304L99.0505 17.8204V19.5203H112.001V16.2203H105.341H105.331Z" fill="#000001"/>
  <path d="M96.0407 0.780273C94.7507 0.780273 93.7007 1.83027 93.7007 3.12027C93.7007 4.41027 94.7507 5.46027 96.0407 5.46027C97.3307 5.46027 98.3807 4.41027 98.3807 3.12027C98.3807 1.83027 97.3307 0.780273 96.0407 0.780273ZM96.0407 4.08027C95.5107 4.08027 95.0807 3.65027 95.0807 3.12027C95.0807 2.59027 95.5107 2.16027 96.0407 2.16027C96.5707 2.16027 97.0007 2.59027 97.0007 3.12027C97.0007 3.65027 96.5707 4.08027 96.0407 4.08027Z" fill="#000001"/>
</svg>