<svg width="161" height="25" viewBox="0 0 161 25" fill="none" xmlns="http://www.w3.org/2000/svg">
<g clip-path="url(#clip0_5127_176340)">
<path d="M3.61802 20.3389L3.22559 23.1264L7.10947 22.5908L7.42504 20.3389H3.61802Z" fill="#00D037"/>
<path d="M8.94593 9.46467L10.1839 0.639648L6.30004 1.17524L5.677 5.64658H2.3231L1.78906 9.46467H5.13892H8.94593Z" fill="#00D037"/>
<path d="M77.2012 1.14307V8.2396L67.7665 11.8386V1.14307H62.6123V24.4939H67.7665V17.5799L77.2012 13.985V24.4939H82.3514V1.14307H77.2012Z" fill="#000001"/>
<path d="M106.177 1.14307H99.6064L91.07 11.5383V1.14307H85.9238V24.4939H91.07V12.8814L99.8532 24.4939H106.674L96.6935 12.1794L106.177 1.14307Z" fill="#000001"/>
<path d="M10.374 9.46482H14.3469H14.7353L14.1446 13.6603H17.9516L18.5383 9.46482L19.5861 2.01123L15.7022 2.54682L15.2693 5.64673H10.9081L10.374 9.46482Z" fill="#00D037"/>
<path d="M20.5049 5.64648L19.9668 9.46457H22.9323L23.4663 5.64648H20.5049Z" fill="#00D037"/>
<path d="M13.9466 15.0924H11.1267H8.15715L8.74377 10.897H4.9408L4.35013 15.0924H1.01646L0.482422 18.9064H3.81609H7.62311H12.304H13.4125L12.6277 24.4976L16.5075 23.9621L17.2155 18.9064H21.6253L22.1594 15.0924H17.7536H13.9466Z" fill="#00D037"/>
<path d="M42.4197 1.14307H37.577V7.76893C36.4158 7.13191 35.0929 6.75456 33.685 6.70993L33.0781 11.0352C33.1874 11.0271 33.3006 11.019 33.4139 11.019C35.8535 11.019 37.8278 13.0031 37.8278 15.4457C37.8278 17.2959 36.695 18.8824 35.0848 19.5437L34.4415 24.1246C35.5622 23.9907 36.6222 23.6418 37.5729 23.1265V24.4939H42.7312V1.14307H42.4156H42.4197Z" fill="#00D037"/>
<path d="M29.0008 15.4493C29.0008 13.6519 30.0689 12.11 31.6022 11.4162L32.2495 6.78662C27.9894 7.35873 24.7002 11.0186 24.7002 15.4493C24.7002 20.1438 28.3899 23.9701 33.0141 24.181L33.617 19.8679C33.5522 19.8679 33.4834 19.8761 33.4147 19.8761C30.9751 19.8761 29.0008 17.8919 29.0008 15.4493Z" fill="#00D037"/>
<path d="M62.3005 1.14307H57.4578V7.76893C56.2967 7.13191 54.9738 6.75456 53.5658 6.70993L52.959 11.0352C53.0723 11.0271 53.1815 11.019 53.2948 11.019C55.7343 11.019 57.7087 13.0031 57.7087 15.4457C57.7087 17.2959 56.5759 18.8824 54.9657 19.5437L54.3224 24.1246C55.4471 23.9907 56.503 23.6418 57.4538 23.1265V24.4939H62.6121V1.14307H62.2965H62.3005Z" fill="#00D037"/>
<path d="M48.8807 15.4493C48.8807 13.6519 49.9487 12.11 51.4821 11.4162L52.1294 6.78662C47.8652 7.35873 44.5801 11.0186 44.5801 15.4493C44.5801 20.1438 48.2657 23.9701 52.894 24.181L53.4968 19.8679C53.4321 19.8679 53.3633 19.8761 53.2945 19.8761C50.859 19.8761 48.8807 17.8919 48.8807 15.4493Z" fill="#00D037"/>
<path d="M110.246 4.53468C110.246 3.42699 111.039 2.63984 111.97 2.63984C112.479 2.63984 112.852 2.84271 113.094 3.14296L113.102 1.10205H114.215V6.34837H113.094V5.93045C112.852 6.22259 112.487 6.42141 111.97 6.42141C111.039 6.42141 110.246 5.63831 110.246 4.53062V4.53468ZM113.236 4.53468C113.236 3.94229 112.827 3.57306 112.309 3.57306C111.792 3.57306 111.367 3.94635 111.367 4.53468C111.367 5.12301 111.775 5.4963 112.309 5.4963C112.843 5.4963 113.236 5.12301 113.236 4.53468Z" fill="#00D037"/>
<path d="M118.803 4.72541H116.137C116.177 5.261 116.541 5.54908 117.002 5.54908C117.342 5.54908 117.642 5.39896 117.812 5.08653L118.681 5.45576C118.406 6.05221 117.799 6.42144 116.998 6.42144C115.805 6.42144 115.032 5.59372 115.032 4.54689C115.032 3.50005 115.821 2.66016 116.962 2.66016C117.998 2.66016 118.799 3.36616 118.807 4.50631L118.795 4.72947L118.803 4.72541ZM116.165 4.07622H117.735C117.686 3.67453 117.383 3.44731 116.978 3.44731C116.574 3.44731 116.262 3.67453 116.169 4.07622H116.165Z" fill="#00D037"/>
<path d="M119.293 5.96313L119.734 5.18815C120.042 5.41943 120.503 5.61013 120.83 5.61013C121.057 5.61013 121.215 5.51681 121.215 5.33828C121.215 5.09483 120.891 5.02585 120.511 4.89196C120.042 4.72966 119.467 4.52678 119.467 3.80049C119.467 3.02552 120.11 2.66846 120.855 2.66846C121.308 2.66846 121.793 2.80235 122.182 3.04986L121.733 3.75586C121.486 3.59356 121.097 3.45561 120.839 3.45561C120.636 3.45561 120.503 3.54082 120.503 3.68688C120.503 3.90599 120.847 3.96685 121.247 4.09669C121.733 4.25899 122.279 4.48621 122.279 5.24496C122.279 6.04428 121.66 6.42568 120.847 6.42568C120.284 6.42568 119.702 6.2431 119.289 5.96719L119.293 5.96313Z" fill="#00D037"/>
<path d="M123.052 1.65385C123.052 1.31302 123.335 1.03711 123.679 1.03711C124.023 1.03711 124.294 1.31302 124.294 1.65385C124.294 1.99467 124.011 2.27058 123.679 2.27058C123.347 2.27058 123.052 1.99873 123.052 1.65385ZM123.116 2.73719H124.225V6.35647H123.116V2.73719Z" fill="#00D037"/>
<path d="M125.094 7.25747L125.782 6.61639C126.138 7.06677 126.55 7.18849 126.907 7.18849C127.489 7.18849 127.841 6.85578 127.841 6.21875V5.82112C127.615 6.11326 127.271 6.31613 126.769 6.31613C125.81 6.31613 125.058 5.56144 125.058 4.48215C125.058 3.40286 125.806 2.66846 126.753 2.66846C127.263 2.66846 127.615 2.87539 127.841 3.1797V2.73743H128.954V6.10109C128.954 7.38731 128.185 8.05679 126.923 8.05679C126.332 8.05679 125.669 7.90261 125.09 7.25747H125.094ZM127.942 4.48215C127.942 3.91816 127.55 3.56516 127.056 3.56516C126.563 3.56516 126.174 3.91816 126.174 4.48215C126.174 5.04614 126.563 5.38697 127.056 5.38697C127.55 5.38697 127.942 5.04208 127.942 4.48215Z" fill="#00D037"/>
<path d="M133.485 3.98714V6.35265H132.365V4.20624C132.365 3.70311 132.142 3.58951 131.826 3.58951C131.47 3.58951 131.216 3.81267 131.211 4.29551V6.35265H130.091V2.73743H131.211V3.24462C131.458 2.89973 131.83 2.66846 132.312 2.66846C133.068 2.66846 133.489 3.13912 133.489 3.98714H133.485Z" fill="#00D037"/>
<path d="M135.528 4.53502C135.528 3.42732 136.321 2.64017 137.252 2.64017C137.762 2.64017 138.134 2.84305 138.377 3.1433V1.10645H139.497V6.35277H138.377V5.93485C138.134 6.22699 137.77 6.4258 137.252 6.4258C136.321 6.4258 135.528 5.64271 135.528 4.53502ZM138.514 4.53502C138.514 3.94262 138.105 3.57339 137.584 3.57339C137.062 3.57339 136.641 3.94668 136.641 4.53502C136.641 5.12335 137.05 5.49664 137.584 5.49664C138.118 5.49664 138.514 5.12335 138.514 4.53502Z" fill="#00D037"/>
<path d="M140.562 1.65385C140.562 1.31302 140.845 1.03711 141.189 1.03711C141.533 1.03711 141.804 1.31302 141.804 1.65385C141.804 1.99467 141.52 2.27058 141.189 2.27058C140.857 2.27058 140.562 1.99873 140.562 1.65385ZM140.626 2.73719H141.735V6.35647H140.626V2.73719Z" fill="#00D037"/>
<path d="M142.52 5.96313L142.961 5.18815C143.268 5.41943 143.729 5.61013 144.057 5.61013C144.284 5.61013 144.437 5.51681 144.437 5.33828C144.437 5.09483 144.114 5.02585 143.733 4.89196C143.264 4.72966 142.69 4.52678 142.69 3.80049C142.69 3.02552 143.333 2.66846 144.077 2.66846C144.53 2.66846 145.012 2.80235 145.404 3.04986L144.955 3.75586C144.708 3.59356 144.32 3.45561 144.065 3.45561C143.863 3.45561 143.725 3.54082 143.725 3.68688C143.725 3.90599 144.069 3.96685 144.474 4.09669C144.955 4.25899 145.505 4.48621 145.505 5.24496C145.505 6.04428 144.89 6.42568 144.073 6.42568C143.511 6.42568 142.928 6.2431 142.516 5.96719L142.52 5.96313Z" fill="#00D037"/>
<path d="M147.601 3.47567V5.05403C147.601 5.37458 147.767 5.51253 148.005 5.51253H148.361V6.35243H147.702C146.937 6.35243 146.484 5.93045 146.484 5.17982V3.47567H145.926V2.73315H146.484V1.73096H147.601V2.73315H148.377V3.47567H147.601Z" fill="#00D037"/>
<path d="M151.55 2.70068V3.76374C150.781 3.76374 150.368 4.03965 150.368 4.70914V6.35242H149.256V2.7372H150.316V3.45943C150.494 3.13483 150.919 2.74937 151.55 2.70474V2.70068Z" fill="#00D037"/>
<path d="M152.2 1.65385C152.2 1.31302 152.483 1.03711 152.827 1.03711C153.171 1.03711 153.442 1.31302 153.442 1.65385C153.442 1.99467 153.159 2.27058 152.827 2.27058C152.496 2.27058 152.2 1.99873 152.2 1.65385ZM152.265 2.73719H153.373V6.35647H152.265V2.73719Z" fill="#00D037"/>
<path d="M154.199 4.54301C154.199 3.43532 155.057 2.66846 156.202 2.66846C156.833 2.66846 157.379 2.91191 157.743 3.30954L156.966 3.97902C156.797 3.74775 156.525 3.60168 156.202 3.60168C155.676 3.60168 155.263 3.97091 155.263 4.54301C155.263 5.11512 155.676 5.48029 156.202 5.48029C156.525 5.48029 156.797 5.33828 156.966 5.10295L157.743 5.77243C157.379 6.17006 156.833 6.41351 156.202 6.41351C155.057 6.41351 154.199 5.64665 154.199 4.53896V4.54301Z" fill="#00D037"/>
<path d="M159.705 3.47567V5.05403C159.705 5.37458 159.871 5.51253 160.11 5.51253H160.466V6.35243H159.81C159.046 6.35243 158.593 5.93045 158.593 5.17982V3.47567H158.03V2.73315H158.593V1.73096H159.709V2.73315H160.486V3.47567H159.709H159.705Z" fill="#00D037"/>
<path d="M123.998 17.4297H123.039V19.8642H121.518V20.7731H123.039V24.4329H123.998V20.7731H125.596V19.8642H123.998V17.4297Z" fill="#000001"/>
<path d="M118.848 24.4328H121.21V21.7549H118.848V24.4328ZM119.628 22.4933H120.417V23.6862H119.628V22.4933Z" fill="#000001"/>
<path d="M121.219 20.688H118.84V21.3859H121.219V20.688Z" fill="#000001"/>
<path d="M121.207 19.9654V19.8275V19.6489H118.84V20.3468H121.207V19.9654Z" fill="#000001"/>
<path d="M121.206 18.5698H120.365C120.296 18.3547 120.199 18.0829 120.106 17.8191C120.062 17.6933 120.017 17.5716 119.977 17.458L119.252 17.6812C119.289 17.7988 119.333 17.9287 119.378 18.0666C119.434 18.237 119.495 18.4115 119.544 18.5698H118.844V19.3001H121.21V18.5698H121.206Z" fill="#000001"/>
<path d="M110.424 24.4328H112.791V21.7549H110.424V24.4328ZM111.205 22.4933H111.994V23.6862H111.205V22.4933Z" fill="#000001"/>
<path d="M112.799 20.688H110.416V21.3859H112.799V20.688Z" fill="#000001"/>
<path d="M112.783 19.9654V19.8275V19.6489H110.416V20.3468H112.783V19.9654Z" fill="#000001"/>
<path d="M112.783 18.5698H111.937C111.868 18.3547 111.771 18.0829 111.678 17.8191C111.634 17.6933 111.589 17.5716 111.549 17.458L110.825 17.6812C110.861 17.7988 110.906 17.9287 110.95 18.0666C111.007 18.237 111.063 18.4115 111.116 18.5698H110.416V19.3001H112.783V18.5698Z" fill="#000001"/>
<path d="M117.205 21.1342L117.217 21.0936C117.241 21.0124 117.266 20.9313 117.29 20.8501H117.282L117.339 20.6392H113.273L113.329 20.8461H113.321C113.341 20.9313 113.37 21.0124 113.394 21.0936L113.406 21.1342C113.669 21.9497 114.057 22.5989 114.559 23.1061C114.086 23.3536 113.556 23.5484 112.957 23.666C112.957 23.666 113.536 24.5587 113.523 24.4978C114.199 24.3355 114.79 24.0799 115.308 23.7431C115.825 24.0799 116.416 24.3355 117.092 24.4978C117.08 24.5587 117.654 23.666 117.654 23.666C117.059 23.5484 116.525 23.3577 116.052 23.1061C116.554 22.5989 116.946 21.9538 117.205 21.1342ZM114.49 21.4993H116.125C115.918 21.9213 115.643 22.2824 115.308 22.5908C114.972 22.2824 114.697 21.9213 114.49 21.4993Z" fill="#000001"/>
<path d="M114.826 18.3996V18.3915H115.752V19.5154C115.752 19.9982 115.971 20.3512 116.618 20.3512H117.456V19.5479H116.829C116.614 19.5479 116.598 19.4545 116.598 19.2314V17.5435H113.992V18.3712C113.992 18.8053 113.912 19.3287 113.163 19.5965V20.408C114.373 20.1321 114.83 19.4058 114.83 18.3996H114.826Z" fill="#000001"/>
<path d="M143.357 19.5524L142.853 20.3076L144.039 21.1046L144.543 20.3494L143.357 19.5524Z" fill="#000001"/>
<path d="M143.28 18.2815L144.466 19.0768L144.935 18.3789L143.75 17.5796L143.28 18.2815Z" fill="#000001"/>
<path d="M149.082 23.6863C149.026 23.7472 148.925 23.7553 148.771 23.7553H146.995C146.695 23.7553 146.619 23.7147 146.619 23.4104V22.9357H148.674V21.7306L148.71 21.7753C148.945 22.0593 149.171 22.2743 149.398 22.4366L149.997 21.755C149.143 21.1504 148.759 20.4647 148.755 20.4566L148.739 20.4241H149.924V19.6532H148.73V18.9512H149.705V18.1884H148.73V17.4297H147.885V18.1884H146.801V17.4297H145.971V18.1884H145.033V18.9512H145.971V19.6532H144.749V20.4241H145.911L145.894 20.4566C145.583 21.0368 145.097 21.5967 144.616 21.9213L144.608 21.9294H144.596L144.029 21.6698L142.981 23.9541L143.795 24.3436L144.749 22.0674L144.77 22.0917C144.794 22.1161 144.822 22.1445 144.847 22.1729V22.181L145.178 22.5786C145.389 22.4163 145.607 22.2053 145.846 21.9335L145.882 21.8929V23.4266C145.882 24.2584 145.927 24.4532 147.064 24.4532H149.046C149.681 24.4532 149.811 24.3639 149.811 23.3293H149.143C149.143 23.5119 149.139 23.6295 149.074 23.6944L149.082 23.6863ZM148.014 22.3392H146.619V21.7063H148.014V22.3392ZM146.801 18.9512H147.885V19.6532H146.801V18.9512ZM146.432 21.0814C146.558 20.8623 146.659 20.6513 146.748 20.4403V20.4282H147.901V20.4403C148.006 20.6797 148.132 20.9069 148.229 21.0814L148.245 21.1139H146.412L146.428 21.0814H146.432Z" fill="#000001"/>
<path d="M153.99 23.268C153.99 24.0673 154.164 24.4446 155.135 24.4446H157.145C157.457 24.4446 157.7 24.3594 157.866 24.189C158.153 23.8928 158.141 23.4181 158.133 23.1868C158.133 23.1665 158.133 23.1503 158.133 23.1341H157.348V23.1625C157.348 23.3653 157.348 23.4992 157.267 23.5804C157.198 23.6534 157.065 23.6778 156.818 23.6778H155.357C154.912 23.6778 154.811 23.6494 154.811 23.3734V20.6996H154.823L155.479 20.4074V22.8216H156.276V20.0585H156.288L156.911 19.7623V22.1887H157.708V18.5694L156.3 19.1699H156.276V17.4414H155.479V19.5229L154.811 19.811V18.1758H153.99V20.164L153.407 20.4237V21.3163L153.99 21.0566V23.2598V23.268Z" fill="#000001"/>
<path d="M153.629 21.767L152.759 22.1565V20.0142H153.293V19.1986H152.759V17.5513H151.971V19.1986H151.153V20.0142H151.971V22.5095L151.153 22.8747V23.6862L153.629 22.5785V21.767Z" fill="#000001"/>
<path d="M138.992 18.4478H139.008C139.894 18.3464 140.606 18.2287 141.185 18.0908V17.2671C140.125 17.5024 138.361 17.8027 135.905 17.9122V18.6466C136.605 18.6304 137.317 18.5939 138.025 18.533H138.049V19.1051H135.011V19.8679H137.155L137.106 19.9045C136.629 20.2534 136.022 20.5699 135.395 20.7971V21.7222C135.715 21.6045 135.998 21.4909 136.115 21.4382L136.144 21.426V24.4204H141.031V21.426H136.148L136.229 21.3854C136.904 21.0527 137.523 20.6226 138.017 20.1398L138.053 20.1033V20.9959H138.996V20.1195L139.028 20.1357C139.938 20.6145 141.16 21.3976 141.783 21.9048V20.862C141.35 20.5739 140.776 20.2372 140.161 19.9126L140.088 19.872H142.054V19.1092H139V18.4478H138.992ZM137.009 23.1951H139.756V22.623H137.009V22.0752H139.756H140.125V23.7956H137.009V23.1991V23.1951Z" fill="#000001"/>
<path d="M129.788 20.0588H130.99H131.107L130.929 21.3369H132.082L132.26 20.0588L132.576 17.7866L131.402 17.953L131.269 18.8943H129.95L129.788 20.0588Z" fill="#000001"/>
<path d="M132.854 18.894L132.688 20.0585H133.587L133.748 18.894H132.854Z" fill="#000001"/>
<path d="M130.868 21.7752H130.014H129.116L129.294 20.4971H128.141L127.963 21.7752H126.956L126.794 22.9356H127.801H128.954H130.37H130.706L130.467 24.6398L131.645 24.4775L131.859 22.9356H133.19L133.352 21.7752H132.021H130.868Z" fill="#000001"/>
<path d="M127.741 23.3735L127.624 24.2215L128.801 24.0593L128.894 23.3735H127.741Z" fill="#000001"/>
<path d="M129.355 20.0588L129.731 17.3687L128.554 17.531L128.368 18.8943H127.352L127.19 20.0588H128.206H129.355Z" fill="#000001"/>
<path d="M114.855 8.98975V14.2482H113.698V12.114H111.578V14.2482H110.421V8.98975H111.578V11.1078H113.698V8.98975H114.855Z" fill="black"/>
<path d="M115.713 12.4387C115.713 11.331 116.571 10.5601 117.716 10.5601C118.86 10.5601 119.722 11.335 119.722 12.4387C119.722 13.5423 118.86 14.3213 117.716 14.3213C116.571 14.3213 115.713 13.5464 115.713 12.4387ZM118.658 12.4387C118.658 11.8787 118.233 11.4933 117.711 11.4933C117.19 11.4933 116.769 11.8666 116.769 12.4387C116.769 13.0108 117.186 13.38 117.711 13.38C118.237 13.38 118.658 13.0027 118.658 12.4387Z" fill="black"/>
<path d="M123.853 11.8789V14.2525H122.728V12.1021C122.728 11.5989 122.506 11.4813 122.19 11.4813C121.83 11.4813 121.575 11.7085 121.571 12.1913V14.2525H120.446V10.6251H121.571V11.1323C121.818 10.7874 122.194 10.5562 122.671 10.5562C123.428 10.5562 123.853 11.0309 123.853 11.8789Z" fill="black"/>
<path d="M124.552 15.1573L125.24 14.5122C125.596 14.9626 126.013 15.0884 126.373 15.0884C126.955 15.0884 127.307 14.7556 127.307 14.1146V13.7169C127.081 14.0131 126.737 14.2119 126.231 14.2119C125.268 14.2119 124.516 13.4573 124.516 12.3739C124.516 11.2906 125.268 10.5562 126.211 10.5562C126.725 10.5562 127.073 10.7631 127.303 11.0674V10.6251H128.42V13.9928C128.42 15.2831 127.647 15.9567 126.385 15.9567C125.794 15.9567 125.127 15.8025 124.548 15.1573H124.552ZM127.408 12.3739C127.408 11.8099 127.016 11.4569 126.522 11.4569C126.029 11.4569 125.636 11.8099 125.636 12.3739C125.636 12.9379 126.025 13.2828 126.522 13.2828C127.02 13.2828 127.408 12.9379 127.408 12.3739Z" fill="black"/>
<path d="M133.332 14.2526L131.357 11.6437V14.2526H130.2V8.99414H131.357V11.3434L133.287 8.99414H134.764L132.62 11.4854L134.865 14.2526H133.332Z" fill="black"/>
<path d="M134.998 12.4387C134.998 11.331 135.856 10.5601 137.001 10.5601C138.146 10.5601 139.007 11.335 139.007 12.4387C139.007 13.5423 138.146 14.3213 137.001 14.3213C135.856 14.3213 134.998 13.5464 134.998 12.4387ZM137.943 12.4387C137.943 11.8787 137.519 11.4933 136.997 11.4933C136.475 11.4933 136.054 11.8666 136.054 12.4387C136.054 13.0108 136.471 13.38 136.997 13.38C137.523 13.38 137.943 13.0027 137.943 12.4387Z" fill="black"/>
<path d="M143.139 11.8789V14.2525H142.014V12.1021C142.014 11.5989 141.792 11.4813 141.476 11.4813C141.116 11.4813 140.861 11.7085 140.857 12.1913V14.2525H139.732V10.6251H140.857V11.1323C141.104 10.7874 141.48 10.5562 141.958 10.5562C142.714 10.5562 143.139 11.0309 143.139 11.8789Z" fill="black"/>
<path d="M143.838 15.1573L144.526 14.5122C144.882 14.9626 145.299 15.0884 145.655 15.0884C146.237 15.0884 146.589 14.7556 146.589 14.1146V13.7169C146.363 14.0131 146.019 14.2119 145.513 14.2119C144.55 14.2119 143.798 13.4573 143.798 12.3739C143.798 11.2906 144.55 10.5562 145.493 10.5562C146.007 10.5562 146.355 10.7631 146.585 11.0674V10.6251H147.702V13.9928C147.702 15.2831 146.929 15.9567 145.667 15.9567C145.076 15.9567 144.409 15.8025 143.83 15.1573H143.838ZM146.695 12.3739C146.695 11.8099 146.302 11.4569 145.809 11.4569C145.315 11.4569 144.923 11.8099 144.923 12.3739C144.923 12.9379 145.311 13.2828 145.809 13.2828C146.306 13.2828 146.695 12.9379 146.695 12.3739Z" fill="black"/>
</g>
<defs>
<clipPath id="clip0_5127_176340">
<rect width="160" height="24" fill="white" transform="translate(0.482422 0.639648)"/>
</clipPath>
</defs>
</svg>
