<svg width="271" height="28" viewBox="0 0 271 28" fill="none" xmlns="http://www.w3.org/2000/svg">
<g clip-path="url(#clip0_5921_142593)">
<path d="M3.72939 22.9821L3.26758 26.2318L7.88569 25.6081L8.25848 22.9821H3.72939Z" fill="#00D037"/>
<path d="M10.0751 10.2965L11.544 0.000244141L6.9259 0.623925L6.18032 5.84315H2.19094L1.55664 10.2965H5.54046H10.0751Z" fill="#00D037"/>
<path d="M91.2991 0.5896V8.86705L80.0654 13.0632V0.5896H73.9395V27.8292H80.0654V19.7651L91.2991 15.5689V27.8292H97.4251V0.5896H91.2991Z" fill="#000001"/>
<path d="M125.781 0.589478H117.958L107.804 12.713V0.589478H101.678V27.829H107.804V14.2776L118.253 27.829H126.376L114.492 13.4625L125.781 0.589478Z" fill="#000001"/>
<path d="M11.7734 10.2955H16.4973H16.9591L16.258 15.1865H20.7871L21.4882 10.2955L22.7345 1.60229L18.1164 2.22598L17.5989 5.84223H12.4077L11.7734 10.2955Z" fill="#00D037"/>
<path d="M23.8257 5.84155L23.1914 10.2949H26.7134L27.3533 5.84155H23.8257Z" fill="#00D037"/>
<path d="M16.0187 16.8608H12.6637H9.13608L9.83158 11.9644H5.30805L4.60699 16.8608H0.634296L0 21.3141H3.96713H8.49622H14.0658H15.3844L14.4553 27.8354L19.0734 27.2062L19.9135 21.3141H25.1604L25.7947 16.8608H20.5534H16.0187Z" fill="#00D037"/>
<path d="M49.9098 0.5896H44.1455V8.31996C42.7601 7.58139 41.191 7.13825 39.5163 7.08354L38.793 12.1277C38.9265 12.1168 39.06 12.1058 39.1936 12.1058C42.098 12.1058 44.446 14.42 44.446 17.2703C44.446 19.4313 43.0939 21.2805 41.1799 22.0519L40.4177 27.397C41.753 27.2438 43.0105 26.8334 44.1455 26.2317V27.8237H50.2826V0.5896H49.9098Z" fill="#00D037"/>
<path d="M33.9392 17.2754C33.9392 15.18 35.2078 13.3801 37.0328 12.5704L37.8062 7.17065C32.7318 7.8381 28.8203 12.1054 28.8203 17.2754C28.8203 22.7517 33.2103 27.216 38.7187 27.4622L39.4364 22.429C39.3585 22.429 39.2806 22.4399 39.1972 22.4399C36.2928 22.4399 33.9448 20.1257 33.9448 17.2754H33.9392Z" fill="#00D037"/>
<path d="M73.5641 0.5896H67.7998V8.31996C66.4144 7.58139 64.8398 7.13825 63.1706 7.08354L62.4473 12.1277C62.5808 12.1168 62.7143 12.1058 62.8479 12.1058C65.7467 12.1058 68.1003 14.42 68.1003 17.2703C68.1003 19.4313 66.7538 21.2805 64.8398 22.0519L64.0775 27.397C65.4184 27.2438 66.6703 26.8334 67.8054 26.2317V27.8237H73.9425V0.5896H73.5697H73.5641Z" fill="#00D037"/>
<path d="M57.5935 17.2754C57.5935 15.18 58.8621 13.3801 60.6871 12.5704L61.4605 7.17065C56.3861 7.8381 52.4746 12.1054 52.4746 17.2754C52.4746 22.7517 56.8646 27.216 62.3674 27.4622L63.0852 22.429C63.0073 22.429 62.9294 22.4399 62.8459 22.4399C59.9471 22.4399 57.5935 20.1257 57.5935 17.2754Z" fill="#00D037"/>
<path d="M131.336 5.76962C131.336 4.08459 132.571 2.88646 134.012 2.88646C134.808 2.88646 135.387 3.1983 135.759 3.65239L135.77 0.544922H137.501V8.54336H135.759V7.90874C135.387 8.35735 134.819 8.65825 134.012 8.65825C132.566 8.65825 131.336 7.46559 131.336 5.77509V5.76962ZM135.976 5.76962C135.976 4.86692 135.342 4.30342 134.535 4.30342C133.728 4.30342 133.066 4.87239 133.066 5.76962C133.066 6.66684 133.701 7.23582 134.535 7.23582C135.37 7.23582 135.976 6.66684 135.976 5.76962Z" fill="#00D037"/>
<path d="M144.633 6.06529H140.493C140.555 6.88593 141.122 7.31813 141.84 7.31813C142.368 7.31813 142.836 7.08835 143.097 6.61238L144.455 7.17588C144.026 8.08952 143.081 8.64755 141.84 8.64755C139.987 8.64755 138.785 7.38925 138.785 5.78628C138.785 4.18331 140.015 2.91406 141.784 2.91406C143.398 2.91406 144.638 3.99183 144.655 5.7261L144.638 6.06529H144.633ZM140.538 5.07506H142.975C142.897 4.46232 142.43 4.11766 141.795 4.11766C141.161 4.11766 140.682 4.46779 140.538 5.07506Z" fill="#00D037"/>
<path d="M145.393 7.94915L146.083 6.76744C146.561 7.11758 147.279 7.40754 147.785 7.40754C148.141 7.40754 148.38 7.26529 148.38 6.99722C148.38 6.6252 147.874 6.52125 147.284 6.31336C146.555 6.06717 145.665 5.75533 145.665 4.65021C145.665 3.4685 146.667 2.92688 147.818 2.92688C148.52 2.92688 149.276 3.1293 149.883 3.50679L149.187 4.58456C148.803 4.33837 148.202 4.125 147.802 4.125C147.49 4.125 147.279 4.25083 147.279 4.47514C147.279 4.80887 147.813 4.90187 148.436 5.09882C149.187 5.35048 150.044 5.69515 150.044 6.84951C150.044 8.06951 149.082 8.64943 147.818 8.64943C146.945 8.64943 146.038 8.37588 145.398 7.94915H145.393Z" fill="#00D037"/>
<path d="M151.238 1.37788C151.238 0.858148 151.678 0.43689 152.212 0.43689C152.746 0.43689 153.163 0.852677 153.163 1.37788C153.163 1.90309 152.724 2.31887 152.212 2.31887C151.7 2.31887 151.238 1.90309 151.238 1.37788ZM151.338 3.03009H153.058V8.54474H151.338V3.03009Z" fill="#00D037"/>
<path d="M154.409 9.91867L155.483 8.93938C156.034 9.62872 156.68 9.81473 157.236 9.81473C158.143 9.81473 158.688 9.31141 158.688 8.33759V7.73579C158.338 8.1844 157.803 8.49077 157.019 8.49077C155.528 8.49077 154.359 7.34189 154.359 5.69515C154.359 4.04841 155.528 2.92688 156.991 2.92688C157.787 2.92688 158.327 3.24419 158.688 3.70375V3.03083H160.419V8.15705C160.419 10.1211 159.222 11.1387 157.264 11.1387C156.346 11.1387 155.311 10.9034 154.415 9.91867H154.409ZM158.838 5.68968C158.838 4.83075 158.232 4.2946 157.459 4.2946C156.685 4.2946 156.09 4.83075 156.09 5.68968C156.09 6.54861 156.691 7.06834 157.459 7.06834C158.226 7.06834 158.838 6.54314 158.838 5.68968Z" fill="#00D037"/>
<path d="M167.456 4.9347V8.54548H165.709V5.27389C165.709 4.50797 165.364 4.3329 164.874 4.3329C164.318 4.3329 163.923 4.67756 163.917 5.41066V8.54548H162.176V3.03083H163.917V3.80222C164.301 3.27702 164.88 2.92688 165.625 2.92688C166.799 2.92688 167.456 3.64357 167.456 4.9347Z" fill="#00D037"/>
<path d="M170.631 5.76962C170.631 4.08459 171.866 2.88646 173.313 2.88646C174.108 2.88646 174.681 3.1983 175.06 3.65239L175.071 0.544922H176.801V8.54336H175.06V7.90874C174.681 8.35735 174.119 8.65825 173.313 8.65825C171.866 8.65825 170.631 7.46559 170.631 5.77509V5.76962ZM175.277 5.76962C175.277 4.86692 174.643 4.30342 173.83 4.30342C173.018 4.30342 172.361 4.87239 172.361 5.76962C172.361 6.66684 173.001 7.23582 173.83 7.23582C174.659 7.23582 175.277 6.66684 175.277 5.76962Z" fill="#00D037"/>
<path d="M178.461 1.37788C178.461 0.858148 178.9 0.43689 179.435 0.43689C179.969 0.43689 180.392 0.852677 180.392 1.37788C180.392 1.90309 179.952 2.31887 179.435 2.31887C178.917 2.31887 178.461 1.90309 178.461 1.37788ZM178.561 3.03009H180.28V8.54474H178.561V3.03009Z" fill="#00D037"/>
<path d="M181.504 7.94915L182.194 6.76744C182.672 7.11758 183.39 7.40754 183.902 7.40754C184.258 7.40754 184.497 7.26529 184.497 6.99722C184.497 6.6252 183.997 6.52125 183.401 6.31336C182.667 6.06717 181.782 5.75533 181.782 4.65021C181.782 3.4685 182.784 2.92688 183.935 2.92688C184.642 2.92688 185.393 3.1293 186 3.50679L185.299 4.58456C184.915 4.33837 184.314 4.125 183.913 4.125C183.602 4.125 183.39 4.25083 183.39 4.47514C183.39 4.80887 183.924 4.90187 184.553 5.09882C185.304 5.35048 186.155 5.69515 186.155 6.84951C186.155 8.06951 185.198 8.64943 183.93 8.64943C183.056 8.64943 182.155 8.37588 181.509 7.94915H181.504Z" fill="#00D037"/>
<path d="M189.402 4.15714V6.56433C189.402 7.05124 189.664 7.25914 190.031 7.25914H190.582V8.53932H189.558C188.368 8.53932 187.661 7.89923 187.661 6.75581V4.15714H186.793V3.02467H187.661V1.49829H189.397V3.02467H190.604V4.15714H189.397H189.402Z" fill="#00D037"/>
<path d="M195.541 2.97534V4.59472C194.345 4.59472 193.711 5.01598 193.711 6.03357V8.53923H191.98V3.03005H193.627V4.1297C193.906 3.63732 194.568 3.04646 195.541 2.98081V2.97534Z" fill="#00D037"/>
<path d="M196.555 1.37788C196.555 0.858148 196.994 0.43689 197.534 0.43689C198.074 0.43689 198.485 0.852677 198.485 1.37788C198.485 1.90309 198.046 2.31887 197.534 2.31887C197.022 2.31887 196.555 1.90309 196.555 1.37788ZM196.655 3.03009H198.38V8.54474H196.655V3.03009Z" fill="#00D037"/>
<path d="M199.658 5.7812C199.658 4.09616 200.988 2.91992 202.768 2.91992C203.748 2.91992 204.599 3.29194 205.161 3.89374L203.954 4.9168C203.687 4.56119 203.264 4.34235 202.763 4.34235C201.945 4.34235 201.3 4.90585 201.3 5.7812C201.3 6.65654 201.939 7.21457 202.763 7.21457C203.264 7.21457 203.687 6.99573 203.954 6.64013L205.161 7.66318C204.599 8.27045 203.748 8.637 202.768 8.637C200.988 8.637 199.658 7.46623 199.658 5.7812Z" fill="#00D037"/>
<path d="M208.215 4.15714V6.56433C208.215 7.05124 208.476 7.25914 208.843 7.25914H209.394V8.53932H208.37C207.18 8.53932 206.473 7.89923 206.473 6.75581V4.15714H205.6V3.02467H206.473V1.49829H208.209V3.02467H209.417V4.15714H208.209H208.215Z" fill="#00D037"/>
<path d="M159.022 13.7472H157.085V18.5616H154.02V20.356H157.085V27.5885H159.022V20.356H162.243V18.5616H159.022V13.7472Z" fill="#000001"/>
<path d="M148.635 27.5873H153.403V22.297H148.635V27.5873ZM150.209 23.7577H151.801V26.1157H150.209V23.7577Z" fill="#000001"/>
<path d="M153.423 20.1855H148.621V21.5642H153.423V20.1855Z" fill="#000001"/>
<path d="M153.389 18.7627V18.4837V18.1335H148.621V19.5122H153.389V18.7627Z" fill="#000001"/>
<path d="M153.389 16.0009H151.687C151.548 15.5742 151.347 15.0381 151.164 14.5183C151.069 14.2721 150.98 14.0314 150.902 13.8016L149.439 14.2393C149.511 14.4746 149.6 14.7317 149.695 14.9998C149.812 15.339 149.929 15.6836 150.029 16.0009H148.621V17.4398H153.389V16.0009Z" fill="#000001"/>
<path d="M131.652 27.5875H136.421V22.2971H131.652V27.5875ZM133.233 23.7578H134.818V26.1158H133.233V23.7578Z" fill="#000001"/>
<path d="M136.436 20.1855H131.635V21.5642H136.436V20.1855Z" fill="#000001"/>
<path d="M136.409 18.7627V18.4837V18.1335H131.635V19.5122H136.409V18.7627Z" fill="#000001"/>
<path d="M136.409 16.0013H134.706C134.567 15.5746 134.372 15.0384 134.183 14.5187C134.094 14.2725 133.999 14.0318 133.922 13.802L132.458 14.2397C132.536 14.4749 132.62 14.7321 132.714 15.0001C132.831 15.3393 132.948 15.684 133.042 16.0013H131.635V17.4401H136.403V16.0013H136.409Z" fill="#000001"/>
<path d="M145.33 21.0712L145.352 20.9891C145.402 20.8305 145.452 20.6718 145.497 20.5077H145.486L145.597 20.0919H137.396L137.507 20.5022H137.49C137.535 20.6718 137.585 20.8305 137.635 20.9891L137.657 21.0712C138.186 22.6851 138.976 23.9653 139.983 24.9665C139.032 25.4589 137.958 25.8418 136.756 26.0716C136.756 26.0716 137.919 27.8387 137.896 27.7129C139.26 27.3901 140.456 26.8868 141.491 26.2193C142.531 26.8868 143.728 27.3901 145.091 27.7129C145.063 27.8387 146.226 26.0716 146.226 26.0716C145.024 25.8418 143.95 25.4589 142.999 24.9665C144.006 23.9653 144.796 22.6851 145.319 21.0712H145.33ZM139.849 21.7934H143.149C142.732 22.6304 142.175 23.3416 141.496 23.9489C140.823 23.3416 140.267 22.6249 139.849 21.7934Z" fill="#000001"/>
<path d="M140.525 15.6617V15.6453H142.395V17.8664C142.395 18.8184 142.834 19.5187 144.142 19.5187H145.827V17.9321H144.564C144.13 17.9321 144.097 17.7461 144.097 17.3029V13.9657H138.845V15.6015C138.845 16.4604 138.678 17.4944 137.17 18.0251V19.6281C139.613 19.081 140.531 17.6476 140.531 15.6617H140.525Z" fill="#000001"/>
<path d="M198.069 17.9416L197.051 19.4371L199.446 21.014L200.464 19.5185L198.069 17.9416Z" fill="#000001"/>
<path d="M197.906 15.4238L200.299 17.0049L201.25 15.6208L198.852 14.0397L197.906 15.4238Z" fill="#000001"/>
<path d="M209.609 26.1164C209.492 26.2313 209.286 26.2586 208.975 26.2586H205.397C204.791 26.2586 204.64 26.1766 204.64 25.5748V24.6338H208.785V22.254L208.858 22.3415C209.331 22.905 209.787 23.3262 210.243 23.649L211.451 22.2977C209.726 21.1051 208.952 19.7428 208.947 19.7319L208.913 19.6717H211.306V18.1508H208.897V16.7612H210.861V15.2512H208.897V13.7522H207.194V15.2512H205.008V13.7522H203.333V15.2512H201.441V16.7612H203.333V18.1508H200.868V19.6717H203.216L203.183 19.7319C202.559 20.8753 201.575 21.9859 200.606 22.626L200.59 22.6369H200.567L199.427 22.1281L197.312 26.6471L198.948 27.413L200.873 22.9105L200.918 22.9542C200.968 23.0035 201.024 23.0582 201.074 23.1129L201.085 23.1293L201.747 23.9171C202.175 23.5998 202.615 23.1785 203.099 22.6424L203.171 22.5603V25.5967C203.171 27.2379 203.26 27.6264 205.553 27.6264H209.548C210.833 27.6264 211.089 27.4458 211.095 25.4052H209.748C209.748 25.7663 209.737 25.996 209.609 26.1273V26.1164ZM207.45 23.4521H204.64V22.1992H207.45V23.4521ZM205.008 16.7557H207.194V18.1453H205.008V16.7557ZM204.262 20.9628C204.512 20.5361 204.724 20.1148 204.902 19.6936L204.913 19.6662H207.228L207.239 19.6936C207.439 20.1641 207.695 20.6182 207.89 20.9628L207.923 21.023H204.223L204.256 20.9628H204.262Z" fill="#000001"/>
<path d="M219.499 25.289C219.499 26.8646 219.844 27.6141 221.808 27.6141H225.864C226.493 27.6141 226.983 27.4445 227.317 27.1108C227.895 26.5254 227.867 25.5844 227.856 25.1303C227.856 25.092 227.856 25.0592 227.856 25.0264H226.276V25.0865C226.276 25.4859 226.276 25.7485 226.115 25.9126C225.97 26.0549 225.709 26.1096 225.213 26.1096H222.27C221.374 26.1096 221.168 26.0549 221.168 25.5078V20.2229L221.191 20.212L222.515 19.6485V24.4246H224.123V18.9646L224.151 18.9537L225.408 18.3792V23.1717H227.016V16.0158L224.173 17.203H224.128V13.7837H222.52V17.9033L221.174 18.4722V15.2444H219.516V19.1725L218.342 19.6868V21.4539L219.516 20.9396V25.2944L219.499 25.289Z" fill="#000001"/>
<path d="M218.776 22.3247L217.023 23.0906V18.8562H218.097V17.2422H217.023V13.9871H215.432V17.2422H213.785V18.8562H215.432V23.7854L213.785 24.5076V26.1105L218.776 23.9277V22.3247Z" fill="#000001"/>
<path d="M189.259 15.7588H189.298C191.09 15.5564 192.525 15.3266 193.688 15.0531V13.4282C191.552 13.8932 187.996 14.4896 183.039 14.7084V16.1637C184.452 16.1363 185.888 16.0597 187.312 15.9394H187.362V17.0718H181.23V18.5818H185.554L185.454 18.6529C184.491 19.3423 183.261 19.9714 182.004 20.42V22.2473C182.649 22.012 183.217 21.7932 183.462 21.6838L183.523 21.6564V27.5759H193.377V21.6564H183.528L183.69 21.5798C185.053 20.9233 186.305 20.0699 187.29 19.1125L187.362 19.0414V20.803H189.259V19.0742L189.321 19.107C191.151 20.0535 193.622 21.6017 194.873 22.6029V20.5404C194 19.9714 192.837 19.304 191.602 18.6584L191.452 18.5818H195.419V17.0718H189.259V15.7643V15.7588ZM185.259 25.1469H190.801V24.0144H185.259V22.9312H190.801H191.541V26.3286H185.259V25.1523V25.1469Z" fill="#000001"/>
<path d="M170.697 18.9437H173.123H173.362L173.001 21.4713H175.327L175.683 18.9437L176.317 14.4521L173.952 14.7749L173.685 16.6405H171.026L170.697 18.9437Z" fill="#000001"/>
<path d="M176.879 16.6401L176.551 18.9434H178.359L178.687 16.6401H176.879Z" fill="#000001"/>
<path d="M172.876 22.3325H171.157H169.343L169.705 19.8104H167.379L167.023 22.3325H164.986L164.658 24.6357H166.695H169.02H171.875H172.554L172.069 28.0003L174.44 27.6776L174.874 24.6357H177.561L177.889 22.3325H175.196H172.876Z" fill="#000001"/>
<path d="M166.575 25.4901L166.336 27.1697L168.706 26.8469L168.895 25.4901H166.575Z" fill="#000001"/>
<path d="M169.833 18.944L170.584 13.6263L168.219 13.9491L167.835 16.6408H165.793L165.465 18.944H167.507H169.833Z" fill="#000001"/>
<path d="M219.923 0.633789V8.64864H218.126V5.39893H214.826V8.64864H213.029V0.633789H214.826V3.86708H218.126V0.633789H219.923Z" fill="black"/>
<path d="M221.26 5.88457C221.26 4.19953 222.59 3.01782 224.376 3.01782C226.162 3.01782 227.497 4.19953 227.497 5.88457C227.497 7.5696 226.156 8.75131 224.376 8.75131C222.595 8.75131 221.26 7.5696 221.26 5.88457ZM225.839 5.88457C225.839 5.03111 225.182 4.44572 224.37 4.44572C223.558 4.44572 222.907 5.0147 222.907 5.88457C222.907 6.75444 223.552 7.31794 224.37 7.31794C225.188 7.31794 225.839 6.7435 225.839 5.88457Z" fill="black"/>
<path d="M233.914 5.03111V8.64737H232.161V5.3703C232.161 4.60438 231.816 4.42384 231.327 4.42384C230.77 4.42384 230.37 4.76851 230.364 5.50161V8.64189H228.617V3.12177H230.364V3.89316C230.748 3.36796 231.332 3.01782 232.072 3.01782C233.252 3.01782 233.909 3.73998 233.909 5.03111H233.914Z" fill="black"/>
<path d="M235.001 10.0282L236.075 9.04891C236.626 9.73825 237.277 9.92425 237.833 9.92425C238.74 9.92425 239.286 9.42093 239.286 8.44165V7.83438C238.935 8.28299 238.401 8.58936 237.616 8.58936C236.12 8.58936 234.951 7.435 234.951 5.78827C234.951 4.14153 236.12 3.01453 237.589 3.01453C238.384 3.01453 238.929 3.33184 239.286 3.79139V3.11847H241.021V8.25563C241.021 10.2252 239.825 11.2482 237.856 11.2482C236.938 11.2482 235.903 11.013 235.001 10.0282ZM239.436 5.78827C239.436 4.92934 238.824 4.38772 238.056 4.38772C237.288 4.38772 236.682 4.92387 236.682 5.78827C236.682 6.65267 237.288 7.1724 238.056 7.1724C238.824 7.1724 239.436 6.64719 239.436 5.78827Z" fill="black"/>
<path d="M248.646 8.64913L245.575 4.67179V8.64913H243.777V0.634277H245.575V4.21224L248.574 0.634277H250.871L247.539 4.43107L251.027 8.64913H248.646Z" fill="black"/>
<path d="M251.236 5.88457C251.236 4.19953 252.566 3.01782 254.352 3.01782C256.138 3.01782 257.474 4.19953 257.474 5.88457C257.474 7.5696 256.133 8.75131 254.352 8.75131C252.572 8.75131 251.236 7.5696 251.236 5.88457ZM255.815 5.88457C255.815 5.03111 255.159 4.44572 254.347 4.44572C253.534 4.44572 252.883 5.0147 252.883 5.88457C252.883 6.75444 253.529 7.31794 254.347 7.31794C255.165 7.31794 255.815 6.7435 255.815 5.88457Z" fill="black"/>
<path d="M263.891 5.03111V8.64737H262.138V5.3703C262.138 4.60438 261.793 4.42384 261.303 4.42384C260.747 4.42384 260.346 4.76851 260.341 5.50161V8.64189H258.594V3.12177H260.341V3.89316C260.725 3.36796 261.309 3.01782 262.049 3.01782C263.229 3.01782 263.885 3.73998 263.885 5.03111H263.891Z" fill="black"/>
<path d="M264.982 10.0281L266.056 9.04879C266.606 9.73812 267.257 9.92413 267.814 9.92413C268.721 9.92413 269.266 9.42081 269.266 8.44152V7.83425C268.915 8.28287 268.381 8.58924 267.597 8.58924C266.1 8.58924 264.932 7.43488 264.932 5.78814C264.932 4.14141 266.1 3.0144 267.569 3.0144C268.365 3.0144 268.904 3.33172 269.266 3.79127V3.11835H271.002V8.25551C271.002 10.225 269.8 11.2481 267.842 11.2481C266.924 11.2481 265.889 11.0128 264.987 10.0281H264.982ZM269.422 5.78814C269.422 4.92921 268.81 4.3876 268.042 4.3876C267.274 4.3876 266.668 4.92374 266.668 5.78814C266.668 6.65254 267.274 7.17228 268.042 7.17228C268.81 7.17228 269.422 6.64707 269.422 5.78814Z" fill="black"/>
</g>
<defs>
<clipPath id="clip0_5921_142593">
<rect width="271" height="28" fill="white"/>
</clipPath>
</defs>
</svg>
