<?xml version="1.0" encoding="UTF-8" standalone="no"?>
<!DOCTYPE svg PUBLIC "-//W3C//DTD SVG 1.1//EN" "http://www.w3.org/Graphics/SVG/1.1/DTD/svg11.dtd">
<svg width="100%" height="100%" viewBox="0 0 137 483" version="1.1" xmlns="http://www.w3.org/2000/svg" xmlns:xlink="http://www.w3.org/1999/xlink" xml:space="preserve" xmlns:serif="http://www.serif.com/" style="fill-rule:evenodd;clip-rule:evenodd;stroke-linejoin:round;stroke-miterlimit:2;">
    <g transform="matrix(1,0,0,1,-91.2363,-94.3477)">
        <clipPath id="_clip1">
            <path d="M485.461,505.878C575.525,411.892 575.525,259.51 485.462,165.524C395.398,71.537 249.376,71.538 159.313,165.524C69.249,259.51 69.249,411.892 159.313,505.878C249.376,599.864 395.398,599.864 485.461,505.878Z" clip-rule="nonzero"/>
        </clipPath>
        <g clip-path="url(#_clip1)">
            <path d="M91.236,101.705C91.236,97.628 94.379,94.348 98.286,94.348C102.194,94.348 105.337,97.628 105.337,101.705C105.337,105.783 102.194,109.063 98.286,109.063C94.379,109.063 91.236,105.783 91.236,101.705Z" style="fill:rgb(137,219,135);fill-rule:nonzero;"/>
            <path d="M119.436,101.705C119.436,97.628 122.578,94.348 126.485,94.348C130.393,94.348 133.536,97.628 133.536,101.705C133.536,105.783 130.393,109.063 126.485,109.063C122.578,109.063 119.436,105.783 119.436,101.705Z" style="fill:rgb(137,219,135);fill-rule:nonzero;"/>
            <path d="M147.643,101.705C147.643,97.628 150.786,94.348 154.693,94.348C158.6,94.348 161.744,97.628 161.744,101.705C161.744,105.783 158.6,109.063 154.693,109.063C150.786,109.063 147.643,105.783 147.643,101.705Z" style="fill:rgb(137,219,135);fill-rule:nonzero;"/>
            <path d="M175.838,101.705C175.838,97.628 178.981,94.348 182.888,94.348C186.796,94.348 189.939,97.628 189.939,101.705C189.939,105.783 186.796,109.063 182.888,109.063C178.981,109.063 175.838,105.783 175.838,101.705Z" style="fill:rgb(137,219,135);fill-rule:nonzero;"/>
            <path d="M204.043,101.705C204.043,97.628 207.186,94.348 211.093,94.348C215.001,94.348 218.144,97.628 218.144,101.705C218.144,105.783 215.001,109.063 211.093,109.063C207.186,109.063 204.043,105.783 204.043,101.705Z" style="fill:rgb(137,219,135);fill-rule:nonzero;"/>
            <path d="M112.218,129.362C116.112,129.362 119.269,126.068 119.269,122.005C119.269,117.941 116.112,114.647 112.218,114.647C108.325,114.647 105.168,117.941 105.168,122.005C105.168,126.068 108.325,129.362 112.218,129.362Z" style="fill:rgb(137,219,135);fill-rule:nonzero;"/>
            <path d="M133.361,122.005C133.361,117.927 136.504,114.647 140.412,114.647C144.319,114.647 147.462,117.927 147.462,122.005C147.462,126.082 144.319,129.362 140.412,129.362C136.504,129.362 133.361,126.082 133.361,122.005Z" style="fill:rgb(137,219,135);fill-rule:nonzero;"/>
            <path d="M161.65,122.005C161.65,117.927 164.793,114.647 168.701,114.647C172.608,114.647 175.751,117.927 175.751,122.005C175.751,126.082 172.608,129.362 168.701,129.362C164.793,129.362 161.65,126.082 161.65,122.005Z" style="fill:rgb(137,219,135);fill-rule:nonzero;"/>
            <path d="M189.857,122.005C189.857,117.927 193,114.647 196.908,114.647C200.815,114.647 203.958,117.927 203.958,122.005C203.958,126.082 200.815,129.362 196.908,129.362C193,129.362 189.857,126.082 189.857,122.005Z" style="fill:rgb(137,219,135);fill-rule:nonzero;"/>
            <path d="M218.062,122.005C218.062,117.927 221.205,114.647 225.112,114.647C229.02,114.647 232.163,117.927 232.163,122.005C232.163,126.082 229.02,129.362 225.112,129.362C221.205,129.362 218.062,126.082 218.062,122.005Z" style="fill:rgb(137,219,135);fill-rule:nonzero;"/>
            <path d="M91.236,140.885C91.236,136.808 94.379,133.528 98.286,133.528C102.194,133.528 105.337,136.808 105.337,140.885C105.337,144.963 102.194,148.243 98.286,148.243C94.379,148.243 91.236,144.963 91.236,140.885Z" style="fill:rgb(137,219,135);fill-rule:nonzero;"/>
            <path d="M119.436,140.885C119.436,136.808 122.578,133.528 126.485,133.528C130.393,133.528 133.536,136.808 133.536,140.885C133.536,144.963 130.393,148.243 126.485,148.243C122.578,148.243 119.436,144.963 119.436,140.885Z" style="fill:rgb(137,219,135);fill-rule:nonzero;"/>
            <path d="M147.643,140.885C147.643,136.808 150.786,133.528 154.693,133.528C158.6,133.528 161.744,136.808 161.744,140.885C161.744,144.963 158.6,148.243 154.693,148.243C150.786,148.243 147.643,144.963 147.643,140.885Z" style="fill:rgb(137,219,135);fill-rule:nonzero;"/>
            <path d="M175.838,140.885C175.838,136.808 178.981,133.528 182.888,133.528C186.796,133.528 189.939,136.808 189.939,140.885C189.939,144.963 186.796,148.243 182.888,148.243C178.981,148.243 175.838,144.963 175.838,140.885Z" style="fill:rgb(137,219,135);fill-rule:nonzero;"/>
            <path d="M204.043,140.885C204.043,136.808 207.186,133.528 211.093,133.528C215.001,133.528 218.144,136.808 218.144,140.885C218.144,144.963 215.001,148.243 211.093,148.243C207.186,148.243 204.043,144.963 204.043,140.885Z" style="fill:rgb(137,219,135);fill-rule:nonzero;"/>
            <path d="M105.168,161.185C105.168,157.108 108.311,153.828 112.218,153.828C116.126,153.828 119.269,157.108 119.269,161.185C119.269,165.263 116.126,168.543 112.218,168.543C108.311,168.543 105.168,165.263 105.168,161.185Z" style="fill:rgb(137,219,135);fill-rule:nonzero;"/>
            <path d="M133.361,161.185C133.361,157.108 136.504,153.828 140.412,153.828C144.319,153.828 147.462,157.108 147.462,161.185C147.462,165.263 144.319,168.543 140.412,168.543C136.504,168.543 133.361,165.263 133.361,161.185Z" style="fill:rgb(137,219,135);fill-rule:nonzero;"/>
            <path d="M161.65,161.185C161.65,157.108 164.793,153.828 168.701,153.828C172.608,153.828 175.751,157.108 175.751,161.185C175.751,165.263 172.608,168.543 168.701,168.543C164.793,168.543 161.65,165.263 161.65,161.185Z" style="fill:rgb(137,219,135);fill-rule:nonzero;"/>
            <path d="M189.857,161.185C189.857,157.108 193,153.828 196.908,153.828C200.815,153.828 203.958,157.108 203.958,161.185C203.958,165.263 200.815,168.543 196.908,168.543C193,168.543 189.857,165.263 189.857,161.185Z" style="fill:rgb(137,219,135);fill-rule:nonzero;"/>
            <path d="M218.062,161.185C218.062,157.108 221.205,153.828 225.112,153.828C229.02,153.828 232.163,157.108 232.163,161.185C232.163,165.263 229.02,168.543 225.112,168.543C221.205,168.543 218.062,165.263 218.062,161.185Z" style="fill:rgb(137,219,135);fill-rule:nonzero;"/>
            <path d="M91.236,180.154C91.236,176.077 94.379,172.797 98.286,172.797C102.194,172.797 105.337,176.077 105.337,180.154C105.337,184.232 102.194,187.512 98.286,187.512C94.379,187.512 91.236,184.232 91.236,180.154Z" style="fill:rgb(137,219,135);fill-rule:nonzero;"/>
            <path d="M119.436,180.154C119.436,176.077 122.578,172.797 126.485,172.797C130.393,172.797 133.536,176.077 133.536,180.154C133.536,184.232 130.393,187.512 126.485,187.512C122.578,187.512 119.436,184.232 119.436,180.154Z" style="fill:rgb(137,219,135);fill-rule:nonzero;"/>
            <path d="M147.643,180.154C147.643,176.077 150.786,172.797 154.693,172.797C158.6,172.797 161.744,176.077 161.744,180.154C161.744,184.232 158.6,187.512 154.693,187.512C150.786,187.512 147.643,184.232 147.643,180.154Z" style="fill:rgb(137,219,135);fill-rule:nonzero;"/>
            <path d="M175.838,180.154C175.838,176.077 178.981,172.797 182.888,172.797C186.796,172.797 189.939,176.077 189.939,180.154C189.939,184.232 186.796,187.512 182.888,187.512C178.981,187.512 175.838,184.232 175.838,180.154Z" style="fill:rgb(137,219,135);fill-rule:nonzero;"/>
            <path d="M204.043,180.154C204.043,176.077 207.186,172.797 211.093,172.797C215.001,172.797 218.144,176.077 218.144,180.154C218.144,184.232 215.001,187.512 211.093,187.512C207.186,187.512 204.043,184.232 204.043,180.154Z" style="fill:rgb(137,219,135);fill-rule:nonzero;"/>
            <path d="M105.168,200.365C105.168,196.287 108.311,193.008 112.218,193.008C116.126,193.008 119.269,196.287 119.269,200.365C119.269,204.443 116.126,207.722 112.218,207.722C108.311,207.722 105.168,204.443 105.168,200.365Z" style="fill:rgb(137,219,135);fill-rule:nonzero;"/>
            <path d="M133.361,200.365C133.361,196.287 136.504,193.008 140.412,193.008C144.319,193.008 147.462,196.287 147.462,200.365C147.462,204.443 144.319,207.722 140.412,207.722C136.504,207.722 133.361,204.443 133.361,200.365Z" style="fill:rgb(137,219,135);fill-rule:nonzero;"/>
            <path d="M161.65,200.365C161.65,196.287 164.793,193.008 168.701,193.008C172.608,193.008 175.751,196.287 175.751,200.365C175.751,204.443 172.608,207.722 168.701,207.722C164.793,207.722 161.65,204.443 161.65,200.365Z" style="fill:rgb(137,219,135);fill-rule:nonzero;"/>
            <path d="M189.857,200.365C189.857,196.287 193,193.008 196.908,193.008C200.815,193.008 203.958,196.287 203.958,200.365C203.958,204.443 200.815,207.722 196.908,207.722C193,207.722 189.857,204.443 189.857,200.365Z" style="fill:rgb(137,219,135);fill-rule:nonzero;"/>
            <path d="M218.062,200.365C218.062,196.287 221.205,193.008 225.112,193.008C229.02,193.008 232.163,196.287 232.163,200.365C232.163,204.443 229.02,207.722 225.112,207.722C221.205,207.722 218.062,204.443 218.062,200.365Z" style="fill:rgb(137,219,135);fill-rule:nonzero;"/>
            <path d="M91.236,219.334C91.236,215.256 94.379,211.977 98.286,211.977C102.194,211.977 105.337,215.256 105.337,219.334C105.337,223.412 102.194,226.691 98.286,226.691C94.379,226.691 91.236,223.412 91.236,219.334Z" style="fill:rgb(137,219,135);fill-rule:nonzero;"/>
            <path d="M119.436,219.334C119.436,215.256 122.578,211.977 126.485,211.977C130.393,211.977 133.536,215.256 133.536,219.334C133.536,223.412 130.393,226.691 126.485,226.691C122.578,226.691 119.436,223.412 119.436,219.334Z" style="fill:rgb(137,219,135);fill-rule:nonzero;"/>
            <path d="M147.643,219.334C147.643,215.256 150.786,211.977 154.693,211.977C158.6,211.977 161.744,215.256 161.744,219.334C161.744,223.412 158.6,226.691 154.693,226.691C150.786,226.691 147.643,223.412 147.643,219.334Z" style="fill:rgb(137,219,135);fill-rule:nonzero;"/>
            <path d="M175.838,219.334C175.838,215.256 178.981,211.977 182.888,211.977C186.796,211.977 189.939,215.256 189.939,219.334C189.939,223.412 186.796,226.691 182.888,226.691C178.981,226.691 175.838,223.412 175.838,219.334Z" style="fill:rgb(137,219,135);fill-rule:nonzero;"/>
            <path d="M204.043,219.334C204.043,215.256 207.186,211.977 211.093,211.977C215.001,211.977 218.144,215.256 218.144,219.334C218.144,223.412 215.001,226.691 211.093,226.691C207.186,226.691 204.043,223.412 204.043,219.334Z" style="fill:rgb(137,219,135);fill-rule:nonzero;"/>
            <path d="M105.168,239.634C105.168,235.557 108.311,232.277 112.218,232.277C116.126,232.277 119.269,235.557 119.269,239.634C119.269,243.712 116.126,246.992 112.218,246.992C108.311,246.992 105.168,243.712 105.168,239.634Z" style="fill:rgb(137,219,135);fill-rule:nonzero;"/>
            <path d="M133.361,239.634C133.361,235.557 136.504,232.277 140.412,232.277C144.319,232.277 147.462,235.557 147.462,239.634C147.462,243.712 144.319,246.992 140.412,246.992C136.504,246.992 133.361,243.712 133.361,239.634Z" style="fill:rgb(137,219,135);fill-rule:nonzero;"/>
            <path d="M161.65,239.634C161.65,235.557 164.793,232.277 168.701,232.277C172.608,232.277 175.751,235.557 175.751,239.634C175.751,243.712 172.608,246.992 168.701,246.992C164.793,246.992 161.65,243.712 161.65,239.634Z" style="fill:rgb(137,219,135);fill-rule:nonzero;"/>
            <path d="M189.857,239.634C189.857,235.557 193,232.277 196.908,232.277C200.815,232.277 203.958,235.557 203.958,239.634C203.958,243.712 200.815,246.992 196.908,246.992C193,246.992 189.857,243.712 189.857,239.634Z" style="fill:rgb(137,219,135);fill-rule:nonzero;"/>
            <path d="M218.062,239.634C218.062,235.557 221.205,232.277 225.112,232.277C229.02,232.277 232.163,235.557 232.163,239.634C232.163,243.712 229.02,246.992 225.112,246.992C221.205,246.992 218.062,243.712 218.062,239.634Z" style="fill:rgb(137,219,135);fill-rule:nonzero;"/>
            <path d="M91.236,258.515C91.236,254.438 94.379,251.158 98.286,251.158C102.194,251.158 105.337,254.438 105.337,258.515C105.337,262.593 102.194,265.873 98.286,265.873C94.379,265.873 91.236,262.593 91.236,258.515Z" style="fill:rgb(137,219,135);fill-rule:nonzero;"/>
            <path d="M119.436,258.515C119.436,254.438 122.578,251.158 126.485,251.158C130.393,251.158 133.536,254.438 133.536,258.515C133.536,262.593 130.393,265.873 126.485,265.873C122.578,265.873 119.436,262.593 119.436,258.515Z" style="fill:rgb(137,219,135);fill-rule:nonzero;"/>
            <path d="M147.643,258.515C147.643,254.438 150.786,251.158 154.693,251.158C158.6,251.158 161.744,254.438 161.744,258.515C161.744,262.593 158.6,265.873 154.693,265.873C150.786,265.873 147.643,262.593 147.643,258.515Z" style="fill:rgb(137,219,135);fill-rule:nonzero;"/>
            <path d="M175.838,258.515C175.838,254.438 178.981,251.158 182.888,251.158C186.796,251.158 189.939,254.438 189.939,258.515C189.939,262.593 186.796,265.873 182.888,265.873C178.981,265.873 175.838,262.593 175.838,258.515Z" style="fill:rgb(137,219,135);fill-rule:nonzero;"/>
            <path d="M204.043,258.515C204.043,254.438 207.186,251.158 211.093,251.158C215.001,251.158 218.144,254.438 218.144,258.515C218.144,262.593 215.001,265.873 211.093,265.873C207.186,265.873 204.043,262.593 204.043,258.515Z" style="fill:rgb(137,219,135);fill-rule:nonzero;"/>
            <path d="M105.168,278.815C105.168,274.737 108.311,271.457 112.218,271.457C116.126,271.457 119.269,274.737 119.269,278.815C119.269,282.892 116.126,286.172 112.218,286.172C108.311,286.172 105.168,282.892 105.168,278.815Z" style="fill:rgb(137,219,135);fill-rule:nonzero;"/>
            <path d="M133.361,278.815C133.361,274.737 136.504,271.457 140.412,271.457C144.319,271.457 147.462,274.737 147.462,278.815C147.462,282.892 144.319,286.172 140.412,286.172C136.504,286.172 133.361,282.892 133.361,278.815Z" style="fill:rgb(137,219,135);fill-rule:nonzero;"/>
            <path d="M161.65,278.815C161.65,274.737 164.793,271.457 168.701,271.457C172.608,271.457 175.751,274.737 175.751,278.815C175.751,282.892 172.608,286.172 168.701,286.172C164.793,286.172 161.65,282.892 161.65,278.815Z" style="fill:rgb(137,219,135);fill-rule:nonzero;"/>
            <path d="M189.857,278.815C189.857,274.737 193,271.457 196.908,271.457C200.815,271.457 203.958,274.737 203.958,278.815C203.958,282.892 200.815,286.172 196.908,286.172C193,286.172 189.857,282.892 189.857,278.815Z" style="fill:rgb(137,219,135);fill-rule:nonzero;"/>
            <path d="M218.062,278.815C218.062,274.737 221.205,271.457 225.112,271.457C229.02,271.457 232.163,274.737 232.163,278.815C232.163,282.892 229.02,286.172 225.112,286.172C221.205,286.172 218.062,282.892 218.062,278.815Z" style="fill:rgb(137,219,135);fill-rule:nonzero;"/>
            <path d="M91.236,297.696C91.236,293.618 94.379,290.338 98.286,290.338C102.194,290.338 105.337,293.618 105.337,297.696C105.337,301.773 102.194,305.053 98.286,305.053C94.379,305.053 91.236,301.773 91.236,297.696Z" style="fill:rgb(137,219,135);fill-rule:nonzero;"/>
            <path d="M119.436,297.696C119.436,293.618 122.578,290.338 126.485,290.338C130.393,290.338 133.536,293.618 133.536,297.696C133.536,301.773 130.393,305.053 126.485,305.053C122.578,305.053 119.436,301.773 119.436,297.696Z" style="fill:rgb(137,219,135);fill-rule:nonzero;"/>
            <path d="M147.643,297.696C147.643,293.618 150.786,290.338 154.693,290.338C158.6,290.338 161.744,293.618 161.744,297.696C161.744,301.773 158.6,305.053 154.693,305.053C150.786,305.053 147.643,301.773 147.643,297.696Z" style="fill:rgb(137,219,135);fill-rule:nonzero;"/>
            <path d="M182.888,305.053C186.782,305.053 189.939,301.759 189.939,297.696C189.939,293.632 186.782,290.338 182.888,290.338C178.995,290.338 175.838,293.632 175.838,297.696C175.838,301.759 178.995,305.053 182.888,305.053Z" style="fill:rgb(137,219,135);fill-rule:nonzero;"/>
            <path d="M204.043,297.696C204.043,293.618 207.186,290.338 211.093,290.338C215.001,290.338 218.144,293.618 218.144,297.696C218.144,301.773 215.001,305.053 211.093,305.053C207.186,305.053 204.043,301.773 204.043,297.696Z" style="fill:rgb(137,219,135);fill-rule:nonzero;"/>
            <path d="M105.168,317.995C105.168,313.917 108.311,310.637 112.218,310.637C116.126,310.637 119.269,313.917 119.269,317.995C119.269,322.072 116.126,325.352 112.218,325.352C108.311,325.352 105.168,322.072 105.168,317.995Z" style="fill:rgb(137,219,135);fill-rule:nonzero;"/>
            <path d="M133.361,317.995C133.361,313.917 136.504,310.637 140.412,310.637C144.319,310.637 147.462,313.917 147.462,317.995C147.462,322.072 144.319,325.352 140.412,325.352C136.504,325.352 133.361,322.072 133.361,317.995Z" style="fill:rgb(137,219,135);fill-rule:nonzero;"/>
            <path d="M161.65,317.995C161.65,313.917 164.793,310.637 168.701,310.637C172.608,310.637 175.751,313.917 175.751,317.995C175.751,322.072 172.608,325.352 168.701,325.352C164.793,325.352 161.65,322.072 161.65,317.995Z" style="fill:rgb(137,219,135);fill-rule:nonzero;"/>
            <path d="M189.857,317.995C189.857,313.917 193,310.637 196.908,310.637C200.815,310.637 203.958,313.917 203.958,317.995C203.958,322.072 200.815,325.352 196.908,325.352C193,325.352 189.857,322.072 189.857,317.995Z" style="fill:rgb(137,219,135);fill-rule:nonzero;"/>
            <path d="M218.062,317.995C218.062,313.917 221.205,310.637 225.112,310.637C229.02,310.637 232.163,313.917 232.163,317.995C232.163,322.072 229.02,325.352 225.112,325.352C221.205,325.352 218.062,322.072 218.062,317.995Z" style="fill:rgb(137,219,135);fill-rule:nonzero;"/>
            <path d="M91.236,336.964C91.236,332.886 94.379,329.606 98.286,329.606C102.194,329.606 105.337,332.886 105.337,336.964C105.337,341.041 102.194,344.321 98.286,344.321C94.379,344.321 91.236,341.041 91.236,336.964Z" style="fill:rgb(137,219,135);fill-rule:nonzero;"/>
            <path d="M119.436,336.964C119.436,332.886 122.578,329.606 126.485,329.606C130.393,329.606 133.536,332.886 133.536,336.964C133.536,341.041 130.393,344.321 126.485,344.321C122.578,344.321 119.436,341.041 119.436,336.964Z" style="fill:rgb(137,219,135);fill-rule:nonzero;"/>
            <path d="M147.643,336.964C147.643,332.886 150.786,329.606 154.693,329.606C158.6,329.606 161.744,332.886 161.744,336.964C161.744,341.041 158.6,344.321 154.693,344.321C150.786,344.321 147.643,341.041 147.643,336.964Z" style="fill:rgb(137,219,135);fill-rule:nonzero;"/>
            <path d="M175.838,336.964C175.838,332.886 178.981,329.606 182.888,329.606C186.796,329.606 189.939,332.886 189.939,336.964C189.939,341.041 186.796,344.321 182.888,344.321C178.981,344.321 175.838,341.041 175.838,336.964Z" style="fill:rgb(137,219,135);fill-rule:nonzero;"/>
            <path d="M204.043,336.964C204.043,332.886 207.186,329.606 211.093,329.606C215.001,329.606 218.144,332.886 218.144,336.964C218.144,341.041 215.001,344.321 211.093,344.321C207.186,344.321 204.043,341.041 204.043,336.964Z" style="fill:rgb(137,219,135);fill-rule:nonzero;"/>
            <path d="M105.168,357.175C105.168,353.097 108.311,349.818 112.218,349.818C116.126,349.818 119.269,353.097 119.269,357.175C119.269,361.253 116.126,364.532 112.218,364.532C108.311,364.532 105.168,361.253 105.168,357.175Z" style="fill:rgb(137,219,135);fill-rule:nonzero;"/>
            <path d="M133.361,357.175C133.361,353.097 136.504,349.818 140.412,349.818C144.319,349.818 147.462,353.097 147.462,357.175C147.462,361.253 144.319,364.532 140.412,364.532C136.504,364.532 133.361,361.253 133.361,357.175Z" style="fill:rgb(137,219,135);fill-rule:nonzero;"/>
            <path d="M161.65,357.175C161.65,353.097 164.793,349.818 168.701,349.818C172.608,349.818 175.751,353.097 175.751,357.175C175.751,361.253 172.608,364.532 168.701,364.532C164.793,364.532 161.65,361.253 161.65,357.175Z" style="fill:rgb(137,219,135);fill-rule:nonzero;"/>
            <path d="M189.857,357.175C189.857,353.097 193,349.818 196.908,349.818C200.815,349.818 203.958,353.097 203.958,357.175C203.958,361.253 200.815,364.532 196.908,364.532C193,364.532 189.857,361.253 189.857,357.175Z" style="fill:rgb(137,219,135);fill-rule:nonzero;"/>
            <path d="M218.062,357.175C218.062,353.097 221.205,349.818 225.112,349.818C229.02,349.818 232.163,353.097 232.163,357.175C232.163,361.253 229.02,364.532 225.112,364.532C221.205,364.532 218.062,361.253 218.062,357.175Z" style="fill:rgb(137,219,135);fill-rule:nonzero;"/>
            <path d="M91.236,376.144C91.236,372.066 94.379,368.786 98.286,368.786C102.194,368.786 105.337,372.066 105.337,376.144C105.337,380.221 102.194,383.501 98.286,383.501C94.379,383.501 91.236,380.221 91.236,376.144Z" style="fill:rgb(137,219,135);fill-rule:nonzero;"/>
            <path d="M119.436,376.144C119.436,372.066 122.578,368.786 126.485,368.786C130.393,368.786 133.536,372.066 133.536,376.144C133.536,380.221 130.393,383.501 126.485,383.501C122.578,383.501 119.436,380.221 119.436,376.144Z" style="fill:rgb(137,219,135);fill-rule:nonzero;"/>
            <path d="M147.643,376.144C147.643,372.066 150.786,368.786 154.693,368.786C158.6,368.786 161.744,372.066 161.744,376.144C161.744,380.221 158.6,383.501 154.693,383.501C150.786,383.501 147.643,380.221 147.643,376.144Z" style="fill:rgb(137,219,135);fill-rule:nonzero;"/>
            <path d="M175.838,376.144C175.838,372.066 178.981,368.786 182.888,368.786C186.796,368.786 189.939,372.066 189.939,376.144C189.939,380.221 186.796,383.501 182.888,383.501C178.981,383.501 175.838,380.221 175.838,376.144Z" style="fill:rgb(137,219,135);fill-rule:nonzero;"/>
            <path d="M204.043,376.144C204.043,372.066 207.186,368.786 211.093,368.786C215.001,368.786 218.144,372.066 218.144,376.144C218.144,380.221 215.001,383.501 211.093,383.501C207.186,383.501 204.043,380.221 204.043,376.144Z" style="fill:rgb(137,219,135);fill-rule:nonzero;"/>
            <path d="M105.168,396.445C105.168,392.367 108.311,389.087 112.218,389.087C116.126,389.087 119.269,392.367 119.269,396.445C119.269,400.522 116.126,403.802 112.218,403.802C108.311,403.802 105.168,400.522 105.168,396.445Z" style="fill:rgb(137,219,135);fill-rule:nonzero;"/>
            <path d="M133.361,396.445C133.361,392.367 136.504,389.087 140.412,389.087C144.319,389.087 147.462,392.367 147.462,396.445C147.462,400.522 144.319,403.802 140.412,403.802C136.504,403.802 133.361,400.522 133.361,396.445Z" style="fill:rgb(137,219,135);fill-rule:nonzero;"/>
            <path d="M161.65,396.445C161.65,392.367 164.793,389.087 168.701,389.087C172.608,389.087 175.751,392.367 175.751,396.445C175.751,400.522 172.608,403.802 168.701,403.802C164.793,403.802 161.65,400.522 161.65,396.445Z" style="fill:rgb(137,219,135);fill-rule:nonzero;"/>
            <path d="M189.857,396.445C189.857,392.367 193,389.087 196.908,389.087C200.815,389.087 203.958,392.367 203.958,396.445C203.958,400.522 200.815,403.802 196.908,403.802C193,403.802 189.857,400.522 189.857,396.445Z" style="fill:rgb(137,219,135);fill-rule:nonzero;"/>
            <path d="M218.062,396.445C218.062,392.367 221.205,389.087 225.112,389.087C229.02,389.087 232.163,392.367 232.163,396.445C232.163,400.522 229.02,403.802 225.112,403.802C221.205,403.802 218.062,400.522 218.062,396.445Z" style="fill:rgb(137,219,135);fill-rule:nonzero;"/>
            <path d="M91.236,415.325C91.236,411.248 94.379,407.968 98.286,407.968C102.194,407.968 105.337,411.248 105.337,415.325C105.337,419.403 102.194,422.683 98.286,422.683C94.379,422.683 91.236,419.403 91.236,415.325Z" style="fill:rgb(137,219,135);fill-rule:nonzero;"/>
            <path d="M119.436,415.325C119.436,411.248 122.578,407.968 126.485,407.968C130.393,407.968 133.536,411.248 133.536,415.325C133.536,419.403 130.393,422.683 126.485,422.683C122.578,422.683 119.436,419.403 119.436,415.325Z" style="fill:rgb(137,219,135);fill-rule:nonzero;"/>
            <path d="M147.643,415.325C147.643,411.248 150.786,407.968 154.693,407.968C158.6,407.968 161.744,411.248 161.744,415.325C161.744,419.403 158.6,422.683 154.693,422.683C150.786,422.683 147.643,419.403 147.643,415.325Z" style="fill:rgb(137,219,135);fill-rule:nonzero;"/>
            <path d="M175.838,415.325C175.838,411.248 178.981,407.968 182.888,407.968C186.796,407.968 189.939,411.248 189.939,415.325C189.939,419.403 186.796,422.683 182.888,422.683C178.981,422.683 175.838,419.403 175.838,415.325Z" style="fill:rgb(137,219,135);fill-rule:nonzero;"/>
            <path d="M204.043,415.325C204.043,411.248 207.186,407.968 211.093,407.968C215.001,407.968 218.144,411.248 218.144,415.325C218.144,419.403 215.001,422.683 211.093,422.683C207.186,422.683 204.043,419.403 204.043,415.325Z" style="fill:rgb(137,219,135);fill-rule:nonzero;"/>
            <path d="M105.168,435.625C105.168,431.547 108.311,428.268 112.218,428.268C116.126,428.268 119.269,431.547 119.269,435.625C119.269,439.702 116.126,442.982 112.218,442.982C108.311,442.982 105.168,439.702 105.168,435.625Z" style="fill:rgb(137,219,135);fill-rule:nonzero;"/>
            <path d="M133.361,435.625C133.361,431.547 136.504,428.268 140.412,428.268C144.319,428.268 147.462,431.547 147.462,435.625C147.462,439.702 144.319,442.982 140.412,442.982C136.504,442.982 133.361,439.702 133.361,435.625Z" style="fill:rgb(137,219,135);fill-rule:nonzero;"/>
            <path d="M161.65,435.625C161.65,431.547 164.793,428.268 168.701,428.268C172.608,428.268 175.751,431.547 175.751,435.625C175.751,439.702 172.608,442.982 168.701,442.982C164.793,442.982 161.65,439.702 161.65,435.625Z" style="fill:rgb(137,219,135);fill-rule:nonzero;"/>
            <path d="M189.857,435.625C189.857,431.547 193,428.268 196.908,428.268C200.815,428.268 203.958,431.547 203.958,435.625C203.958,439.702 200.815,442.982 196.908,442.982C193,442.982 189.857,439.702 189.857,435.625Z" style="fill:rgb(137,219,135);fill-rule:nonzero;"/>
            <path d="M218.062,435.625C218.062,431.547 221.205,428.268 225.112,428.268C229.02,428.268 232.163,431.547 232.163,435.625C232.163,439.702 229.02,442.982 225.112,442.982C221.205,442.982 218.062,439.702 218.062,435.625Z" style="fill:rgb(137,219,135);fill-rule:nonzero;"/>
            <path d="M91.236,454.506C91.236,450.428 94.379,447.148 98.286,447.148C102.194,447.148 105.337,450.428 105.337,454.506C105.337,458.583 102.194,461.863 98.286,461.863C94.379,461.863 91.236,458.583 91.236,454.506Z" style="fill:rgb(137,219,135);fill-rule:nonzero;"/>
            <path d="M119.436,454.506C119.436,450.428 122.578,447.148 126.485,447.148C130.393,447.148 133.536,450.428 133.536,454.506C133.536,458.583 130.393,461.863 126.485,461.863C122.578,461.863 119.436,458.583 119.436,454.506Z" style="fill:rgb(137,219,135);fill-rule:nonzero;"/>
            <path d="M147.643,454.506C147.643,450.428 150.786,447.148 154.693,447.148C158.6,447.148 161.744,450.428 161.744,454.506C161.744,458.583 158.6,461.863 154.693,461.863C150.786,461.863 147.643,458.583 147.643,454.506Z" style="fill:rgb(137,219,135);fill-rule:nonzero;"/>
            <path d="M175.838,454.506C175.838,450.428 178.981,447.148 182.888,447.148C186.796,447.148 189.939,450.428 189.939,454.506C189.939,458.583 186.796,461.863 182.888,461.863C178.981,461.863 175.838,458.583 175.838,454.506Z" style="fill:rgb(137,219,135);fill-rule:nonzero;"/>
            <path d="M204.043,454.506C204.043,450.428 207.186,447.148 211.093,447.148C215.001,447.148 218.144,450.428 218.144,454.506C218.144,458.583 215.001,461.863 211.093,461.863C207.186,461.863 204.043,458.583 204.043,454.506Z" style="fill:rgb(137,219,135);fill-rule:nonzero;"/>
            <path d="M105.168,474.805C105.168,470.727 108.311,467.447 112.218,467.447C116.126,467.447 119.269,470.727 119.269,474.805C119.269,478.882 116.126,482.162 112.218,482.162C108.311,482.162 105.168,478.882 105.168,474.805Z" style="fill:rgb(137,219,135);fill-rule:nonzero;"/>
            <path d="M133.361,474.805C133.361,470.727 136.504,467.447 140.412,467.447C144.319,467.447 147.462,470.727 147.462,474.805C147.462,478.882 144.319,482.162 140.412,482.162C136.504,482.162 133.361,478.882 133.361,474.805Z" style="fill:rgb(137,219,135);fill-rule:nonzero;"/>
            <path d="M161.65,474.805C161.65,470.727 164.793,467.447 168.701,467.447C172.608,467.447 175.751,470.727 175.751,474.805C175.751,478.882 172.608,482.162 168.701,482.162C164.793,482.162 161.65,478.882 161.65,474.805Z" style="fill:rgb(137,219,135);fill-rule:nonzero;"/>
            <path d="M189.857,474.805C189.857,470.727 193,467.447 196.908,467.447C200.815,467.447 203.958,470.727 203.958,474.805C203.958,478.882 200.815,482.162 196.908,482.162C193,482.162 189.857,478.882 189.857,474.805Z" style="fill:rgb(137,219,135);fill-rule:nonzero;"/>
            <path d="M218.062,474.805C218.062,470.727 221.205,467.447 225.112,467.447C229.02,467.447 232.163,470.727 232.163,474.805C232.163,478.882 229.02,482.162 225.112,482.162C221.205,482.162 218.062,478.882 218.062,474.805Z" style="fill:rgb(137,219,135);fill-rule:nonzero;"/>
            <path d="M91.236,493.774C91.236,489.696 94.379,486.416 98.286,486.416C102.194,486.416 105.337,489.696 105.337,493.774C105.337,497.851 102.194,501.131 98.286,501.131C94.379,501.131 91.236,497.851 91.236,493.774Z" style="fill:rgb(137,219,135);fill-rule:nonzero;"/>
            <path d="M119.436,493.774C119.436,489.696 122.578,486.416 126.485,486.416C130.393,486.416 133.536,489.696 133.536,493.774C133.536,497.851 130.393,501.131 126.485,501.131C122.578,501.131 119.436,497.851 119.436,493.774Z" style="fill:rgb(137,219,135);fill-rule:nonzero;"/>
            <path d="M147.643,493.774C147.643,489.696 150.786,486.416 154.693,486.416C158.6,486.416 161.744,489.696 161.744,493.774C161.744,497.851 158.6,501.131 154.693,501.131C150.786,501.131 147.643,497.851 147.643,493.774Z" style="fill:rgb(137,219,135);fill-rule:nonzero;"/>
            <path d="M175.838,493.774C175.838,489.696 178.981,486.416 182.888,486.416C186.796,486.416 189.939,489.696 189.939,493.774C189.939,497.851 186.796,501.131 182.888,501.131C178.981,501.131 175.838,497.851 175.838,493.774Z" style="fill:rgb(137,219,135);fill-rule:nonzero;"/>
            <path d="M204.043,493.774C204.043,489.696 207.186,486.416 211.093,486.416C215.001,486.416 218.144,489.696 218.144,493.774C218.144,497.851 215.001,501.131 211.093,501.131C207.186,501.131 204.043,497.851 204.043,493.774Z" style="fill:rgb(137,219,135);fill-rule:nonzero;"/>
            <path d="M105.168,513.985C105.168,509.907 108.311,506.628 112.218,506.628C116.126,506.628 119.269,509.907 119.269,513.985C119.269,518.063 116.126,521.342 112.218,521.342C108.311,521.342 105.168,518.063 105.168,513.985Z" style="fill:rgb(137,219,135);fill-rule:nonzero;"/>
            <path d="M133.361,513.985C133.361,509.907 136.504,506.628 140.412,506.628C144.319,506.628 147.462,509.907 147.462,513.985C147.462,518.063 144.319,521.342 140.412,521.342C136.504,521.342 133.361,518.063 133.361,513.985Z" style="fill:rgb(137,219,135);fill-rule:nonzero;"/>
            <path d="M161.65,513.985C161.65,509.907 164.793,506.628 168.701,506.628C172.608,506.628 175.751,509.907 175.751,513.985C175.751,518.063 172.608,521.342 168.701,521.342C164.793,521.342 161.65,518.063 161.65,513.985Z" style="fill:rgb(137,219,135);fill-rule:nonzero;"/>
            <path d="M189.857,513.985C189.857,509.907 193,506.628 196.908,506.628C200.815,506.628 203.958,509.907 203.958,513.985C203.958,518.063 200.815,521.342 196.908,521.342C193,521.342 189.857,518.063 189.857,513.985Z" style="fill:rgb(137,219,135);fill-rule:nonzero;"/>
            <path d="M218.062,513.985C218.062,509.907 221.205,506.628 225.112,506.628C229.02,506.628 232.163,509.907 232.163,513.985C232.163,518.063 229.02,521.342 225.112,521.342C221.205,521.342 218.062,518.063 218.062,513.985Z" style="fill:rgb(137,219,135);fill-rule:nonzero;"/>
            <path d="M91.236,532.954C91.236,528.876 94.379,525.597 98.286,525.597C102.194,525.597 105.337,528.876 105.337,532.954C105.337,537.032 102.194,540.311 98.286,540.311C94.379,540.311 91.236,537.032 91.236,532.954Z" style="fill:rgb(137,219,135);fill-rule:nonzero;"/>
            <path d="M119.436,532.954C119.436,528.876 122.578,525.597 126.485,525.597C130.393,525.597 133.536,528.876 133.536,532.954C133.536,537.032 130.393,540.311 126.485,540.311C122.578,540.311 119.436,537.032 119.436,532.954Z" style="fill:rgb(137,219,135);fill-rule:nonzero;"/>
            <path d="M147.643,532.954C147.643,528.876 150.786,525.597 154.693,525.597C158.6,525.597 161.744,528.876 161.744,532.954C161.744,537.032 158.6,540.311 154.693,540.311C150.786,540.311 147.643,537.032 147.643,532.954Z" style="fill:rgb(137,219,135);fill-rule:nonzero;"/>
            <path d="M175.838,532.954C175.838,528.876 178.981,525.597 182.888,525.597C186.796,525.597 189.939,528.876 189.939,532.954C189.939,537.032 186.796,540.311 182.888,540.311C178.981,540.311 175.838,537.032 175.838,532.954Z" style="fill:rgb(137,219,135);fill-rule:nonzero;"/>
            <path d="M204.043,532.954C204.043,528.876 207.186,525.597 211.093,525.597C215.001,525.597 218.144,528.876 218.144,532.954C218.144,537.032 215.001,540.311 211.093,540.311C207.186,540.311 204.043,537.032 204.043,532.954Z" style="fill:rgb(137,219,135);fill-rule:nonzero;"/>
            <path d="M112.218,560.523C116.112,560.523 119.269,557.229 119.269,553.166C119.269,549.102 116.112,545.808 112.218,545.808C108.325,545.808 105.168,549.102 105.168,553.166C105.168,557.229 108.325,560.523 112.218,560.523Z" style="fill:rgb(137,219,135);fill-rule:nonzero;"/>
            <path d="M133.361,553.166C133.361,549.088 136.504,545.808 140.412,545.808C144.319,545.808 147.462,549.088 147.462,553.166C147.462,557.243 144.319,560.523 140.412,560.523C136.504,560.523 133.361,557.243 133.361,553.166Z" style="fill:rgb(137,219,135);fill-rule:nonzero;"/>
            <path d="M161.65,553.166C161.65,549.088 164.793,545.808 168.701,545.808C172.608,545.808 175.751,549.088 175.751,553.166C175.751,557.243 172.608,560.523 168.701,560.523C164.793,560.523 161.65,557.243 161.65,553.166Z" style="fill:rgb(137,219,135);fill-rule:nonzero;"/>
            <path d="M189.857,553.166C189.857,549.088 193,545.808 196.908,545.808C200.815,545.808 203.958,549.088 203.958,553.166C203.958,557.243 200.815,560.523 196.908,560.523C193,560.523 189.857,557.243 189.857,553.166Z" style="fill:rgb(137,219,135);fill-rule:nonzero;"/>
            <path d="M218.062,553.166C218.062,549.088 221.205,545.808 225.112,545.808C229.02,545.808 232.163,549.088 232.163,553.166C232.163,557.243 229.02,560.523 225.112,560.523C221.205,560.523 218.062,557.243 218.062,553.166Z" style="fill:rgb(137,219,135);fill-rule:nonzero;"/>
            <path d="M91.236,572.135C91.236,568.057 94.379,564.777 98.286,564.777C102.194,564.777 105.337,568.057 105.337,572.135C105.337,576.212 102.194,579.492 98.286,579.492C94.379,579.492 91.236,576.212 91.236,572.135Z" style="fill:rgb(137,219,135);fill-rule:nonzero;"/>
            <path d="M119.436,572.135C119.436,568.057 122.578,564.777 126.485,564.777C130.393,564.777 133.536,568.057 133.536,572.135C133.536,576.212 130.393,579.492 126.485,579.492C122.578,579.492 119.436,576.212 119.436,572.135Z" style="fill:rgb(137,219,135);fill-rule:nonzero;"/>
            <path d="M147.643,572.135C147.643,568.057 150.786,564.777 154.693,564.777C158.6,564.777 161.744,568.057 161.744,572.135C161.744,576.212 158.6,579.492 154.693,579.492C150.786,579.492 147.643,576.212 147.643,572.135Z" style="fill:rgb(137,219,135);fill-rule:nonzero;"/>
            <path d="M175.838,572.135C175.838,568.057 178.981,564.777 182.888,564.777C186.796,564.777 189.939,568.057 189.939,572.135C189.939,576.212 186.796,579.492 182.888,579.492C178.981,579.492 175.838,576.212 175.838,572.135Z" style="fill:rgb(137,219,135);fill-rule:nonzero;"/>
            <path d="M204.043,572.135C204.043,568.057 207.186,564.777 211.093,564.777C215.001,564.777 218.144,568.057 218.144,572.135C218.144,576.212 215.001,579.492 211.093,579.492C207.186,579.492 204.043,576.212 204.043,572.135Z" style="fill:rgb(137,219,135);fill-rule:nonzero;"/>
        </g>
    </g>
</svg>
