<svg width="244" height="215" viewBox="0 0 244 215" fill="none" xmlns="http://www.w3.org/2000/svg">
<g id="Blob">
<path d="M141.186 8.41733C179.743 24.9729 209.822 48.1847 231.423 78.0529C253.024 107.921 245.602 132.978 209.155 153.223C172.708 173.467 129.428 191.818 79.3166 208.275C29.2049 224.732 2.90394 209.507 0.413725 162.601C-2.07649 115.695 11.124 74.1322 40.0152 37.9129C68.9064 1.69365 102.63 -8.13821 141.186 8.41733Z" fill="#A154F2"/>
<path d="M141.186 8.41733C179.743 24.9729 209.822 48.1847 231.423 78.0529C253.024 107.921 245.602 132.978 209.155 153.223C172.708 173.467 129.428 191.818 79.3166 208.275C29.2049 224.732 2.90394 209.507 0.413725 162.601C-2.07649 115.695 11.124 74.1322 40.0152 37.9129C68.9064 1.69365 102.63 -8.13821 141.186 8.41733Z" fill="url(#paint0_linear_5401_2509)"/>
</g>
<defs>
<linearGradient id="paint0_linear_5401_2509" x1="284.114" y1="23.2166" x2="-177.105" y2="108.014" gradientUnits="userSpaceOnUse">
<stop offset="0.15" stop-color="#FF7B87"/>
<stop offset="1" stop-color="white"/>
</linearGradient>
</defs>
</svg>
