<?xml version="1.0" encoding="UTF-8" standalone="no"?>
<!DOCTYPE svg PUBLIC "-//W3C//DTD SVG 1.1//EN" "http://www.w3.org/Graphics/SVG/1.1/DTD/svg11.dtd">
<svg width="100%" height="100%" viewBox="0 0 139 120" version="1.1" xmlns="http://www.w3.org/2000/svg" xmlns:xlink="http://www.w3.org/1999/xlink" xml:space="preserve" xmlns:serif="http://www.serif.com/" style="fill-rule:evenodd;clip-rule:evenodd;stroke-linecap:round;">
    <g transform="matrix(1,0,0,1,-166.339,-1.91011)">
        <path d="M199.334,110.714C178.123,97.476 167.138,79.065 166.379,55.48C165.621,31.895 175.633,16.214 196.417,8.438C217.201,0.662 238.698,-0.167 260.908,5.95C283.117,12.068 297.095,28.852 302.841,56.303C308.587,83.754 298.075,102.995 271.305,114.026C244.535,125.056 220.544,123.953 199.334,110.714Z" style="fill:url(#_Linear1);fill-rule:nonzero;"/>
        <path d="M238.5,44.733L253.793,60.026C254.183,60.417 254.183,61.05 253.793,61.441L238.5,76.733" style="fill:none;fill-rule:nonzero;stroke:black;stroke-width:4px;"/>
        <path d="M251,60.733L219,60.733" style="fill:none;fill-rule:nonzero;stroke:black;stroke-width:4px;"/>
    </g>
    <defs>
        <linearGradient id="_Linear1" x1="0" y1="0" x2="1" y2="0" gradientUnits="userSpaceOnUse" gradientTransform="matrix(152.419,37.2916,-37.2916,152.419,88.5,92.2334)"><stop offset="0" style="stop-color:rgb(88,250,255);stop-opacity:1"/><stop offset="0.31" style="stop-color:rgb(88,250,255);stop-opacity:1"/><stop offset="1" style="stop-color:rgb(178,253,255);stop-opacity:1"/></linearGradient>
    </defs>
</svg>
