<svg width="376" height="179" viewBox="0 0 376 179" fill="none" xmlns="http://www.w3.org/2000/svg">
<g clip-path="url(#clip0_5567_118912)">
<path d="M10.9 118.864C8.19499 116.254 6.84669 112.742 6.8454 108.33L15.8896 108.902C15.9342 110.67 16.5353 112.058 17.6952 113.075C18.855 114.093 20.5258 114.668 22.7293 114.807C24.8067 114.935 26.4488 114.663 27.6508 113.973C28.8551 113.293 29.4973 112.285 29.582 110.969C29.667 109.611 29.1264 108.517 27.9576 107.677C26.7889 106.837 24.7439 106.074 21.8179 105.368C17.2776 104.279 13.8623 102.694 11.5698 100.602C9.27728 98.5096 8.25052 95.6504 8.47745 92.0167C8.64643 89.4254 9.43788 87.1987 10.8541 85.3464C12.2801 83.4917 14.182 82.1191 16.5597 81.2287C18.9374 80.3382 21.6086 79.984 24.5636 80.1684C28.9511 80.4507 32.4577 81.8601 35.088 84.4161C37.7063 86.9647 39.0759 90.266 39.1774 94.3247L30.1332 93.7529C29.9925 92.1411 29.395 90.8963 28.3235 90.0328C27.2617 89.167 25.7648 88.6733 23.8523 88.5468C21.9736 88.4328 20.4747 88.7006 19.3504 89.3719C18.2262 90.0433 17.6257 91.0105 17.5437 92.2952C17.4594 93.5703 17.9717 94.5887 19.0661 95.3336C20.1628 96.0881 22.172 96.7878 25.091 97.4643C29.7476 98.5664 33.2691 100.209 35.6262 102.398C37.9954 104.596 39.0603 107.528 38.8209 111.195C38.6512 113.869 37.8228 116.156 36.3432 118.044C34.8635 119.932 32.8936 121.321 30.4237 122.213C27.9635 123.103 25.2172 123.444 22.1775 123.25C17.3512 122.939 13.5856 121.479 10.8806 118.869L10.9 118.864Z" fill="#FFC700"/>
<path d="M45.9876 82.094L54.563 82.47L53.958 96.2532C55.2166 94.9427 56.7001 93.969 58.4085 93.332C60.1146 92.6853 61.9725 92.4135 63.9679 92.4995C68.0847 92.6823 71.1284 94.0487 73.099 96.5987C75.0697 99.1487 75.9551 102.618 75.7576 107.016L74.9459 125.415L66.3705 125.039L67.1444 107.595C67.2451 105.319 66.7808 103.558 65.7612 102.312C64.732 101.068 63.2245 100.402 61.2268 100.306C58.9502 100.206 57.1091 100.762 55.7156 101.981C54.322 103.201 53.5763 104.933 53.476 107.168L52.7109 124.435L44.1355 124.059L45.9876 82.094Z" fill="#FFC700"/>
<path d="M88.4541 124.276C86.0396 122.79 84.1878 120.777 82.8889 118.24C81.5974 115.691 80.9802 112.867 81.0327 109.749C81.0859 106.548 81.832 103.704 83.2589 101.212C84.6858 98.7192 86.6291 96.7916 89.091 95.4386C91.553 94.0857 94.3069 93.4339 97.3432 93.4857C101.34 93.5534 104.76 94.9013 107.588 97.5125L107.947 94.3408L115.384 94.476L114.81 126.271L107.373 126.136L107.132 122.954C105.707 124.171 104.108 125.09 102.346 125.719C100.575 126.351 98.7117 126.644 96.7498 126.612C93.6312 126.56 90.8634 125.785 88.449 124.298L88.4541 124.276ZM91.992 116.062C93.5465 117.694 95.5569 118.527 98.0353 118.569C100.473 118.61 102.5 117.845 104.108 116.276C105.715 114.707 106.544 112.677 106.586 110.198C106.627 107.72 105.877 105.668 104.323 104.037C102.768 102.405 100.777 101.567 98.34 101.525C95.8616 101.484 93.8124 102.244 92.2047 103.813C90.597 105.382 89.7685 107.412 89.7267 109.89C89.6848 112.369 90.4351 114.42 91.9896 116.052L91.992 116.062Z" fill="#FFC700"/>
<path d="M147.575 92.3731L136.482 92.0059L136.766 83.432L168.125 84.4605L167.841 93.0343L156.687 92.6714L155.594 126.072L146.482 125.774L147.575 92.3731Z" fill="#FFC700"/>
<path d="M175.67 125.175C173.211 123.76 171.301 121.803 169.936 119.292C168.571 116.781 167.867 113.978 167.834 110.849C167.795 107.65 168.454 104.786 169.809 102.25C171.163 99.7127 173.054 97.7361 175.478 96.31C177.901 94.884 180.637 94.1544 183.674 94.1237C187.674 94.0774 191.131 95.3239 194.033 97.8557L194.297 94.6759L201.734 94.5952L202.077 126.396L194.64 126.477L194.307 123.296C192.923 124.555 191.355 125.518 189.595 126.198C187.845 126.876 185.986 127.23 184.026 127.249C180.907 127.279 178.119 126.592 175.66 125.177L175.67 125.175ZM178.966 116.854C180.56 118.435 182.6 119.22 185.081 119.189C187.522 119.158 189.525 118.337 191.083 116.728C192.647 115.108 193.41 113.062 193.389 110.579C193.358 108.097 192.552 106.069 190.958 104.488C189.364 102.907 187.346 102.127 184.903 102.149C182.422 102.179 180.397 102.995 178.842 104.614C177.277 106.234 176.514 108.279 176.535 110.763C176.566 113.245 177.372 115.272 178.966 116.854Z" fill="#FFC700"/>
<path d="M215.278 122.616C212.95 120.419 211.589 117.064 211.185 112.564L209.542 94.2198L218.089 93.4507L219.642 110.778C219.85 113.052 220.513 114.744 221.667 115.865C222.812 116.989 224.345 117.464 226.248 117.294C228.484 117.096 230.201 116.282 231.42 114.847C232.638 113.413 233.149 111.603 232.951 109.409L231.418 92.2519L239.965 91.4828L242.798 123.158L234.734 123.883L234.168 120.203C233.058 121.704 231.691 122.907 230.063 123.792C228.435 124.677 226.611 125.219 224.577 125.399C220.71 125.743 217.618 124.82 215.288 122.613L215.278 122.616Z" fill="#FFC700"/>
<path d="M275.537 98.9137L279.561 116.891L270.6 118.891L261.437 77.9078L270.397 75.9079L274.351 93.5937L282.812 73.1291L292.767 70.9005L292.986 71.8969L283.376 94.0877L302.464 110.727L302.683 111.723L292.376 114.026L275.528 98.9161L275.537 98.9137Z" fill="#FFC700"/>
<path d="M314.19 106.53C311.275 105.997 308.727 104.768 306.555 102.833C304.372 100.899 302.791 98.4302 301.793 95.4306C300.803 92.4286 300.595 89.5065 301.195 86.6572C301.786 83.8102 303.094 81.2947 305.115 79.1325C307.136 76.9703 309.682 75.3707 312.76 74.3532C315.837 73.3357 318.832 73.0887 321.748 73.622C324.663 74.1553 327.211 75.3839 329.384 77.3196C331.566 79.2531 333.147 81.7219 334.146 84.7216C335.144 87.7212 335.344 90.6457 334.743 93.495C334.152 96.342 332.844 98.8575 330.823 101.02C328.803 103.182 326.254 104.772 323.179 105.799C320.101 106.816 317.106 107.063 314.19 106.53ZM314.217 97.7405C316.225 98.7798 318.368 98.9229 320.645 98.1698C322.922 97.4167 324.562 96.0248 325.553 93.9867C326.544 91.9485 326.659 89.7715 325.886 87.4579C325.124 85.142 323.732 83.4607 321.724 82.4214C319.715 81.3821 317.572 81.239 315.295 81.9921C313.018 82.7452 311.381 84.1468 310.387 86.1752C309.396 88.2133 309.282 90.3904 310.054 92.704C310.817 95.0199 312.208 96.7012 314.217 97.7405Z" fill="#FFC700"/>
<path d="M349.773 80.0388L355.437 92.8188L347.593 96.2987L330.567 57.9049L338.411 54.425L348.069 76.2008L350.883 60.0558L359.713 56.1434L360.029 56.8594L356.392 74.4159L373.22 84.0905L373.536 84.8065L364.372 88.871L349.766 80.0508L349.773 80.0388Z" fill="#FFC700"/>
</g>
<defs>
<clipPath id="clip0_5567_118912">
<rect width="362.55" height="96.65" fill="white" transform="translate(0.683594 84.9218) rotate(-13.5176)"/>
</clipPath>
</defs>
</svg>
