<svg width="328" height="55" viewBox="0 0 328 55" fill="none" xmlns="http://www.w3.org/2000/svg">
<g clip-path="url(#clip0_5567_119000)">
<path d="M12.8883 14.9196L1.84828 16.0296L0.988281 7.48962L32.2083 4.35962L33.0683 12.8996L21.9683 14.0096L25.2983 47.2596L16.2283 48.1696L12.8983 14.9196H12.8883Z" fill="#FE34C3"/>
<path d="M41.3188 43.5296C38.6988 41.8296 37.1888 39.3496 36.7688 36.0896L45.3188 35.4296C45.4888 36.5396 46.0588 37.3596 47.0388 37.8896C48.0188 38.4196 49.3088 38.6196 50.9088 38.4896C52.4288 38.3696 53.6188 38.0196 54.4988 37.4296C55.3788 36.8396 55.7788 36.1096 55.7088 35.2296C55.6388 34.3496 55.1488 33.7296 54.2388 33.3596C53.3288 32.9896 51.5988 32.7196 49.0588 32.5596C44.8288 32.3196 41.6788 31.4996 39.5988 30.0696C37.5188 28.6496 36.3788 26.5396 36.1588 23.7396C35.9188 20.6696 36.9588 18.1296 39.2688 16.1296C41.5788 14.1296 44.7088 12.9696 48.6588 12.6696C51.0888 12.4796 53.3188 12.7396 55.3388 13.4496C57.3588 14.1596 58.9988 15.2396 60.2488 16.6796C61.4988 18.1296 62.2688 19.8396 62.5388 21.8296L54.2788 22.4696C54.0388 21.4896 53.4888 20.7696 52.6088 20.3096C51.7288 19.8596 50.5588 19.6896 49.0788 19.7996C47.5988 19.9096 46.4988 20.2296 45.7488 20.7496C45.0088 21.2696 44.6688 21.9696 44.7388 22.8396C44.8088 23.7196 45.3388 24.3696 46.3388 24.7896C47.3388 25.2096 49.0588 25.4896 51.5188 25.6196C55.5388 25.7896 58.6188 26.5896 60.7588 28.0096C62.8888 29.4296 64.0688 31.5596 64.2888 34.3896C64.5288 37.4996 63.4388 40.0696 61.0288 42.0996C58.6188 44.1296 55.3588 45.3096 51.2488 45.6196C47.2188 45.9296 43.8988 45.2296 41.2788 43.5296H41.3188Z" fill="#FE34C3"/>
<path d="M73.4685 40.4696C71.2185 38.1896 69.9785 34.7896 69.7285 30.2796L68.7285 11.8896L77.2985 11.4196L78.2485 28.7896C78.3685 31.0696 78.9885 32.7896 80.0885 33.9496C81.1885 35.1096 82.7085 35.6396 84.6185 35.5396C86.8585 35.4196 88.6085 34.6596 89.8685 33.2696C91.1385 31.8796 91.7085 30.0896 91.5885 27.8896L90.6485 10.6996L99.2185 10.2296L100.949 41.9796L92.8585 42.4196L92.4185 38.7196C91.2585 40.1896 89.8485 41.3296 88.1885 42.1696C86.5285 42.9996 84.6885 43.4696 82.6485 43.5896C78.7785 43.7996 75.7085 42.7696 73.4685 40.4896V40.4696Z" fill="#FE34C3"/>
<path d="M114.507 40.1296C111.937 38.7596 109.907 36.8396 108.417 34.3396C106.927 31.8496 106.147 29.0296 106.077 25.8696C106.007 22.7096 106.667 19.8596 108.057 17.3096C109.447 14.7596 111.397 12.7496 113.907 11.2796C116.417 9.80964 119.267 9.03964 122.467 8.96964C125.707 8.89964 128.597 9.54964 131.147 10.9196C133.697 12.2896 135.697 14.2096 137.147 16.6796C138.597 19.1496 139.357 21.9896 139.427 25.1796C139.447 26.0996 139.407 27.0396 139.307 27.9996L114.897 28.5096C115.417 30.3796 116.387 31.8196 117.807 32.8296C119.227 33.8396 120.957 34.3296 122.997 34.2796C124.357 34.2496 125.597 33.9796 126.727 33.4496C127.857 32.9196 128.727 32.2396 129.357 31.3796L138.657 31.1896C137.607 34.4496 135.677 37.0596 132.877 39.0196C130.077 40.9796 126.837 41.9996 123.157 42.0696C119.957 42.1396 117.077 41.4896 114.507 40.1196V40.1296ZM130.797 22.3496C130.277 20.5596 129.307 19.1696 127.887 18.1796C126.467 17.1896 124.717 16.7196 122.637 16.7596C120.637 16.7996 118.957 17.3496 117.597 18.3896C116.237 19.4396 115.317 20.8696 114.837 22.6796L130.797 22.3496Z" fill="#FE34C3"/>
<path d="M146.039 9.27962L154.139 9.38962L154.329 13.1696C156.929 10.2796 160.349 8.86962 164.589 8.91962C168.629 8.96962 171.669 10.2396 173.719 12.7296C175.769 15.2196 176.759 18.6596 176.699 23.0596L176.459 41.4796L167.879 41.3696L168.109 23.9096C168.139 21.6296 167.619 19.8796 166.559 18.6696C165.499 17.4596 163.959 16.8396 161.959 16.8096C159.679 16.7796 157.859 17.3996 156.509 18.6596C155.149 19.9196 154.459 21.6696 154.429 23.9096L154.199 41.1896L145.619 41.0796L146.039 9.27962Z" fill="#FE34C3"/>
<path d="M198.357 1.01963L198.427 -0.000366211L207.707 0.649634L210.267 11.3496L214.097 27.9796L224.267 8.95963L230.197 9.36963L237.687 29.6196L243.787 13.7496L247.877 3.44963L256.917 4.07963L256.847 5.09963L240.827 45.0596L234.187 44.5996L226.317 22.0996L222.207 30.1096L215.457 43.2896L208.817 42.8296L198.357 1.01963Z" fill="#FE34C3"/>
<path d="M259.968 45.3796C257.698 43.6796 256.028 41.5096 254.968 38.8596C253.908 36.2096 253.548 33.3296 253.878 30.2296C254.218 27.0496 255.218 24.2796 256.858 21.9196C258.498 19.5596 260.608 17.8196 263.188 16.6896C265.768 15.5596 268.568 15.1596 271.588 15.4896C275.568 15.9196 278.848 17.5696 281.438 20.4196L282.078 17.2896L289.478 18.0896L286.048 49.7096L278.648 48.9096L278.688 45.7196C277.158 46.7996 275.488 47.5796 273.668 48.0396C271.848 48.5096 269.958 48.6296 268.018 48.4196C264.918 48.0796 262.228 47.0696 259.958 45.3696L259.968 45.3796ZM264.228 37.5096C265.628 39.2696 267.558 40.2896 270.028 40.5496C272.448 40.8096 274.538 40.2296 276.278 38.8096C278.018 37.3896 279.028 35.4496 279.298 32.9796C279.568 30.5096 278.998 28.3996 277.598 26.6396C276.198 24.8796 274.288 23.8696 271.858 23.5996C269.388 23.3296 267.288 23.9096 265.548 25.3296C263.808 26.7496 262.798 28.6896 262.528 31.1596C262.258 33.6296 262.828 35.7396 264.228 37.4996V37.5096Z" fill="#FE34C3"/>
<path d="M298.619 19.2496L306.639 20.3696L306.349 24.1496C309.289 21.6096 312.859 20.6396 317.059 21.2196C321.059 21.7796 323.919 23.4196 325.639 26.1396C327.359 28.8596 327.909 32.4096 327.309 36.7596L324.759 54.9996L316.259 53.8096L318.679 36.5196C318.999 34.2596 318.699 32.4596 317.799 31.1296C316.899 29.7896 315.449 28.9896 313.469 28.7096C311.209 28.3896 309.329 28.7796 307.829 29.8596C306.329 30.9396 305.419 32.5896 305.109 34.8096L302.719 51.9196L294.219 50.7296L298.619 19.2396V19.2496Z" fill="#FE34C3"/>
</g>
<defs>
<clipPath id="clip0_5567_119000">
<rect width="326.57" height="55.01" fill="white" transform="translate(0.988281 -0.000366211)"/>
</clipPath>
</defs>
</svg>
