<svg width="653" height="275" viewBox="0 0 653 275" fill="none" xmlns="http://www.w3.org/2000/svg">
<mask id="mask0_5599_87082" style="mask-type:luminance" maskUnits="userSpaceOnUse" x="95" y="-307" width="462" height="483">
<path d="M489.223 104.531C579.287 10.5448 579.287 -141.837 489.224 -235.823C399.16 -329.809 253.138 -329.809 163.075 -235.823C73.011 -141.837 73.011 10.545 163.074 104.531C253.138 198.517 399.16 198.517 489.223 104.531Z" fill="white"/>
</mask>
<g mask="url(#mask0_5599_87082)">
<path d="M91.2344 9.3264C91.2344 5.24881 94.3769 1.96899 98.2843 1.96899C102.192 1.96899 105.335 5.24881 105.335 9.3264C105.335 13.404 102.192 16.6838 98.2843 16.6838C94.3769 16.6838 91.2344 13.404 91.2344 9.3264Z" fill="#58FAFF"/>
<path d="M119.434 9.3264C119.434 5.24881 122.576 1.96899 126.484 1.96899C130.391 1.96899 133.534 5.24881 133.534 9.3264C133.534 13.404 130.391 16.6838 126.484 16.6838C122.576 16.6838 119.434 13.404 119.434 9.3264Z" fill="#58FAFF"/>
<path d="M147.641 9.3264C147.641 5.24881 150.784 1.96899 154.691 1.96899C158.598 1.96899 161.742 5.24881 161.742 9.3264C161.742 13.404 158.598 16.6838 154.691 16.6838C150.784 16.6838 147.641 13.404 147.641 9.3264Z" fill="#58FAFF"/>
<path d="M175.836 9.3264C175.836 5.24881 178.979 1.96899 182.886 1.96899C186.794 1.96899 189.937 5.24881 189.937 9.3264C189.937 13.404 186.794 16.6838 182.886 16.6838C178.979 16.6838 175.836 13.404 175.836 9.3264Z" fill="#58FAFF"/>
<path d="M204.041 9.3264C204.041 5.24881 207.184 1.96899 211.091 1.96899C214.999 1.96899 218.142 5.24881 218.142 9.3264C218.142 13.404 214.999 16.6838 211.091 16.6838C207.184 16.6838 204.041 13.404 204.041 9.3264Z" fill="#58FAFF"/>
<path d="M232.248 9.3264C232.248 5.24881 235.391 1.96899 239.299 1.96899C243.206 1.96899 246.348 5.24881 246.348 9.3264C246.348 13.404 243.206 16.6838 239.299 16.6838C235.391 16.6838 232.248 13.404 232.248 9.3264Z" fill="#58FAFF"/>
<path d="M260.441 9.3264C260.441 5.24881 263.584 1.96899 267.492 1.96899C271.399 1.96899 274.542 5.24881 274.542 9.3264C274.542 13.404 271.399 16.6838 267.492 16.6838C263.584 16.6838 260.441 13.404 260.441 9.3264Z" fill="#58FAFF"/>
<path d="M288.73 9.3264C288.73 5.24881 291.873 1.96899 295.78 1.96899C299.688 1.96899 302.831 5.24881 302.831 9.3264C302.831 13.404 299.688 16.6838 295.78 16.6838C291.873 16.6838 288.73 13.404 288.73 9.3264Z" fill="#58FAFF"/>
<path d="M316.93 9.3264C316.93 5.24881 320.072 1.96899 323.98 1.96899C327.887 1.96899 331.03 5.24881 331.03 9.3264C331.03 13.404 327.887 16.6838 323.98 16.6838C320.072 16.6838 316.93 13.404 316.93 9.3264Z" fill="#58FAFF"/>
<path d="M345.137 9.3264C345.137 5.24881 348.28 1.96899 352.187 1.96899C356.095 1.96899 359.238 5.24881 359.238 9.3264C359.238 13.404 356.095 16.6838 352.187 16.6838C348.28 16.6838 345.137 13.404 345.137 9.3264Z" fill="#58FAFF"/>
<path d="M373.328 9.3264C373.328 5.24881 376.471 1.96899 380.379 1.96899C384.286 1.96899 387.429 5.24881 387.429 9.3264C387.429 13.404 384.286 16.6838 380.379 16.6838C376.471 16.6838 373.328 13.404 373.328 9.3264Z" fill="#58FAFF"/>
<path d="M401.535 9.3264C401.535 5.24881 404.678 1.96899 408.586 1.96899C412.493 1.96899 415.636 5.24881 415.636 9.3264C415.636 13.404 412.493 16.6838 408.586 16.6838C404.678 16.6838 401.535 13.404 401.535 9.3264Z" fill="#58FAFF"/>
<path d="M429.736 9.3264C429.736 5.24881 432.879 1.96899 436.787 1.96899C440.694 1.96899 443.837 5.24881 443.837 9.3264C443.837 13.404 440.694 16.6838 436.787 16.6838C432.879 16.6838 429.736 13.404 429.736 9.3264Z" fill="#58FAFF"/>
<path d="M458.023 9.3264C458.023 5.24881 461.166 1.96899 465.073 1.96899C468.981 1.96899 472.124 5.24881 472.124 9.3264C472.124 13.404 468.981 16.6838 465.073 16.6838C461.166 16.6838 458.023 13.404 458.023 9.3264Z" fill="#58FAFF"/>
<path d="M486.225 9.3264C486.225 5.24881 489.367 1.96899 493.275 1.96899C497.182 1.96899 500.325 5.24881 500.325 9.3264C500.325 13.404 497.182 16.6838 493.275 16.6838C489.367 16.6838 486.225 13.404 486.225 9.3264Z" fill="#58FAFF"/>
<path d="M514.424 9.3264C514.424 5.24881 517.566 1.96899 521.474 1.96899C525.381 1.96899 528.524 5.24881 528.524 9.3264C528.524 13.404 525.381 16.6838 521.474 16.6838C517.566 16.6838 514.424 13.404 514.424 9.3264Z" fill="#58FAFF"/>
<path d="M542.629 9.3264C542.629 5.24881 545.772 1.96899 549.679 1.96899C553.587 1.96899 556.73 5.24881 556.73 9.3264C556.73 13.404 553.587 16.6838 549.679 16.6838C545.772 16.6838 542.629 13.404 542.629 9.3264Z" fill="#58FAFF"/>
<path d="M105.166 29.6259C105.166 25.5484 108.309 22.2687 112.216 22.2687C116.124 22.2687 119.267 25.5484 119.267 29.6259C119.267 33.7035 116.124 36.9834 112.216 36.9834C108.309 36.9834 105.166 33.7035 105.166 29.6259Z" fill="#58FAFF"/>
<path d="M133.359 29.6259C133.359 25.5484 136.502 22.2687 140.41 22.2687C144.317 22.2687 147.46 25.5484 147.46 29.6259C147.46 33.7035 144.317 36.9834 140.41 36.9834C136.502 36.9834 133.359 33.7035 133.359 29.6259Z" fill="#58FAFF"/>
<path d="M161.648 29.6259C161.648 25.5484 164.791 22.2687 168.699 22.2687C172.606 22.2687 175.749 25.5484 175.749 29.6259C175.749 33.7035 172.606 36.9834 168.699 36.9834C164.791 36.9834 161.648 33.7035 161.648 29.6259Z" fill="#58FAFF"/>
<path d="M189.855 29.6259C189.855 25.5484 192.999 22.2687 196.906 22.2687C200.813 22.2687 203.956 25.5484 203.956 29.6259C203.956 33.7035 200.813 36.9834 196.906 36.9834C192.999 36.9834 189.855 33.7035 189.855 29.6259Z" fill="#58FAFF"/>
<path d="M218.061 29.6259C218.061 25.5484 221.203 22.2687 225.11 22.2687C229.018 22.2687 232.161 25.5484 232.161 29.6259C232.161 33.7035 229.018 36.9834 225.11 36.9834C221.203 36.9834 218.061 33.7035 218.061 29.6259Z" fill="#58FAFF"/>
<path d="M246.254 29.6259C246.254 25.5484 249.396 22.2687 253.304 22.2687C257.211 22.2687 260.354 25.5484 260.354 29.6259C260.354 33.7035 257.211 36.9834 253.304 36.9834C249.396 36.9834 246.254 33.7035 246.254 29.6259Z" fill="#58FAFF"/>
<path d="M274.461 29.6259C274.461 25.5484 277.603 22.2687 281.511 22.2687C285.418 22.2687 288.561 25.5484 288.561 29.6259C288.561 33.7035 285.418 36.9834 281.511 36.9834C277.603 36.9834 274.461 33.7035 274.461 29.6259Z" fill="#58FAFF"/>
<path d="M302.66 29.6259C302.66 25.5484 305.803 22.2687 309.711 22.2687C313.618 22.2687 316.761 25.5484 316.761 29.6259C316.761 33.7035 313.618 36.9834 309.711 36.9834C305.803 36.9834 302.66 33.7035 302.66 29.6259Z" fill="#58FAFF"/>
<path d="M330.949 29.6259C330.949 25.5484 334.092 22.2687 338 22.2687C341.907 22.2687 345.05 25.5484 345.05 29.6259C345.05 33.7035 341.907 36.9834 338 36.9834C334.092 36.9834 330.949 33.7035 330.949 29.6259Z" fill="#58FAFF"/>
<path d="M359.143 29.6259C359.143 25.5484 362.286 22.2687 366.193 22.2687C370.1 22.2687 373.243 25.5484 373.243 29.6259C373.243 33.7035 370.1 36.9834 366.193 36.9834C362.286 36.9834 359.143 33.7035 359.143 29.6259Z" fill="#58FAFF"/>
<path d="M387.35 29.6259C387.35 25.5484 390.493 22.2687 394.4 22.2687C398.307 22.2687 401.45 25.5484 401.45 29.6259C401.45 33.7035 398.307 36.9834 394.4 36.9834C390.493 36.9834 387.35 33.7035 387.35 29.6259Z" fill="#58FAFF"/>
<path d="M415.549 29.6259C415.549 25.5484 418.691 22.2687 422.599 22.2687C426.506 22.2687 429.649 25.5484 429.649 29.6259C429.649 33.7035 426.506 36.9834 422.599 36.9834C418.691 36.9834 415.549 33.7035 415.549 29.6259Z" fill="#58FAFF"/>
<path d="M443.748 29.6259C443.748 25.5484 446.891 22.2687 450.798 22.2687C454.705 22.2687 457.848 25.5484 457.848 29.6259C457.848 33.7035 454.705 36.9834 450.798 36.9834C446.891 36.9834 443.748 33.7035 443.748 29.6259Z" fill="#58FAFF"/>
<path d="M471.949 29.6259C471.949 25.5484 475.092 22.2687 478.999 22.2687C482.907 22.2687 486.05 25.5484 486.05 29.6259C486.05 33.7035 482.907 36.9834 478.999 36.9834C475.092 36.9834 471.949 33.7035 471.949 29.6259Z" fill="#58FAFF"/>
<path d="M500.236 29.6259C500.236 25.5484 503.379 22.2687 507.287 22.2687C511.194 22.2687 514.337 25.5484 514.337 29.6259C514.337 33.7035 511.194 36.9834 507.287 36.9834C503.379 36.9834 500.236 33.7035 500.236 29.6259Z" fill="#58FAFF"/>
<path d="M528.443 29.6259C528.443 25.5484 531.586 22.2687 535.494 22.2687C539.401 22.2687 542.544 25.5484 542.544 29.6259C542.544 33.7035 539.401 36.9834 535.494 36.9834C531.586 36.9834 528.443 33.7035 528.443 29.6259Z" fill="#58FAFF"/>
<path d="M556.637 29.6259C556.637 25.5484 559.78 22.2687 563.687 22.2687C567.595 22.2687 570.737 25.5484 570.737 29.6259C570.737 33.7035 567.595 36.9834 563.687 36.9834C559.78 36.9834 556.637 33.7035 556.637 29.6259Z" fill="#58FAFF"/>
<path d="M91.2344 48.5067C91.2344 44.4291 94.3769 41.1493 98.2843 41.1493C102.192 41.1493 105.335 44.4291 105.335 48.5067C105.335 52.5843 102.192 55.8641 98.2843 55.8641C94.3769 55.8641 91.2344 52.5843 91.2344 48.5067Z" fill="#58FAFF"/>
<path d="M119.434 48.5067C119.434 44.4291 122.576 41.1493 126.484 41.1493C130.391 41.1493 133.534 44.4291 133.534 48.5067C133.534 52.5843 130.391 55.8641 126.484 55.8641C122.576 55.8641 119.434 52.5843 119.434 48.5067Z" fill="#58FAFF"/>
<path d="M147.641 48.5067C147.641 44.4291 150.784 41.1493 154.691 41.1493C158.598 41.1493 161.742 44.4291 161.742 48.5067C161.742 52.5843 158.598 55.8641 154.691 55.8641C150.784 55.8641 147.641 52.5843 147.641 48.5067Z" fill="#58FAFF"/>
<path d="M175.836 48.5067C175.836 44.4291 178.979 41.1493 182.886 41.1493C186.794 41.1493 189.937 44.4291 189.937 48.5067C189.937 52.5843 186.794 55.8641 182.886 55.8641C178.979 55.8641 175.836 52.5843 175.836 48.5067Z" fill="#58FAFF"/>
<path d="M204.041 48.5067C204.041 44.4291 207.184 41.1493 211.091 41.1493C214.999 41.1493 218.142 44.4291 218.142 48.5067C218.142 52.5843 214.999 55.8641 211.091 55.8641C207.184 55.8641 204.041 52.5843 204.041 48.5067Z" fill="#58FAFF"/>
<path d="M232.248 48.5067C232.248 44.4291 235.391 41.1493 239.299 41.1493C243.206 41.1493 246.348 44.4291 246.348 48.5067C246.348 52.5843 243.206 55.8641 239.299 55.8641C235.391 55.8641 232.248 52.5843 232.248 48.5067Z" fill="#58FAFF"/>
<path d="M260.441 48.5067C260.441 44.4291 263.584 41.1493 267.492 41.1493C271.399 41.1493 274.542 44.4291 274.542 48.5067C274.542 52.5843 271.399 55.8641 267.492 55.8641C263.584 55.8641 260.441 52.5843 260.441 48.5067Z" fill="#58FAFF"/>
<path d="M288.73 48.5067C288.73 44.4291 291.873 41.1493 295.78 41.1493C299.688 41.1493 302.831 44.4291 302.831 48.5067C302.831 52.5843 299.688 55.8641 295.78 55.8641C291.873 55.8641 288.73 52.5843 288.73 48.5067Z" fill="#58FAFF"/>
<path d="M316.93 48.5067C316.93 44.4291 320.072 41.1493 323.98 41.1493C327.887 41.1493 331.03 44.4291 331.03 48.5067C331.03 52.5843 327.887 55.8641 323.98 55.8641C320.072 55.8641 316.93 52.5843 316.93 48.5067Z" fill="#58FAFF"/>
<path d="M345.137 48.5067C345.137 44.4291 348.28 41.1493 352.187 41.1493C356.095 41.1493 359.238 44.4291 359.238 48.5067C359.238 52.5843 356.095 55.8641 352.187 55.8641C348.28 55.8641 345.137 52.5843 345.137 48.5067Z" fill="#58FAFF"/>
<path d="M373.328 48.5067C373.328 44.4291 376.471 41.1493 380.379 41.1493C384.286 41.1493 387.429 44.4291 387.429 48.5067C387.429 52.5843 384.286 55.8641 380.379 55.8641C376.471 55.8641 373.328 52.5843 373.328 48.5067Z" fill="#58FAFF"/>
<path d="M401.535 48.5067C401.535 44.4291 404.678 41.1493 408.586 41.1493C412.493 41.1493 415.636 44.4291 415.636 48.5067C415.636 52.5843 412.493 55.8641 408.586 55.8641C404.678 55.8641 401.535 52.5843 401.535 48.5067Z" fill="#58FAFF"/>
<path d="M429.736 48.5067C429.736 44.4291 432.879 41.1493 436.787 41.1493C440.694 41.1493 443.837 44.4291 443.837 48.5067C443.837 52.5843 440.694 55.8641 436.787 55.8641C432.879 55.8641 429.736 52.5843 429.736 48.5067Z" fill="#58FAFF"/>
<path d="M458.023 48.5067C458.023 44.4291 461.166 41.1493 465.073 41.1493C468.981 41.1493 472.124 44.4291 472.124 48.5067C472.124 52.5843 468.981 55.8641 465.073 55.8641C461.166 55.8641 458.023 52.5843 458.023 48.5067Z" fill="#58FAFF"/>
<path d="M486.225 48.5067C486.225 44.4291 489.367 41.1493 493.275 41.1493C497.182 41.1493 500.325 44.4291 500.325 48.5067C500.325 52.5843 497.182 55.8641 493.275 55.8641C489.367 55.8641 486.225 52.5843 486.225 48.5067Z" fill="#58FAFF"/>
<path d="M514.424 48.5067C514.424 44.4291 517.566 41.1493 521.474 41.1493C525.381 41.1493 528.524 44.4291 528.524 48.5067C528.524 52.5843 525.381 55.8641 521.474 55.8641C517.566 55.8641 514.424 52.5843 514.424 48.5067Z" fill="#58FAFF"/>
<path d="M542.629 48.5067C542.629 44.4291 545.772 41.1493 549.679 41.1493C553.587 41.1493 556.73 44.4291 556.73 48.5067C556.73 52.5843 553.587 55.8641 549.679 55.8641C545.772 55.8641 542.629 52.5843 542.629 48.5067Z" fill="#58FAFF"/>
<path d="M105.166 68.8059C105.166 64.7283 108.309 61.4485 112.216 61.4485C116.124 61.4485 119.267 64.7283 119.267 68.8059C119.267 72.8835 116.124 76.1632 112.216 76.1632C108.309 76.1632 105.166 72.8835 105.166 68.8059Z" fill="#58FAFF"/>
<path d="M133.359 68.8059C133.359 64.7283 136.502 61.4485 140.41 61.4485C144.317 61.4485 147.46 64.7283 147.46 68.8059C147.46 72.8835 144.317 76.1632 140.41 76.1632C136.502 76.1632 133.359 72.8835 133.359 68.8059Z" fill="#58FAFF"/>
<path d="M161.648 68.8059C161.648 64.7283 164.791 61.4485 168.699 61.4485C172.606 61.4485 175.749 64.7283 175.749 68.8059C175.749 72.8835 172.606 76.1632 168.699 76.1632C164.791 76.1632 161.648 72.8835 161.648 68.8059Z" fill="#58FAFF"/>
<path d="M189.855 68.8059C189.855 64.7283 192.999 61.4485 196.906 61.4485C200.813 61.4485 203.956 64.7283 203.956 68.8059C203.956 72.8835 200.813 76.1632 196.906 76.1632C192.999 76.1632 189.855 72.8835 189.855 68.8059Z" fill="#58FAFF"/>
<path d="M218.061 68.8059C218.061 64.7283 221.203 61.4485 225.11 61.4485C229.018 61.4485 232.161 64.7283 232.161 68.8059C232.161 72.8835 229.018 76.1632 225.11 76.1632C221.203 76.1632 218.061 72.8835 218.061 68.8059Z" fill="#58FAFF"/>
<path d="M246.254 68.8059C246.254 64.7283 249.396 61.4485 253.304 61.4485C257.211 61.4485 260.354 64.7283 260.354 68.8059C260.354 72.8835 257.211 76.1632 253.304 76.1632C249.396 76.1632 246.254 72.8835 246.254 68.8059Z" fill="#58FAFF"/>
<path d="M274.461 68.8059C274.461 64.7283 277.603 61.4485 281.511 61.4485C285.418 61.4485 288.561 64.7283 288.561 68.8059C288.561 72.8835 285.418 76.1632 281.511 76.1632C277.603 76.1632 274.461 72.8835 274.461 68.8059Z" fill="#58FAFF"/>
<path d="M302.66 68.8059C302.66 64.7283 305.803 61.4485 309.711 61.4485C313.618 61.4485 316.761 64.7283 316.761 68.8059C316.761 72.8835 313.618 76.1632 309.711 76.1632C305.803 76.1632 302.66 72.8835 302.66 68.8059Z" fill="#58FAFF"/>
<path d="M330.949 68.8059C330.949 64.7283 334.092 61.4485 338 61.4485C341.907 61.4485 345.05 64.7283 345.05 68.8059C345.05 72.8835 341.907 76.1632 338 76.1632C334.092 76.1632 330.949 72.8835 330.949 68.8059Z" fill="#58FAFF"/>
<path d="M359.143 68.8059C359.143 64.7283 362.286 61.4485 366.193 61.4485C370.1 61.4485 373.243 64.7283 373.243 68.8059C373.243 72.8835 370.1 76.1632 366.193 76.1632C362.286 76.1632 359.143 72.8835 359.143 68.8059Z" fill="#58FAFF"/>
<path d="M387.35 68.8059C387.35 64.7283 390.493 61.4485 394.4 61.4485C398.307 61.4485 401.45 64.7283 401.45 68.8059C401.45 72.8835 398.307 76.1632 394.4 76.1632C390.493 76.1632 387.35 72.8835 387.35 68.8059Z" fill="#58FAFF"/>
<path d="M415.549 68.8059C415.549 64.7283 418.691 61.4485 422.599 61.4485C426.506 61.4485 429.649 64.7283 429.649 68.8059C429.649 72.8835 426.506 76.1632 422.599 76.1632C418.691 76.1632 415.549 72.8835 415.549 68.8059Z" fill="#58FAFF"/>
<path d="M443.748 68.8059C443.748 64.7283 446.891 61.4485 450.798 61.4485C454.705 61.4485 457.848 64.7283 457.848 68.8059C457.848 72.8835 454.705 76.1632 450.798 76.1632C446.891 76.1632 443.748 72.8835 443.748 68.8059Z" fill="#58FAFF"/>
<path d="M471.949 68.8059C471.949 64.7283 475.092 61.4485 478.999 61.4485C482.907 61.4485 486.05 64.7283 486.05 68.8059C486.05 72.8835 482.907 76.1632 478.999 76.1632C475.092 76.1632 471.949 72.8835 471.949 68.8059Z" fill="#58FAFF"/>
<path d="M500.236 68.8059C500.236 64.7283 503.379 61.4485 507.287 61.4485C511.194 61.4485 514.337 64.7283 514.337 68.8059C514.337 72.8835 511.194 76.1632 507.287 76.1632C503.379 76.1632 500.236 72.8835 500.236 68.8059Z" fill="#58FAFF"/>
<path d="M528.443 68.8059C528.443 64.7283 531.586 61.4485 535.494 61.4485C539.401 61.4485 542.544 64.7283 542.544 68.8059C542.544 72.8835 539.401 76.1632 535.494 76.1632C531.586 76.1632 528.443 72.8835 528.443 68.8059Z" fill="#58FAFF"/>
<path d="M556.637 68.8059C556.637 64.7283 559.78 61.4485 563.687 61.4485C567.595 61.4485 570.737 64.7283 570.737 68.8059C570.737 72.8835 567.595 76.1632 563.687 76.1632C559.78 76.1632 556.637 72.8835 556.637 68.8059Z" fill="#58FAFF"/>
<path d="M91.2344 87.7748C91.2344 83.6972 94.3769 80.4174 98.2843 80.4174C102.192 80.4174 105.335 83.6972 105.335 87.7748C105.335 91.8524 102.192 95.132 98.2843 95.132C94.3769 95.132 91.2344 91.8524 91.2344 87.7748Z" fill="#58FAFF"/>
<path d="M119.434 87.7748C119.434 83.6972 122.576 80.4174 126.484 80.4174C130.391 80.4174 133.534 83.6972 133.534 87.7748C133.534 91.8524 130.391 95.132 126.484 95.132C122.576 95.132 119.434 91.8524 119.434 87.7748Z" fill="#58FAFF"/>
<path d="M147.641 87.7748C147.641 83.6972 150.784 80.4174 154.691 80.4174C158.598 80.4174 161.742 83.6972 161.742 87.7748C161.742 91.8524 158.598 95.132 154.691 95.132C150.784 95.132 147.641 91.8524 147.641 87.7748Z" fill="#58FAFF"/>
<path d="M175.836 87.7748C175.836 83.6972 178.979 80.4174 182.886 80.4174C186.794 80.4174 189.937 83.6972 189.937 87.7748C189.937 91.8524 186.794 95.132 182.886 95.132C178.979 95.132 175.836 91.8524 175.836 87.7748Z" fill="#58FAFF"/>
<path d="M204.041 87.7748C204.041 83.6972 207.184 80.4174 211.091 80.4174C214.999 80.4174 218.142 83.6972 218.142 87.7748C218.142 91.8524 214.999 95.132 211.091 95.132C207.184 95.132 204.041 91.8524 204.041 87.7748Z" fill="#58FAFF"/>
<path d="M232.248 87.7748C232.248 83.6972 235.391 80.4174 239.299 80.4174C243.206 80.4174 246.348 83.6972 246.348 87.7748C246.348 91.8524 243.206 95.132 239.299 95.132C235.391 95.132 232.248 91.8524 232.248 87.7748Z" fill="#58FAFF"/>
<path d="M260.441 87.7748C260.441 83.6972 263.584 80.4174 267.492 80.4174C271.399 80.4174 274.542 83.6972 274.542 87.7748C274.542 91.8524 271.399 95.132 267.492 95.132C263.584 95.132 260.441 91.8524 260.441 87.7748Z" fill="#58FAFF"/>
<path d="M288.73 87.7748C288.73 83.6972 291.873 80.4174 295.78 80.4174C299.688 80.4174 302.831 83.6972 302.831 87.7748C302.831 91.8524 299.688 95.132 295.78 95.132C291.873 95.132 288.73 91.8524 288.73 87.7748Z" fill="#58FAFF"/>
<path d="M316.93 87.7748C316.93 83.6972 320.072 80.4174 323.98 80.4174C327.887 80.4174 331.03 83.6972 331.03 87.7748C331.03 91.8524 327.887 95.132 323.98 95.132C320.072 95.132 316.93 91.8524 316.93 87.7748Z" fill="#58FAFF"/>
<path d="M345.137 87.7748C345.137 83.6972 348.28 80.4174 352.187 80.4174C356.095 80.4174 359.238 83.6972 359.238 87.7748C359.238 91.8524 356.095 95.132 352.187 95.132C348.28 95.132 345.137 91.8524 345.137 87.7748Z" fill="#58FAFF"/>
<path d="M373.328 87.7748C373.328 83.6972 376.471 80.4174 380.379 80.4174C384.286 80.4174 387.429 83.6972 387.429 87.7748C387.429 91.8524 384.286 95.132 380.379 95.132C376.471 95.132 373.328 91.8524 373.328 87.7748Z" fill="#58FAFF"/>
<path d="M401.535 87.7748C401.535 83.6972 404.678 80.4174 408.586 80.4174C412.493 80.4174 415.636 83.6972 415.636 87.7748C415.636 91.8524 412.493 95.132 408.586 95.132C404.678 95.132 401.535 91.8524 401.535 87.7748Z" fill="#58FAFF"/>
<path d="M429.736 87.7748C429.736 83.6972 432.879 80.4174 436.787 80.4174C440.694 80.4174 443.837 83.6972 443.837 87.7748C443.837 91.8524 440.694 95.132 436.787 95.132C432.879 95.132 429.736 91.8524 429.736 87.7748Z" fill="#58FAFF"/>
<path d="M458.023 87.7748C458.023 83.6972 461.166 80.4174 465.073 80.4174C468.981 80.4174 472.124 83.6972 472.124 87.7748C472.124 91.8524 468.981 95.132 465.073 95.132C461.166 95.132 458.023 91.8524 458.023 87.7748Z" fill="#58FAFF"/>
<path d="M486.225 87.7748C486.225 83.6972 489.367 80.4174 493.275 80.4174C497.182 80.4174 500.325 83.6972 500.325 87.7748C500.325 91.8524 497.182 95.132 493.275 95.132C489.367 95.132 486.225 91.8524 486.225 87.7748Z" fill="#58FAFF"/>
<path d="M514.424 87.7748C514.424 83.6972 517.566 80.4174 521.474 80.4174C525.381 80.4174 528.524 83.6972 528.524 87.7748C528.524 91.8524 525.381 95.132 521.474 95.132C517.566 95.132 514.424 91.8524 514.424 87.7748Z" fill="#58FAFF"/>
<path d="M542.629 87.7748C542.629 83.6972 545.772 80.4174 549.679 80.4174C553.587 80.4174 556.73 83.6972 556.73 87.7748C556.73 91.8524 553.587 95.132 549.679 95.132C545.772 95.132 542.629 91.8524 542.629 87.7748Z" fill="#58FAFF"/>
<path d="M105.166 107.986C105.166 103.908 108.309 100.629 112.216 100.629C116.124 100.629 119.267 103.908 119.267 107.986C119.267 112.064 116.124 115.343 112.216 115.343C108.309 115.343 105.166 112.064 105.166 107.986Z" fill="#58FAFF"/>
<path d="M133.359 107.986C133.359 103.908 136.502 100.629 140.41 100.629C144.317 100.629 147.46 103.908 147.46 107.986C147.46 112.064 144.317 115.343 140.41 115.343C136.502 115.343 133.359 112.064 133.359 107.986Z" fill="#58FAFF"/>
<path d="M161.648 107.986C161.648 103.908 164.791 100.629 168.699 100.629C172.606 100.629 175.749 103.908 175.749 107.986C175.749 112.064 172.606 115.343 168.699 115.343C164.791 115.343 161.648 112.064 161.648 107.986Z" fill="#58FAFF"/>
<path d="M189.855 107.986C189.855 103.908 192.999 100.629 196.906 100.629C200.813 100.629 203.956 103.908 203.956 107.986C203.956 112.064 200.813 115.343 196.906 115.343C192.999 115.343 189.855 112.064 189.855 107.986Z" fill="#58FAFF"/>
<path d="M218.061 107.986C218.061 103.908 221.203 100.629 225.11 100.629C229.018 100.629 232.161 103.908 232.161 107.986C232.161 112.064 229.018 115.343 225.11 115.343C221.203 115.343 218.061 112.064 218.061 107.986Z" fill="#58FAFF"/>
<path d="M246.254 107.986C246.254 103.908 249.396 100.629 253.304 100.629C257.211 100.629 260.354 103.908 260.354 107.986C260.354 112.064 257.211 115.343 253.304 115.343C249.396 115.343 246.254 112.064 246.254 107.986Z" fill="#58FAFF"/>
<path d="M274.461 107.986C274.461 103.908 277.603 100.629 281.511 100.629C285.418 100.629 288.561 103.908 288.561 107.986C288.561 112.064 285.418 115.343 281.511 115.343C277.603 115.343 274.461 112.064 274.461 107.986Z" fill="#58FAFF"/>
<path d="M302.66 107.986C302.66 103.908 305.803 100.629 309.711 100.629C313.618 100.629 316.761 103.908 316.761 107.986C316.761 112.064 313.618 115.343 309.711 115.343C305.803 115.343 302.66 112.064 302.66 107.986Z" fill="#58FAFF"/>
<path d="M330.949 107.986C330.949 103.908 334.092 100.629 338 100.629C341.907 100.629 345.05 103.908 345.05 107.986C345.05 112.064 341.907 115.343 338 115.343C334.092 115.343 330.949 112.064 330.949 107.986Z" fill="#58FAFF"/>
<path d="M359.143 107.986C359.143 103.908 362.286 100.629 366.193 100.629C370.1 100.629 373.243 103.908 373.243 107.986C373.243 112.064 370.1 115.343 366.193 115.343C362.286 115.343 359.143 112.064 359.143 107.986Z" fill="#58FAFF"/>
<path d="M387.35 107.986C387.35 103.908 390.493 100.629 394.4 100.629C398.307 100.629 401.45 103.908 401.45 107.986C401.45 112.064 398.307 115.343 394.4 115.343C390.493 115.343 387.35 112.064 387.35 107.986Z" fill="#58FAFF"/>
<path d="M415.549 107.986C415.549 103.908 418.691 100.629 422.599 100.629C426.506 100.629 429.649 103.908 429.649 107.986C429.649 112.064 426.506 115.343 422.599 115.343C418.691 115.343 415.549 112.064 415.549 107.986Z" fill="#58FAFF"/>
<path d="M443.748 107.986C443.748 103.908 446.891 100.629 450.798 100.629C454.705 100.629 457.848 103.908 457.848 107.986C457.848 112.064 454.705 115.343 450.798 115.343C446.891 115.343 443.748 112.064 443.748 107.986Z" fill="#58FAFF"/>
<path d="M471.949 107.986C471.949 103.908 475.092 100.629 478.999 100.629C482.907 100.629 486.05 103.908 486.05 107.986C486.05 112.064 482.907 115.343 478.999 115.343C475.092 115.343 471.949 112.064 471.949 107.986Z" fill="#58FAFF"/>
<path d="M500.236 107.986C500.236 103.908 503.379 100.629 507.287 100.629C511.194 100.629 514.337 103.908 514.337 107.986C514.337 112.064 511.194 115.343 507.287 115.343C503.379 115.343 500.236 112.064 500.236 107.986Z" fill="#58FAFF"/>
<path d="M528.443 107.986C528.443 103.908 531.586 100.629 535.494 100.629C539.401 100.629 542.544 103.908 542.544 107.986C542.544 112.064 539.401 115.343 535.494 115.343C531.586 115.343 528.443 112.064 528.443 107.986Z" fill="#58FAFF"/>
<path d="M556.637 107.986C556.637 103.908 559.78 100.629 563.687 100.629C567.595 100.629 570.737 103.908 570.737 107.986C570.737 112.064 567.595 115.343 563.687 115.343C559.78 115.343 556.637 112.064 556.637 107.986Z" fill="#58FAFF"/>
<path d="M91.2344 126.955C91.2344 122.877 94.3769 119.598 98.2843 119.598C102.192 119.598 105.335 122.877 105.335 126.955C105.335 131.033 102.192 134.312 98.2843 134.312C94.3769 134.312 91.2344 131.033 91.2344 126.955Z" fill="#58FAFF"/>
<path d="M119.434 126.955C119.434 122.877 122.576 119.598 126.484 119.598C130.391 119.598 133.534 122.877 133.534 126.955C133.534 131.033 130.391 134.312 126.484 134.312C122.576 134.312 119.434 131.033 119.434 126.955Z" fill="#58FAFF"/>
<path d="M147.641 126.955C147.641 122.877 150.784 119.598 154.691 119.598C158.598 119.598 161.742 122.877 161.742 126.955C161.742 131.033 158.598 134.312 154.691 134.312C150.784 134.312 147.641 131.033 147.641 126.955Z" fill="#58FAFF"/>
<path d="M175.836 126.955C175.836 122.877 178.979 119.598 182.886 119.598C186.794 119.598 189.937 122.877 189.937 126.955C189.937 131.033 186.794 134.312 182.886 134.312C178.979 134.312 175.836 131.033 175.836 126.955Z" fill="#58FAFF"/>
<path d="M204.041 126.955C204.041 122.877 207.184 119.598 211.091 119.598C214.999 119.598 218.142 122.877 218.142 126.955C218.142 131.033 214.999 134.312 211.091 134.312C207.184 134.312 204.041 131.033 204.041 126.955Z" fill="#58FAFF"/>
<path d="M232.248 126.955C232.248 122.877 235.391 119.598 239.299 119.598C243.206 119.598 246.348 122.877 246.348 126.955C246.348 131.033 243.206 134.312 239.299 134.312C235.391 134.312 232.248 131.033 232.248 126.955Z" fill="#58FAFF"/>
<path d="M260.441 126.955C260.441 122.877 263.584 119.598 267.492 119.598C271.399 119.598 274.542 122.877 274.542 126.955C274.542 131.033 271.399 134.312 267.492 134.312C263.584 134.312 260.441 131.033 260.441 126.955Z" fill="#58FAFF"/>
<path d="M288.73 126.955C288.73 122.877 291.873 119.598 295.78 119.598C299.688 119.598 302.831 122.877 302.831 126.955C302.831 131.033 299.688 134.312 295.78 134.312C291.873 134.312 288.73 131.033 288.73 126.955Z" fill="#58FAFF"/>
<path d="M316.93 126.955C316.93 122.877 320.072 119.598 323.98 119.598C327.887 119.598 331.03 122.877 331.03 126.955C331.03 131.033 327.887 134.312 323.98 134.312C320.072 134.312 316.93 131.033 316.93 126.955Z" fill="#58FAFF"/>
<path d="M345.137 126.955C345.137 122.877 348.28 119.598 352.187 119.598C356.095 119.598 359.238 122.877 359.238 126.955C359.238 131.033 356.095 134.312 352.187 134.312C348.28 134.312 345.137 131.033 345.137 126.955Z" fill="#58FAFF"/>
<path d="M373.328 126.955C373.328 122.877 376.471 119.598 380.379 119.598C384.286 119.598 387.429 122.877 387.429 126.955C387.429 131.033 384.286 134.312 380.379 134.312C376.471 134.312 373.328 131.033 373.328 126.955Z" fill="#58FAFF"/>
<path d="M401.535 126.955C401.535 122.877 404.678 119.598 408.586 119.598C412.493 119.598 415.636 122.877 415.636 126.955C415.636 131.033 412.493 134.312 408.586 134.312C404.678 134.312 401.535 131.033 401.535 126.955Z" fill="#58FAFF"/>
<path d="M429.736 126.955C429.736 122.877 432.879 119.598 436.787 119.598C440.694 119.598 443.837 122.877 443.837 126.955C443.837 131.033 440.694 134.312 436.787 134.312C432.879 134.312 429.736 131.033 429.736 126.955Z" fill="#58FAFF"/>
<path d="M458.023 126.955C458.023 122.877 461.166 119.598 465.073 119.598C468.981 119.598 472.124 122.877 472.124 126.955C472.124 131.033 468.981 134.312 465.073 134.312C461.166 134.312 458.023 131.033 458.023 126.955Z" fill="#58FAFF"/>
<path d="M486.225 126.955C486.225 122.877 489.367 119.598 493.275 119.598C497.182 119.598 500.325 122.877 500.325 126.955C500.325 131.033 497.182 134.312 493.275 134.312C489.367 134.312 486.225 131.033 486.225 126.955Z" fill="#58FAFF"/>
<path d="M514.424 126.955C514.424 122.877 517.566 119.598 521.474 119.598C525.381 119.598 528.524 122.877 528.524 126.955C528.524 131.033 525.381 134.312 521.474 134.312C517.566 134.312 514.424 131.033 514.424 126.955Z" fill="#58FAFF"/>
<path d="M542.629 126.955C542.629 122.877 545.772 119.598 549.679 119.598C553.587 119.598 556.73 122.877 556.73 126.955C556.73 131.033 553.587 134.312 549.679 134.312C545.772 134.312 542.629 131.033 542.629 126.955Z" fill="#58FAFF"/>
<path d="M112.216 154.524C116.11 154.524 119.267 151.23 119.267 147.167C119.267 143.103 116.11 139.809 112.216 139.809C108.323 139.809 105.166 143.103 105.166 147.167C105.166 151.23 108.323 154.524 112.216 154.524Z" fill="#58FAFF"/>
<path d="M133.359 147.167C133.359 143.089 136.502 139.809 140.41 139.809C144.317 139.809 147.46 143.089 147.46 147.167C147.46 151.244 144.317 154.524 140.41 154.524C136.502 154.524 133.359 151.244 133.359 147.167Z" fill="#58FAFF"/>
<path d="M161.648 147.167C161.648 143.089 164.791 139.809 168.699 139.809C172.606 139.809 175.749 143.089 175.749 147.167C175.749 151.244 172.606 154.524 168.699 154.524C164.791 154.524 161.648 151.244 161.648 147.167Z" fill="#58FAFF"/>
<path d="M189.855 147.167C189.855 143.089 192.999 139.809 196.906 139.809C200.813 139.809 203.956 143.089 203.956 147.167C203.956 151.244 200.813 154.524 196.906 154.524C192.999 154.524 189.855 151.244 189.855 147.167Z" fill="#58FAFF"/>
<path d="M218.061 147.167C218.061 143.089 221.203 139.809 225.11 139.809C229.018 139.809 232.161 143.089 232.161 147.167C232.161 151.244 229.018 154.524 225.11 154.524C221.203 154.524 218.061 151.244 218.061 147.167Z" fill="#58FAFF"/>
<path d="M246.254 147.167C246.254 143.089 249.396 139.809 253.304 139.809C257.211 139.809 260.354 143.089 260.354 147.167C260.354 151.244 257.211 154.524 253.304 154.524C249.396 154.524 246.254 151.244 246.254 147.167Z" fill="#58FAFF"/>
<path d="M274.461 147.167C274.461 143.089 277.603 139.809 281.511 139.809C285.418 139.809 288.561 143.089 288.561 147.167C288.561 151.244 285.418 154.524 281.511 154.524C277.603 154.524 274.461 151.244 274.461 147.167Z" fill="#58FAFF"/>
<path d="M302.66 147.167C302.66 143.089 305.803 139.809 309.711 139.809C313.618 139.809 316.761 143.089 316.761 147.167C316.761 151.244 313.618 154.524 309.711 154.524C305.803 154.524 302.66 151.244 302.66 147.167Z" fill="#58FAFF"/>
<path d="M330.949 147.167C330.949 143.089 334.092 139.809 338 139.809C341.907 139.809 345.05 143.089 345.05 147.167C345.05 151.244 341.907 154.524 338 154.524C334.092 154.524 330.949 151.244 330.949 147.167Z" fill="#58FAFF"/>
<path d="M359.143 147.167C359.143 143.089 362.286 139.809 366.193 139.809C370.1 139.809 373.243 143.089 373.243 147.167C373.243 151.244 370.1 154.524 366.193 154.524C362.286 154.524 359.143 151.244 359.143 147.167Z" fill="#58FAFF"/>
<path d="M387.35 147.167C387.35 143.089 390.493 139.809 394.4 139.809C398.307 139.809 401.45 143.089 401.45 147.167C401.45 151.244 398.307 154.524 394.4 154.524C390.493 154.524 387.35 151.244 387.35 147.167Z" fill="#58FAFF"/>
<path d="M415.549 147.167C415.549 143.089 418.691 139.809 422.599 139.809C426.506 139.809 429.649 143.089 429.649 147.167C429.649 151.244 426.506 154.524 422.599 154.524C418.691 154.524 415.549 151.244 415.549 147.167Z" fill="#58FAFF"/>
<path d="M443.748 147.167C443.748 143.089 446.891 139.809 450.798 139.809C454.705 139.809 457.848 143.089 457.848 147.167C457.848 151.244 454.705 154.524 450.798 154.524C446.891 154.524 443.748 151.244 443.748 147.167Z" fill="#58FAFF"/>
<path d="M471.949 147.167C471.949 143.089 475.092 139.809 478.999 139.809C482.907 139.809 486.05 143.089 486.05 147.167C486.05 151.244 482.907 154.524 478.999 154.524C475.092 154.524 471.949 151.244 471.949 147.167Z" fill="#58FAFF"/>
<path d="M500.236 147.167C500.236 143.089 503.379 139.809 507.287 139.809C511.194 139.809 514.337 143.089 514.337 147.167C514.337 151.244 511.194 154.524 507.287 154.524C503.379 154.524 500.236 151.244 500.236 147.167Z" fill="#58FAFF"/>
<path d="M528.443 147.167C528.443 143.089 531.586 139.809 535.494 139.809C539.401 139.809 542.544 143.089 542.544 147.167C542.544 151.244 539.401 154.524 535.494 154.524C531.586 154.524 528.443 151.244 528.443 147.167Z" fill="#58FAFF"/>
<path d="M563.605 154.524C567.499 154.524 570.656 151.23 570.656 147.167C570.656 143.103 567.499 139.809 563.605 139.809C559.711 139.809 556.555 143.103 556.555 147.167C556.555 151.23 559.711 154.524 563.605 154.524Z" fill="#58FAFF"/>
<path d="M91.2344 166.136C91.2344 162.058 94.3769 158.778 98.2843 158.778C102.192 158.778 105.335 162.058 105.335 166.136C105.335 170.213 102.192 173.493 98.2843 173.493C94.3769 173.493 91.2344 170.213 91.2344 166.136Z" fill="#58FAFF"/>
<path d="M119.434 166.136C119.434 162.058 122.576 158.778 126.484 158.778C130.391 158.778 133.534 162.058 133.534 166.136C133.534 170.213 130.391 173.493 126.484 173.493C122.576 173.493 119.434 170.213 119.434 166.136Z" fill="#58FAFF"/>
<path d="M147.641 166.136C147.641 162.058 150.784 158.778 154.691 158.778C158.598 158.778 161.742 162.058 161.742 166.136C161.742 170.213 158.598 173.493 154.691 173.493C150.784 173.493 147.641 170.213 147.641 166.136Z" fill="#58FAFF"/>
<path d="M175.836 166.136C175.836 162.058 178.979 158.778 182.886 158.778C186.794 158.778 189.937 162.058 189.937 166.136C189.937 170.213 186.794 173.493 182.886 173.493C178.979 173.493 175.836 170.213 175.836 166.136Z" fill="#58FAFF"/>
<path d="M204.041 166.136C204.041 162.058 207.184 158.778 211.091 158.778C214.999 158.778 218.142 162.058 218.142 166.136C218.142 170.213 214.999 173.493 211.091 173.493C207.184 173.493 204.041 170.213 204.041 166.136Z" fill="#58FAFF"/>
<path d="M232.248 166.136C232.248 162.058 235.391 158.778 239.299 158.778C243.206 158.778 246.348 162.058 246.348 166.136C246.348 170.213 243.206 173.493 239.299 173.493C235.391 173.493 232.248 170.213 232.248 166.136Z" fill="#58FAFF"/>
<path d="M260.441 166.136C260.441 162.058 263.584 158.778 267.492 158.778C271.399 158.778 274.542 162.058 274.542 166.136C274.542 170.213 271.399 173.493 267.492 173.493C263.584 173.493 260.441 170.213 260.441 166.136Z" fill="#58FAFF"/>
<path d="M288.73 166.136C288.73 162.058 291.873 158.778 295.78 158.778C299.688 158.778 302.831 162.058 302.831 166.136C302.831 170.213 299.688 173.493 295.78 173.493C291.873 173.493 288.73 170.213 288.73 166.136Z" fill="#58FAFF"/>
<path d="M316.93 166.136C316.93 162.058 320.072 158.778 323.98 158.778C327.887 158.778 331.03 162.058 331.03 166.136C331.03 170.213 327.887 173.493 323.98 173.493C320.072 173.493 316.93 170.213 316.93 166.136Z" fill="#58FAFF"/>
<path d="M345.137 166.136C345.137 162.058 348.28 158.778 352.187 158.778C356.095 158.778 359.238 162.058 359.238 166.136C359.238 170.213 356.095 173.493 352.187 173.493C348.28 173.493 345.137 170.213 345.137 166.136Z" fill="#58FAFF"/>
<path d="M373.328 166.136C373.328 162.058 376.471 158.778 380.379 158.778C384.286 158.778 387.429 162.058 387.429 166.136C387.429 170.213 384.286 173.493 380.379 173.493C376.471 173.493 373.328 170.213 373.328 166.136Z" fill="#58FAFF"/>
<path d="M401.535 166.136C401.535 162.058 404.678 158.778 408.586 158.778C412.493 158.778 415.636 162.058 415.636 166.136C415.636 170.213 412.493 173.493 408.586 173.493C404.678 173.493 401.535 170.213 401.535 166.136Z" fill="#58FAFF"/>
<path d="M429.736 166.136C429.736 162.058 432.879 158.778 436.787 158.778C440.694 158.778 443.837 162.058 443.837 166.136C443.837 170.213 440.694 173.493 436.787 173.493C432.879 173.493 429.736 170.213 429.736 166.136Z" fill="#58FAFF"/>
<path d="M458.023 166.136C458.023 162.058 461.166 158.778 465.073 158.778C468.981 158.778 472.124 162.058 472.124 166.136C472.124 170.213 468.981 173.493 465.073 173.493C461.166 173.493 458.023 170.213 458.023 166.136Z" fill="#58FAFF"/>
<path d="M486.225 166.136C486.225 162.058 489.367 158.778 493.275 158.778C497.182 158.778 500.325 162.058 500.325 166.136C500.325 170.213 497.182 173.493 493.275 173.493C489.367 173.493 486.225 170.213 486.225 166.136Z" fill="#58FAFF"/>
<path d="M514.424 166.136C514.424 162.058 517.566 158.778 521.474 158.778C525.381 158.778 528.524 162.058 528.524 166.136C528.524 170.213 525.381 173.493 521.474 173.493C517.566 173.493 514.424 170.213 514.424 166.136Z" fill="#58FAFF"/>
<path d="M542.629 166.136C542.629 162.058 545.772 158.778 549.679 158.778C553.587 158.778 556.73 162.058 556.73 166.136C556.73 170.213 553.587 173.493 549.679 173.493C545.772 173.493 542.629 170.213 542.629 166.136Z" fill="#58FAFF"/>
</g>
</svg>
