<svg width="517" height="82" viewBox="0 0 517 82" fill="none" xmlns="http://www.w3.org/2000/svg">
<g clip-path="url(#clip0_5599_87972)">
<path d="M10.1302 66.8886L8.8623 76.2617L21.4105 74.4608L22.4301 66.8886H10.1302Z" fill="white"/>
<path d="M27.3444 30.3239L31.3441 0.649292L18.7959 2.45024L16.783 17.4854H5.94706L4.22168 30.3239H15.0445H27.3444Z" fill="white"/>
<path d="M247.867 2.34113V26.2036L217.385 38.3054V2.34113H200.732V80.8595H217.385V57.611L247.867 45.5228V80.8595H264.506V2.34113H247.867Z" fill="#000001"/>
<path d="M341.482 2.34106H320.254L292.674 37.2957V2.34106H276.048V80.8595H292.674V41.8117L321.051 80.8595H343.089L310.843 39.4514L341.482 2.34106Z" fill="#000001"/>
<path d="M31.959 30.3239H44.7948H46.0496L44.1412 44.4313H56.4411L58.3364 30.3239L61.7218 5.26074L49.1736 7.06169L47.775 17.4853H33.6844L31.959 30.3239Z" fill="white"/>
<path d="M64.6886 17.4856L62.9502 30.3241H72.5313L74.2567 17.4856H64.6886Z" fill="white"/>
<path d="M43.5005 49.2475H34.3899H24.7958L26.6911 35.1401H14.4043L12.4959 49.2475H1.72538L0 62.0724H10.7705H23.0704H38.1936H41.7751L39.2393 80.8732L51.7744 79.0722L54.0619 62.0724H68.3093L70.0347 49.2475H55.8003H43.5005Z" fill="white"/>
<path d="M135.495 2.34106H119.848V24.6209C116.097 22.4789 111.823 21.21 107.274 21.06L105.313 35.6039C105.666 35.5767 106.032 35.5494 106.398 35.5494C114.28 35.5494 120.659 42.221 120.659 50.4344C120.659 56.6559 116.999 61.9905 111.797 64.2144L109.718 79.6179C113.339 79.1677 116.764 77.9943 119.835 76.2616V80.8595H136.501V2.34106H135.481H135.495Z" fill="white"/>
<path d="M92.1377 50.448C92.1377 44.4039 95.5884 39.2194 100.542 36.8863L102.634 21.3191C88.8699 23.2428 78.2432 35.5493 78.2432 50.448C78.2432 66.2335 90.164 79.0994 105.104 79.8088L107.052 65.3058C106.843 65.3058 106.62 65.3331 106.398 65.3331C98.5164 65.3331 92.1377 58.6614 92.1377 50.448Z" fill="white"/>
<path d="M199.725 2.34106H184.079V24.6209C180.328 22.4789 176.053 21.21 171.505 21.06L169.544 35.6039C169.91 35.5767 170.263 35.5494 170.629 35.5494C178.511 35.5494 184.889 42.221 184.889 50.4344C184.889 56.6559 181.229 61.9905 176.027 64.2144L173.949 79.6179C177.583 79.1677 180.994 77.9943 184.066 76.2616V80.8595H200.731V2.34106H199.712H199.725Z" fill="white"/>
<path d="M156.368 50.4479C156.368 44.4039 159.819 39.2193 164.773 36.8863L166.864 21.319C153.087 23.2428 142.474 35.5492 142.474 50.4479C142.474 66.2335 154.381 79.0993 169.335 79.8088L171.282 65.3057C171.073 65.3057 170.851 65.333 170.629 65.333C162.76 65.333 156.368 58.6613 156.368 50.4479Z" fill="white"/>
<path d="M354.63 13.7469C354.63 10.0223 357.192 7.37542 360.198 7.37542C361.845 7.37542 363.048 8.0576 363.832 9.06722L363.858 2.20453H367.453V19.8456H363.832V18.4403C363.048 19.4226 361.871 20.0912 360.198 20.0912C357.192 20.0912 354.63 17.458 354.63 13.7333V13.7469ZM364.289 13.7469C364.289 11.755 362.969 10.5134 361.296 10.5134C359.623 10.5134 358.251 11.7686 358.251 13.7469C358.251 15.7252 359.571 16.9805 361.296 16.9805C363.022 16.9805 364.289 15.7252 364.289 13.7469Z" fill="white"/>
<path d="M382.275 14.3883H373.661C373.792 16.1892 374.968 17.1579 376.458 17.1579C377.556 17.1579 378.524 16.6531 379.073 15.6025L381.883 16.8441C380.994 18.8497 379.033 20.0913 376.445 20.0913C372.589 20.0913 370.093 17.308 370.093 13.788C370.093 10.2679 372.642 7.44373 376.328 7.44373C379.674 7.44373 382.262 9.8177 382.288 13.6515L382.249 14.4019L382.275 14.3883ZM373.753 12.2053H378.824C378.667 10.8546 377.687 10.0906 376.38 10.0906C375.073 10.0906 374.066 10.8546 373.766 12.2053H373.753Z" fill="white"/>
<path d="M383.858 18.5497L385.283 15.9438C386.276 16.7215 387.766 17.3627 388.825 17.3627C389.557 17.3627 390.067 17.0489 390.067 16.4486C390.067 15.63 389.021 15.3981 387.792 14.9478C386.276 14.4021 384.42 13.7199 384.42 11.2777C384.42 8.67182 386.498 7.47119 388.903 7.47119C390.367 7.47119 391.936 7.92143 393.191 8.75368L391.74 11.1277C390.942 10.5819 389.687 10.118 388.851 10.118C388.197 10.118 387.766 10.4045 387.766 10.8957C387.766 11.6325 388.877 11.8371 390.171 12.2737C391.74 12.8194 393.504 13.5835 393.504 16.1348C393.504 18.8226 391.504 20.1051 388.877 20.1051C387.06 20.1051 385.178 19.4911 383.845 18.5634L383.858 18.5497Z" fill="white"/>
<path d="M396 4.06014C396 2.91409 396.915 1.98633 398.026 1.98633C399.137 1.98633 400.013 2.91409 400.013 4.06014C400.013 5.2062 399.098 6.13396 398.026 6.13396C396.954 6.13396 396 5.21984 396 4.06014ZM396.209 7.70296H399.791V19.873H396.209V7.70296Z" fill="white"/>
<path d="M402.601 22.9019L404.823 20.7462C405.973 22.2606 407.307 22.6699 408.457 22.6699C410.339 22.6699 411.476 21.5512 411.476 19.4091V18.0721C410.744 19.0544 409.633 19.7366 408.012 19.7366C404.915 19.7366 402.483 17.1989 402.483 13.5697C402.483 9.94054 404.902 7.47107 407.96 7.47107C409.607 7.47107 410.744 8.16689 411.476 9.19015V7.70301H415.071V19.0135C415.071 23.3385 412.587 25.5897 408.509 25.5897C406.601 25.5897 404.457 25.0712 402.588 22.9019H402.601ZM411.803 13.5697C411.803 11.6733 410.535 10.4863 408.94 10.4863C407.346 10.4863 406.091 11.6733 406.091 13.5697C406.091 15.4662 407.346 16.6122 408.94 16.6122C410.535 16.6122 411.803 15.4525 411.803 13.5697Z" fill="white"/>
<path d="M429.711 11.9052V19.8594H426.09V12.642C426.09 10.9502 425.371 10.5681 424.352 10.5681C423.201 10.5681 422.378 11.3185 422.365 12.9421V19.8594H418.744V7.70301H422.365V9.40845C423.162 8.24875 424.365 7.47107 425.92 7.47107C428.364 7.47107 429.724 9.05372 429.724 11.9052H429.711Z" fill="white"/>
<path d="M436.312 13.7468C436.312 10.0221 438.873 7.37526 441.88 7.37526C443.527 7.37526 444.729 8.05744 445.514 9.06706V2.21802H449.134V19.8591H445.514V18.4538C444.729 19.4361 443.553 20.1047 441.88 20.1047C438.873 20.1047 436.312 17.4715 436.312 13.7468ZM445.958 13.7468C445.958 11.7548 444.638 10.5133 442.952 10.5133C441.265 10.5133 439.906 11.7685 439.906 13.7468C439.906 15.7251 441.226 16.9803 442.952 16.9803C444.677 16.9803 445.958 15.7251 445.958 13.7468Z" fill="white"/>
<path d="M452.572 4.0602C452.572 2.91415 453.487 1.98639 454.598 1.98639C455.709 1.98639 456.585 2.91415 456.585 4.0602C456.585 5.20626 455.67 6.13402 454.598 6.13402C453.526 6.13402 452.572 5.2199 452.572 4.0602ZM452.781 7.70302H456.363V19.873H452.781V7.70302Z" fill="white"/>
<path d="M458.899 18.5497L460.324 15.9438C461.317 16.7215 462.807 17.3627 463.866 17.3627C464.598 17.3627 465.094 17.0489 465.094 16.4486C465.094 15.63 464.049 15.3981 462.82 14.9478C461.304 14.4021 459.448 13.7199 459.448 11.2777C459.448 8.67182 461.526 7.47119 463.931 7.47119C465.395 7.47119 466.951 7.92143 468.218 8.75368L466.768 11.1277C465.97 10.5819 464.715 10.118 463.892 10.118C463.238 10.118 462.794 10.4045 462.794 10.8957C462.794 11.6325 463.905 11.8371 465.212 12.2737C466.768 12.8194 468.545 13.5835 468.545 16.1348C468.545 18.8226 466.558 20.1051 463.918 20.1051C462.101 20.1051 460.219 19.4911 458.886 18.5634L458.899 18.5497Z" fill="white"/>
<path d="M475.316 10.1861V15.4934C475.316 16.5713 475.852 17.0351 476.623 17.0351H477.773V19.8594H475.643C473.172 19.8594 471.708 18.4404 471.708 15.9164V10.1861H469.904V7.68934H471.708V4.3194H475.316V7.68934H477.825V10.1861H475.316Z" fill="white"/>
<path d="M488.073 7.58032V11.1549C485.59 11.1549 484.257 12.0827 484.257 14.3339V19.8595H480.662V7.70311H484.087V10.1317C484.662 9.04018 486.034 7.74404 488.073 7.59397V7.58032Z" fill="white"/>
<path d="M490.177 4.06014C490.177 2.91409 491.092 1.98633 492.203 1.98633C493.314 1.98633 494.19 2.91409 494.19 4.06014C494.19 5.2062 493.275 6.13396 492.203 6.13396C491.131 6.13396 490.177 5.21984 490.177 4.06014ZM490.386 7.70296H493.967V19.873H490.386V7.70296Z" fill="white"/>
<path d="M496.635 13.7745C496.635 10.0498 499.406 7.47119 503.105 7.47119C505.144 7.47119 506.909 8.2898 508.085 9.62687L505.575 11.878C505.026 11.1004 504.151 10.6092 503.105 10.6092C501.406 10.6092 500.072 11.8508 500.072 13.7745C500.072 15.6982 501.406 16.9261 503.105 16.9261C504.151 16.9261 505.026 16.4486 505.575 15.6573L508.085 17.9085C506.909 19.2455 505.144 20.0642 503.105 20.0642C499.406 20.0642 496.635 17.4855 496.635 13.7608V13.7745Z" fill="white"/>
<path d="M514.424 10.1861V15.4934C514.424 16.5713 514.96 17.0351 515.731 17.0351H516.881V19.8594H514.764C512.294 19.8594 510.83 18.4404 510.83 15.9164V10.1861H509.013V7.68934H510.83V4.3194H514.437V7.68934H516.947V10.1861H514.437H514.424Z" fill="white"/>
<path d="M399.06 57.106H395.963V65.2921H391.048V68.3482H395.963V80.6547H399.06V68.3482H404.223V65.2921H399.06V57.106Z" fill="#000001"/>
<path d="M382.42 80.6545H390.053V71.6498H382.42V80.6545ZM384.943 74.1329H387.491V78.1441H384.943V74.1329Z" fill="#000001"/>
<path d="M390.08 68.0617H382.395V70.4084H390.08V68.0617Z" fill="#000001"/>
<path d="M390.041 65.6332V65.1693V64.569H382.395V66.9157H390.041V65.6332Z" fill="#000001"/>
<path d="M390.041 60.9399H387.322C387.1 60.2168 386.786 59.3026 386.485 58.4158C386.342 57.9929 386.198 57.5836 386.067 57.2015L383.727 57.9519C383.845 58.3476 383.989 58.7842 384.133 59.2481C384.316 59.8211 384.512 60.4078 384.669 60.9399H382.407V63.3957H390.054V60.9399H390.041Z" fill="#000001"/>
<path d="M355.205 80.6545H362.852V71.6498H355.205V80.6545ZM357.728 74.1329H360.277V78.1441H357.728V74.1329Z" fill="#000001"/>
<path d="M362.879 68.0617H355.18V70.4084H362.879V68.0617Z" fill="#000001"/>
<path d="M362.826 65.6331V65.1692V64.5689H355.18V66.9156H362.826V65.6331Z" fill="#000001"/>
<path d="M362.826 60.9399H360.094C359.872 60.2168 359.558 59.3026 359.258 58.4158C359.114 57.9929 358.97 57.5836 358.84 57.2015L356.5 57.9519C356.617 58.3476 356.761 58.7842 356.905 59.2481C357.088 59.8211 357.271 60.4078 357.441 60.9399H355.18V63.3957H362.826V60.9399Z" fill="#000001"/>
<path d="M377.113 69.5623L377.152 69.4259C377.231 69.153 377.309 68.8802 377.388 68.6073H377.362L377.545 67.8978H364.408L364.591 68.5936H364.565C364.63 68.8802 364.722 69.153 364.8 69.4259L364.84 69.5623C365.689 72.3047 366.944 74.4876 368.565 76.1931C367.035 77.0253 365.323 77.6802 363.389 78.0759C363.389 78.0759 365.258 81.0775 365.219 80.8728C367.401 80.3271 369.31 79.4675 370.983 78.3351C372.656 79.4675 374.564 80.3271 376.747 80.8728C376.708 81.0775 378.564 78.0759 378.564 78.0759C376.643 77.6802 374.917 77.039 373.388 76.1931C375.009 74.4876 376.277 72.3183 377.113 69.5623ZM368.343 70.7902H373.623C372.957 72.2092 372.068 73.4234 370.983 74.4604C369.898 73.4234 369.009 72.2092 368.343 70.7902Z" fill="#000001"/>
<path d="M369.428 60.3668V60.3395H372.421V64.1187C372.421 65.7423 373.127 66.9293 375.218 66.9293H377.924V64.2279H375.898C375.205 64.2279 375.153 63.9141 375.153 63.1637V57.488H366.735V60.2713C366.735 61.7311 366.474 63.4911 364.056 64.3916V67.1203C367.964 66.1925 369.441 63.7503 369.441 60.3668H369.428Z" fill="#000001"/>
<path d="M461.606 64.244L459.977 66.7833L463.81 69.4632L465.44 66.9239L461.606 64.244Z" fill="#000001"/>
<path d="M461.357 59.9713L465.187 62.6454L466.703 60.2987L462.874 57.611L461.357 59.9713Z" fill="#000001"/>
<path d="M480.101 78.1442C479.918 78.3489 479.591 78.3762 479.094 78.3762H473.356C472.389 78.3762 472.141 78.2398 472.141 77.2165V75.6202H478.781V71.5681L478.898 71.7182C479.656 72.6732 480.388 73.3963 481.12 73.942L483.055 71.6499C480.297 69.6171 479.055 67.3113 479.042 67.284L478.99 67.1749H482.82V64.5826H478.964V62.2223H482.114V59.6573H478.964V57.106H476.232V59.6573H472.729V57.106H470.049V59.6573H467.017V62.2223H470.049V64.5826H466.102V67.1749H469.853L469.801 67.284C468.794 69.235 467.226 71.1178 465.67 72.2093L465.644 72.2366H465.605L463.775 71.3634L460.39 79.0447L463.017 80.3545L466.102 72.7005L466.167 72.7823C466.245 72.8642 466.337 72.9597 466.415 73.0552V73.0825L467.487 74.4196C468.167 73.8738 468.873 73.1644 469.644 72.2503L469.762 72.1138V77.2711C469.762 80.068 469.905 80.7229 473.578 80.7229H479.983C482.035 80.7229 482.454 80.4227 482.454 76.9436H480.297C480.297 77.5576 480.284 77.9532 480.075 78.1715L480.101 78.1442ZM476.65 73.6146H472.141V71.4862H476.65V73.6146ZM472.729 62.2223H476.232V64.5826H472.729V62.2223ZM471.539 69.3851C471.944 68.6484 472.271 67.9389 472.559 67.2294V67.1885H476.284V67.2294C476.624 68.0344 477.029 68.7984 477.343 69.3851L477.395 69.4943H471.474L471.526 69.3851H471.539Z" fill="#000001"/>
<path d="M495.956 76.7391C495.956 79.4268 496.519 80.6957 499.656 80.6957H506.152C507.158 80.6957 507.943 80.4092 508.479 79.8361C509.407 78.8402 509.367 77.2439 509.341 76.4662C509.341 76.398 509.341 76.3434 509.341 76.2888H506.805V76.3843C506.805 77.0665 506.805 77.5167 506.544 77.7896C506.322 78.0352 505.89 78.117 505.093 78.117H500.374C498.937 78.117 498.61 78.0215 498.61 77.0938V68.1027H498.649L500.767 67.1204V75.2383H503.342V65.947H503.381L505.394 64.9511V73.1099H507.969V60.9399L503.42 62.9591H503.342V57.147H500.767V64.1461L498.61 65.1148V59.6164H495.956V66.3018L494.074 67.175V70.1765L495.956 69.3033V76.7118V76.7391Z" fill="#000001"/>
<path d="M494.793 71.6908L491.983 73.0006V65.7968H493.709V63.0545H491.983V57.5152H489.434V63.0545H486.794V65.7968H489.434V74.1876L486.794 75.4155V78.1442L494.793 74.4195V71.6908Z" fill="#000001"/>
<path d="M447.502 60.5306H447.554C450.416 60.1895 452.717 59.7939 454.586 59.33V56.5604C451.161 57.3517 445.463 58.3613 437.528 58.7297V61.1992C439.79 61.1446 442.09 61.0218 444.378 60.8171H444.456V62.7409H434.64V65.3059H441.567L441.41 65.4286C439.868 66.602 437.907 67.6662 435.881 68.4302V71.5409C436.914 71.1453 437.829 70.7633 438.208 70.5859L438.3 70.545V80.6139H454.089V70.545H438.313L438.574 70.4085C440.757 69.2898 442.757 67.8435 444.351 66.22L444.469 66.0972V69.0987H447.515V66.1517L447.619 66.2063C450.56 67.8163 454.508 70.4495 456.521 72.1549V68.6485C455.122 67.6798 453.266 66.5474 451.279 65.4559L451.044 65.3195H457.396V62.7545H447.528V60.5306H447.502ZM441.097 76.4935H449.972V74.5698H441.097V72.7279H449.972H451.161V78.5128H441.097V76.5072V76.4935Z" fill="#000001"/>
<path d="M417.766 65.9471H421.648H422.027L421.452 70.2448H425.177L425.752 65.9471L426.772 58.3068L422.981 58.8661L422.55 62.0314H418.288L417.766 65.9471Z" fill="#000001"/>
<path d="M427.674 62.0314L427.138 65.9471H430.039L430.562 62.0314H427.674Z" fill="#000001"/>
<path d="M421.255 71.7182H418.497H415.596L416.171 67.4205H412.445L411.87 71.7182H408.616L408.093 75.6203H411.347H415.073H419.648H420.733L419.961 81.3506L423.765 80.8048L424.458 75.6203H428.758L429.281 71.7182H424.981H421.255Z" fill="#000001"/>
<path d="M411.151 77.0941L410.772 79.9455L414.576 79.3998L414.877 77.0941H411.151Z" fill="#000001"/>
<path d="M416.367 65.947L417.583 56.9013L413.779 57.447L413.178 62.0313H409.897L409.374 65.947H412.655H416.367Z" fill="#000001"/>
<path d="M369.519 28.7278V46.4098H365.781V39.2333H358.932V46.4098H355.193V28.7278H358.932V35.8497H365.781V28.7278H369.519Z" fill="black"/>
<path d="M372.29 40.3249C372.29 36.6002 375.061 34.0079 378.76 34.0079C382.459 34.0079 385.243 36.6138 385.243 40.3249C385.243 44.0359 382.459 46.6555 378.76 46.6555C375.061 46.6555 372.29 44.0496 372.29 40.3249ZM381.806 40.3249C381.806 38.4421 380.433 37.1459 378.747 37.1459C377.061 37.1459 375.702 38.4011 375.702 40.3249C375.702 42.2486 377.048 43.4902 378.747 43.4902C380.446 43.4902 381.806 42.2213 381.806 40.3249Z" fill="black"/>
<path d="M398.59 38.4421V46.4236H394.956V39.1925C394.956 37.5007 394.237 37.105 393.218 37.105C392.054 37.105 391.231 37.8691 391.218 39.4927V46.4236H387.584V34.2263H391.218V35.9317C392.015 34.772 393.231 33.9943 394.773 33.9943C397.217 33.9943 398.59 35.5906 398.59 38.4421Z" fill="black"/>
<path d="M400.85 49.4662L403.072 47.2969C404.222 48.8113 405.569 49.2342 406.732 49.2342C408.614 49.2342 409.751 48.1155 409.751 45.9598V44.6227C409.02 45.6187 407.908 46.2872 406.275 46.2872C403.164 46.2872 400.732 43.7496 400.732 40.1067C400.732 36.4639 403.164 33.9944 406.209 33.9944C407.869 33.9944 408.993 34.6903 409.738 35.7135V34.2264H413.346V45.5505C413.346 49.8891 410.849 52.154 406.771 52.154C404.863 52.154 402.706 51.6355 400.837 49.4662H400.85ZM410.078 40.1067C410.078 38.2103 408.81 37.0233 407.216 37.0233C405.621 37.0233 404.353 38.2103 404.353 40.1067C404.353 42.0032 405.608 43.1629 407.216 43.1629C408.823 43.1629 410.078 42.0032 410.078 40.1067Z" fill="black"/>
<path d="M429.215 46.4235L422.836 37.6507V46.4235H419.098V28.7415H422.836V36.6411L429.071 28.7415H433.842L426.914 37.1186L434.169 46.4235H429.215Z" fill="black"/>
<path d="M434.6 40.3249C434.6 36.6002 437.371 34.0079 441.07 34.0079C444.769 34.0079 447.553 36.6138 447.553 40.3249C447.553 44.0359 444.769 46.6555 441.07 46.6555C437.371 46.6555 434.6 44.0496 434.6 40.3249ZM444.115 40.3249C444.115 38.4421 442.743 37.1459 441.057 37.1459C439.371 37.1459 438.011 38.4011 438.011 40.3249C438.011 42.2486 439.357 43.4902 441.057 43.4902C442.756 43.4902 444.115 42.2213 444.115 40.3249Z" fill="black"/>
<path d="M460.899 38.4421V46.4236H457.266V39.1925C457.266 37.5007 456.547 37.105 455.527 37.105C454.364 37.105 453.54 37.8691 453.527 39.4927V46.4236H449.894V34.2263H453.527V35.9317C454.325 34.772 455.54 33.9943 457.083 33.9943C459.527 33.9943 460.899 35.5906 460.899 38.4421Z" fill="black"/>
<path d="M463.16 49.4662L465.382 47.2969C466.532 48.8113 467.879 49.2342 469.029 49.2342C470.911 49.2342 472.048 48.1155 472.048 45.9598V44.6227C471.316 45.6187 470.205 46.2872 468.571 46.2872C465.461 46.2872 463.029 43.7496 463.029 40.1067C463.029 36.4639 465.461 33.9944 468.506 33.9944C470.166 33.9944 471.29 34.6903 472.035 35.7135V34.2264H475.643V45.5505C475.643 49.8891 473.146 52.154 469.068 52.154C467.16 52.154 465.003 51.6355 463.134 49.4662H463.16ZM472.388 40.1067C472.388 38.2103 471.12 37.0233 469.526 37.0233C467.931 37.0233 466.663 38.2103 466.663 40.1067C466.663 42.0032 467.918 43.1629 469.526 43.1629C471.133 43.1629 472.388 42.0032 472.388 40.1067Z" fill="black"/>
</g>
<defs>
<clipPath id="clip0_5599_87972">
<rect width="516.934" height="80.7014" fill="white" transform="translate(0 0.649292)"/>
</clipPath>
</defs>
</svg>
