<svg width="1289" height="843" viewBox="0 0 1289 843" fill="none" xmlns="http://www.w3.org/2000/svg">
<path d="M1262.03 339.037C1313.54 454.461 1296.29 657.652 1166.32 755.018C1007.04 874.338 699.74 855.872 526.684 796.169C399.433 752.269 203.477 671.254 78.2676 521.945C-46.942 372.636 -11.4591 198.264 110.753 110.915C240.775 17.9832 511.976 -17.7178 748.265 8.23544C984.554 34.1887 1177.87 150.426 1262.03 339.037Z" fill="#DADADC"/>
<path d="M1262.03 339.037C1313.54 454.461 1296.29 657.652 1166.32 755.018C1007.04 874.338 699.74 855.872 526.684 796.169C399.433 752.269 203.477 671.254 78.2676 521.945C-46.942 372.636 -11.4591 198.264 110.753 110.915C240.775 17.9832 511.976 -17.7178 748.265 8.23544C984.554 34.1887 1177.87 150.426 1262.03 339.037Z" fill="url(#paint0_linear_5401_3360)"/>
<path d="M1262.03 339.037C1313.54 454.461 1296.29 657.652 1166.32 755.018C1007.04 874.338 699.74 855.872 526.684 796.169C399.433 752.269 203.477 671.254 78.2676 521.945C-46.942 372.636 -11.4591 198.264 110.753 110.915C240.775 17.9832 511.976 -17.7178 748.265 8.23544C984.554 34.1887 1177.87 150.426 1262.03 339.037Z" fill="url(#paint1_linear_5401_3360)"/>
<defs>
<linearGradient id="paint0_linear_5401_3360" x1="-6.78868" y1="453.08" x2="1284.86" y2="360.03" gradientUnits="userSpaceOnUse">
<stop offset="0.31" stop-color="#58FAFF"/>
<stop offset="1" stop-color="#B2FDFF"/>
</linearGradient>
<linearGradient id="paint1_linear_5401_3360" x1="-16.6762" y1="219.438" x2="1264.89" y2="820.512" gradientUnits="userSpaceOnUse">
<stop offset="0.155" stop-color="#88DA86"/>
<stop offset="0.835" stop-color="#1FF4C4"/>
</linearGradient>
</defs>
</svg>
