<svg width="375" height="439" viewBox="0 0 375 439" fill="none" xmlns="http://www.w3.org/2000/svg">
<path d="M455.117 176.937C477.814 236.908 470.214 342.481 412.941 393.07C342.755 455.065 207.341 445.471 131.084 414.451C75.0109 391.641 -11.3374 349.548 -66.5112 271.971C-121.685 194.394 -106.049 103.795 -52.1965 58.4106C5.09769 10.126 124.603 -8.42334 228.724 5.06126C332.845 18.5459 418.029 78.9396 455.117 176.937Z" fill="#DADADC"/>
<path d="M455.117 176.937C477.814 236.908 470.214 342.481 412.941 393.07C342.755 455.065 207.341 445.471 131.084 414.451C75.0109 391.641 -11.3374 349.548 -66.5112 271.971C-121.685 194.394 -106.049 103.795 -52.1965 58.4106C5.09769 10.126 124.603 -8.42334 228.724 5.06126C332.845 18.5459 418.029 78.9396 455.117 176.937Z" fill="url(#paint0_linear_5599_91989)"/>
<path d="M455.117 176.937C477.814 236.908 470.214 342.481 412.941 393.07C342.755 455.065 207.341 445.471 131.084 414.451C75.0109 391.641 -11.3374 349.548 -66.5112 271.971C-121.685 194.394 -106.049 103.795 -52.1965 58.4106C5.09769 10.126 124.603 -8.42334 228.724 5.06126C332.845 18.5459 418.029 78.9396 455.117 176.937Z" fill="url(#paint1_linear_5599_91989)"/>
<defs>
<linearGradient id="paint0_linear_5599_91989" x1="-103.991" y1="236.191" x2="466.004" y2="201.366" gradientUnits="userSpaceOnUse">
<stop offset="0.31" stop-color="#58FAFF"/>
<stop offset="1" stop-color="#B2FDFF"/>
</linearGradient>
<linearGradient id="paint1_linear_5599_91989" x1="-108.348" y1="114.797" x2="486.486" y2="351.405" gradientUnits="userSpaceOnUse">
<stop offset="0.155" stop-color="#88DA86"/>
<stop offset="0.835" stop-color="#1FF4C4"/>
</linearGradient>
</defs>
</svg>
