<svg width="241" height="47" viewBox="0 0 241 47" fill="none" xmlns="http://www.w3.org/2000/svg">
<g id="Group">
<path id="Vector" d="M14.8017 1.82233V45.9932H4.39065V8.38621H0.980469V1.82233H14.8017Z" fill="#414042"/>
<path id="Vector_2" d="M20.6716 15.2637C20.6716 13.4114 21.0896 11.6351 21.935 9.93471C22.7804 8.23437 23.9868 6.72401 25.5636 5.42264C27.1405 4.12126 29.0403 3.08586 31.2726 2.32593C33.5049 1.566 36.0032 1.18604 38.7864 1.18604C42.1111 1.18604 44.9703 1.5565 47.3736 2.28793C49.7674 3.02886 51.7622 4.02627 53.339 5.28965C54.9159 6.55303 56.0843 8.02539 56.8442 9.70673C57.6041 11.3881 57.9841 13.1739 57.9841 15.0737C57.9841 17.2585 57.3667 19.1678 56.1223 20.7827C54.8779 22.407 53.32 23.8129 51.4487 25.0098C49.5774 26.2067 47.5541 27.2516 45.3883 28.135C43.2225 29.0184 41.1992 29.8638 39.3279 30.6618C37.4565 31.4597 35.8987 32.2481 34.6543 33.027C33.4099 33.806 32.7925 34.6989 32.7925 35.7058V37.0357H56.4547V45.9933H20.6716V37.5961C20.6716 35.3638 21.308 33.4165 22.5999 31.7542C23.8823 30.0918 25.4877 28.6195 27.4255 27.3371C29.3633 26.0547 31.4626 24.8958 33.7329 23.8699C36.0032 22.844 38.112 21.8656 40.0403 20.9347C41.9781 20.0133 43.6025 19.0823 44.9323 18.1609C46.2527 17.2395 46.9176 16.2041 46.9176 15.0642C46.9176 14.0953 46.7087 13.2689 46.2812 12.5755C45.8632 11.882 45.2933 11.3121 44.5809 10.8751C43.8684 10.4382 43.08 10.0962 42.2156 9.86822C41.3512 9.64024 40.4772 9.51675 39.5938 9.51675C38.7104 9.51675 37.7605 9.61174 36.7536 9.80172C35.7467 9.99171 34.8063 10.3147 33.9419 10.7801C33.0774 11.2456 32.3555 11.8345 31.7666 12.547C31.1776 13.2594 30.8831 14.1713 30.8831 15.2637H20.6621H20.6716Z" fill="#414042"/>
<path id="Vector_3" d="M63.0762 41.6426C63.0762 40.1702 63.5891 38.9258 64.6245 37.9189C65.6504 36.912 66.8853 36.4086 68.3197 36.4086C69.754 36.4086 71.0364 36.912 72.0433 37.9189C73.0502 38.9258 73.5537 40.1702 73.5537 41.6426C73.5537 43.1149 73.0502 44.3593 72.0433 45.3662C71.0364 46.3731 69.792 46.8766 68.3197 46.8766C66.8473 46.8766 65.6599 46.3731 64.6245 45.3662C63.5891 44.3593 63.0762 43.1149 63.0762 41.6426Z" fill="#414042"/>
<path id="Vector_4" d="M79.613 15.2637C79.613 13.4114 80.031 11.6351 80.8764 9.93471C81.7218 8.23437 82.9282 6.72401 84.5051 5.42264C86.0819 4.12126 87.9817 3.08586 90.214 2.32593C92.4463 1.566 94.9446 1.18604 97.7278 1.18604C101.052 1.18604 103.912 1.5565 106.315 2.28793C108.709 3.02886 110.704 4.02627 112.28 5.28965C113.857 6.55303 115.026 8.02539 115.786 9.70673C116.546 11.3881 116.926 13.1739 116.926 15.0737C116.926 17.2585 116.308 19.1678 115.064 20.7827C113.819 22.407 112.261 23.8129 110.39 25.0098C108.519 26.2067 106.495 27.2516 104.33 28.135C102.164 29.0184 100.141 29.8638 98.2693 30.6618C96.3979 31.4597 94.8401 32.2481 93.5957 33.027C92.3513 33.806 91.7339 34.6989 91.7339 35.7058V37.0357H115.396V45.9933H79.613V37.5961C79.613 35.3638 80.2495 33.4165 81.5413 31.7542C82.8237 30.0918 84.4291 28.6195 86.3669 27.3371C88.3047 26.0547 90.404 24.8958 92.6743 23.8699C94.9446 22.844 97.0534 21.8656 98.9817 20.9347C100.92 20.0133 102.544 19.0823 103.874 18.1609C105.194 17.2395 105.859 16.2041 105.859 15.0642C105.859 14.0953 105.65 13.2689 105.223 12.5755C104.805 11.882 104.235 11.3121 103.522 10.8751C102.81 10.4382 102.021 10.0962 101.157 9.86822C100.293 9.64024 99.4187 9.51675 98.5352 9.51675C97.6518 9.51675 96.7019 9.61174 95.695 9.80172C94.6881 9.99171 93.7477 10.3147 92.8833 10.7801C92.0189 11.2456 91.2969 11.8345 90.708 12.547C90.119 13.2594 89.8246 14.1713 89.8246 15.2637H79.6035H79.613Z" fill="#414042"/>
<path id="Vector_5" d="M139.372 46.9432C133.141 46.9432 128.477 44.9389 125.361 40.9207C122.245 36.9026 120.688 31.2316 120.688 23.9078C120.688 16.584 122.226 10.8656 125.295 6.86643C128.363 2.86731 133.055 0.872498 139.372 0.872498C145.689 0.872498 150.372 2.86731 153.44 6.86643C156.509 10.8656 158.047 16.546 158.047 23.9078C158.047 31.2696 156.49 36.9026 153.374 40.9207C150.258 44.9389 145.594 46.9432 139.363 46.9432H139.372ZM130.852 23.9078C130.852 25.8836 130.966 27.7645 131.203 29.5598C131.431 31.3456 131.868 32.9225 132.495 34.2904C133.122 35.6582 133.996 36.7411 135.117 37.539C136.228 38.337 137.653 38.7359 139.372 38.7359C141.092 38.7359 142.516 38.337 143.628 37.539C144.739 36.7411 145.613 35.6582 146.25 34.2904C146.877 32.9225 147.313 31.3456 147.541 29.5598C147.769 27.774 147.893 25.8931 147.893 23.9078C147.893 21.9225 147.779 20.0512 147.541 18.2559C147.313 16.47 146.877 14.8932 146.25 13.5253C145.623 12.1574 144.749 11.0745 143.628 10.2766C142.516 9.47869 141.092 9.07972 139.372 9.07972C137.653 9.07972 136.228 9.47869 135.117 10.2766C134.005 11.0745 133.131 12.1574 132.495 13.5253C131.868 14.8932 131.431 16.47 131.203 18.2559C130.975 20.0417 130.852 21.9225 130.852 23.9078Z" fill="#414042"/>
<path id="Vector_6" d="M162.152 15.2636C162.152 13.4113 162.57 11.6349 163.415 9.93459C164.261 8.23425 165.467 6.72389 167.044 5.42251C168.621 4.12114 170.521 3.08573 172.753 2.32581C174.985 1.56588 177.484 1.18591 180.267 1.18591C183.592 1.18591 186.451 1.55638 188.854 2.28781C191.248 3.02874 193.243 4.02615 194.819 5.28953C196.396 6.55291 197.565 8.02527 198.325 9.70661C199.085 11.388 199.465 13.1738 199.465 15.0736C199.465 17.2584 198.847 19.1677 197.603 20.7826C196.358 22.4069 194.801 23.8128 192.929 25.0097C191.058 26.2066 189.035 27.2515 186.869 28.1349C184.703 29.0183 182.68 29.8637 180.808 30.6616C178.937 31.4596 177.379 32.248 176.135 33.0269C174.89 33.8058 174.273 34.6988 174.273 35.7057V37.0355H197.935V45.9932H162.152V37.596C162.152 35.3637 162.789 33.4164 164.08 31.754C165.363 30.0917 166.968 28.6193 168.906 27.337C170.844 26.0546 172.943 24.8957 175.213 23.8698C177.484 22.8439 179.592 21.8655 181.521 20.9346C183.459 20.0131 185.083 19.0822 186.413 18.1608C187.733 17.2394 188.398 16.204 188.398 15.0641C188.398 14.0952 188.189 13.2688 187.762 12.5753C187.344 11.8819 186.774 11.312 186.061 10.875C185.349 10.438 184.56 10.0961 183.696 9.8681C182.832 9.64012 181.958 9.51663 181.074 9.51663C180.191 9.51663 179.241 9.61162 178.234 9.8016C177.227 9.99158 176.287 10.3146 175.422 10.78C174.558 11.2455 173.836 11.8344 173.247 12.5468C172.658 13.2593 172.364 14.1712 172.364 15.2636H162.143H162.152Z" fill="#414042"/>
<path id="Vector_7" d="M226.774 1.75586H236.615V29.7117H240.595V37.4725H236.615V45.9932H226.774V37.4725H202.922V31.3551L226.774 1.75586ZM214.72 29.7117H226.774V15.5771L214.72 29.7117Z" fill="#414042"/>
</g>
</svg>
