<svg width="20" height="20" viewBox="0 0 20 20" fill="none" xmlns="http://www.w3.org/2000/svg">
<rect width="20" height="20" rx="10" fill="#868686"/>
<g clip-path="url(#clip0_5401_3380)">
<path d="M16 10C16 6.68632 13.3137 4 10 4C6.68632 4 4 6.68632 4 10C4 12.8138 5.93728 15.1749 8.55064 15.8234V11.8336H7.31344V10H8.55064V9.20992C8.55064 7.16776 9.47488 6.2212 11.4798 6.2212C11.86 6.2212 12.5159 6.29584 12.7842 6.37024V8.03224C12.6426 8.01736 12.3966 8.00992 12.0911 8.00992C11.1074 8.00992 10.7272 8.38264 10.7272 9.35152V10H12.687L12.3503 11.8336H10.7272V15.9561C13.6982 15.5973 16.0002 13.0677 16.0002 10H16Z" fill="white"/>
<path d="M12.3494 11.8336L12.6861 9.99999H10.7263V9.35151C10.7263 8.38263 11.1064 8.00991 12.0902 8.00991C12.3957 8.00991 12.6417 8.01735 12.7833 8.03223V6.37023C12.515 6.29559 11.8591 6.22119 11.4789 6.22119C9.47394 6.22119 8.5497 7.16775 8.5497 9.20991V9.99999H7.3125V11.8336H8.5497V15.8234C9.01386 15.9386 9.49938 16 9.99906 16C10.2451 16 10.4877 15.9849 10.726 15.9561V11.8336H12.3491H12.3494Z" fill="#868686"/>
</g>
<defs>
<clipPath id="clip0_5401_3380">
<rect width="12" height="12" fill="white" transform="translate(4 4)"/>
</clipPath>
</defs>
</svg>
