<svg width="633" height="47" viewBox="0 0 633 47" fill="none" xmlns="http://www.w3.org/2000/svg">
<path d="M388.885 25.8076H264.257V27.508H388.885V25.8076Z" fill="#414042"/>
<path d="M14.8017 1.82251V45.9934H4.39065V8.38639H0.980469V1.82251H14.8017Z" fill="#414042"/>
<path d="M20.6716 15.2637C20.6716 13.4114 21.0896 11.6351 21.935 9.93471C22.7804 8.23437 23.9868 6.72401 25.5636 5.42264C27.1405 4.12126 29.0403 3.08586 31.2726 2.32593C33.5049 1.566 36.0032 1.18604 38.7864 1.18604C42.1111 1.18604 44.9703 1.5565 47.3736 2.28793C49.7674 3.02886 51.7622 4.02627 53.339 5.28965C54.9159 6.55303 56.0843 8.02539 56.8442 9.70673C57.6041 11.3881 57.9841 13.1739 57.9841 15.0737C57.9841 17.2585 57.3667 19.1678 56.1223 20.7827C54.8779 22.407 53.32 23.8129 51.4487 25.0098C49.5774 26.2067 47.5541 27.2516 45.3883 28.135C43.2225 29.0184 41.1992 29.8638 39.3279 30.6618C37.4565 31.4597 35.8987 32.2481 34.6543 33.027C33.4099 33.806 32.7925 34.6989 32.7925 35.7058V37.0357H56.4547V45.9933H20.6716V37.5961C20.6716 35.3638 21.308 33.4165 22.5999 31.7542C23.8823 30.0918 25.4877 28.6195 27.4255 27.3371C29.3633 26.0547 31.4626 24.8958 33.7329 23.8699C36.0032 22.844 38.112 21.8656 40.0403 20.9347C41.9781 20.0133 43.6025 19.0823 44.9323 18.1609C46.2527 17.2395 46.9176 16.2041 46.9176 15.0642C46.9176 14.0953 46.7087 13.2689 46.2812 12.5755C45.8632 11.882 45.2933 11.3121 44.5809 10.8751C43.8684 10.4382 43.08 10.0962 42.2156 9.86822C41.3512 9.64024 40.4772 9.51675 39.5938 9.51675C38.7104 9.51675 37.7605 9.61174 36.7536 9.80172C35.7467 9.99171 34.8063 10.3147 33.9419 10.7801C33.0774 11.2456 32.3555 11.8345 31.7666 12.547C31.1776 13.2594 30.8831 14.1713 30.8831 15.2637H20.6621H20.6716Z" fill="#414042"/>
<path d="M63.0762 41.6427C63.0762 40.1703 63.5891 38.926 64.6245 37.919C65.6504 36.9121 66.8853 36.4087 68.3197 36.4087C69.754 36.4087 71.0364 36.9121 72.0433 37.919C73.0502 38.926 73.5537 40.1703 73.5537 41.6427C73.5537 43.1151 73.0502 44.3594 72.0433 45.3663C71.0364 46.3733 69.792 46.8767 68.3197 46.8767C66.8473 46.8767 65.6599 46.3733 64.6245 45.3663C63.5891 44.3594 63.0762 43.1151 63.0762 41.6427Z" fill="#414042"/>
<path d="M79.614 15.2637C79.614 13.4114 80.032 11.6351 80.8774 9.93471C81.7228 8.23437 82.9292 6.72401 84.506 5.42264C86.0829 4.12126 87.9827 3.08586 90.215 2.32593C92.4473 1.566 94.9455 1.18604 97.7288 1.18604C101.053 1.18604 103.913 1.5565 106.316 2.28793C108.71 3.02886 110.705 4.02627 112.281 5.28965C113.858 6.55303 115.027 8.02539 115.787 9.70673C116.547 11.3881 116.926 13.1739 116.926 15.0737C116.926 17.2585 116.309 19.1678 115.065 20.7827C113.82 22.407 112.262 23.8129 110.391 25.0098C108.52 26.2067 106.496 27.2516 104.331 28.135C102.165 29.0184 100.142 29.8638 98.2702 30.6618C96.3989 31.4597 94.8411 32.2481 93.5967 33.027C92.3523 33.806 91.7349 34.6989 91.7349 35.7058V37.0357H115.397V45.9933H79.614V37.5961C79.614 35.3638 80.2504 33.4165 81.5423 31.7542C82.8247 30.0918 84.43 28.6195 86.3679 27.3371C88.3057 26.0547 90.405 24.8958 92.6753 23.8699C94.9455 22.844 97.0544 21.8656 98.9827 20.9347C100.92 20.0133 102.545 19.0823 103.875 18.1609C105.195 17.2395 105.86 16.2041 105.86 15.0642C105.86 14.0953 105.651 13.2689 105.224 12.5755C104.806 11.882 104.236 11.3121 103.523 10.8751C102.811 10.4382 102.022 10.0962 101.158 9.86822C100.294 9.64024 99.4196 9.51675 98.5362 9.51675C97.6528 9.51675 96.7029 9.61174 95.696 9.80172C94.6891 9.99171 93.7487 10.3147 92.8842 10.7801C92.0198 11.2456 91.2979 11.8345 90.7089 12.547C90.12 13.2594 89.8255 14.1713 89.8255 15.2637H79.6045H79.614Z" fill="#414042"/>
<path d="M139.372 46.9432C133.141 46.9432 128.477 44.9389 125.361 40.9208C122.245 36.9027 120.688 31.2317 120.688 23.9079C120.688 16.5841 122.226 10.8656 125.295 6.86649C128.363 2.86737 133.055 0.872559 139.372 0.872559C145.689 0.872559 150.372 2.86737 153.44 6.86649C156.509 10.8656 158.047 16.5461 158.047 23.9079C158.047 31.2697 156.49 36.9027 153.374 40.9208C150.258 44.9389 145.594 46.9432 139.363 46.9432H139.372ZM130.852 23.9079C130.852 25.8837 130.966 27.7645 131.203 29.5599C131.431 31.3457 131.868 32.9225 132.495 34.2904C133.122 35.6583 133.996 36.7412 135.117 37.5391C136.228 38.337 137.653 38.736 139.372 38.736C141.092 38.736 142.516 38.337 143.628 37.5391C144.739 36.7412 145.613 35.6583 146.25 34.2904C146.877 32.9225 147.313 31.3457 147.541 29.5599C147.769 27.774 147.893 25.8932 147.893 23.9079C147.893 21.9226 147.779 20.0513 147.541 18.2559C147.313 16.4701 146.877 14.8932 146.25 13.5254C145.623 12.1575 144.749 11.0746 143.628 10.2767C142.516 9.47875 141.092 9.07979 139.372 9.07979C137.653 9.07979 136.228 9.47875 135.117 10.2767C134.005 11.0746 133.131 12.1575 132.495 13.5254C131.868 14.8932 131.431 16.4701 131.203 18.2559C130.975 20.0418 130.852 21.9226 130.852 23.9079Z" fill="#414042"/>
<path d="M162.152 15.2637C162.152 13.4114 162.57 11.6351 163.415 9.93471C164.261 8.23437 165.467 6.72401 167.044 5.42264C168.621 4.12126 170.521 3.08586 172.753 2.32593C174.985 1.566 177.484 1.18604 180.267 1.18604C183.592 1.18604 186.451 1.5565 188.854 2.28793C191.248 3.02886 193.243 4.02627 194.819 5.28965C196.396 6.55303 197.565 8.02539 198.325 9.70673C199.085 11.3881 199.465 13.1739 199.465 15.0737C199.465 17.2585 198.847 19.1678 197.603 20.7827C196.358 22.407 194.801 23.8129 192.929 25.0098C191.058 26.2067 189.035 27.2516 186.869 28.135C184.703 29.0184 182.68 29.8638 180.808 30.6618C178.937 31.4597 177.379 32.2481 176.135 33.027C174.89 33.806 174.273 34.6989 174.273 35.7058V37.0357H197.935V45.9933H162.152V37.5961C162.152 35.3638 162.789 33.4165 164.08 31.7542C165.363 30.0918 166.968 28.6195 168.906 27.3371C170.844 26.0547 172.943 24.8958 175.213 23.8699C177.484 22.844 179.592 21.8656 181.521 20.9347C183.459 20.0133 185.083 19.0823 186.413 18.1609C187.733 17.2395 188.398 16.2041 188.398 15.0642C188.398 14.0953 188.189 13.2689 187.762 12.5755C187.344 11.882 186.774 11.3121 186.061 10.8751C185.349 10.4382 184.56 10.0962 183.696 9.86822C182.832 9.64024 181.958 9.51675 181.074 9.51675C180.191 9.51675 179.241 9.61174 178.234 9.80172C177.227 9.99171 176.287 10.3147 175.422 10.7801C174.558 11.2456 173.836 11.8345 173.247 12.547C172.658 13.2594 172.364 14.1713 172.364 15.2637H162.143H162.152Z" fill="#414042"/>
<path d="M226.774 1.75586H236.615V29.7117H240.595V37.4725H236.615V45.9932H226.774V37.4725H202.922V31.3551L226.774 1.75586ZM214.72 29.7117H226.774V15.5771L214.72 29.7117Z" fill="#414042"/>
<path d="M412.718 15.2635C412.718 13.4111 413.136 11.6348 413.982 9.93447C414.827 8.23413 416.034 6.72377 417.611 5.42239C419.187 4.12101 421.087 3.08561 423.319 2.32568C425.552 1.56576 428.05 1.18579 430.833 1.18579C434.158 1.18579 437.017 1.55626 439.42 2.28769C441.814 3.02862 443.809 4.02602 445.386 5.2894C446.963 6.55279 448.131 8.02515 448.891 9.70649C449.651 11.3878 450.031 13.1737 450.031 15.0735C450.031 17.2583 449.414 19.1676 448.169 20.7824C446.925 22.3973 445.367 23.8127 443.496 25.0096C441.624 26.2064 439.601 27.2513 437.435 28.1348C435.269 29.0182 433.246 29.8636 431.375 30.6615C429.503 31.4594 427.946 32.2479 426.701 33.0268C425.457 33.8057 424.839 34.6986 424.839 35.7055V37.0354H448.502V45.9931H412.718V37.5959C412.718 35.3636 413.355 33.4163 414.647 31.7539C415.929 30.0916 417.535 28.6192 419.472 27.3368C421.41 26.0544 423.509 24.8956 425.78 23.8697C428.05 22.8438 430.159 21.8653 432.087 20.9344C434.025 20.013 435.649 19.0821 436.979 18.1607C438.3 17.2393 438.964 16.2039 438.964 15.064C438.964 14.0951 438.756 13.2687 438.328 12.5752C437.91 11.8818 437.34 11.3118 436.628 10.8749C435.915 10.4379 435.127 10.096 434.262 9.86797C433.398 9.63999 432.524 9.51651 431.641 9.51651C430.757 9.51651 429.807 9.6115 428.8 9.80148C427.794 9.99146 426.853 10.3144 425.989 10.7799C425.124 11.2453 424.402 11.8343 423.813 12.5467C423.224 13.2592 422.93 14.1711 422.93 15.2635H412.709H412.718Z" fill="#414042"/>
<path d="M455.123 41.6425C455.123 40.1701 455.636 38.9257 456.671 37.9188C457.697 36.9119 458.932 36.4084 460.367 36.4084C461.801 36.4084 463.083 36.9119 464.09 37.9188C465.097 38.9257 465.601 40.1701 465.601 41.6425C465.601 43.1148 465.097 44.3592 464.09 45.3661C463.083 46.373 461.839 46.8765 460.367 46.8765C458.894 46.8765 457.707 46.373 456.671 45.3661C455.636 44.3592 455.123 43.1148 455.123 41.6425Z" fill="#414042"/>
<path d="M471.651 15.2635C471.651 13.4111 472.069 11.6348 472.914 9.93447C473.76 8.23413 474.966 6.72377 476.543 5.42239C478.12 4.12101 480.02 3.08561 482.252 2.32568C484.484 1.56576 486.983 1.18579 489.766 1.18579C493.091 1.18579 495.95 1.55626 498.353 2.28769C500.747 3.02862 502.742 4.02602 504.319 5.2894C505.895 6.55279 507.064 8.02515 507.824 9.70649C508.584 11.3878 508.964 13.1737 508.964 15.0735C508.964 17.2583 508.346 19.1676 507.102 20.7824C505.857 22.3973 504.3 23.8127 502.428 25.0096C500.557 26.2064 498.534 27.2513 496.368 28.1348C494.202 29.0182 492.179 29.8636 490.307 30.6615C488.436 31.4594 486.878 32.2479 485.634 33.0268C484.389 33.8057 483.772 34.6986 483.772 35.7055V37.0354H507.434V45.9931H471.651V37.5959C471.651 35.3636 472.288 33.4163 473.579 31.7539C474.862 30.0916 476.477 28.6192 478.405 27.3368C480.343 26.0544 482.442 24.8956 484.712 23.8697C486.983 22.8438 489.091 21.8653 491.02 20.9344C492.958 20.013 494.582 19.0821 495.912 18.1607C497.232 17.2393 497.897 16.2039 497.897 15.064C497.897 14.0951 497.688 13.2687 497.261 12.5752C496.843 11.8818 496.273 11.3118 495.56 10.8749C494.848 10.4379 494.059 10.096 493.195 9.86797C492.331 9.63999 491.457 9.51651 490.573 9.51651C489.69 9.51651 488.74 9.6115 487.733 9.80148C486.726 9.99146 485.786 10.3144 484.921 10.7799C484.057 11.2453 483.335 11.8343 482.746 12.5467C482.157 13.2592 481.863 14.1711 481.863 15.2635H471.642H471.651Z" fill="#414042"/>
<path d="M531.419 46.943C525.188 46.943 520.524 44.9387 517.408 40.9205C514.292 36.9024 512.734 31.2315 512.734 23.9076C512.734 16.5838 514.273 10.8654 517.341 6.86625C520.41 2.86713 525.102 0.872314 531.419 0.872314C537.736 0.872314 542.419 2.86713 545.487 6.86625C548.555 10.8654 550.094 16.5458 550.094 23.9076C550.094 31.2695 548.537 36.9024 545.421 40.9205C542.305 44.9387 537.641 46.943 531.41 46.943H531.419ZM522.898 23.9076C522.898 25.8835 523.012 27.7643 523.25 29.5596C523.478 31.3454 523.915 32.9223 524.542 34.2902C525.178 35.658 526.043 36.7409 527.164 37.5389C528.275 38.3368 529.7 38.7358 531.419 38.7358C533.138 38.7358 534.563 38.3368 535.675 37.5389C536.786 36.7409 537.66 35.658 538.297 34.2902C538.923 32.9223 539.36 31.3454 539.588 29.5596C539.816 27.7738 539.94 25.893 539.94 23.9076C539.94 21.9223 539.826 20.051 539.588 18.2557C539.36 16.4698 538.923 14.893 538.297 13.5251C537.67 12.1573 536.796 11.0744 535.675 10.2764C534.563 9.4785 533.138 9.07954 531.419 9.07954C529.7 9.07954 528.275 9.4785 527.164 10.2764C526.052 11.0744 525.178 12.1573 524.542 13.5251C523.915 14.893 523.478 16.4698 523.25 18.2557C523.022 20.0415 522.898 21.9223 522.898 23.9076Z" fill="#414042"/>
<path d="M554.199 15.2635C554.199 13.4111 554.617 11.6348 555.462 9.93447C556.308 8.23413 557.514 6.72377 559.091 5.42239C560.668 4.12101 562.568 3.08561 564.8 2.32568C567.032 1.56576 569.531 1.18579 572.314 1.18579C575.638 1.18579 578.498 1.55626 580.901 2.28769C583.295 3.02862 585.29 4.02602 586.866 5.2894C588.443 6.55279 589.612 8.02515 590.372 9.70649C591.131 11.3878 591.511 13.1737 591.511 15.0735C591.511 17.2583 590.894 19.1676 589.65 20.7824C588.405 22.3973 586.847 23.8127 584.976 25.0096C583.105 26.2064 581.081 27.2513 578.916 28.1348C576.75 29.0182 574.727 29.8636 572.855 30.6615C570.984 31.4594 569.426 32.2479 568.182 33.0268C566.937 33.8057 566.32 34.6986 566.32 35.7055V37.0354H589.982V45.9931H554.199V37.5959C554.199 35.3636 554.835 33.4163 556.127 31.7539C557.41 30.0916 559.015 28.6192 560.953 27.3368C562.891 26.0544 564.99 24.8956 567.26 23.8697C569.531 22.8438 571.639 21.8653 573.568 20.9344C575.505 20.013 577.13 19.0821 578.46 18.1607C579.78 17.2393 580.445 16.2039 580.445 15.064C580.445 14.0951 580.236 13.2687 579.809 12.5752C579.391 11.8818 578.821 11.3118 578.108 10.8749C577.396 10.4379 576.607 10.096 575.743 9.86797C574.879 9.63999 574.005 9.51651 573.121 9.51651C572.238 9.51651 571.288 9.6115 570.281 9.80148C569.274 9.99146 568.334 10.3144 567.469 10.7799C566.605 11.2453 565.883 11.8343 565.294 12.5467C564.705 13.2592 564.411 14.1711 564.411 15.2635H554.189H554.199Z" fill="#414042"/>
<path d="M607.08 32.3619C607.08 33.7963 607.308 34.9837 607.773 35.9241C608.239 36.874 608.875 37.6244 609.702 38.1944C610.519 38.7643 611.488 39.1538 612.608 39.3628C613.72 39.5717 614.936 39.6762 616.237 39.6762C618.555 39.6762 620.284 38.8783 621.443 37.2825C622.601 35.6866 623.181 33.4163 623.181 30.4716C623.181 27.5269 622.658 25.2091 621.604 23.6512C620.55 22.0934 619.02 21.3145 616.997 21.3145C616.028 21.3145 615.069 21.381 614.128 21.5044C613.178 21.6279 612.295 21.8749 611.478 22.2264C610.661 22.5873 609.93 23.0908 609.303 23.7367C608.676 24.3922 608.21 25.2661 607.916 26.3585H597.752V2.24976H631.835V11.0839H607.032V21.7514C607.621 19.4811 608.894 17.7238 610.851 16.4794C612.808 15.235 615.069 14.6176 617.633 14.6176C620.322 14.6176 622.639 14.9026 624.577 15.4725C626.515 16.0425 628.101 16.9449 629.346 18.1893C630.59 19.4336 631.502 21.02 632.091 22.9578C632.68 24.8956 632.975 27.2514 632.975 30.0251C632.975 33.3878 632.614 36.1711 631.901 38.3559C631.189 40.5407 630.077 42.279 628.586 43.5614C627.095 44.8437 625.195 45.7367 622.905 46.2401C620.607 46.7436 617.871 47 614.67 47C612.523 47 610.386 46.8006 608.267 46.4016C606.14 46.0026 604.24 45.2617 602.558 44.1883C600.877 43.1149 599.509 41.6331 598.455 39.7427C597.4 37.8524 596.878 35.4111 596.878 32.4189L607.099 32.3524L607.08 32.3619Z" fill="#414042"/>
</svg>
