<svg width="147" height="121" viewBox="0 0 147 121" fill="none" xmlns="http://www.w3.org/2000/svg">
<path d="M12.1344 33.5119C29.4527 16.9454 52.0284 6.22592 79.8614 1.35343C107.694 -3.51905 127.719 4.76418 139.934 26.2031C152.15 47.6421 146.121 65.8529 134.214 87.7791C122.308 109.705 107.308 122.983 76.8461 120.668C46.3844 118.354 27.1333 103.612 12.1344 84.0004C-2.86454 64.3886 -5.18395 50.0783 12.1344 33.5119Z" fill="#A154F2"/>
<path d="M12.1344 33.5119C29.4527 16.9454 52.0284 6.22592 79.8614 1.35343C107.694 -3.51905 127.719 4.76418 139.934 26.2031C152.15 47.6421 146.121 65.8529 134.214 87.7791C122.308 109.705 107.308 122.983 76.8461 120.668C46.3844 118.354 27.1333 103.612 12.1344 84.0004C-2.86454 64.3886 -5.18395 50.0783 12.1344 33.5119Z" fill="url(#paint0_linear_8082_7062)"/>
<path d="M12.1344 33.5119C29.4527 16.9454 52.0284 6.22592 79.8614 1.35343C107.694 -3.51905 127.719 4.76418 139.934 26.2031C152.15 47.6421 146.121 65.8529 134.214 87.7791C122.308 109.705 107.308 122.983 76.8461 120.668C46.3844 118.354 27.1333 103.612 12.1344 84.0004C-2.86454 64.3886 -5.18395 50.0783 12.1344 33.5119Z" fill="url(#paint1_linear_8082_7062)"/>
<path d="M12.1344 33.5119C29.4527 16.9454 52.0284 6.22592 79.8614 1.35343C107.694 -3.51905 127.719 4.76418 139.934 26.2031C152.15 47.6421 146.121 65.8529 134.214 87.7791C122.308 109.705 107.308 122.983 76.8461 120.668C46.3844 118.354 27.1333 103.612 12.1344 84.0004C-2.86454 64.3886 -5.18395 50.0783 12.1344 33.5119Z" fill="url(#paint2_linear_8082_7062)"/>
<path d="M12.1344 33.5119C29.4527 16.9454 52.0284 6.22592 79.8614 1.35343C107.694 -3.51905 127.719 4.76418 139.934 26.2031C152.15 47.6421 146.121 65.8529 134.214 87.7791C122.308 109.705 107.308 122.983 76.8461 120.668C46.3844 118.354 27.1333 103.612 12.1344 84.0004C-2.86454 64.3886 -5.18395 50.0783 12.1344 33.5119Z" fill="url(#paint3_linear_8082_7062)"/>
<defs>
<linearGradient id="paint0_linear_8082_7062" x1="149.648" y1="44.6103" x2="-68.3168" y2="152.566" gradientUnits="userSpaceOnUse">
<stop offset="0.15" stop-color="#FF7B87"/>
<stop offset="1" stop-color="white"/>
</linearGradient>
<linearGradient id="paint1_linear_8082_7062" x1="148.073" y1="55.7528" x2="-1.22829" y2="64.3729" gradientUnits="userSpaceOnUse">
<stop offset="0.31" stop-color="#58FAFF"/>
<stop offset="1" stop-color="#B2FDFF"/>
</linearGradient>
<linearGradient id="paint2_linear_8082_7062" x1="162.662" y1="-232.037" x2="-9.6217" y2="224.457" gradientUnits="userSpaceOnUse">
<stop offset="0.31" stop-color="#FFB8EA"/>
<stop offset="1" stop-color="#FF7B87"/>
</linearGradient>
<linearGradient id="paint3_linear_8082_7062" x1="207" y1="121" x2="-6.05762" y2="24.5451" gradientUnits="userSpaceOnUse">
<stop offset="0.155" stop-color="#88DA86"/>
<stop offset="0.835" stop-color="#1FF4C4"/>
</linearGradient>
</defs>
</svg>
