<svg width="134" height="118" viewBox="0 0 134 118" fill="none" xmlns="http://www.w3.org/2000/svg">
<path d="M102.936 16.118C124.147 29.3562 132.215 40.053 132.974 63.638C133.733 87.223 123.72 102.903 102.936 110.679C82.1519 118.455 60.6552 119.284 38.4457 113.167C16.2363 107.05 8.10049 91.0892 2.35425 63.638C-3.39198 36.1868 1.278 16.1225 28.0484 5.09182C54.8187 -5.93887 81.7255 2.8798 102.936 16.118Z" fill="#A154F2"/>
<path d="M102.936 16.118C124.147 29.3562 132.215 40.053 132.974 63.638C133.733 87.223 123.72 102.903 102.936 110.679C82.1519 118.455 60.6552 119.284 38.4457 113.167C16.2363 107.05 8.10049 91.0892 2.35425 63.638C-3.39198 36.1868 1.278 16.1225 28.0484 5.09182C54.8187 -5.93887 81.7255 2.8798 102.936 16.118Z" fill="url(#paint0_linear_8082_7061)"/>
<path d="M102.936 16.118C124.147 29.3562 132.215 40.053 132.974 63.638C133.733 87.223 123.72 102.903 102.936 110.679C82.1519 118.455 60.6552 119.284 38.4457 113.167C16.2363 107.05 8.10049 91.0892 2.35425 63.638C-3.39198 36.1868 1.278 16.1225 28.0484 5.09182C54.8187 -5.93887 81.7255 2.8798 102.936 16.118Z" fill="url(#paint1_linear_8082_7061)"/>
<defs>
<linearGradient id="paint0_linear_8082_7061" x1="398.354" y1="119.118" x2="-66.7799" y2="-116.741" gradientUnits="userSpaceOnUse">
<stop offset="0.31" stop-color="#FFB8EA"/>
<stop offset="1" stop-color="#FF7B87"/>
</linearGradient>
<linearGradient id="paint1_linear_8082_7061" x1="18" y1="194.5" x2="53.9836" y2="-17.3155" gradientUnits="userSpaceOnUse">
<stop offset="0.155" stop-color="#88DA86"/>
<stop offset="0.835" stop-color="#1FF4C4"/>
</linearGradient>
</defs>
</svg>
