<svg width="632" height="37" viewBox="0 0 632 37" fill="none" xmlns="http://www.w3.org/2000/svg">
<g clip-path="url(#clip0_6066_66640)">
<path d="M373.901 20.1082H273.775V21.4732H373.901V20.1082Z" fill="#424245"/>
<path d="M11.1059 0.759277V36.1895H2.73929V6.02306H0.00454712V0.759277H11.1059Z" fill="#424245"/>
<path d="M15.8242 11.5428C15.8242 10.0584 16.1575 8.63369 16.8411 7.26869C17.5163 5.90369 18.4905 4.69226 19.7554 3.65145C21.0202 2.6021 22.5499 1.77457 24.3446 1.16885C26.1393 0.563135 28.1476 0.25601 30.3781 0.25601C33.0445 0.25601 35.3434 0.554604 37.2748 1.14326C39.1977 1.73192 40.7958 2.53385 42.0692 3.54907C43.334 4.56429 44.2741 5.7416 44.8808 7.08954C45.4876 8.43748 45.7953 9.87072 45.7953 11.3893C45.7953 13.1467 45.2996 14.6738 44.2997 15.9706C43.2998 17.2673 42.0521 18.402 40.548 19.3575C39.0439 20.3215 37.4201 21.1576 35.6767 21.8657C33.9333 22.5737 32.3096 23.2477 30.8054 23.8876C29.3013 24.5274 28.0536 25.1587 27.0537 25.79C26.0538 26.4128 25.5581 27.1294 25.5581 27.9399V29.0063H44.5732V36.1896H15.8242V29.4585C15.8242 27.6669 16.3369 26.1142 17.371 24.7748C18.4051 23.4439 19.6955 22.2581 21.2509 21.2343C22.8063 20.2021 24.4984 19.2807 26.3187 18.4532C28.1476 17.6256 29.8312 16.8408 31.3866 16.0985C32.942 15.3563 34.2495 14.6141 35.3178 13.8719C36.386 13.1297 36.9159 12.3021 36.9159 11.3893C36.9159 10.6129 36.745 9.9475 36.4117 9.39297C36.0698 8.83844 35.6169 8.37776 35.0443 8.02797C34.4717 7.66966 33.8393 7.40519 33.1385 7.21751C32.4463 7.02982 31.7455 6.93598 31.0362 6.93598C30.3269 6.93598 29.5663 7.01276 28.7544 7.16632C27.9425 7.31988 27.1904 7.58435 26.4982 7.95119C25.806 8.32657 25.2248 8.79579 24.7463 9.36738C24.2762 9.93897 24.0369 10.6641 24.0369 11.5428H15.8242Z" fill="#424245"/>
<path d="M49.8942 32.7002C49.8942 31.5229 50.3044 30.5248 51.1334 29.7143C51.9624 28.9038 52.9537 28.5029 54.0989 28.5029C55.2441 28.5029 56.2782 28.9038 57.09 29.7143C57.9019 30.5248 58.3036 31.5229 58.3036 32.7002C58.3036 33.8775 57.9019 34.8757 57.09 35.6862C56.2782 36.4966 55.2783 36.8976 54.0989 36.8976C52.9195 36.8976 51.9624 36.4966 51.1334 35.6862C50.3044 34.8757 49.8942 33.8775 49.8942 32.7002Z" fill="#424245"/>
<path d="M73.4133 0.759277V36.1895H65.0467V6.02306H62.3119V0.759277H73.4133Z" fill="#424245"/>
<path d="M78.1315 11.5428C78.1315 10.0584 78.4648 8.63368 79.1485 7.26868C79.8236 5.90368 80.7978 4.69225 82.0627 3.65143C83.3275 2.60209 84.8572 1.77456 86.6519 1.16884C88.4466 0.563123 90.4549 0.255999 92.6854 0.255999C95.3518 0.255999 97.6507 0.554592 99.5821 1.14325C101.505 1.7319 103.103 2.53384 104.376 3.54906C105.641 4.56428 106.581 5.74159 107.188 7.08953C107.795 8.43746 108.103 9.87071 108.103 11.3893C108.103 13.1467 107.607 14.6738 106.607 15.9706C105.607 17.2673 104.359 18.402 102.855 19.3575C101.351 20.3215 99.7274 21.1576 97.984 21.8656C96.2406 22.5737 94.6169 23.2477 93.1128 23.8876C91.6086 24.5274 90.3609 25.1587 89.361 25.79C88.3611 26.4128 87.8655 27.1294 87.8655 27.9399V29.0063H106.88V36.1896H78.1315V29.4585C78.1315 27.6669 78.6442 26.1142 79.6783 24.7748C80.7124 23.4439 82.0028 22.2581 83.5582 21.2343C85.1136 20.2021 86.8057 19.2807 88.6261 18.4531C90.4549 17.6256 92.1385 16.8407 93.6939 16.0985C95.2493 15.3563 96.5568 14.6141 97.6251 13.8719C98.6933 13.1296 99.2232 12.3021 99.2232 11.3893C99.2232 10.6129 99.0523 9.94749 98.719 9.39296C98.3771 8.83843 97.9242 8.37774 97.3516 8.02796C96.779 7.66965 96.1466 7.40518 95.4458 7.21749C94.7536 7.02981 94.0528 6.93596 93.3435 6.93596C92.6342 6.93596 91.8736 7.01274 91.0617 7.16631C90.2498 7.31987 89.4978 7.58434 88.8055 7.95118C88.1133 8.32656 87.5322 8.79577 87.0536 9.36737C86.5835 9.93896 86.3443 10.6641 86.3443 11.5428H78.1315Z" fill="#424245"/>
<path d="M112.207 32.7002C112.207 31.5229 112.618 30.5247 113.447 29.7143C114.276 28.9038 115.267 28.5028 116.412 28.5028C117.557 28.5028 118.591 28.9038 119.403 29.7143C120.215 30.5247 120.617 31.5229 120.617 32.7002C120.617 33.8775 120.215 34.8757 119.403 35.6861C118.591 36.4966 117.592 36.8976 116.412 36.8976C115.233 36.8976 114.276 36.4966 113.447 35.6861C112.618 34.8757 112.207 33.8775 112.207 32.7002Z" fill="#424245"/>
<path d="M125.489 11.5428C125.489 10.0584 125.823 8.63369 126.506 7.26869C127.182 5.90369 128.156 4.69226 129.421 3.65145C130.685 2.6021 132.215 1.77457 134.01 1.16885C135.805 0.563135 137.813 0.25601 140.043 0.25601C142.71 0.25601 145.009 0.554604 146.94 1.14326C148.863 1.73192 150.461 2.53385 151.734 3.54907C152.999 4.56429 153.939 5.7416 154.546 7.08954C155.153 8.43748 155.46 9.87072 155.46 11.3893C155.46 13.1467 154.965 14.6738 153.965 15.9706C152.965 17.2673 151.717 18.402 150.213 19.3575C148.709 20.3215 147.085 21.1576 145.342 21.8657C143.599 22.5737 141.975 23.2477 140.471 23.8876C138.967 24.5274 137.719 25.1587 136.719 25.79C135.719 26.4128 135.223 27.1294 135.223 27.9399V29.0063H154.238V36.1896H125.489V29.4585C125.489 27.6669 126.002 26.1142 127.036 24.7748C128.07 23.4439 129.361 22.2581 130.916 21.2343C132.472 20.2021 134.164 19.2807 135.984 18.4532C137.813 17.6256 139.496 16.8408 141.052 16.0985C142.607 15.3563 143.915 14.6141 144.983 13.8719C146.051 13.1297 146.581 12.3021 146.581 11.3893C146.581 10.6129 146.41 9.9475 146.077 9.39297C145.735 8.83844 145.282 8.37776 144.71 8.02797C144.137 7.66966 143.505 7.40519 142.804 7.21751C142.112 7.02982 141.411 6.93598 140.701 6.93598C139.992 6.93598 139.231 7.01276 138.42 7.16632C137.608 7.31988 136.856 7.58435 136.163 7.95119C135.471 8.32657 134.89 8.79579 134.411 9.36738C133.941 9.93897 133.702 10.6641 133.702 11.5428H125.489Z" fill="#424245"/>
<path d="M173.496 36.9488C168.497 36.9488 164.745 35.3364 162.241 32.1201C159.737 28.8953 158.489 24.3482 158.489 18.4787C158.489 12.6092 159.72 8.01938 162.19 4.81163C164.66 1.60388 168.428 7.62939e-06 173.496 7.62939e-06C178.564 7.62939e-06 182.333 1.60388 184.803 4.81163C187.273 8.01938 188.503 12.5751 188.503 18.4787C188.503 24.3823 187.255 28.8953 184.751 32.1201C182.247 35.345 178.496 36.9488 173.496 36.9488ZM166.659 18.4787C166.659 20.0655 166.753 21.5755 166.941 23.0088C167.129 24.442 167.471 25.7132 167.984 26.8052C168.488 27.9057 169.189 28.7674 170.086 29.4072C170.984 30.0471 172.12 30.3712 173.505 30.3712C174.889 30.3712 176.034 30.0471 176.923 29.4072C177.821 28.7674 178.521 27.8972 179.026 26.8052C179.53 25.7046 179.88 24.442 180.068 23.0088C180.256 21.5755 180.35 20.0655 180.35 18.4787C180.35 16.8919 180.256 15.3818 180.068 13.9486C179.88 12.5153 179.538 11.2527 179.026 10.1522C178.521 9.06019 177.821 8.19 176.923 7.55016C176.026 6.91032 174.889 6.58613 173.505 6.58613C172.12 6.58613 170.975 6.91032 170.086 7.55016C169.189 8.19 168.488 9.06019 167.984 10.1522C167.48 11.2527 167.129 12.5153 166.941 13.9486C166.753 15.3818 166.659 16.8919 166.659 18.4787Z" fill="#424245"/>
<path d="M191.808 11.5428C191.808 10.0584 192.15 8.63369 192.825 7.26869C193.5 5.90369 194.475 4.69226 195.739 3.65145C197.004 2.6021 198.534 1.77457 200.329 1.16885C202.123 0.563135 204.132 0.25601 206.362 0.25601C209.029 0.25601 211.327 0.554604 213.259 1.14326C215.182 1.73192 216.78 2.53385 218.053 3.54907C219.318 4.56429 220.258 5.7416 220.865 7.08954C221.472 8.43748 221.779 9.87072 221.779 11.3893C221.779 13.1467 221.284 14.6738 220.284 15.9706C219.284 17.2673 218.036 18.402 216.532 19.3575C215.028 20.3215 213.404 21.1576 211.661 21.8657C209.917 22.5737 208.294 23.2477 206.79 23.8876C205.285 24.5274 204.038 25.1587 203.038 25.79C202.038 26.4128 201.542 27.1294 201.542 27.9399V29.0063H220.557V36.1896H191.808V29.4585C191.808 27.6669 192.321 26.1142 193.355 24.7748C194.389 23.4439 195.68 22.2581 197.235 21.2343C198.79 20.2021 200.483 19.2807 202.303 18.4532C204.132 17.6256 205.815 16.8408 207.371 16.0985C208.926 15.3563 210.234 14.6141 211.302 13.8719C212.37 13.1297 212.9 12.3021 212.9 11.3893C212.9 10.6129 212.729 9.9475 212.396 9.39297C212.054 8.83844 211.601 8.37776 211.028 8.02797C210.456 7.66966 209.823 7.40519 209.123 7.21751C208.43 7.02982 207.73 6.93598 207.02 6.93598C206.311 6.93598 205.55 7.01276 204.738 7.16632C203.927 7.31988 203.175 7.58435 202.482 7.95119C201.79 8.32657 201.209 8.79579 200.73 9.36738C200.26 9.93897 200.021 10.6641 200.021 11.5428H191.808Z" fill="#424245"/>
<path d="M243.725 0.708075H251.638V23.1282H254.834V29.356H251.638V36.1895H243.725V29.356H224.556V24.4505L243.725 0.708075ZM234.042 23.1367H243.725V11.7987L234.042 23.1367Z" fill="#424245"/>
<path d="M403.184 0.759275V36.1895H394.818V6.02305H392.083V0.759275H403.184Z" fill="#424245"/>
<path d="M426.052 0.708136H433.957V23.1282H437.153V29.3561H433.957V36.1896H426.052V29.3561H406.883V24.4506L426.052 0.708136ZM416.369 23.1282H426.052V11.7902L416.369 23.1282Z" fill="#424245"/>
<path d="M441.766 32.7003C441.766 31.523 442.177 30.5248 443.006 29.7143C443.835 28.9039 444.826 28.5029 445.971 28.5029C447.116 28.5029 448.15 28.9039 448.962 29.7143C449.774 30.5248 450.176 31.523 450.176 32.7003C450.176 33.8776 449.774 34.8757 448.962 35.6862C448.15 36.4967 447.15 36.8976 445.971 36.8976C444.792 36.8976 443.835 36.4967 443.006 35.6862C442.177 34.8757 441.766 33.8776 441.766 32.7003Z" fill="#424245"/>
<path d="M455.046 11.5427C455.046 10.0582 455.38 8.6335 456.063 7.26851C456.739 5.90351 457.713 4.69207 458.978 3.65126C460.242 2.60191 461.772 1.77438 463.567 1.16866C465.362 0.562946 467.37 0.255821 469.6 0.255821C472.267 0.255821 474.566 0.554415 476.497 1.14307C478.42 1.73173 480.018 2.53366 481.291 3.54888C482.565 4.5641 483.496 5.74141 484.103 7.08935C484.71 8.43729 485.018 9.87053 485.018 11.3891C485.018 13.1465 484.522 14.6736 483.522 15.9704C482.522 17.2671 481.274 18.4018 479.77 19.3573C478.266 20.3213 476.642 21.1574 474.899 21.8655C473.156 22.5736 471.532 23.2475 470.028 23.8874C468.524 24.5272 467.276 25.1585 466.276 25.7898C465.276 26.4126 464.78 27.1292 464.78 27.9397V29.0061H483.795V36.1894H455.046V29.4583C455.046 27.6667 455.559 26.114 456.593 24.7746C457.627 23.4437 458.918 22.2579 460.473 21.2342C462.029 20.2019 463.721 19.2805 465.541 18.453C467.37 17.6254 469.053 16.8406 470.609 16.0983C472.164 15.3561 473.472 14.6139 474.54 13.8717C475.608 13.1295 476.138 12.3019 476.138 11.3891C476.138 10.6128 475.967 9.94732 475.634 9.39279C475.292 8.83825 474.839 8.37757 474.267 8.02779C473.694 7.678 473.062 7.405 472.369 7.21732C471.677 7.02963 470.976 6.93579 470.267 6.93579C469.558 6.93579 468.797 7.01257 467.985 7.16613C467.173 7.31969 466.421 7.58416 465.729 7.951C465.037 8.32638 464.456 8.7956 463.977 9.36719C463.507 9.93878 463.268 10.6639 463.268 11.5427H455.055H455.046Z" fill="#424245"/>
<path d="M489.124 32.7003C489.124 31.523 489.534 30.5248 490.363 29.7143C491.192 28.9039 492.184 28.5029 493.329 28.5029C494.474 28.5029 495.508 28.9039 496.32 29.7143C497.132 30.5248 497.534 31.523 497.534 32.7003C497.534 33.8776 497.132 34.8757 496.32 35.6862C495.508 36.4967 494.508 36.8976 493.329 36.8976C492.15 36.8976 491.192 36.4967 490.363 35.6862C489.534 34.8757 489.124 33.8776 489.124 32.7003Z" fill="#424245"/>
<path d="M502.404 11.5427C502.404 10.0582 502.737 8.63352 503.421 7.26852C504.096 5.90352 505.07 4.69208 506.335 3.65127C507.6 2.60193 509.13 1.7744 510.925 1.16868C512.719 0.562959 514.728 0.255835 516.958 0.255835C519.624 0.255835 521.923 0.554428 523.855 1.14308C525.778 1.73174 527.376 2.53368 528.649 3.5489C529.914 4.56411 530.854 5.74143 531.461 7.08936C532.068 8.4373 532.375 9.87055 532.375 11.3891C532.375 13.1465 531.88 14.6736 530.88 15.9704C529.88 17.2671 528.632 18.4018 527.128 19.3573C525.624 20.3213 524 21.1574 522.257 21.8655C520.513 22.5736 518.889 23.2475 517.385 23.8874C515.881 24.5272 514.634 25.1585 513.634 25.7899C512.634 26.4126 512.138 27.1293 512.138 27.9397V29.0061H531.153V36.1894H502.404V29.4583C502.404 27.6667 502.917 26.114 503.951 24.7746C504.985 23.4438 506.275 22.2579 507.831 21.2342C509.386 20.2019 511.078 19.2805 512.899 18.453C514.728 17.6255 516.411 16.8406 517.967 16.0984C519.522 15.3561 520.829 14.6139 521.898 13.8717C522.966 13.1295 523.496 12.302 523.496 11.3891C523.496 10.6128 523.325 9.94733 522.992 9.3928C522.65 8.83827 522.197 8.37758 521.624 8.0278C521.052 7.67802 520.411 7.40502 519.727 7.21733C519.035 7.02964 518.334 6.9358 517.625 6.9358C516.915 6.9358 516.155 7.01258 515.343 7.16614C514.531 7.31971 513.779 7.58417 513.087 7.95102C512.394 8.32639 511.813 8.79561 511.335 9.3672C510.865 9.9388 510.625 10.664 510.625 11.5427H502.413H502.404Z" fill="#424245"/>
<path d="M550.429 36.9488C545.43 36.9488 541.678 35.3364 539.174 32.1116C536.67 28.8868 535.422 24.3396 535.422 18.4701C535.422 12.6006 536.653 8.0108 539.123 4.80306C541.593 1.59531 545.361 -0.0085659 550.429 -0.0085659C555.497 -0.0085659 559.266 1.59531 561.736 4.80306C564.206 8.0108 565.436 12.5665 565.436 18.4701C565.436 24.3737 564.188 28.8868 561.684 32.1116C559.18 35.3364 555.429 36.9488 550.429 36.9488ZM543.584 18.4701C543.584 20.0569 543.678 21.5669 543.866 23.0002C544.054 24.4334 544.396 25.7046 544.908 26.7966C545.413 27.8971 546.114 28.7588 547.011 29.3986C547.908 30.0385 549.045 30.3627 550.429 30.3627C551.814 30.3627 552.959 30.0385 553.848 29.3986C554.745 28.7588 555.446 27.8886 555.95 26.7966C556.454 25.6961 556.805 24.4334 556.993 23.0002C557.181 21.5669 557.275 20.0569 557.275 18.4701C557.275 16.8833 557.181 15.3733 556.993 13.94C556.805 12.5068 556.463 11.2441 555.95 10.1436C555.446 9.05162 554.745 8.18143 553.848 7.54159C552.95 6.90174 551.814 6.57756 550.429 6.57756C549.045 6.57756 547.9 6.90174 547.011 7.54159C546.114 8.18143 545.413 9.05162 544.908 10.1436C544.404 11.2441 544.054 12.5068 543.866 13.94C543.678 15.3733 543.584 16.8833 543.584 18.4701Z" fill="#424245"/>
<path d="M568.723 11.5427C568.723 10.0582 569.056 8.6335 569.74 7.26851C570.415 5.90351 571.389 4.69207 572.654 3.65126C573.919 2.60191 575.449 1.77438 577.243 1.16866C579.038 0.562946 581.046 0.255821 583.277 0.255821C585.943 0.255821 588.242 0.554415 590.174 1.14307C592.097 1.73173 593.695 2.53366 594.968 3.54888C596.241 4.5641 597.173 5.74141 597.78 7.08935C598.386 8.43729 598.694 9.87053 598.694 11.3891C598.694 13.1465 598.198 14.6736 597.199 15.9704C596.199 17.2671 594.951 18.4018 593.447 19.3573C591.943 20.3213 590.319 21.1574 588.576 21.8655C586.832 22.5736 585.208 23.2475 583.704 23.8874C582.2 24.5272 580.952 25.1585 579.953 25.7898C578.953 26.4126 578.457 27.1292 578.457 27.9397V29.0061H597.472V36.1894H568.723V29.4583C568.723 27.6667 569.236 26.114 570.27 24.7746C571.304 23.4437 572.594 22.2579 574.15 21.2342C575.705 20.2019 577.397 19.2805 579.218 18.453C581.046 17.6254 582.73 16.8406 584.285 16.0983C585.841 15.3561 587.148 14.6139 588.217 13.8717C589.285 13.1295 589.815 12.3019 589.815 11.3891C589.815 10.6128 589.644 9.94732 589.311 9.39279C588.969 8.83825 588.516 8.37757 587.943 8.02779C587.371 7.678 586.73 7.405 586.046 7.21732C585.354 7.02963 584.653 6.93579 583.944 6.93579C583.234 6.93579 582.474 7.01257 581.662 7.16613C580.85 7.31969 580.098 7.58416 579.406 7.951C578.713 8.32638 578.132 8.7956 577.654 9.36719C577.184 9.93878 576.944 10.6639 576.944 11.5427H568.732H568.723Z" fill="#424245"/>
<path d="M611.212 25.2525C611.212 26.3957 611.4 27.3512 611.768 28.1104C612.135 28.8697 612.656 29.4754 613.314 29.9361C613.973 30.3883 614.75 30.7039 615.648 30.8746C616.545 31.0452 617.511 31.1305 618.562 31.1305C620.416 31.1305 621.818 30.4907 622.741 29.211C623.672 27.9313 624.134 26.1056 624.134 23.7424C624.134 21.3793 623.707 19.528 622.869 18.2739C622.023 17.0284 620.792 16.397 619.169 16.397C618.391 16.397 617.622 16.4482 616.861 16.5506C616.101 16.653 615.391 16.8492 614.733 17.1307C614.075 17.4208 613.494 17.8218 612.981 18.3422C612.477 18.8626 612.101 19.5621 611.862 20.4408H603.7V1.10905H631.082V8.19851H611.152V16.7554C611.622 14.9297 612.648 13.522 614.22 12.5324C615.793 11.5342 617.605 11.0394 619.673 11.0394C621.741 11.0394 623.698 11.2698 625.253 11.7219C626.809 12.1741 628.082 12.8992 629.082 13.8974C630.082 14.8955 630.817 16.1667 631.287 17.7194C631.757 19.2721 631.996 21.1575 631.996 23.3841C631.996 26.0885 631.706 28.3152 631.133 30.0641C630.561 31.8215 629.672 33.2121 628.467 34.2359C627.27 35.2682 625.749 35.9848 623.903 36.3857C622.057 36.7867 619.852 36.9915 617.288 36.9915C615.562 36.9915 613.853 36.8294 612.144 36.5137C610.434 36.1895 608.905 35.6009 607.554 34.7392C606.204 33.8776 605.102 32.6917 604.256 31.1732C603.41 29.6546 602.991 27.7009 602.991 25.3037L611.204 25.2525H611.212Z" fill="#424245"/>
</g>
<defs>
<clipPath id="clip0_6066_66640">
<rect width="632" height="37" fill="white"/>
</clipPath>
</defs>
</svg>
