<svg width="151" height="121" viewBox="0 0 151 121" fill="none" xmlns="http://www.w3.org/2000/svg">
<path d="M137.079 87.4881C119.761 104.055 97.1851 114.774 69.3521 119.647C41.5191 124.519 21.4948 116.236 9.27916 94.7968C-2.93644 73.3579 -3.09107 51.6753 8.81527 29.7491C20.7216 7.82292 41.9056 -1.98297 72.3673 0.331464C102.829 2.6459 125.559 13.609 140.558 33.2208C155.557 52.8325 154.397 70.9216 137.079 87.4881Z" fill="#A154F2"/>
<path d="M137.079 87.4881C119.761 104.055 97.1851 114.774 69.3521 119.647C41.5191 124.519 21.4948 116.236 9.27916 94.7968C-2.93644 73.3579 -3.09107 51.6753 8.81527 29.7491C20.7216 7.82292 41.9056 -1.98297 72.3673 0.331464C102.829 2.6459 125.559 13.609 140.558 33.2208C155.557 52.8325 154.397 70.9216 137.079 87.4881Z" fill="url(#paint0_linear_5779_11399)"/>
<path d="M137.079 87.4881C119.761 104.055 97.1851 114.774 69.3521 119.647C41.5191 124.519 21.4948 116.236 9.27916 94.7968C-2.93644 73.3579 -3.09107 51.6753 8.81527 29.7491C20.7216 7.82292 41.9056 -1.98297 72.3673 0.331464C102.829 2.6459 125.559 13.609 140.558 33.2208C155.557 52.8325 154.397 70.9216 137.079 87.4881Z" fill="url(#paint1_linear_5779_11399)"/>
<path d="M69 44L53.7071 59.2929C53.3166 59.6834 53.3166 60.3166 53.7071 60.7071L69 76" stroke="black" stroke-width="4" stroke-linecap="round"/>
<path d="M56.5 60H88.5" stroke="black" stroke-width="4" stroke-linecap="round"/>
<defs>
<linearGradient id="paint0_linear_5779_11399" x1="-0.434683" y1="76.3896" x2="217.53" y2="-31.5661" gradientUnits="userSpaceOnUse">
<stop offset="0.15" stop-color="#FF7B87"/>
<stop offset="1" stop-color="white"/>
</linearGradient>
<linearGradient id="paint1_linear_5779_11399" x1="1.1408" y1="65.2471" x2="150.442" y2="56.6269" gradientUnits="userSpaceOnUse">
<stop offset="0.31" stop-color="#58FAFF"/>
<stop offset="1" stop-color="#B2FDFF"/>
</linearGradient>
</defs>
</svg>
