<svg width="339" height="1007" viewBox="0 0 339 1007" fill="none" xmlns="http://www.w3.org/2000/svg">
<path d="M-38.6671 927.509C-31.4967 923.204 178.245 745.523 146.658 606.304C115.048 467.074 17.7483 450.18 86.5077 326.744C155.267 203.308 40.2431 97.9058 -95.7245 112.103" stroke="#5CB1DF" stroke-width="1.5" stroke-miterlimit="10"/>
<path d="M-53.5654 925.264C-46.3949 920.959 162.795 743.9 131.197 604.646C99.5873 465.416 2.28732 448.522 71.0467 325.086C139.806 201.65 24.7822 96.2477 -111.185 110.445" stroke="#5CB1DF" stroke-width="1.5" stroke-miterlimit="10"/>
<path d="M-68.472 923.043C-61.3016 918.739 147.326 742.266 115.739 603.047C84.1295 463.817 -13.1705 446.923 55.589 323.487C124.348 200.051 9.32447 94.6486 -126.643 108.846" stroke="#5CB1DF" stroke-width="1.5" stroke-miterlimit="10"/>
<path d="M-83.3588 920.834C-76.1883 916.529 131.899 740.654 100.29 601.424C68.68 462.194 -28.6199 445.3 40.1395 321.864C108.899 198.428 -6.125 93.0258 -142.093 107.223" stroke="#5CB1DF" stroke-width="1.5" stroke-miterlimit="10"/>
<path d="M-98.2559 918.588C-91.0854 914.284 116.428 739.019 84.853 599.776C53.2433 460.547 -44.0567 443.652 24.7027 320.216C93.4622 196.78 -21.5618 91.378 -157.529 105.575" stroke="#5CB1DF" stroke-width="1.5" stroke-miterlimit="10"/>
<path d="M-113.166 916.368C-105.996 912.063 100.978 737.396 69.3684 598.166C37.7586 458.937 -59.5413 442.042 9.21809 318.606C77.9775 195.17 -37.0465 89.768 -173.014 103.965" stroke="#5CB1DF" stroke-width="1.5" stroke-miterlimit="10"/>
<path d="M-128.073 914.148C-120.903 909.843 85.5083 735.763 53.9216 596.544C22.3119 457.315 -74.9881 440.42 -6.22867 316.984C62.5307 193.548 -52.4932 88.146 -188.461 102.343" stroke="#5CB1DF" stroke-width="1.5" stroke-miterlimit="10"/>
<path d="M-142.947 911.913C-135.776 907.609 70.0951 734.126 38.4853 594.896C6.87561 455.667 -90.4244 438.772 -21.6649 315.336C47.0945 191.9 -67.9294 86.498 -203.897 100.695" stroke="#5CB1DF" stroke-width="1.5" stroke-miterlimit="10"/>
<path d="M-157.856 909.692C-150.686 905.388 54.6116 732.516 23.0249 593.298C-8.58481 454.068 -105.885 437.173 -37.1254 313.737C31.634 190.301 -83.3899 84.8992 -219.358 99.0962" stroke="#5CB1DF" stroke-width="1.5" stroke-miterlimit="10"/>
<path d="M-172.765 907.471C-165.595 903.167 39.163 730.893 7.55325 591.663C-24.0565 452.433 -121.356 435.539 -52.597 312.103C16.1624 188.666 -98.8615 83.2644 -234.829 97.4615" stroke="#5CB1DF" stroke-width="1.5" stroke-miterlimit="10"/>
<path d="M-187.638 905.238C-180.467 900.933 23.7279 729.246 -7.85879 590.027C-39.4685 450.798 -136.768 433.903 -68.009 310.467C0.750364 187.031 -114.274 81.6289 -250.241 95.826" stroke="#5CB1DF" stroke-width="1.5" stroke-miterlimit="10"/>
<path d="M-202.547 903.017C-195.376 898.712 8.26753 727.646 -23.3422 588.417C-54.9519 449.187 -152.252 432.293 -83.4925 308.857C-14.733 185.42 -129.757 80.0184 -265.725 94.2155" stroke="#5CB1DF" stroke-width="1.5" stroke-miterlimit="10"/>
<path d="M-217.456 900.797C-210.285 896.492 -7.20425 726.013 -38.814 586.784C-70.4237 447.554 -167.724 430.66 -98.9643 307.223C-30.2048 183.787 -145.229 78.3853 -281.196 92.5823" stroke="#5CB1DF" stroke-width="1.5" stroke-miterlimit="10"/>
<path d="M-232.35 898.552C-225.18 894.247 -22.6384 724.366 -54.2481 585.136C-85.8579 445.907 -183.158 429.012 -114.398 305.576C-45.6389 182.14 -160.663 76.738 -296.631 90.935" stroke="#5CB1DF" stroke-width="1.5" stroke-miterlimit="10"/>
</svg>
