<svg width="252" height="681" viewBox="0 0 252 681" fill="none" xmlns="http://www.w3.org/2000/svg">
<mask id="mask0_5563_77562" style="mask-type:luminance" maskUnits="userSpaceOnUse" x="95" y="99" width="462" height="483">
<path d="M489.223 510.53C579.287 416.544 579.287 264.162 489.224 170.176C399.16 76.1898 253.138 76.1899 163.075 170.176C73.011 264.162 73.011 416.544 163.074 510.53C253.138 604.516 399.16 604.516 489.223 510.53Z" fill="white"/>
</mask>
<g mask="url(#mask0_5563_77562)">
<path d="M91.2344 101.705C91.2344 97.6276 94.3769 94.3477 98.2843 94.3477C102.192 94.3477 105.335 97.6276 105.335 101.705C105.335 105.783 102.192 109.063 98.2843 109.063C94.3769 109.063 91.2344 105.783 91.2344 101.705Z" fill="#89DB87"/>
<path d="M119.434 101.705C119.434 97.6276 122.576 94.3477 126.484 94.3477C130.391 94.3477 133.534 97.6276 133.534 101.705C133.534 105.783 130.391 109.063 126.484 109.063C122.576 109.063 119.434 105.783 119.434 101.705Z" fill="#89DB87"/>
<path d="M147.641 101.705C147.641 97.6276 150.784 94.3477 154.691 94.3477C158.598 94.3477 161.742 97.6276 161.742 101.705C161.742 105.783 158.598 109.063 154.691 109.063C150.784 109.063 147.641 105.783 147.641 101.705Z" fill="#89DB87"/>
<path d="M175.836 101.705C175.836 97.6276 178.979 94.3477 182.886 94.3477C186.794 94.3477 189.937 97.6276 189.937 101.705C189.937 105.783 186.794 109.063 182.886 109.063C178.979 109.063 175.836 105.783 175.836 101.705Z" fill="#89DB87"/>
<path d="M204.041 101.705C204.041 97.6276 207.184 94.3477 211.091 94.3477C214.999 94.3477 218.142 97.6276 218.142 101.705C218.142 105.783 214.999 109.063 211.091 109.063C207.184 109.063 204.041 105.783 204.041 101.705Z" fill="#89DB87"/>
<path d="M232.248 101.705C232.248 97.6276 235.391 94.3477 239.299 94.3477C243.206 94.3477 246.348 97.6276 246.348 101.705C246.348 105.783 243.206 109.063 239.299 109.063C235.391 109.063 232.248 105.783 232.248 101.705Z" fill="#89DB87"/>
<path d="M112.216 129.362C116.11 129.362 119.267 126.068 119.267 122.005C119.267 117.941 116.11 114.647 112.216 114.647C108.323 114.647 105.166 117.941 105.166 122.005C105.166 126.068 108.323 129.362 112.216 129.362Z" fill="#89DB87"/>
<path d="M133.359 122.005C133.359 117.927 136.502 114.647 140.41 114.647C144.317 114.647 147.46 117.927 147.46 122.005C147.46 126.082 144.317 129.362 140.41 129.362C136.502 129.362 133.359 126.082 133.359 122.005Z" fill="#89DB87"/>
<path d="M161.648 122.005C161.648 117.927 164.791 114.647 168.699 114.647C172.606 114.647 175.749 117.927 175.749 122.005C175.749 126.082 172.606 129.362 168.699 129.362C164.791 129.362 161.648 126.082 161.648 122.005Z" fill="#89DB87"/>
<path d="M189.855 122.005C189.855 117.927 192.999 114.647 196.906 114.647C200.813 114.647 203.956 117.927 203.956 122.005C203.956 126.082 200.813 129.362 196.906 129.362C192.999 129.362 189.855 126.082 189.855 122.005Z" fill="#89DB87"/>
<path d="M218.061 122.005C218.061 117.927 221.203 114.647 225.11 114.647C229.018 114.647 232.161 117.927 232.161 122.005C232.161 126.082 229.018 129.362 225.11 129.362C221.203 129.362 218.061 126.082 218.061 122.005Z" fill="#89DB87"/>
<path d="M246.254 122.005C246.254 117.927 249.396 114.647 253.304 114.647C257.211 114.647 260.354 117.927 260.354 122.005C260.354 126.082 257.211 129.362 253.304 129.362C249.396 129.362 246.254 126.082 246.254 122.005Z" fill="#89DB87"/>
<path d="M91.2344 140.885C91.2344 136.808 94.3769 133.528 98.2843 133.528C102.192 133.528 105.335 136.808 105.335 140.885C105.335 144.963 102.192 148.243 98.2843 148.243C94.3769 148.243 91.2344 144.963 91.2344 140.885Z" fill="#89DB87"/>
<path d="M119.434 140.885C119.434 136.808 122.576 133.528 126.484 133.528C130.391 133.528 133.534 136.808 133.534 140.885C133.534 144.963 130.391 148.243 126.484 148.243C122.576 148.243 119.434 144.963 119.434 140.885Z" fill="#89DB87"/>
<path d="M147.641 140.885C147.641 136.808 150.784 133.528 154.691 133.528C158.598 133.528 161.742 136.808 161.742 140.885C161.742 144.963 158.598 148.243 154.691 148.243C150.784 148.243 147.641 144.963 147.641 140.885Z" fill="#89DB87"/>
<path d="M175.836 140.885C175.836 136.808 178.979 133.528 182.886 133.528C186.794 133.528 189.937 136.808 189.937 140.885C189.937 144.963 186.794 148.243 182.886 148.243C178.979 148.243 175.836 144.963 175.836 140.885Z" fill="#89DB87"/>
<path d="M204.041 140.885C204.041 136.808 207.184 133.528 211.091 133.528C214.999 133.528 218.142 136.808 218.142 140.885C218.142 144.963 214.999 148.243 211.091 148.243C207.184 148.243 204.041 144.963 204.041 140.885Z" fill="#89DB87"/>
<path d="M232.248 140.885C232.248 136.808 235.391 133.528 239.299 133.528C243.206 133.528 246.348 136.808 246.348 140.885C246.348 144.963 243.206 148.243 239.299 148.243C235.391 148.243 232.248 144.963 232.248 140.885Z" fill="#89DB87"/>
<path d="M105.166 161.185C105.166 157.108 108.309 153.828 112.216 153.828C116.124 153.828 119.267 157.108 119.267 161.185C119.267 165.263 116.124 168.543 112.216 168.543C108.309 168.543 105.166 165.263 105.166 161.185Z" fill="#89DB87"/>
<path d="M133.359 161.185C133.359 157.108 136.502 153.828 140.41 153.828C144.317 153.828 147.46 157.108 147.46 161.185C147.46 165.263 144.317 168.543 140.41 168.543C136.502 168.543 133.359 165.263 133.359 161.185Z" fill="#89DB87"/>
<path d="M161.648 161.185C161.648 157.108 164.791 153.828 168.699 153.828C172.606 153.828 175.749 157.108 175.749 161.185C175.749 165.263 172.606 168.543 168.699 168.543C164.791 168.543 161.648 165.263 161.648 161.185Z" fill="#89DB87"/>
<path d="M189.855 161.185C189.855 157.108 192.999 153.828 196.906 153.828C200.813 153.828 203.956 157.108 203.956 161.185C203.956 165.263 200.813 168.543 196.906 168.543C192.999 168.543 189.855 165.263 189.855 161.185Z" fill="#89DB87"/>
<path d="M218.061 161.185C218.061 157.108 221.203 153.828 225.11 153.828C229.018 153.828 232.161 157.108 232.161 161.185C232.161 165.263 229.018 168.543 225.11 168.543C221.203 168.543 218.061 165.263 218.061 161.185Z" fill="#89DB87"/>
<path d="M246.254 161.185C246.254 157.108 249.396 153.828 253.304 153.828C257.211 153.828 260.354 157.108 260.354 161.185C260.354 165.263 257.211 168.543 253.304 168.543C249.396 168.543 246.254 165.263 246.254 161.185Z" fill="#89DB87"/>
<path d="M91.2344 180.154C91.2344 176.077 94.3769 172.797 98.2843 172.797C102.192 172.797 105.335 176.077 105.335 180.154C105.335 184.232 102.192 187.512 98.2843 187.512C94.3769 187.512 91.2344 184.232 91.2344 180.154Z" fill="#89DB87"/>
<path d="M119.434 180.154C119.434 176.077 122.576 172.797 126.484 172.797C130.391 172.797 133.534 176.077 133.534 180.154C133.534 184.232 130.391 187.512 126.484 187.512C122.576 187.512 119.434 184.232 119.434 180.154Z" fill="#89DB87"/>
<path d="M147.641 180.154C147.641 176.077 150.784 172.797 154.691 172.797C158.598 172.797 161.742 176.077 161.742 180.154C161.742 184.232 158.598 187.512 154.691 187.512C150.784 187.512 147.641 184.232 147.641 180.154Z" fill="#89DB87"/>
<path d="M175.836 180.154C175.836 176.077 178.979 172.797 182.886 172.797C186.794 172.797 189.937 176.077 189.937 180.154C189.937 184.232 186.794 187.512 182.886 187.512C178.979 187.512 175.836 184.232 175.836 180.154Z" fill="#89DB87"/>
<path d="M204.041 180.154C204.041 176.077 207.184 172.797 211.091 172.797C214.999 172.797 218.142 176.077 218.142 180.154C218.142 184.232 214.999 187.512 211.091 187.512C207.184 187.512 204.041 184.232 204.041 180.154Z" fill="#89DB87"/>
<path d="M232.248 180.154C232.248 176.077 235.391 172.797 239.299 172.797C243.206 172.797 246.348 176.077 246.348 180.154C246.348 184.232 243.206 187.512 239.299 187.512C235.391 187.512 232.248 184.232 232.248 180.154Z" fill="#89DB87"/>
<path d="M105.166 200.365C105.166 196.287 108.309 193.008 112.216 193.008C116.124 193.008 119.267 196.287 119.267 200.365C119.267 204.443 116.124 207.722 112.216 207.722C108.309 207.722 105.166 204.443 105.166 200.365Z" fill="#89DB87"/>
<path d="M133.359 200.365C133.359 196.287 136.502 193.008 140.41 193.008C144.317 193.008 147.46 196.287 147.46 200.365C147.46 204.443 144.317 207.722 140.41 207.722C136.502 207.722 133.359 204.443 133.359 200.365Z" fill="#89DB87"/>
<path d="M161.648 200.365C161.648 196.287 164.791 193.008 168.699 193.008C172.606 193.008 175.749 196.287 175.749 200.365C175.749 204.443 172.606 207.722 168.699 207.722C164.791 207.722 161.648 204.443 161.648 200.365Z" fill="#89DB87"/>
<path d="M189.855 200.365C189.855 196.287 192.999 193.008 196.906 193.008C200.813 193.008 203.956 196.287 203.956 200.365C203.956 204.443 200.813 207.722 196.906 207.722C192.999 207.722 189.855 204.443 189.855 200.365Z" fill="#89DB87"/>
<path d="M218.061 200.365C218.061 196.287 221.203 193.008 225.11 193.008C229.018 193.008 232.161 196.287 232.161 200.365C232.161 204.443 229.018 207.722 225.11 207.722C221.203 207.722 218.061 204.443 218.061 200.365Z" fill="#89DB87"/>
<path d="M246.254 200.365C246.254 196.287 249.396 193.008 253.304 193.008C257.211 193.008 260.354 196.287 260.354 200.365C260.354 204.443 257.211 207.722 253.304 207.722C249.396 207.722 246.254 204.443 246.254 200.365Z" fill="#89DB87"/>
<path d="M91.2344 219.334C91.2344 215.256 94.3769 211.977 98.2843 211.977C102.192 211.977 105.335 215.256 105.335 219.334C105.335 223.412 102.192 226.691 98.2843 226.691C94.3769 226.691 91.2344 223.412 91.2344 219.334Z" fill="#89DB87"/>
<path d="M119.434 219.334C119.434 215.256 122.576 211.977 126.484 211.977C130.391 211.977 133.534 215.256 133.534 219.334C133.534 223.412 130.391 226.691 126.484 226.691C122.576 226.691 119.434 223.412 119.434 219.334Z" fill="#89DB87"/>
<path d="M147.641 219.334C147.641 215.256 150.784 211.977 154.691 211.977C158.598 211.977 161.742 215.256 161.742 219.334C161.742 223.412 158.598 226.691 154.691 226.691C150.784 226.691 147.641 223.412 147.641 219.334Z" fill="#89DB87"/>
<path d="M175.836 219.334C175.836 215.256 178.979 211.977 182.886 211.977C186.794 211.977 189.937 215.256 189.937 219.334C189.937 223.412 186.794 226.691 182.886 226.691C178.979 226.691 175.836 223.412 175.836 219.334Z" fill="#89DB87"/>
<path d="M204.041 219.334C204.041 215.256 207.184 211.977 211.091 211.977C214.999 211.977 218.142 215.256 218.142 219.334C218.142 223.412 214.999 226.691 211.091 226.691C207.184 226.691 204.041 223.412 204.041 219.334Z" fill="#89DB87"/>
<path d="M232.248 219.334C232.248 215.256 235.391 211.977 239.299 211.977C243.206 211.977 246.348 215.256 246.348 219.334C246.348 223.412 243.206 226.691 239.299 226.691C235.391 226.691 232.248 223.412 232.248 219.334Z" fill="#89DB87"/>
<path d="M105.166 239.634C105.166 235.557 108.309 232.277 112.216 232.277C116.124 232.277 119.267 235.557 119.267 239.634C119.267 243.712 116.124 246.992 112.216 246.992C108.309 246.992 105.166 243.712 105.166 239.634Z" fill="#89DB87"/>
<path d="M133.359 239.634C133.359 235.557 136.502 232.277 140.41 232.277C144.317 232.277 147.46 235.557 147.46 239.634C147.46 243.712 144.317 246.992 140.41 246.992C136.502 246.992 133.359 243.712 133.359 239.634Z" fill="#89DB87"/>
<path d="M161.648 239.634C161.648 235.557 164.791 232.277 168.699 232.277C172.606 232.277 175.749 235.557 175.749 239.634C175.749 243.712 172.606 246.992 168.699 246.992C164.791 246.992 161.648 243.712 161.648 239.634Z" fill="#89DB87"/>
<path d="M189.855 239.634C189.855 235.557 192.999 232.277 196.906 232.277C200.813 232.277 203.956 235.557 203.956 239.634C203.956 243.712 200.813 246.992 196.906 246.992C192.999 246.992 189.855 243.712 189.855 239.634Z" fill="#89DB87"/>
<path d="M218.061 239.634C218.061 235.557 221.203 232.277 225.11 232.277C229.018 232.277 232.161 235.557 232.161 239.634C232.161 243.712 229.018 246.992 225.11 246.992C221.203 246.992 218.061 243.712 218.061 239.634Z" fill="#89DB87"/>
<path d="M246.254 239.634C246.254 235.557 249.396 232.277 253.304 232.277C257.211 232.277 260.354 235.557 260.354 239.634C260.354 243.712 257.211 246.992 253.304 246.992C249.396 246.992 246.254 243.712 246.254 239.634Z" fill="#89DB87"/>
<path d="M91.2344 258.515C91.2344 254.438 94.3769 251.158 98.2843 251.158C102.192 251.158 105.335 254.438 105.335 258.515C105.335 262.593 102.192 265.873 98.2843 265.873C94.3769 265.873 91.2344 262.593 91.2344 258.515Z" fill="#89DB87"/>
<path d="M119.434 258.515C119.434 254.438 122.576 251.158 126.484 251.158C130.391 251.158 133.534 254.438 133.534 258.515C133.534 262.593 130.391 265.873 126.484 265.873C122.576 265.873 119.434 262.593 119.434 258.515Z" fill="#89DB87"/>
<path d="M147.641 258.515C147.641 254.438 150.784 251.158 154.691 251.158C158.598 251.158 161.742 254.438 161.742 258.515C161.742 262.593 158.598 265.873 154.691 265.873C150.784 265.873 147.641 262.593 147.641 258.515Z" fill="#89DB87"/>
<path d="M175.836 258.515C175.836 254.438 178.979 251.158 182.886 251.158C186.794 251.158 189.937 254.438 189.937 258.515C189.937 262.593 186.794 265.873 182.886 265.873C178.979 265.873 175.836 262.593 175.836 258.515Z" fill="#89DB87"/>
<path d="M204.041 258.515C204.041 254.438 207.184 251.158 211.091 251.158C214.999 251.158 218.142 254.438 218.142 258.515C218.142 262.593 214.999 265.873 211.091 265.873C207.184 265.873 204.041 262.593 204.041 258.515Z" fill="#89DB87"/>
<path d="M232.248 258.515C232.248 254.438 235.391 251.158 239.299 251.158C243.206 251.158 246.348 254.438 246.348 258.515C246.348 262.593 243.206 265.873 239.299 265.873C235.391 265.873 232.248 262.593 232.248 258.515Z" fill="#89DB87"/>
<path d="M105.166 278.815C105.166 274.737 108.309 271.457 112.216 271.457C116.124 271.457 119.267 274.737 119.267 278.815C119.267 282.892 116.124 286.172 112.216 286.172C108.309 286.172 105.166 282.892 105.166 278.815Z" fill="#89DB87"/>
<path d="M133.359 278.815C133.359 274.737 136.502 271.457 140.41 271.457C144.317 271.457 147.46 274.737 147.46 278.815C147.46 282.892 144.317 286.172 140.41 286.172C136.502 286.172 133.359 282.892 133.359 278.815Z" fill="#89DB87"/>
<path d="M161.648 278.815C161.648 274.737 164.791 271.457 168.699 271.457C172.606 271.457 175.749 274.737 175.749 278.815C175.749 282.892 172.606 286.172 168.699 286.172C164.791 286.172 161.648 282.892 161.648 278.815Z" fill="#89DB87"/>
<path d="M189.855 278.815C189.855 274.737 192.999 271.457 196.906 271.457C200.813 271.457 203.956 274.737 203.956 278.815C203.956 282.892 200.813 286.172 196.906 286.172C192.999 286.172 189.855 282.892 189.855 278.815Z" fill="#89DB87"/>
<path d="M218.061 278.815C218.061 274.737 221.203 271.457 225.11 271.457C229.018 271.457 232.161 274.737 232.161 278.815C232.161 282.892 229.018 286.172 225.11 286.172C221.203 286.172 218.061 282.892 218.061 278.815Z" fill="#89DB87"/>
<path d="M246.254 278.815C246.254 274.737 249.396 271.457 253.304 271.457C257.211 271.457 260.354 274.737 260.354 278.815C260.354 282.892 257.211 286.172 253.304 286.172C249.396 286.172 246.254 282.892 246.254 278.815Z" fill="#89DB87"/>
<path d="M91.2344 297.696C91.2344 293.618 94.3769 290.338 98.2843 290.338C102.192 290.338 105.335 293.618 105.335 297.696C105.335 301.773 102.192 305.053 98.2843 305.053C94.3769 305.053 91.2344 301.773 91.2344 297.696Z" fill="#89DB87"/>
<path d="M119.434 297.696C119.434 293.618 122.576 290.338 126.484 290.338C130.391 290.338 133.534 293.618 133.534 297.696C133.534 301.773 130.391 305.053 126.484 305.053C122.576 305.053 119.434 301.773 119.434 297.696Z" fill="#89DB87"/>
<path d="M147.641 297.696C147.641 293.618 150.784 290.338 154.691 290.338C158.598 290.338 161.742 293.618 161.742 297.696C161.742 301.773 158.598 305.053 154.691 305.053C150.784 305.053 147.641 301.773 147.641 297.696Z" fill="#89DB87"/>
<path d="M182.886 305.053C186.78 305.053 189.937 301.759 189.937 297.696C189.937 293.632 186.78 290.338 182.886 290.338C178.993 290.338 175.836 293.632 175.836 297.696C175.836 301.759 178.993 305.053 182.886 305.053Z" fill="#89DB87"/>
<path d="M204.041 297.696C204.041 293.618 207.184 290.338 211.091 290.338C214.999 290.338 218.142 293.618 218.142 297.696C218.142 301.773 214.999 305.053 211.091 305.053C207.184 305.053 204.041 301.773 204.041 297.696Z" fill="#89DB87"/>
<path d="M232.248 297.696C232.248 293.618 235.391 290.338 239.299 290.338C243.206 290.338 246.348 293.618 246.348 297.696C246.348 301.773 243.206 305.053 239.299 305.053C235.391 305.053 232.248 301.773 232.248 297.696Z" fill="#89DB87"/>
<path d="M105.166 317.995C105.166 313.917 108.309 310.637 112.216 310.637C116.124 310.637 119.267 313.917 119.267 317.995C119.267 322.072 116.124 325.352 112.216 325.352C108.309 325.352 105.166 322.072 105.166 317.995Z" fill="#89DB87"/>
<path d="M133.359 317.995C133.359 313.917 136.502 310.637 140.41 310.637C144.317 310.637 147.46 313.917 147.46 317.995C147.46 322.072 144.317 325.352 140.41 325.352C136.502 325.352 133.359 322.072 133.359 317.995Z" fill="#89DB87"/>
<path d="M161.648 317.995C161.648 313.917 164.791 310.637 168.699 310.637C172.606 310.637 175.749 313.917 175.749 317.995C175.749 322.072 172.606 325.352 168.699 325.352C164.791 325.352 161.648 322.072 161.648 317.995Z" fill="#89DB87"/>
<path d="M189.855 317.995C189.855 313.917 192.999 310.637 196.906 310.637C200.813 310.637 203.956 313.917 203.956 317.995C203.956 322.072 200.813 325.352 196.906 325.352C192.999 325.352 189.855 322.072 189.855 317.995Z" fill="#89DB87"/>
<path d="M218.061 317.995C218.061 313.917 221.203 310.637 225.11 310.637C229.018 310.637 232.161 313.917 232.161 317.995C232.161 322.072 229.018 325.352 225.11 325.352C221.203 325.352 218.061 322.072 218.061 317.995Z" fill="#89DB87"/>
<path d="M246.254 317.995C246.254 313.917 249.396 310.637 253.304 310.637C257.211 310.637 260.354 313.917 260.354 317.995C260.354 322.072 257.211 325.352 253.304 325.352C249.396 325.352 246.254 322.072 246.254 317.995Z" fill="#89DB87"/>
<path d="M91.2344 336.964C91.2344 332.886 94.3769 329.606 98.2843 329.606C102.192 329.606 105.335 332.886 105.335 336.964C105.335 341.041 102.192 344.321 98.2843 344.321C94.3769 344.321 91.2344 341.041 91.2344 336.964Z" fill="#89DB87"/>
<path d="M119.434 336.964C119.434 332.886 122.576 329.606 126.484 329.606C130.391 329.606 133.534 332.886 133.534 336.964C133.534 341.041 130.391 344.321 126.484 344.321C122.576 344.321 119.434 341.041 119.434 336.964Z" fill="#89DB87"/>
<path d="M147.641 336.964C147.641 332.886 150.784 329.606 154.691 329.606C158.598 329.606 161.742 332.886 161.742 336.964C161.742 341.041 158.598 344.321 154.691 344.321C150.784 344.321 147.641 341.041 147.641 336.964Z" fill="#89DB87"/>
<path d="M175.836 336.964C175.836 332.886 178.979 329.606 182.886 329.606C186.794 329.606 189.937 332.886 189.937 336.964C189.937 341.041 186.794 344.321 182.886 344.321C178.979 344.321 175.836 341.041 175.836 336.964Z" fill="#89DB87"/>
<path d="M204.041 336.964C204.041 332.886 207.184 329.606 211.091 329.606C214.999 329.606 218.142 332.886 218.142 336.964C218.142 341.041 214.999 344.321 211.091 344.321C207.184 344.321 204.041 341.041 204.041 336.964Z" fill="#89DB87"/>
<path d="M232.248 336.964C232.248 332.886 235.391 329.606 239.299 329.606C243.206 329.606 246.348 332.886 246.348 336.964C246.348 341.041 243.206 344.321 239.299 344.321C235.391 344.321 232.248 341.041 232.248 336.964Z" fill="#89DB87"/>
<path d="M105.166 357.175C105.166 353.097 108.309 349.818 112.216 349.818C116.124 349.818 119.267 353.097 119.267 357.175C119.267 361.253 116.124 364.532 112.216 364.532C108.309 364.532 105.166 361.253 105.166 357.175Z" fill="#89DB87"/>
<path d="M133.359 357.175C133.359 353.097 136.502 349.818 140.41 349.818C144.317 349.818 147.46 353.097 147.46 357.175C147.46 361.253 144.317 364.532 140.41 364.532C136.502 364.532 133.359 361.253 133.359 357.175Z" fill="#89DB87"/>
<path d="M161.648 357.175C161.648 353.097 164.791 349.818 168.699 349.818C172.606 349.818 175.749 353.097 175.749 357.175C175.749 361.253 172.606 364.532 168.699 364.532C164.791 364.532 161.648 361.253 161.648 357.175Z" fill="#89DB87"/>
<path d="M189.855 357.175C189.855 353.097 192.999 349.818 196.906 349.818C200.813 349.818 203.956 353.097 203.956 357.175C203.956 361.253 200.813 364.532 196.906 364.532C192.999 364.532 189.855 361.253 189.855 357.175Z" fill="#89DB87"/>
<path d="M218.061 357.175C218.061 353.097 221.203 349.818 225.11 349.818C229.018 349.818 232.161 353.097 232.161 357.175C232.161 361.253 229.018 364.532 225.11 364.532C221.203 364.532 218.061 361.253 218.061 357.175Z" fill="#89DB87"/>
<path d="M246.254 357.175C246.254 353.097 249.396 349.818 253.304 349.818C257.211 349.818 260.354 353.097 260.354 357.175C260.354 361.253 257.211 364.532 253.304 364.532C249.396 364.532 246.254 361.253 246.254 357.175Z" fill="#89DB87"/>
<path d="M91.2344 376.144C91.2344 372.066 94.3769 368.786 98.2843 368.786C102.192 368.786 105.335 372.066 105.335 376.144C105.335 380.221 102.192 383.501 98.2843 383.501C94.3769 383.501 91.2344 380.221 91.2344 376.144Z" fill="#89DB87"/>
<path d="M119.434 376.144C119.434 372.066 122.576 368.786 126.484 368.786C130.391 368.786 133.534 372.066 133.534 376.144C133.534 380.221 130.391 383.501 126.484 383.501C122.576 383.501 119.434 380.221 119.434 376.144Z" fill="#89DB87"/>
<path d="M147.641 376.144C147.641 372.066 150.784 368.786 154.691 368.786C158.598 368.786 161.742 372.066 161.742 376.144C161.742 380.221 158.598 383.501 154.691 383.501C150.784 383.501 147.641 380.221 147.641 376.144Z" fill="#89DB87"/>
<path d="M175.836 376.144C175.836 372.066 178.979 368.786 182.886 368.786C186.794 368.786 189.937 372.066 189.937 376.144C189.937 380.221 186.794 383.501 182.886 383.501C178.979 383.501 175.836 380.221 175.836 376.144Z" fill="#89DB87"/>
<path d="M204.041 376.144C204.041 372.066 207.184 368.786 211.091 368.786C214.999 368.786 218.142 372.066 218.142 376.144C218.142 380.221 214.999 383.501 211.091 383.501C207.184 383.501 204.041 380.221 204.041 376.144Z" fill="#89DB87"/>
<path d="M232.248 376.144C232.248 372.066 235.391 368.786 239.299 368.786C243.206 368.786 246.348 372.066 246.348 376.144C246.348 380.221 243.206 383.501 239.299 383.501C235.391 383.501 232.248 380.221 232.248 376.144Z" fill="#89DB87"/>
<path d="M105.166 396.445C105.166 392.367 108.309 389.087 112.216 389.087C116.124 389.087 119.267 392.367 119.267 396.445C119.267 400.522 116.124 403.802 112.216 403.802C108.309 403.802 105.166 400.522 105.166 396.445Z" fill="#89DB87"/>
<path d="M133.359 396.445C133.359 392.367 136.502 389.087 140.41 389.087C144.317 389.087 147.46 392.367 147.46 396.445C147.46 400.522 144.317 403.802 140.41 403.802C136.502 403.802 133.359 400.522 133.359 396.445Z" fill="#89DB87"/>
<path d="M161.648 396.445C161.648 392.367 164.791 389.087 168.699 389.087C172.606 389.087 175.749 392.367 175.749 396.445C175.749 400.522 172.606 403.802 168.699 403.802C164.791 403.802 161.648 400.522 161.648 396.445Z" fill="#89DB87"/>
<path d="M189.855 396.445C189.855 392.367 192.999 389.087 196.906 389.087C200.813 389.087 203.956 392.367 203.956 396.445C203.956 400.522 200.813 403.802 196.906 403.802C192.999 403.802 189.855 400.522 189.855 396.445Z" fill="#89DB87"/>
<path d="M218.061 396.445C218.061 392.367 221.203 389.087 225.11 389.087C229.018 389.087 232.161 392.367 232.161 396.445C232.161 400.522 229.018 403.802 225.11 403.802C221.203 403.802 218.061 400.522 218.061 396.445Z" fill="#89DB87"/>
<path d="M246.254 396.445C246.254 392.367 249.396 389.087 253.304 389.087C257.211 389.087 260.354 392.367 260.354 396.445C260.354 400.522 257.211 403.802 253.304 403.802C249.396 403.802 246.254 400.522 246.254 396.445Z" fill="#89DB87"/>
<path d="M91.2344 415.325C91.2344 411.248 94.3769 407.968 98.2843 407.968C102.192 407.968 105.335 411.248 105.335 415.325C105.335 419.403 102.192 422.683 98.2843 422.683C94.3769 422.683 91.2344 419.403 91.2344 415.325Z" fill="#89DB87"/>
<path d="M119.434 415.325C119.434 411.248 122.576 407.968 126.484 407.968C130.391 407.968 133.534 411.248 133.534 415.325C133.534 419.403 130.391 422.683 126.484 422.683C122.576 422.683 119.434 419.403 119.434 415.325Z" fill="#89DB87"/>
<path d="M147.641 415.325C147.641 411.248 150.784 407.968 154.691 407.968C158.598 407.968 161.742 411.248 161.742 415.325C161.742 419.403 158.598 422.683 154.691 422.683C150.784 422.683 147.641 419.403 147.641 415.325Z" fill="#89DB87"/>
<path d="M175.836 415.325C175.836 411.248 178.979 407.968 182.886 407.968C186.794 407.968 189.937 411.248 189.937 415.325C189.937 419.403 186.794 422.683 182.886 422.683C178.979 422.683 175.836 419.403 175.836 415.325Z" fill="#89DB87"/>
<path d="M204.041 415.325C204.041 411.248 207.184 407.968 211.091 407.968C214.999 407.968 218.142 411.248 218.142 415.325C218.142 419.403 214.999 422.683 211.091 422.683C207.184 422.683 204.041 419.403 204.041 415.325Z" fill="#89DB87"/>
<path d="M232.248 415.325C232.248 411.248 235.391 407.968 239.299 407.968C243.206 407.968 246.348 411.248 246.348 415.325C246.348 419.403 243.206 422.683 239.299 422.683C235.391 422.683 232.248 419.403 232.248 415.325Z" fill="#89DB87"/>
<path d="M105.166 435.625C105.166 431.547 108.309 428.268 112.216 428.268C116.124 428.268 119.267 431.547 119.267 435.625C119.267 439.702 116.124 442.982 112.216 442.982C108.309 442.982 105.166 439.702 105.166 435.625Z" fill="#89DB87"/>
<path d="M133.359 435.625C133.359 431.547 136.502 428.268 140.41 428.268C144.317 428.268 147.46 431.547 147.46 435.625C147.46 439.702 144.317 442.982 140.41 442.982C136.502 442.982 133.359 439.702 133.359 435.625Z" fill="#89DB87"/>
<path d="M161.648 435.625C161.648 431.547 164.791 428.268 168.699 428.268C172.606 428.268 175.749 431.547 175.749 435.625C175.749 439.702 172.606 442.982 168.699 442.982C164.791 442.982 161.648 439.702 161.648 435.625Z" fill="#89DB87"/>
<path d="M189.855 435.625C189.855 431.547 192.999 428.268 196.906 428.268C200.813 428.268 203.956 431.547 203.956 435.625C203.956 439.702 200.813 442.982 196.906 442.982C192.999 442.982 189.855 439.702 189.855 435.625Z" fill="#89DB87"/>
<path d="M218.061 435.625C218.061 431.547 221.203 428.268 225.11 428.268C229.018 428.268 232.161 431.547 232.161 435.625C232.161 439.702 229.018 442.982 225.11 442.982C221.203 442.982 218.061 439.702 218.061 435.625Z" fill="#89DB87"/>
<path d="M246.254 435.625C246.254 431.547 249.396 428.268 253.304 428.268C257.211 428.268 260.354 431.547 260.354 435.625C260.354 439.702 257.211 442.982 253.304 442.982C249.396 442.982 246.254 439.702 246.254 435.625Z" fill="#89DB87"/>
<path d="M91.2344 454.506C91.2344 450.428 94.3769 447.148 98.2843 447.148C102.192 447.148 105.335 450.428 105.335 454.506C105.335 458.583 102.192 461.863 98.2843 461.863C94.3769 461.863 91.2344 458.583 91.2344 454.506Z" fill="#89DB87"/>
<path d="M119.434 454.506C119.434 450.428 122.576 447.148 126.484 447.148C130.391 447.148 133.534 450.428 133.534 454.506C133.534 458.583 130.391 461.863 126.484 461.863C122.576 461.863 119.434 458.583 119.434 454.506Z" fill="#89DB87"/>
<path d="M147.641 454.506C147.641 450.428 150.784 447.148 154.691 447.148C158.598 447.148 161.742 450.428 161.742 454.506C161.742 458.583 158.598 461.863 154.691 461.863C150.784 461.863 147.641 458.583 147.641 454.506Z" fill="#89DB87"/>
<path d="M175.836 454.506C175.836 450.428 178.979 447.148 182.886 447.148C186.794 447.148 189.937 450.428 189.937 454.506C189.937 458.583 186.794 461.863 182.886 461.863C178.979 461.863 175.836 458.583 175.836 454.506Z" fill="#89DB87"/>
<path d="M204.041 454.506C204.041 450.428 207.184 447.148 211.091 447.148C214.999 447.148 218.142 450.428 218.142 454.506C218.142 458.583 214.999 461.863 211.091 461.863C207.184 461.863 204.041 458.583 204.041 454.506Z" fill="#89DB87"/>
<path d="M232.248 454.506C232.248 450.428 235.391 447.148 239.299 447.148C243.206 447.148 246.348 450.428 246.348 454.506C246.348 458.583 243.206 461.863 239.299 461.863C235.391 461.863 232.248 458.583 232.248 454.506Z" fill="#89DB87"/>
<path d="M105.166 474.805C105.166 470.727 108.309 467.447 112.216 467.447C116.124 467.447 119.267 470.727 119.267 474.805C119.267 478.882 116.124 482.162 112.216 482.162C108.309 482.162 105.166 478.882 105.166 474.805Z" fill="#89DB87"/>
<path d="M133.359 474.805C133.359 470.727 136.502 467.447 140.41 467.447C144.317 467.447 147.46 470.727 147.46 474.805C147.46 478.882 144.317 482.162 140.41 482.162C136.502 482.162 133.359 478.882 133.359 474.805Z" fill="#89DB87"/>
<path d="M161.648 474.805C161.648 470.727 164.791 467.447 168.699 467.447C172.606 467.447 175.749 470.727 175.749 474.805C175.749 478.882 172.606 482.162 168.699 482.162C164.791 482.162 161.648 478.882 161.648 474.805Z" fill="#89DB87"/>
<path d="M189.855 474.805C189.855 470.727 192.999 467.447 196.906 467.447C200.813 467.447 203.956 470.727 203.956 474.805C203.956 478.882 200.813 482.162 196.906 482.162C192.999 482.162 189.855 478.882 189.855 474.805Z" fill="#89DB87"/>
<path d="M218.061 474.805C218.061 470.727 221.203 467.447 225.11 467.447C229.018 467.447 232.161 470.727 232.161 474.805C232.161 478.882 229.018 482.162 225.11 482.162C221.203 482.162 218.061 478.882 218.061 474.805Z" fill="#89DB87"/>
<path d="M246.254 474.805C246.254 470.727 249.396 467.447 253.304 467.447C257.211 467.447 260.354 470.727 260.354 474.805C260.354 478.882 257.211 482.162 253.304 482.162C249.396 482.162 246.254 478.882 246.254 474.805Z" fill="#89DB87"/>
<path d="M91.2344 493.774C91.2344 489.696 94.3769 486.416 98.2843 486.416C102.192 486.416 105.335 489.696 105.335 493.774C105.335 497.851 102.192 501.131 98.2843 501.131C94.3769 501.131 91.2344 497.851 91.2344 493.774Z" fill="#89DB87"/>
<path d="M119.434 493.774C119.434 489.696 122.576 486.416 126.484 486.416C130.391 486.416 133.534 489.696 133.534 493.774C133.534 497.851 130.391 501.131 126.484 501.131C122.576 501.131 119.434 497.851 119.434 493.774Z" fill="#89DB87"/>
<path d="M147.641 493.774C147.641 489.696 150.784 486.416 154.691 486.416C158.598 486.416 161.742 489.696 161.742 493.774C161.742 497.851 158.598 501.131 154.691 501.131C150.784 501.131 147.641 497.851 147.641 493.774Z" fill="#89DB87"/>
<path d="M175.836 493.774C175.836 489.696 178.979 486.416 182.886 486.416C186.794 486.416 189.937 489.696 189.937 493.774C189.937 497.851 186.794 501.131 182.886 501.131C178.979 501.131 175.836 497.851 175.836 493.774Z" fill="#89DB87"/>
<path d="M204.041 493.774C204.041 489.696 207.184 486.416 211.091 486.416C214.999 486.416 218.142 489.696 218.142 493.774C218.142 497.851 214.999 501.131 211.091 501.131C207.184 501.131 204.041 497.851 204.041 493.774Z" fill="#89DB87"/>
<path d="M232.248 493.774C232.248 489.696 235.391 486.416 239.299 486.416C243.206 486.416 246.348 489.696 246.348 493.774C246.348 497.851 243.206 501.131 239.299 501.131C235.391 501.131 232.248 497.851 232.248 493.774Z" fill="#89DB87"/>
<path d="M105.166 513.985C105.166 509.907 108.309 506.628 112.216 506.628C116.124 506.628 119.267 509.907 119.267 513.985C119.267 518.063 116.124 521.342 112.216 521.342C108.309 521.342 105.166 518.063 105.166 513.985Z" fill="#89DB87"/>
<path d="M133.359 513.985C133.359 509.907 136.502 506.628 140.41 506.628C144.317 506.628 147.46 509.907 147.46 513.985C147.46 518.063 144.317 521.342 140.41 521.342C136.502 521.342 133.359 518.063 133.359 513.985Z" fill="#89DB87"/>
<path d="M161.648 513.985C161.648 509.907 164.791 506.628 168.699 506.628C172.606 506.628 175.749 509.907 175.749 513.985C175.749 518.063 172.606 521.342 168.699 521.342C164.791 521.342 161.648 518.063 161.648 513.985Z" fill="#89DB87"/>
<path d="M189.855 513.985C189.855 509.907 192.999 506.628 196.906 506.628C200.813 506.628 203.956 509.907 203.956 513.985C203.956 518.063 200.813 521.342 196.906 521.342C192.999 521.342 189.855 518.063 189.855 513.985Z" fill="#89DB87"/>
<path d="M218.061 513.985C218.061 509.907 221.203 506.628 225.11 506.628C229.018 506.628 232.161 509.907 232.161 513.985C232.161 518.063 229.018 521.342 225.11 521.342C221.203 521.342 218.061 518.063 218.061 513.985Z" fill="#89DB87"/>
<path d="M246.254 513.985C246.254 509.907 249.396 506.628 253.304 506.628C257.211 506.628 260.354 509.907 260.354 513.985C260.354 518.063 257.211 521.342 253.304 521.342C249.396 521.342 246.254 518.063 246.254 513.985Z" fill="#89DB87"/>
<path d="M91.2344 532.954C91.2344 528.876 94.3769 525.597 98.2843 525.597C102.192 525.597 105.335 528.876 105.335 532.954C105.335 537.032 102.192 540.311 98.2843 540.311C94.3769 540.311 91.2344 537.032 91.2344 532.954Z" fill="#89DB87"/>
<path d="M119.434 532.954C119.434 528.876 122.576 525.597 126.484 525.597C130.391 525.597 133.534 528.876 133.534 532.954C133.534 537.032 130.391 540.311 126.484 540.311C122.576 540.311 119.434 537.032 119.434 532.954Z" fill="#89DB87"/>
<path d="M147.641 532.954C147.641 528.876 150.784 525.597 154.691 525.597C158.598 525.597 161.742 528.876 161.742 532.954C161.742 537.032 158.598 540.311 154.691 540.311C150.784 540.311 147.641 537.032 147.641 532.954Z" fill="#89DB87"/>
<path d="M175.836 532.954C175.836 528.876 178.979 525.597 182.886 525.597C186.794 525.597 189.937 528.876 189.937 532.954C189.937 537.032 186.794 540.311 182.886 540.311C178.979 540.311 175.836 537.032 175.836 532.954Z" fill="#89DB87"/>
<path d="M204.041 532.954C204.041 528.876 207.184 525.597 211.091 525.597C214.999 525.597 218.142 528.876 218.142 532.954C218.142 537.032 214.999 540.311 211.091 540.311C207.184 540.311 204.041 537.032 204.041 532.954Z" fill="#89DB87"/>
<path d="M232.248 532.954C232.248 528.876 235.391 525.597 239.299 525.597C243.206 525.597 246.348 528.876 246.348 532.954C246.348 537.032 243.206 540.311 239.299 540.311C235.391 540.311 232.248 537.032 232.248 532.954Z" fill="#89DB87"/>
<path d="M112.216 560.523C116.11 560.523 119.267 557.229 119.267 553.166C119.267 549.102 116.11 545.808 112.216 545.808C108.323 545.808 105.166 549.102 105.166 553.166C105.166 557.229 108.323 560.523 112.216 560.523Z" fill="#89DB87"/>
<path d="M133.359 553.166C133.359 549.088 136.502 545.808 140.41 545.808C144.317 545.808 147.46 549.088 147.46 553.166C147.46 557.243 144.317 560.523 140.41 560.523C136.502 560.523 133.359 557.243 133.359 553.166Z" fill="#89DB87"/>
<path d="M161.648 553.166C161.648 549.088 164.791 545.808 168.699 545.808C172.606 545.808 175.749 549.088 175.749 553.166C175.749 557.243 172.606 560.523 168.699 560.523C164.791 560.523 161.648 557.243 161.648 553.166Z" fill="#89DB87"/>
<path d="M189.855 553.166C189.855 549.088 192.999 545.808 196.906 545.808C200.813 545.808 203.956 549.088 203.956 553.166C203.956 557.243 200.813 560.523 196.906 560.523C192.999 560.523 189.855 557.243 189.855 553.166Z" fill="#89DB87"/>
<path d="M218.061 553.166C218.061 549.088 221.203 545.808 225.11 545.808C229.018 545.808 232.161 549.088 232.161 553.166C232.161 557.243 229.018 560.523 225.11 560.523C221.203 560.523 218.061 557.243 218.061 553.166Z" fill="#89DB87"/>
<path d="M246.254 553.166C246.254 549.088 249.396 545.808 253.304 545.808C257.211 545.808 260.354 549.088 260.354 553.166C260.354 557.243 257.211 560.523 253.304 560.523C249.396 560.523 246.254 557.243 246.254 553.166Z" fill="#89DB87"/>
<path d="M91.2344 572.135C91.2344 568.057 94.3769 564.777 98.2843 564.777C102.192 564.777 105.335 568.057 105.335 572.135C105.335 576.212 102.192 579.492 98.2843 579.492C94.3769 579.492 91.2344 576.212 91.2344 572.135Z" fill="#89DB87"/>
<path d="M119.434 572.135C119.434 568.057 122.576 564.777 126.484 564.777C130.391 564.777 133.534 568.057 133.534 572.135C133.534 576.212 130.391 579.492 126.484 579.492C122.576 579.492 119.434 576.212 119.434 572.135Z" fill="#89DB87"/>
<path d="M147.641 572.135C147.641 568.057 150.784 564.777 154.691 564.777C158.598 564.777 161.742 568.057 161.742 572.135C161.742 576.212 158.598 579.492 154.691 579.492C150.784 579.492 147.641 576.212 147.641 572.135Z" fill="#89DB87"/>
<path d="M175.836 572.135C175.836 568.057 178.979 564.777 182.886 564.777C186.794 564.777 189.937 568.057 189.937 572.135C189.937 576.212 186.794 579.492 182.886 579.492C178.979 579.492 175.836 576.212 175.836 572.135Z" fill="#89DB87"/>
<path d="M204.041 572.135C204.041 568.057 207.184 564.777 211.091 564.777C214.999 564.777 218.142 568.057 218.142 572.135C218.142 576.212 214.999 579.492 211.091 579.492C207.184 579.492 204.041 576.212 204.041 572.135Z" fill="#89DB87"/>
<path d="M232.248 572.135C232.248 568.057 235.391 564.777 239.299 564.777C243.206 564.777 246.348 568.057 246.348 572.135C246.348 576.212 243.206 579.492 239.299 579.492C235.391 579.492 232.248 576.212 232.248 572.135Z" fill="#89DB87"/>
</g>
</svg>
