<svg width="141" height="124" viewBox="0 0 141 124" fill="none" xmlns="http://www.w3.org/2000/svg">
<path d="M34.3336 110.714C13.123 97.4762 2.13832 79.0646 1.37947 55.4795C0.620615 31.8945 10.6332 16.2141 31.4173 8.43823C52.2014 0.662392 73.6981 -0.166921 95.9076 5.95029C118.117 12.0675 132.095 28.8517 137.841 56.3029C143.587 83.7541 133.075 102.995 106.305 114.026C79.5346 125.056 55.5441 123.953 34.3336 110.714Z" fill="#A154F2"/>
<path d="M34.3336 110.714C13.123 97.4762 2.13832 79.0646 1.37947 55.4795C0.620615 31.8945 10.6332 16.2141 31.4173 8.43823C52.2014 0.662392 73.6981 -0.166921 95.9076 5.95029C118.117 12.0675 132.095 28.8517 137.841 56.3029C143.587 83.7541 133.075 102.995 106.305 114.026C79.5346 125.056 55.5441 123.953 34.3336 110.714Z" fill="url(#paint0_linear_5563_96656)"/>
<path d="M73.5 44.7334L88.7929 60.0263C89.1834 60.4168 89.1834 61.05 88.7929 61.4405L73.5 76.7334" stroke="black" stroke-width="4" stroke-linecap="round"/>
<path d="M86 60.7334H54" stroke="black" stroke-width="4" stroke-linecap="round"/>
<defs>
<linearGradient id="paint0_linear_5563_96656" x1="-76.5" y1="92.2334" x2="75.9186" y2="129.525" gradientUnits="userSpaceOnUse">
<stop offset="0.31" stop-color="#58FAFF"/>
<stop offset="1" stop-color="#B2FDFF"/>
</linearGradient>
</defs>
</svg>
