<svg width="395" height="313" viewBox="0 0 395 313" fill="none" xmlns="http://www.w3.org/2000/svg">
<g clip-path="url(#clip0_5921_138769)">
<path d="M322.026 234.63C269.088 238.607 276.921 266.709 249.649 265.25C222.376 263.791 220.323 244.844 173.165 239.732C126.007 234.63 101.011 239.732 79.7087 221.298C58.4062 202.864 97.1725 194.944 116.868 182.926C136.564 170.907 129.422 154.868 154.697 149.377C179.983 143.886 200.516 166.474 225.646 161.351C270.829 152.139 265.204 169.693 300.478 175.942C332.705 181.656 353.583 189.965 360.357 197.729C367.131 205.492 374.964 230.643 322.015 234.619L322.026 234.63Z" fill="url(#paint0_linear_5921_138769)"/>
<path d="M330.083 0.256139C280.85 6.12607 283.505 33.727 233.134 47.8728C182.762 62.0185 114.592 52.8294 111.735 75.9861C108.879 99.1539 223.381 115.36 207.993 170.818C186.958 246.615 377.007 179.161 407.984 165.55C574.565 92.3484 379.305 -5.61379 330.083 0.256139Z" fill="url(#paint1_linear_5921_138769)"/>
<path d="M111.643 130.116C136.444 110.733 135.603 68.3163 109.763 35.3755C83.9236 2.43464 42.8714 -8.55639 18.0703 10.8263C-6.73072 30.2091 -5.8889 72.6257 19.9506 105.567C45.7901 138.507 86.8423 149.498 111.643 130.116Z" fill="url(#paint2_linear_5921_138769)"/>
<path d="M362.879 256.205C398.075 267.945 392.026 267.232 431.351 268.19C451.738 268.691 457.976 294.31 396.758 309.146C301.929 332.125 327.684 244.477 362.868 256.205H362.879Z" fill="#73EFC6"/>
</g>
<defs>
<linearGradient id="paint0_linear_5921_138769" x1="73.5043" y1="206.918" x2="365.222" y2="206.918" gradientUnits="userSpaceOnUse">
<stop offset="0.09" stop-color="#F09CDC"/>
<stop offset="1" stop-color="#FAE8F6"/>
</linearGradient>
<linearGradient id="paint1_linear_5921_138769" x1="111.559" y1="102.377" x2="473.977" y2="103.898" gradientUnits="userSpaceOnUse">
<stop stop-color="#C1FAFD"/>
<stop offset="0.27" stop-color="#BFFAFD"/>
<stop offset="1" stop-color="#88F6FC"/>
</linearGradient>
<linearGradient id="paint2_linear_5921_138769" x1="-1.61176" y1="43.75" x2="131.264" y2="97.3709" gradientUnits="userSpaceOnUse">
<stop offset="0.39" stop-color="#8EA3D9"/>
<stop offset="1" stop-color="#BBC7E8"/>
</linearGradient>
<clipPath id="clip0_5921_138769">
<rect width="474" height="313" fill="white"/>
</clipPath>
</defs>
</svg>
