<?xml version="1.0" encoding="utf-8"?>
<!-- Generator: Adobe Illustrator 23.0.3, SVG Export Plug-In . SVG Version: 6.00 Build 0)  -->
<svg version="1.1" id="圖層_1" xmlns="http://www.w3.org/2000/svg" xmlns:xlink="http://www.w3.org/1999/xlink" x="0px" y="0px"
	 viewBox="0 0 1440 96.4" style="enable-background:new 0 0 1440 96.4;" xml:space="preserve">
<style type="text/css">
	.st0{fill:url(#SVGID_1_);}
	.st1{fill:#FFFFFF;}
</style>
<linearGradient id="SVGID_1_" gradientUnits="userSpaceOnUse" x1="32" y1="48.2172" x2="268.5287" y2="48.2172">
	<stop  offset="0.15" style="stop-color:#ED8188"/>
	<stop  offset="1" style="stop-color:#F6CACE"/>
</linearGradient>
<path class="st0" d="M181,1.5c-32.9,7.8-43.9,37.6-94.6,35.4c-21.7-0.9-35.8,2.7-42.6,5.9c-3.7,1.7-6.9,4.3-9.1,7.7l0,0
	c-9,13.7,6.1,25.8,35.4,22.4c30.2-3.5,44.9,8.3,77.3,23.5h97.8c14.8-7.8,24.6-19.7,23.3-35.4C265,18.7,213.9-6.4,181,1.5z"/>
<path class="st1" d="M1440,18.5c-74.3-15.2-159.5-21-255.6-17.5c-117.1,4.2-226.7,17.4-328.9,39.7c-17.5,1.5-34.5,4.2-51.1,8
	c-225.6,52.4-387.5,51-524.7,26.7C191.3,59.7,98,52.5,0,53.8v42.6h1440V18.5z"/>
</svg>
