<svg width="98" height="79" viewBox="0 0 98 79" fill="none" xmlns="http://www.w3.org/2000/svg">
<path d="M88.8765 56.7237C77.648 67.4647 63.0108 74.4148 44.9651 77.5739C26.9193 80.733 13.9363 75.3625 6.01623 61.4624C-1.90387 47.5623 -2.00412 33.5042 5.71546 19.2881C13.4351 5.07206 27.1699 -1.28568 46.92 0.214908C66.6701 1.71549 81.4075 8.82352 91.1322 21.539C100.857 34.2545 100.105 45.9827 88.8765 56.7237Z" fill="#A154F2"/>
<path d="M88.8765 56.7237C77.648 67.4647 63.0108 74.4148 44.9651 77.5739C26.9193 80.733 13.9363 75.3625 6.01623 61.4624C-1.90387 47.5623 -2.00412 33.5042 5.71546 19.2881C13.4351 5.07206 27.1699 -1.28568 46.92 0.214908C66.6701 1.71549 81.4075 8.82352 91.1322 21.539C100.857 34.2545 100.105 45.9827 88.8765 56.7237Z" fill="url(#paint0_linear_7840_3306)"/>
<path d="M88.8765 56.7237C77.648 67.4647 63.0108 74.4148 44.9651 77.5739C26.9193 80.733 13.9363 75.3625 6.01623 61.4624C-1.90387 47.5623 -2.00412 33.5042 5.71546 19.2881C13.4351 5.07206 27.1699 -1.28568 46.92 0.214908C66.6701 1.71549 81.4075 8.82352 91.1322 21.539C100.857 34.2545 100.105 45.9827 88.8765 56.7237Z" fill="url(#paint1_linear_7840_3306)"/>
<path d="M88.8765 56.7237C77.648 67.4647 63.0108 74.4148 44.9651 77.5739C26.9193 80.733 13.9363 75.3625 6.01623 61.4624C-1.90387 47.5623 -2.00412 33.5042 5.71546 19.2881C13.4351 5.07206 27.1699 -1.28568 46.92 0.214908C66.6701 1.71549 81.4075 8.82352 91.1322 21.539C100.857 34.2545 100.105 45.9827 88.8765 56.7237Z" fill="#1FF4C4"/>
<path d="M44.7368 28.8246L35.0701 38.4912C34.6796 38.8817 34.6796 39.5149 35.0701 39.9054L44.7368 49.5721" stroke="black" stroke-width="4" stroke-linecap="round"/>
<path d="M36.6323 39.1983H57.3798" stroke="black" stroke-width="4" stroke-linecap="round"/>
<defs>
<linearGradient id="paint0_linear_7840_3306" x1="-0.281831" y1="49.5279" x2="141.038" y2="-20.4662" gradientUnits="userSpaceOnUse">
<stop offset="0.15" stop-color="#FF7B87"/>
<stop offset="1" stop-color="white"/>
</linearGradient>
<linearGradient id="paint1_linear_7840_3306" x1="0.73965" y1="42.3035" x2="97.5404" y2="36.7146" gradientUnits="userSpaceOnUse">
<stop offset="0.31" stop-color="#58FAFF"/>
<stop offset="1" stop-color="#B2FDFF"/>
</linearGradient>
</defs>
</svg>
