<svg width="92" height="80" viewBox="0 0 92 80" fill="none" xmlns="http://www.w3.org/2000/svg">
<path d="M22.2599 71.7827C8.50782 63.1996 1.38578 51.2623 0.893777 35.9707C0.40177 20.6791 6.89354 10.5125 20.3691 5.47101C33.8446 0.429468 47.7823 -0.108225 62.182 3.85793C76.5817 7.82408 85.6443 18.7063 89.37 36.5045C93.0956 54.3027 86.28 66.7778 68.9232 73.9296C51.5664 81.0815 36.0119 80.3658 22.2599 71.7827Z" fill="#A154F2"/>
<path d="M22.2599 71.7827C8.50782 63.1996 1.38578 51.2623 0.893777 35.9707C0.40177 20.6791 6.89354 10.5125 20.3691 5.47101C33.8446 0.429468 47.7823 -0.108225 62.182 3.85793C76.5817 7.82408 85.6443 18.7063 89.37 36.5045C93.0956 54.3027 86.28 66.7778 68.9232 73.9296C51.5664 81.0815 36.0119 80.3658 22.2599 71.7827Z" fill="url(#paint0_linear_7840_3317)"/>
<path d="M22.2599 71.7827C8.50782 63.1996 1.38578 51.2623 0.893777 35.9707C0.40177 20.6791 6.89354 10.5125 20.3691 5.47101C33.8446 0.429468 47.7823 -0.108225 62.182 3.85793C76.5817 7.82408 85.6443 18.7063 89.37 36.5045C93.0956 54.3027 86.28 66.7778 68.9232 73.9296C51.5664 81.0815 36.0119 80.3658 22.2599 71.7827Z" fill="url(#paint1_linear_7840_3317)"/>
<path d="M22.2599 71.7827C8.50782 63.1996 1.38578 51.2623 0.893777 35.9707C0.40177 20.6791 6.89354 10.5125 20.3691 5.47101C33.8446 0.429468 47.7823 -0.108225 62.182 3.85793C76.5817 7.82408 85.6443 18.7063 89.37 36.5045C93.0956 54.3027 86.28 66.7778 68.9232 73.9296C51.5664 81.0815 36.0119 80.3658 22.2599 71.7827Z" fill="#1FF4C4"/>
<path d="M47.6538 29.0033L57.3205 38.6699C57.711 39.0605 57.711 39.6936 57.3205 40.0842L47.6538 49.7508" stroke="black" stroke-width="4" stroke-linecap="round"/>
<path d="M55.7583 39.3771H35.0108" stroke="black" stroke-width="4" stroke-linecap="round"/>
<defs>
<linearGradient id="paint0_linear_7840_3317" x1="-49.6001" y1="59.8004" x2="49.2219" y2="83.9788" gradientUnits="userSpaceOnUse">
<stop offset="0.31" stop-color="#58FAFF"/>
<stop offset="1" stop-color="#B2FDFF"/>
</linearGradient>
<linearGradient id="paint1_linear_7840_3317" x1="-1.86661" y1="50.2173" x2="87.9525" y2="12.6189" gradientUnits="userSpaceOnUse">
<stop offset="0.45" stop-color="#1FF4C4"/>
<stop offset="0.85" stop-color="#88DA86"/>
</linearGradient>
</defs>
</svg>
