<svg width="655" height="65" viewBox="0 0 655 65" fill="none" xmlns="http://www.w3.org/2000/svg">
<path d="M0.0195312 53.6567C0.0195312 47.095 4.69805 42.3135 11.1381 42.3135C16.669 42.3135 20.9403 45.741 22.0389 51.015H17.1047C16.2523 48.5342 14.0267 46.9625 11.2329 46.9625C7.55824 46.9625 4.91587 49.7557 4.91587 53.6567C4.91587 57.5577 7.55824 60.3508 11.2329 60.3508C14.0646 60.3508 16.3849 58.6844 17.1994 56.0806H22.0673C21.0634 61.4871 16.7259 64.9999 11.1381 64.9999C4.69805 64.9999 0.0195312 60.2278 0.0195312 53.6567Z" fill="#414042"/>
<path d="M41.7374 64.1193V64.6495H36.3013L29.7381 55.7965V64.6495H24.9648V42.6638H33.1001C37.9681 42.6638 40.8567 45.6464 40.8567 49.7936C40.8567 53.0318 39.0951 55.5693 35.9224 56.4877L41.7374 64.1193ZM32.9107 47.2465H29.7381V53.0223H32.9392C34.8522 53.0223 36.0171 51.9902 36.0171 50.1344C36.0171 48.2786 34.8238 47.2465 32.9107 47.2465Z" fill="#414042"/>
<path d="M48.7749 60.1236H58.1319V64.6495H43.9922V42.6638H57.8763V47.095H48.7654V51.4316H57.2512V55.7965H48.7654V60.1331L48.7749 60.1236Z" fill="#414042"/>
<path d="M71.5798 42.6638L79.9045 64.1193V64.6495H74.9135L73.5024 60.6917H65.6511L64.24 64.6495H59.2773V64.1193L67.6021 42.6638H71.5893H71.5798ZM69.5625 49.5095L66.9865 56.6108H72.167L69.5625 49.5095Z" fill="#414042"/>
<path d="M95.0781 42.6638V47.1519H89.2347V64.6495H84.4615V47.1519H78.6465V42.6638H95.0781Z" fill="#414042"/>
<path d="M104.843 60.2844H108.3V64.6493H96.6133V60.2844H100.07V46.9718H96.6417V42.6731H108.234V46.9718H104.843V60.2844Z" fill="#414042"/>
<path d="M129.843 42.6638V43.1941L121.395 64.6495H117.91L109.424 43.1941V42.6638H114.386L116.11 47.3412L119.69 56.9233L124.965 42.6638H129.833H129.843Z" fill="#414042"/>
<path d="M136.757 60.1236H146.114V64.6495H131.975V42.6638H145.859V47.095H136.748V51.4316H145.234V55.7965H136.748V60.1331L136.757 60.1236Z" fill="#414042"/>
<path d="M158.305 42.6638H168.078V55.7965C168.078 61.5723 165.474 64.9336 159.185 64.9336C158.153 64.9336 157.017 64.8389 155.795 64.6495V60.0668C156.894 60.2562 157.746 60.313 158.532 60.313C162.207 60.313 163.305 58.3625 163.305 55.503V47.1519H158.314V42.6638H158.305Z" fill="#414042"/>
<path d="M170.957 53.6567C170.957 47.095 175.702 42.3135 182.331 42.3135C188.961 42.3135 193.706 47.0856 193.706 53.6567C193.706 60.2278 188.932 64.9999 182.331 64.9999C175.73 64.9999 170.957 60.2278 170.957 53.6567ZM188.771 53.6567C188.771 49.7651 186.072 46.9625 182.331 46.9625C178.59 46.9625 175.863 49.7557 175.863 53.6567C175.863 57.5577 178.6 60.3508 182.331 60.3508C186.063 60.3508 188.771 57.5577 188.771 53.6567Z" fill="#414042"/>
<path d="M196.556 56.8002V42.6638H201.33V56.0143C201.33 58.8075 202.835 60.2846 205.26 60.2846C207.684 60.2846 209.152 58.8075 209.152 56.0143V42.6638H213.926V56.8002C213.926 61.7901 210.44 64.9336 205.25 64.9336C200.061 64.9336 196.547 61.7901 196.547 56.8002H196.556Z" fill="#414042"/>
<path d="M234.722 64.1193V64.6495H229.286L222.722 55.7965V64.6495H217.949V42.6638H226.085C230.953 42.6638 233.841 45.6464 233.841 49.7936C233.841 53.0318 232.08 55.5693 228.907 56.4877L234.722 64.1193ZM225.895 47.2465H222.722V53.0223H225.924C227.837 53.0223 229.002 51.9902 229.002 50.1344C229.002 48.2786 227.808 47.2465 225.895 47.2465Z" fill="#414042"/>
<path d="M249.828 42.6638H254.602V64.6495H250.993L241.721 51.9618L241.75 58.6844V64.6495H236.977V42.6638H240.528L249.857 55.4178L249.828 50.3617V42.6638Z" fill="#414042"/>
<path d="M263.646 60.1236H273.013V64.6495H258.873V42.6638H272.757V47.095H263.646V51.4316H272.132V55.7965H263.646V60.1331V60.1236Z" fill="#414042"/>
<path d="M293.999 42.6638V43.2603L286.46 55.4746V64.6495H281.687V55.4746L274.148 43.1941V42.6638H279.395L281.877 46.9057L284.074 50.7404L286.271 46.9057L288.724 42.6638H293.999Z" fill="#414042"/>
<path d="M338.654 60.2846H342.111V64.6496H330.424V60.2846H333.881V46.972H330.452V42.6733H342.044V46.972H338.654V60.2846Z" fill="#414042"/>
<path d="M358.201 42.6638H362.975V64.6495H359.366L350.094 51.9618L350.123 58.6844V64.6495H345.35V42.6638H348.901L358.23 55.4178L358.201 50.3617V42.6638Z" fill="#414042"/>
<path d="M380.628 47.1518H372.019V51.9902H379.871V56.4782H372.019V64.64H367.246V42.6543H380.628V47.1423V47.1518Z" fill="#414042"/>
<path d="M392.562 60.2846H396.019V64.6496H384.332V60.2846H387.789V46.972H384.36V42.6733H395.953V46.972H392.562V60.2846Z" fill="#414042"/>
<path d="M412.102 42.6638H416.875V64.6495H413.267L403.995 51.9618L404.023 58.6844V64.6495H399.25V42.6638H402.802L412.13 55.4178L412.102 50.3617V42.6638Z" fill="#414042"/>
<path d="M428.369 60.2844H431.825V64.6493H420.139V60.2844H423.595V46.9718H420.167V42.6731H431.759V46.9718H428.369V60.2844Z" fill="#414042"/>
<path d="M449.793 42.6638V47.1519H443.95V64.6495H439.176V47.1519H433.361V42.6638H449.793Z" fill="#414042"/>
<path d="M457.105 60.1236H466.472V64.6495H452.332V42.6638H466.216V47.095H457.105V51.4316H465.591V55.7965H457.105V60.1331V60.1236Z" fill="#414042"/>
<path d="M477.617 64.6495V42.6638H485.847C492.543 42.6638 497.222 47.1235 497.222 53.6567C497.222 60.1899 492.543 64.6495 485.847 64.6495H477.617ZM482.39 60.0668H485.592C489.673 60.0668 492.287 57.5198 492.287 53.6567C492.287 49.7936 489.683 47.2465 485.592 47.2465H482.39V60.0668Z" fill="#414042"/>
<path d="M507.46 60.2844H510.917V64.6493H499.23V60.2844H502.687V46.9718H499.259V42.6731H510.851V46.9718H507.46V60.2844Z" fill="#414042"/>
<path d="M512.887 57.6425H517.632C517.793 59.4984 519.109 60.502 521.401 60.502C523.57 60.502 524.858 59.6499 524.858 58.2675C524.858 56.8851 523.693 56.1276 520.615 55.5974C516.088 54.8115 513.199 53.0504 513.199 49.0641C513.199 45.0779 516.533 42.3416 521.212 42.3416C525.89 42.3416 528.94 45.0401 529.318 49.2535H524.574C524.318 47.5871 523.125 46.7444 521.117 46.7444C519.109 46.7444 517.944 47.5587 517.944 48.9126C517.944 50.2666 518.948 50.8631 522.064 51.365C526.742 52.1509 529.697 54.1014 529.697 58.0876C529.697 62.4241 526.184 64.9332 521.401 64.9332C516.315 64.9332 513.171 62.2347 512.887 57.6425Z" fill="#414042"/>
<path d="M531.395 53.6567C531.395 47.095 536.073 42.3135 542.513 42.3135C548.044 42.3135 552.315 45.741 553.414 51.015H548.48C547.627 48.5342 545.402 46.9625 542.608 46.9625C538.933 46.9625 536.291 49.7557 536.291 53.6567C536.291 57.5577 538.933 60.3508 542.608 60.3508C545.44 60.3508 547.76 58.6844 548.574 56.0806H553.442C552.438 61.4871 548.101 64.9999 542.513 64.9999C536.073 64.9999 531.395 60.2278 531.395 53.6567Z" fill="#414042"/>
<path d="M555.201 53.6567C555.201 47.095 559.946 42.3135 566.576 42.3135C573.205 42.3135 577.95 47.0856 577.95 53.6567C577.95 60.2278 573.177 64.9999 566.576 64.9999C559.974 64.9999 555.201 60.2278 555.201 53.6567ZM573.016 53.6567C573.016 49.7651 570.316 46.9625 566.576 46.9625C562.835 46.9625 560.107 49.7557 560.107 53.6567C560.107 57.5577 562.844 60.3508 566.576 60.3508C570.307 60.3508 573.016 57.5577 573.016 53.6567Z" fill="#414042"/>
<path d="M598.579 42.6638V43.1941L590.131 64.6495H586.646L578.16 43.1941V42.6638H583.123L584.846 47.3412L588.426 56.9233L593.702 42.6638H598.569H598.579Z" fill="#414042"/>
<path d="M605.492 60.1236H614.849V64.6495H600.709V42.6638H614.593V47.095H605.482V51.4316H613.968V55.7965H605.482V60.1331L605.492 60.1236Z" fill="#414042"/>
<path d="M634.956 64.1193V64.6495H629.52L622.957 55.7965V64.6495H618.184V42.6638H626.319C631.187 42.6638 634.075 45.6464 634.075 49.7936C634.075 53.0318 632.314 55.5693 629.141 56.4877L634.956 64.1193ZM626.13 47.2465H622.957V53.0223H626.158C628.071 53.0223 629.236 51.9902 629.236 50.1344C629.236 48.2786 628.043 47.2465 626.13 47.2465Z" fill="#414042"/>
<path d="M654.02 42.6638V43.2603L646.482 55.4746V64.6495H641.709V55.4746L634.17 43.1941V42.6638H639.417L641.898 46.9057L644.095 50.7404L646.292 46.9057L648.745 42.6638H654.02Z" fill="#414042"/>
<path d="M307.848 55.6165C307.848 53.7607 309.107 52.5393 311.02 52.5393C312.933 52.5393 314.193 53.7607 314.193 55.6165C314.193 57.4724 312.905 58.6938 311.02 58.6938C309.136 58.6938 307.848 57.4724 307.848 55.6165Z" fill="#414042"/>
<path d="M191.716 28.6601H173.532L170.341 26.2741L168.693 28.6601H163.475L167.405 23.1779V18.7278H164.308V16.1523L167.083 10.2251H164.052V7.64968H171.496V10.3577L168.977 16.1618H171.496V23.765L171.847 24.0206L173.334 19.0213V6.09686H171.885V3.52144H175.37L174.404 0.396859H178.883L179.849 3.52144H182.236V5.35832L184.234 0.396859H188.648L187.682 2.7545H192.55V5.32991H186.649L185.617 7.84852H181.232L181.942 6.10633H177.141V9.6854H182.141V24.7023H178.4L177.179 22.1269H178.467V12.2608H177.141V19.7409L175.654 24.7023H172.756L174.565 26.0847H193.099L191.716 28.6601ZM166.732 6.35251L164.479 0.38739H169.252L171.638 6.35251H166.742H166.732ZM189.784 18.2827V24.6929H183.884L182.662 22.1175H185.854V18.2827H182.757V15.7073H185.854V13.8042L187.502 11.6738H182.766V9.09835H192.048V11.5507L189.794 14.5143V15.7073H192.635V18.2827H189.794H189.784Z" fill="#414042"/>
<path d="M221.153 13.9271L219.666 10.9635H202.704L201.217 13.9271H196.699L203.215 0.775452H219.145L225.661 13.9271H221.143H221.153ZM198.679 28.66V15.2243H223.7V28.66H198.679ZM219.344 17.7997H203.035V26.0846H219.344V17.7997ZM215.896 3.36033H206.482L203.963 8.38807H218.406L215.896 3.36033Z" fill="#414042"/>
<path d="M235.111 19.542V24.8917L233.729 28.6601H229.533L231.077 24.5319V8.54915H237.328L236.39 4.9038H240.548L241.485 8.54915H246.836V19.542H235.102H235.111ZM243.749 7.81061L241.495 3.33204H236.238L233.984 7.81061H229.571L232.829 0.756622H244.914L248.172 7.81061H243.758H243.749ZM242.811 11.1624H235.111V12.7437H242.811V11.1624ZM242.811 15.3191H235.111V16.9287H242.811V15.3191ZM236.362 28.6601V20.9244H247.196V28.6601H236.362ZM243.266 23.4998H240.301V26.0752H243.266V23.4998ZM249.838 28.6601L248.456 26.0184H253.939V0.358948H257.964V28.6601H249.838ZM248.74 23.0548V2.71659H252.282V23.0548H248.74Z" fill="#414042"/>
<path d="M266.696 28.6602H262.217L265.02 21.8902H269.5L266.696 28.6602ZM262.832 9.42029V7.07212H269.348L267.606 4.75236H263.742V2.30003H274.377L273.572 0.368469H278.828L279.671 2.30003H290.212V4.75236H286.282L284.511 7.07212H290.989V9.42029H262.842H262.832ZM264.442 20.5741V10.6133H289.492V20.5741H264.442ZM284.88 13.1225H268.761V14.5427H284.88V13.1225ZM284.88 16.8341H268.761V18.3206H284.88V16.8341ZM283.848 28.6602H270.504V21.3789H274.86V26.2457H285.079L283.857 28.6602H283.848ZM272.89 4.74289L274.633 7.06265H279.245L281.016 4.74289H272.89ZM278.658 25.1095L276.432 21.4073H280.978L283.232 25.1095H278.658ZM287.134 28.6602L283.782 21.8239H288.299L291.652 28.6602H287.134Z" fill="#414042"/>
<path d="M338.464 7.54546V12.1187L340.33 10.9257V14.1166L338.464 15.3096V28.6506H332.564L331.305 26.0752H334.108V18.0838L331.238 19.8923V16.7014L334.108 14.893V7.54546H331.428V4.97004H334.108V0.39679H338.464V4.97004H340.368V7.54546H338.464ZM344.232 28.1772H340.046L343.304 18.3111H347.462L344.242 28.1772H344.232ZM359.158 12.6774H352.481V14.5426H359.963V17.1559H352.481V28.6979H348.191V17.1559H340.652V14.5426H348.191V11.8347H351.638V4.67652H355.284L355.256 3.35094H345.425V4.67652H348.873V10.386L345.87 12.9993H340.52L344.706 9.42021V6.77852H341.126V0.747122H359.565V6.74064H355.824L355.796 10.0641H360.474L359.148 12.6774H359.158ZM356.099 28.1772L353.258 18.3111H357.415L360.285 28.1772H356.099Z" fill="#414042"/>
<path d="M369.566 28.6885H363.922L368.856 22.695H374.302L369.566 28.6885ZM388.233 12.1566V9.86523H368.894V12.1566H364.604V7.3845H376.366V5.51921H365.181V3.01008H376.366V0.39679H380.751V3.01008H391.936V5.51921H380.751V7.3845H392.514V12.1566H388.224H388.233ZM388.072 21.7008L386.491 19.6367L385.165 21.7292H380.78V28.6601H373.913L372.625 26.0847H376.433V21.7292H365.153V19.2106H370.798L375.088 16.8908H365.863V14.3722L372.635 10.7269H379.634L372.796 14.3722H379.728L382.92 12.63H390.08L377.957 19.2011H386.178L383.981 16.3322H388.943L393.006 21.6818H388.072V21.7008ZM387.362 28.6601L382.494 22.6666H387.911L392.968 28.6601H387.362Z" fill="#414042"/>
<path d="M401.038 28.6601H396.814L399.428 21.5683H403.681L401.038 28.6601ZM397.487 20.4415V17.8661H399.968V12.5827H397.487V10.0073H399.968V8.00947H397.032L402.061 0.406311H406.901L405.679 2.24319H425.018V4.8186H422.887V10.0073H425.369V12.5827H422.887V17.8661H425.369V20.4415H397.487ZM406.295 4.80913H403.936V9.99784H406.295V4.80913ZM406.295 12.5733H403.936V17.8566H406.295V12.5733ZM407.194 28.6601L404.552 21.5683H408.842L411.485 28.6601H407.194ZM412.612 4.80913H410.263V9.99784H412.612V4.80913ZM412.612 12.5733H410.263V17.8566H412.612V12.5733ZM414.411 28.6601L411.731 21.5683H416.021L418.701 28.6601H414.411ZM418.929 4.80913H416.58V9.99784H418.929V4.80913ZM418.929 12.5733H416.58V17.8566H418.929V12.5733ZM421.76 28.6601L419.08 21.5683H423.37L426.051 28.6601H421.76Z" fill="#414042"/>
<path d="M434.564 25.3083V28.7264H430.539V0.718811H441.08V11.1909L438.921 12.8005L441.08 14.0598V25.3083H434.564ZM437.045 3.29423H434.564V11.3519H437.045V3.29423ZM437.045 13.9273H434.564V22.7235H437.045V13.9273ZM446.876 15.3191V26.0848H452.094L450.835 28.6602H442.68V0.718811H457.957V15.3191H446.867H446.876ZM453.771 3.29423H446.876V6.71233H453.771V3.29423ZM453.771 9.28775H446.876V12.7343H453.771V9.28775ZM454.519 28.6602L447.331 16.5406H452.038L453.846 19.5705L455.134 16.5406H458.942L456.527 22.0512H455.305L459.235 28.6602H454.528H454.519Z" fill="#414042"/>
<path d="M324.452 7.79474e-05L296.332 28.1133L297.564 29.3452L325.684 1.23199L324.452 7.79474e-05Z" fill="#414042"/>
<path d="M297.564 0.0066322L296.332 1.23853L324.452 29.3517L325.684 28.1198L297.564 0.0066322Z" fill="#414042"/>
</svg>
