<svg width="221" height="47" viewBox="0 0 221 47" fill="none" xmlns="http://www.w3.org/2000/svg">
<g id="Group">
<path id="Vector" d="M0.718493 15.2635C0.718493 13.4111 1.13644 11.6348 1.98186 9.93447C2.82728 8.23413 4.03367 6.72377 5.61053 5.42239C7.18738 4.12101 9.08718 3.08561 11.3195 2.32568C13.5518 1.56576 16.05 1.18579 18.8333 1.18579C22.158 1.18579 25.0172 1.55626 27.4205 2.28769C29.8142 3.02862 31.8091 4.02602 33.3859 5.2894C34.9628 6.55279 36.1311 8.02515 36.8911 9.70649C37.651 11.3878 38.031 13.1737 38.031 15.0735C38.031 17.2583 37.4135 19.1676 36.1691 20.7824C34.9248 22.3973 33.3669 23.8127 31.4956 25.0096C29.6243 26.2064 27.601 27.2513 25.4352 28.1348C23.2694 29.0182 21.246 29.8636 19.3747 30.6615C17.5034 31.4594 15.9456 32.2479 14.7012 33.0268C13.4568 33.8057 12.8393 34.6986 12.8393 35.7055V37.0354H36.5016V45.9931H0.718493V37.5959C0.718493 35.3636 1.35493 33.4163 2.64681 31.7539C3.92919 30.0916 5.53453 28.6192 7.47234 27.3368C9.41016 26.0544 11.5095 24.8956 13.7798 23.8697C16.05 22.8438 18.1588 21.8653 20.0872 20.9344C22.025 20.013 23.6493 19.0821 24.9792 18.1607C26.2996 17.2393 26.9645 16.2039 26.9645 15.064C26.9645 14.0951 26.7555 13.2687 26.3281 12.5752C25.9101 11.8818 25.3402 11.3118 24.6277 10.8749C23.9153 10.4379 23.1269 10.096 22.2625 9.86797C21.398 9.63999 20.5241 9.51651 19.6407 9.51651C18.7573 9.51651 17.8074 9.6115 16.8005 9.80148C15.7936 9.99146 14.8532 10.3144 13.9887 10.7799C13.1243 11.2453 12.4024 11.8343 11.8134 12.5467C11.2245 13.2592 10.93 14.1711 10.93 15.2635H0.708984H0.718493Z" fill="#414042"/>
<path id="Vector_2" d="M43.123 41.6424C43.123 40.17 43.636 38.9256 44.6714 37.9187C45.6973 36.9118 46.9322 36.4084 48.3665 36.4084C49.8009 36.4084 51.0833 36.9118 52.0902 37.9187C53.0971 38.9256 53.6006 40.17 53.6006 41.6424C53.6006 43.1148 53.0971 44.3591 52.0902 45.366C51.0833 46.3729 49.8389 46.8764 48.3665 46.8764C46.8942 46.8764 45.7068 46.3729 44.6714 45.366C43.636 44.3591 43.123 43.1148 43.123 41.6424Z" fill="#414042"/>
<path id="Vector_3" d="M59.6501 15.2635C59.6501 13.4111 60.0681 11.6348 60.9135 9.93447C61.7589 8.23413 62.9653 6.72377 64.5422 5.42239C66.119 4.12101 68.0188 3.08561 70.2511 2.32568C72.4834 1.56576 74.9817 1.18579 77.7649 1.18579C81.0896 1.18579 83.9488 1.55626 86.3521 2.28769C88.7459 3.02862 90.7407 4.02602 92.3175 5.2894C93.8944 6.55279 95.0628 8.02515 95.8227 9.70649C96.5826 11.3878 96.9626 13.1737 96.9626 15.0735C96.9626 17.2583 96.3452 19.1676 95.1008 20.7824C93.8564 22.3973 92.2986 23.8127 90.4272 25.0096C88.5559 26.2064 86.5326 27.2513 84.3668 28.1348C82.201 29.0182 80.1777 29.8636 78.3064 30.6615C76.435 31.4594 74.8772 32.2479 73.6328 33.0268C72.3884 33.8057 71.771 34.6986 71.771 35.7055V37.0354H95.4332V45.9931H59.6501V37.5959C59.6501 35.3636 60.2865 33.4163 61.5784 31.7539C62.8608 30.0916 64.4757 28.6192 66.404 27.3368C68.3418 26.0544 70.4411 24.8956 72.7114 23.8697C74.9817 22.8438 77.0905 21.8653 79.0188 20.9344C80.9566 20.013 82.581 19.0821 83.9109 18.1607C85.2312 17.2393 85.8961 16.2039 85.8961 15.064C85.8961 14.0951 85.6872 13.2687 85.2597 12.5752C84.8418 11.8818 84.2718 11.3118 83.5593 10.8749C82.8469 10.4379 82.0585 10.096 81.1941 9.86797C80.3297 9.63999 79.4557 9.51651 78.5723 9.51651C77.6889 9.51651 76.739 9.6115 75.7321 9.80148C74.7252 9.99146 73.7848 10.3144 72.9204 10.7799C72.0559 11.2453 71.334 11.8343 70.7451 12.5467C70.1561 13.2592 69.8616 14.1711 69.8616 15.2635H59.6406H59.6501Z" fill="#414042"/>
<path id="Vector_4" d="M119.419 46.943C113.188 46.943 108.524 44.9387 105.408 40.9205C102.292 36.9024 100.734 31.2315 100.734 23.9076C100.734 16.5838 102.273 10.8654 105.341 6.86625C108.41 2.86713 113.102 0.872314 119.419 0.872314C125.736 0.872314 130.419 2.86713 133.487 6.86625C136.555 10.8654 138.094 16.5458 138.094 23.9076C138.094 31.2695 136.537 36.9024 133.421 40.9205C130.305 44.9387 125.641 46.943 119.41 46.943H119.419ZM110.898 23.9076C110.898 25.8835 111.012 27.7643 111.25 29.5596C111.478 31.3454 111.915 32.9223 112.542 34.2902C113.178 35.658 114.043 36.7409 115.164 37.5389C116.275 38.3368 117.7 38.7358 119.419 38.7358C121.138 38.7358 122.563 38.3368 123.675 37.5389C124.786 36.7409 125.66 35.658 126.297 34.2902C126.923 32.9223 127.36 31.3454 127.588 29.5596C127.816 27.7738 127.94 25.893 127.94 23.9076C127.94 21.9223 127.826 20.051 127.588 18.2557C127.36 16.4698 126.923 14.893 126.297 13.5251C125.67 12.1573 124.796 11.0744 123.675 10.2764C122.563 9.4785 121.138 9.07954 119.419 9.07954C117.7 9.07954 116.275 9.4785 115.164 10.2764C114.052 11.0744 113.178 12.1573 112.542 13.5251C111.915 14.893 111.478 16.4698 111.25 18.2557C111.022 20.0415 110.898 21.9223 110.898 23.9076Z" fill="#414042"/>
<path id="Vector_5" d="M142.199 15.2635C142.199 13.4112 142.617 11.6349 143.462 9.93453C144.308 8.23419 145.514 6.72383 147.091 5.42245C148.668 4.12107 150.568 3.08567 152.8 2.32575C155.032 1.56582 157.531 1.18585 160.314 1.18585C163.638 1.18585 166.498 1.55632 168.901 2.28775C171.295 3.02868 173.29 4.02608 174.866 5.28947C176.443 6.55285 177.612 8.02521 178.372 9.70655C179.131 11.3879 179.511 13.1737 179.511 15.0735C179.511 17.2583 178.894 19.1677 177.65 20.7825C176.405 22.3974 174.847 23.8127 172.976 25.0096C171.105 26.2065 169.081 27.2514 166.916 28.1348C164.75 29.0182 162.727 29.8637 160.855 30.6616C158.984 31.4595 157.426 32.2479 156.182 33.0269C154.937 33.8058 154.32 34.6987 154.32 35.7056V37.0355H177.982V45.9931H142.199V37.5959C142.199 35.3636 142.835 33.4163 144.127 31.754C145.41 30.0916 147.015 28.6193 148.953 27.3369C150.891 26.0545 152.99 24.8956 155.26 23.8697C157.531 22.8438 159.639 21.8654 161.568 20.9345C163.505 20.0131 165.13 19.0822 166.46 18.1608C167.78 17.2393 168.445 16.2039 168.445 15.064C168.445 14.0951 168.236 13.2687 167.809 12.5753C167.391 11.8818 166.821 11.3119 166.108 10.8749C165.396 10.438 164.607 10.096 163.743 9.86803C162.879 9.64006 162.005 9.51657 161.121 9.51657C160.238 9.51657 159.288 9.61156 158.281 9.80154C157.274 9.99152 156.334 10.3145 155.469 10.7799C154.605 11.2454 153.883 11.8343 153.294 12.5468C152.705 13.2592 152.411 14.1711 152.411 15.2635H142.189H142.199Z" fill="#414042"/>
<path id="Vector_6" d="M195.079 32.3619C195.079 33.7962 195.307 34.9836 195.772 35.924C196.238 36.8739 196.874 37.6244 197.701 38.1943C198.518 38.7643 199.487 39.1537 200.607 39.3627C201.719 39.5717 202.935 39.6762 204.236 39.6762C206.554 39.6762 208.283 38.8782 209.442 37.2824C210.601 35.6865 211.18 33.4163 211.18 30.4715C211.18 27.5268 210.657 25.209 209.603 23.6512C208.549 22.0933 207.019 21.3144 204.996 21.3144C204.027 21.3144 203.068 21.3809 202.127 21.5044C201.177 21.6279 200.294 21.8748 199.477 22.2263C198.66 22.5873 197.929 23.0907 197.302 23.7367C196.675 24.3921 196.209 25.266 195.915 26.3584H185.751V2.24969H219.834V11.0839H195.031V21.7514C195.62 19.4811 196.893 17.7237 198.85 16.4794C200.807 15.235 203.068 14.6175 205.632 14.6175C208.321 14.6175 210.639 14.9025 212.576 15.4725C214.514 16.0424 216.101 16.9448 217.345 18.1892C218.589 19.4336 219.501 21.0199 220.09 22.9577C220.679 24.8956 220.974 27.2513 220.974 30.0251C220.974 33.3878 220.613 36.171 219.9 38.3558C219.188 40.5406 218.076 42.2789 216.585 43.5613C215.094 44.8437 213.194 45.7366 210.904 46.2401C208.606 46.7435 205.87 47 202.669 47C200.522 47 198.385 46.8005 196.266 46.4015C194.139 46.0026 192.239 45.2616 190.557 44.1882C188.876 43.1148 187.508 41.633 186.454 39.7427C185.399 37.8523 184.877 35.4111 184.877 32.4189L195.098 32.3524L195.079 32.3619Z" fill="#414042"/>
</g>
</svg>
